<svg xmlns="http://www.w3.org/2000/svg" width="52" height="52" viewBox="0 0 52 52"><g transform="translate(-901)"><rect width="52" height="52" rx="14" transform="translate(901)" fill="#fecd07"/><g transform="translate(911.001 9.999)"><path d="M17.387,15.513h7.572a1.783,1.783,0,0,0,1.781-1.781v-.288A4.662,4.662,0,0,0,24.188,9.3a4.235,4.235,0,1,0-6.03,0,4.66,4.66,0,0,0-2.552,4.14v.288a1.783,1.783,0,0,0,1.781,1.782ZM21.173,3.9a2.436,2.436,0,1,1-2.435,2.435A2.438,2.438,0,0,1,21.173,3.9Zm-3.767,9.543a2.875,2.875,0,0,1,2.872-2.872h1.789a2.875,2.875,0,0,1,2.872,2.872v.269l-7.533.02Z" fill="#079b7e"/><path d="M28.676,19.873l-.1-.111a3.063,3.063,0,0,0-3.9-.461l-2.657,1.732A3.018,3.018,0,0,0,19.64,17.5l-4.08-.856a6.6,6.6,0,0,0-5.042,1l-.692.471A2.235,2.235,0,0,0,7.6,16.01H5.335a2.848,2.848,0,0,0-2.844,2.845v8.2A2.848,2.848,0,0,0,5.335,29.9H7.6a2.232,2.232,0,0,0,2.214-2.015l5.487,1.385a6.521,6.521,0,0,0,1.61.2,6.6,6.6,0,0,0,1.468-.166l4.6-1.057a6.575,6.575,0,0,0,3.08-1.664l2.5-2.4a3.072,3.072,0,0,0,.106-4.308ZM8.041,27.663A.437.437,0,0,1,7.6,28.1H5.335a1.045,1.045,0,0,1-1.044-1.044v-8.2A1.045,1.045,0,0,1,5.335,17.81H7.6a.437.437,0,0,1,.437.437Zm19.281-4.781-2.5,2.4a4.769,4.769,0,0,1-2.236,1.209l-4.6,1.057a4.789,4.789,0,0,1-2.233-.025L9.84,26.034V20.28l1.691-1.15a4.8,4.8,0,0,1,3.659-.723l4.081.856a1.261,1.261,0,0,1-.259,2.494H16.2a.9.9,0,0,0,0,1.8h4.333a3.058,3.058,0,0,0,1.671-.5l3.456-2.253a1.259,1.259,0,0,1,1.6.187l.1.111a1.265,1.265,0,0,1-.042,1.777Z" fill="#101828"/></g></g></svg>