<?xml version="1.0" encoding="UTF-8"?>
<svg id="Layer_1" data-name="Layer 1" xmlns="http://www.w3.org/2000/svg" viewBox="0 0 124 124">
  <defs>
    <style>
      .cls-1 {
        fill: #313131;
      }
    </style>
  </defs>
  <path class="cls-1" d="M88.43,76.85c-6.37,0-11.56,5.19-11.56,11.56s5.18,11.56,11.56,11.56,11.56-5.19,11.56-11.56-5.18-11.56-11.56-11.56ZM88.43,92.94c-2.5,0-4.53-2.03-4.53-4.53s2.03-4.53,4.53-4.53,4.53,2.03,4.53,4.53-2.03,4.53-4.53,4.53Z"/>
  <path class="cls-1" d="M120.3,93.78l-5.47-3.31c.05-.69.08-1.37.08-2.06s-.03-1.37-.08-2.06l5.47-3.31c1.62-.98,2.17-3.08,1.24-4.73l-7.32-12.99c-.93-1.65-3.01-2.27-4.69-1.39l-.18.09V5.52c0-1.94-1.57-3.52-3.52-3.52H5.52c-1.94,0-3.52,1.57-3.52,3.52v66.56c0,1.94,1.57,3.52,3.52,3.52h8.4v10.12c0,1.32.74,2.53,1.91,3.13.51.26,1.05.39,1.6.39.72,0,1.45-.22,2.06-.66l18.13-13.07h19.27l-1.58,2.81c-.93,1.65-.38,3.75,1.24,4.73l5.47,3.31c-.05.69-.08,1.37-.08,2.06s.03,1.37.08,2.06l-5.47,3.31c-1.62.98-2.17,3.08-1.24,4.73l7.32,12.99c.93,1.65,3.01,2.27,4.69,1.39l5.67-2.97c1.35.97,2.78,1.81,4.28,2.5l.19,6.16c.06,1.9,1.62,3.41,3.51,3.41h14.91c1.9,0,3.45-1.51,3.51-3.41l.19-6.16c1.5-.7,2.93-1.54,4.28-2.5l5.67,2.97c1.68.88,3.76.27,4.69-1.39l7.32-12.99c.93-1.65.38-3.75-1.24-4.73h0ZM36.48,68.47c-.74,0-1.46.23-2.06.66l-13.48,9.72v-6.77c0-1.94-1.57-3.52-3.52-3.52h-8.4V9.03h93.3v56.84c-.88-.54-1.79-1.04-2.73-1.48l-.21-6.62c-.06-1.9-1.62-3.41-3.51-3.41h-14.91c-1.9,0-3.45,1.51-3.51,3.41l-.21,6.62c-1.5.7-2.92,1.53-4.27,2.5l-5.67-2.97c-1.68-.88-3.76-.27-4.69,1.39l-1.77,3.15h-24.37,0ZM107.6,85.11c.19,1.09.28,2.2.28,3.3s-.09,2.21-.28,3.3c-.24,1.42.41,2.85,1.65,3.6l4.5,2.73-3.97,7.05-4.67-2.44c-1.28-.67-2.84-.49-3.94.46-1.84,1.6-3.93,2.82-6.21,3.63-1.36.49-2.29,1.76-2.33,3.2l-.16,5.03h-8.09l-.16-5.03c-.04-1.45-.97-2.72-2.33-3.2-2.28-.81-4.37-2.04-6.21-3.63-1.09-.95-2.65-1.13-3.94-.46l-4.67,2.44-3.97-7.05,4.5-2.73c1.24-.75,1.89-2.18,1.65-3.6-.19-1.09-.28-2.2-.28-3.3s.09-2.21.28-3.3c.24-1.42-.41-2.85-1.65-3.6l-4.5-2.73,3.97-7.05,4.67,2.44c1.28.67,2.84.49,3.94-.46,1.84-1.59,3.92-2.82,6.2-3.63,1.36-.49,2.29-1.76,2.33-3.2l.17-5.49h8.09l.17,5.49c.04,1.44.97,2.71,2.33,3.2,2.28.81,4.37,2.04,6.2,3.63,1.09.95,2.65,1.13,3.94.46l4.67-2.44,3.97,7.05-4.5,2.73c-1.24.75-1.89,2.18-1.65,3.6h0Z"/>
  <path class="cls-1" d="M69.62,54.29c0-1.94-1.57-3.52-3.52-3.52H21.41c-1.94,0-3.52,1.57-3.52,3.52s1.57,3.52,3.52,3.52h44.69c1.94,0,3.52-1.57,3.52-3.52Z"/>
  <path class="cls-1" d="M21.41,42.16h67.9c1.94,0,3.52-1.57,3.52-3.52s-1.57-3.52-3.52-3.52H21.41c-1.94,0-3.52,1.57-3.52,3.52s1.57,3.52,3.52,3.52Z"/>
  <path class="cls-1" d="M21.41,26.53h67.9c1.94,0,3.52-1.57,3.52-3.52s-1.57-3.52-3.52-3.52H21.41c-1.94,0-3.52,1.57-3.52,3.52s1.57,3.52,3.52,3.52Z"/>
</svg>