<?xml version="1.0" encoding="UTF-8"?>
<svg id="Layer_1" data-name="Layer 1" xmlns="http://www.w3.org/2000/svg" viewBox="0 0 124 124">
  <defs>
    <style>
      .cls-1 {
        fill: #313131;
      }
    </style>
  </defs>
  <path class="cls-1" d="M90.7,15.08c-2.01-7.6-8.94-13.08-16.98-13.08-4.38,0-8.53,1.62-11.72,4.48-3.18-2.85-7.33-4.48-11.72-4.48-8.05,0-14.98,5.48-16.98,13.08-8.73,3.16-14.66,11.46-14.66,20.91,0,4.66,1.45,9.14,4.13,12.89-2.68,3.75-4.13,8.23-4.13,12.89,0,9.45,5.92,17.75,14.66,20.91,1.5,5.66,5.73,10.15,11.12,12.07v6.87c0,3.27,1.92,6.09,4.69,7.41v.09c0,7.11,5.78,12.89,12.89,12.89s12.89-5.78,12.89-12.89v-.09c2.77-1.32,4.69-4.14,4.69-7.41v-6.87c5.39-1.92,9.63-6.4,11.12-12.07,8.73-3.16,14.66-11.46,14.66-20.91,0-4.66-1.45-9.14-4.13-12.89,2.68-3.75,4.13-8.23,4.13-12.89,0-9.45-5.92-17.75-14.66-20.91h0ZM71.38,102.78h-18.75c-.65,0-1.17-.53-1.17-1.17v-5.86h21.09v5.86c0,.65-.53,1.17-1.17,1.17ZM39.79,18.48c.66-5.26,5.19-9.45,10.49-9.45,3.21,0,6.21,1.46,8.2,3.93v44.82c-4.09-1.13-7.03-4.17-7.03-7.73,0-1.94-1.57-3.52-3.52-3.52s-3.52,1.57-3.52,3.52c0,7.36,6.05,13.51,14.06,14.93v23.74h-8.2c-5.3,0-9.83-4.21-10.49-9.47-.31-3.08.74-6.24,3.03-8.54,1.37-1.37,1.37-3.6,0-4.97s-3.6-1.37-4.97,0c-2.54,2.54-4.16,5.71-4.82,9.06-4.48-2.7-7.36-7.58-7.36-13.03,0-3.9,1.49-7.62,4.19-10.47,1.29-1.36,1.29-3.48,0-4.84-2.7-2.85-4.19-6.57-4.19-10.47,0-5.45,2.88-10.34,7.37-13.03.66,3.39,2.31,6.56,4.81,9.06.69.69,1.59,1.03,2.49,1.03s1.8-.34,2.49-1.03c1.37-1.37,1.37-3.6,0-4.97-2.25-2.25-3.36-5.41-3.03-8.56h0ZM62,114.97c-2.99,0-5.47-2.26-5.82-5.16h11.63c-.35,2.9-2.82,5.16-5.82,5.16h0ZM84.21,18.48c.33,3.15-.78,6.31-3.03,8.56-1.37,1.37-1.37,3.6,0,4.97.69.69,1.59,1.03,2.49,1.03s1.8-.34,2.49-1.03c2.5-2.5,4.15-5.67,4.81-9.06,4.49,2.7,7.37,7.59,7.37,13.03,0,3.9-1.49,7.62-4.19,10.47-1.29,1.36-1.29,3.48,0,4.84,2.7,2.85,4.19,6.57,4.19,10.47,0,5.45-2.88,10.34-7.37,13.04-.65-3.35-2.27-6.52-4.81-9.06-1.37-1.37-3.6-1.37-4.97,0s-1.37,3.6,0,4.97c2.3,2.3,3.35,5.45,3.03,8.54-.66,5.26-5.19,9.47-10.49,9.47h-8.2v-48.75c4.09,1.13,7.03,4.17,7.03,7.73,0,1.94,1.57,3.52,3.52,3.52s3.52-1.57,3.52-3.52c0-7.36-6.05-13.51-14.06-14.93V12.96c2-2.48,4.99-3.93,8.2-3.93,5.3,0,9.83,4.19,10.49,9.44Z"/>
  <path class="cls-1" d="M108.53,23.87c1.08,1.62,3.26,2.05,4.88.98l7.03-4.69c1.62-1.08,2.05-3.26.98-4.88s-3.26-2.05-4.88-.97l-7.03,4.69c-1.62,1.08-2.05,3.26-.98,4.88Z"/>
  <path class="cls-1" d="M120.43,77.59l-7.03-4.69c-1.62-1.08-3.8-.64-4.88.98s-.64,3.8.98,4.88l7.03,4.69c1.62,1.08,3.8.64,4.88-.98,1.08-1.62.64-3.8-.98-4.88Z"/>
  <path class="cls-1" d="M14.5,19l-7.03-4.69c-1.62-1.08-3.8-.64-4.88.97s-.64,3.8.97,4.88l7.03,4.69c1.62,1.08,3.8.64,4.88-.98,1.08-1.62.64-3.8-.98-4.88Z"/>
  <path class="cls-1" d="M10.6,72.9l-7.03,4.69c-1.62,1.08-2.05,3.26-.97,4.88,1.08,1.62,3.26,2.05,4.88.98l7.03-4.69c1.62-1.08,2.05-3.26.97-4.88-1.08-1.62-3.26-2.05-4.88-.98Z"/>
  <path class="cls-1" d="M12.55,52.39h-7.03c-1.94,0-3.52-1.57-3.52-3.52s1.57-3.52,3.52-3.52h7.03c1.94,0,3.52,1.57,3.52,3.52s-1.57,3.52-3.52,3.52Z"/>
  <path class="cls-1" d="M118.48,52.39h-7.03c-1.94,0-3.52-1.57-3.52-3.52s1.57-3.52,3.52-3.52h7.03c1.94,0,3.52,1.57,3.52,3.52s-1.57,3.52-3.52,3.52Z"/>
</svg>