<?xml version="1.0" encoding="UTF-8"?><svg id="a" xmlns="http://www.w3.org/2000/svg" viewBox="0 0 124 124"><defs><style>.b{fill:#313131;}</style></defs><path class="b" d="M33.9,107.9c-1.9,0-3.5,1.6-3.5,3.5v7c0,1.9,1.6,3.5,3.5,3.5s3.5-1.6,3.5-3.5v-7c0-1.9-1.6-3.5-3.5-3.5Z"/><path class="b" d="M50.4,101.9c-1.4-1.4-3.6-1.4-5,0-1.4,1.4-1.4,3.6,0,5l7,7c1.4,1.4,3.6,1.4,5,0s1.4-3.6,0-5l-7-7Z"/><path class="b" d="M17.3,101.9l-7,7c-2.2,2.2-.6,6,2.5,6s1.8-.3,2.5-1l7-7c1.4-1.4,1.4-3.6,0-5-1.4-1.4-3.6-1.4-5,0Z"/><path class="b" d="M90.1,16.1c1.9,0,3.5-1.6,3.5-3.5v-7c0-1.9-1.6-3.5-3.5-3.5s-3.5,1.6-3.5,3.5v7c0,1.9,1.6,3.5,3.5,3.5Z"/><path class="b" d="M106.7,22.1l7-7c1.4-1.4,1.4-3.6,0-5-1.4-1.4-3.6-1.4-5,0l-7,7c-1.4,1.4-1.4,3.6,0,5,1.4,1.4,3.6,1.4,5,0Z"/><path class="b" d="M73.6,22.1c1.4,1.4,3.6,1.4,5,0,1.4-1.4,1.4-3.6,0-5l-7-7c-1.4-1.4-3.6-1.4-5,0s-1.4,3.6,0,5l7,7Z"/><path class="b" d="M111.5,58.5h7c1.9,0,3.5-1.6,3.5-3.5v-21.1c0-1.9-1.6-3.5-3.5-3.5h-21.3c-1.9,0-3.5,1.6-3.5,3.5v7c0,1.9-1.6,3.5-3.5,3.5s-3.5-1.6-3.5-3.5v-7c0-1.9-1.6-3.5-3.5-3.5h-38.7v-3.5c0-5.8-4.7-10.5-10.5-10.5s-10.5,4.7-10.5,10.5v3.5H5.5c-1.9,0-3.5,1.6-3.5,3.5v21.1c0,1.9,1.6,3.5,3.5,3.5h7c1.9,0,3.5,1.6,3.5,3.5s-1.6,3.5-3.5,3.5h-7c-1.9,0-3.5,1.6-3.5,3.5v21.1c0,1.9,1.6,3.5,3.5,3.5h21.3c1.9,0,3.5-1.6,3.5-3.5v-7c0-1.9,1.6-3.5,3.5-3.5s3.5,1.6,3.5,3.5v7c0,1.9,1.6,3.5,3.5,3.5h38.7v3.5c0,5.8,4.7,10.5,10.5,10.5s10.5-4.7,10.5-10.5v-3.5h17.8c1.9,0,3.5-1.6,3.5-3.5v-21.1c0-1.9-1.6-3.5-3.5-3.5h-7c-1.9,0-3.5-1.6-3.5-3.5s1.6-3.5,3.5-3.5ZM33.9,72.5c-5.8,0-10.5,4.7-10.5,10.5v3.5h-14.3v-14.1h3.5c5.8,0,10.5-4.7,10.5-10.5s-4.7-10.5-10.5-10.5h-3.5v-14.1h17.8c1.9,0,3.5-1.6,3.5-3.5v-7c0-1.9,1.6-3.5,3.5-3.5s3.5,1.6,3.5,3.5v7c0,1.9,1.6,3.5,3.5,3.5h17.6v17.6c0,1.9,1.6,3.5,3.5,3.5h7c1.9,0,3.5,1.6,3.5,3.5s-1.6,3.5-3.5,3.5h-7c-1.9,0-3.5,1.6-3.5,3.5v17.6h-14.1v-3.5c0-5.8-4.7-10.5-10.5-10.5ZM111.5,72.5h3.5v14.1h-17.8c-1.9,0-3.5,1.6-3.5,3.5v7c0,1.9-1.6,3.5-3.5,3.5s-3.5-1.6-3.5-3.5v-7c0-1.9-1.6-3.5-3.5-3.5h-17.6v-14.1h3.5c5.8,0,10.5-4.7,10.5-10.5s-4.7-10.5-10.5-10.5h-3.5v-14.1h14.1v3.5c0,5.8,4.7,10.5,10.5,10.5s10.5-4.7,10.5-10.5v-3.5h14.3v14.1h-3.5c-5.8,0-10.5,4.7-10.5,10.5s4.7,10.5,10.5,10.5Z"/></svg>