<?xml version="1.0" encoding="UTF-8"?><svg id="a" xmlns="http://www.w3.org/2000/svg" viewBox="0 0 124 124"><defs><style>.b{fill:#313131;fill-rule:evenodd;}</style></defs><path class="b" d="M48.1,59.4c-1.4,0-2.6,1.2-2.6,2.6v20.9c0,1.4,1.2,2.6,2.6,2.6h27.8c1.4,0,2.6-1.2,2.6-2.6v-20.9c0-1.4-1.2-2.6-2.6-2.6h-27.8ZM36.8,62c0-6.2,5.1-11.3,11.3-11.3h27.8c6.2,0,11.3,5.1,11.3,11.3v20.9c0,6.2-5.1,11.3-11.3,11.3h-27.8c-6.2,0-11.3-5.1-11.3-11.3v-20.9Z"/><path class="b" d="M62,38.5c-5.3,0-9.6,4.3-9.6,9.6v7c0,2.4-1.9,4.3-4.3,4.3s-4.3-1.9-4.3-4.3v-7c0-10.1,8.2-18.3,18.3-18.3s18.3,8.2,18.3,18.3v7c0,2.4-1.9,4.3-4.3,4.3s-4.3-1.9-4.3-4.3v-7c0-5.3-4.3-9.6-9.6-9.6ZM62,64.6c2.4,0,4.3,1.9,4.3,4.3v7c0,2.4-1.9,4.3-4.3,4.3s-4.3-1.9-4.3-4.3v-7c0-2.4,1.9-4.3,4.3-4.3Z"/><path class="b" d="M31.1,3.3c.8-.8,1.9-1.3,3.1-1.3h69.6c10.1,0,18.3,8.2,18.3,18.2h0v83.5c0,10.1-8.2,18.3-18.2,18.3H20.3c-10.1,0-18.3-8.2-18.3-18.2,0,0,0,0,0,0V34.2c0-1.2.5-2.3,1.3-3.1L31.1,3.3ZM36,10.7l-25.3,25.3v67.8c0,5.3,4.3,9.6,9.6,9.6h83.5c5.3,0,9.6-4.3,9.6-9.6V20.3c0-5.3-4.3-9.6-9.6-9.6H36Z"/><path class="b" d="M34.2,2c2.4,0,4.3,1.9,4.3,4.3v13.9c0,10.1-8.2,18.3-18.2,18.3H6.3c-2.4,0-4.3-1.9-4.3-4.3s1.9-4.3,4.3-4.3h13.9c5.3,0,9.6-4.3,9.6-9.6V6.3c0-2.4,1.9-4.3,4.3-4.3Z"/></svg>