<?xml version="1.0" encoding="UTF-8"?>
<svg id="Layer_1" data-name="Layer 1" xmlns="http://www.w3.org/2000/svg" viewBox="0 0 124 124">
  <defs>
    <style>
      .cls-1 {
        fill: #313131;
      }
    </style>
  </defs>
  <path class="cls-1" d="M121,59.45l-10.78-11.25c-1.34-1.4-3.57-1.45-4.97-.11-1.4,1.34-1.45,3.57-.11,4.97l5.19,5.42h-22.34c-.71-5.3-3-10.1-6.37-13.91,6.02-9.3,9.77-19.74,11.04-30.67l4.48,4.79c.69.74,1.63,1.12,2.57,1.12.86,0,1.72-.31,2.4-.95,1.42-1.33,1.49-3.55.17-4.97l-10.08-10.78c-1.27-1.41-3.65-1.48-5-.14l-11.25,10.78c-1.4,1.34-1.45,3.57-.11,4.97.69.72,1.61,1.08,2.54,1.08.87,0,1.75-.32,2.43-.98l4.71-4.51c-1.23,9.09-4.38,17.79-9.28,25.62-4.11-2.67-9-4.23-14.26-4.23s-10.15,1.56-14.26,4.23c-4.91-7.83-8.05-16.52-9.28-25.62l4.71,4.51c.68.65,1.56.98,2.43.98.92,0,1.85-.36,2.54-1.08,1.34-1.4,1.3-3.63-.11-4.97l-11.25-10.78c-1.35-1.34-3.72-1.28-5,.14l-10.08,10.78c-1.33,1.42-1.25,3.64.17,4.97.68.63,1.54.95,2.4.95.94,0,1.88-.37,2.57-1.12l4.48-4.79c1.27,10.93,5.02,21.37,11.04,30.67-3.37,3.82-5.66,8.62-6.37,13.91H13.66l5.19-5.42c1.34-1.4,1.3-3.63-.11-4.97s-3.63-1.3-4.97.11l-10.78,11.25c-1.33,1.42-1.33,3.68,0,5.1l10.78,11.25c.69.72,1.61,1.08,2.54,1.08.87,0,1.75-.32,2.43-.98,1.4-1.34,1.45-3.57.11-4.97l-5.19-5.42h22.34c.71,5.3,3,10.1,6.37,13.91-6.02,9.3-9.77,19.74-11.04,30.67l-4.48-4.79c-1.33-1.42-3.55-1.49-4.97-.17s-1.49,3.55-.17,4.97l10.08,10.78c1.27,1.41,3.65,1.48,5,.14l11.25-10.78c1.4-1.34,1.45-3.57.11-4.97-1.34-1.4-3.57-1.45-4.97-.11l-4.71,4.51c1.23-9.09,4.38-17.79,9.28-25.62,4.11,2.67,9,4.23,14.26,4.23s10.15-1.56,14.26-4.23c4.91,7.83,8.05,16.52,9.28,25.62l-4.71-4.51c-1.4-1.34-3.63-1.3-4.97.11-1.34,1.4-1.3,3.63.11,4.97l11.25,10.78c1.35,1.34,3.72,1.28,5-.14l10.08-10.78c1.33-1.42,1.25-3.64-.17-4.97-1.42-1.33-3.64-1.25-4.97.17l-4.48,4.79c-1.27-10.93-5.02-21.37-11.04-30.67,3.37-3.82,5.66-8.62,6.37-13.91h22.34l-5.19,5.42c-1.34,1.4-1.3,3.63.11,4.97.68.65,1.56.98,2.43.98.92,0,1.85-.36,2.54-1.08l10.78-11.25c1.33-1.42,1.33-3.68,0-5.1h0ZM42.79,62c0-10.63,8.62-19.27,19.21-19.27s19.21,8.64,19.21,19.27-8.62,19.27-19.21,19.27-19.21-8.64-19.21-19.27h0Z"/>
  <path class="cls-1" d="M66.46,55.06l-6.4,6.41-2.52-2.52c-1.37-1.37-3.6-1.38-4.97,0s-1.38,3.6,0,4.97l5.01,5.02c.66.66,1.55,1.03,2.49,1.03s1.83-.37,2.49-1.03l8.88-8.91c1.37-1.37,1.37-3.6,0-4.97-1.37-1.37-3.6-1.37-4.97,0h0Z"/>
</svg>