<?xml version="1.0" encoding="UTF-8"?><svg id="a" xmlns="http://www.w3.org/2000/svg" viewBox="0 0 124 124"><defs><style>.b{fill:#313131;fill-rule:evenodd;}</style></defs><path class="b" d="M103.1,53.4c-4.7,0-8.6,3.8-8.6,8.6s3.8,8.6,8.6,8.6,8.6-3.8,8.6-8.6-3.8-8.6-8.6-8.6ZM84.3,62c0-10.4,8.4-18.9,18.9-18.9s18.9,8.4,18.9,18.9-8.4,18.9-18.9,18.9-18.9-8.4-18.9-18.9Z"/><path class="b" d="M62,52.6c-5.2,0-9.4,4.2-9.4,9.4s4.2,9.4,9.4,9.4,9.4-4.2,9.4-9.4-4.2-9.4-9.4-9.4ZM44,62c0-9.9,8.1-18,18-18s18,8.1,18,18-8.1,18-18,18-18-8.1-18-18Z"/><path class="b" d="M20.9,53.4c-4.7,0-8.6,3.8-8.6,8.6s3.8,8.6,8.6,8.6,8.6-3.8,8.6-8.6-3.8-8.6-8.6-8.6ZM2,62c0-10.4,8.4-18.9,18.9-18.9s18.9,8.4,18.9,18.9-8.4,18.9-18.9,18.9S2,72.4,2,62Z"/><path class="b" d="M103.1,11.4c-5.2,0-9.4,4.2-9.4,9.4s4.2,9.4,9.4,9.4,9.4-4.2,9.4-9.4-4.2-9.4-9.4-9.4ZM85.1,20.9c0-9.9,8.1-18,18-18s18,8.1,18,18-8.1,18-18,18-18-8.1-18-18Z"/><path class="b" d="M62,12.3c-4.7,0-8.6,3.8-8.6,8.6s3.8,8.6,8.6,8.6,8.6-3.8,8.6-8.6-3.8-8.6-8.6-8.6ZM43.1,20.9c0-10.4,8.4-18.9,18.9-18.9s18.9,8.4,18.9,18.9-8.4,18.9-18.9,18.9-18.9-8.4-18.9-18.9Z"/><path class="b" d="M20.9,11.4c-5.2,0-9.4,4.2-9.4,9.4s4.2,9.4,9.4,9.4,9.4-4.2,9.4-9.4-4.2-9.4-9.4-9.4ZM2.9,20.9C2.9,10.9,10.9,2.9,20.9,2.9s18,8.1,18,18-8.1,18-18,18S2.9,30.8,2.9,20.9ZM103.1,93.7c-5.2,0-9.4,4.2-9.4,9.4s4.2,9.4,9.4,9.4,9.4-4.2,9.4-9.4-4.2-9.4-9.4-9.4ZM85.1,103.1c0-9.9,8.1-18,18-18s18,8.1,18,18-8.1,18-18,18-18-8.1-18-18Z"/><path class="b" d="M62,94.6c-4.7,0-8.6,3.8-8.6,8.6s3.8,8.6,8.6,8.6,8.6-3.8,8.6-8.6-3.8-8.6-8.6-8.6ZM43.1,103.1c0-10.4,8.4-18.9,18.9-18.9s18.9,8.4,18.9,18.9-8.4,18.9-18.9,18.9-18.9-8.4-18.9-18.9Z"/><path class="b" d="M20.9,93.7c-5.2,0-9.4,4.2-9.4,9.4s4.2,9.4,9.4,9.4,9.4-4.2,9.4-9.4-4.2-9.4-9.4-9.4ZM2.9,103.1c0-9.9,8.1-18,18-18s18,8.1,18,18-8.1,18-18,18S2.9,113.1,2.9,103.1Z"/></svg>