<?xml version="1.0" encoding="UTF-8"?>
<svg id="Layer_1" data-name="Layer 1" xmlns="http://www.w3.org/2000/svg" viewBox="0 0 124 124">
  <defs>
    <style>
      .cls-1 {
        fill: #313131;
      }
    </style>
  </defs>
  <path class="cls-1" d="M118.48,9.11h-13.83c-1.94,0-3.52,1.57-3.52,3.52s1.57,3.52,3.52,3.52h5.75l-10.27,11.05c-7.66-10.93-20.34-18.09-34.67-18.09-23.33,0-42.31,18.98-42.31,42.3,0,1.86.12,3.7.36,5.5l-7.02,7.02-8.06-8.6c-1.33-1.42-3.55-1.49-4.97-.16-1.42,1.33-1.49,3.55-.16,4.97l10.55,11.25c1.36,1.45,3.65,1.49,5.05.08l6.49-6.49c.95,2.79,2.18,5.44,3.65,7.93l-23.96,23.96c-4.11,4.11-4.11,10.8,0,14.91s10.79,4.12,14.92,0l23.96-23.96c6.31,3.74,13.66,5.89,21.5,5.89,23.33,0,42.31-18.98,42.31-42.3,0-6.38-1.42-12.42-3.96-17.85l11.16-12.01v5.13c0,1.94,1.57,3.52,3.52,3.52s3.52-1.57,3.52-3.52v-14.06c0-1.94-1.57-3.52-3.52-3.52ZM65.46,16.14c12.49,0,23.48,6.52,29.75,16.34l-26.16,28.16-22.15-22.15c-1.37-1.37-3.6-1.37-4.97,0l-11.72,11.72c.63-18.9,16.2-34.08,35.25-34.08ZM15.03,106.82c-1.37,1.37-3.6,1.37-4.97,0-1.37-1.37-1.37-3.6,0-4.97l23.13-23.12c1.52,1.79,3.18,3.45,4.97,4.97l-23.13,23.12ZM100.74,51.42c0,19.45-15.82,35.27-35.27,35.27-16.74,0-30.8-11.72-34.39-27.39l13.34-13.34,22.24,22.24c1.39,1.39,3.69,1.38,5.06-.09l26.84-28.89c1.41,3.8,2.18,7.91,2.18,12.2Z"/>
</svg>