<?xml version="1.0" encoding="UTF-8"?><svg id="a" xmlns="http://www.w3.org/2000/svg" viewBox="0 0 124 124"><defs><style>.b{fill-rule:evenodd;}.b,.c{fill:#313131;}</style></defs><path class="c" d="M116.7,73.8h-35.8v-23.7h35.8c2.9,0,5.3-2.4,5.3-5.3s-2.4-5.3-5.3-5.3h-63.2V10.7c0-2.9-2.4-5.3-5.3-5.3s-5.3,2.4-5.3,5.3v29H7.3c-2.9,0-5.3,2.4-5.3,5.3s2.4,5.3,5.3,5.3h63.2v23.7H7.3c-2.9,0-5.3,2.4-5.3,5.3s2.4,5.3,5.3,5.3h35.8v29c0,2.9,2.4,5.3,5.3,5.3s5.3-2.4,5.3-5.3v-29h63.2c2.9,0,5.3-2.4,5.3-5.3s-2.4-5.3-5.3-5.3Z"/><path class="b" d="M103.1,5.4H20.9c-10.4,0-18.9,8.5-18.9,18.9v75.3c0,10.4,8.5,18.9,18.9,18.9h82.1c10.4,0,18.9-8.5,18.9-18.9V24.4c0-10.4-8.5-18.9-18.9-18.9ZM12.5,24.4c0-4.6,3.8-8.4,8.4-8.4h82.1c4.6,0,8.4,3.8,8.4,8.4v75.3c0,4.6-3.8,8.4-8.4,8.4H20.9c-4.6,0-8.4-3.8-8.4-8.4V24.4Z"/></svg>