<?xml version="1.0" encoding="UTF-8"?><svg id="a" xmlns="http://www.w3.org/2000/svg" viewBox="0 0 124 124"><defs><style>.b{fill:#313131;fill-rule:evenodd;}</style></defs><path class="b" d="M6.3,78.5c2.4,0,4.3,1.9,4.3,4.3v27.8c0,1.4,1.2,2.6,2.6,2.6h27.8c2.4,0,4.3,1.9,4.3,4.3s-1.9,4.3-4.3,4.3H13.3c-6.2,0-11.3-5.1-11.3-11.3h0v-27.8c0-2.4,1.9-4.3,4.3-4.3Z"/><path class="b" d="M51.2,72.8c1.7,1.7,1.7,4.5,0,6.1h0S11.5,118.7,11.5,118.7c-1.7,1.7-4.5,1.7-6.1,0-1.7-1.7-1.7-4.5,0-6.1h0l39.7-39.7c1.7-1.7,4.5-1.7,6.1,0,0,0,0,0,0,0ZM78.5,6.3c0-2.4,1.9-4.3,4.3-4.3h27.8c6.2,0,11.3,5.1,11.3,11.3v27.8c0,2.4-1.9,4.3-4.3,4.3s-4.3-1.9-4.3-4.3V13.3c0-1.4-1.2-2.6-2.6-2.6h-27.8c-2.4,0-4.3-1.9-4.3-4.3Z"/><path class="b" d="M118.7,5.3c1.7,1.7,1.7,4.5,0,6.1,0,0,0,0,0,0l-39.7,39.7c-1.7,1.7-4.5,1.7-6.1,0s-1.7-4.5,0-6.1h0L112.5,5.3c1.7-1.7,4.5-1.7,6.1,0,0,0,0,0,0,0Z"/><path class="b" d="M117.7,78.5c2.4,0,4.3,1.9,4.3,4.3v27.8c0,6.2-5.1,11.3-11.3,11.3h-27.8c-2.4,0-4.3-1.9-4.3-4.3s1.9-4.3,4.3-4.3h27.8c1.4,0,2.6-1.2,2.6-2.6v-27.8c0-2.4,1.9-4.3,4.3-4.3Z"/><path class="b" d="M72.8,72.8c1.7-1.7,4.5-1.7,6.1,0h0s39.7,39.7,39.7,39.7c1.7,1.7,1.7,4.5,0,6.1s-4.5,1.7-6.1,0l-39.7-39.7c-1.7-1.7-1.7-4.5,0-6.1,0,0,0,0,0,0ZM13.3,10.7c-1.4,0-2.6,1.2-2.6,2.6v27.8c0,2.4-1.9,4.3-4.3,4.3s-4.3-1.9-4.3-4.3V13.3C2,7.1,7.1,2,13.3,2h27.8c2.4,0,4.3,1.9,4.3,4.3s-1.9,4.3-4.3,4.3H13.3Z"/><path class="b" d="M5.3,5.3c1.7-1.7,4.5-1.7,6.1,0,0,0,0,0,0,0l39.7,39.7c1.7,1.7,1.7,4.5,0,6.1s-4.5,1.7-6.1,0h0L5.3,11.5c-1.7-1.7-1.7-4.5,0-6.1,0,0,0,0,0,0Z"/></svg>