<?xml version="1.0" encoding="UTF-8"?>
<svg id="Layer_1" data-name="Layer 1" xmlns="http://www.w3.org/2000/svg" viewBox="0 0 124 124">
  <defs>
    <style>
      .cls-1 {
        fill: #313131;
      }
    </style>
  </defs>
  <path class="cls-1" d="M28.12,8.34c-.5-1.88-2.43-2.99-4.31-2.49L4.61,11c-1.87.5-2.99,2.43-2.49,4.31l5.15,19.21c.5,1.87,2.43,2.99,4.31,2.49,1.88-.5,2.99-2.43,2.49-4.31l-2.92-10.9,19.92,11.74v29.97c0,1.26.67,2.42,1.76,3.05l25.66,14.81v24.92l-8.06-8.06c-1.37-1.37-3.6-1.37-4.97,0s-1.37,3.6,0,4.97l14.06,14.06c1.36,1.36,3.59,1.38,4.97,0l14.06-14.06c1.37-1.37,1.37-3.6,0-4.97-1.37-1.37-3.6-1.37-4.97,0l-8.06,8.06v-24.92l25.66-14.81c1.09-.63,1.76-1.79,1.76-3.05v-29.73l19.96-11.59-2.96,11.04c-.5,1.88.61,3.8,2.49,4.31,1.89.51,3.81-.62,4.31-2.49l5.15-19.21c.5-1.87-.61-3.8-2.49-4.31l-19.21-5.15c-1.87-.5-3.8.61-4.31,2.49-.5,1.88.61,3.8,2.49,4.31l10.99,2.94-20.03,11.63-25.57-14.75c-1.09-.63-2.43-.63-3.51,0l-25.36,14.63L14.52,15.62l11.12-2.98c1.88-.5,2.99-2.43,2.49-4.31h0ZM85.9,61.47l-20.39,11.76v-23.53l20.39-11.84v23.61ZM62,20.09l20.31,11.72-20.3,11.79-20.17-11.88,20.16-11.63ZM38.09,37.67l20.39,12.01v23.55l-20.39-11.76v-23.8Z"/>
</svg>