<?xml version="1.0" encoding="UTF-8"?><svg id="a" xmlns="http://www.w3.org/2000/svg" viewBox="0 0 124 124"><defs><style>.b{fill:#313131;fill-rule:evenodd;}</style></defs><path class="b" d="M44.6,83.7c-1.4,0-2.6,1.2-2.6,2.6v24.3c0,1.4,1.2,2.6,2.6,2.6h34.8c1.4,0,2.6-1.2,2.6-2.6v-24.3c0-1.4-1.2-2.6-2.6-2.6h-34.8ZM33.3,86.3c0-6.2,5.1-11.3,11.3-11.3h34.8c6.2,0,11.3,5.1,11.3,11.3v24.3c0,6.2-5.1,11.3-11.3,11.3h-34.8c-6.2,0-11.3-5.1-11.3-11.3h0v-24.3Z"/><path class="b" d="M62,52.4c-7.2,0-13,5.8-13,13v13.9c0,2.4-1.9,4.3-4.3,4.3s-4.3-1.9-4.3-4.3v-13.9c0-12,9.7-21.7,21.7-21.7s21.7,9.7,21.7,21.7v13.9c0,2.4-1.9,4.3-4.3,4.3s-4.3-1.9-4.3-4.3v-13.9c0-7.2-5.8-13-13-13Z"/><path class="b" d="M13.3,10.7c-1.4,0-2.6,1.2-2.6,2.6v83.5c0,1.4,1.2,2.6,2.6,2.6h7c2.4,0,4.3,1.9,4.3,4.3s-1.9,4.3-4.3,4.3h-7c-6.2,0-11.3-5.1-11.3-11.3h0V13.3C2,7.1,7.1,2,13.3,2h97.4c6.2,0,11.3,5.1,11.3,11.3v83.5c0,6.2-5.1,11.3-11.3,11.3h-7c-2.4,0-4.3-1.9-4.3-4.3s1.9-4.3,4.3-4.3h7c1.4,0,2.6-1.2,2.6-2.6V13.3c0-1.4-1.2-2.6-2.6-2.6H13.3Z"/><path class="b" d="M62,89c2.4,0,4.3,1.9,4.3,4.3v10.4c0,2.4-1.9,4.3-4.3,4.3s-4.3-1.9-4.3-4.3v-10.4c0-2.4,1.9-4.3,4.3-4.3ZM2,29.8c0-2.4,1.9-4.3,4.3-4.3h111.3c2.4,0,4.3,1.9,4.3,4.3s-1.9,4.3-4.3,4.3H6.3c-2.4,0-4.3-1.9-4.3-4.3Z"/></svg>