<?xml version="1.0" encoding="UTF-8"?>
<svg id="Layer_1" data-name="Layer 1" xmlns="http://www.w3.org/2000/svg" viewBox="0 0 124 124">
  <defs>
    <style>
      .cls-1 {
        fill: #313131;
      }
    </style>
  </defs>
  <path class="cls-1" d="M118.48,61.26c1.94,0,3.52-1.57,3.52-3.52s-1.57-3.52-3.52-3.52h-13.39c1.68-10.62.9-17.81.86-18.19-.16-1.39-1.13-2.55-2.46-2.96-5.34-1.63-10-3.29-14.05-4.92v-8.69h12.07c1.45,4.09,5.36,7.03,9.94,7.03,5.82,0,10.55-4.73,10.55-10.55s-4.73-10.55-10.55-10.55c-4.58,0-8.49,2.94-9.94,7.03h-15.59c-1.94,0-3.52,1.57-3.52,3.52v9.15c-13.03-6.15-17.35-11.2-17.61-11.51-1.4-1.93-4.19-1.93-5.59,0-.26.31-4.58,5.36-17.61,11.51v-9.15c0-1.94-1.57-3.52-3.52-3.52h-15.59c-1.45-4.09-5.36-7.03-9.94-7.03-5.82,0-10.55,4.73-10.55,10.55s4.73,10.55,10.55,10.55c4.58,0,8.49-2.94,9.94-7.03h12.07v8.69c-4.05,1.63-8.7,3.29-14.05,4.92-1.34.41-2.3,1.57-2.46,2.96-.04.39-.83,7.57.86,18.19H5.52c-1.94,0-3.52,1.57-3.52,3.52s1.57,3.52,3.52,3.52h14.79c.78,3.27,1.71,6.39,2.86,9.62h-9.66c-1.94,0-3.52,1.57-3.52,3.52s1.57,3.52,3.52,3.52h12.5c3.03,6.7,6.73,12.81,11.16,18.53h-14.67c-1.45-4.09-5.36-7.03-9.94-7.03-5.82,0-10.55,4.73-10.55,10.55s4.73,10.55,10.55,10.55c4.58,0,8.49-2.94,9.94-7.03h20.67c4.95,5.28,10.57,10.13,16.83,14.49,1.21.84,2.81.84,4.02,0,6.25-4.36,11.88-9.21,16.83-14.49h20.67c1.45,4.09,5.36,7.03,9.94,7.03,5.82,0,10.55-4.73,10.55-10.55s-4.73-10.55-10.55-10.55c-4.58,0-8.49,2.94-9.94,7.03h-14.67c4.42-5.71,8.13-11.83,11.16-18.53h12.5c1.94,0,3.52-1.57,3.52-3.52s-1.57-3.52-3.52-3.52h-9.66c1.15-3.23,2.08-6.35,2.86-9.62h0s14.79,0,14.79,0ZM111.45,12.43c1.94,0,3.52,1.58,3.52,3.52s-1.58,3.52-3.52,3.52-3.52-1.58-3.52-3.52,1.58-3.52,3.52-3.52ZM12.55,19.46c-1.94,0-3.52-1.58-3.52-3.52s1.58-3.52,3.52-3.52,3.52,1.58,3.52,3.52-1.58,3.52-3.52,3.52ZM12.55,103.47c-1.94,0-3.52-1.58-3.52-3.52s1.58-3.52,3.52-3.52,3.52,1.58,3.52,3.52-1.58,3.52-3.52,3.52ZM111.45,96.44c1.94,0,3.52,1.58,3.52,3.52s-1.58,3.52-3.52,3.52-3.52-1.58-3.52-3.52,1.58-3.52,3.52-3.52ZM96.02,62.83c-3.73,13.33-12.67,32.29-34.02,47.94h0c-16.5-12.07-28.33-27.9-33.94-47.64-3.12-11-3.29-20.04-3.16-24.06,11.96-3.81,27.61-10.08,37.1-18.4,9.46,8.29,25.17,14.6,37.1,18.4.24,6.91-.73,15.38-3.08,23.75Z"/>
  <path class="cls-1" d="M77.05,53.09h0v-2.29c0-8.3-6.75-15.05-15.05-15.05s-15.05,6.75-15.05,15.05v2.29c-2.5.88-4.3,3.26-4.3,6.05v20.13c0,3.53,2.87,6.41,6.41,6.41h25.88c3.53,0,6.41-2.87,6.41-6.41v-20.13c0-2.79-1.8-5.17-4.29-6.05ZM53.98,50.8c0-4.42,3.6-8.02,8.02-8.02s8.02,3.6,8.02,8.02v1.93h-16.04v-1.93ZM74.31,78.65h-24.63v-18.89h24.63v18.89Z"/>
  <path class="cls-1" d="M62,73.96c1.94,0,3.52-1.57,3.52-3.52v-2.48c0-1.94-1.57-3.52-3.52-3.52s-3.52,1.57-3.52,3.52v2.48c0,1.94,1.57,3.52,3.52,3.52Z"/>
</svg>