<?xml version="1.0" encoding="UTF-8"?><svg id="a" xmlns="http://www.w3.org/2000/svg" viewBox="0 0 124 124"><defs><style>.b{fill:#313131;fill-rule:evenodd;}</style></defs><path class="b" d="M62,49c-7.2,0-13,5.8-13,13s5.8,13,13,13,13-5.8,13-13-5.8-13-13-13ZM40.3,62c0-12,9.7-21.7,21.7-21.7s21.7,9.7,21.7,21.7-9.7,21.7-21.7,21.7-21.7-9.7-21.7-21.7Z"/><path class="b" d="M34.6,95.7c3.5-11.9,14.4-20.6,27.4-20.6s23.9,8.8,27.4,20.6c.7,2.3-.6,4.7-2.9,5.4-2.3.7-4.7-.6-5.4-2.9h0c-2.5-8.5-10.2-14.4-19.1-14.4-9,0-16.6,6.1-19.1,14.4-.7,2.3-3.1,3.6-5.4,2.9-2.3-.7-3.6-3.1-2.9-5.4h0Z"/><path class="b" d="M56.4,10.7c-1.1,0-2.1.7-2.4,1.7l-4,10.5c-.4.9-1,1.7-1.9,2.2l-11.1,6.4c-.9.5-1.9.7-2.9.5l-11.1-1.8c-1.1-.2-2.1.3-2.7,1.3l-5.6,9.8c-.5.9-.5,2.1.2,2.9l7.1,8.7c.6.8,1,1.7,1,2.7v12.8c0,1-.3,2-1,2.7l-7.1,8.7c-.7.8-.8,2-.2,3l5.6,9.8c.5.9,1.6,1.4,2.7,1.3l11-1.8c1-.2,2,0,2.9.5l11.1,6.4c.9.5,1.5,1.3,1.9,2.2l4,10.4c.4,1,1.4,1.7,2.4,1.7h11.3c1.1,0,2-.7,2.4-1.7l4-10.5c.4-.9,1-1.7,1.9-2.2l11.1-6.4c.9-.5,1.9-.7,2.9-.5l11,1.8c1.1.2,2.1-.3,2.7-1.3l5.6-9.8c.5-.9.4-2.1-.2-2.9l-7.1-8.7c-.6-.8-1-1.7-1-2.7v-12.8c0-1,.3-2,1-2.7l7.1-8.7c.7-.8.8-2,.2-3l-5.6-9.8c-.5-.9-1.6-1.4-2.7-1.3l-11,1.8c-1,.2-2,0-2.9-.5l-11.1-6.4c-.9-.5-1.5-1.3-1.9-2.2l-4-10.4c-.4-1-1.4-1.7-2.4-1.7h-11.3ZM45.8,9.3c1.7-4.4,5.9-7.3,10.6-7.3h11.3c4.7,0,8.9,2.9,10.6,7.3l3.4,9,8.4,4.8,9.5-1.5c4.6-.7,9.2,1.4,11.6,5.5l5.6,9.8c2.4,4.1,1.9,9.2-1,12.8l-6.1,7.5v9.7l6.1,7.5c3,3.6,3.4,8.7,1,12.8l-5.6,9.8c-2.4,4.1-7,6.3-11.6,5.5l-9.5-1.5-8.4,4.8-3.4,9c-1.7,4.4-5.9,7.3-10.6,7.3h-11.3c-4.7,0-8.9-2.9-10.6-7.3l-3.4-9-8.4-4.8-9.5,1.5c-4.6.7-9.2-1.4-11.6-5.5l-5.6-9.8c-2.4-4.1-1.9-9.2,1-12.8l6.1-7.5v-9.7s-6.1-7.5-6.1-7.5c-3-3.6-3.4-8.7-1-12.8l5.6-9.8c2.3-4.1,7-6.3,11.6-5.5l9.5,1.5,8.4-4.8,3.4-9Z"/></svg>