<?xml version="1.0" encoding="UTF-8"?><svg id="a" xmlns="http://www.w3.org/2000/svg" viewBox="0 0 124 124"><defs><style>.b{fill:#313131;fill-rule:evenodd;}</style></defs><path class="b" d="M99.4,34.2c0-2.4,1.9-4.3,4.3-4.3,10.1,0,18.3,8.2,18.3,18.2h0v41.8c0,8.6-5.9,15.8-13.9,17.7v10.1c0,2.4-1.9,4.3-4.3,4.3-.9,0-1.7-.3-2.4-.7l-19.8-13.2h-26.5c-10.1,0-18.3-8.2-18.3-18.2h0c0-2.4,1.9-4.4,4.3-4.4s4.3,1.9,4.3,4.3c0,5.3,4.3,9.6,9.6,9.6h27.8c.9,0,1.7.3,2.4.7l14.1,9.4v-5.8c0-2.4,1.9-4.3,4.3-4.3,5.3,0,9.6-4.3,9.6-9.6v-41.7c0-5.3-4.3-9.6-9.6-9.6s-4.3-1.9-4.3-4.3Z"/><path class="b" d="M2,20.3c0-10.1,8.2-18.3,18.2-18.3,0,0,0,0,0,0h69.6c10.1,0,18.3,8.2,18.3,18.2h0v55.7c0,10.1-8.2,18.3-18.2,18.3h-47.4l-19.8,13.2c-2,1.3-4.7.8-6-1.2-.5-.7-.7-1.6-.7-2.4v-10.1c-8.2-2-13.9-9.3-13.9-17.7V20.3h0ZM20.3,10.7c-5.3,0-9.6,4.3-9.6,9.6v55.6c0,5.3,4.3,9.6,9.6,9.6s4.3,1.9,4.3,4.3v5.8l14.1-9.4c.7-.5,1.6-.7,2.4-.7h48.7c5.3,0,9.6-4.3,9.6-9.6V20.3c0-5.3-4.3-9.6-9.6-9.6H20.3Z"/><path class="b" d="M26.8,34.7c0-2.4,1.9-4.3,4.3-4.3h50.9c2.4,0,4.3,1.9,4.3,4.3s-1.9,4.3-4.3,4.3H31.1c-2.4,0-4.3-1.9-4.3-4.3Z"/><path class="b" d="M26.8,62c0-2.4,1.9-4.3,4.3-4.3h50.9c2.4,0,4.3,1.9,4.3,4.3s-1.9,4.3-4.3,4.3H31.1c-2.4,0-4.3-1.9-4.3-4.3Z"/></svg>