<svg xmlns="http://www.w3.org/2000/svg" width="36" height="36" viewBox="0 0 36 36"><rect width="36" height="36" fill="#fbfcfc"/><g transform="translate(4.75 4.796)"><path d="M23.314,3.135A7.652,7.652,0,0,0,17.7,1.222H8.779c-4.926,0-7.529,2.6-7.529,7.508v5.562c0,2.961.622,4.884,1.959,6.051C4.681,21.626,6.851,21.8,8.779,21.8h.558a.526.526,0,0,1,.223.111l1.673,2.225a2.421,2.421,0,0,0,4.016,0l1.673-2.225a.278.278,0,0,1,.223-.111H17.7c4.926,0,7.529-2.6,7.529-7.508V8.73a7.6,7.6,0,0,0-1.917-5.595Zm.244,11.157c0,3.984-1.861,5.84-5.856,5.84h-.558a1.963,1.963,0,0,0-1.562.779L13.91,23.135a.759.759,0,0,1-1.339,0L10.9,20.91a2.108,2.108,0,0,0-1.562-.779H8.779c-2.292,0-3.628-.313-4.468-1.044-.947-.826-1.388-2.35-1.388-4.8V8.73c0-3.984,1.861-5.84,5.856-5.84H17.7a6.077,6.077,0,0,1,4.428,1.424A6.041,6.041,0,0,1,23.558,8.73Z" transform="translate(0 0)" fill="#101828"/><path d="M12.577,12.195a1.115,1.115,0,1,1,.006,0Zm5.577-1.112a1.115,1.115,0,1,0-1.115,1.112A1.114,1.114,0,0,0,18.154,11.082Zm-8.923,0a1.115,1.115,0,1,0-1.115,1.112A1.114,1.114,0,0,0,9.231,11.082Z" transform="translate(0.664 0.985)" fill="#079b7e"/></g></svg>