<svg xmlns="http://www.w3.org/2000/svg" width="13.714" height="16" viewBox="0 0 13.714 16"><path d="M64.571,48A.571.571,0,0,1,64,47.429V33.29a.857.857,0,0,1,.425-.74,6.071,6.071,0,0,1,3-.55,13.287,13.287,0,0,1,4.127.989,10,10,0,0,0,2.73.726,6.566,6.566,0,0,0,2.536-.518.643.643,0,0,1,.893.592v7.834a.714.714,0,0,1-.429.654,7.782,7.782,0,0,1-3,.58,14.839,14.839,0,0,1-3.085-.525,17.478,17.478,0,0,0-3.772-.618,5.983,5.983,0,0,0-2.286.325v5.389A.571.571,0,0,1,64.571,48Z" transform="translate(-64 -32)" fill="#fecd07"/></svg>