<svg xmlns="http://www.w3.org/2000/svg" width="20" height="20.004" viewBox="0 0 20 20.004"><path d="M18.283,22.254a8.414,8.414,0,0,1-3.929-1.34A25.548,25.548,0,0,1,8.182,16.3a23.419,23.419,0,0,1-4.634-6.17C1.9,7.137,2.183,5.569,2.5,4.9A4.175,4.175,0,0,1,4.133,3.143a7.872,7.872,0,0,1,1.279-.679l.123-.054a1.2,1.2,0,0,1,.98-.089,2.871,2.871,0,0,1,.931.714A15.481,15.481,0,0,1,9.775,6.493a3.444,3.444,0,0,1,.457,1.416A2.238,2.238,0,0,1,9.663,9.24c-.058.08-.117.156-.173.23-.34.447-.414.576-.365.806a8.47,8.47,0,0,0,2.062,3.059,8.119,8.119,0,0,0,3.024,2.012c.24.051.372-.026.833-.378.066-.05.134-.1.2-.155a2.25,2.25,0,0,1,1.351-.6h0a3.236,3.236,0,0,1,1.423.5,17.057,17.057,0,0,1,3.444,2.312,2.87,2.87,0,0,1,.717.929,1.2,1.2,0,0,1-.089.982c-.017.037-.035.078-.054.123a7.881,7.881,0,0,1-.683,1.276A4.176,4.176,0,0,1,19.6,21.965a3.01,3.01,0,0,1-1.319.289Z" transform="translate(-2.257 -2.25)" fill="#8b9da7"/></svg>