<svg xmlns="http://www.w3.org/2000/svg" width="16" height="15.986" viewBox="0 0 16 15.986"><g transform="translate(0 -0.223)"><path d="M15.154,4.634l-.818.472a7.064,7.064,0,0,0-.47-.811l.817-.472a8.079,8.079,0,0,0-1.027-1.257,8,8,0,0,0-11.314,0A8.079,8.079,0,0,0,1.316,3.823l.817.472a7.064,7.064,0,0,0-.47.811L.846,4.634A8,8,0,0,0,7.531,16.209V15.27c.155.01.311.016.469.016s.314-.006.469-.016v.939A8.007,8.007,0,0,0,15.154,4.634Zm-9.3,4.629a1.6,1.6,0,0,1-.989,1.485,1.869,1.869,0,0,1-.849.2h0a1.771,1.771,0,0,1-.967-.278,1.605,1.605,0,0,1-.825-1.4V6.127h.938V9.265a.666.666,0,0,0,.392.61.836.836,0,0,0,.463.131h0a.928.928,0,0,0,.428-.1c.419-.211.473-.457.473-.647V6.127h.938V9.262Zm4.09.5a1.544,1.544,0,0,1-1.6,1.181,2.313,2.313,0,0,1-1.7-.727l.695-.63a1.362,1.362,0,0,0,1,.42c.364,0,.633-.168.685-.428.036-.182-.059-.434-.582-.587A2.252,2.252,0,0,1,7,8.17a1.341,1.341,0,0,1-.139-1.116,1.326,1.326,0,0,1,.82-.813,2.12,2.12,0,0,1,2,.408l-.613.709,0,0a1.193,1.193,0,0,0-1.056-.243c-.214.082-.252.194-.264.231a.4.4,0,0,0,.04.318c.121.189.4.276.911.425,1.162.335,1.36,1.075,1.241,1.672Zm2.508-.509-.611,0v1.687H10.9V6.127h1.549a1.563,1.563,0,1,1,0,3.127Z" fill="#fecd07"/><path d="M379.507,219.166H378.9v1.254l.611,0a.626.626,0,1,0,0-1.252Z" transform="translate(-367.056 -212.101)" fill="#fecd07"/></g></svg>