<?xml version="1.0" encoding="UTF-8"?>
<svg xmlns="http://www.w3.org/2000/svg" xmlns:xlink="http://www.w3.org/1999/xlink" width="42px" height="28px" viewBox="0 0 42 28" version="1.1">
<g id="surface1">
<path style=" stroke:none;fill-rule:nonzero;fill:rgb(54.509807%,61.56863%,65.490198%);fill-opacity:1;" d="M 41.109375 4.394531 C 40.875 3.542969 40.410156 2.773438 39.769531 2.167969 C 39.113281 1.539062 38.3125 1.097656 37.425781 0.875 C 34.148438 0 20.988281 0 20.988281 0 C 15.507812 -0.0585938 10.019531 0.222656 4.574219 0.828125 C 3.699219 1.074219 2.898438 1.527344 2.230469 2.15625 C 1.589844 2.761719 1.125 3.53125 0.867188 4.382812 C 0.285156 7.554688 -0.00390625 10.769531 0.015625 14 C -0.00390625 17.21875 0.285156 20.433594 0.867188 23.605469 C 1.113281 24.457031 1.578125 25.214844 2.21875 25.820312 C 2.886719 26.4375 3.6875 26.894531 4.5625 27.113281 C 7.886719 27.976562 20.976562 27.976562 20.976562 27.976562 C 26.46875 28.046875 31.957031 27.765625 37.414062 27.160156 C 38.289062 26.925781 39.101562 26.484375 39.757812 25.855469 C 40.398438 25.25 40.851562 24.480469 41.097656 23.628906 C 41.703125 20.457031 41.996094 17.242188 41.972656 14.023438 C 42.015625 10.78125 41.726562 7.554688 41.097656 4.371094 Z M 16.804688 19.980469 L 16.804688 8.007812 L 27.75 13.988281 Z M 16.804688 19.980469 "/>
</g>
</svg>
