<?xml version="1.0" encoding="utf-8"?>
<!-- Generator: Adobe Illustrator 26.3.0, SVG Export Plug-In . SVG Version: 6.00 Build 0)  -->
<svg version="1.1" id="Layer_1" xmlns="http://www.w3.org/2000/svg" xmlns:xlink="http://www.w3.org/1999/xlink" x="0px" y="0px"
	 viewBox="0 0 202.55 69.45" style="enable-background:new 0 0 202.55 69.45;" xml:space="preserve">
<style type="text/css">
	.st0{fill:#246A98;}
	.st1{fill:#0F3A53;}
	.st2{fill:#FFAF00;}
</style>
<g>
	<polygon class="st0" points="49.48,15.79 76.8,15.79 76.8,23.05 62.38,41.68 76.8,41.68 76.8,50.45 48.72,50.45 48.72,43.62 
		63.31,24.73 49.48,24.73 	"/>
	<path class="st0" d="M46.44,31.99c0,0,0-3.12,0-7.84S44.42,3.4,26.2,3.4S2.34,18.07,2.34,28.95c0,10.88,5.57,23.44,24.12,23.44
		c12.73,0,19.23-3.71,19.23-3.71l0.25-8.1c0,0-8.43,3.54-16.44,3.54s-14.51-3.79-14.08-12.14H46.44z M25.7,10.9
		c9.36,0,8.6,13.41,8.6,13.41H15.49C15.49,21.11,16.34,10.9,25.7,10.9z"/>
	<path class="st1" d="M169.82,15.79l-4.98,22.35l-5.99-22.43h-12.57l1.35,3.37c0,0-5.82-6.66-19.99-2.78
		c-0.17-3.29-1.01-4.81-1.43-5.48l-19.65,22.77c0,0,9.62,0.43,14.59-3.04c4.47-3.12,5.73-6.58,5.73-6.58s4.13-1.01,6.32-1.01
		s6.16,0.67,6.16,4.3c-4.72-0.08-19.31,0.76-19.31,13.41s14.59,9.95,15.26,9.78c0.67-0.17,4.13-1.94,5.14-3.54
		c0,1.77,0.84,3.54,0.84,3.54h10.37c0,0-0.67-2.45-0.67-5.65c0-3.2,0.08-16.53,0.08-16.53s7,17.71,7.59,19.48
		c0.59,1.77-1.43,6.32-9.02,8.52c1.35,4.72,2.61,9.19,2.61,9.19s4.55-0.17,9.19-4.22s7.67-10.04,9.02-13.75
		c1.35-3.71,7.34-17.88,11.05-31.71C178.34,15.79,169.82,15.79,169.82,15.79z M139.72,39.74c-0.93,4.47-8.85,4.81-8.85-0.25
		c0-5.45,7.42-5.73,8.85-5.37V39.74z"/>
	<rect x="78.53" y="6.05" class="st2" width="10.88" height="7.84"/>
	<polygon class="st2" points="77.77,32.55 91.18,36.73 124.64,9.66 89.98,50.01 	"/>
	<g>
		<g>
			<polygon class="st0" points="89.41,34.3 89.41,15.48 78.53,15.48 78.53,30.95 			"/>
			<polygon class="st0" points="78.53,36.76 78.53,50.45 87.97,50.45 			"/>
		</g>
	</g>
	<g>
		<g>
			<polygon class="st1" points="94.09,48.16 94.09,50.45 105.39,50.45 105.39,35.03 			"/>
			<path class="st1" d="M105.39,23.1V11.58c0,0,8.18-1.69,9.95,3.04c2.53-1.77,8.77-6.83,8.77-6.83s-2.7-5.06-17.54-5.06
				c-10.09,0-12.48,1.26-12.48,1.26V32.3L105.39,23.1z"/>
		</g>
	</g>
	<g>
		<g>
			<path class="st1" d="M190.03,15.88v1.3h-2.72v7.78h-1.42v-7.78h-2.72v-1.3H190.03z"/>
			<path class="st1" d="M199.82,15.88h1.23v9.08h-1.42v-6.61l-3.31,4.15l-3.31-4.15v6.61h-1.42v-9.08h1.23l3.5,4.41L199.82,15.88z"
				/>
		</g>
	</g>
	<g>
		<path class="st1" d="M94.58,64.51c-0.5,0.17-1.43,0.4-2.4,0.4c-1.31,0-2.24-0.32-2.88-0.93c-0.6-0.56-0.93-1.35-0.93-2.23
			c0-2.05,1.62-3.34,3.95-3.34c0.93,0,1.66,0.18,2.01,0.34l-0.33,1.18c-0.41-0.17-0.9-0.31-1.73-0.31c-1.32,0-2.31,0.71-2.31,2
			c0,1.24,0.91,2.09,2.29,2.09c0.4,0,0.72-0.05,0.86-0.11v-1.27h-1.12v-1.16h2.6V64.51z"/>
		<path class="st1" d="M95.78,58.09h1.51v6.76h-1.51V58.09z"/>
		<path class="st1" d="M103.49,62.48c0,1.61-1.24,2.48-2.66,2.48c-1.43,0-2.59-0.89-2.59-2.38c0-1.44,1.02-2.46,2.7-2.46
			C102.45,60.11,103.49,61.1,103.49,62.48z M99.8,62.54c0,0.79,0.4,1.37,1.07,1.37c0.61,0,1.05-0.49,1.05-1.38
			c0-0.7-0.32-1.36-1.04-1.36C100.12,61.17,99.8,61.84,99.8,62.54z"/>
		<path class="st1" d="M104.4,64.85c0.02-0.27,0.04-0.83,0.04-1.39v-5.38h1.51v2.72h0.02c0.29-0.42,0.83-0.69,1.54-0.69
			c1.18,0,2.12,0.88,2.11,2.36c0,1.68-1.19,2.49-2.32,2.49c-0.59,0-1.2-0.21-1.54-0.79h-0.02l-0.06,0.68H104.4z M105.94,62.78
			c0,0.08,0,0.16,0.02,0.24c0.09,0.4,0.48,0.77,0.99,0.77c0.68,0,1.13-0.46,1.13-1.27c0-0.69-0.37-1.28-1.12-1.28
			c-0.46,0-0.88,0.32-0.99,0.8c-0.02,0.08-0.02,0.16-0.02,0.26V62.78z"/>
		<path class="st1" d="M113.37,64.85l-0.09-0.46h-0.03c-0.32,0.37-0.83,0.57-1.42,0.57c-1.02,0-1.59-0.71-1.59-1.42
			c0-1.2,1.08-1.8,2.91-1.79v-0.04c0-0.21-0.11-0.59-0.91-0.58c-0.51,0-1.07,0.18-1.39,0.37l-0.28-0.95
			c0.34-0.2,1.01-0.43,1.92-0.43c1.58,0,2.16,0.88,2.16,2.02v1.58c0,0.47,0.03,0.9,0.08,1.14H113.37z M113.2,62.68
			c-0.87-0.01-1.46,0.19-1.46,0.71c0,0.34,0.24,0.53,0.61,0.53c0.4,0,0.72-0.27,0.82-0.58c0.02-0.08,0.03-0.17,0.03-0.26V62.68z"/>
		<path class="st1" d="M115.88,58.09h1.51v6.76h-1.51V58.09z"/>
		<path class="st1" d="M121.41,64.85l-1.65-6.37h1.63l0.54,2.65c0.15,0.77,0.31,1.63,0.42,2.22h0.02c0.11-0.66,0.26-1.44,0.43-2.25
			l0.58-2.63h1.7l0.54,2.74c0.14,0.75,0.25,1.42,0.35,2.08h0.02c0.11-0.67,0.26-1.43,0.42-2.2l0.58-2.63h1.55l-1.82,6.37h-1.64
			l-0.6-2.96c-0.13-0.65-0.24-1.21-0.32-1.91h-0.02c-0.11,0.7-0.21,1.27-0.37,1.92l-0.67,2.96H121.41z"/>
		<path class="st1" d="M131.62,64.85l-0.09-0.46h-0.03c-0.32,0.37-0.83,0.57-1.42,0.57c-1.02,0-1.59-0.71-1.59-1.42
			c0-1.2,1.08-1.8,2.91-1.79v-0.04c0-0.21-0.11-0.59-0.91-0.58c-0.51,0-1.07,0.18-1.39,0.37l-0.28-0.95
			c0.34-0.2,1.01-0.43,1.92-0.43c1.58,0,2.16,0.88,2.16,2.02v1.58c0,0.47,0.03,0.9,0.08,1.14H131.62z M131.45,62.68
			c-0.87-0.01-1.46,0.19-1.46,0.71c0,0.34,0.24,0.53,0.61,0.53c0.4,0,0.72-0.27,0.82-0.58c0.02-0.08,0.03-0.17,0.03-0.26V62.68z"/>
		<path class="st1" d="M134.13,58.09h1.51v6.76h-1.51V58.09z"/>
		<path class="st1" d="M136.88,58.09h1.51v6.76h-1.51V58.09z"/>
		<path class="st1" d="M140.76,63.01c0.05,0.55,0.7,0.84,1.41,0.84c0.53,0,0.96-0.06,1.4-0.21l0.2,1c-0.53,0.22-1.14,0.32-1.81,0.32
			c-1.67,0-2.64-0.94-2.64-2.38c0-1.05,0.71-2.47,2.49-2.47c1.67,0,2.23,1.29,2.23,2.35c0,0.22-0.03,0.45-0.06,0.54H140.76z
			 M142.64,61.98c0-0.26-0.15-0.9-0.9-0.9c-0.68,0-0.95,0.54-1,0.9H142.64z"/>
		<path class="st1" d="M146.61,58.88v1.34h1.08v1.12h-1.08v1.53c0,0.56,0.11,0.86,0.6,0.86c0.21,0,0.37-0.02,0.46-0.05l0.01,1.13
			c-0.19,0.07-0.56,0.14-0.99,0.14c-0.5,0-0.91-0.19-1.15-0.44c-0.27-0.28-0.4-0.75-0.4-1.39v-1.79h-0.64v-1.12h0.64v-1.01
			L146.61,58.88z"/>
	</g>
</g>
</svg>
