<svg xmlns="http://www.w3.org/2000/svg" xmlns:xlink="http://www.w3.org/1999/xlink" width="585.89" height="424.506" viewBox="0 0 585.89 424.506"><defs><clipPath id="a"><rect width="177.566" height="190.557" fill="none"/></clipPath></defs><g transform="translate(53.899)"><path d="M910.829,697.816c3.8-2.354,3.976-8.968.384-14.772s-9.588-8.6-13.392-6.248-3.976,8.968-.384,14.773S907.025,700.17,910.829,697.816Z" transform="translate(-711.371 -584.97)" fill="#fff"/><path d="M906.2,697.935c-3.84,0-8.306-2.832-11.218-7.537-3.871-6.26-3.554-13.486.706-16.136s10.884.309,14.756,6.569a17.044,17.044,0,0,1,2.729,9.226c-.079,3.133-1.3,5.553-3.435,6.91A6.594,6.594,0,0,1,906.2,697.935Zm-9.52-8.584c3.3,5.331,8.727,7.988,12.027,5.926,1.547-.952,2.428-2.824,2.491-5.275a15.071,15.071,0,0,0-2.435-8.132c-3.292-5.323-8.687-7.989-12.019-5.926S893.384,684.02,896.684,689.351Z" transform="translate(-709.762 -583.299)" fill="#313131"/><path d="M962.446,750.476l7.6,25.252L1018,742l-22.141-77.317-53.414,15.406Z" transform="translate(-741.142 -577.913)" fill="#fff"/><path d="M968.407,775.069a.913.913,0,0,1-.326-.055,1.018,1.018,0,0,1-.389-.251,1.035,1.035,0,0,1-.236-.4l-7.592-25.251-20-70.391a.991.991,0,0,1,.683-1.222l53.405-15.414a1.022,1.022,0,0,1,1.09.337.99.99,0,0,1,.172.344l22.1,77.317a1,1,0,0,1-.015.6.968.968,0,0,1-.367.477L968.98,774.895A1.014,1.014,0,0,1,968.407,775.069Zm-6.647-26.521,7.2,23.927,46.256-32.526-21.68-75.691-51.5,14.867Z" transform="translate(-739.504 -576.263)" fill="#313131"/><path d="M959.32,754.169s6.077-10.416,25.019-15.462c10.456-2.792-11.471-17.873-11.471-17.873l-21.418,6.172Z" transform="translate(-746.773 -613.038)" fill="#313131"/><path d="M957.72,753.535H957.6a.991.991,0,0,1-.833-.706l-7.838-27.163a1,1,0,0,1,.682-1.23l21.42-6.172a.989.989,0,0,1,.408-.016,1,1,0,0,1,.386.151c2.618,1.8,15.621,11.051,14.673,16.525-.18,1.039-.936,2.435-3.513,3.118-18.246,4.871-24.355,14.915-24.418,15.018a.991.991,0,0,1-.849.476Zm-6.609-27.489,7,24.252c2.625-3.26,9.718-10.313,24.38-14.185,1.887-.508,2.022-1.285,2.067-1.547.551-3.174-7.8-10.313-13.486-14.28Z" transform="translate(-745.174 -611.411)" fill="#313131"/><path d="M903.409,611.365l5.482,15.866a29.949,29.949,0,0,0,38.081,18.516l5.2-1.8a29.932,29.932,0,0,0,18.516-38.079L965.21,590a31.642,31.642,0,0,0-40.239-19.563l-2.007.69a31.638,31.638,0,0,0-19.555,40.237Z" transform="translate(-715.637 -517.88)" fill="#fff"/><path d="M935.863,646.613a31.431,31.431,0,0,1-29.686-21.134l-5.339-15.43a32.669,32.669,0,0,1,20.174-41.5l2.007-.69a32.664,32.664,0,0,1,41.5,20.174l5.329,15.43a31.344,31.344,0,0,1-.505,21.888,1.035,1.035,0,0,1-.2.348.987.987,0,0,1-1.1.263.99.99,0,0,1-.558-.555,1.014,1.014,0,0,1-.071-.4,1.076,1.076,0,0,1,.094-.39,29.334,29.334,0,0,0,.475-20.507l-5.329-15.43a30.69,30.69,0,0,0-38.985-18.952l-2,.69a30.685,30.685,0,0,0-18.952,38.984l5.339,15.43a29.432,29.432,0,0,0,37.4,18.175l4.348-1.5a29.355,29.355,0,0,0,13.153-9.163.989.989,0,0,1,.3-.249.964.964,0,0,1,.371-.115.98.98,0,0,1,.727.221,1.016,1.016,0,0,1,.359.669,1,1,0,0,1-.217.727,31.347,31.347,0,0,1-14.011,9.782l-4.348,1.507A31.37,31.37,0,0,1,935.863,646.613Z" transform="translate(-714.003 -516.239)" fill="#313131"/><path d="M891.166,593.678s-.079-8.964,2.269-13.677,33.579-14.66,36.912-14.209c2.9.389,6.007,2.38,10.314,7.354,4.76,5.553,13.789,3.4,13.789,3.4l-1.468-4.236-10.164-30.836a1.586,1.586,0,0,0-1.981-.976l-57.708,20.333a1.538,1.538,0,0,0-.968,1.888Z" transform="translate(-703.395 -500.193)" fill="#313131"/><path d="M889.493,593.025a.991.991,0,0,1-.952-.714l-9.012-30.94a2.522,2.522,0,0,1,1.587-3.1l57.708-20.333a2.533,2.533,0,0,1,3.251,1.6l10.172,30.8,1.457,4.229a.99.99,0,0,1,.049.4,1.02,1.02,0,0,1-.12.389.976.976,0,0,1-.27.31.961.961,0,0,1-.371.174c-.4.1-9.711,2.174-14.763-3.72-3.831-4.466-6.816-6.632-9.674-7.021-3.052-.413-33.889,9.615-35.9,13.669-2.213,4.45-2.166,13.137-2.166,13.225a.984.984,0,0,1-.849.992Zm50.177-53.263a.5.5,0,0,0-.184,0l-57.7,20.325a.555.555,0,0,0-.349.682l7.394,25.386a26.562,26.562,0,0,1,2.047-8.29c2.642-5.291,34.82-15.168,37.943-14.748,3.382.46,6.745,2.832,10.917,7.695,3.341,3.9,9.273,3.594,11.711,3.269l-1.079-3.134L940.2,540.1a.57.57,0,0,0-.285-.325A.652.652,0,0,0,939.67,539.762Z" transform="translate(-701.722 -498.549)" fill="#313131"/><path d="M940.121,658.021a.993.993,0,0,1-.651-.246c-.793-.682-1.856-4.935-3.173-12.653a.994.994,0,1,1,1.959-.333,100.713,100.713,0,0,0,2.38,11.019l7.981-2.761a.992.992,0,0,1,.651,1.872l-8.822,3.015A1.185,1.185,0,0,1,940.121,658.021Zm13.787-17.541a1,1,0,0,1-.7-.286c-4.348-4.236-10.265-1.293-10.511-1.166a1,1,0,0,1-.373.106.994.994,0,0,1-.532-1.875c.072,0,7.418-3.729,12.806,1.515a1.008,1.008,0,0,1,0,1.4.98.98,0,0,1-.318.219A.969.969,0,0,1,953.908,640.48Zm-26.2,9.3h-.1a.992.992,0,0,1-.889-1.079c.555-5.743,6.672-8.37,6.926-8.472a.995.995,0,1,1,.793,1.825c-.055,0-5.284,2.284-5.72,6.838a1.007,1.007,0,0,1-1.015.889Zm20.373-3.062a1.42,1.42,0,1,0-1.42-1.42A1.42,1.42,0,0,0,948.078,646.716Zm-14.042,5.513a1.42,1.42,0,1,0-1.42-1.42A1.42,1.42,0,0,0,934.036,652.23Z" transform="translate(-731.303 -559.958)" fill="#313131"/><path d="M1059.775,644.449c4.449-.5,7.434-6.4,6.674-13.185s-4.977-11.88-9.422-11.382-7.434,6.4-6.674,13.185S1055.33,644.947,1059.775,644.449Z" transform="translate(-808.562 -549.872)" fill="#fff"/><path d="M1060.525,643.1a.994.994,0,0,1-.607-.21,1.016,1.016,0,0,1-.352-.54.994.994,0,0,1,.056-.641,1.007,1.007,0,0,1,.434-.473c3-1.587,4.76-6.458,4.183-11.582a15.1,15.1,0,0,0-3.112-7.933c-1.584-1.88-3.408-2.808-5.217-2.61-2.73.31-4.951,3.173-5.674,7.306a.991.991,0,0,1-1.951-.341c.873-5.021,3.775-8.528,7.4-8.933,2.491-.277,4.966.9,6.973,3.316a17.094,17.094,0,0,1,3.547,9.012c.674,6-1.476,11.575-5.221,13.558A.985.985,0,0,1,1060.525,643.1Z" transform="translate(-807.338 -548.152)" fill="#313131"/><path d="M965.206,642.257a.982.982,0,0,1-.434-.1,1.01,1.01,0,0,1-.349-.282.969.969,0,0,1-.187-.406,1,1,0,0,1,.011-.448l1.588-6.029a.977.977,0,0,1,.457-.606,1,1,0,0,1,.753-.1.995.995,0,0,1,.708,1.21l-1.038,3.911.086-.047a.995.995,0,1,1,.9,1.777l-2.015,1.024A.983.983,0,0,1,965.206,642.257ZM906,660.614a.962.962,0,0,1-.484-.127l-3.229-1.84a.992.992,0,0,1,.983-1.722l3.221,1.84a.992.992,0,0,1-.492,1.849Zm31.662.833a1,1,0,0,1-.183-1.976,7.638,7.638,0,0,0,5.48-3.1,3.82,3.82,0,0,0,.6-1.566,3.767,3.767,0,0,0-.131-1.671,1.034,1.034,0,0,1-.041-.385,1,1,0,0,1,.109-.372,1.088,1.088,0,0,1,.243-.3,1.017,1.017,0,0,1,.341-.186.992.992,0,0,1,.386-.042,1,1,0,0,1,.674.352,1.06,1.06,0,0,1,.187.34,5.843,5.843,0,0,1-.674,4.879,9.519,9.519,0,0,1-6.872,4.014A.49.49,0,0,1,937.663,661.448Z" transform="translate(-715.723 -558.879)" fill="#313131"/><path d="M1380.318,435.521H1262.16v96.016h118.157Z" transform="translate(-941.12 -434.577)" fill="#fff"/><path d="M1378.652,530.975H1260.5a.994.994,0,0,1-.992-.992V433.992a.994.994,0,0,1,.992-.992h118.15a.995.995,0,0,1,.992.992v95.992a.995.995,0,0,1-.992.992Zm-117.157-1.983H1377.66V434.936H1261.495Z" transform="translate(-939.462 -433)" fill="#313131"/><path d="M1310.975,565.523H1288.43V588.07h22.545Zm37.968-15.041H1326.4V588.07h22.546Zm37.96-24.68h-22.546V588.07H1386.9Z" transform="translate(-957.551 -491.047)" fill="#fecd07"/><path d="M1309.318,587.4h-22.545a.994.994,0,0,1-.993-.991V563.867a.994.994,0,0,1,.993-.992h22.545a.994.994,0,0,1,.993.992v22.546a.994.994,0,0,1-.993.991Zm-21.553-1.983h20.561V564.859h-20.561Zm59.513,1.983H1324.74a.994.994,0,0,1-.993-.992V548.826a.994.994,0,0,1,.993-.992h22.538a.994.994,0,0,1,.992.992v37.587a.994.994,0,0,1-.992.992Zm-21.546-1.983h20.538v-35.6h-20.538Zm59.513,1.983H1362.7a.994.994,0,0,1-.993-.992V524.145a1,1,0,0,1,.993-.992h22.545a.995.995,0,0,1,.992.992v62.268a.994.994,0,0,1-.992.992Zm-21.523-1.983h20.564V525.129h-20.564Z" transform="translate(-955.893 -489.39)" fill="#313131"/><path d="M1272.262,512.1a.981.981,0,0,1-.569-.18.968.968,0,0,1-.363-.474.984.984,0,0,1-.026-.6,1.032,1.032,0,0,1,.322-.5l12.321-10.361a.97.97,0,0,1,.873-.206,1,1,0,0,1,.682.579l3.76,8.893,28.964-33.772a.956.956,0,0,1,.914-.333,1,1,0,0,1,.479.2,1.009,1.009,0,0,1,.314.413l7.359,18.778,42.252-47.821a.993.993,0,0,1,1.494,1.309l-43.365,49.035a.985.985,0,0,1-1.375.116.982.982,0,0,1-.292-.41l-7.352-18.746-28.935,33.732a.984.984,0,0,1-.9.343.986.986,0,0,1-.764-.6l-3.861-9.131-11.292,9.52A1.025,1.025,0,0,1,1272.262,512.1Z" transform="translate(-946.817 -441.367)" fill="#313131"/><path d="M1277.491,461.4a.806.806,0,0,1-.24,0,1.006,1.006,0,0,1-.61-.453.981.981,0,0,1-.131-.366.966.966,0,0,1,.022-.387l2.887-11.424-12.265,3.277a.993.993,0,0,1-.723-.125.975.975,0,0,1-.439-.587.988.988,0,0,1,.644-1.2l13.9-3.768a.994.994,0,0,1,.513-.006.964.964,0,0,1,.7.693,1.028,1.028,0,0,1,.008.51l-3.3,13.074a.987.987,0,0,1-.352.546A1.013,1.013,0,0,1,1277.491,461.4Zm-64.475-8.885h-24.781a.992.992,0,0,1,0-1.983h24.781a.992.992,0,1,1,0,1.983Zm-9.232,9.361h-15.549a.992.992,0,0,1,0-1.983h15.549a.992.992,0,0,1,0,1.983ZM1160.4,745.92c-1.206,5.131-4.872,13.074-10.415,21.467-4.895,7.441-10.044,13.946-14.1,17.879-3.172,3.048-5.632,4.547-6.846,3.745s-.981-3.505.255-7.4c1.738-5.449,5.554-13.16,10.606-20.856,5.505-8.363,10.973-15.074,14.954-18.4,2.3-1.936,4.108-2.73,5.134-2.056S1161.109,742.976,1160.4,745.92Z" transform="translate(-857.356 -441.339)" fill="#313131"/><path d="M878.562,1279.1a2.3,2.3,0,0,1-1.292-.371c-4.258-2.809,3.794-19.351,10.576-29.646a114.159,114.159,0,0,1,12.381-16.01c4.262-4.4,7.236-5.944,9.086-4.76,3.966,2.6-1.843,16.524-9.718,28.474a123.774,123.774,0,0,1-12.8,16.624C883.157,1277.217,880.442,1279.1,878.562,1279.1Zm10.943-28.931c-9.61,14.58-12.7,25.863-11.108,26.9.363.247,2.378-.176,6.988-5.03a121.375,121.375,0,0,0,12.583-16.31c9.265-14.059,11.9-24.65,10.314-25.729-.479-.307-2.46.214-6.569,4.453A111.89,111.89,0,0,0,889.5,1250.166ZM736.3,1292.227c-.278,6.8-.23,15.464-1.039,21.347-.548,3.97-1.5,6.723-3.221,6.723-.793,0-2.047-2.565-3.173-6.91a87.063,87.063,0,0,1-2.095-25.238c.278-5.086,1.285-16.984,2.848-23.965.69-3.079,1.491-5.2,2.38-5.363,1.586-.292,2.7,1.682,3.4,5.015C736.828,1270.363,736.741,1282.119,736.3,1292.227Z" transform="translate(-606.129 -930.219)" fill="#313131"/><path d="M730.546,1371.177a1.772,1.772,0,0,1-.691-.176,1.792,1.792,0,0,1-.562-.442c-2.237-2.378-5.918-15.636-4.982-32.575.174-3.266.738-10.58,1.682-17.284,1.539-10.966,3.015-12.7,4.371-12.966a2.649,2.649,0,0,1,1.211.056,2.675,2.675,0,0,1,1.058.6c1.087.936,4.395,3.816,3.173,33.773-.087,1.958-.135,4.074-.19,6.235C735.25,1362.571,734.774,1371.177,730.546,1371.177Zm.23-61.5c-1.737,1.232-3.8,15.961-4.49,28.418-.936,17.055,2.856,29.6,4.418,31.081,2.38-.528,2.729-13.2,2.92-20.831.055-2.176.111-4.3.19-6.277,1.079-26.178-1.38-31.23-2.483-32.193a.622.622,0,0,0-.239-.157.669.669,0,0,0-.285-.041Z" transform="translate(-604.606 -980.111)" fill="#313131"/><path d="M703.017,871.127s68.228,3.046,83.546,14.28c24.268,17.755,76.954,201.764,38.327,228.556-33.923,23.519-77.261-16.827-77.261-16.827v33.406h-202.3l2.427-33.406H452.274c-7.7,0-27.3-18.819,2.809-70.392,35.7-61.086,116.118-127.843,126.392-133.46s65.988-13.693,65.988-13.693l7.6,25.252Z" transform="translate(-426.158 -707.045)" fill="#fff"/><path d="M543.708,1129.859h-.072a.926.926,0,0,1-.372-.1.985.985,0,0,1-.494-.569.985.985,0,0,1-.047-.382l2.38-32.346H450.7c-3.03,0-7.489-2.457-10.646-7.932-4.577-7.932-9.028-26.878,12.6-63.925,35.414-60.7,115.539-127.749,126.725-133.857,10.313-5.633,64.045-13.447,66.329-13.78a.984.984,0,0,1,1.087.7L654,901.6l46.8-32.939a1.04,1.04,0,0,1,.622-.183c2.79.127,68.685,3.173,84.092,14.454,9.018,6.6,22.212,35.757,33.556,74.294,12.187,41.316,19.246,83.118,18.89,111.813-.288,22.935-5.048,37.762-14.138,44.061-14.179,9.834-32.271,10-52.36.491a117.508,117.508,0,0,1-24.467-15.906V1128.9a.991.991,0,1,1-1.981,0v-33.436a.973.973,0,0,1,.161-.547,1,1,0,0,1,.431-.367,1.01,1.01,0,0,1,.566-.067.992.992,0,0,1,.509.251c.427.4,43.155,39.537,76.022,16.737,8.527-5.917,13-20.2,13.28-42.458.359-28.511-6.67-70.089-18.808-111.229-11.108-37.556-24.268-66.989-32.822-73.249-14.366-10.512-77.46-13.8-82.662-14.058l-47.679,33.534a1,1,0,0,1-.434.173.993.993,0,0,1-.854-.294.99.99,0,0,1-.236-.4l-7.346-24.434c-7.029,1.039-55.533,8.346-64.814,13.431C569.2,898.561,489.571,965.2,454.316,1025.57c-21.911,37.533-16.1,55.82-12.59,61.944,2.745,4.76,6.545,6.958,8.925,6.958h95.484a1.016,1.016,0,0,1,.394.082,1,1,0,0,1,.329.236.977.977,0,0,1,.208.344.99.99,0,0,1,.053.4l-2.419,33.406a1,1,0,0,1-.317.652A.983.983,0,0,1,543.708,1129.859Z" transform="translate(-424.535 -705.387)" fill="#313131"/><path d="M945.558,1186.235a1.006,1.006,0,0,1-.379-.075.943.943,0,0,1-.322-.213.959.959,0,0,1-.215-.318.983.983,0,0,1-.076-.379c-1.031-84.186,6.045-141.134,12.154-174.079,6.64-35.769,13.637-51.843,13.7-52a.991.991,0,0,1,1.812.048.987.987,0,0,1,0,.745c-.277.626-27.655,64.608-25.687,225.254a1,1,0,0,1-.287.7.985.985,0,0,1-.7.3Z" transform="translate(-742.405 -761.759)" fill="#313131"/><path d="M990.707,838.527l13.4,12.8L979.441,915.01l-33.193-30.542Zm-53.953,13.986,1.9,6.7,7.6,25.251L904.4,911.561l20.928-50.289Z" transform="translate(-717.345 -686.653)" fill="#fff"/><path d="M1047.674,914.369a.983.983,0,0,1-.666-.262l-33.2-30.542a.957.957,0,0,1-.229-.321.982.982,0,0,1-.09-.385.978.978,0,0,1,.281-.714l44.424-45.941a1,1,0,0,1,1.4,0l13.392,12.8a1.011,1.011,0,0,1,.285.5.977.977,0,0,1-.041.576L1048.6,913.736a1,1,0,0,1-.7.6A.956.956,0,0,1,1047.674,914.369Zm-31.732-31.574,31.376,28.87,23.894-61.722-12.239-11.654Z" transform="translate(-785.578 -685.02)" fill="#313131"/><path d="M679.779,934.3a1,1,0,0,1-.635-.228.991.991,0,0,1-.278-1.142l20.92-50.289a1.017,1.017,0,0,1,.317-.412l11.424-8.727a.993.993,0,0,1,1.315.1,1,1,0,0,1,.24.412l1.9,6.7,7.583,25.235a.974.974,0,0,1-.4,1.119l-41.847,27.09A.975.975,0,0,1,679.779,934.3Zm21.737-50.652-19.595,47.091,38.548-24.949L713.09,881.25l-1.507-5.315Zm-82.854,215.822a1,1,0,0,1-.45-.124,1.022,1.022,0,0,1-.343-.319c-.254-.389-6.227-9.7-5.418-32.732.635-17.748,3.174-25.388,4.562-28.346l-70.764-2.15a.992.992,0,0,1-.647-1.715,1,1,0,0,1,.71-.27l72.414,2.2a1.01,1.01,0,0,1,.88.6,1,1,0,0,1-.166,1.049c0,.037-4.173,5.352-5.006,28.71-.793,22.291,5.03,31.478,5.093,31.564a1.019,1.019,0,0,1,.157.506.992.992,0,0,1-.484.891.973.973,0,0,1-.507.142Z" transform="translate(-492.722 -708.402)" fill="#313131"/><path d="M1238.811,1278.339l-77.95-47.8s.888,11.662-8.468,25.744c-13.239,19.957-22.014,23.672-22.014,23.672s42.259,36.152,49.78,41.99Z" transform="translate(-858.692 -931.854)" fill="#fff"/><path d="M1178.5,1321.118a.987.987,0,0,1-.61-.213c-7.449-5.783-49.39-41.65-49.821-42.047a1.038,1.038,0,0,1-.281-.408,1.057,1.057,0,0,1-.052-.495,1.016,1.016,0,0,1,.6-.794c.083,0,8.726-3.966,21.579-23.309,9.03-13.595,8.307-25.013,8.3-25.122a1.022,1.022,0,0,1,.109-.528.977.977,0,0,1,.367-.393.96.96,0,0,1,1.03,0l77.954,47.821a.991.991,0,0,1,.326,1.364.987.987,0,0,1-.618.445.977.977,0,0,1-.749-.12l-76.426-46.885c-.127,3.895-1.281,13.43-8.632,24.515-10.464,15.778-18.126,21.546-21.111,23.37,6.689,5.722,41.911,35.8,48.656,41.024a1.008,1.008,0,0,1,.345.5,1.018,1.018,0,0,1-.015.607,1,1,0,0,1-.363.487A.966.966,0,0,1,1178.5,1321.118Z" transform="translate(-857.032 -930.052)" fill="#313131"/><path d="M895.65,1186.3a.992.992,0,0,1-.992-.944l-2.038-46.743a.978.978,0,0,1,.262-.712,1,1,0,0,1,1.4-.056,1.009,1.009,0,0,1,.318.689l2.037,46.735a1.021,1.021,0,0,1-.06.382.994.994,0,0,1-.517.558.919.919,0,0,1-.374.09ZM859.3,1235.77a.974.974,0,0,1-.573-.176.977.977,0,0,1-.386-1.078.984.984,0,0,1,.333-.5c.127-.1,12.692-10.434,21.291-23.373a58.354,58.354,0,0,0,9.824-28.343.991.991,0,1,1,1.981,0c0,.584-.307,14.658-10.123,29.406-8.782,13.2-21.561,23.706-21.7,23.8A.975.975,0,0,1,859.3,1235.77Zm-182.122,29.01a.987.987,0,0,1-.6-.2,1.006,1.006,0,0,1-.353-.528,123.1,123.1,0,0,1-3.523-32.429c.436-18.43,5.395-29.815,5.609-30.29a.987.987,0,0,1,.548-.5.967.967,0,0,1,.745.019.977.977,0,0,1,.521.532.994.994,0,0,1,0,.745c-.056.112-5.022,11.52-5.442,29.526a121.109,121.109,0,0,0,3.451,31.852,1,1,0,0,1-.69,1.221A.845.845,0,0,1,677.178,1264.779Zm9.6-52.221a4.106,4.106,0,0,1-2.268-.685,4.077,4.077,0,0,1,1.467-7.393,4.078,4.078,0,1,1,.8,8.078Zm0-6.165a2.094,2.094,0,0,0-1.941,1.284,2.1,2.1,0,0,0,.449,2.288,2.1,2.1,0,1,0,1.492-3.573Zm9.155-3.667h-.1a.994.994,0,0,1-.667-.359,1,1,0,0,1-.221-.726l3.824-39.271a1.01,1.01,0,0,1,.089-.4.978.978,0,0,1,.241-.326,1,1,0,0,1,.757-.247.95.95,0,0,1,.388.12,1,1,0,0,1,.307.266,1.016,1.016,0,0,1,.174.371.974.974,0,0,1,.012.4l-3.816,39.271a.991.991,0,0,1-.984.9Z" transform="translate(-572.396 -873.713)" fill="#313131"/><path d="M407.536,587.72l86.972-8.473L462.37,596.922,496.4,632.8Z" transform="translate(-406.56 -524.476)" fill="#079b7e"/><path d="M494.773,632.161a.989.989,0,0,1-.445-.1l-88.852-45.092a.991.991,0,0,1-.531-1.063,1.008,1.008,0,0,1,.881-.793l86.972-8.473a1,1,0,0,1,1.039.7.975.975,0,0,1-.468,1.158l-31.011,17.057L495.511,630.5a.991.991,0,0,1-.722,1.674ZM409.4,586.743l80.712,40.951-30.091-31.733a.992.992,0,0,1,.246-1.587l27.909-15.351Z" transform="translate(-404.93 -522.841)" fill="#313131"/><path d="M460.824,610.435h-.167l-54.787-9.218a1,1,0,0,1-.793-1.142.984.984,0,0,1,1.142-.794l54.835,9.195a.992.992,0,0,1-.167,1.976Z" transform="translate(-405.014 -536.998)" fill="#313131"/><path d="M683.1,862.724h-.04a1.013,1.013,0,0,1-.377-.093.98.98,0,0,1-.313-.225,1.013,1.013,0,0,1-.2-.333.984.984,0,0,1-.06-.382c3.3-92.818-14.708-160.25-53.509-200.337-33.8-34.906-71.693-35.279-72.192-35.279a.992.992,0,1,1,0-1.983c.381,0,39.134.278,73.581,35.834,17.413,17.985,30.876,41.911,40,71.121,11.17,35.754,15.914,79.707,14.106,130.715a.992.992,0,0,1-.3.678A1.007,1.007,0,0,1,683.1,862.724Z" transform="translate(-499.056 -552.526)" fill="#313131"/><path d="M715.731,1089.9s-8.116-11.516-16.922-9a39.553,39.553,0,0,1-27.766,10.973c-20.745,0-37.572-15.074-37.572-33.575s16.826-33.575,37.572-33.575,37.556,15.037,37.556,33.575C708.591,1058.295,715.533,1074.327,715.731,1089.9Z" transform="translate(-547.881 -803.116)" fill="#fff"/><path d="M669.358,1091.207c-21.253,0-38.555-15.509-38.555-34.563s17.3-34.563,38.555-34.563,38.428,15.4,38.555,34.357c.793,1.944,6.958,16.939,7.14,31.8a.991.991,0,0,1-.185.592.993.993,0,0,1-1.616,0c-.079-.112-7.671-10.711-15.613-8.726A40.85,40.85,0,0,1,669.358,1091.207Zm0-67.146c-20.166,0-36.572,14.621-36.572,32.583s16.406,32.582,36.572,32.582a38.734,38.734,0,0,0,27.084-10.7.964.964,0,0,1,.476-.251c6.8-1.906,13.01,3.655,16.033,7.037-.92-14.227-6.878-28.133-6.941-28.275a1.153,1.153,0,0,1-.079-.4C705.93,1038.682,689.525,1024.061,669.358,1024.061Z" transform="translate(-546.211 -801.464)" fill="#313131"/><path d="M699.406,1103.254l-15.517-19.587,4.752-3.767,10.527,13.28,16.6-23.1,4.926,3.546Z" transform="translate(-579.416 -831.488)" fill="#fecd07"/><path d="M697.719,1102.593a.949.949,0,0,1-.441-.1.969.969,0,0,1-.352-.285l-15.517-19.579a.96.96,0,0,1-.178-.345.981.981,0,0,1,.086-.753.946.946,0,0,1,.251-.3l4.76-3.771a1.054,1.054,0,0,1,.343-.176.959.959,0,0,1,.385-.034.982.982,0,0,1,.367.12,1,1,0,0,1,.294.251l9.71,12.246,15.827-22.021a.992.992,0,0,1,.643-.4,1.018,1.018,0,0,1,.746.176l4.927,3.536a1.055,1.055,0,0,1,.264.285,1.008,1.008,0,0,1,.135.363.992.992,0,0,1-.015.389.977.977,0,0,1-.163.352L698.5,1102.174a.957.957,0,0,1-.346.3.979.979,0,0,1-.447.109Zm-14.129-20.418,14.09,17.785,19.944-27.766-3.324-2.382-16.017,22.295a.984.984,0,0,1-1.587,0l-9.9-12.471Z" transform="translate(-577.729 -829.835)" fill="#313131"/><path d="M950.54,1035.559s10.139-12.969,21.141-10.138c8.576,7.591,20.946,12.352,34.695,12.352,25.916,0,46.93-16.92,46.93-37.8s-21.014-37.8-46.93-37.8-46.911,16.92-46.911,37.833C959.465,1000,950.786,1018.029,950.54,1035.559Z" transform="translate(-746.204 -763.992)" fill="#fff"/><path d="M1004.727,1037.108c-13.321,0-26.126-4.528-35.163-12.437-10.177-2.382-19.832,9.726-19.895,9.846a.992.992,0,0,1-1.777-.622c.23-16.546,7.933-33.732,8.925-35.8.143-21.291,21.586-38.57,47.91-38.57s47.922,17.406,47.922,38.825S1031.152,1037.108,1004.727,1037.108Zm-34.477-14.28a1.015,1.015,0,0,1,.442.225c8.726,7.692,21.1,12.1,34.035,12.1,25.328,0,45.941-16.509,45.941-36.811s-20.628-36.809-45.941-36.809-45.919,16.477-45.919,36.809a1.013,1.013,0,0,1-.1.431c-.079.165-7.7,16.2-8.726,32.421,3.53-3.719,11.535-10.64,20.271-8.4Z" transform="translate(-744.548 -762.335)" fill="#313131"/><path d="M1077.55,1060.545a3.818,3.818,0,0,1-3.531-2.363,3.768,3.768,0,0,1-.217-2.206,3.823,3.823,0,0,1,5.213-2.79,3.827,3.827,0,0,1-1.464,7.359Zm0-5.666a1.847,1.847,0,1,0,1.3.543A1.843,1.843,0,0,0,1077.55,1054.879Zm-24.665,5.666a3.819,3.819,0,1,1,3.536-2.363,3.878,3.878,0,0,1-.832,1.244,3.789,3.789,0,0,1-1.24.828A3.854,3.854,0,0,1,1052.885,1060.545Zm0-5.666a1.839,1.839,0,0,0-1.3,3.142,1.824,1.824,0,0,0,.94.505,1.842,1.842,0,1,0,.359-3.648Zm-24.665,5.666a3.83,3.83,0,1,1,2.7-1.109A3.833,3.833,0,0,1,1028.22,1060.545Zm0-5.666a1.844,1.844,0,0,0-1.022.311,1.881,1.881,0,0,0-.678.828,1.841,1.841,0,0,0-.1,1.064,1.842,1.842,0,0,0,3.337.663,1.841,1.841,0,0,0-1.532-2.865Z" transform="translate(-792.407 -820.739)" fill="#313131"/><path d="M1030.868,1204.841c-1.363,6.236-3.079,13.55-9.232,22.212a131.22,131.22,0,0,1-14.726,17.535l-5.966-3.311L974.9,1226.84c.794,5.468-6.078,6.932-16.25,2.888s-8.646-10.557-8.646-10.557c-7.576-.333-6.624-6.865-6.624-6.865s-20.023,13.654-20.341,4.539,38.992-33.582,52.684-35.406c12.512-1.659,35.114,10.711,50.772,20.579C1028.475,1203.295,1029.149,1203.7,1030.868,1204.841Z" transform="translate(-729.002 -901.047)" fill="#fff"/><path d="M1005.253,1243.991a1.031,1.031,0,0,1-.483-.127l-5.958-3.307-.1-.056-24.489-13.565a4.6,4.6,0,0,1-1.768,3.015c-2.865,2.251-8.782,1.918-15.827-.891-8.458-3.371-9.41-8.344-9.37-10.572a7.45,7.45,0,0,1-5.022-2.49,6.891,6.891,0,0,1-1.467-3.461c-3.967,2.547-14.1,8.528-18.358,6.348a3.86,3.86,0,0,1-2.023-3.61c-.349-10.228,40.31-34.668,53.549-36.429,12.692-1.682,34.953,10.31,51.431,20.722l.491.307c1.588,1,2.318,1.453,3.887,2.49a.981.981,0,0,1,.359.412,1,1,0,0,1,.086.543c-.888,7.138-3.872,14.276-9.385,22.673a109.537,109.537,0,0,1-14.868,17.688A1,1,0,0,1,1005.253,1243.991Zm-5.4-5.116,5.213,2.861a106.935,106.935,0,0,0,14.066-16.842c5.18-7.854,8.052-14.621,8.988-21.22-1.206-.794-1.9-1.228-3.333-2.127l-.491-.307c-22.9-14.434-40.7-21.692-50.113-20.437-13.486,1.794-52.115,26.069-51.829,34.391.048,1.315.555,1.719.936,1.91,3.022,1.532,12.558-3.625,17.857-7.235a.985.985,0,0,1,.538-.169.964.964,0,0,1,.544.15.991.991,0,0,1,.374.419,1.008,1.008,0,0,1,.083.562,5.547,5.547,0,0,0,1.071,3.876,6.079,6.079,0,0,0,4.617,1.85.964.964,0,0,1,.417.116.984.984,0,0,1,.5,1.112c-.048.225-1.2,5.711,8.05,9.4,7.516,2.992,12.093,2.565,13.876,1.169a2.973,2.973,0,0,0,1.034-3,.98.98,0,0,1,.423-.947.953.953,0,0,1,.509-.172,1.036,1.036,0,0,1,.528.12l26.043,14.43Z" transform="translate(-727.345 -899.42)" fill="#313131"/><path d="M975.7,1238.328h-.143a.993.993,0,0,1-.841-1.12c1.1-7.576,19.9-15.074,22.047-15.913a.991.991,0,1,1,.723,1.846c-5.554,2.142-20.017,8.894-20.8,14.351a1,1,0,0,1-.34.6A1.013,1.013,0,0,1,975.7,1238.328Zm6.623,6.854h-.1a1,1,0,0,1-.889-1.086c.73-7.419,18.738-12.655,19.5-12.868a.948.948,0,0,1,.4-.049.914.914,0,0,1,.382.108,1.071,1.071,0,0,1,.311.251,1.036,1.036,0,0,1,.184.356.946.946,0,0,1,.03.4.969.969,0,0,1-.128.375.966.966,0,0,1-.625.464c-6.752,1.936-17.629,6.674-18.073,11.157a.992.992,0,0,1-.984.9Zm24.9,7.67a.914.914,0,0,1-.476-.127l-8.951-4.955a.992.992,0,1,1,.959-1.738l8.973,4.966a.993.993,0,0,1,.476,1.112,1,1,0,0,1-.352.536.991.991,0,0,1-.607.206Z" transform="translate(-761.32 -926.029)" fill="#313131"/><path d="M874.8,1258.63H833.337a4.98,4.98,0,0,0-4.982,4.981v80.943a4.981,4.981,0,0,0,4.982,4.981H874.8a4.981,4.981,0,0,0,4.982-4.981v-80.943A4.98,4.98,0,0,0,874.8,1258.63Z" transform="translate(-669.778 -949.424)" fill="#079b7e"/><path d="M873.147,1348.894H831.681a5.979,5.979,0,0,1-5.974-5.981v-80.92a5.983,5.983,0,0,1,5.974-5.974h41.467a5.982,5.982,0,0,1,5.974,5.974v80.92a5.978,5.978,0,0,1-5.974,5.981Zm-41.467-90.9a3.966,3.966,0,0,0-3.967,3.966v80.916a3.966,3.966,0,0,0,3.967,3.966h41.467a3.966,3.966,0,0,0,3.967-3.966v-80.916a3.966,3.966,0,0,0-3.967-3.966Z" transform="translate(-668.122 -947.792)" fill="#313131"/><path d="M859.121,1292.146H848.174a5.121,5.121,0,0,1-5.117-5.123v-10.939a5.121,5.121,0,0,1,5.117-5.123h10.948a5.121,5.121,0,0,1,5.117,5.123v10.939a5.121,5.121,0,0,1-5.117,5.123Zm-10.948-19.205a3.173,3.173,0,0,0-3.174,3.172v10.943a3.172,3.172,0,0,0,3.174,3.172h10.948a3.172,3.172,0,0,0,3.173-3.172v-10.973a3.172,3.172,0,0,0-3.173-3.172Z" transform="translate(-678.974 -957.136)" fill="#313131"/><path d="M855.492,1287.394a3.528,3.528,0,1,1,3.269-2.176,3.572,3.572,0,0,1-.767,1.146,3.532,3.532,0,0,1-2.5,1.03Zm0-5.082a1.582,1.582,0,0,0-1.466.977,1.586,1.586,0,0,0,.344,1.73,1.586,1.586,0,0,0,2.441-.24,1.609,1.609,0,0,0,.149-1.494,1.63,1.63,0,0,0-.343-.517,1.59,1.59,0,0,0-.516-.345,1.549,1.549,0,0,0-.609-.124Zm0,12.82a3.54,3.54,0,1,1,2.5-1.037A3.538,3.538,0,0,1,855.492,1295.131Zm0-5.094a1.585,1.585,0,0,0-1.556,1.9,1.586,1.586,0,1,0,1.556-1.9Zm8-2.644a3.538,3.538,0,0,1-.617-7.014,3.541,3.541,0,0,1,3.135,6.007,3.519,3.519,0,0,1-2.519,1.007Zm0-5.086a1.594,1.594,0,0,0-1.466.981,1.588,1.588,0,0,0,.344,1.73,1.586,1.586,0,0,0,2.441-.24,1.61,1.61,0,0,0,.149-1.494,1.638,1.638,0,0,0-.343-.517,1.592,1.592,0,0,0-.516-.345,1.548,1.548,0,0,0-.609-.124Zm0,11.846a2.565,2.565,0,1,1,.981-.195A2.519,2.519,0,0,1,863.489,1294.154Zm0-3.172a.58.58,0,0,0-.535.356.589.589,0,0,0-.033.337.58.58,0,0,0,.158.3.58.58,0,0,0,.631.124.551.551,0,0,0,.26-.214.568.568,0,0,0,.1-.318.59.59,0,0,0-.186-.382.567.567,0,0,0-.394-.15Z" transform="translate(-684.539 -962.99)" fill="#313131"/><path d="M824.74,1312.341a4.381,4.381,0,0,1,0,.442,2.536,2.536,0,0,1-.064.419.131.131,0,0,1,0,.056,2.376,2.376,0,0,1-.1.423v.053a2.773,2.773,0,0,1-.127.4,1,1,0,0,1-.04.113c-.047.127-.095.262-.158.4a.283.283,0,0,1,0,.071c-.1.229-.214.461-.341.689v.049l-.127.236c-.191.333-.4.667-.635,1l-.309.453-.206.285-.19.24c-.119.157-.246.318-.373.468-.516.625-1.071,1.243-1.586,1.816l-.6.61-.23.221-.555.532c-.508.476-.992.914-1.412,1.27l-.246.206a1.522,1.522,0,0,1-.151.128l-.277.24c-.357.3-.635.513-.794.633l-.1.079a9.539,9.539,0,0,1,2.237-.846l.285-.064a3.486,3.486,0,0,1,4.2,1.936,2.824,2.824,0,0,1,.167,1.76.612.612,0,0,1-.04.165,5.784,5.784,0,0,1-.563,1.453l-.135.24c-.135.236-.285.483-.452.719l-.167.24-.23.311-.31.393a39.681,39.681,0,0,1-6.751,6.134l-.191.135c-.88.644-1.5,1.064-1.586,1.15l.277-.079h.135a3.266,3.266,0,0,1,.468-.078,2.06,2.06,0,0,1,.428,0,3.988,3.988,0,0,1,.793,0l.309.064a2.808,2.808,0,0,1,1.349.73.763.763,0,0,1,.1.094,3.1,3.1,0,0,1,.508.738c2.158,4.322-7.4,12.692-25.426,17.153-7.56,1.873-23.585,2.284-37.635,2.228H746.5l-5.276-.086c-.675,0-1.325,0-1.96-.049l-3.1-.078h-4.1l-1.357-.049H729.8a87.044,87.044,0,0,1-2.094-25.235c.278-5.086,1.285-16.988,2.848-23.968h.571l.944-.038h1.793l1.587-.12.642-.446c2.293-.2,4.927-.483,7.664-.91l1.547-.254c.793-.135,1.587-.278,2.38-.446l1-.206c.516-.1,1.039-.228,1.586-.348l1.079-.27c.357-.086.706-.183,1.055-.285s.515-.135.793-.213l.6-.176.873-.27c.69-.221,1.372-.461,2.039-.708l.928-.363a30.185,30.185,0,0,0,4.332-2.127c.254-.15.5-.3.738-.468s.5-.333.73-.5.428-.318.634-.483l.183-.142c.127-.1.246-.2.365-.311s.175-.15.262-.228l.524-.494v13.988s17.5,1.9,27.814-2.232l1.023-.427c.452-.191.9-.4,1.357-.6,1.332-.618,2.673-1.292,3.966-2l1.309-.7,1.365-.745,1.174-.644c1.055-.588,2.086-1.165,3.094-1.7,5.418-2.914,9.893-4.857,11.7-2.284a4.132,4.132,0,0,1,.182,4.505l-.119.236c-.048.09-.087.168-.143.254-1.952,3.255-6.854,6.419-10.488,8.655l.611-.363,1.182-.682.619-.352c1.095-.618,2.285-1.258,3.491-1.854l.722-.352c1.245-.6,2.491-1.157,3.657-1.584l.912-.318c.445-.142.881-.262,1.285-.356l.294-.071c.309-.064.6-.112.88-.153h.238a2.719,2.719,0,0,1,1.229.034,2.679,2.679,0,0,1,1.088.569A3.426,3.426,0,0,1,824.74,1312.341Z" transform="translate(-606.711 -974.782)" fill="#fff"/><path d="M753.835,1358.306h-9.686l-5.291-.086-1.952-.049-2.11-.135h-4.347l-2.245-.078h-.492a.991.991,0,0,1-.577-.225,1,1,0,0,1-.336-.52,86.047,86.047,0,0,1-2.483-25.545l.072-1.419c.286-5.554.793-15.954,2.975-22.793a.993.993,0,0,1,.344-.494,1,1,0,0,1,.568-.2h3.173l1.436-.1h.182l.849-.064c2.6-.221,5.157-.524,7.6-.895l1.531-.255c.794-.135,1.547-.277,2.325-.435l.992-.206c.508-.1,1.007-.225,1.507-.333l1.1-.281,1.039-.277.738-.206.6-.172.873-.27c.666-.217,1.333-.453,1.983-.693l.238-.093.658-.255a30.283,30.283,0,0,0,4.2-2.064l.7-.442c.254-.161.476-.326.7-.487s.4-.285.579-.434l.2-.158q.171-.129.325-.269l.246-.217.492-.468a1.023,1.023,0,0,1,.513-.262.984.984,0,0,1,1.015.419.986.986,0,0,1,.17.543v13.082c3.665.3,17.873,1.2,26.552-2.27l.167-.071c.27-.113.555-.221.833-.349.452-.191.9-.389,1.332-.588,1.19-.554,2.483-1.2,3.967-1.974l1.309-.708,1.349-.738,1.182-.651c1.047-.584,2.094-1.165,3.1-1.7,5.553-2.992,10.718-5.4,12.994-1.959a5.278,5.278,0,0,1,.246,5.479v.064c0,.064-.063.135-.1.2a2.276,2.276,0,0,1-.191.333,11.633,11.633,0,0,1-1.586,2.071l.167-.064.19-.071.753-.255c.468-.157.928-.285,1.365-.386l.341-.082c.309-.064.626-.116.936-.157h.27a3.574,3.574,0,0,1,3.173.937,4.386,4.386,0,0,1,1.063,2.711v.6a1.051,1.051,0,0,1-.071.461v.056a1.706,1.706,0,0,1-.079.333v.2c-.047.157-.1.318-.151.476a.224.224,0,0,1-.056.142l-.174.438s-.04.094-.048.108c-.087.2-.206.446-.341.686a.1.1,0,0,1-.056.109l-.111.2a12.471,12.471,0,0,1-.69,1.094c-.1.154-.206.311-.325.468l-.42.566-.325.412-.056.064c-.476.58-1.023,1.2-1.674,1.88l-.167.165c-.151.161-.3.318-.452.461l-.2.2-.444.431a4.195,4.195,0,0,1,3.792,2.618,3.784,3.784,0,0,1,.238,2.315,1.41,1.41,0,0,1-.056.27,6.528,6.528,0,0,1-.658,1.674c-.043.086-.091.172-.143.255a8.545,8.545,0,0,1-.492.794l-.166.236c-.087.127-.174.24-.262.352l-.31.4a38.978,38.978,0,0,1-6.346,5.846,3.715,3.715,0,0,1,1.38.839l.182.191a4.208,4.208,0,0,1,.635.929,4.526,4.526,0,0,1-.151,4.052c-2.1,4.554-10.94,10.816-25.926,14.512C781.974,1357.887,766.4,1358.306,753.835,1358.306Zm-8.409-2.037h6.148c18.342.071,31.273-.689,37.4-2.2,14.28-3.52,22.76-9.423,24.593-13.415a2.658,2.658,0,0,0,.174-2.333,2.085,2.085,0,0,0-.333-.491l-.079-.079a1.775,1.775,0,0,0-.88-.468h-.2a2.563,2.563,0,0,0-.587,0,1.832,1.832,0,0,0-.349,0l-.389.056h-.1l-.206.056h-.087a1.02,1.02,0,0,1-.665-.079.993.993,0,0,1-.129-1.7l.111-.078c.238-.157.793-.532,1.5-1.056l.238-.172a38.5,38.5,0,0,0,6.505-5.865l.294-.382c.072-.094.143-.18.206-.277l.167-.236a7.229,7.229,0,0,0,.4-.637l.119-.221a4.643,4.643,0,0,0,.476-1.2.518.518,0,0,1,0-.1,2.023,2.023,0,0,0-.087-1.2c-.357-.794-1.063-1.752-3.126-1.374-.075.015-.149.03-.222.049a8.186,8.186,0,0,0-2,.794,1.034,1.034,0,0,1-.685.094,1.022,1.022,0,0,1-.584-.371.973.973,0,0,1-.2-.655.956.956,0,0,1,.281-.622l.1-.1h.048a.427.427,0,0,1,.087-.071c.151-.109.421-.326.793-.611l.262-.221c.087-.064.111-.1.143-.12s.127-.112.166-.142l.087-.079c.421-.352.889-.794,1.388-1.247q.262-.235.524-.505l.262-.255.389-.39.166-.176c.611-.633,1.126-1.214,1.587-1.753l.349-.442.365-.48.31-.449c.23-.333.42-.637.587-.929l.119-.221v-.056a6.082,6.082,0,0,0,.309-.618l.055-.12a1.61,1.61,0,0,1,.111-.288.445.445,0,0,1,.04-.1c.04-.12.071-.228.1-.333s0-.071,0-.086v-.071a1.006,1.006,0,0,1,.064-.262,2.117,2.117,0,0,0,.048-.311v-.056a3.01,3.01,0,0,0-.627-2.008,1.91,1.91,0,0,0-.718-.288,1.855,1.855,0,0,0-.774.019h-.174a3.638,3.638,0,0,0-.793.135l-.262.064c-.4.1-.793.206-1.222.341l-.706.247-.174.064c-1.031.382-2.237.9-3.562,1.539l-.706.348c-1.023.509-2.158,1.112-3.451,1.831l-.468.262-1.325.794a.989.989,0,0,1-.723.068.991.991,0,0,1-.694-1.161.99.99,0,0,1,.4-.6c3.578-2.206,7.894-5.093,9.52-7.932a1.225,1.225,0,0,0,.111-.2l.111-.206.04-.082a3.273,3.273,0,0,0-.143-3.464c-1.293-1.944-5.76.108-10.409,2.61-1,.54-2.031,1.109-3.078,1.7l-1.182.652c-.452.243-.9.5-1.372.745l-1.309.7c-1.507.794-2.832,1.461-4.054,2.022-.46.217-.928.431-1.38.622l-.873.363-.167.071c-10.448,4.172-27.671,2.382-28.4,2.318a.983.983,0,0,1-.88-.985v-11.947l-.4.285c-.246.183-.508.356-.794.532l-.793.483a30.622,30.622,0,0,1-4.474,2.2c-.222.094-.468.184-.714.277l-.23.1c-.69.251-1.38.491-2.086.719l-.9.281-.611.18-.793.224-1.063.285-1.095.27-1.587.356-1.007.206c-.793.168-1.586.311-2.38.446l-1.586.262c-2.491.378-5.093.689-7.735.91l-.88.071h-.167c-.508,0-.992.083-1.452.1h-2.475c-1.9,6.606-2.38,16.336-2.681,21.635l-.079,1.434a84.426,84.426,0,0,0,2.253,24.227l1.959.064h4.347l2.047.049,1.952.049,5.267.086h.793Z" transform="translate(-604.628 -973.674)" fill="#313131"/><path d="M866.573,1117.019a.99.99,0,0,1-.654-.262.977.977,0,0,1-.315-.629.988.988,0,0,1,.772-1.067c4.577-.951,21.682-8.479,27.727-12.2a.991.991,0,1,1,1.039,1.689c-5.815,3.581-23.173,11.37-28.361,12.457Zm1.19,12.01a.991.991,0,0,1-.206-1.958c13.859-3.008,31.923-13.868,34.176-15.407a1,1,0,0,1,.745-.153.994.994,0,0,1,.374,1.8c-2.293,1.588-20.706,12.628-34.906,15.7Zm0,11.464a.988.988,0,0,1-.988-.861.991.991,0,0,1,.734-1.09c8.727-2.378,19.087-6.8,30.725-13.209l.952,1.738c-11.773,6.49-22.26,11-31.162,13.392A.889.889,0,0,1,867.763,1140.494Zm12.368-152.2,43.974-25.133-2.127-1.96Z" transform="translate(-693.074 -763.382)" fill="#313131"/><path d="M1013.207,963.156l-2.127-1.96-3.03,1.96,6.648,4.974,2.078-1.69Zm65.917,100.885,4.917,3.176.3-5.127S1082.154,1061.847,1079.124,1064.041Zm-25.006,39.612s-1.951,6.348-.255,7.812l6.22-4.505Z" transform="translate(-782.176 -763.382)" fill="#313131"/><path d="M912.484,1234.891a1.044,1.044,0,0,1-.539-.15l-4.91-3.176a.992.992,0,0,1-.461-.805.975.975,0,0,1,.412-.828c3.284-2.382,5.782-2.191,5.887-2.183a.989.989,0,0,1,.663.341.978.978,0,0,1,.232.708l-.3,5.134a.957.957,0,0,1-.169.464.97.97,0,0,1-.371.326A.952.952,0,0,1,912.484,1234.891Zm-3.079-4.127,2.183,1.389.135-2.284A8.724,8.724,0,0,0,909.406,1230.764Zm-27.1,48.416a.953.953,0,0,1-.641-.236c-2.041-1.738-.558-7.22-.049-8.861a.947.947,0,0,1,.217-.382.925.925,0,0,1,.359-.247.964.964,0,0,1,.85.056l5.959,3.3a.97.97,0,0,1,.356.341,1.006,1.006,0,0,1,.06.951,1,1,0,0,1-.311.382l-6.221,4.505A.98.98,0,0,1,882.307,1279.18Zm.872-7.329a15.01,15.01,0,0,0-.532,4.861l4.03-2.917Zm-144.089-8.067-4.76.277,2.245-5.355S738.709,1259.4,739.09,1263.784Zm.69,49.675-6.006-.18s1.9,6.9,2.785,6.9C739.089,1320.182,739.78,1313.459,739.78,1313.459Z" transform="translate(-610.619 -930.104)" fill="#313131"/><path d="M726.085,1212.968a1.012,1.012,0,0,1-.467-.12.993.993,0,0,1-.446-1.255l2.245-5.355a1,1,0,0,1,.5-.52.978.978,0,0,1,.721-.041c.286.094,2.785,1.045,3.213,5.932a1,1,0,0,1-.238.737,1.006,1.006,0,0,1-.69.341l-4.76.281Zm2.65-4.76-1.118,2.67,2.126-.124a5.765,5.765,0,0,0-1.008-2.532Zm-.4,60.876c-.65,0-1.634,0-3.744-7.621a.987.987,0,0,1-.019-.461.964.964,0,0,1,.191-.419.989.989,0,0,1,.812-.382l6.006.184a1.035,1.035,0,0,1,.4.094,1,1,0,0,1,.326.247.965.965,0,0,1,.208.367.975.975,0,0,1,.03.423C732.408,1262.748,731.591,1269.084,728.331,1269.084Zm-1.46-6.853a31.685,31.685,0,0,0,1.754,4.76c.721-.468,1.443-2.539,1.793-4.674ZM923.679,1144.47l-2.022,42.443,3.966,2.094Zm-193.935,22.3-9.123,39.267h5.3Z" transform="translate(-602.391 -878.018)" fill="#313131"/><g transform="translate(389.891 145.447)"><path d="M1683,824.016H1542.88V958.7H1683Z" transform="translate(-1541.888 -823.024)" fill="#fff"/><path d="M1681.337,958.034H1541.222a1,1,0,0,1-.992-.992V822.36a1,1,0,0,1,.992-.992h140.115a.995.995,0,0,1,.992.992V957.042a1,1,0,0,1-.992.992Zm-139.123-1.985h138.13v-132.7h-138.13Z" transform="translate(-1540.23 -821.368)" fill="#313131"/><path d="M1596.482,909.39H1577.45v40.942h19.033Zm19.04-17.238H1596.49v58.184h19.033Zm19.029,7.179h-19.029v51h19.029Zm19.04-36.636h-19.032v87.63h19.032Zm19.032,24.427h-19.032v63.21h19.032Zm19.032,26.576h-19.032v36.634h19.032Z" transform="translate(-1563.51 -847.218)" fill="#079b7e"/><path d="M1594.832,1027.657h-19.04a.991.991,0,0,1-.992-.993V985.723a.995.995,0,0,1,.992-.992h19.04a.995.995,0,0,1,.993.992v40.941a.992.992,0,0,1-.292.7A1,1,0,0,1,1594.832,1027.657Zm-18.048-1.981h17.055V986.714h-17.055Z" transform="translate(-1561.853 -923.55)" fill="#313131"/><path d="M1645.652,998.866h-19.04a.985.985,0,0,1-.992-.989V939.694a.988.988,0,0,1,.992-.992h19.04a.989.989,0,0,1,.989.992v58.184a.985.985,0,0,1-.989.989Zm-18.04-1.981h17.048v-56.2h-17.048Z" transform="translate(-1593.641 -894.759)" fill="#313131"/><path d="M1696.489,1010.857h-19.04a.985.985,0,0,1-.989-.989v-51a.989.989,0,0,1,.989-.992h19.04a.989.989,0,0,1,.993.992v51a1.018,1.018,0,0,1-.075.378.988.988,0,0,1-.918.61Zm-18.047-1.981H1695.5v-49.02h-17.059Z" transform="translate(-1625.44 -906.75)" fill="#313131"/><path d="M1747.309,949.669h-19.04a1,1,0,0,1-.7-.288.989.989,0,0,1-.288-.7V861.04a.987.987,0,0,1,.989-.992h19.04a.995.995,0,0,1,.993.992v87.637a.991.991,0,0,1-.993.992Zm-18.04-1.981h17.048v-85.68h-17.048Z" transform="translate(-1657.228 -845.562)" fill="#313131"/><path d="M1798.122,990.464h-19.04a.992.992,0,0,1-.992-.992V926.261a.995.995,0,0,1,.992-.991h19.04a.994.994,0,0,1,.993.991v63.211a1.022,1.022,0,0,1-.075.382,1.038,1.038,0,0,1-.217.322.951.951,0,0,1-.322.214A1,1,0,0,1,1798.122,990.464Zm-18.04-1.981h17.048v-61.23h-17.048Z" transform="translate(-1689.01 -886.358)" fill="#313131"/><path d="M1848.963,1034.851h-19.04a.99.99,0,0,1-.992-.992V997.224a.994.994,0,0,1,.992-.992h19.04a.994.994,0,0,1,.992.992v36.635a1.013,1.013,0,0,1-.075.382,1.032,1.032,0,0,1-.217.322.957.957,0,0,1-.322.214A1.008,1.008,0,0,1,1848.963,1034.851Zm-18.048-1.981h17.055V998.216h-17.055Z" transform="translate(-1720.81 -930.744)" fill="#313131"/><path d="M1710.449,1006.478l-29.391,52.177-.048.071a3.975,3.975,0,0,1-1.09,1.1,3.931,3.931,0,0,1-1.434.6,2.807,2.807,0,0,1-.588.052,2.507,2.507,0,0,1-1.434-.4,3.284,3.284,0,0,1-1.135-4.314l29.545-52.454a3.166,3.166,0,0,1,1.932-1.5,3.188,3.188,0,0,1,1.247-.09,3.332,3.332,0,0,1,1.184.4,3.224,3.224,0,0,1,1.5,1.936,3.243,3.243,0,0,1,.086,1.243,3.163,3.163,0,0,1-.4,1.183Zm5.221,35.7a9.958,9.958,0,1,0-9.655,12.524,10.392,10.392,0,0,0,2.562-.333,10,10,0,0,0,7.093-12.19Zm-6.562,4.344a3.578,3.578,0,0,1-4.872,1.3,3.573,3.573,0,0,1-1.7-3.8,3.6,3.6,0,0,1,1.925-2.494,3.531,3.531,0,0,1,3.741.382,3.575,3.575,0,0,1,.91,4.641Zm-19.778-31.59a9.986,9.986,0,1,0-1.041,7.554,9.9,9.9,0,0,0,1.041-7.554Zm-6.569,4.318a3.53,3.53,0,0,1-2.165,1.648,3.568,3.568,0,0,1-4.348-2.547,3.453,3.453,0,0,1-.09-1.386,3.538,3.538,0,0,1,.461-1.311,3.558,3.558,0,0,1,6.6,2.281A3.573,3.573,0,0,1,1682.761,1019.253Z" transform="translate(-1621.208 -934.16)" fill="#fecd07"/><path d="M1676.367,1059.849a3.559,3.559,0,0,1-2-.577,4.257,4.257,0,0,1-1.438-5.618l29.545-52.424a4.2,4.2,0,0,1,7.693.936,4.11,4.11,0,0,1,.124,1.625,4.186,4.186,0,0,1-.509,1.547l-29.4,52.188a.672.672,0,0,0-.052.086,5.006,5.006,0,0,1-1.371,1.408,4.945,4.945,0,0,1-1.805.764A4.326,4.326,0,0,1,1676.367,1059.849Zm29.766-58.768a2.2,2.2,0,0,0-1.116.3,2.242,2.242,0,0,0-.813.828l-29.541,52.42a2.3,2.3,0,0,0,.839,3.015,1.875,1.875,0,0,0,1.262.191,2.983,2.983,0,0,0,1.078-.453,3.014,3.014,0,0,0,.82-.839l29.35-52.169a2.111,2.111,0,0,0,.274-.816,2.074,2.074,0,0,0-.068-.858,2.185,2.185,0,0,0-2.124-1.588Zm-1.648,53.016a10.93,10.93,0,1,1,2.816-.363A11.345,11.345,0,0,1,1704.485,1054.1Zm0-19.943a9.167,9.167,0,0,0-2.3.292,8.99,8.99,0,0,0,2.288,17.669,9.307,9.307,0,0,0,2.314-.3,8.98,8.98,0,0,0-2.3-17.658Zm0,13.542a4.565,4.565,0,0,1-4.434-5.614,4.535,4.535,0,0,1,2.843-3.224,4.538,4.538,0,0,1,2.2-.251,4.592,4.592,0,0,1,2.06.82,4.562,4.562,0,0,1,1.895,3.861,4.525,4.525,0,0,1-3.393,4.232,4.393,4.393,0,0,1-1.165.176Zm0-7.142a2.779,2.779,0,0,0-.659.09,2.56,2.56,0,0,0-1.906,2.146,2.487,2.487,0,0,0,.067,1,2.567,2.567,0,0,0,.442.91,2.659,2.659,0,0,0,.76.674,2.572,2.572,0,0,0,3.771-2.887,2.524,2.524,0,0,0-.427-.914,2.5,2.5,0,0,0-.756-.67,2.553,2.553,0,0,0-1.277-.344Zm-26.324-13.756a11.068,11.068,0,1,1,.041,0Zm0-19.943a9.015,9.015,0,0,0-8.913,7.756,8.8,8.8,0,0,0,.221,3.494,8.97,8.97,0,1,0,8.7-11.235Zm0,13.542a4.641,4.641,0,0,1-2.292-.618,4.544,4.544,0,0,1-1.4-1.161,4.487,4.487,0,0,1-.835-1.614,4.562,4.562,0,0,1-.135-1.813,4.487,4.487,0,0,1,.584-1.723,4.555,4.555,0,0,1,6.367-1.554,4.416,4.416,0,0,1,2.112,2.771,4.553,4.553,0,0,1-.476,3.442.149.149,0,0,1,0,.056,4.494,4.494,0,0,1-2.738,2.064A4.416,4.416,0,0,1,1678.161,1020.4Zm0-7.142a2.573,2.573,0,0,0-.652.09,2.544,2.544,0,0,0-.914.438,2.605,2.605,0,0,0-.67.76,2.569,2.569,0,0,0,2.9,3.783,2.593,2.593,0,0,0,.914-.431,2.5,2.5,0,0,0,.674-.753v-.064a2.533,2.533,0,0,0,.244-1.9,2.455,2.455,0,0,0-.423-.914,2.494,2.494,0,0,0-.757-.67,2.551,2.551,0,0,0-1.311-.345Z" transform="translate(-1619.677 -932.538)" fill="#313131"/></g></g><g transform="translate(0 214.289)"><rect width="175.574" height="14.334" transform="translate(0.999 175.227)" fill="#fff"/><g clip-path="url(#a)"><path d="M176.574,144.678H1a.994.994,0,0,1-.923-.609A1,1,0,0,1,0,143.687V129.354a.99.99,0,0,1,1-.95H176.574a1,1,0,0,1,.992.992v14.337a.993.993,0,0,1-.992.95Zm-174.583-2H175.582V130.342H1.991Z" transform="translate(0 45.874)" fill="#313131"/><path d="M68.957,122.148a3.044,3.044,0,0,1-3.031-3.029V98.248a3.032,3.032,0,0,1,1.483-2.6c1.007-.6,10.059-5.775,16.572-3.008a9.335,9.335,0,0,1,5.458,6.944c3.1,13.074-17.065,21.418-19.374,22.354a2.984,2.984,0,0,1-1.109.213m3.031-22.077v14.28c5.5-2.936,12.8-8.13,11.558-13.366-.46-1.944-1.317-2.516-1.927-2.772-2.413-1.029-6.8.51-9.631,1.858" transform="translate(23.553 32.807)" fill="#fecd07"/><path d="M69.217,123.4a4.028,4.028,0,0,1-4.023-4.023V98.508a4.048,4.048,0,0,1,1.968-3.461c1.055-.618,10.512-6.022,17.453-3.071a10.377,10.377,0,0,1,6.037,7.632c3.291,13.89-17.587,22.564-19.976,23.508a4.041,4.041,0,0,1-1.459.285M79.911,93.072c-5.323,0-10.964,3.229-11.734,3.681a2.06,2.06,0,0,0-1,1.752v20.871a2.034,2.034,0,0,0,.889,1.682,1.993,1.993,0,0,0,.922.338,2.058,2.058,0,0,0,.975-.124c2.23-.88,21.681-8.947,18.778-21.2a8.417,8.417,0,0,0-4.886-6.258,9.873,9.873,0,0,0-3.94-.73ZM72.248,115.6a1,1,0,0,1-.516-.136,1.009,1.009,0,0,1-.476-.85v-14.28a.992.992,0,0,1,.555-.894c1.629-.794,7.219-3.257,10.451-1.873a4.529,4.529,0,0,1,2.507,3.449c1.475,6.214-6.922,11.734-12.066,14.471a.951.951,0,0,1-.455.119Zm.992-14.648v11.966c3.753-2.184,10.686-6.9,9.607-11.457-.4-1.674-1.071-1.959-1.357-2.078-1.839-.786-5.464.293-8.251,1.565Z" transform="translate(23.291 32.547)" fill="#313131"/><path d="M23.154,124.749h83.37v2.036a3.872,3.872,0,0,1-3.872,3.872H27.017a3.873,3.873,0,0,1-3.871-3.872v-2.036Z" transform="translate(8.269 44.568)" fill="#fecd07"/><path d="M102.912,131.908H27.277a4.863,4.863,0,0,1-4.855-4.862V125.01a.988.988,0,0,1,.987-.989h83.375a.988.988,0,0,1,.992.984v2.041a4.871,4.871,0,0,1-4.863,4.862ZM24.378,126v1.049a2.878,2.878,0,0,0,2.872,2.88h75.635a2.891,2.891,0,0,0,2.88-2.88V126Z" transform="translate(8.011 44.308)" fill="#313131"/><path d="M37.336,86.083h44.87v30.754A21.715,21.715,0,0,1,60.49,138.553H59.052a21.715,21.715,0,0,1-21.716-21.716Z" transform="translate(13.339 30.754)" fill="#fecd07"/><path d="M60.741,170.305H59.313A22.736,22.736,0,0,1,36.6,147.592V116.837a1,1,0,0,1,.992-.992h44.87a1,1,0,0,1,.992.992v30.754a22.736,22.736,0,0,1-22.712,22.714ZM38.584,117.829v29.762a20.754,20.754,0,0,0,20.729,20.732h1.428a20.752,20.752,0,0,0,20.729-20.732V117.829ZM57.195,92.149a.993.993,0,0,1-.937-1.318c5.9-16.977,1.817-22.077-2.125-26.971-2.142-2.674-4.364-5.429-4.64-9.908-.388-6.265,2.587-9.839,5.466-13.288s5.87-7.037,5.926-13.685c0-3.7-1.412-6.348-3.07-9.365A31.038,31.038,0,0,1,53.126.956a.992.992,0,0,1,1.983,0A29.387,29.387,0,0,0,59.551,16.7c1.721,3.172,3.348,6.123,3.316,10.315-.056,7.363-3.419,11.385-6.347,14.939s-5.346,6.418-5.006,11.9c.239,3.842,2.078,6.135,4.208,8.794,4.085,5.1,8.726,10.876,2.451,28.889a1.01,1.01,0,0,1-.385.475,1,1,0,0,1-.592.145Z" transform="translate(13.076 0)" fill="#313131"/><path d="M52.91,100.432a.987.987,0,0,1-.962-1.015c.2-6.618,4.343-13.89,8.354-20.919,3.673-6.442,7.139-12.528,7.314-17.509.167-4.839-2.172-8.008-4.657-11.378-2.864-3.9-5.823-7.932-5.41-14.707a.987.987,0,0,1,.309-.726.975.975,0,0,1,.741-.271,1,1,0,0,1,.39.1.989.989,0,0,1,.5.607,1,1,0,0,1,.031.407c-.365,6.074,2.261,9.637,5.038,13.4,2.571,3.491,5.228,7.142,5.038,12.632s-3.776,11.755-7.576,18.418c-3.887,6.823-7.933,13.875-8.092,20a.971.971,0,0,1-.088.375.945.945,0,0,1-.225.315.968.968,0,0,1-.328.206,1.041,1.041,0,0,1-.38.064" transform="translate(18.559 12.112)" fill="#313131"/></g></g></svg>