<svg xmlns="http://www.w3.org/2000/svg" width="20" height="20" viewBox="0 0 20 20"><path d="M9.655,4.882a5.624,5.624,0,0,1,4.02,1.808v0a.854.854,0,0,1,.814-.93h.12a.93.93,0,0,1,.895.964l0,8.231a.514.514,0,0,0,.86.472c1.266-1.357,2.782-6.983-.788-10.24A8.281,8.281,0,0,0,5.4,4.358a8.212,8.212,0,0,0-2.572,9.612,7.652,7.652,0,0,0,9.522,4.12c1.475-.621,2.155,1.455.622,2.134A10.005,10.005,0,0,1,1.219,15.719,10.117,10.117,0,0,1,17.52,3.976c3.425,3.732,3.227,10.715-.117,13.43a2.32,2.32,0,0,1-3.747-1.765l-.017-.586a5.519,5.519,0,0,1-3.984,1.727,5.956,5.956,0,0,1,0-11.9Zm3.8,5.755A3.666,3.666,0,0,0,9.717,6.945H9.642c-2.285,0-3.554,1.876-3.554,4a3.559,3.559,0,0,0,3.545,3.891A3.793,3.793,0,0,0,13.46,11.1Z" transform="translate(-0.001 -0.731)" fill="#8b9da7"/></svg>