<svg xmlns="http://www.w3.org/2000/svg" width="36" height="36" viewBox="0 0 36 36"><rect width="36" height="36" fill="#fbfcfc"/><g transform="translate(4.75 4.75)"><path d="M10.1,5.994v4.353a.837.837,0,0,1-1.674,0V5.994a.837.837,0,0,1,1.674,0ZM25.25,9.9v6.7c0,6.065-2.586,8.651-8.651,8.651H9.9c-6.065,0-8.651-2.586-8.651-8.651V9.9C1.25,3.836,3.836,1.25,9.9,1.25h6.7C22.664,1.25,25.25,3.836,25.25,9.9Zm-1.674,0c0-5.151-1.826-6.977-6.977-6.977H9.9c-5.151,0-6.977,1.826-6.977,6.977v6.7c0,5.151,1.826,6.977,6.977,6.977h6.7c5.151,0,6.977-1.826,6.977-6.977ZM9.259,17.492a.837.837,0,0,0-.837.837v2.177a.837.837,0,1,0,1.674,0V18.329A.837.837,0,0,0,9.259,17.492Zm7.981-2.177a.837.837,0,0,0-.837.837v4.353a.837.837,0,1,0,1.674,0V16.152A.837.837,0,0,0,17.241,15.315Zm0-10.158a.837.837,0,0,0-.837.837V8.171a.837.837,0,1,0,1.674,0V5.994A.837.837,0,0,0,17.241,5.157Z" transform="translate(0 0)" fill="#101828"/><path d="M16.8,6.7a3.74,3.74,0,1,0,3.74,3.74A3.74,3.74,0,0,0,16.8,6.7Zm0,5.8a2.065,2.065,0,1,1,2.065-2.065A2.065,2.065,0,0,1,16.8,12.5ZM8.815,11.053a3.74,3.74,0,1,0,3.74,3.74,3.74,3.74,0,0,0-3.74-3.74Zm0,5.8a2.065,2.065,0,1,1,2.065-2.065A2.065,2.065,0,0,1,8.815,16.858Z" transform="translate(0.445 0.634)" fill="#079b7e"/></g></svg>