<svg xmlns="http://www.w3.org/2000/svg" width="52" height="52" viewBox="0 0 52 52"><g transform="translate(0 0)"><rect width="52" height="52" rx="14" transform="translate(0 0)" fill="#fff"/><path d="M14,2A12,12,0,0,0,2,14V38A12,12,0,0,0,14,50H38A12,12,0,0,0,50,38V14A12,12,0,0,0,38,2H14m0-2H38A14,14,0,0,1,52,14V38A14,14,0,0,1,38,52H14A14,14,0,0,1,0,38V14A14,14,0,0,1,14,0Z" transform="translate(0 0)" fill="#ebedee"/><path d="M17.727,0,7.091,21.273h3.545L21.273,0ZM3.545,3.545,0,10.636l3.545,7.091H7.091L3.545,10.636,7.091,3.545Zm17.727,0,3.545,7.091-3.545,7.091h3.545l3.545-7.091L24.818,3.545Z" transform="translate(11.818 15.364)" fill="#101828"/></g></svg>