<svg xmlns="http://www.w3.org/2000/svg" width="312" height="274" viewBox="0 0 312 274"><g transform="translate(0)"><path d="M1183.367,1190.7c-2.979-.9,3.529-8.763,3.529-8.763l2.142,4.015,2.252,3.339Z" transform="translate(-993.26 -1011.774)" fill="#313131"/><path d="M1181.043,1188.971a.556.556,0,0,1-.153,0,1.526,1.526,0,0,1-1.069-1.038c-.7-2.3,3.5-7.513,4.349-8.548a.507.507,0,0,1,.2-.151.515.515,0,0,1,.252-.036.521.521,0,0,1,.418.271l2.13,3.994,2.239,3.339a.515.515,0,0,1,.084.241.521.521,0,0,1-.04.253.515.515,0,0,1-.153.2.529.529,0,0,1-.234.107l-7.943,1.364Zm3.441-8.346c-1.788,2.27-4.044,5.721-3.662,6.973a.44.44,0,0,0,.1.182.445.445,0,0,0,.172.119l6.992-1.251-1.8-2.676-.029-.045Zm112.208,48.277a8.263,8.263,0,0,1,5.682,2.3c.531,1.59-4.67,2.973-6.34,3.235s-1.3-7.04-1.3-7.04Z" transform="translate(-990.936 -1009.517)" fill="#313131"/><path d="M1063,767.938a1.067,1.067,0,0,1-.72-.284c-1.256-1.135-1.067-6.289-1.013-7.311a.528.528,0,0,1,.088-.266.539.539,0,0,1,.214-.18.53.53,0,0,1,.541.062l1.808,1.39a8.805,8.805,0,0,1,5.886,2.47.518.518,0,0,1,.122.2,1.27,1.27,0,0,1-.152,1.1c-.983,1.616-5.532,2.641-6.606,2.809A1.034,1.034,0,0,1,1063,767.938Zm-.723-6.535c-.055,2.8.263,5.3.732,5.5,1.673-.262,5.264-1.319,5.857-2.324a.415.415,0,0,0,.058-.137,7.764,7.764,0,0,0-5.18-2.042.519.519,0,0,1-.339-.107ZM921.669,612.567c-.133,1.273-5.958,2.245-13.462,1.457s-13.6-3.339-13.463-4.591,6.323-1.669,13.81-.868S921.8,611.3,921.669,612.567Z" transform="translate(-757.989 -542.506)" fill="#313131"/><path d="M911.169,612.5a52.293,52.293,0,0,1-5.369-.288c-6.62-.7-14.149-3.109-13.931-5.175.071-.647.657-1.423,4.641-1.669a61.429,61.429,0,0,1,9.763.338c5.373.568,13.809,2.312,13.568,4.591C919.676,611.8,915.8,612.5,911.169,612.5Zm-18.25-5.346c.322.835,5.532,3.234,12.973,4.019,7.814.835,12.526-.3,12.886-.985-.269-.76-4.889-2.633-12.631-3.447C898.137,605.889,893.433,606.536,892.919,607.149Zm154.42,92.673c-.068-4.415-6.553-41.959-8.718-49.387a36.978,36.978,0,0,0-4.7-10.609,11.954,11.954,0,0,0-14.259-4.591,17.461,17.461,0,0,0-3.932,2.049,18.806,18.806,0,0,0-3.2,2.775.53.53,0,0,0,.594.835c4.633-1.482,11.881-2.633,13.284,3.255.053.246.142.622.2.868.1.555.243,1.39.3,1.957a50.4,50.4,0,0,1,.188,7.045c-.334,8.626-7.62,36.813-7.7,37.234Z" transform="translate(-755.636 -540.19)" fill="#313131"/><path d="M1584.355,828.9a.556.556,0,0,1-.155-.026l-27.956-8.555a.529.529,0,0,1-.359-.6c0-.042.093-.368.235-.931,4.6-18.384,7.269-31.25,7.461-36.221a50.128,50.128,0,0,0-.185-6.965c-.055-.543-.184-1.348-.292-1.924-.055-.221-.142-.6-.2-.835a4.712,4.712,0,0,0-2.3-3.205c-2.93-1.644-7.713-.5-10.312.334a1.06,1.06,0,0,1-1.412-1.051,1.033,1.033,0,0,1,.274-.639,18.986,18.986,0,0,1,3.29-2.85,17.747,17.747,0,0,1,4.054-2.112,12.439,12.439,0,0,1,14.866,4.783,37.91,37.91,0,0,1,4.771,10.751c2.168,7.437,8.679,45.223,8.741,49.53a.523.523,0,0,1-.055.233.509.509,0,0,1-.468.284Zm-27.327-9.433,26.761,8.189c-.568-6.71-6.59-41.438-8.654-48.52a36.149,36.149,0,0,0-4.632-10.458,11.4,11.4,0,0,0-13.638-4.395,16.671,16.671,0,0,0-3.826,2,18.107,18.107,0,0,0-3.109,2.692h.046c3.348-1.077,8.04-1.995,11.145-.251a5.763,5.763,0,0,1,2.8,3.881c.058.254.146.622.2.864.113.626.252,1.465.3,2.033a50.834,50.834,0,0,1,.194,7.094c-.2,5.046-2.859,17.983-7.5,36.434C1557.09,819.2,1557.057,819.363,1557.028,819.463Z" transform="translate(-1292.652 -668.734)" fill="#313131"/><path d="M1536.948,792.957a3.819,3.819,0,1,0-3.828-3.819A3.824,3.824,0,0,0,1536.948,792.957Z" transform="translate(-1279.771 -687.419)" fill="#fecd07"/><path d="M1534.559,791.1a4.362,4.362,0,1,1,.767-.067A4.364,4.364,0,0,1,1534.559,791.1Zm0-7.637a3.3,3.3,0,1,0,2.037.705A3.309,3.309,0,0,0,1534.559,783.463Z" transform="translate(-1277.391 -685.041)" fill="#313131"/><path d="M1432.046,960.5l-1.076,33,21.386-29.1.133-29.439-20-.743Z" transform="translate(-1196.278 -809.168)" fill="#fff"/><path d="M1428.65,991.838a.637.637,0,0,1-.168-.029.51.51,0,0,1-.26-.2.526.526,0,0,1-.093-.311l1.072-32.97.447-26.292a.549.549,0,0,1,.044-.2.539.539,0,0,1,.121-.169.5.5,0,0,1,.175-.109.526.526,0,0,1,.2-.033l19.99.709a.518.518,0,0,1,.5.522l-.13,29.452a.522.522,0,0,1-.1.3l-21.38,29.1a.525.525,0,0,1-.184.16A.547.547,0,0,1,1428.65,991.838Zm2.037-59.262-.418,25.762-1.021,31.3,20.284-27.606.133-28.768Z" transform="translate(-1193.956 -806.974)" fill="#313131"/><path d="M1487.7,957.394l-.393,9.957s-3.348-2.624-13.094-5.938Z" transform="translate(-1231.62 -828.141)" fill="#313131"/><path d="M1483.488,970.811a.518.518,0,0,1-.314-.106c-.037-.024-3.741-2.737-13.278-5.98a.52.52,0,0,1-.267-.2.511.511,0,0,1-.086-.324.518.518,0,0,1,.42-.477l13.768-2.725a.532.532,0,0,1,.444.117.512.512,0,0,1,.139.188.5.5,0,0,1,.04.23l-.342,8.765a.533.533,0,0,1-.088.266.524.524,0,0,1-.21.184A.545.545,0,0,1,1483.488,970.811Zm-11.444-6.44a58.923,58.923,0,0,1,10.959,4.97l.281-7.195Z" transform="translate(-1227.804 -831.078)" fill="#313131"/><path d="M1423.056,819.507c-2.013,8.672-.891,16.122,9.441,18.722,7.193,1.811,14.717-4.006,16.739-12.675s-2.214-17.052-9.441-18.722S1425.069,810.831,1423.056,819.507Z" transform="translate(-1189.133 -704.771)" fill="#fff"/><path d="M1432.86,836.654a11.667,11.667,0,0,1-2.741-.325c-9.114-2.237-12.328-8.568-9.826-19.348a18.322,18.322,0,0,1,6.6-10.513,12.435,12.435,0,0,1,19.291,4.457,18.928,18.928,0,0,1-6.579,23.751A12.923,12.923,0,0,1,1432.86,836.654Zm2.091-32a12.315,12.315,0,0,0-7.435,2.646,17.245,17.245,0,0,0-6.219,9.92c-2.382,10.246.5,16,9.055,18.1a11.393,11.393,0,0,0,8.709-1.515,17.888,17.888,0,0,0,6.193-22.394,11.787,11.787,0,0,0-7.837-6.46,10.806,10.806,0,0,0-2.449-.292Z" transform="translate(-1186.88 -702.37)" fill="#313131"/><path d="M1434.59,802.523s1.675-5.764,5.207-8.66a12.879,12.879,0,0,1,14.559-1.557c5.9,3.122,10.935,9.715,7.532,20.253-1.821,5.542-6.809,9.465-6.809,9.465l2.172-4.14s-2.091-.672-1.916-1.724c0,0,5.666-4.532,3.185-7.249-2.278-2.5-4.21,1.4-4.21,1.4a77.425,77.425,0,0,1-6.835-5.384,60.359,60.359,0,0,1-6.381-6.965Z" transform="translate(-1199.237 -691.848)" fill="#313131"/><path d="M1452.782,819.906a.5.5,0,0,1-.33-.121.513.513,0,0,1-.13-.643l1.9-3.622c-.745-.334-1.893-1.035-1.7-2.087a.519.519,0,0,1,.184-.313c.038-.029,3.436-2.775,3.613-5.066a1.8,1.8,0,0,0-.482-1.427,1.545,1.545,0,0,0-1.335-.651c-.928.125-1.773,1.436-2.02,1.928a.512.512,0,0,1-.34.276.524.524,0,0,1-.217.005.513.513,0,0,1-.2-.084,77.238,77.238,0,0,1-6.889-5.425,60.205,60.205,0,0,1-6.135-6.644l-6.1,4.261a.522.522,0,0,1-.791-.609c.091-.251,2.327-6.127,5.344-8.86a13,13,0,0,1,15.158-1.636c7.766,4.115,10.676,11.919,7.771,20.867-1.821,5.63-6.76,9.57-6.968,9.732A.53.53,0,0,1,1452.782,819.906Zm.8-6.147a2.929,2.929,0,0,0,1.545.989.538.538,0,0,1,.2.115.552.552,0,0,1,.132.185.53.53,0,0,1,0,.438l-.69,1.315a20.162,20.162,0,0,0,4.356-7.057c3.938-12.161-3.766-17.783-7.273-19.636a11.963,11.963,0,0,0-13.961,1.486c-1.887,1.711-3.5,4.87-4.373,6.807l5.021-3.506a.52.52,0,0,1,.716.109,60.136,60.136,0,0,0,6.32,6.894,75.508,75.508,0,0,0,6.314,5.008,3.988,3.988,0,0,1,2.511-1.974,2.538,2.538,0,0,1,2.252.985,2.826,2.826,0,0,1,.617,1.024,2.787,2.787,0,0,1,.139,1.188C1457.177,810.533,1454.37,813.078,1453.586,813.759Z" transform="translate(-1196.94 -689.191)" fill="#313131"/><path d="M1435.153,864.808a.589.589,0,0,1-.17-.029c-2.035-.705-2.161-1.081-2.223-1.252s-.175-.513,2.093-5.425a.517.517,0,0,1,.289-.229.524.524,0,0,1,.661.646c-.839,1.84-1.763,3.914-1.989,4.612a11.169,11.169,0,0,0,1.5.634.517.517,0,0,1,.278.227.53.53,0,0,1,.066.352.525.525,0,0,1-.515.435Zm6.767-2.663a.529.529,0,0,1-.515-.417,4.231,4.231,0,0,0-3.422-3.272.522.522,0,1,1,.168-1.031,5.374,5.374,0,0,1,4.285,4.107.51.51,0,0,1,0,.2.521.521,0,0,1-.226.33.536.536,0,0,1-.19.076Zm-7.14-5.4a.512.512,0,0,1-.347-.133,2.737,2.737,0,0,0-3.154-.33.527.527,0,0,1-.4.063.522.522,0,0,1-.153-.952,3.77,3.77,0,0,1,4.4.442.529.529,0,0,1,.159.266.511.511,0,0,1-.02.309.524.524,0,0,1-.491.334Zm18.376,8.923a.513.513,0,0,1-.175-.029l-.778-.275a.528.528,0,0,1-.212-.138.512.512,0,0,1-.119-.221.494.494,0,0,1-.006-.252.524.524,0,0,1,.117-.224l1.256-1.456a.523.523,0,0,1,.787.685l-.767.88h.051a.52.52,0,0,1,.164.89.52.52,0,0,1-.336.124Zm-15.391-3.31a.563.563,0,1,0-.564-.564A.563.563,0,0,0,1437.764,862.363Zm-5.649-2.638a.563.563,0,1,0-.566-.563A.564.564,0,0,0,1432.115,859.725Z" transform="translate(-1195.878 -744.296)" fill="#313131"/><path d="M1537.734,916.6l.824,1.255a1.25,1.25,0,0,0,1.728.359l1.259-.822a1.243,1.243,0,0,0,.36-1.723l-.824-1.255a1.251,1.251,0,0,0-1.728-.359l-1.258.822A1.241,1.241,0,0,0,1537.734,916.6Z" transform="translate(-1283.375 -792.534)" fill="#fecd07"/><path d="M1471.59,920.368a1.953,1.953,0,0,1-1.114-.336,1.921,1.921,0,0,1-.528-.54l-.632-.964a1.93,1.93,0,0,1,.02-2.147,1.935,1.935,0,0,1,.541-.528l.968-.63a1.94,1.94,0,0,1,1.457-.274,1.961,1.961,0,0,1,.7.3,1.925,1.925,0,0,1,.528.538l.632.96a1.926,1.926,0,0,1,.276,1.453,1.929,1.929,0,0,1-.837,1.222l-.963.63A1.94,1.94,0,0,1,1471.59,920.368Zm-1.383-2.408.632.964a.885.885,0,0,0,.911.387.887.887,0,0,0,.323-.132l.963-.63a.907.907,0,0,0,.25-.243.907.907,0,0,0,.141-.667.9.9,0,0,0-.131-.322l-.632-.96a.882.882,0,0,0-.245-.256.893.893,0,0,0-1.01,0l-.966.63a.909.909,0,0,0-.25.243.886.886,0,0,0-.137.667.865.865,0,0,0,.132.321ZM1455.8,916.5a3.053,3.053,0,0,1-1.326-.3.523.523,0,0,1-.234-.7.532.532,0,0,1,.3-.261.525.525,0,0,1,.4.03,1.878,1.878,0,0,0,2.592-1.039.5.5,0,0,1,.122-.172.525.525,0,0,1,.391-.138.531.531,0,0,1,.2.057.541.541,0,0,1,.164.132.519.519,0,0,1,.1.187.507.507,0,0,1,.016.211.522.522,0,0,1-.069.2A2.944,2.944,0,0,1,1455.8,916.5Z" transform="translate(-1215.253 -792.583)" fill="#313131"/><path d="M514.559,946.32l-4.926,19.819L488.32,952.226l-.929-35.661,26.243-.6Z" transform="translate(-425.038 -794.255)" fill="#fff"/><path d="M507.293,964.338a.576.576,0,0,1-.289-.084L485.7,950.335a.5.5,0,0,1-.172-.178.509.509,0,0,1-.067-.239l-.929-35.661a.513.513,0,0,1,.142-.372.537.537,0,0,1,.368-.163l26.243-.6a.523.523,0,0,1,.532.509l.929,30.348a.522.522,0,0,1,0,.142l-4.926,19.819a.541.541,0,0,1-.116.219.534.534,0,0,1-.2.14A.492.492,0,0,1,507.293,964.338Zm-20.8-14.724,20.468,13.355,4.729-19.034-.908-29.744-25.2.559Z" transform="translate(-422.697 -791.931)" fill="#313131"/><path d="M566.689,955.735s-3.724-2.817-12.973-2.416c-5.105.221,2.281-5.38,2.281-5.38l10.508-.238Z" transform="translate(-477.779 -820.214)" fill="#313131"/><path d="M559.922,953.858a.557.557,0,0,1-.268-.071c-.046-.029-4.892-2.8-13.852-2.412-.448.021-1.829.079-2.122-.835-.469-1.469,3.1-4.04,5.265-5.425a.524.524,0,0,1,.272-.088l10.508-.238a.527.527,0,0,1,.536.509l.184,8.034a.52.52,0,0,1-.149.377.522.522,0,0,1-.374.157Zm-12.379-3.547a28.977,28.977,0,0,1,11.835,2.187l-.151-6.644-9.839.225c-2.569,1.669-4.754,3.61-4.708,4.173a2.2,2.2,0,0,0,.816.109h.264Q546.677,950.311,547.543,950.311Z" transform="translate(-471.012 -817.833)" fill="#313131"/><path d="M494.475,782.033l3.406,10.517a12.522,12.522,0,0,1-8.089,15.767l-5.478,1.765a12.553,12.553,0,0,1-15.814-8.067l-3.407-10.509a13.318,13.318,0,0,1,8.6-16.773l3.959-1.273a13.366,13.366,0,0,1,16.819,8.572Z" transform="translate(-406.285 -677.189)" fill="#fff"/><path d="M481.079,810.2a14.811,14.811,0,0,1-3.524-.417.522.522,0,1,1,.251-1.014,13.846,13.846,0,0,0,7.533-.276l3.8-1.227a11.979,11.979,0,0,0,7.734-15.062l-2.929-9.048A14.424,14.424,0,0,0,475.8,773.9l-.95.3a14.386,14.386,0,0,0-9.286,18.1l2.369,7.316a13.778,13.778,0,0,0,5.984,7.55.523.523,0,0,1-.544.893,14.871,14.871,0,0,1-6.436-8.121l-2.373-7.316a15.433,15.433,0,0,1,9.952-19.431l.954-.3a15.452,15.452,0,0,1,19.464,9.933l2.929,9.048a13.026,13.026,0,0,1-8.407,16.385l-3.8,1.227A14.96,14.96,0,0,1,481.079,810.2Z" transform="translate(-405.766 -676.637)" fill="#313131"/><path d="M480.25,762.356s-1.486-3.756-3.712-4.849-17.857,4.344-18.991,5.459c-.979.968-1.595,2.583-1.791,5.684-.217,3.409-4.235,5.183-4.235,5.183l-.653-2.007-4.381-13.392a.734.734,0,0,1,.473-.93l26.615-10.542a.729.729,0,0,1,.9.417Z" transform="translate(-391.574 -656.017)" fill="#313131"/><path d="M449.185,772.108a.511.511,0,0,1-.5-.359l-.665-1.995-4.381-13.392a1.249,1.249,0,0,1,.812-1.586l26.582-10.529a1.256,1.256,0,0,1,1.586.738l5.771,14.953a.523.523,0,0,1-.975.38c0-.034-1.44-3.568-3.457-4.591-1.9-.947-17.354,4.336-18.392,5.363-.958.947-1.465,2.6-1.64,5.346-.23,3.681-4.369,5.551-4.545,5.63A.52.52,0,0,1,449.185,772.108Zm22.276-26.9a.168.168,0,0,0-.063,0l-26.582,10.525a.26.26,0,0,0-.159.117.222.222,0,0,0,0,.163l4.821,14.828c1.033-.589,3.256-2.124,3.406-4.47.192-3.026.791-4.883,1.946-6.022,1.084-1.064,17.082-6.8,19.593-5.551a5.1,5.1,0,0,1,1.2.835l-3.976-10.308a.214.214,0,0,0-.2-.117Z" transform="translate(-389.226 -653.771)" fill="#313131"/><path d="M552.625,832.887a.519.519,0,0,1-.5-.359.525.525,0,0,1,.335-.659l3.745-1.206a50.352,50.352,0,0,0-2.218-4.749.522.522,0,0,1,.064-.576.525.525,0,0,1,.559-.161.523.523,0,0,1,.306.257c2.565,4.949,2.44,5.513,2.4,5.7a.523.523,0,0,1-.125.238.529.529,0,0,1-.227.146l-4.185,1.348A.552.552,0,0,1,552.625,832.887Zm-5.993-4.036h-.084a.521.521,0,0,1-.418-.6,5.409,5.409,0,0,1,4.444-4.24.522.522,0,1,1,.18,1.027c-.138.025-3.16.588-3.591,3.372a.522.522,0,0,1-.531.438Zm12.517-3.927a.516.516,0,0,1-.385-.171c-1.448-1.569-4.021-.939-4.047-.931a.523.523,0,1,1-.259-1.014c.134-.034,3.214-.785,5.076,1.252a.522.522,0,0,1-.385.872Zm-8.675,4.607a.672.672,0,1,0-.674-.672A.673.673,0,0,0,550.474,829.532Zm6.863-1.9a.672.672,0,1,0-.674-.672A.673.673,0,0,0,557.338,827.629Z" transform="translate(-473.043 -717.944)" fill="#313131"/><path d="M469.107,885.828c1.819-1.072,1.962-4.185.322-6.953s-4.445-4.143-6.263-3.071-1.963,4.185-.322,6.953S467.289,886.9,469.107,885.828Z" transform="translate(-404.04 -761.119)" fill="#fff"/><path d="M465.381,884.371c-1.875,0-4-1.444-5.327-3.689-1.787-3.009-1.557-6.448.507-7.662,1.5-.889,3.62-.392,5.394,1.252a.522.522,0,1,1-.716.76c-1.427-1.331-3.055-1.778-4.147-1.131-1.54.906-1.6,3.756-.138,6.235,1.226,2.087,3.243,3.4,4.808,3.147a.527.527,0,0,1,.6.417.522.522,0,0,1-.418.6A3.351,3.351,0,0,1,465.381,884.371Z" transform="translate(-401.709 -758.783)" fill="#313131"/><path d="M472.939,888.082a.527.527,0,0,1-.481-.313.516.516,0,0,1-.008-.4.518.518,0,0,1,.279-.286l.352-.154-1.62-1.289a.522.522,0,1,1,.653-.814l2.3,1.824a.517.517,0,0,1-.113.885l-1.151.505A.529.529,0,0,1,472.939,888.082Zm16.338,0a2.99,2.99,0,0,1-.812-.113,2.356,2.356,0,0,1-1.578-1.231,4.632,4.632,0,0,1,.063-3.28.524.524,0,0,1,.794-.23.517.517,0,0,1,.185.251,2.088,2.088,0,0,0,1.255,1.169,3.67,3.67,0,0,0,3.034-.28.52.52,0,0,1,.6.075.53.53,0,0,1,.13.588C492.906,885.173,491.638,888.086,489.278,888.086Zm-1.611-3.176a2.465,2.465,0,0,0,.159,1.369,1.346,1.346,0,0,0,.912.688,2.442,2.442,0,0,0,2.54-1.152,4.452,4.452,0,0,1-2.457-.192A3.545,3.545,0,0,1,487.666,884.91Z" transform="translate(-411.842 -767.41)" fill="#313131"/><path d="M914.619,424.469s.389-7.892,1.428-11.385,2.309-4.444,1.92-13.355-.9-19.314-2.623-19.556c-1.419-.2-1.257,1.769-1.257,1.769s-.986-7.216-3.376-7.095a2,2,0,0,0-1.837,1.824s-1.469-4.2-3.716-3.589c-1.452.392-1.193,3.668-1.193,3.668s-1.4-3.385-3.766-2.2c-2.164,1.094,1.3,19.018,1.3,19.018s-7.139-7.6-9.985-4.173c-1.573,1.9,4.863,6.323,4.679,10.721a46.477,46.477,0,0,0,1.155,12.858c.728,3.439-1.013,9.64-1.013,9.64Z" transform="translate(-755.145 -350.25)" fill="#fff"/><path d="M912.318,422.535h-.055l-18.276-1.878a.523.523,0,0,1-.381-.225.511.511,0,0,1-.071-.417c0-.063,1.695-6.118,1-9.39a47.133,47.133,0,0,1-1.168-12.992c.088-2.087-1.5-4.253-2.9-6.164s-2.674-3.635-1.653-4.866a2.886,2.886,0,0,1,2.227-1.072c2.469-.075,5.654,2.5,7.348,4.052-.305-1.728-.791-4.591-1.167-7.512-1.092-8.476-.385-10.016.452-10.433a2.55,2.55,0,0,1,2.092-.129,3.619,3.619,0,0,1,1.406,1.048,2.708,2.708,0,0,1,1.515-2.416c1.892-.614,3.26,1.5,3.925,2.859a2.337,2.337,0,0,1,1.766-1.118h.08c1.938,0,2.992,3.305,3.494,5.6a1.47,1.47,0,0,1,1.156-.267c1.89.271,2.473,6.4,3.07,20.032.314,7.224-.438,9.29-1.31,11.685-.208.58-.418,1.177-.632,1.865-1.008,3.393-1.4,11.185-1.406,11.268a.519.519,0,0,1-.522.5Zm-17.606-2.855,17.111,1.757c.113-1.87.524-7.929,1.419-10.959.217-.722.44-1.331.652-1.924.838-2.287,1.552-4.257,1.257-11.268-.2-4.44-.418-9.085-.784-12.72-.577-5.7-1.255-6.285-1.406-6.344a.394.394,0,0,0-.376.083,1.7,1.7,0,0,0-.263,1.131.524.524,0,0,1-1.043.113c-.373-2.721-1.547-6.715-2.833-6.652-.87.042-1.36,1.448-1.364,1.465a.523.523,0,0,1-.992,0c0-.038-1.381-3.806-3.059-3.264-.837.267-.921,2.22-.837,3.126a.523.523,0,0,1-1,.246,4.133,4.133,0,0,0-1.787-2.02,1.507,1.507,0,0,0-1.255.092c-.954.58-.23,9.031,1.586,18.45a.523.523,0,0,1-.9.455c-.046-.05-4.721-5.008-7.746-4.891a1.869,1.869,0,0,0-1.456.7c-.5.6.565,2.049,1.695,3.581,1.427,1.949,3.206,4.369,3.105,6.827a45.624,45.624,0,0,0,1.142,12.729C896.193,413.316,895.134,418.02,894.711,419.68Z" transform="translate(-752.842 -347.802)" fill="#313131"/><path d="M952.906,415.945a.519.519,0,0,1-.511-.417c-.548-2.825-3.3-4.678-5.516-6.168a16.322,16.322,0,0,1-2.276-1.711.527.527,0,0,1-.126-.169.522.522,0,0,1,.279-.705.524.524,0,0,1,.584.135,15.67,15.67,0,0,0,2.126,1.582c2.247,1.515,5.327,3.589,5.955,6.84a.518.518,0,0,1-.419.609A.414.414,0,0,1,952.906,415.945Zm-1.18-7.745a.518.518,0,0,1-.51-.417c-.084-.38-.168-.8-.264-1.252-.653-3.142-1.741-8.4-4.026-15.93a.523.523,0,0,1,1-.3c2.3,7.575,3.4,12.862,4.051,16.026.1.451.18.868.259,1.252a.512.512,0,0,1,0,.206.522.522,0,0,1-.419.411Zm3.473-.409a.523.523,0,0,1-.519-.455c0-.117-1.443-11.527-2.849-16.831a.524.524,0,0,1-.027-.211.515.515,0,0,1,.06-.2.523.523,0,0,1,.975.148c1.427,5.371,2.867,16.852,2.878,16.969a.5.5,0,0,1-.013.2.528.528,0,0,1-.091.181.534.534,0,0,1-.154.133.523.523,0,0,1-.194.063Zm3.335.409a.523.523,0,0,1-.522-.522,114.511,114.511,0,0,0-.979-11.94.522.522,0,0,1,.431-.571.526.526,0,0,1,.378.08.515.515,0,0,1,.219.316,115.74,115.74,0,0,1,1,12.1.519.519,0,0,1-.15.377.493.493,0,0,1-.172.116A.52.52,0,0,1,958.534,408.2Z" transform="translate(-798.599 -363.983)" fill="#313131"/><path d="M1101.935,431.376a40.087,40.087,0,0,0,2.092-10.955c.21-3.8,6.763-8.71,5.8-10.058-1.824-2.571-9.625,3.756-9.625,3.756s4.093-17.29,2.34-18.125c-1.141-.547-3.238,3.677-3.238,3.677s1.364-6.06.214-6.44c-1.536-.505-4.429,5.955-4.429,5.955s.917-4.491,0-4.658c-1.673-.3-4.924,8.764-4.924,8.764s.635-4.173-.6-4.1c-1.5.067-3.143,11.431-4.226,19.072s-.071,8.564.526,11.656-6.5,46.249-2.418,60.23c5.295,18.2,27.278,57.664,27.278,57.664l19.22-30.32s-18.6-25.149-23.318-41.484C1103.122,463.857,1101.022,434.3,1101.935,431.376Z" transform="translate(-911.191 -366.756)" fill="#fff"/><path d="M1108.438,546.042a.532.532,0,0,1-.255-.078.525.525,0,0,1-.186-.193c-.219-.393-22.067-39.709-27.324-57.734-2.929-10.016-.192-34.614,1.439-49.308.628-5.672,1.127-10.15.968-10.968-.119-.613-.256-1.143-.385-1.669-.548-2.133-1.026-3.977-.146-10.175,2.091-14.891,3.217-19.448,4.72-19.515a.981.981,0,0,1,.438.076.991.991,0,0,1,.362.262,2.288,2.288,0,0,1,.451,1.194c1.3-3.151,3.017-6.435,4.391-6.185a.846.846,0,0,1,.312.129.865.865,0,0,1,.236.242,3.356,3.356,0,0,1,.28,1.795c1.1-1.937,2.511-3.831,3.671-3.443.908.3.946,2.087.669,4.173.767-1.018,1.636-1.744,2.42-1.373.51.246,1.456.7-.226,9.941-.519,2.863-1.134,5.705-1.507,7.349,1.909-1.411,5.6-3.869,7.81-3.572a1.963,1.963,0,0,1,1.4.81c.669.943-.418,2.262-2.093,4.265-1.569,1.882-3.514,4.228-3.624,6.118a40.766,40.766,0,0,1-2.093,11.089c-.837,2.663,1.11,31.889,4.7,44.309,4.616,16.034,23.03,41.074,23.222,41.309a.509.509,0,0,1,.093.293.519.519,0,0,1-.093.295l-19.22,30.32a.547.547,0,0,1-.179.175A.532.532,0,0,1,1108.438,546.042Zm-21.145-148.555c-1.256,1.164-3,13.355-3.742,18.588-.836,5.993-.418,7.746.122,9.77.133.53.276,1.077.418,1.715.181.931-.2,4.507-.959,11.268-1.624,14.607-4.339,39.083-1.472,48.9,4.816,16.518,23.72,51.145,26.808,56.757l18.58-29.267c-2.093-2.854-18.77-26.063-23.188-41.358-3.428-11.861-5.675-41.792-4.692-44.909a39.3,39.3,0,0,0,2.051-10.83c.126-2.237,2.194-4.729,3.86-6.732.862-1.039,2.166-2.608,2.042-3a.938.938,0,0,0-.683-.371c-2.091-.28-6.6,2.971-8.173,4.249a.521.521,0,0,1-.3.114.522.522,0,0,1-.539-.64c1.817-7.667,3.311-16.481,2.6-17.528-.393.029-1.565,1.5-2.51,3.435a.524.524,0,0,1-.981-.346c.6-2.675.839-5.363.524-5.843-.564-.046-2.265,2.362-3.766,5.68a.524.524,0,0,1-.637.288.522.522,0,0,1-.354-.6,12.539,12.539,0,0,0,.33-4.019c-.778.338-2.721,4.144-4.248,8.4a.522.522,0,0,1-.627.349.519.519,0,0,1-.312-.225.511.511,0,0,1-.073-.378A7.441,7.441,0,0,0,1087.293,397.487Z" transform="translate(-908.902 -364.479)" fill="#313131"/><path d="M1119.765,445.747a.462.462,0,0,1-.146-.021.526.526,0,0,1-.312-.25.519.519,0,0,1-.042-.4c.837-2.784,3.766-4.424,5.934-5.617a14.387,14.387,0,0,0,1.945-1.2.526.526,0,0,1,.384-.117.535.535,0,0,1,.2.059.527.527,0,0,1,.254.308.513.513,0,0,1,.02.2.491.491,0,0,1-.058.195.535.535,0,0,1-.13.158,14.791,14.791,0,0,1-2.092,1.3c-2.093,1.173-4.734,2.629-5.441,5.008a.522.522,0,0,1-.511.367Zm3.35-7.2h-.077a.525.525,0,0,1-.442-.589,89.708,89.708,0,0,1,3.459-13.893.524.524,0,1,1,1,.313,88.165,88.165,0,0,0-3.423,13.726.529.529,0,0,1-.519.442Zm-3.828-.351h-.089a.529.529,0,0,1-.331-.216.523.523,0,0,1-.088-.385,133.344,133.344,0,0,1,3.081-14.006.5.5,0,0,1,.091-.19.51.51,0,0,1,.161-.138.519.519,0,0,1,.2-.064.52.52,0,0,1,.524.292.537.537,0,0,1,.053.205.545.545,0,0,1-.035.209,134.652,134.652,0,0,0-3.043,13.868.513.513,0,0,1-.184.31A.523.523,0,0,1,1119.286,438.2Zm-3.24,0H1116a.533.533,0,0,1-.2-.058.55.55,0,0,1-.159-.128.514.514,0,0,1-.1-.179.508.508,0,0,1-.02-.2c.188-1.9.837-7.095,1.381-9.883a.518.518,0,0,1,.219-.334.526.526,0,0,1,.729.139.511.511,0,0,1,.08.392c-.535,2.742-1.183,7.9-1.368,9.787a.517.517,0,0,1-.522.467Z" transform="translate(-938.447 -391.284)" fill="#313131"/><path d="M210.648,706.162s-32.713,9.486-40.149,15.785c-6.482,5.488-24.121,55.046-22.753,72.99s30.336,15.613,30.336,15.613L175.8,821.61h89.827s-1.728-71.06,2.929-89.023,21.866-35.472,30.549-52.246,11.944-62.091,11.944-62.091-5.558,2.7-14.166,1.761c-9.06-.985-12.839-4.908-12.839-4.908s-5.139,39.071-11.412,48.607-23.929,30.466-35.751,36.546l-4.926,19.819Z" transform="translate(-147.365 -548.153)" fill="#fff"/><path d="M174.439,819.838a.362.362,0,0,1-.109,0,.515.515,0,0,1-.339-.219.5.5,0,0,1-.08-.189.512.512,0,0,1,0-.2l2.147-10.435a56.9,56.9,0,0,1-14.04-1.869c-9.855-2.734-15.371-8.184-15.944-15.763-1.348-17.682,15.94-66.182,22.707-71.9,7.437-6.3,39-15.5,40.342-15.888a.519.519,0,0,1,.419.064l20.7,13.513,4.746-19.107a.539.539,0,0,1,.1-.2.51.51,0,0,1,.173-.138c11.55-5.94,29.294-26.835,35.55-36.371,6.139-9.34,11.274-47.994,11.324-48.386a.535.535,0,0,1,.356-.417.52.52,0,0,1,.54.134c.038.038,3.766,3.8,12.521,4.749,8.337.91,13.81-1.669,13.882-1.711a.515.515,0,0,1,.263-.052.526.526,0,0,1,.256.089.525.525,0,0,1,.23.467c-.035.455-3.348,45.6-12,62.292-3.348,6.473-7.847,12.891-12.613,19.685-7.4,10.559-15.065,21.477-17.9,32.452-4.574,17.692-2.929,88.17-2.9,88.892a.522.522,0,0,1-.146.372.532.532,0,0,1-.365.164.546.546,0,0,1-.2-.033.517.517,0,0,1-.291-.277.517.517,0,0,1-.042-.2c0-.709-1.674-71.335,2.93-89.163,2.888-11.16,10.6-22.156,18.053-32.791,4.745-6.765,9.207-13.158,12.554-19.568,7.888-15.237,11.32-54.734,11.822-61.035a29.777,29.777,0,0,1-13.634,1.469c-6.964-.76-10.86-3.205-12.4-4.4-.837,6.2-5.566,39.046-11.358,47.86-6.457,9.833-23.854,30.378-35.734,36.617l-4.871,19.59a.517.517,0,0,1-.115.219.538.538,0,0,1-.2.142.532.532,0,0,1-.245.033.511.511,0,0,1-.233-.08L209.182,704.47c-2.929.863-32.784,9.737-39.731,15.613-3.026,2.561-8.935,15.528-14.044,30.828-5.792,17.333-8.893,32.36-8.294,40.2,1.314,17.244,29.294,16.664,29.57,16.655a.529.529,0,0,1,.231.046.535.535,0,0,1,.187.142.509.509,0,0,1,.113.439l-2.277,11.06a.529.529,0,0,1-.184.275A.515.515,0,0,1,174.439,819.838Z" transform="translate(-146 -545.86)" fill="#313131"/><path d="M724.346,1464.427l-37.387-.781L703.9,1406.78l36,6.739Z" transform="translate(-588.156 -1195.631)" fill="#079b7e"/><path d="M722.041,1462.617l-37.383-.781a.5.5,0,0,1-.234-.058.542.542,0,0,1-.185-.153.532.532,0,0,1-.093-.219.521.521,0,0,1,.013-.237L701.1,1404.3a.52.52,0,0,1,.229-.3.526.526,0,0,1,.369-.067l35.99,6.736a.528.528,0,0,1,.206.082.5.5,0,0,1,.154.159.511.511,0,0,1,.075.208.527.527,0,0,1-.017.22l-15.551,50.915a.531.531,0,0,1-.2.264A.536.536,0,0,1,722.041,1462.617Zm-36.688-1.787,36.3.756,15.262-50-34.96-6.544Z" transform="translate(-585.851 -1193.301)" fill="#313131"/><path d="M853.58,1408.722l-16.656-3.118.8-2.654,16.622,3.251Z" transform="translate(-710.731 -1192.517)" fill="#079b7e"/><path d="M851.163,1406.912a.439.439,0,0,1-.1,0l-16.672-3.126a.511.511,0,0,1-.2-.084.485.485,0,0,1-.149-.158.533.533,0,0,1-.055-.417l.8-2.654a.521.521,0,0,1,.231-.3.53.53,0,0,1,.372-.066l16.622,3.251a.563.563,0,0,1,.2.088.532.532,0,0,1,.148.158.54.54,0,0,1,.069.2.521.521,0,0,1-.019.215l-.766,2.5a.518.518,0,0,1-.481.384Zm-15.986-4.044,15.622,2.922.46-1.525-15.589-3.049Z" transform="translate(-708.315 -1190.185)" fill="#313131"/><path d="M867.042,1393.577h-.1l-10.424-2.036a.531.531,0,0,1-.347-.242.514.514,0,0,1-.072-.2.508.508,0,0,1,.017-.213l.875-2.922a.528.528,0,0,1,.607-.364l10.4,2.137a.519.519,0,0,1,.419.661l-.875,2.816a.525.525,0,0,1-.5.368Zm-9.759-2.963,9.395,1.836.553-1.819-9.374-1.924Z" transform="translate(-726.399 -1179.951)" fill="#313131"/><path d="M623.022,1522.066s14.459-.627,21.447-5.426c0,0-4.047,8.931-.749,9.5s26.164-3.69,26.829.184c.6,3.521-17.731,5.941-17.731,5.941s20.175-3.013,20.175.723c0,3.856-19.719,4.493-19.719,4.493s17.275-1.29,17.275,1.971-18.07,3.126-18.07,3.126S666,1542.206,666,1545.5c0,4.228-44.451,1.5-44.451,1.5Z" transform="translate(-534.689 -1285.48)" fill="#fff"/><path d="M645.305,1546.136c-11.24,0-23.8-.734-26.143-.88a.577.577,0,0,1-.2-.051.544.544,0,0,1-.163-.124.513.513,0,0,1-.13-.377l1.477-24.952a.522.522,0,0,1,.5-.488c.142,0,14.387-.672,21.171-5.326a.525.525,0,0,1,.631.03.52.52,0,0,1,.143.614c-.8,1.752-2.653,6.677-1.77,8.317a.84.84,0,0,0,.636.455,51.952,51.952,0,0,0,7.813-.534c11.069-1.144,18.945-1.732,19.439,1.144a1.664,1.664,0,0,1-.352,1.3c-.912,1.231-3.641,2.275-6.7,3.1,3.909-.155,7.629.036,8.922,1.151a1.561,1.561,0,0,1,.586,1.2c0,1.131-.9,2.721-8.2,3.9,2.364.216,4.373.646,5.222,1.435a1.508,1.508,0,0,1,.531,1.128,1.572,1.572,0,0,1-.519,1.135c-1.18,1.164-4.624,1.794-8.2,2.133a7.612,7.612,0,0,1,3.57,1.461,1.815,1.815,0,0,1,.6,1.323,1.222,1.222,0,0,1-.418.914C662.1,1545.681,654.106,1546.136,645.305,1546.136Zm-25.557-1.89c16.2.972,40.723,1.532,43.275-.86.029-.029.1-.1.1-.155a.758.758,0,0,0-.079-.317.767.767,0,0,0-.206-.255c-1.427-1.384-6.821-1.772-10.42-1.83h-2.293a.536.536,0,0,1-.364-.155.527.527,0,0,1-.154-.364.52.52,0,0,1,.147-.366.526.526,0,0,1,.363-.159c.289,0,1.172-.029,2.356,0,5.022-.084,13.324-.559,14.994-2.207a.527.527,0,0,0,.209-.393.476.476,0,0,0-.2-.363c-1.486-1.373-8.29-1.444-13.09-1.251-2.029.137-3.423.182-3.448.188a.523.523,0,1,1-.055-1.044c.456-.033,2-.142,4.009-.21,7.29-.546,15.241-1.849,15.241-3.81a.5.5,0,0,0-.061-.235.524.524,0,0,0-.165-.182c-2-1.723-12.684-.7-18.028,0l-1.327.184a.522.522,0,0,1-.146-1.031c.226-.033.678-.1,1.3-.184,4.838-.725,14.258-2.5,15.823-4.645a.611.611,0,0,0,.163-.508c-.067-.388-.8-1.279-6.139-1.208-3.657.047-8.173.514-12.136.927a47.417,47.417,0,0,1-8.1.523,1.9,1.9,0,0,1-.81-.332,1.882,1.882,0,0,1-.571-.663c-.946-1.778.28-5.579,1.113-7.728-6.679,3.7-17.468,4.519-19.878,4.648Z" transform="translate(-532.341 -1283.196)" fill="#313131"/><path d="M467.111,1058.8l-5.474,7.721s13.877,20.032,15.484,28.726l11.45-16.519,16.388,5.046-8.742-26.451-2.862-3.692.163,5.266-4.926,19.819Z" transform="translate(-403.988 -906.836)" fill="#fff"/><path d="M474.745,1093.467a.353.353,0,0,1-.109,0,.513.513,0,0,1-.419-.417c-1.578-8.5-15.27-28.329-15.408-28.526a.524.524,0,0,1,0-.6l5.474-7.716a.5.5,0,0,1,.377-.217.523.523,0,0,1,.224.022.536.536,0,0,1,.194.115l20.819,19.324,4.691-18.888-.155-5.2a.515.515,0,0,1,.088-.312.521.521,0,0,1,.58-.208.518.518,0,0,1,.266.184l2.862,3.694a.479.479,0,0,1,.079.155l8.746,26.451a.514.514,0,0,1,.015.282.521.521,0,0,1-.384.388.536.536,0,0,1-.284-.011l-16-4.945-11.224,16.205a.556.556,0,0,1-.188.164A.538.538,0,0,1,474.745,1093.467Zm-14.86-29.243c1.724,2.5,12.772,18.813,15.1,27.452L485.5,1076.5l-20.7-19.2Zm26.929,11.848,14.919,4.615-8.37-25.407-1.82-2.344.113,3.656a.526.526,0,0,1,0,.142Z" transform="translate(-401.599 -904.536)" fill="#313131"/><path d="M314.152,1552.245c7.679.126,56.144,1.794,56.144,1.794s3.406-5.714,3.406-15.362c0-9.256-1.837-14.44-1.837-14.44l-54.75-2.257Z" transform="translate(-283.44 -1289.847)" fill="#fff"/><path d="M368.027,1552.153c-.485,0-48.544-1.671-56.131-1.783a.523.523,0,0,1-.519-.528.516.516,0,0,1,.157-.37.542.542,0,0,1,.173-.111.51.51,0,0,1,.2-.033c7.269.107,51.591,1.623,55.83,1.768a32.9,32.9,0,0,0,3.189-14.828,49.836,49.836,0,0,0-1.7-13.934l-54.4-2.246a.521.521,0,0,1,.046-1.038l54.75,2.257a.528.528,0,0,1,.473.346c.075.219,1.866,5.377,1.866,14.608,0,9.681-3.348,15.391-3.482,15.63a.513.513,0,0,1-.188.191A.522.522,0,0,1,368.027,1552.153Z" transform="translate(-281.172 -1287.451)" fill="#313131"/><path d="M344.231,1417.007a.5.5,0,0,1-.155-.025.528.528,0,0,1-.308-.257.522.522,0,0,1-.035-.4l7.164-22.954a.519.519,0,0,1,.1-.179.544.544,0,0,1,.159-.129.522.522,0,0,1,.2-.056.508.508,0,0,1,.2.02.494.494,0,0,1,.18.1.523.523,0,0,1,.129.157.53.53,0,0,1,.058.2.518.518,0,0,1-.021.2l-7.169,22.954a.529.529,0,0,1-.188.268A.542.542,0,0,1,344.231,1417.007Z" transform="translate(-307.599 -1184.379)" fill="#313131"/><path d="M458.566,1306.46l-5.123,1.472,6.715,23.249,5.123-1.472Z" transform="translate(-397.29 -1113.602)" fill="#fecd07"/><path d="M458.024,1329.334a.529.529,0,0,1-.5-.381l-6.7-23.245a.524.524,0,0,1,.356-.647l5.126-1.47a.544.544,0,0,1,.2-.02.527.527,0,0,1,.194.062.52.52,0,0,1,.155.131.527.527,0,0,1,.092.182l6.7,23.245a.526.526,0,0,1-.36.647l-5.122,1.474A.628.628,0,0,1,458.024,1329.334Zm-6.064-23.413,6.424,22.244,4.118-1.186-6.445-22.24Z" transform="translate(-395.135 -1111.238)" fill="#313131"/><path d="M453.352,1274.656l-5.123,1.472.85,2.944,5.123-1.472Zm-2.038-3.486-3.209.922,1.085,3.758,3.209-.922Z" transform="translate(-392.927 -1084.747)" fill="#fff"/><path d="M447.37,1292.886a.546.546,0,0,1-.255-.066.529.529,0,0,1-.155-.133.508.508,0,0,1-.092-.18l-.837-2.943a.508.508,0,0,1-.018-.2.5.5,0,0,1,.062-.193.5.5,0,0,1,.131-.155.5.5,0,0,1,.181-.093l5.126-1.474a.524.524,0,0,1,.645.355l.837,2.92a.52.52,0,0,1-.044.4.526.526,0,0,1-.312.251l-5.126,1.472A.56.56,0,0,1,447.37,1292.886Zm-.205-3.109.561,1.942,4.118-1.186-.557-1.936Z" transform="translate(-391.215 -1098.044)" fill="#313131"/><path d="M446.85,1274.036a.57.57,0,0,1-.255-.068.519.519,0,0,1-.155-.131.53.53,0,0,1-.092-.182l-1.088-3.756a.518.518,0,0,1,.047-.4.525.525,0,0,1,.313-.248l3.206-.922a.512.512,0,0,1,.2-.018.524.524,0,0,1,.195.062.505.505,0,0,1,.156.131.519.519,0,0,1,.094.18l1.084,3.756a.5.5,0,0,1-.046.417.506.506,0,0,1-.31.25l-3.21.924A.617.617,0,0,1,446.85,1274.036Zm-.419-3.924.8,2.754,2.2-.634-.8-2.75Zm9.75,11.735a.521.521,0,0,1-.5-.375l-2.23-7.721-1.866.534a.524.524,0,0,1-.385-.057.52.52,0,0,1-.2-.692.527.527,0,0,1,.3-.253l2.369-.679a.522.522,0,0,1,.2-.018.531.531,0,0,1,.2.064.525.525,0,0,1,.156.131.537.537,0,0,1,.093.182l2.377,8.222a.52.52,0,0,1-.047.4.527.527,0,0,1-.313.248A.443.443,0,0,1,456.182,1281.847Z" transform="translate(-390.586 -1082.409)" fill="#313131"/><path d="M430.477,1355.08h23.979v17.5l-11.99,11.484-11.989-10.521Z" transform="translate(-378.519 -1153.363)" fill="#fff"/><path d="M440.126,1382.23a.52.52,0,0,1-.347-.133l-11.989-10.521a.511.511,0,0,1-.176-.388v-18.447a.523.523,0,0,1,.523-.521h23.979a.522.522,0,0,1,.523.521v17.5a.513.513,0,0,1-.163.375L440.486,1382.1A.512.512,0,0,1,440.126,1382.23Zm-11.467-11.267,11.45,10.049,11.483-11v-16.752H428.659Z" transform="translate(-376.178 -1151.024)" fill="#313131"/><path d="M452.115,1224.321H428.136a.522.522,0,1,1,0-1.044h23.979a.522.522,0,1,1,0,1.044Zm1.414,57.136a.5.5,0,0,1-.218-.046.521.521,0,0,1-.259-.688A43.913,43.913,0,0,0,456.02,1266a81.918,81.918,0,0,0-1.05-14.823.516.516,0,0,1,.418-.6.528.528,0,0,1,.607.417,84.223,84.223,0,0,1,1.059,15.023c-.418,9.215-2.929,14.874-3.055,15.113a.524.524,0,0,1-.469.333Zm6.252-2.169a2.141,2.141,0,1,1,1.511-.626A2.139,2.139,0,0,1,459.782,1279.288Zm0-3.219a1.09,1.09,0,1,0,.421,2.095,1.1,1.1,0,0,0,.489-.4,1.091,1.091,0,0,0-.91-1.692Zm-1.615-78.409a.567.567,0,0,1-.276-.078.528.528,0,0,1-.234-.339l-.7-3.364a.5.5,0,0,1,0-.217.511.511,0,0,1,.088-.2l3.306-4.77a.521.521,0,0,1,.586-.2l4.921,1.535a.524.524,0,0,1,.36.419l.745,4.616a.518.518,0,0,1-.081.37.524.524,0,0,1-.312.219l-8.273,1.995A.453.453,0,0,1,458.166,1197.661Zm-.142-3.756.548,2.617,7.277-1.774-.615-3.819-4.252-1.313Z" transform="translate(-376.178 -1017.082)" fill="#313131"/><path d="M1267.912,1109.682v-103.2l-15.065-6.151-21.386,29.1,1.076-33s-8.524,2.743-15.275-2.5-13.541-15.784-13.541-15.784,1.543,5.233,0,7.93-4.725,4.949-5.386,8.542,2.477,5.842,0,9.428-4.533,4.749-5.2,8.663,1.125,9.8-6.278,11.318c0,0,6.537,2.3,8.3,13.914s.438,71.735.438,71.735Z" transform="translate(-996.753 -845.074)" fill="#fff"/><path d="M706.357,1108.185a.546.546,0,0,1-.2-.046.524.524,0,0,1-.276-.288.51.51,0,0,1-.035-.2c0-.6,1.3-60.226-.418-71.655-1.675-11.118-7.9-13.481-7.952-13.5a.52.52,0,0,1-.217-.836.513.513,0,0,1,.289-.164c5.441-1.115,5.554-4.683,5.667-8.134a21.205,21.205,0,0,1,.208-2.763c.482-2.867,1.675-4.328,3.2-6.177.628-.763,1.339-1.628,2.093-2.692,1.313-1.907.882-3.359.383-5.042a8.516,8.516,0,0,1-.468-4.173c.46-2.45,1.962-4.248,3.415-5.989a19.73,19.73,0,0,0,2.016-2.7c1.414-2.466-.033-7.469-.051-7.511a.527.527,0,0,1,.656-.621.52.52,0,0,1,.291.2c.068.1,6.812,10.542,13.417,15.655,6.449,5.007,14.714,2.432,14.794,2.4a.521.521,0,0,1,.248-.016.529.529,0,0,1,.228.1.519.519,0,0,1,.157.193.509.509,0,0,1,.051.242l-1.021,31.3,20.385-27.744a.517.517,0,0,1,.279-.193.53.53,0,0,1,.34.016L778.906,1004a.5.5,0,0,1,.236.193.514.514,0,0,1,.088.289v103.17a.523.523,0,0,1-1.047,0V1004.8L763.8,998.956l-21.141,28.8a.522.522,0,0,1-.265.188.536.536,0,0,1-.325-.007.53.53,0,0,1-.259-.195.537.537,0,0,1-.093-.309l1.047-32.285c-2.226.546-9.205,1.749-15.065-2.767-4.93-3.819-9.8-10.322-12.17-13.714.247,1.79.314,4.116-.6,5.7a20.741,20.741,0,0,1-2.12,2.856c-1.364,1.639-2.78,3.339-3.189,5.512a7.541,7.541,0,0,0,.438,3.7c.528,1.772,1.076,3.61-.522,5.925-.762,1.1-1.485,1.987-2.126,2.767-1.478,1.8-2.544,3.093-2.984,5.685a20.362,20.362,0,0,0-.192,2.625c-.1,3.226-.234,7.178-5.169,8.765,2.068,1.309,6.047,4.907,7.379,13.672,1.75,11.519.5,69.382.448,71.839a.529.529,0,0,1-.541.477ZM604.716,1079.1a.483.483,0,0,1-.2-.04.5.5,0,0,1-.17-.118l-15.9-16.225a.518.518,0,0,1-.146-.372l.7-39.259a.537.537,0,0,1,.418-.5l8.273-1.995a.53.53,0,0,1,.331.027.517.517,0,0,1,.246.224l18.782,33.09a.516.516,0,0,1,.059.342l-3.724,22.24a.521.521,0,0,1-.1.235.528.528,0,0,1-.2.157,62.231,62.231,0,0,1-8.269,2.187Zm-15.388-16.943,15.547,15.859a64.441,64.441,0,0,0,7.533-1.958l3.607-21.772L597.523,1021.7l-7.5,1.812Z" transform="translate(-507.512 -843.041)" fill="#313131"/><path d="M589.844,1277.087a.49.49,0,0,1-.226-.055.521.521,0,0,1-.164-.122.521.521,0,0,1-.134-.377.519.519,0,0,1,.051-.2l11.805-24.418a.523.523,0,1,1,.942.455l-11.805,24.418a.526.526,0,0,1-.469.3Zm3.724,15.495a.569.569,0,0,1-.226-.051.516.516,0,0,1-.247-.692l13.961-29.556a.524.524,0,0,1,.7-.248.52.52,0,0,1,.249.694l-13.961,29.553a.524.524,0,0,1-.473.3Zm7.24,7.373a.52.52,0,0,1-.222-.049.526.526,0,0,1-.251-.7l12.554-26.639a.521.521,0,0,1,.122-.164.517.517,0,0,1,.378-.135.506.506,0,0,1,.2.049.552.552,0,0,1,.165.12.523.523,0,0,1,.105.177.514.514,0,0,1,.03.2.52.52,0,0,1-.049.2l-12.554,26.638a.521.521,0,0,1-.477.3Zm7.98,4.124a.493.493,0,0,1-.243-.058.5.5,0,0,1-.159-.128.52.52,0,0,1-.1-.178.528.528,0,0,1-.022-.2.519.519,0,0,1,.058-.195l6.583-12.479a.525.525,0,1,1,.929.488L609.25,1303.8a.521.521,0,0,1-.192.2A.535.535,0,0,1,608.789,1304.079Z" transform="translate(-508.35 -1068.734)" fill="#313131"/><path d="M1548.05,1099.98s27.574,10.612,32.3,14.949c8.27,7.592,23.063,51.508,23.063,51.508a10.485,10.485,0,0,0-10.758-1.078c-6.153,2.789-5.107,4.863-9.5,5.5-5.487.792-9.547-3.814-13.061-.63a6.32,6.32,0,0,1-6.964,1.422Z" transform="translate(-1291.974 -944.732)" fill="#fff"/><path d="M1563.229,1170.244a6.107,6.107,0,0,1-2.6-.546.519.519,0,0,1-.162-.126.527.527,0,0,1-.1-.177.515.515,0,0,1-.025-.2.531.531,0,0,1,.055-.2.526.526,0,0,1,.51-.284.53.53,0,0,1,.2.057,5.774,5.774,0,0,0,6.373-1.348c2.252-2.036,4.968-1.189,7.6-.371a12.727,12.727,0,0,0,5.733.876,6.454,6.454,0,0,0,4.135-2.023,17,17,0,0,1,5.227-3.435,10.95,10.95,0,0,1,9.989.284c-2.645-7.612-15.222-43.081-22.418-49.858-4.8-4.511-31.851-14.737-32.127-14.841a.512.512,0,0,1-.173-.108.528.528,0,0,1-.165-.366.537.537,0,0,1,.033-.2.552.552,0,0,1,.109-.173.567.567,0,0,1,.166-.118.54.54,0,0,1,.2-.046.515.515,0,0,1,.2.035c1.121.417,27.519,10.4,32.469,15.058,8.241,7.741,22.6,49.926,23.2,51.72a.517.517,0,0,1-.2.6.532.532,0,0,1-.323.089.518.518,0,0,1-.311-.127,9.893,9.893,0,0,0-10.206-1,16,16,0,0,0-4.948,3.246,7.465,7.465,0,0,1-4.678,2.288,13.451,13.451,0,0,1-6.219-.905c-2.561-.8-4.771-1.49-6.579.146A7.256,7.256,0,0,1,1563.229,1170.244Z" transform="translate(-1289.7 -942.326)" fill="#313131"/><path d="M1624.736,1363.574a.532.532,0,0,1-.364-.149.526.526,0,0,1-.159-.361l-.795-30.54a.513.513,0,0,1,.144-.372.507.507,0,0,1,.166-.118.543.543,0,0,1,.2-.044.523.523,0,0,1,.524.508l.795,30.536a.53.53,0,0,1-.033.2.546.546,0,0,1-.11.173.492.492,0,0,1-.166.117.5.5,0,0,1-.2.046Z" transform="translate(-1353.577 -1134.479)" fill="#313131"/><path d="M1387.238,1065.61s-9.872,3.756-9.693,7.473,3.348,6.586,3.182,9.967-4.968,6.94-4.6,10.32,3.766,3.94,3.927,7.579-.391,12.846,2.02,13.688,8.685-6.849,10.462-8.63,8.211-3.776,11.064-8.293-.668-8.242,1.182-10.921,8.69-3.388,10.269-6.413-7.532-13.881-7.532-13.881l-21.41,34.451Z" transform="translate(-1151.431 -916.631)" fill="#fff"/><path d="M1380.083,1114.1a1.648,1.648,0,0,1-.555-.091c-2.093-.73-2.29-5.585-2.323-11.373,0-1.1,0-2.053-.046-2.783a5.556,5.556,0,0,0-1.859-3.668,6.6,6.6,0,0,1-2.066-3.878c-.207-1.969,1.112-3.911,2.389-5.785,1.059-1.556,2.155-3.162,2.217-4.616a10.07,10.07,0,0,0-1.465-4.7,13.245,13.245,0,0,1-1.715-5.216c-.194-4.011,8.864-7.366,9.9-7.734a.512.512,0,0,1,.25-.025.522.522,0,0,1,.236.093.516.516,0,0,1,.163.191.528.528,0,0,1,.055.248l-.922,33.148,20.385-32.806a.544.544,0,0,1,.179-.175.557.557,0,0,1,.239-.073.521.521,0,0,1,.418.188c.955,1.14,9.275,11.215,7.583,14.457-.92,1.761-3.322,2.76-5.64,3.723-1.905.789-3.872,1.606-4.663,2.747-.7,1.015-.493,2.233-.23,3.756.34,1.978.758,4.444-.937,7.124-1.95,3.089-5.519,5.045-8.122,6.477a15.78,15.78,0,0,0-3.017,1.91c-.323.323-.839.865-1.386,1.49C1385.75,1110.488,1382.28,1114.1,1380.083,1114.1Zm4.106-48.594c-2.93,1.155-8.6,3.911-8.482,6.432a12.368,12.368,0,0,0,1.606,4.807,10.684,10.684,0,0,1,1.574,5.2c-.075,1.754-1.255,3.485-2.4,5.164s-2.382,3.492-2.214,5.082a5.621,5.621,0,0,0,1.8,3.293,6.578,6.578,0,0,1,2.131,4.315c.033.752.04,1.716.046,2.825,0,3.444.053,9.85,1.624,10.4s6.449-4.719,8.508-6.978a20.476,20.476,0,0,1,1.43-1.506,16.084,16.084,0,0,1,3.257-2.087c2.641-1.455,5.934-3.264,7.739-6.122,1.481-2.346,1.116-4.5.795-6.393-.281-1.636-.544-3.18.418-4.545s2.985-2.229,5.121-3.118,4.371-1.816,5.114-3.239c.988-1.894-3.591-8.588-6.991-12.75l-21.021,33.833a.528.528,0,0,1-.972-.292Z" transform="translate(-1149.069 -915.494)" fill="#313131"/><path d="M1079.975,1319.775c-4.557,0-6.867-5.559-6.871-16.527,0-5.087,4.6-9.228,10.286-9.228s10.285,4.136,10.29,9.224C1093.667,1310.347,1085.854,1319.775,1079.975,1319.775Zm3.415-21.968c-3.578,0-6.487,2.441-6.487,5.424,0,9.349,1.837,12.741,3.072,12.741,3.5,0,9.9-7.512,9.9-12.741-.013-2.987-2.924-5.424-6.5-5.424Zm-49.418,21.976c-3.959,0-7.7-4.094-9.119-5.843-2.875-3.55-4.6-7.541-4.6-10.67,0-5.087,4.6-9.227,10.285-9.227s10.286,4.135,10.292,9.222C1040.839,1314.219,1038.545,1319.782,1033.972,1319.782Zm-3.424-21.965c-3.578,0-6.486,2.437-6.486,5.426,0,5.007,6.583,12.737,9.91,12.737,1.235,0,3.067-3.393,3.067-12.741C1037.038,1300.255,1034.125,1297.818,1030.547,1297.818Z" transform="translate(-860.573 -1103.429)" fill="#fecd07"/><path d="M1077.686,1317.957c-2.511,0-4.394-1.5-5.629-4.473-1.171-2.818-1.766-7.049-1.766-12.575,0-5.375,4.847-9.748,10.811-9.748s10.809,4.37,10.813,9.745C1091.914,1308.234,1083.8,1317.953,1077.686,1317.957Zm3.416-25.753c-5.386,0-9.764,3.905-9.764,8.7,0,5.388.57,9.486,1.675,12.178,1.07,2.575,2.6,3.827,4.661,3.827,5.545,0,13.183-9.277,13.183-16.009-.005-4.8-4.382-8.7-9.768-8.7Zm-3.416,21.965c-1.675,0-3.594-3.474-3.594-13.264a5.5,5.5,0,0,1,2.091-4.24,7.909,7.909,0,0,1,9.843,0,5.517,5.517,0,0,1,2.093,4.244c0,2.5-1.406,5.746-3.766,8.668C1082.554,1311.793,1079.862,1314.168,1077.686,1314.168Zm3.4-18.183a6.6,6.6,0,0,0-4.239,1.477,4.493,4.493,0,0,0-1.717,3.443c0,9.324,1.867,12.22,2.55,12.22,1.472,0,3.828-1.69,5.858-4.207,2.206-2.738,3.525-5.734,3.525-8.013a4.492,4.492,0,0,0-1.717-3.443A6.609,6.609,0,0,0,1081.089,1295.985Zm-49.407,21.981c-4.185,0-8.055-4.233-9.529-6.047-2.93-3.648-4.7-7.759-4.7-11a9.232,9.232,0,0,1,3.189-6.907,11.633,11.633,0,0,1,15.236,0,9.22,9.22,0,0,1,3.194,6.907c0,11.313-2.486,17.052-7.392,17.052Zm-3.417-25.739a10.326,10.326,0,0,0-6.922,2.572,8.19,8.19,0,0,0-2.842,6.135c0,3.013,1.675,6.881,4.473,10.346,1.377,1.7,4.981,5.659,8.714,5.659,4.21,0,6.343-5.388,6.343-16.009a8.186,8.186,0,0,0-2.846-6.131A10.324,10.324,0,0,0,1028.265,1292.227Zm3.417,21.965c-2.091,0-4.782-2.421-6.606-4.687-2.394-2.974-3.826-6.18-3.826-8.572,0-3.29,3.143-5.96,7.01-5.96a7.665,7.665,0,0,1,4.922,1.716,5.516,5.516,0,0,1,2.091,4.24,36.566,36.566,0,0,1-1.092,10.016c-.636,2.086-1.523,3.233-2.51,3.233Zm-3.423-18.7v.488c-3.289,0-5.963,2.2-5.963,4.916,0,2.133,1.377,5.166,3.595,7.929,2.068,2.57,4.4,4.3,5.792,4.3.206,0,.875-.446,1.5-2.5a34.52,34.52,0,0,0,1.047-9.723,4.5,4.5,0,0,0-1.717-3.444,6.6,6.6,0,0,0-4.246-1.472Z" transform="translate(-858.285 -1101.09)" fill="#313131"/><path d="M1117.418,1336.72v1.965h-28.984v-1.965a4.655,4.655,0,0,1,4.661-4.65H1100v-28.662c-12.378-3-23.306-17.821-23.306-35.653a47.957,47.957,0,0,1,1.816-13.234H1127.7a48.044,48.044,0,0,1,1.824,13.234c0,17.832-11.3,32.656-23.678,35.656v28.667h6.907a4.648,4.648,0,0,1,4.663,4.641Z" transform="translate(-906.712 -1071.104)" fill="#fecd07"/><path d="M1086.056,1336.835a.52.52,0,0,1-.522-.523v-1.965a5.184,5.184,0,0,1,5.167-5.187h6.387v-27.731c-6.131-1.612-11.874-5.992-16.2-12.378a42.591,42.591,0,0,1-7.114-23.684,48.462,48.462,0,0,1,1.841-13.38.535.535,0,0,1,.188-.271.528.528,0,0,1,.314-.1H1125.3a.52.52,0,0,1,.316.1.5.5,0,0,1,.186.273,48.465,48.465,0,0,1,1.845,13.38c0,18.781-11.963,32.97-23.676,36.062v27.741h6.385a5.168,5.168,0,0,1,5.185,5.166v1.965a.523.523,0,0,1-.524.523Zm-9.551-84.169a47.583,47.583,0,0,0-1.673,12.712c0,16.6,10.069,32.039,22.911,35.148a.509.509,0,0,1,.3.178.519.519,0,0,1,.121.326v28.662a.531.531,0,0,1-.154.37.524.524,0,0,1-.371.153H1090.7a4.138,4.138,0,0,0-4.139,4.127v1.445h27.95v-1.448a4.114,4.114,0,0,0-1.211-2.918,4.136,4.136,0,0,0-2.928-1.206h-6.92a.522.522,0,0,1-.524-.523v-28.666a.534.534,0,0,1,.119-.328.519.519,0,0,1,.3-.177c11.443-2.776,23.282-16.693,23.276-35.153a47.6,47.6,0,0,0-1.673-12.712Z" transform="translate(-904.317 -1068.724)" fill="#313131"/><path d="M1111.34,1249.51c13.565,0,24.562-.643,24.562-1.435s-11-1.435-24.562-1.435-24.56.643-24.56,1.435S1097.777,1249.51,1111.34,1249.51Z" transform="translate(-914.952 -1064.687)" fill="#fecd07"/><path d="M1108.9,1247.723c-6.54,0-12.688-.148-17.322-.419-7.687-.446-7.687-.971-7.687-1.53s0-1.089,7.687-1.537c4.65-.275,10.827-.417,17.4-.417h.077c6.544,0,12.692.146,17.32.417,7.709.439,7.709.969,7.709,1.524s0,1.084-7.688,1.536c-4.65.271-10.827.417-17.4.417Zm-22.787-1.949c3.047.446,11.057.905,22.783.905h.082c11.773,0,19.808-.468,22.864-.914-3.046-.446-11.057-.911-22.783-.911h-.084C1097.207,1244.86,1089.168,1245.323,1086.113,1245.774Z" transform="translate(-912.59 -1062.38)" fill="#313131"/><path d="M1281.447,1452.1c-.871,9.439-3.9,28.591-14.23,33.387-10.608,4.945-70.869,6.08-76.267,6.3-2.809.117-9.249,1.277-14.962,1.882-3.812.419-7.3.564-9.156,0a1.885,1.885,0,0,1-1.335-.964c-1-2.6.223-3.847.223-3.847s-2.738.834-3.675-1.461c-.816-2.013,1.549-4.111,1.549-4.111a2.749,2.749,0,0,1-2.478-3.135c.247-2.282,2.7-3.426,2.7-3.426a2.852,2.852,0,0,1-1.065-.446,2.8,2.8,0,0,1-1.11-3.067c.35-1.754,3.912-2.5,7.335-2.86,2.307-.22,4.546-.25,5.709-.25l.133-4.175s7.8,5.965,15.656,7.062c10.984,1.528,56.4-10.521,56.4-10.521l-.026-2.867a6.326,6.326,0,0,0,6.96-1.432c3.514-3.184,8.248,1.432,13.061.634s3.348-2.708,9.494-5.5A13.343,13.343,0,0,1,1281.447,1452.1Z" transform="translate(-975.691 -1232.695)" fill="#fff"/><path d="M1167.847,1492.17a12.921,12.921,0,0,1-3.6-.39,2.328,2.328,0,0,1-1.673-1.277,4.923,4.923,0,0,1-.234-3.339,3.127,3.127,0,0,1-3.215-1.943c-.648-1.6.338-3.173,1.059-4.033a3.334,3.334,0,0,1-1.386-.98,3.256,3.256,0,0,1-.639-2.5,4.825,4.825,0,0,1,2.091-3.271,3.309,3.309,0,0,1-1.109-1.011,3.452,3.452,0,0,1-.418-2.709c.347-1.719,2.895-2.787,7.8-3.271,1.941-.187,3.854-.246,5.255-.255l.117-3.643a.518.518,0,0,1,.3-.455.551.551,0,0,1,.28-.047.517.517,0,0,1,.265.1c.075.058,7.792,5.892,15.413,6.956,10.219,1.424,51.327-9.231,55.8-10.4v-2.461a.52.52,0,0,1,.5-.53.513.513,0,0,1,.259.058,5.782,5.782,0,0,0,6.373-1.348c2.248-2.038,4.964-1.189,7.593-.372a12.757,12.757,0,0,0,5.737.876,6.482,6.482,0,0,0,4.135-2.024,16.916,16.916,0,0,1,5.227-3.435,13.854,13.854,0,0,1,5.273-1.277.507.507,0,0,1,.227.034.513.513,0,0,1,.192.128.544.544,0,0,1,.113.193.522.522,0,0,1,.024.224c-.97,10.562-4.151,29-14.507,33.8-6.354,2.956-30.9,5.054-72.955,6.24-1.728.046-2.95.084-3.532.1-1.489.062-4.042.417-7,.834-2.48.351-5.3.752-7.928,1.031A56.74,56.74,0,0,1,1167.847,1492.17Zm-4.566-6.219a.528.528,0,0,1,.289.087.538.538,0,0,1,.192.23.527.527,0,0,1-.1.567c-.039.038-.959,1.082-.11,3.3.122.326.612.536,1,.652,1.531.463,4.46.455,8.951-.026,2.615-.275,5.419-.676,7.892-1.027,2.979-.417,5.558-.789,7.114-.834.583-.025,1.808-.058,3.545-.107,41.915-1.182,66.32-3.248,72.543-6.14,10.011-4.661,13-23.721,13.853-32.363a13.045,13.045,0,0,0-4.281,1.151,16.078,16.078,0,0,0-4.951,3.248,7.447,7.447,0,0,1-4.674,2.286,13.405,13.405,0,0,1-6.219-.909c-2.561-.8-4.774-1.486-6.579.15a6.95,6.95,0,0,1-6.783,1.794v2.113a.536.536,0,0,1-.108.321.53.53,0,0,1-.281.188c-1.746.459-40.388,10.672-54.214,10.672a17.55,17.55,0,0,1-2.394-.142c-6.511-.906-12.88-5.007-15.094-6.573l-.1,3.167a.522.522,0,0,1-.161.357.531.531,0,0,1-.363.149c-1.4,0-3.514.042-5.658.25-5.858.576-6.765,1.9-6.875,2.437a2.305,2.305,0,0,0,1.766,2.922.53.53,0,0,1,.285.155.516.516,0,0,1,.137.291.5.5,0,0,1-.062.317.513.513,0,0,1-.239.218s-2.2,1.055-2.405,3.009a2.2,2.2,0,0,0,.438,1.727,2.216,2.216,0,0,0,1.578.834.532.532,0,0,1,.418.364.506.506,0,0,1,.005.3.516.516,0,0,1-.155.251s-2.093,1.882-1.41,3.523c.74,1.836,2.93,1.184,3.034,1.155A.617.617,0,0,1,1163.281,1485.951Z" transform="translate(-973.258 -1230.31)" fill="#313131"/><path d="M621.373,470.148a.526.526,0,0,1-.237-.067.54.54,0,0,1-.181-.166c-.944-1.412-4.184-2.208-5.18-2.087a.522.522,0,1,1-.139-1.035c1.193-.155,4.952.685,6.19,2.534a.519.519,0,0,1-.142.721A.514.514,0,0,1,621.373,470.148ZM479.725,266.5a.523.523,0,0,1-.522-.522V248.522a.523.523,0,0,1,.522-.522.527.527,0,0,1,.371.153.519.519,0,0,1,.153.369v17.453a.519.519,0,0,1-.153.369A.527.527,0,0,1,479.725,266.5Zm6.332,4.186a.517.517,0,0,1-.331-.117.525.525,0,0,1-.19-.352.543.543,0,0,1,.018-.2.519.519,0,0,1,.1-.18l8.339-10.3a.532.532,0,0,1,.747-.09.511.511,0,0,1,.135.157.54.54,0,0,1,.066.2.565.565,0,0,1-.016.206.54.54,0,0,1-.093.185l-8.367,10.283a.513.513,0,0,1-.177.153A.526.526,0,0,1,486.058,270.682Zm-12.663,2.133a.517.517,0,0,1-.236-.056.506.506,0,0,1-.183-.157l-7.952-10.784a.522.522,0,1,1,.837-.618l7.952,10.784a.51.51,0,0,1,.106.267.518.518,0,0,1-.524.568ZM353.54,457.7l-4.3,22.537-2.67-.2Zm38.091-31.132-8.55,9.79,8.144-11.748Zm7.825-5.2.289,1.807L410.9,424.9Z" transform="translate(-309.935 -248)" fill="#313131"/><path d="M362.521,1131.465l.7,3.364-.7,39.257-.477-38.844-.473-2.41Zm0,42.622,13.877,16.56,2.021-.333Zm-8.277,44.359-42.3-1.277-.494,2.421Zm198.147-7.357v2.967l-48.941-.4,27.6-1.086Zm-.794-57.459-2.239,31.729,3.065-.792Zm-8.763-41.35s3.039,5.009,2.016,6.26c-2.4,3.054-8.515,4.131-10.268,6.415-1.465,1.914.8,8.071-.926,10.488-4.3,6.034-8.515,5.692-11.3,8.727s-8.009,7.845-8.009,7.845,7.059-6.206,9.311-7.712,8.005-3.639,11.181-8.426c1.922-2.9-.486-8.313.862-10.145,1.715-2.337,8.787-2.872,10.131-6.3a5.891,5.891,0,0,0-1.3-6.565Z" transform="translate(-281.231 -954.772)" fill="#313131"/></g></svg>