<svg xmlns="http://www.w3.org/2000/svg" width="16" height="16" viewBox="0 0 16 16"><path d="M14.867,8.467H13.8V5.8a1.6,1.6,0,0,0-1.6-1.6H9.533V3.133a2.133,2.133,0,1,0-4.267,0V4.2H2.6A1.6,1.6,0,0,0,1,5.8V9a.533.533,0,0,0,.533.533h1.6a1.067,1.067,0,1,1,0,2.133h-1.6A.533.533,0,0,0,1,12.2v3.2A1.6,1.6,0,0,0,2.6,17H5.8a.533.533,0,0,0,.533-.533v-1.6a1.067,1.067,0,1,1,2.133,0v1.6A.533.533,0,0,0,9,17h3.2a1.6,1.6,0,0,0,1.6-1.6V12.733h1.067a2.133,2.133,0,1,0,0-4.267Z" transform="translate(-1 -1)" fill="#fecd07"/></svg>