<svg xmlns="http://www.w3.org/2000/svg" width="36" height="36" viewBox="0 0 36 36"><rect width="36" height="36" fill="#fbfcfc"/><g transform="translate(4.75 4.75)"><path d="M16.6,1.25H9.9C3.836,1.25,1.25,3.838,1.25,9.9v6.7c0,6.064,2.586,8.651,8.651,8.651h6.7c6.065,0,8.651-2.588,8.651-8.651V9.9C25.25,3.838,22.664,1.25,16.6,1.25ZM23.576,16.6c0,5.151-1.826,6.977-6.977,6.977H9.9c-5.151,0-6.977-1.826-6.977-6.977V9.9c0-5.151,1.826-6.977,6.977-6.977h6.7c5.151,0,6.977,1.826,6.977,6.977Z" transform="translate(0 0)"/><path d="M7.5,9a.75.75,0,0,1,.75-.75h7.5a.75.75,0,0,1,0,1.5H8.25A.75.75,0,0,1,7.5,9Zm8.25,5.25H8.25a.75.75,0,0,0,0,1.5h7.5a.75.75,0,0,0,0-1.5Z" transform="translate(1.25 1.25)" fill="#079b7e"/></g></svg>