<svg xmlns="http://www.w3.org/2000/svg" width="472" height="321.423" viewBox="0 0 472 321.423"><g transform="translate(595.03 -6.8)"><g transform="translate(-595.03 6.8)"><path d="M1648.4,1475.83V1433l35.233,5.66,4.657,37.17Z" transform="translate(-1627.249 -1155.25)" fill="#fff"/><path d="M1646.444,1474.607h39.892a.686.686,0,0,0,.294-.059.723.723,0,0,0,.24-.181.7.7,0,0,0,.148-.267.683.683,0,0,0,.027-.305l-4.656-37.175a.722.722,0,0,0-.186-.4.7.7,0,0,0-.386-.214l-35.246-5.655a.773.773,0,0,0-.3.019.721.721,0,0,0-.27.144.687.687,0,0,0-.192.257.709.709,0,0,0-.06.316v42.835a.716.716,0,0,0,.7.686Zm39.085-1.432h-38.386v-41.287l33.872,5.447Z" transform="translate(-1625.296 -1153.311)" fill="#313131"/><path d="M1159.929,696.489l-36.8-11.554,19.719-62.44,37.53,11.784Z" transform="translate(-977.547 -563.731)" fill="#fff"/><path d="M1157.99,695.272a.715.715,0,0,0,.418-.137.7.7,0,0,0,.262-.356l20.448-62.21a.768.768,0,0,0,.037-.281.738.738,0,0,0-.075-.273.726.726,0,0,0-.178-.222.711.711,0,0,0-.248-.135l-37.525-11.778a.714.714,0,0,0-.545.046.707.707,0,0,0-.354.418l-19.719,62.44a.69.69,0,0,0-.032.279.723.723,0,0,0,.078.27.7.7,0,0,0,.424.351l36.8,11.554A.687.687,0,0,0,1157.99,695.272Zm19.541-62.462-20,60.845L1122.09,682.53l19.29-61.075Z" transform="translate(-975.607 -561.797)" fill="#313131"/><path d="M1154.852,700.836s-4.859-7.684-17.759-10.987c-13.057-3.337,9.305-9.691,9.305-9.691l13.81,4.335Z" transform="translate(-960.04 -605.814)" fill="#313131"/><path d="M1149.886,699.618H1150a.705.705,0,0,0,.354-.159.7.7,0,0,0,.219-.323l5.345-16.331a.667.667,0,0,0,.041-.291.7.7,0,0,0-.081-.283.714.714,0,0,0-.424-.355l-13.813-4.335a.71.71,0,0,0-.362-.018.7.7,0,0,0-.324.162l-10.382,9.215a.712.712,0,0,0,.21,1.2c14.434,5.826,18.483,11.176,18.523,11.227a.722.722,0,0,0,.578.292Zm4.446-16.595-4.737,14.473c-1.782-1.812-6.595-5.872-17.187-10.287l9.213-8.183Z" transform="translate(-955.074 -603.88)" fill="#313131"/><path d="M1103.866,575.275l.305.069,3.1.768.127.029.184.046a20.857,20.857,0,0,0,25.3-15.173l.073-.31,2.767-11.038a22.481,22.481,0,0,0,.5-2.707,2.49,2.49,0,0,0,.035-.281,22.072,22.072,0,0,0-16.553-23.774l-1.436-.355a22.028,22.028,0,0,0-23.01,8.188c-.343.453-.664.923-.966,1.4a21.962,21.962,0,0,0-2.751,6.439l-.761,3.034-2.006,8.028c-.075.287-.143.573-.2.877a20.877,20.877,0,0,0,15.295,24.754Z" transform="translate(-924.092 -490.306)" fill="#fff"/><path d="M1110.345,575.532a21.958,21.958,0,0,0,21.247-16.589l2.762-11.038a.7.7,0,0,0,.03-.288.716.716,0,0,0-.275-.5.726.726,0,0,0-.262-.126.716.716,0,0,0-.289-.013.732.732,0,0,0-.272.1.714.714,0,0,0-.205.2.655.655,0,0,0-.111.268L1130.2,558.6a20.488,20.488,0,0,1-24.692,14.909h-.119l-3.112-.785a20.384,20.384,0,0,1-9.67-5.556.717.717,0,0,0-1.015-.012.717.717,0,0,0-.011,1.015,21.849,21.849,0,0,0,10.347,5.946l3.11.78.143.035A21.97,21.97,0,0,0,1110.345,575.532Zm-22-12.432a.711.711,0,0,0,.345-.095.694.694,0,0,0,.259-.251.71.71,0,0,0,.105-.345.725.725,0,0,0-.075-.353,20.545,20.545,0,0,1-1.768-13.343v-.086c.056-.252.108-.5.175-.757l2.767-11.044a21.35,21.35,0,0,1,2.678-6.245c.3-.47.613-.923.939-1.359a21.272,21.272,0,0,1,22.262-7.925l1.433.356a21.408,21.408,0,0,1,16.04,23.006.7.7,0,0,0,.024.279.715.715,0,0,0,.346.428.7.7,0,0,0,.267.084.717.717,0,0,0,.526-.155.687.687,0,0,0,.178-.215.668.668,0,0,0,.084-.267,22.84,22.84,0,0,0-17.117-24.554l-1.439-.356a22.69,22.69,0,0,0-23.752,8.452c-.348.464-.686.957-1,1.456a22.648,22.648,0,0,0-2.864,6.646l-2.767,11.038c-.065.264-.127.539-.184.809v.092a21.994,21.994,0,0,0,1.868,14.3.712.712,0,0,0,.67.407Z" transform="translate(-922.027 -488.356)" fill="#313131"/><path d="M1088.126,541.68s6.417.912,9.362-3.2c2.67-3.744,4.049-4.587,6.873-5.275,4.395-1.066,20.448,1.021,26.257,6.8a10.315,10.315,0,0,1,2.972,6.743,22.067,22.067,0,0,0-16.55-23.774l-1.439-.356a22.025,22.025,0,0,0-23.007,8.189c-.343.453-.664.923-.969,1.4a21.889,21.889,0,0,0-2.748,6.44Z" transform="translate(-921.436 -490.353)" fill="#313131"/><path d="M1086.59,615.412a.717.717,0,0,0,.694-.573,22.311,22.311,0,0,0,.516-2.8,2.264,2.264,0,0,0,.04-.333.739.739,0,0,0-.046-.276.7.7,0,0,0-.149-.237.683.683,0,0,0-.227-.163.731.731,0,0,0-.548-.02.74.74,0,0,0-.238.147.71.71,0,0,0-.162.226.788.788,0,0,0-.065.272v.189a22.027,22.027,0,0,1-.486,2.649.693.693,0,0,0-.014.279.706.706,0,0,0,.534.587A.591.591,0,0,0,1086.59,615.412Z" transform="translate(-874.957 -555.318)" fill="#313131"/><path d="M1131.636,545.743a.718.718,0,0,0,.7-.6,4.52,4.52,0,0,0,.062-.574,22.827,22.827,0,0,0-17.112-24.307l-1.439-.356a22.685,22.685,0,0,0-23.752,8.452c-.348.464-.688.957-1,1.456a22.729,22.729,0,0,0-2.867,6.646l-.756,3.033a.737.737,0,0,0-.013.3.771.771,0,0,0,.111.276.717.717,0,0,0,.216.206.71.71,0,0,0,.278.1c.281.04,6.875.923,10.042-3.5,2.562-3.578,3.466-4.278,6.476-4.989,4.089-.963,19.776,1.078,25.6,6.617,1.231,1.147,2.9,3.652,2.772,5.952v.2a.8.8,0,0,1,0,.16v.063a.72.72,0,0,0,.572.82ZM1108.3,520.668a21.6,21.6,0,0,1,5.207.642l1.43.356a21.429,21.429,0,0,1,15.956,17.919,11.283,11.283,0,0,0-1.719-2.1c-6.249-5.941-22.491-8.028-26.927-6.967-3.379.8-4.535,1.68-7.3,5.55-2.076,2.9-6.155,3.051-7.88,2.97l.575-2.208a21.328,21.328,0,0,1,2.661-6.245c.3-.464.616-.923.942-1.359a21.24,21.24,0,0,1,17.055-8.555Z" transform="translate(-919.504 -488.356)" fill="#313131"/><path d="M1111.317,606.313a.711.711,0,0,0,.453-.161c.572-.47,1.385-3.44,2.422-8.785a.7.7,0,0,0-.111-.539.727.727,0,0,0-.2-.2.749.749,0,0,0-.543-.1.721.721,0,0,0-.561.572,71.382,71.382,0,0,1-1.811,7.609l-5.493-2.047a.7.7,0,0,0-.275-.044.693.693,0,0,0-.27.065.717.717,0,0,0-.227.165.7.7,0,0,0-.143.239.72.72,0,0,0,.418.923l6.076,2.259A.638.638,0,0,0,1111.317,606.313Zm-9.848-11.56a.717.717,0,0,0,.486-.189c3.088-2.867,7.14-.734,7.31-.642a.719.719,0,1,0,.689-1.262c-.051-.029-5.121-2.729-8.973.849a.756.756,0,0,0-.165.226.73.73,0,0,0-.065.273.747.747,0,0,0,.043.277.71.71,0,0,0,.148.239.7.7,0,0,0,.238.17A.717.717,0,0,0,1101.469,594.753Zm18.607,6.646h.057a.718.718,0,0,0,.489-.248.705.705,0,0,0,.17-.521c-.3-4.014-4.519-5.958-4.7-6.038a.716.716,0,0,0-.883.392.7.7,0,0,0-.022.518.714.714,0,0,0,.332.4c.051,0,3.625,1.674,3.86,4.834a.714.714,0,0,0,.7.665Zm-14.109-3.114a.992.992,0,1,1,.99-.992A.991.991,0,0,1,1105.967,598.285Zm9.688,4.065a.992.992,0,1,1,.991-.992A.993.993,0,0,1,1115.655,602.35Z" transform="translate(-911.92 -541.224)" fill="#313131"/><path d="M1237.054,595.37c-3.115-.075-5.55-3.993-5.434-8.752s2.732-8.555,5.849-8.48,5.547,3.994,5.434,8.752S1240.169,595.445,1237.054,595.37Z" transform="translate(-1069.36 -531.358)" fill="#fff"/><path d="M1235.323,593.753a.713.713,0,0,0,.659-.436.68.68,0,0,0,.057-.274.74.74,0,0,0-.051-.275.726.726,0,0,0-.383-.392c-2.165-.912-3.674-4.18-3.588-7.764a10.515,10.515,0,0,1,1.668-5.665,4.214,4.214,0,0,1,3.436-2.116c1.9.046,3.609,1.892,4.354,4.708a.718.718,0,1,0,1.388-.367c-.918-3.441-3.15-5.734-5.731-5.774a5.566,5.566,0,0,0-4.651,2.735,11.93,11.93,0,0,0-1.925,6.445c-.1,4.215,1.719,7.965,4.462,9.117A.663.663,0,0,0,1235.323,593.753Z" transform="translate(-1069.052 -529.358)" fill="#313131"/><path d="M1245.071,597.858a.717.717,0,0,0,.586-.3.74.74,0,0,0,.124-.316.723.723,0,0,0-.035-.338l-1.45-4.089a.722.722,0,0,0-.915-.435.685.685,0,0,0-.24.142.713.713,0,0,0-.167.223.726.726,0,0,0-.07.271.739.739,0,0,0,.041.276l1.031,2.913-.572-.109a.722.722,0,0,0-.292-.015.712.712,0,0,0-.27.1.7.7,0,0,0-.21.2.688.688,0,0,0-.111.268.7.7,0,0,0,0,.291.7.7,0,0,0,.122.265.7.7,0,0,0,.213.2.731.731,0,0,0,.275.094l1.8.35Zm20.608,12.334a6.366,6.366,0,0,0,3.706-1.25.72.72,0,0,0,.238-.335.732.732,0,0,0,.013-.41.7.7,0,0,0-.213-.351.712.712,0,0,0-.37-.177,6.874,6.874,0,0,1-3.439-1.99,9.289,9.289,0,0,1-2.446-4.994.726.726,0,0,0-.146-.411.721.721,0,0,0-.791-.253.709.709,0,0,0-.356.25c-.081.114-1.995,2.724-1.536,5.487a5.575,5.575,0,0,0,5.361,4.433Zm1.455-1.674a3.955,3.955,0,0,1-3.655-.453,3.827,3.827,0,0,1-1.747-2.535,5.33,5.33,0,0,1,.416-2.815,12.208,12.208,0,0,0,2.419,3.968A9,9,0,0,0,1267.133,608.518Zm-105.861,18.877h1.012a.732.732,0,0,0,.327-.1.78.78,0,0,0,.378-.565.722.722,0,0,0-.046-.355l-.934-2.133a.716.716,0,0,0-1.309.035.727.727,0,0,0,0,.539l.494,1.147a.717.717,0,0,0-.462.252.728.728,0,0,0-.165.5.716.716,0,0,0,.222.477A.708.708,0,0,0,1161.273,627.395Z" transform="translate(-1076.931 -541.721)" fill="#313131"/><path d="M960.122,806.358s-6.141,8.779-15.2,6.657-18.264-9.994-22.384-17.976h-7.809s-48.617,3.131-53.646,9.175S839.161,923,839.161,923l63.833,41.722,52.992-3.147L960,947.816l83.339,1.11s-3.363-6.736-.722-19.861c2.7-13.431,8.828-18.157,8.828-18.157l-62.934-8.068s19.514-49.393,15.314-65.231c-3.293-12.42-38.812-26.377-38.812-26.377Z" transform="translate(-771.955 -689.656)" fill="#fff"/><path d="M901,963.506h.038l53-3.15a.714.714,0,0,0,.4-.154.727.727,0,0,0,.243-.362l3.844-13.234,82.8,1.108a.723.723,0,0,0,.351-.089.709.709,0,0,0,.264-.249.726.726,0,0,0,.108-.346.706.706,0,0,0-.075-.354c0-.065-3.214-6.722-.665-19.4,2.613-12.961,8.508-17.684,8.594-17.73a.718.718,0,0,0,.031-1.11.737.737,0,0,0-.381-.17l-62.022-7.952c2.659-6.882,18.974-49.887,15.022-64.826-3.283-12.352-36.323-25.706-39.107-26.813l-4.783-4.765a.737.737,0,0,0-.262-.162.725.725,0,0,0-.6.054.755.755,0,0,0-.229.206c-.057.086-5.985,8.355-14.458,6.371S925.45,801,921.2,792.776a.719.719,0,0,0-.637-.39H912.76c-2.041.132-49.03,3.222-54.2,9.41s-21.417,114.512-22.1,119.146a.693.693,0,0,0,.054.4.721.721,0,0,0,.259.308L900.6,963.39A.763.763,0,0,0,901,963.506Zm52.442-4.547-52.247,3.1-63.25-41.36c4.746-31.65,17.687-113.188,21.693-117.982s39.706-8.028,53.141-8.9h7.334c4.5,8.406,13.961,15.924,22.645,17.954,7.9,1.852,13.721-4.209,15.441-6.273l4.314,4.3a.669.669,0,0,0,.24.155c.356.138,35.217,13.974,38.383,25.9,4.092,15.425-15.106,64.3-15.3,64.8a.727.727,0,0,0-.049.322.741.741,0,0,0,.1.308.683.683,0,0,0,.221.235.7.7,0,0,0,.3.111l61.438,7.873c-1.959,2.081-5.9,7.338-7.946,17.489-2.1,10.429-.481,16.881.361,19.272l-82.27-1.1a.719.719,0,0,0-.691.516Z" transform="translate(-769.96 -687.72)" fill="#313131"/><path d="M997.3,947.485a.847.847,0,0,0,.2,0,.723.723,0,0,0,.481-.894,54.658,54.658,0,0,1-.779-21.342c1.873-12.167,8.886-17.162,8.954-17.2a.716.716,0,0,0-.8-1.181c-.309.211-7.591,5.3-9.568,18.178a54.339,54.339,0,0,0,.825,21.972.713.713,0,0,0,.269.346A.7.7,0,0,0,997.3,947.485Zm-42.813-45.924a.727.727,0,0,0,.494-.192.721.721,0,0,0,.067-.981.73.73,0,0,0-.464-.257l-6.927-.935a.759.759,0,0,0-.292,0,.708.708,0,0,0-.27.116.756.756,0,0,0-.2.214.718.718,0,0,0-.1.276.761.761,0,0,0,.019.292.747.747,0,0,0,.135.259.766.766,0,0,0,.229.184.781.781,0,0,0,.281.078l6.932.94Zm-28.514,44.973a.711.711,0,0,0,.427-.143.72.72,0,0,0,.256-.373l21.593-73.569a.7.7,0,0,0,.024-.278.777.777,0,0,0-.084-.268.728.728,0,0,0-.429-.343.687.687,0,0,0-.278-.027.7.7,0,0,0-.48.262.716.716,0,0,0-.13.246L925.286,945.61a.662.662,0,0,0-.027.281.714.714,0,0,0,.259.484.663.663,0,0,0,.248.13A.753.753,0,0,0,925.972,946.534Zm-4.554-109.018h.1a.71.71,0,0,0,.613-.631c.985-8.842,9.437-27.168,9.521-27.352a.718.718,0,0,0,.084-.277.705.705,0,0,0-.178-.538.714.714,0,0,0-.232-.173.712.712,0,0,0-.564-.018.717.717,0,0,0-.243.158.683.683,0,0,0-.159.241c-.327.694-7.264,15.74-9.235,25.259l-9.551-23.453a.734.734,0,0,0-.192-.271.707.707,0,0,0-.291-.155.71.71,0,0,0-.629.139L890.99,826.214c-1.145-5.648-6.2-29.456-9.74-33.642a.713.713,0,0,0-.775-.245.71.71,0,0,0-.251.137.729.729,0,0,0-.178.225.754.754,0,0,0-.076.276.728.728,0,0,0,.04.284.685.685,0,0,0,.146.246c2.967,3.5,7.626,23.877,9.672,34.158a.719.719,0,0,0,.159.321.737.737,0,0,0,.3.2.722.722,0,0,0,.688-.107l19.606-15.9,10.145,24.892a.721.721,0,0,0,.694.453Z" transform="translate(-737.948 -687.653)" fill="#313131"/><path d="M1235.295,929.225a.722.722,0,0,0,.44-.151.732.732,0,0,0,.254-.389l17.835-68.878a.719.719,0,0,0-.076-.543.723.723,0,0,0-.186-.209.715.715,0,0,0-.794-.047.709.709,0,0,0-.332.438l-17.822,68.88a.72.72,0,0,0,.076.543.728.728,0,0,0,.44.332A.884.884,0,0,0,1235.295,929.225Zm9.9-53.638a2.471,2.471,0,1,0-1.738-.724A2.457,2.457,0,0,0,1245.193,875.587Zm0-3.5a1.027,1.027,0,0,1,.578.172,1.044,1.044,0,0,1,.386.464,1.064,1.064,0,0,1,.062.6,1.038,1.038,0,0,1-1.415.761,1.037,1.037,0,0,1-.34-1.691A1.039,1.039,0,0,1,1245.193,872.083Zm-5.917,25.254a2.467,2.467,0,1,0-1.741-.724A2.464,2.464,0,0,0,1239.276,897.338Zm0-3.5a1.021,1.021,0,0,1,.572.174,1.03,1.03,0,0,1,.157,1.588,1.021,1.021,0,0,1-.527.282,1.033,1.033,0,0,1-.6-.059,1.012,1.012,0,0,1-.461-.38,1.034,1.034,0,0,1,.856-1.605Zm-5.728,26.324a2.467,2.467,0,1,0-1.741-.721A2.468,2.468,0,0,0,1233.548,920.163Zm0-3.5a1.033,1.033,0,1,1-1.031,1.032,1.038,1.038,0,0,1,1.031-1.01Z" transform="translate(-1080.155 -736.269)" fill="#313131"/><path d="M1156.35,1002.82l6.711,1.935-8.8,30.569-6.711-1.935Z" transform="translate(-966.82 -841.298)" fill="#fecd07"/><path d="M1152.291,1034.084a.65.65,0,0,0,.345-.092.723.723,0,0,0,.213-.181.713.713,0,0,0,.13-.249l8.822-30.591a.729.729,0,0,0,.03-.294.742.742,0,0,0-.092-.281.714.714,0,0,0-.181-.211.68.68,0,0,0-.248-.127l-6.727-1.91a.741.741,0,0,0-.278-.022.708.708,0,0,0-.265.084.7.7,0,0,0-.213.184.744.744,0,0,0-.127.249l-8.787,30.574a.69.69,0,0,0-.024.278.7.7,0,0,0,.084.265.711.711,0,0,0,.181.213.752.752,0,0,0,.246.127l6.716,1.937A.8.8,0,0,0,1152.291,1034.084Zm7.912-30.8-8.4,29.194-5.334-1.537,8.4-29.191Z" transform="translate(-964.875 -839.329)" fill="#313131"/><path d="M1143.922,976.118l6.711,1.935-1.112,3.868-6.711-1.935Zm2.675-4.581,4.2,1.211-1.42,4.937-4.2-1.211Z" transform="translate(-953.277 -818.467)" fill="#fff"/><path d="M1148.178,993.047a.731.731,0,0,0,.429-.149.71.71,0,0,0,.256-.373l1.112-3.866a.639.639,0,0,0,.03-.294.691.691,0,0,0-.092-.28.727.727,0,0,0-.178-.215.715.715,0,0,0-.246-.129l-6.7-1.9a.71.71,0,0,0-.281-.026.726.726,0,0,0-.267.084.739.739,0,0,0-.214.18.679.679,0,0,0-.127.249l-1.112,3.871a.712.712,0,0,0-.03.292.682.682,0,0,0,.086.281.731.731,0,0,0,.181.214.717.717,0,0,0,.248.124l6.67,1.91A.816.816,0,0,0,1148.178,993.047Zm.221-4.095-.715,2.487-5.334-1.535.718-2.5Z" transform="translate(-951.937 -828.882)" fill="#313131"/><path d="M1153.1,976.369a.723.723,0,0,0,.686-.516l1.423-4.943a.771.771,0,0,0,.027-.293.738.738,0,0,0-.092-.28.71.71,0,0,0-.424-.338l-4.206-1.216a.722.722,0,0,0-.888.493l-1.42,4.937a.727.727,0,0,0,.065.546.717.717,0,0,0,.429.343l4.2,1.21A.635.635,0,0,0,1153.1,976.369Zm.532-5.161-1.026,3.561-2.823-.814,1.026-3.561Zm-12.763,15.438a.713.713,0,0,0,.686-.516l2.916-10.122,2.413.694a.718.718,0,0,0,.545-.06.735.735,0,0,0,.213-.18.722.722,0,0,0,.13-.248.694.694,0,0,0,.024-.279.716.716,0,0,0-.084-.267.737.737,0,0,0-.181-.214.708.708,0,0,0-.246-.129l-3.107-.895a.7.7,0,0,0-.278-.026.712.712,0,0,0-.267.084.671.671,0,0,0-.213.18.729.729,0,0,0-.13.249l-3.11,10.814a.69.69,0,0,0-.024.278.7.7,0,0,0,.084.265.722.722,0,0,0,.181.213.761.761,0,0,0,.246.127A.631.631,0,0,0,1140.872,986.646Z" transform="translate(-957.005 -816.437)" fill="#313131"/><path d="M1164.646,1038.1l-27.842-9.2-6.865,25.017,9.281,16.692,17.487-7.282Z" transform="translate(-963.652 -860.331)" fill="#fff"/><path d="M1137.305,1069.435a.736.736,0,0,0,.275-.051l17.487-7.287a.751.751,0,0,0,.251-.178.709.709,0,0,0,.154-.27l7.942-25.23a.717.717,0,0,0-.459-.894l-27.842-9.175a.72.72,0,0,0-.292-.035.7.7,0,0,0-.283.081.764.764,0,0,0-.221.187.7.7,0,0,0-.132.256l-6.875,25.017a.754.754,0,0,0,.068.54l9.284,16.692a.7.7,0,0,0,.272.268A.72.72,0,0,0,1137.305,1069.435Zm16.9-8.538-16.612,6.917-8.83-15.879,6.64-24.009,26.457,8.738Z" transform="translate(-961.737 -858.441)" fill="#313131"/><path d="M1164.577,1066.315a.717.717,0,0,0,.216-1.4l-27.637-8.819a.718.718,0,0,0-.875.47.718.718,0,0,0,.44.894l27.637,8.854A.746.746,0,0,0,1164.577,1066.315Z" transform="translate(-965.999 -880.16)" fill="#313131"/><path d="M1364.611,949.428l23.288,8.434-4.451,12.314-23.288-8.432Z" transform="translate(-1249.051 -802.331)" fill="#079b7e"/><path d="M1381.558,968.767a.708.708,0,0,0,.3-.07.74.74,0,0,0,.373-.405l4.451-12.284a.719.719,0,0,0-.432-.917l-23.274-8.464a.7.7,0,0,0-.942.407l-4.451,12.311a.737.737,0,0,0-.043.277.712.712,0,0,0,.235.5.684.684,0,0,0,.24.143l23.293,8.459A.694.694,0,0,0,1381.558,968.767Zm3.536-12.616-3.965,10.971-21.941-7.949,3.963-10.969Z" transform="translate(-1247.175 -800.244)" fill="#313131"/><path d="M850.133,972.66a.717.717,0,0,0,.254-1.388l-13.5-5.109a.726.726,0,0,0-.278-.045.7.7,0,0,0-.27.063.724.724,0,0,0-.229.163.73.73,0,0,0-.192.514.728.728,0,0,0,.227.5.692.692,0,0,0,.237.147l13.5,5.1A.632.632,0,0,0,850.133,972.66Zm-4.268,1.789a.717.717,0,0,0,.254-1.388l-7.221-2.735a.7.7,0,0,0-.275-.047.721.721,0,0,0-.273.062.712.712,0,0,0-.227.162.7.7,0,0,0-.149.237.692.692,0,0,0-.048.276.734.734,0,0,0,.227.5.7.7,0,0,0,.238.148l7.224,2.735A.749.749,0,0,0,845.865,974.449Zm141.061,93c.046.392.1.77.155,1.148s.1.613.16.894a18.246,18.246,0,0,0,1.272,4.312s1.2,0,2.864-3.377v-.046a21.544,21.544,0,0,0,.922-2.121,74.856,74.856,0,0,0,3.386-12.839c1.564-8.235,1.9-13.034,1.8-15.822v-.368c0-.313-.046-.573-.069-.848-.235-2.294-.825-2.6-.825-2.6a10.412,10.412,0,0,0-1.8,1.824c-.24.292-.5.624-.773,1l-.091.127c-1.9,2.661-4.411,7.379-6.165,15.2A39.944,39.944,0,0,0,986.925,1067.451Z" transform="translate(-717.142 -814.512)" fill="#313131"/><path d="M835.724,1260.716c.722,0,4.486-.919,7.912-18.97,3.323-17.5,1.237-20.069.516-20.407a.717.717,0,0,0-.734.057c-.24.168-5.918,4.318-9.115,18.583-2.864,12.761.63,20.032.779,20.334a.723.723,0,0,0,.642.4Zm7.935-37.629c.43,1.308,1.009,5.552-1.432,18.4-2.515,13.261-5.116,16.668-6.13,17.521-.756-2.035-2.652-8.6-.4-18.716C838.159,1229.309,842.164,1224.543,843.659,1223.087Z" transform="translate(-564.361 -1000.722)" fill="#313131"/><path d="M569.712,1263.605c2.532.316,4.44.576,4.807.654.2.041.4.092.573.138,2.131.5,3.9.935,4.5,1.148,4.893,1.678,12.4,5.1,16.918,6.795,6.244,2.345,18.081,8.252,20.361,5.923s0-5.877,0-5.877,8.021.451,12.787-2.072,1.106-10.78,1.106-10.78,20.424,6.309,21.409,1.946c1.295-5.734-27.465-16.135-38.316-19.094-9.287-2.523-26.926-5.609-33.532-6.636h-.069l-.189-.035c-.183,0-1.535-.359-3.38-.824-1.9,2.661-4.411,7.379-6.164,15.2A39.943,39.943,0,0,0,569.712,1263.605Z" transform="translate(-299.929 -1010.666)" fill="#fff"/><path d="M613.042,1277.6a2.984,2.984,0,0,0,1.223-.135,3.031,3.031,0,0,0,1.069-.608c1.8-1.837,1.255-4.234.688-5.625,2.469,0,8.141-.167,11.951-2.191,4.068-2.156,2.819-7.695,1.948-10.321,4.3,1.256,16.3,4.466,19.817,2.432a2.242,2.242,0,0,0,.711-.6,2.211,2.211,0,0,0,.406-.838c1.621-7.2-32.484-18.213-38.825-19.937-9.224-2.513-26.927-5.62-33.607-6.652H578.2c-.1,0-.527-.111-3.357-.822a.722.722,0,0,0-.42.022.713.713,0,0,0-.336.254c-1.874,2.626-4.486,7.454-6.3,15.482a40.835,40.835,0,0,0-.876,13.763.7.7,0,0,0,.2.419.712.712,0,0,0,.42.205c1.295.162,4.331.546,4.732.638l.384.092.217.052c2.332.543,3.9.94,4.428,1.146,2.784.959,6.405,2.477,9.906,3.939,2.6,1.1,5.059,2.124,7,2.869,1.38.516,3.054,1.221,4.824,1.959C605.228,1275.658,610.149,1277.6,613.042,1277.6Zm1.787-7.838a.712.712,0,0,0-.63.375.717.717,0,0,0,.028.732s1.913,3.1.069,4.982c-1.432,1.462-9.739-2.024-14.723-4.1-1.787-.751-3.472-1.456-4.881-1.986-1.908-.716-4.354-1.718-6.943-2.826-3.518-1.481-7.156-3-9.992-3.98-.728-.246-2.864-.767-4.583-1.146l-.212-.046-.4-.1c-.315-.07-1.541-.243-4.314-.576a39.927,39.927,0,0,1,.911-12.729c1.656-7.4,4.01-11.945,5.769-14.541,2.693.675,2.865.71,2.962.721h.252c6.645,1.027,24.291,4.123,33.452,6.617a194.068,194.068,0,0,1,23.609,8.465c13.927,6.071,14.426,9.035,14.254,9.789a.753.753,0,0,1-.156.3.745.745,0,0,1-.274.205c-2.985,1.721-15.5-1.564-20.052-2.98a.709.709,0,0,0-.4,0,.718.718,0,0,0-.341.213.734.734,0,0,0-.172.368.723.723,0,0,0,.051.4c.034.073,3.328,7.671-.785,9.857-4.532,2.4-12.334,1.989-12.415,1.989Z" transform="translate(-297.868 -1008.761)" fill="#313131"/><path d="M658.716,1332.632a.746.746,0,0,0,.384-.122.724.724,0,0,0,.315-.705.733.733,0,0,0-.166-.368,21.7,21.7,0,0,0-3.713-2.764c-3.644-2.418-9.166-6.071-7.6-8.641,2.229-3.688,18.379-1.848,24.492-.281a.721.721,0,0,0,.528-.092.716.716,0,0,0,.246-.962.72.72,0,0,0-.419-.335c-2.756-.705-22.916-4.353-26.073.929-2.257,3.745,3.7,7.7,8.021,10.575a23.509,23.509,0,0,1,3.437,2.515.689.689,0,0,0,.247.186A.768.768,0,0,0,658.716,1332.632Z" transform="translate(-341.72 -1070.212)" fill="#313131"/><path d="M670.121,1330.07c7.075,0,9.923-2.237,11.04-4.312a5.914,5.914,0,0,0-.384-6.2.7.7,0,0,0-.215-.2.675.675,0,0,0-.276-.1.722.722,0,0,0-.55.157.755.755,0,0,0-.182.229.72.72,0,0,0,.124.822,4.557,4.557,0,0,1,.223,4.588c-1.6,2.975-6.726,4.134-14.42,3.272a.743.743,0,0,0-.289.011.687.687,0,0,0-.262.124.7.7,0,0,0-.192.216.717.717,0,0,0-.064.565.688.688,0,0,0,.138.254.7.7,0,0,0,.228.178.677.677,0,0,0,.28.075A43.147,43.147,0,0,0,670.121,1330.07Z" transform="translate(-355.262 -1072.238)" fill="#313131"/><path d="M477.562,1564.33H600.507v7.474H477.562Z" transform="translate(-223.408 -1251.096)" fill="#fff"/><path d="M475.625,1570.636H598.57a.718.718,0,0,0,.716-.716v-7.454a.719.719,0,0,0-.21-.508.712.712,0,0,0-.506-.208H475.625a.713.713,0,0,0-.716.716v7.454a.718.718,0,0,0,.716.716Zm122.229-1.432H476.341v-6.038H597.854Z" transform="translate(-221.471 -1249.213)" fill="#313131"/><path d="M281.24,1254.62H159.876l-26.852,91.025H254.388Z" transform="translate(188.864 -1025.065)" fill="#fff"/><path d="M590.734,1254.62h-6.926l-26.852,91.025h7.1Z" transform="translate(-235.068 -1025.065)" fill="#fff" opacity="0.15"/><path d="M131.087,1344.369H252.45a.7.7,0,0,0,.428-.141.719.719,0,0,0,.259-.368l26.852-91.055a.717.717,0,0,0-.115-.63.737.737,0,0,0-.253-.211.728.728,0,0,0-.32-.076H157.939a.706.706,0,0,0-.43.143.714.714,0,0,0-.258.373L130.4,1343.429a.722.722,0,0,0-.017.33.71.71,0,0,0,.131.3.716.716,0,0,0,.573.286Zm120.831-1.432H132.044l26.428-89.591H278.346Z" transform="translate(190.801 -1023.073)" fill="#313131"/><path d="M555.019,1344.369h7.1a.7.7,0,0,0,.428-.141.719.719,0,0,0,.259-.368l26.674-91.055a.718.718,0,0,0-.114-.63.718.718,0,0,0-.573-.287h-6.926a.705.705,0,0,0-.43.143.714.714,0,0,0-.258.373l-26.852,91.023a.721.721,0,0,0-.017.33.707.707,0,0,0,.132.3.715.715,0,0,0,.573.286Zm6.566-1.432h-5.609l26.428-89.591h5.431Z" transform="translate(-233.131 -1023.073)" fill="#313131"/><path d="M344.668,1399.254c-5.4-2.437-7.185-10.151-3.995-17.23s10.151-10.84,15.547-8.406,7.185,10.151,3.995,17.23S350.064,1401.688,344.668,1399.254Z" transform="translate(52.681 -1111.371)" fill="#fff"/><path d="M346.234,1398.787c4.893,0,10.077-3.688,12.724-9.559a17.122,17.122,0,0,0,1.266-10.81,9.752,9.752,0,0,0-14.855-6.709,17.12,17.12,0,0,0-7.259,8.1c-3.346,7.425-1.392,15.579,4.354,18.178A9.2,9.2,0,0,0,346.234,1398.787Zm4.583-27.108a7.812,7.812,0,0,1,3.208.678,8.9,8.9,0,0,1,4.818,6.382,15.735,15.735,0,0,1-1.18,9.9c-3.019,6.709-9.568,10.321-14.6,8.027s-6.663-9.57-3.638-16.279a15.672,15.672,0,0,1,6.634-7.454,10.049,10.049,0,0,1,4.744-1.251Z" transform="translate(54.594 -1109.451)" fill="#313131"/><path d="M1028.715,1539.3H974.966s1.8-21.6,28.959-19.135A28.275,28.275,0,0,1,1028.715,1539.3Z" transform="translate(-785.887 -1218.724)" fill="#fff"/><path d="M1028.715,1539.3H974.966s1.8-21.6,28.959-19.135A28.275,28.275,0,0,1,1028.715,1539.3Z" transform="translate(-785.887 -1218.724)" fill="#fff"/><path d="M973.026,1538.093h53.749a.712.712,0,0,0,.573-.281.714.714,0,0,0,.132-.3.7.7,0,0,0-.017-.327,29.217,29.217,0,0,0-25.415-19.651c-9.3-.843-16.7.992-22.011,5.452a22.7,22.7,0,0,0-7.72,14.336.725.725,0,0,0,.181.543.757.757,0,0,0,.24.173A.7.7,0,0,0,973.026,1538.093Zm52.763-1.432H973.873A21.777,21.777,0,0,1,981,1524.046c5-4.2,12.031-5.92,20.945-5.109a27.723,27.723,0,0,1,23.844,17.724Z" transform="translate(-783.947 -1216.797)" fill="#313131"/><path d="M1004.244,1564.2a.705.705,0,0,0,.269-.052.722.722,0,0,0,.234-.151.738.738,0,0,0,.157-.232.722.722,0,0,0,0-.552,32.767,32.767,0,0,0-6.824-9.9.716.716,0,0,0-.507-.208.813.813,0,0,0-.275.057.751.751,0,0,0-.23.157.7.7,0,0,0-.154.235.705.705,0,0,0,0,.548.711.711,0,0,0,.156.233,32.069,32.069,0,0,1,6.508,9.421.694.694,0,0,0,.259.324A.683.683,0,0,0,1004.244,1564.2Z" transform="translate(-768.045 -1242.9)" fill="#313131"/><path d="M128.589,490.387v29.967l10.828-23.969a13.4,13.4,0,0,1,11.16-6h72.392a22.233,22.233,0,0,0,22.217-22.243V429.811a22.233,22.233,0,0,0-22.217-22.243H150.783a22.233,22.233,0,0,0-22.194,22.243Z" transform="translate(226.115 -406.874)" fill="#fff"/><path d="M126.722,519.208a.711.711,0,0,0,.653-.419L138.18,494.86a12.646,12.646,0,0,1,10.53-5.619H221.1A22.972,22.972,0,0,0,244.018,466.3V427.937A22.978,22.978,0,0,0,221.1,405H148.916A22.978,22.978,0,0,0,126,427.937v90.554a.722.722,0,0,0,.573.705A.67.67,0,0,0,126.722,519.208Zm94.38-112.8a21.54,21.54,0,0,1,21.5,21.526v38.344a21.54,21.54,0,0,1-21.5,21.526H148.71a14.078,14.078,0,0,0-11.756,6.307.447.447,0,0,0-.052.1l-9.476,20.953V427.937a21.539,21.539,0,0,1,21.507-21.526Z" transform="translate(227.982 -405)" fill="#313131"/><path d="M249.891,502.15h17.829V523H249.891ZM214,490.395h17.829V523H214Zm-35.881-22.851h17.829V523H178.123Z" transform="translate(190.21 -450.645)" fill="#fecd07"/><path d="M247.954,511.785h17.829a.717.717,0,0,0,.716-.717V490.219a.717.717,0,0,0-.716-.717H247.954a.717.717,0,0,0-.716.717v20.849a.717.717,0,0,0,.716.717Zm17.112-1.434h-16.4V490.935h16.4Zm-53,1.434H229.9a.716.716,0,0,0,.716-.717v-32.6a.716.716,0,0,0-.716-.717H212.067a.716.716,0,0,0-.716.717v32.6a.717.717,0,0,0,.716.717Zm17.112-1.434h-16.4V479.18h16.4Zm-52.993,1.433h17.829a.716.716,0,0,0,.716-.717V455.612a.716.716,0,0,0-.716-.717H176.186a.716.716,0,0,0-.716.717v55.455a.716.716,0,0,0,.442.662A.708.708,0,0,0,176.186,511.784Zm17.112-1.434H176.879V456.329H193.3Zm68.181-43.384a.728.728,0,0,0,.447-.155.717.717,0,0,0,.114-1.009L250.68,451.467a.716.716,0,1,0-1.123.889l11.361,14.336a.716.716,0,0,0,.561.275Zm-.9-10.648a2.493,2.493,0,1,0-1.762-.731A2.491,2.491,0,0,0,260.58,456.318Zm0-3.555a1.06,1.06,0,1,1-.749.311A1.06,1.06,0,0,1,260.58,452.763Zm-8.914,14.2a2.493,2.493,0,1,0-1.762-.731A2.492,2.492,0,0,0,251.666,466.966Zm0-3.549a1.053,1.053,0,1,1-.405.079A1.058,1.058,0,0,1,251.666,463.417Z" transform="translate(192.147 -438.714)" fill="#313131"/><path d="M175.109,461.514h11.555a6.878,6.878,0,0,0,6.875-6.881V443.079a6.878,6.878,0,0,0-6.875-6.881H175.109a6.878,6.878,0,0,0-6.875,6.881v11.566a6.878,6.878,0,0,0,6.875,6.869Zm11.555-23.865a5.434,5.434,0,0,1,5.425,5.43v11.566a5.439,5.439,0,0,1-5.425,5.436H175.109a5.434,5.434,0,0,1-5.425-5.436V443.079a5.433,5.433,0,0,1,5.425-5.43Z" transform="translate(267.06 -427.769)" fill="#313131"/><path d="M244.553,901.627V921.8l7.3-16.141a9.019,9.019,0,0,1,7.511-4.015h46.457a14.968,14.968,0,0,0,14.958-14.977v-25.8a14.965,14.965,0,0,0-14.958-14.972h-46.3a14.968,14.968,0,0,0-14.964,14.972Z" transform="translate(119.22 -726.768)" fill="#fff"/><path d="M242.616,920.531a.7.7,0,0,0,.67-.419l7.276-16.09a8.279,8.279,0,0,1,6.875-3.664h46.445a15.7,15.7,0,0,0,15.675-15.694v-25.8a15.7,15.7,0,0,0-15.675-15.688h-46.3a15.7,15.7,0,0,0-15.68,15.688v60.954a.722.722,0,0,0,.573.705Zm61.266-75.937a14.266,14.266,0,0,1,14.242,14.255v25.8a14.266,14.266,0,0,1-14.242,14.26H257.426a9.743,9.743,0,0,0-8.107,4.347.913.913,0,0,0-.057.1l-5.93,13.12V858.849a14.266,14.266,0,0,1,14.248-14.255Z" transform="translate(121.157 -724.784)" fill="#313131"/><path d="M304.869,890.733H348.53v31.079H304.869Z" transform="translate(75.186 -759.495)" fill="#079b7e"/><path d="M302.932,920.595h43.661a.718.718,0,0,0,.716-.719V888.8a.716.716,0,0,0-.716-.717H302.932a.716.716,0,0,0-.716.717v31.078a.718.718,0,0,0,.716.719ZM345.9,919.16H303.648V889.515h42.228Z" transform="translate(77.123 -757.56)" fill="#313131"/><path d="M324.789,909.111a.7.7,0,0,0,.475-.183L347.1,889.311a.717.717,0,0,0-.957-1.067l-21.352,19.187-21.352-19.187a.717.717,0,1,0-.957,1.067l21.828,19.617A.732.732,0,0,0,324.789,909.111Z" transform="translate(77.1 -757.54)" fill="#313131"/><path d="M748.825,645.327v20.821l-7.534-16.663a9.3,9.3,0,0,0-7.751-4.157H662.431a15.474,15.474,0,0,1-15.468-15.482V603.227a15.475,15.475,0,0,1,15.468-15.454h70.954a15.475,15.475,0,0,1,15.44,15.454Z" transform="translate(-417.455 -538.39)" fill="#fff"/><path d="M746.84,664.929a.633.633,0,0,0,.149,0,.71.71,0,0,0,.573-.7V601.291a16.18,16.18,0,0,0-16.156-16.17h-70.96a16.181,16.181,0,0,0-16.156,16.17v26.647a16.181,16.181,0,0,0,16.156,16.17h71.109a8.59,8.59,0,0,1,7.109,3.79l7.505,16.629a.723.723,0,0,0,.67.4ZM731.4,586.555a14.748,14.748,0,0,1,14.724,14.737v59.6l-6.164-13.636a.587.587,0,0,0-.057-.1,10,10,0,0,0-8.347-4.479H660.446a14.745,14.745,0,0,1-14.723-14.737V601.291a14.746,14.746,0,0,1,14.723-14.737Z" transform="translate(-415.47 -536.455)" fill="#313131"/><path d="M765.806,657.4a.717.717,0,0,0,.412-1.307l-6.445-4.5a.715.715,0,0,0-.9.069l-4.165,4.014-5.643-5.1a.72.72,0,0,0-.573-.178.7.7,0,0,0-.284.094.709.709,0,0,0-.22.2l-3.329,4.736-19.4-26.3a.721.721,0,0,0-.779-.264.712.712,0,0,0-.51.648l-1.461,25.3-32.083-38.207a.717.717,0,0,0-1.094.923l33.257,39.566a.716.716,0,0,0,1.26-.419L725.3,631.57l18.8,25.552a.694.694,0,0,0,.9.209.72.72,0,0,0,.25-.221l3.437-4.886,5.54,5.006a.721.721,0,0,0,.98,0l4.228-4.123,5.958,4.157A.705.705,0,0,0,765.806,657.4Z" transform="translate(-446.553 -559.274)" fill="#313131"/><path d="M933,627.457a.717.717,0,0,0,.716-.717v-8.779l9.527,1.244a.717.717,0,0,0,.189-1.422l-10.341-1.33a.745.745,0,0,0-.573.172.725.725,0,0,0-.246.539v9.6a.717.717,0,0,0,.728.694Z" transform="translate(-689.706 -559.317)" fill="#313131"/><path d="M1503.15,807.874l32.323,34.284-3.993-30.918,8.787-31.922-25.086-9.089Z" transform="translate(-1440.018 -671.549)" fill="#fff"/><path d="M1533.6,840.893a.756.756,0,0,0,.3-.086.718.718,0,0,0,.4-.74l-3.976-30.781,8.754-31.785a.727.727,0,0,0-.057-.52.716.716,0,0,0-.392-.346l-25.091-9.083a.7.7,0,0,0-.575.029.729.729,0,0,0-.227.174.681.681,0,0,0-.138.25l-12.031,37.645a.687.687,0,0,0-.016.377.711.711,0,0,0,.175.334l32.323,34.284a.753.753,0,0,0,.248.184A.733.733,0,0,0,1533.6,840.893Zm3.931-63.117-8.6,31.286a.707.707,0,0,0,0,.281l3.714,28.735L1502.123,805.7l11.675-36.532Z" transform="translate(-1438.143 -669.56)" fill="#313131"/><path d="M1518.21,780.195s-7.763-.281-23.72-3.441l9.386-6.525,20.318,5.258Z" transform="translate(-1421.608 -671.549)" fill="#313131"/><path d="M1476.008,648.341c-.5,7.3,2.481,15.992,1.976,16.526-.71.745-3.029-.12-3.145.671s-2.926,17.954-17.473,15.161a27.686,27.686,0,0,1-19.69-15.27l13.405-30.729Z" transform="translate(-1360.118 -572.638)" fill="#fff"/><path d="M1458.646,679.772a12.631,12.631,0,0,0,7.494-2.334c5.666-4.014,7.288-11.938,7.559-13.487a6.581,6.581,0,0,1,.675,0,2.879,2.879,0,0,0,2.292-.545c.44-.458.292-1.147-.259-3.7-.675-3.125-1.8-8.349-1.517-13.274a.717.717,0,0,0-.372-.671l-24.926-13.642a.722.722,0,0,0-.284-.082.714.714,0,0,0-.289.037.71.71,0,0,0-.424.388l-13.408,30.73a.721.721,0,0,0,0,.573,28.67,28.67,0,0,0,20.219,15.695A16.7,16.7,0,0,0,1458.646,679.772ZM1474,662.512c-.721,0-1.552.12-1.679.975,0,.086-1.339,8.756-7.01,12.781a12.029,12.029,0,0,1-9.615,1.778,27.218,27.218,0,0,1-19.042-14.571l12.965-29.72,23.849,13.051a53.663,53.663,0,0,0,1.563,13.189c.219.992.435,2.007.48,2.477a5.694,5.694,0,0,1-1.088.034Z" transform="translate(-1358.311 -570.691)" fill="#313131"/><path d="M1458.37,707.984a.719.719,0,0,0,.394-.118.729.729,0,0,0,.267-.313,4.209,4.209,0,0,1,1.231-1.617,2.445,2.445,0,0,1,1.838-.424.718.718,0,1,0,.389-1.382,3.891,3.891,0,0,0-3.007.608,5.594,5.594,0,0,0-1.771,2.248.726.726,0,0,0-.057.347.717.717,0,0,0,.375.568A.709.709,0,0,0,1458.37,707.984Zm3.107,2.058a.734.734,0,1,1,.732-.734A.734.734,0,0,1,1461.477,710.043Zm-.534,9.909h.137a.711.711,0,0,0,.5-.226.724.724,0,0,0,.194-.514.718.718,0,0,0-.74-.694,4.1,4.1,0,0,1-4.044-3.1.718.718,0,1,0-1.388.367,5.525,5.525,0,0,0,5.34,4.169Z" transform="translate(-1349.923 -623.25)" fill="#313131"/><path d="M1477.156,744.014a2.155,2.155,0,0,0,1.717-1.038.718.718,0,0,0-.235-.986.717.717,0,0,0-.985.235c-.051.08-.308.453-.669.327a.718.718,0,1,0-.464,1.359A1.9,1.9,0,0,0,1477.156,744.014Z" transform="translate(-1371.411 -650.863)" fill="#313131"/><path d="M1433.56,634.925l34.615,21.973,3.531-21.532.175-.384c-1.363-.654-2.462-2.489-2.67-4.736-.281-2.942,1.05-5.47,2.98-5.654,1.323-.126,2.583.895,3.328,2.512l.167-.35a28.055,28.055,0,0,1,7.613-5.694c4.962-2.414,9.443-1.479,17.622-1.972,0,0-2.022-22.638-25.339-24.657C1449.568,592.137,1433.56,634.925,1433.56,634.925Z" transform="translate(-1381.887 -543.184)" fill="#313131"/><path d="M1466.337,655.618a.777.777,0,0,0,.3-.057.726.726,0,0,0,.27-.219.7.7,0,0,0,.141-.32l3.512-21.44.132-.292a.715.715,0,0,0,.027-.543.706.706,0,0,0-.364-.4c-1.147-.573-2.087-2.242-2.292-4.163a5.743,5.743,0,0,1,.991-4.083,2.07,2.07,0,0,1,1.342-.785c.98-.1,1.976.705,2.619,2.093a.709.709,0,0,0,1.293.006l.122-.252a27.721,27.721,0,0,1,7.321-5.453c3.369-1.634,6.56-1.668,10.979-1.72,1.86,0,3.963-.04,6.376-.184a.706.706,0,0,0,.5-.252.736.736,0,0,0,.173-.528c0-.235-2.349-23.263-25.993-25.328-10.884-.958-21.771,5.861-31.41,19.708a109.335,109.335,0,0,0-11.346,21.274.727.727,0,0,0-.008.479.7.7,0,0,0,.3.376l34.615,21.973A.711.711,0,0,0,1466.337,655.618Zm2.818-22.317-3.345,20.431-33.227-21.079c1.971-4.92,17.489-41.579,41.077-39.514,20.1,1.755,23.982,19.439,24.586,23.292-2.062.1-3.9.121-5.534.138-4.583.051-7.933.086-11.589,1.858a28.473,28.473,0,0,0-7.38,5.39,3.866,3.866,0,0,0-3.482-1.921,3.4,3.4,0,0,0-2.292,1.3,7.148,7.148,0,0,0-1.317,5.132A7.035,7.035,0,0,0,1469.155,633.3Z" transform="translate(-1380.049 -541.187)" fill="#313131"/><path d="M1538.846,739.154a3.171,3.171,0,1,1,3.169-3.171A3.168,3.168,0,0,1,1538.846,739.154Z" transform="translate(-1450.548 -644.242)" fill="#fecd07"/><path d="M1536.919,737.955a3.891,3.891,0,1,0-3.825-4.587,3.88,3.88,0,0,0,1.711,3.961,3.882,3.882,0,0,0,1.409.557A3.669,3.669,0,0,0,1536.919,737.955Zm0-6.348a2.92,2.92,0,0,1,.443.04,2.455,2.455,0,0,1,1.965,1.905,2.508,2.508,0,0,1,.011.962,2.453,2.453,0,0,1-.34.91,2.449,2.449,0,0,1-1.549,1.1,2.463,2.463,0,0,1-.972.019,2.464,2.464,0,0,1-1.593-1.04,2.489,2.489,0,0,1,2.035-3.885Z" transform="translate(-1448.615 -642.321)" fill="#313131"/><path d="M865.075,1190.57,883.18,1242.6s49.464-.44,66.352,1.664c18.213,2.294,32.576,8.365,45.644,20.8,8.468,8.057,11.383,14.949,10.123,15.879-1.988,1.467-9.779-8.411-9.779-8.411s9.384,12.964,7.064,14.977c-1.6,1.389-5.311-2.259-5.311-2.259s2.864,4.644,1.077,5.733c-2.687,1.594-8.479-6.5-8.479-6.5s1.209,2.867.069,3.91c-2.292,2.121-11.212-8.262-19.737-14.852-5.58-4.307-11.681-6.417-13.045-6.514-3.436-.246,14.048,10.421,9.3,14.188-4.027,3.188-19.645-11.234-26.542-12.953s-91.343,9.367-91.343,9.367l-23.439-77.9Z" transform="translate(-722.305 -978.32)" fill="#fff"/><path d="M995.488,1289.946a2.165,2.165,0,0,0,1.146-.3,1.947,1.947,0,0,0,.554-.508,1.885,1.885,0,0,0,.311-.686,5.015,5.015,0,0,0-.332-2.667c1.277.765,2.761,1.251,3.81.34,1.421-1.235,0-4.807-2.051-8.424,1.9,1.675,3.678,2.667,4.726,1.9a1.5,1.5,0,0,0,.573-1.186c.166-2.6-3.5-9.019-10.621-15.792-12.753-12.14-26.927-18.613-46.05-20.994-15.819-1.972-60.613-1.718-65.936-1.672l-17.932-51.541a.707.707,0,0,0-.329-.389.691.691,0,0,0-.507-.068l-39.935,9.121a.731.731,0,0,0-.464.338.749.749,0,0,0-.092.281.723.723,0,0,0,.03.294l23.431,77.9a.713.713,0,0,0,.3.395.722.722,0,0,0,.48.111c29.167-3.831,85.731-10.724,91.092-9.386,2.71.675,7.054,3.561,11.251,6.347,6.743,4.474,13.115,8.695,15.905,6.474a2.711,2.711,0,0,0,1.094-2.126c.075-2.959-4.262-6.765-7.745-9.829-.682-.573-1.455-1.278-2.027-1.824a37.976,37.976,0,0,1,11.543,6.114c2.939,2.294,5.993,5.058,8.685,7.516,6.01,5.493,9.98,9.124,11.974,7.3a2.421,2.421,0,0,0,.711-1.67C990.8,1287.382,993.4,1289.946,995.488,1289.946Zm-.315-7.338a.724.724,0,0,0-.447.154.717.717,0,0,0-.161.935c.716,1.146,1.765,3.4,1.518,4.409a.433.433,0,0,1-.065.176.428.428,0,0,1-.135.127c-1.45.862-5.351-3.25-7.528-6.306a.732.732,0,0,0-.427-.284.72.72,0,0,0-.506.076.714.714,0,0,0-.309.9c.407.967.762,2.626.24,3.107-1.031.94-6.239-3.82-10.043-7.3-2.71-2.477-5.786-5.285-8.771-7.6-5.729-4.415-11.922-6.555-13.429-6.663a1.028,1.028,0,0,0-1.145.573c-.34.827.451,1.572,3.253,4.015s7.31,6.423,7.253,8.716a1.279,1.279,0,0,1-.573,1.037c-1.982,1.578-8.77-2.929-14.225-6.549-4.5-2.98-8.749-5.8-11.694-6.536-6.719-1.681-82.8,8.2-91.011,9.273l-23.034-76.587,38.577-8.789,17.892,51.416a.7.7,0,0,0,.262.349.721.721,0,0,0,.416.135c.491,0,49.607-.419,66.255,1.656,18.775,2.34,32.725,8.7,45.26,20.61,8.255,7.833,10.524,13.858,10.129,14.793-.739.351-4.749-3.2-8.765-8.3a.718.718,0,1,0-1.146.865c4.8,6.625,8.152,13.19,7.184,14.014-.722.627-2.985-.894-4.343-2.229A.728.728,0,0,0,995.173,1282.608Z" transform="translate(-720.205 -976.396)" fill="#313131"/><path d="M874.008,1465.874a.717.717,0,0,0,.713-.781.729.729,0,0,0-.14-.368,53.883,53.883,0,0,0-10.232-10.143.717.717,0,0,0-.9.224.721.721,0,0,0-.133.476.712.712,0,0,0,.2.446,53.261,53.261,0,0,1,9.917,9.859.729.729,0,0,0,.567.286Zm1.754,12.718a.688.688,0,0,0,.424-.143.713.713,0,0,0,.285-.468.712.712,0,0,0-.012-.278.7.7,0,0,0-.118-.251c-3.082-4.22-11.257-15.42-16.614-19.962a.7.7,0,0,0-.245-.151.687.687,0,0,0-.285-.043.718.718,0,0,0-.279.073.7.7,0,0,0-.227.178.71.71,0,0,0-.139.251.729.729,0,0,0-.028.289.708.708,0,0,0,.087.273.7.7,0,0,0,.188.219c5.219,4.439,13.326,15.533,16.379,19.715a.721.721,0,0,0,.584.3Zm-7.4-.792a.716.716,0,0,0,.714-.67.712.712,0,0,0-.066-.349c-2.343-5.057-11.458-14.674-14.586-17.2a.723.723,0,0,0-.536-.149.727.727,0,0,0-.358,1.294c2.973,2.381,11.962,11.875,14.185,16.671a.721.721,0,0,0,.264.3A.686.686,0,0,0,868.36,1477.8Z" transform="translate(-600.794 -1170.948)" fill="#313131"/><path d="M972.855,1313.248s16.691,56.615,30.995,60.784a25.023,25.023,0,0,0,3.088.638h135.57c6.079-3.55,8.595-12.094,19.163-16.322,13.179-5.279,18.907.816,23.2,3.15,3.9,2.126,4.359-.913,4.359-.913,7.178,5,6.9.1,6.9.1s3.615,2.467,5.156.843c1.936-2.029-14.9-20.51-34.585-22.982s-34.037,13.188-42.127,13.871c-11.057.97-90.787-16.263-90.787-16.263l-16.161-41.922Z" transform="translate(-958.042 -1053.973)" fill="#fff"/><path d="M1004.883,1373.455h135.57a.742.742,0,0,0,.362-.1c2.532-1.481,4.462-3.775,6.5-6.2,3-3.561,6.387-7.6,12.563-10.07,10.884-4.353,16.442-.775,20.5,1.84.732.47,1.42.913,2.084,1.272,1.622.884,2.956,1.073,3.976.573a2.613,2.613,0,0,0,1.072-1.019c2.732,1.77,4.7,2.294,6,1.553a2.485,2.485,0,0,0,1.112-1.394c1.341.711,3.735,1.651,5.156.178a1.737,1.737,0,0,0,.16-1.881c-1.6-4.512-17.091-20.037-35.182-22.306-13.084-1.646-23.952,4.588-31.888,9.175-4.146,2.386-7.728,4.45-10.385,4.685-10.439.91-84.217-14.909-90.2-16.171l-16.043-41.563a.679.679,0,0,0-.151-.24.7.7,0,0,0-.232-.16.69.69,0,0,0-.286-.059.709.709,0,0,0-.286.059l-44.767,19.008a.714.714,0,0,0-.364.354.7.7,0,0,0-.041.505c.686,2.329,16.963,57.039,31.508,61.283a25.883,25.883,0,0,0,3.175.659Zm135.376-1.434H1004.934a23.21,23.21,0,0,1-2.94-.608c-12.987-3.8-28.468-53.572-30.323-59.7l43.493-18.481,15.894,41.228a.716.716,0,0,0,.521.443c3.161.681,75.668,16.314,89.9,16.319a9.025,9.025,0,0,0,1.1-.041c2.972-.265,6.5-2.294,10.976-4.874,8.193-4.72,18.383-10.591,30.995-9,15.8,1.983,29.217,14.209,32.947,19.5.985,1.41,1.174,2.132,1.146,2.345-.876.8-3.185-.311-4.188-.992a.713.713,0,0,0-.374-.124.72.72,0,0,0-.658.375.712.712,0,0,0-.085.384s.034.94-.573,1.262c-.4.219-1.72.465-5.232-1.989a.7.7,0,0,0-.342-.143.726.726,0,0,0-.37.051.708.708,0,0,0-.292.227.716.716,0,0,0-.14.346,1.392,1.392,0,0,1-.232.543,1.376,1.376,0,0,1-.432.4c-.575.276-1.484.087-2.643-.573-.618-.332-1.288-.762-1.992-1.221-4.011-2.6-10.188-6.544-21.736-1.956-6.514,2.6-10.026,6.79-13.133,10.478A26.2,26.2,0,0,1,1140.259,1372.02Z" transform="translate(-955.987 -1052.031)" fill="#313131"/><path d="M1015.785,1493.568a.718.718,0,0,0,.716-.719c0-2.632-10.283-15.171-25.781-17.516a.679.679,0,0,0-.286,0,.719.719,0,0,0-.264.114.729.729,0,0,0-.2.211.676.676,0,0,0-.1.27.687.687,0,0,0,.013.286.7.7,0,0,0,.127.257.733.733,0,0,0,.219.189.753.753,0,0,0,.273.086c15.252,2.294,24.55,14.444,24.55,16.1a.731.731,0,0,0,.055.278.711.711,0,0,0,.158.233.707.707,0,0,0,.514.208Z" transform="translate(-777.695 -1186.134)" fill="#313131"/><path d="M1038.643,1501.893h.086a.723.723,0,0,0,.475-.27.715.715,0,0,0,.149-.527c-.653-5.161-8.152-11.78-23.078-14.233a.717.717,0,0,0-.235,1.416c15.171,2.488,21.4,9.135,21.892,12.993a.7.7,0,0,0,.238.446A.719.719,0,0,0,1038.643,1501.893Z" transform="translate(-807.456 -1194.552)" fill="#313131"/><path d="M1397.055,912.987l4.008,30.926-32.323-34.292s-41.012,17.117-56.413,34.292,3.917,104.454,3.917,104.454,2.025-12.245,8.182-12.526,7.38,3.591,14.2-1.948,3.9-13.141,15.1-10.661c10.884,2.421,12.93-5.882,12.93-5.882l14.7,38.136,57.338,11.556-6.978-63.207a10.139,10.139,0,0,0,8.97.721c5.115-1.956,5.442-6.193,10.312-5.784a13.738,13.738,0,0,1,7.969,3.515s-26.163-65.077-33.875-71.208S1397.055,912.987,1397.055,912.987Z" transform="translate(-1305.592 -773.28)" fill="#fff"/><path d="M1436.86,1065.8a.728.728,0,0,0,.489-.189.72.72,0,0,0,.224-.608l-6.808-61.864a10.983,10.983,0,0,0,8.366.13,13.8,13.8,0,0,0,4.962-3.439c1.512-1.462,2.6-2.524,5.034-2.294a13.192,13.192,0,0,1,7.529,3.31.716.716,0,0,0,1.145-.775c-1.069-2.667-26.325-65.328-34.091-71.5-7.661-6.09-27.936-18.045-28.141-18.166a.719.719,0,0,0-.759.022.706.706,0,0,0-.253.3.715.715,0,0,0-.06.39l3.712,28.735L1367.4,907.156a.716.716,0,0,0-.373-.206.723.723,0,0,0-.424.04c-.41.172-41.339,17.375-56.669,34.468-15.47,17.249,2.961,101.5,3.752,105.091a.711.711,0,0,0,.254.413.721.721,0,0,0,.462.16.713.713,0,0,0,.688-.573c0-.121,2-11.675,7.51-11.928a15.392,15.392,0,0,1,4.681.573c2.737.667,5.1,1.24,9.934-2.688a18.824,18.824,0,0,0,4.824-6.371c1.868-3.51,3-5.62,9.659-4.145,8.193,1.818,11.71-2.213,13.057-4.68l14.088,36.459a.727.727,0,0,0,.205.289.708.708,0,0,0,.321.151l57.352,11.572Zm-6.978-64.642a.712.712,0,0,0-.289.065.729.729,0,0,0-.24.173.713.713,0,0,0-.149.259.678.678,0,0,0-.032.295l6.875,62.234-56.008-11.3-14.563-37.772a.715.715,0,0,0-1.126-.292.728.728,0,0,0-.237.378c-.073.311-2.038,7.587-12.075,5.355-7.736-1.718-9.356,1.337-11.235,4.869a17.572,17.572,0,0,1-4.47,5.936c-4.279,3.475-6.033,3.051-8.689,2.408a16.527,16.527,0,0,0-5.089-.619c-4.584.211-7.019,6.117-8.112,9.943-3.247-15.757-16.763-85.8-3.436-100.682,14.258-15.9,51.181-31.956,55.708-33.911l31.986,33.925a.715.715,0,0,0,.82.157.712.712,0,0,0,.324-.3.724.724,0,0,0,.086-.432l-3.809-29.467c4.584,2.718,20.24,12.151,26.714,17.306,6.646,5.282,27.877,56.718,32.655,68.517a14.3,14.3,0,0,0-6.3-2.1c-3.077-.259-4.584,1.186-6.155,2.718a12.415,12.415,0,0,1-4.473,3.113,9.364,9.364,0,0,1-8.309-.643A.7.7,0,0,0,1429.882,1001.155Z" transform="translate(-1303.767 -771.319)" fill="#313131"/><path d="M1479.787,1188.173h.084a.7.7,0,0,0,.478-.27.722.722,0,0,0,.148-.527l-3.1-25.495a.712.712,0,0,0-.081-.276.749.749,0,0,0-.181-.222.759.759,0,0,0-.254-.132.729.729,0,0,0-.286-.024.747.747,0,0,0-.27.092.764.764,0,0,0-.216.189.718.718,0,0,0-.121.26.733.733,0,0,0-.014.287l3.1,25.495a.717.717,0,0,0,.24.443A.707.707,0,0,0,1479.787,1188.173Zm-65.078,13.5a.64.64,0,0,0,.213-.035.712.712,0,0,0,.5-.622.74.74,0,0,0-.03-.278l-9.316-29.383a.718.718,0,0,0-1.323-.111.7.7,0,0,0-.046.548l9.321,29.38a.688.688,0,0,0,.259.362A.7.7,0,0,0,1414.709,1201.672Z" transform="translate(-1353.669 -956.903)" fill="#313131"/><path d="M1569.44,1138.711l25.151-3.321,1.476,11.2-25.15,3.321Z" transform="translate(-1513.712 -938.05)" fill="#fecd07"/><path d="M1568.9,1148.8h.1l25.145-3.321a.716.716,0,0,0,.265-.086.686.686,0,0,0,.21-.184.708.708,0,0,0,.124-.251.7.7,0,0,0,.019-.281l-1.479-11.2a.7.7,0,0,0-.27-.478.757.757,0,0,0-.251-.124.7.7,0,0,0-.281-.016l-25.156,3.313a.723.723,0,0,0-.47.276.683.683,0,0,0-.127.249.7.7,0,0,0-.016.281l1.479,11.21a.7.7,0,0,0,.237.443A.716.716,0,0,0,1568.9,1148.8Zm24.349-4.663-23.731,3.131-1.29-9.781,23.731-3.1Z" transform="translate(-1511.676 -936.19)" fill="#313131"/><path d="M1456.271,981.8h.086l15.347-1.9a.682.682,0,0,0,.272-.084.734.734,0,0,0,.216-.181.713.713,0,0,0,.129-.254.722.722,0,0,0,.022-.284.71.71,0,0,0-.089-.267.721.721,0,0,0-.189-.214.744.744,0,0,0-.254-.124.777.777,0,0,0-.283-.013l-15.349,1.9a.716.716,0,0,0-.4,1.232.717.717,0,0,0,.491.195Zm4.43,2.745h.084l7.61-.916a.744.744,0,0,0,.267-.087.756.756,0,0,0,.213-.181.791.791,0,0,0,.127-.251.74.74,0,0,0,.021-.278.716.716,0,0,0-.086-.267.764.764,0,0,0-.181-.214.679.679,0,0,0-.248-.127.707.707,0,0,0-.281-.024l-7.612.913a.71.71,0,0,0-.462.254.715.715,0,0,0,.548,1.173Zm29.3-35.808a.523.523,0,0,0,.159,0,.711.711,0,0,0,.289-.138.745.745,0,0,0,.2-.249c4.967-10.178,17.56-9.856,17.684-9.856a.712.712,0,0,0,.4-.1.734.734,0,0,0,.281-.3.757.757,0,0,0,.065-.407.722.722,0,0,0-.17-.376l-13.562-15.362a.724.724,0,0,0-.221-.17.735.735,0,0,0-.273-.072.711.711,0,0,0-.278.037.743.743,0,0,0-.243.141.708.708,0,0,0-.167.223.683.683,0,0,0-.073.271.742.742,0,0,0,.037.278.714.714,0,0,0,.14.243l12.558,14.215c-3.625.264-12.6,1.719-17.06,9.852-3.436-2.461-19.393-12.794-38.046-8.935l1.5-21.951a.748.748,0,0,0-.024-.288.758.758,0,0,0-.132-.256.736.736,0,0,0-.227-.182.717.717,0,0,0-.276-.079.734.734,0,0,0-.289.038.7.7,0,0,0-.246.148.714.714,0,0,0-.17.234.728.728,0,0,0-.065.282l-1.563,22.937a.714.714,0,0,0,.057.316.679.679,0,0,0,.194.257.707.707,0,0,0,.626.157c20.737-4.806,38.292,8.824,38.47,8.967A.734.734,0,0,0,1490,948.739Z" transform="translate(-1394.543 -777.406)" fill="#313131"/><path d="M1324.4,1152.8h.04a.726.726,0,0,0,.653-.778l-10-117.552a.708.708,0,0,0-.073-.276.663.663,0,0,0-.173-.224.692.692,0,0,0-.248-.143.715.715,0,0,0-.556.048.676.676,0,0,0-.219.181.7.7,0,0,0-.135.251.723.723,0,0,0-.024.284l10.015,117.533a.721.721,0,0,0,.715.676Zm-15.163-106.259a2.962,2.962,0,0,0,2.9-3.537,3,3,0,0,0-.81-1.516,2.958,2.958,0,1,0-2.089,5.052Zm0-4.485a1.525,1.525,0,0,1,.3,3.021,1.524,1.524,0,0,1-1.822-1.494,1.527,1.527,0,0,1,1.525-1.527Zm2.926,43.822a2.965,2.965,0,1,0-2.089-.87A2.944,2.944,0,0,0,1312.162,1085.877Zm0-4.485a1.525,1.525,0,0,1,1.077,2.6,1.522,1.522,0,0,1-2.343-.233,1.526,1.526,0,0,1,1.266-2.372Zm3.8,42.341a2.955,2.955,0,0,0,2.729-1.829,2.992,2.992,0,0,0,.165-1.71,2.956,2.956,0,1,0-2.894,3.539Zm0-4.482a1.522,1.522,0,0,1,1.4.946,1.512,1.512,0,0,1,.086.881,1.527,1.527,0,0,1-1.2,1.194,1.532,1.532,0,0,1-1.563-.649,1.526,1.526,0,0,1,1.271-2.372Zm50.49-29.51s4.686,1.221,5.89,3.167c0,0-.75,1.851-4.165,1.8Z" transform="translate(-1218.947 -863.901)" fill="#313131"/><path d="M1442.357,1244.615c3.736,0,4.651-2.148,4.692-2.24a.7.7,0,0,0,.049-.332.735.735,0,0,0-.105-.316c-1.312-2.134-5.809-3.355-6.3-3.488a.73.73,0,0,0-.381.005.7.7,0,0,0-.324.2.736.736,0,0,0-.178.34.7.7,0,0,0,.024.381l1.719,4.966a.7.7,0,0,0,.256.346.689.689,0,0,0,.408.135Zm3.15-2.48a3.887,3.887,0,0,1-2.783,1.043l-1.091-3.137A10.575,10.575,0,0,1,1445.507,1242.135Zm-141.879,46.026s1.393.148,3.817-1.421a28.027,28.027,0,0,0,4.141-3.045l-2.44-7.092S1303.607,1282.3,1303.628,1288.161Z" transform="translate(-1292.992 -1013.093)" fill="#313131"/><path d="M195.777,1014a7.909,7.909,0,0,0,4.1-1.548,28.826,28.826,0,0,0,4.262-3.137.718.718,0,0,0,.192-.346.7.7,0,0,0-.027-.394l-2.435-7.087a.734.734,0,0,0-.2-.3.766.766,0,0,0-.321-.167.7.7,0,0,0-.359.013.733.733,0,0,0-.31.186c-.235.24-5.728,5.977-5.728,12.042a.714.714,0,0,0,.64.711Zm7.024-5.409a36.141,36.141,0,0,1-3.7,2.661,8.515,8.515,0,0,1-2.675,1.221c.332-3.9,3.1-7.684,4.492-9.356Zm-7.126,50.914H637.709a.713.713,0,0,0,.716-.716.718.718,0,0,0-.716-.716H195.675a.719.719,0,0,0-.715.716.715.715,0,0,0,.715.716Zm195.657-125.4-18.27,62.27,5.415.068ZM358,861.572l10.506,25.787L356.385,862.88Z" transform="translate(-185.038 -738.213)" fill="#313131"/><path d="M1135.357,878.075l20.362-16.5.9,2.208Zm-96.183,22.255s11.194-3,21.231-.03c13.359,3.969,17.187,8.808,17.187,8.808a53.177,53.177,0,0,0-17.487-7.654c-8.684-2.129-20.985.751-20.985.751Zm39.333,8.5a15.2,15.2,0,0,1,8.055-8.084,21.916,21.916,0,0,1,9.993-2.179l1.482,1.8s-6.724-.219-10.884,1.948A27.889,27.889,0,0,0,1078.507,908.827Zm129.759,136.008s-11.419-6.225-22.052.392c-10.887,6.766-12.674,13.566-12.674,13.566h-1.719s.248-10.121,14.553-16.192S1208.266,1044.835,1208.266,1044.835Z" transform="translate(-982.755 -738.213)" fill="#313131"/></g></g></svg>