<svg xmlns="http://www.w3.org/2000/svg" xmlns:xlink="http://www.w3.org/1999/xlink" viewBox="0 0 209.3 190"><defs><style>.cls-1{fill:none;}.cls-2{clip-path:url(#clip-path);}.cls-3{fill:#417dbf;}.cls-4{fill:#e0d1e6;}.cls-5{fill:#f16f80;}.cls-6{fill:#f7ada6;}.cls-7{fill:#221b52;}.cls-8{fill:#7f2d82;}.cls-9{fill:#e5e1e9;}.cls-10{clip-path:url(#clip-path-2);}.cls-11{clip-path:url(#clip-path-3);}.cls-12{clip-path:url(#clip-path-4);}.cls-13{fill:#6e3e97;}.cls-14{fill:#85a5d6;}.cls-15{fill:#f9f0f6;}</style><clipPath id="clip-path" transform="translate(8.21 0)"><path class="cls-1" d="M90.22.12H90c-1.41.08-2.81.18-4.22.32h-.08c-.78.07-1.55.16-2.32.25q-3.47.44-6.9,1.11T69.56,3.47l-2.14.62Q63,5.44,58.65,7.23q-2.16.9-4.27,1.89t-4.16,2.1a92.4,92.4,0,0,0-8,4.79c-.83.56-1.66,1.13-2.48,1.71-1.19.86-2.37,1.74-3.52,2.65l-1.49,1.19-1.46,1.23q-2.82,2.4-5.44,5h0c-.73.74-1.45,1.49-2.16,2.24-1.42,1.51-2.78,3.07-4.1,4.67q-3,3.62-5.55,7.49-1.38,2.06-2.64,4.19c-.75,1.25-1.46,2.52-2.15,3.81q-1.31,2.41-2.44,4.9c-.54,1.16-1.06,2.34-1.55,3.53q-1.35,3.26-2.45,6.6c-.24.72-.47,1.45-.69,2.17-.82,2.7-1.51,5.43-2.09,8.19l-.18.86c-.33,1.67-.62,3.36-.86,5C.78,82.8.62,84.08.49,85.37l0,.32,0,.28Q0,90.47,0,95v.34q0,4.5.46,9c.28,2.89.7,5.76,1.24,8.61,0,.2.09.41.12.61.4,2,.86,4,1.38,5.92.28,1,.58,2.09.89,3.13.9,3,2,5.9,3.14,8.77.65,1.57,1.34,3.13,2.08,4.66.61,1.27,1.24,2.53,1.91,3.77q2.2,4.13,4.79,8t5.55,7.49q3,3.6,6.26,6.9,1.62,1.62,3.3,3.15t3.61,3.12q3.62,3,7.49,5.55c.92.61,1.85,1.21,2.79,1.79,1.7,1.05,3.44,2.06,5.21,3a92.7,92.7,0,0,0,8.43,4q4.31,1.78,8.77,3.14c3,.9,6,1.66,9,2.26s5.89,1,8.87,1.34l.35,0h.08q4.45.44,8.94.45H95q4.62,0,9.23-.45h.08l.32,0q4.49-.45,8.9-1.34c3-.6,6.07-1.36,9-2.26s5.9-1.95,8.77-3.14c2.19-.91,4.33-1.89,6.44-3,.67-.34,1.33-.68,2-1,1-.54,2-1.11,3-1.69,1.68-1,3.34-2,5-3.1q3-2,5.93-4.3l1.56-1.25c1.15-.95,2.27-1.92,3.38-2.91s2.38-2.21,3.53-3.36c1.34-1.34,2.64-2.73,3.91-4.15.8-.9,1.58-1.82,2.35-2.75s1.71-2.13,2.53-3.23q1.56-2.08,3-4.26c.43-.65.86-1.3,1.27-2q1.88-3,3.52-6c.05-.08.09-.17.14-.26q2.12-4,3.85-8.17c1-2.34,1.84-4.72,2.63-7.13l.51-1.64c.19-.64.38-1.28.56-1.92.26-.92.5-1.84.73-2.76.36-1.45.68-2.9,1-4.37q.63-3.14,1-6.32h0c.13-1,.24-1.92.33-2.89.31-3.09.46-6.2.46-9.31s-.15-6.22-.46-9.31c-.12-1.3-.28-2.6-.46-3.89q-.37-2.67-.91-5.33c-.23-1.19-.49-2.37-.77-3.55s-.62-2.49-1-3.72c-.17-.6-.34-1.19-.52-1.78-.23-.75-.47-1.51-.72-2.26-.4-1.22-.83-2.44-1.29-3.64-.36-1-.74-1.92-1.13-2.87a92.7,92.7,0,0,0-4-8.43c-.49-.93-1-1.85-1.53-2.75s-.93-1.59-1.41-2.37c-.6-1-1.22-1.93-1.85-2.88q-2.6-3.88-5.55-7.49c-.62-.75-1.25-1.5-1.89-2.23-1.41-1.61-2.86-3.17-4.37-4.68h0q-3.3-3.3-6.9-6.26-3.41-2.77-7-5.25l-.45-.3c-2.06-1.37-4.16-2.66-6.32-3.87-.55-.32-1.12-.62-1.68-.92Q136.92,9.69,134,8.35l-1.13-.5-1.47-.62C128.48,6,125.55,5,122.58,4.09c-.75-.23-1.49-.44-2.24-.65q-3.37-.93-6.81-1.62c-3-.6-6.12-1.06-9.22-1.36h-.08c-1.33-.13-2.66-.23-4-.31h-.47C98.19,0,96.6,0,95,0s-3.19,0-4.78.12"/></clipPath><clipPath id="clip-path-2" transform="translate(8.21 0)"><rect class="cls-1" x="144.28" y="45.7" width="2.13" height="1.36"/></clipPath><clipPath id="clip-path-3" transform="translate(8.21 0)"><rect class="cls-1" x="146.92" y="39.54" width="5.19" height="1.26"/></clipPath><clipPath id="clip-path-4" transform="translate(8.21 0)"><rect class="cls-1" x="136.24" y="40.29" width="5.18" height="1.25"/></clipPath></defs><g id="Layer_2" data-name="Layer 2"><g id="Layer_1-2" data-name="Layer 1"><g class="cls-2"><path class="cls-3" d="M95,0c1.55,0,3.11,0,4.66.11s3.1.19,4.65.35,3.09.34,4.63.57,3.07.49,4.59.79,3,.65,4.55,1,3,.79,4.5,1.24,3,.94,4.42,1.46,2.92,1.09,4.35,1.68,2.86,1.23,4.27,1.89,2.79,1.36,4.16,2.1,2.73,1.5,4.06,2.3,2.65,1.63,3.94,2.49,2.56,1.76,3.81,2.68,2.48,1.89,3.68,2.87,2.38,2,3.53,3.05,2.28,2.12,3.37,3.21,2.18,2.23,3.22,3.38,2.06,2.33,3.05,3.53,1.94,2.43,2.86,3.68,1.83,2.52,2.69,3.81,1.69,2.61,2.49,3.94,1.57,2.69,2.3,4.06,1.43,2.76,2.1,4.16,1.29,2.83,1.89,4.26,1.15,2.89,1.68,4.35,1,2.94,1.46,4.43.86,3,1.24,4.5.72,3,1,4.55.57,3,.8,4.59.42,3.08.57,4.63.27,3.1.34,4.65.12,3.1.12,4.66,0,3.11-.12,4.66-.19,3.1-.34,4.65-.34,3.09-.57,4.63-.49,3.07-.8,4.59-.64,3-1,4.55-.79,3-1.24,4.5-.94,3-1.46,4.42-1.09,2.92-1.68,4.35-1.23,2.86-1.89,4.27-1.37,2.79-2.1,4.16-1.5,2.73-2.3,4.06-1.63,2.65-2.49,3.94-1.76,2.56-2.69,3.81-1.88,2.47-2.86,3.68-2,2.38-3.05,3.53-2.12,2.28-3.22,3.37-2.22,2.18-3.37,3.22-2.33,2.06-3.53,3.05-2.43,1.94-3.68,2.86-2.52,1.83-3.81,2.69-2.61,1.69-3.94,2.49-2.69,1.57-4.06,2.3-2.76,1.43-4.16,2.1-2.83,1.29-4.27,1.89-2.88,1.15-4.35,1.68-2.94,1-4.42,1.46-3,.86-4.5,1.24-3,.72-4.55,1-3,.57-4.59.8-3.08.42-4.63.57-3.1.27-4.65.34S96.55,190,95,190s-3.11,0-4.66-.12-3.1-.19-4.65-.34-3.09-.34-4.63-.57-3.07-.49-4.59-.8-3-.64-4.55-1-3-.79-4.5-1.24-3-.94-4.43-1.46-2.91-1.09-4.35-1.68-2.85-1.23-4.26-1.89-2.79-1.37-4.16-2.1-2.73-1.5-4.06-2.3-2.65-1.63-3.94-2.49-2.56-1.76-3.81-2.69-2.48-1.88-3.68-2.86-2.38-2-3.53-3.05-2.28-2.12-3.38-3.22-2.17-2.22-3.21-3.37-2.06-2.33-3.05-3.53-1.94-2.43-2.87-3.68-1.82-2.52-2.68-3.81-1.7-2.61-2.49-3.94-1.57-2.69-2.3-4.06-1.43-2.76-2.1-4.16-1.29-2.83-1.89-4.27S6.08,128.47,5.55,127s-1-2.94-1.46-4.42-.87-3-1.24-4.5-.72-3-1-4.55-.56-3-.79-4.59-.42-3.08-.57-4.63-.27-3.1-.35-4.65S0,96.55,0,95s0-3.11.11-4.66.19-3.1.35-4.65S.8,82.6,1,81.06s.49-3.07.79-4.59.65-3,1-4.55.79-3,1.24-4.5S5,64.46,5.55,63s1.09-2.91,1.68-4.35,1.23-2.85,1.89-4.26,1.36-2.79,2.1-4.16,1.5-2.73,2.3-4.06,1.63-2.65,2.49-3.94,1.76-2.56,2.68-3.81,1.89-2.48,2.87-3.68,2-2.38,3.05-3.53,2.11-2.28,3.21-3.38,2.23-2.17,3.38-3.21,2.33-2.06,3.53-3.05,2.43-1.94,3.68-2.87,2.52-1.82,3.81-2.68,2.61-1.7,3.94-2.49,2.69-1.57,4.06-2.3S53,9.79,54.38,9.12s2.83-1.29,4.26-1.89S61.53,6.08,63,5.55s2.94-1,4.43-1.46,3-.87,4.5-1.24,3-.72,4.55-1,3-.56,4.59-.79S84.14.61,85.69.46s3.1-.27,4.65-.35S93.44,0,95,0" transform="translate(8.21 0)"/><path class="cls-4" d="M94.93,77.26A53.09,53.09,0,1,0,148,24.16a53.08,53.08,0,0,0-53.09,53.1" transform="translate(8.21 0)"/><path class="cls-5" d="M153.1,26.06a10.15,10.15,0,0,1,5-.34,6.1,6.1,0,0,1,4,2.79c1,1.68.87,3.74.75,5.66L162,48.66a8.75,8.75,0,0,0,.36,4,3,3,0,0,0,3.14,2,12,12,0,0,0,1.87-.83,1.58,1.58,0,0,1,1.88.29,1.65,1.65,0,0,1,.2,1.17,5.73,5.73,0,0,1-2.89,4.34,1.62,1.62,0,0,1,2.1,1.51,2.61,2.61,0,0,1-1.76,2.3,7.63,7.63,0,0,1-3,.34,1.59,1.59,0,0,1,1.41,1.76,2.41,2.41,0,0,1-1.52,1.88,5.19,5.19,0,0,1-2.5.26,9.41,9.41,0,0,1-5-1.86c-2.46-1.93-3.46-5.27-3.49-8.4s.74-6.22,1.18-9.33c1-7.21.19-14.54-.64-21.77l.6-.18" transform="translate(8.21 0)"/><path class="cls-6" d="M138.8,60.72l-35.21,13.2L107,59.7l-9.15-2.33s-9.85,27.8-3,28.55c12,1.3,30.08-3.45,30.08-3.45Z" transform="translate(8.21 0)"/><path class="cls-7" d="M126.58,92.59l.08,27.85c9.15,11.27,41.09-3.31,41.09-3.31l.38-11.38.74-27.14c-.74-10.8-10.77-16.1-10.77-16.1-4.15-2.07-10.48-3.25-16.18-3-5.95.29-7.42,3.14-9.87,8.57-2,4.38-5.47,8.5-5.47,24.47" transform="translate(8.21 0)"/><path class="cls-6" d="M156.68,33.32l-.42,5.57s4.73.64,3.37,5S155,46.26,155,46.26s-.81,11.08-12.15,7.56c-9-2.8-8.47-14.46-7.32-24.44a6.66,6.66,0,0,1,7.9-5.79l6.82,1.33a7.91,7.91,0,0,1,6.39,8.4" transform="translate(8.21 0)"/><path class="cls-6" d="M156.25,43.51,153.2,59.82a6.53,6.53,0,1,1-12.85-2.35L142,48.13Z" transform="translate(8.21 0)"/><path class="cls-7" d="M143.71,43.7a.31.31,0,0,1,0,.11.49.49,0,0,1-.26.23c-.31.12-.81-.19-.94-.71a5.19,5.19,0,0,1-.09-1.8c0-.68.08-1.41.12-2.18.1-1.54.2-2.93.29-3.94a11.15,11.15,0,0,1,.19-1.63,11.22,11.22,0,0,1,0,1.64c0,1-.11,2.41-.21,3.95-.05.77-.1,1.5-.14,2.17a5.08,5.08,0,0,0,0,1.74c.1.48.48.73.74.66s.29-.26.32-.24" transform="translate(8.21 0)"/><path class="cls-7" d="M140,52.7s.54.37,1.47.81a9.54,9.54,0,0,0,3.89.93,9.75,9.75,0,0,0,3.92-.76c1-.41,1.49-.79,1.51-.75a1.64,1.64,0,0,1-.35.29,8.35,8.35,0,0,1-1.08.62,8.91,8.91,0,0,1-8-.17,7.79,7.79,0,0,1-1.06-.66,1.62,1.62,0,0,1-.33-.31" transform="translate(8.21 0)"/><path class="cls-7" d="M142.25,46s.26.24.74.48a2.58,2.58,0,0,0,3.55-1.14c.25-.49.28-.84.32-.83a1.48,1.48,0,0,1-.15.9,2.63,2.63,0,0,1-3.81,1.22,1.62,1.62,0,0,1-.65-.64" transform="translate(8.21 0)"/><path class="cls-7" d="M156.61,44.4s.28,0,.64-.22a.85.85,0,0,0,.41-.48.48.48,0,0,0-.23-.62.37.37,0,0,0-.45.11l-.22-.11a7.43,7.43,0,0,1,.8-1.5,6.86,6.86,0,0,1-.57,1.59l-.22-.11a.61.61,0,0,1,.75-.21.64.64,0,0,1,.39.41.89.89,0,0,1,0,.51,1.1,1.1,0,0,1-1.28.64" transform="translate(8.21 0)"/><path class="cls-7" d="M147.88,33.41a1.88,1.88,0,0,1,2.28.6c0,.05-.48-.3-1.1-.48s-1.16-.06-1.18-.14" transform="translate(8.21 0)"/><path class="cls-7" d="M138.08,31.87a2.25,2.25,0,0,1,2.59.23c0,.06-.57-.22-1.28-.28s-1.29.12-1.31.05" transform="translate(8.21 0)"/><path class="cls-5" d="M156.25,38.89c-3.16-3.08-4.09-8.22-4.95-12.56A11.07,11.07,0,0,1,141,27.68a16.64,16.64,0,0,1-3.68,3.22,1.68,1.68,0,0,1-1.31.36c-.53-.16-.76-.77-.89-1.31a9.21,9.21,0,0,1,.19-5.25,6.32,6.32,0,0,1,3.52-3.78,9.16,9.16,0,0,1,5.6.09,31,31,0,0,1,7.9,3.27c2.41,1.41,4.75,3.29,5.78,5.9s1,7.69-1.44,9" transform="translate(8.21 0)"/><path class="cls-7" d="M137.57,60.6c3.07-1.22-20.5,7.53-20.5,7.53l2.41,16.13,9-2.94Z" transform="translate(8.21 0)"/><path class="cls-6" d="M106.29,60.6s6.15-8.6,5.06-8.59-1.67,1.62-3.8,2.73c0,0,3.4-10.75,2.34-10.53s-3.56,7.13-3.72,7.12,2.16-7.74,1.29-7.84-3,7.1-3,7.1,1.45-6.84.54-7-2.28,6.14-2.28,6.14,1.09-5.3.25-5.42c-.52-.08-5.16,13-5.16,13s8.5,3.23,8.5,3.23" transform="translate(8.21 0)"/><path class="cls-7" d="M153.86,91.23a1.91,1.91,0,0,1-.06-.33c0-.23-.08-.55-.13-.94-.1-.84-.24-2-.42-3.45-.34-2.93-.8-7-1.28-11.43a13,13,0,0,1,0-3.3A5.92,5.92,0,0,1,153.18,69a7.59,7.59,0,0,1,4.4-2.63,11.37,11.37,0,0,1,3.49-.17l1,.13a1.87,1.87,0,0,1,.32.08l-.33,0c-.22,0-.53-.06-1-.09a12.42,12.42,0,0,0-3.44.24,7.37,7.37,0,0,0-4.26,2.61,5.69,5.69,0,0,0-1.15,2.72,13.51,13.51,0,0,0,0,3.24c.48,4.45.9,8.47,1.21,11.43.14,1.44.25,2.62.34,3.46,0,.39.06.71.08,1a1.82,1.82,0,0,1,0,.33" transform="translate(8.21 0)"/><path class="cls-7" d="M153,90.21c0-.07,4.28.33,9.56.89s9.54,1.07,9.53,1.13-4.29-.32-9.56-.88S153,90.28,153,90.21" transform="translate(8.21 0)"/><polygon class="cls-8" points="133.36 19.43 133.36 37.88 121.03 37.88 120.64 44.87 113.39 37.47 86.25 37.47 88.64 18.07 133.36 19.43"/><path class="cls-9" d="M120.94,24.77c-12.13-.16-24.32-.29-36.44,0a.07.07,0,0,0,0,.14c12.12.25,24.31.13,36.44,0a.05.05,0,0,0,0,0s0,0,0,0" transform="translate(8.21 0)"/><path class="cls-9" d="M120.94,28.31c-12.13-.16-24.32-.28-36.44,0a.07.07,0,0,0,0,.14c12.12.26,24.31.14,36.44,0,0,0,0,0,0,0a.05.05,0,0,0,0,0" transform="translate(8.21 0)"/><path class="cls-9" d="M120.94,32c-7.45-.12-14.94-.19-22.4,0,0,0-.05,0-.05.07a.08.08,0,0,0,.05.07c7.45.16,14.94.09,22.4,0a.06.06,0,0,0,0-.09" transform="translate(8.21 0)"/><path class="cls-7" d="M139.09,36.86c-.06,0-.24-.2-.48-.45s-.51-.41-.48-.48.36,0,.65.29.4.61.34.64" transform="translate(8.21 0)"/><path class="cls-7" d="M148.56,38c-.07,0-.28-.31-.58-.71s-.56-.69-.52-.74.41.18.72.6.44.82.38.85" transform="translate(8.21 0)"/></g><g class="cls-10"><path class="cls-7" d="M146.39,46.05c.1.34-.28.75-.86.93s-1.13.06-1.23-.27.28-.75.86-.93,1.13-.05,1.23.27" transform="translate(8.21 0)"/></g><g class="cls-11"><path class="cls-7" d="M152.1,40.15c0,.34-1.16.63-2.59.65s-2.59-.27-2.6-.62,1.16-.63,2.59-.64,2.6.26,2.6.61" transform="translate(8.21 0)"/></g><g class="cls-12"><path class="cls-7" d="M141.42,40.9c0,.35-1.16.64-2.59.65s-2.59-.26-2.59-.61,1.15-.64,2.58-.65,2.6.26,2.6.61" transform="translate(8.21 0)"/></g><g class="cls-2"><path class="cls-13" d="M156.89,31.39a2.31,2.31,0,0,0,.11-.24,1.06,1.06,0,0,0,0-.66,4.94,4.94,0,0,0-.43-1L156,28.37a22.3,22.3,0,0,1-1.45-3,22.91,22.91,0,0,1,1.68,2.93l.6,1.16a4.11,4.11,0,0,1,.38,1,1.11,1.11,0,0,1-.07.74c-.1.16-.19.21-.2.2" transform="translate(8.21 0)"/><polygon class="cls-14" points="137.57 84.66 135.49 112.44 164.44 116.32 162.48 84.26 137.57 84.66"/><polyline class="cls-14" points="139.88 65.83 139.88 87.86 143.26 86.6 143.26 61.49 139.88 62.52"/><path class="cls-14" d="M158.5,62.76s-13.07,1.68-9.21,23l3.28.35s-3.69-20,8.59-21.5Z" transform="translate(8.21 0)"/><path class="cls-6" d="M154.65,87.54s4.46,26.3-1.83,25.65c-20.72-2.13-33-2.41-33-2.41l-3.43,7.12c-.07,1.21,39.2,12.46,45.52,8.74,4.45-2.63,11.56-9.7,8.33-30.84l-.76-7.07Z" transform="translate(8.21 0)"/><path class="cls-7" d="M166.13,70.09S171,74.73,172,92.26L153.35,90.2s-3.11-29.88,12.78-20.12" transform="translate(8.21 0)"/><path class="cls-6" d="M122,110.77s-10.12-3.17-9.79-2.13,2.08,1.09,3.8,2.77c0,0-11.32.12-10.78,1.06s7.92,1.16,8,1.32-8.06.36-7.88,1.22,7.71.65,7.71.65-7,.74-6.84,1.68,6.58.25,6.58.25-5.39.62-5.25,1.45c.09.52,15.78.63,15.82,1,0,.2-1.34-9.29-1.34-9.29" transform="translate(8.21 0)"/><path class="cls-7" d="M134.89,84.8a1,1,0,0,1,.1.34,7,7,0,0,1,.11.92,2.73,2.73,0,0,1-.3,1.38,1.72,1.72,0,0,1-1.44,1,1.93,1.93,0,0,1-1.5-.87,2.89,2.89,0,0,1-.48-1.33,5.86,5.86,0,0,1,0-.94,1.32,1.32,0,0,1,0-.34,10.39,10.39,0,0,1,.18,1.25A3,3,0,0,0,132,87.4a1.74,1.74,0,0,0,1.31.76,1.52,1.52,0,0,0,1.24-.82,2.7,2.7,0,0,0,.32-1.28c0-.76-.08-1.25,0-1.25" transform="translate(8.21 0)"/><path class="cls-7" d="M132.84,85.24s-.11.15-.08.39a.44.44,0,0,0,.18.33.4.4,0,0,0,.41,0,.42.42,0,0,0,.19-.38.49.49,0,0,0-.24-.29c-.21-.12-.38,0-.39-.08s.14-.19.48-.08a.6.6,0,0,1,.39.4.61.61,0,1,1-1.19.13c0-.34.25-.43.26-.4" transform="translate(8.21 0)"/><path class="cls-7" d="M152.24,84.35a1,1,0,0,1,.1.8,1.74,1.74,0,0,1-.43.8,1.5,1.5,0,0,1-1,.47,1.45,1.45,0,0,1-1.05-.38,1.79,1.79,0,0,1-.48-.76,1,1,0,0,1,0-.81,2.76,2.76,0,0,0,.14.75,1.37,1.37,0,0,0,2.65-.11,2.8,2.8,0,0,0,.07-.76" transform="translate(8.21 0)"/><path class="cls-7" d="M150.14,83.58a.57.57,0,0,1,.51-.17.76.76,0,0,1,.55.28.69.69,0,0,1,0,.78.6.6,0,0,1-.73.27.54.54,0,0,1-.29-.57.41.41,0,0,1,.21-.36c.09,0,.15,0,.15,0a.42.42,0,0,0-.19.38.39.39,0,0,0,.21.35.38.38,0,0,0,.43-.2.46.46,0,0,0,0-.48.78.78,0,0,0-.39-.25c-.29-.06-.49,0-.49,0" transform="translate(8.21 0)"/><path class="cls-7" d="M149.6,95.81c-.07,0-.15-.25-.17-.56a2.54,2.54,0,0,1,0-.39l.09.09c-.11,0-.17-.07-.17-.11s.07-.06.18-.08h.06v.09a2.63,2.63,0,0,1,.06.39c0,.33,0,.59-.09.58" transform="translate(8.21 0)"/><path class="cls-7" d="M149.37,97.73c-.07,0-.09-.24,0-.49s.14-.48.21-.45.09.23,0,.48-.14.49-.21.46" transform="translate(8.21 0)"/><path class="cls-7" d="M148.71,99.53c-.06,0,0-.25.08-.48s.23-.42.3-.39,0,.24-.07.48-.25.43-.31.39" transform="translate(8.21 0)"/><path class="cls-7" d="M147.67,101.15c-.06,0,0-.25.18-.48s.33-.35.38-.32,0,.25-.18.48-.33.37-.38.32" transform="translate(8.21 0)"/><path class="cls-7" d="M146.28,102.49c0-.06.09-.24.29-.41s.4-.27.45-.22-.09.23-.29.41-.41.27-.45.22" transform="translate(8.21 0)"/><path class="cls-7" d="M144.63,103.44c0-.07.15-.21.38-.33s.45-.15.48-.1-.13.21-.38.33-.48.16-.48.1" transform="translate(8.21 0)"/><path class="cls-7" d="M142.76,104c0-.07.19-.17.44-.22s.49,0,.49,0-.18.17-.45.23-.48.05-.48,0" transform="translate(8.21 0)"/><path class="cls-7" d="M140.83,104c0-.07.22-.13.48-.12s.49.06.49.13-.22.12-.49.12-.48-.06-.48-.13" transform="translate(8.21 0)"/><path class="cls-7" d="M138.94,103.67c0-.06.24-.07.48,0s.45.17.44.24-.24.07-.48,0-.46-.17-.44-.24" transform="translate(8.21 0)"/><path class="cls-7" d="M137.18,102.92c0-.06.25,0,.48.11s.4.26.37.32-.24,0-.48-.1-.4-.28-.37-.33" transform="translate(8.21 0)"/><path class="cls-7" d="M135.67,101.75s.24,0,.44.22.32.36.27.42-.24,0-.44-.23-.33-.37-.27-.41" transform="translate(8.21 0)"/><path class="cls-7" d="M134.48,100.22c.06,0,.23.1.38.32s.22.42.17.48-.23-.1-.38-.32-.23-.43-.17-.48" transform="translate(8.21 0)"/><path class="cls-7" d="M133.67,98.47c.06,0,.2.16.3.4s.12.49.06.49-.2-.15-.3-.4-.13-.49-.06-.49" transform="translate(8.21 0)"/><path class="cls-7" d="M133.27,96.58c.06,0,.16.21.19.46s0,.48,0,.48-.16-.18-.2-.45,0-.49.05-.49" transform="translate(8.21 0)"/><path class="cls-7" d="M133.32,94.67c.06,0,.1.22.08.48s-.1.48-.17.48-.1-.22-.08-.48.1-.48.17-.48" transform="translate(8.21 0)"/><path class="cls-7" d="M134.91,94.32c0,.08-.22.13-.48.12s-.48-.08-.48-.15.22-.11.48-.11.48.08.48.14" transform="translate(8.21 0)"/><path class="cls-7" d="M136.84,94.4c0,.06-.22.11-.48.1s-.49-.07-.49-.14.22-.12.49-.11.48.07.48.15" transform="translate(8.21 0)"/><path class="cls-7" d="M138.76,94.46c0,.07-.22.12-.48.11s-.48-.07-.48-.14.22-.12.48-.11.48.08.48.14" transform="translate(8.21 0)"/><path class="cls-7" d="M140.69,94.52c0,.07-.22.12-.48.11s-.49-.07-.49-.15.23-.11.49-.1.48.07.48.14" transform="translate(8.21 0)"/><path class="cls-7" d="M142.62,94.6c0,.07-.23.12-.49.11s-.48-.07-.48-.14.22-.12.48-.11.49.08.49.14" transform="translate(8.21 0)"/><path class="cls-7" d="M144.54,94.67c0,.07-.22.12-.48.11s-.48-.07-.48-.14.22-.12.48-.11.48.07.48.14" transform="translate(8.21 0)"/><path class="cls-7" d="M146.47,94.74c0,.07-.22.12-.49.11s-.48-.07-.48-.14.22-.12.48-.11.49.07.49.14" transform="translate(8.21 0)"/><path class="cls-7" d="M148.39,94.81c0,.07-.22.12-.48.11s-.48-.07-.48-.14.22-.12.48-.11.48.07.48.14" transform="translate(8.21 0)"/><path class="cls-4" d="M98,128.49A53.09,53.09,0,1,1,44.88,75.41,53.09,53.09,0,0,1,98,128.49" transform="translate(8.21 0)"/><path class="cls-6" d="M52.94,110.59l35.21,13.2-3.37-14.22,9.16-2.33s9.84,27.8,3,28.55c-12,1.3-30.1-3.44-30.1-3.44Z" transform="translate(8.21 0)"/><path class="cls-13" d="M65.17,142.47l-.09,27.85C55.93,181.6,24,167,24,167l-.37-11.39-.74-27.13c.73-10.8,10.76-16.11,10.76-16.11,4.15-2.07,10.48-3.24,16.18-3,6,.3,7.42,3.15,9.87,8.57,2,4.4,5.48,8.51,5.48,24.47" transform="translate(8.21 0)"/><path class="cls-6" d="M37.09,137.41s-4.46,26.29,1.83,25.65c20.72-2.13,33-2.41,33-2.41l3.43,7.11c.08,1.22-39.2,12.46-45.51,8.74-4.46-2.62-11.57-9.69-8.33-30.84l.76-7.08Z" transform="translate(8.21 0)"/><path class="cls-13" d="M25.7,120s-4.82,4.64-5.9,22.16l18.68-2.06S41.6,110.19,25.7,120" transform="translate(8.21 0)"/><path class="cls-6" d="M35.06,83.2l.43,5.56s-4.74.64-3.38,5,4.59,2.41,4.59,2.41.81,11.08,12.15,7.56c9-2.79,8.47-14.45,7.32-24.44a6.67,6.67,0,0,0-7.9-5.78L41.45,74.8a7.91,7.91,0,0,0-6.38,8.36" transform="translate(8.21 0)"/><path class="cls-6" d="M35.49,93.39l3,16.29a6.54,6.54,0,0,0,12.86-2.35L49.74,98Z" transform="translate(8.21 0)"/><path class="cls-7" d="M48,93.55s.07.18.32.24.64-.18.74-.66a5.64,5.64,0,0,0,0-1.74c0-.67-.09-1.4-.14-2.17-.1-1.54-.17-2.93-.21-4a9,9,0,0,1,0-1.64A11.28,11.28,0,0,1,49,85.27c.08,1,.19,2.4.28,3.94,0,.76.09,1.5.13,2.17a5,5,0,0,1-.1,1.8c-.12.53-.62.83-.93.71a.45.45,0,0,1-.26-.23c0-.06,0-.11,0-.11" transform="translate(8.21 0)"/><path class="cls-7" d="M51.71,102.57a2.31,2.31,0,0,1-.35.31,7.13,7.13,0,0,1-1,.66,8.89,8.89,0,0,1-8,.17,9,9,0,0,1-1.09-.62c-.24-.17-.36-.27-.35-.29s.56.34,1.51.75a9.38,9.38,0,0,0,7.81-.17c.94-.44,1.45-.84,1.48-.81" transform="translate(8.21 0)"/><path class="cls-7" d="M49.49,95.86a1.6,1.6,0,0,1-.65.64A2.62,2.62,0,0,1,45,95.28a1.52,1.52,0,0,1-.16-.91s.07.35.32.83a2.58,2.58,0,0,0,3.55,1.14,8.66,8.66,0,0,0,.74-.48" transform="translate(8.21 0)"/><path class="cls-7" d="M35.13,94.26a1.11,1.11,0,0,1-.71-.06,1,1,0,0,1-.56-.58.74.74,0,0,1,0-.51.62.62,0,0,1,.38-.41.61.61,0,0,1,.75.21l-.21.11a6.88,6.88,0,0,1-.58-1.59,6.93,6.93,0,0,1,.79,1.5l-.21.11a.36.36,0,0,0-.45-.1.49.49,0,0,0-.24.61.88.88,0,0,0,.43.48c.35.18.63.18.63.22" transform="translate(8.21 0)"/><path class="cls-7" d="M43.86,83.28c0,.08-.55,0-1.18.14a11.59,11.59,0,0,0-1.1.48,1.5,1.5,0,0,1,1-.71,1.48,1.48,0,0,1,1.25.11" transform="translate(8.21 0)"/><path class="cls-7" d="M53.66,81.73c0,.07-.59-.11-1.31,0s-1.24.34-1.28.28a1.82,1.82,0,0,1,1.26-.53,1.78,1.78,0,0,1,1.33.3" transform="translate(8.21 0)"/><path class="cls-7" d="M35.49,88.76c3.16-3.08,4.09-8.22,4.95-12.55a11.1,11.1,0,0,0,10.34,1.34,16.69,16.69,0,0,0,3.69,3.22,1.64,1.64,0,0,0,1.3.36c.53-.16.77-.77.89-1.31a9.29,9.29,0,0,0-.18-5.25A6.35,6.35,0,0,0,53,70.79a9.32,9.32,0,0,0-5.6.09,30.94,30.94,0,0,0-7.91,3.27c-2.41,1.41-4.74,3.29-5.78,5.91s-1,7.68,1.45,9" transform="translate(8.21 0)"/><path class="cls-13" d="M54.17,110.47c-3.07-1.21,20.5,7.53,20.5,7.53l-2.41,16.13-9-2.94Z" transform="translate(8.21 0)"/><path class="cls-6" d="M69.77,160.65s10.12-3.18,9.78-2.14-2.07,1.09-3.79,2.77c0,0,11.32.12,10.78,1.06s-7.92,1.17-8,1.32,8.06.36,7.88,1.22-7.71.66-7.71.66,7,.74,6.83,1.67-6.57.26-6.57.26,5.38.62,5.24,1.45c-.08.51-15.77.63-15.81,1,0,.2,1.33-9.29,1.33-9.29" transform="translate(8.21 0)"/><path class="cls-6" d="M85.45,110.47s-6.15-8.59-5-8.59,1.67,1.62,3.8,2.73c0,0-3.4-10.75-2.35-10.53s3.56,7.13,3.72,7.12-2.16-7.74-1.29-7.83,3,7.1,3,7.1-1.45-6.84-.54-7S89,99.62,89,99.62s-1.09-5.3-.25-5.42c.51-.07,5.15,13,5.15,13s-8.49,3.23-8.49,3.23" transform="translate(8.21 0)"/><path class="cls-15" d="M28.73,134.13a.85.85,0,0,1,.09.31,3,3,0,0,1,.07.89,1.5,1.5,0,0,1-.62,1.18,1,1,0,0,1-.82.19,1.47,1.47,0,0,1-.74-.48,5.12,5.12,0,0,0-.56-.58,1.34,1.34,0,0,0-1.74.1,1.54,1.54,0,0,0-.39.72,1.08,1.08,0,0,1-.07.31.68.68,0,0,1,0-.32,1.49,1.49,0,0,1,.36-.83,1.52,1.52,0,0,1,2-.17,4.18,4.18,0,0,1,.59.6,1.37,1.37,0,0,0,.61.42.86.86,0,0,0,.64-.14,1.43,1.43,0,0,0,.58-1,6,6,0,0,0,0-.85v-.33" transform="translate(8.21 0)"/><path class="cls-15" d="M34.28,129.35a1.16,1.16,0,0,1,.22-.24,3.15,3.15,0,0,1,.72-.52,1.54,1.54,0,0,1,1.34-.08,1,1,0,0,1,.58.6,1.47,1.47,0,0,1,0,.88,4.06,4.06,0,0,0-.2.78,1.31,1.31,0,0,0,1,1.43,1.52,1.52,0,0,0,.82,0l.3-.11a.64.64,0,0,1-.26.2,1.39,1.39,0,0,1-1.11.05,1.41,1.41,0,0,1-.82-.75,1.53,1.53,0,0,1-.14-.81,4.67,4.67,0,0,1,.2-.82,1.24,1.24,0,0,0,0-.74.82.82,0,0,0-.45-.48,1.38,1.38,0,0,0-1.16,0,3.83,3.83,0,0,0-.73.44c-.17.12-.27.18-.28.16" transform="translate(8.21 0)"/><path class="cls-15" d="M33.88,117.46a1.45,1.45,0,0,1,.22-.25,3.66,3.66,0,0,1,.72-.52,1.54,1.54,0,0,1,1.34-.08,1,1,0,0,1,.58.6,1.47,1.47,0,0,1,0,.88,5,5,0,0,0-.2.78,1.23,1.23,0,0,0,.11.68,1.3,1.3,0,0,0,.88.75,1.63,1.63,0,0,0,.82,0c.19-.07.29-.14.3-.12s-.07.11-.26.21a1.46,1.46,0,0,1-.9.11,1.42,1.42,0,0,1-1.05-.82,1.5,1.5,0,0,1-.14-.81,4.67,4.67,0,0,1,.2-.82,1.21,1.21,0,0,0,0-.73.87.87,0,0,0-.45-.49,1.45,1.45,0,0,0-1.17,0,4.57,4.57,0,0,0-.73.44c-.17.12-.26.18-.28.17" transform="translate(8.21 0)"/><path class="cls-15" d="M45.68,133a2,2,0,0,1-.26-.2,2.79,2.79,0,0,1-.58-.65,1.51,1.51,0,0,1-.2-1.32,1,1,0,0,1,.55-.64,1.47,1.47,0,0,1,.88,0,5.21,5.21,0,0,0,.79.13,1.32,1.32,0,0,0,1.34-1.11,1.54,1.54,0,0,0-.11-.82A2.39,2.39,0,0,1,48,128a.69.69,0,0,1,.22.24,1.49,1.49,0,0,1-1.33,2.22,7.55,7.55,0,0,1-.83-.13,1.21,1.21,0,0,0-.73,0,.83.83,0,0,0-.44.48A1.43,1.43,0,0,0,45,132a4.72,4.72,0,0,0,.48.69c.14.16.21.25.19.27" transform="translate(8.21 0)"/><path class="cls-15" d="M53.73,145.4a1.41,1.41,0,0,1-.24.22,3.3,3.3,0,0,1-.75.48,1.5,1.5,0,0,1-1.34,0,1,1,0,0,1-.54-.64,1.47,1.47,0,0,1,.09-.88,4,4,0,0,0,.26-.76,1.21,1.21,0,0,0-.05-.68,1.33,1.33,0,0,0-.83-.82,1.43,1.43,0,0,0-.82,0c-.19.05-.29.11-.31.09s.08-.1.28-.18a1.46,1.46,0,0,1,.9,0,1.53,1.53,0,0,1,1.08,1.71,5.37,5.37,0,0,1-.27.8,1.32,1.32,0,0,0-.1.73.85.85,0,0,0,.42.49,1.42,1.42,0,0,0,1.16.05,4.28,4.28,0,0,0,.77-.39c.17-.1.28-.16.29-.14" transform="translate(8.21 0)"/><path class="cls-15" d="M63.2,125.77A2.23,2.23,0,0,1,63,126a3.34,3.34,0,0,1-.75.49,1.59,1.59,0,0,1-1.35,0,1.09,1.09,0,0,1-.54-.65,1.53,1.53,0,0,1,.1-.87,5.24,5.24,0,0,0,.26-.76,1.35,1.35,0,0,0-.06-.69,1.31,1.31,0,0,0-.82-.82,1.67,1.67,0,0,0-.83,0c-.19,0-.29.11-.3.09s.08-.1.28-.18a1.5,1.5,0,0,1,1.12,0,1.46,1.46,0,0,1,.77.83,1.5,1.5,0,0,1,.08.81,4.16,4.16,0,0,1-.26.8,1.26,1.26,0,0,0-.1.74.85.85,0,0,0,.41.48,1.37,1.37,0,0,0,1.17,0,4.59,4.59,0,0,0,.77-.38.86.86,0,0,1,.29-.15" transform="translate(8.21 0)"/><path class="cls-15" d="M69.66,122.78a1.82,1.82,0,0,1,.29.15,3.09,3.09,0,0,1,.7.55,1.53,1.53,0,0,1,.44,1.27,1,1,0,0,1-.43.72,1.4,1.4,0,0,1-.85.21,5.34,5.34,0,0,0-.8,0,1.15,1.15,0,0,0-.63.29,1.29,1.29,0,0,0-.49,1,1.61,1.61,0,0,0,.26.78c.11.17.2.24.19.26s-.12,0-.27-.2a1.44,1.44,0,0,1-.35-.83A1.5,1.5,0,0,1,69,125.44a4.72,4.72,0,0,1,.84,0,1.2,1.2,0,0,0,.72-.16.79.79,0,0,0,.34-.55,1.41,1.41,0,0,0-.34-1.12,4.4,4.4,0,0,0-.63-.59c-.16-.13-.24-.21-.23-.22" transform="translate(8.21 0)"/><path class="cls-15" d="M43.52,155.54a1.3,1.3,0,0,1-.23.23,3.36,3.36,0,0,1-.76.48,1.5,1.5,0,0,1-1.34,0,1,1,0,0,1-.54-.64,1.47,1.47,0,0,1,.09-.88A4.26,4.26,0,0,0,41,154a1.32,1.32,0,0,0-.88-1.5,1.52,1.52,0,0,0-.82,0c-.19,0-.3.1-.31.08s.08-.09.28-.18a1.46,1.46,0,0,1,.9,0A1.51,1.51,0,0,1,41.24,154a4.67,4.67,0,0,1-.26.8,1.3,1.3,0,0,0-.09.73.78.78,0,0,0,.41.48,1.35,1.35,0,0,0,1.16.05,4.24,4.24,0,0,0,.77-.38,1,1,0,0,1,.29-.15" transform="translate(8.21 0)"/><path class="cls-15" d="M57.54,136.66a1.53,1.53,0,0,1-.24-.23,3.36,3.36,0,0,1-.48-.74,1.52,1.52,0,0,1,0-1.33,1,1,0,0,1,.62-.57,1.47,1.47,0,0,1,.88.06,6.82,6.82,0,0,0,.77.23,1.35,1.35,0,0,0,1.46-1,1.43,1.43,0,0,0,0-.82c0-.1-.07-.2-.1-.3a.69.69,0,0,1,.19.26,1.4,1.4,0,0,1,.09.9,1.44,1.44,0,0,1-.85,1,1.54,1.54,0,0,1-.82.12,6.15,6.15,0,0,1-.81-.23,1.15,1.15,0,0,0-.73-.06.79.79,0,0,0-.48.43,1.34,1.34,0,0,0,0,1.17,4.1,4.1,0,0,0,.41.74c.12.18.18.27.16.29" transform="translate(8.21 0)"/><path class="cls-15" d="M60.05,146.8a1.35,1.35,0,0,1-.23-.22,3,3,0,0,1-.48-.74,1.5,1.5,0,0,1,0-1.34,1,1,0,0,1,.61-.56,1.51,1.51,0,0,1,.89.06,4.87,4.87,0,0,0,.77.22,1.33,1.33,0,0,0,1.44-1,1.43,1.43,0,0,0,0-.82c0-.19-.11-.29-.09-.3s.1.07.18.27a1.44,1.44,0,0,1,.1.89,1.46,1.46,0,0,1-.86,1,1.51,1.51,0,0,1-.81.11,4.42,4.42,0,0,1-.81-.23,1.24,1.24,0,0,0-.74-.06.82.82,0,0,0-.48.43,1.41,1.41,0,0,0,0,1.17,4.56,4.56,0,0,0,.41.75c.12.17.18.27.16.28" transform="translate(8.21 0)"/><path class="cls-15" d="M39.77,142.47a.87.87,0,0,1,0-.32,2.64,2.64,0,0,1,.12-.88,1.51,1.51,0,0,1,.87-1,1,1,0,0,1,.84,0,1.4,1.4,0,0,1,.61.64,5.43,5.43,0,0,0,.42.68,1.35,1.35,0,0,0,1.72.28,1.44,1.44,0,0,0,.53-.59A2.55,2.55,0,0,1,45,141a.61.61,0,0,1,0,.32,1.36,1.36,0,0,1-.54.73,1.41,1.41,0,0,1-1.32.19,1.49,1.49,0,0,1-.68-.48A5.41,5.41,0,0,1,42,141a1.25,1.25,0,0,0-.48-.54.82.82,0,0,0-.65,0,1.43,1.43,0,0,0-.79.86,5.08,5.08,0,0,0-.19.84,1,1,0,0,1-.07.31" transform="translate(8.21 0)"/><path class="cls-15" d="M58.09,155a.58.58,0,0,1,0-.32,3.22,3.22,0,0,1,.12-.88,1.51,1.51,0,0,1,.87-1,1,1,0,0,1,.84,0,1.51,1.51,0,0,1,.62.63,4.82,4.82,0,0,0,.41.69,1.35,1.35,0,0,0,.57.4,1.3,1.3,0,0,0,1.15-.12,1.45,1.45,0,0,0,.54-.61c.09-.18.11-.3.13-.29s0,.12,0,.32a1.46,1.46,0,0,1-1.87.92,1.58,1.58,0,0,1-.68-.46,4.48,4.48,0,0,1-.44-.72,1.39,1.39,0,0,0-.48-.54.82.82,0,0,0-.65,0,1.37,1.37,0,0,0-.79.86,4,4,0,0,0-.2.84c0,.2-.05.31-.07.31" transform="translate(8.21 0)"/><path class="cls-15" d="M57.56,117.05a.9.9,0,0,1,0-.32,3.22,3.22,0,0,1,.12-.88,1.57,1.57,0,0,1,.87-1,1.11,1.11,0,0,1,.84,0,1.51,1.51,0,0,1,.61.64,4.29,4.29,0,0,0,.42.68,1.34,1.34,0,0,0,1.72.29,1.47,1.47,0,0,0,.54-.62,2.74,2.74,0,0,1,.13-.29.62.62,0,0,1,0,.33,1.49,1.49,0,0,1-.54.72,1.44,1.44,0,0,1-1.33.19,1.49,1.49,0,0,1-.68-.48,5.3,5.3,0,0,1-.45-.71,1.15,1.15,0,0,0-.48-.54.79.79,0,0,0-.64,0,1.39,1.39,0,0,0-.8.86,4.75,4.75,0,0,0-.19.83c0,.21-.05.32-.07.32" transform="translate(8.21 0)"/><path class="cls-15" d="M51.57,160.05a.74.74,0,0,1-.31-.1,3.75,3.75,0,0,1-.76-.48,1.53,1.53,0,0,1-.59-1.2,1,1,0,0,1,.33-.78,1.5,1.5,0,0,1,.82-.31,5.49,5.49,0,0,0,.8-.11,1.3,1.3,0,0,0,.58-.36,1.32,1.32,0,0,0,.36-1.11,1.47,1.47,0,0,0-.36-.74c-.13-.15-.22-.22-.21-.24s.12,0,.29.17a1.41,1.41,0,0,1,.48,1,1.48,1.48,0,0,1-.38,1.06,1.54,1.54,0,0,1-.69.44,4.74,4.74,0,0,1-.84.13,1.24,1.24,0,0,0-.69.25.79.79,0,0,0-.26.59,1.41,1.41,0,0,0,.48,1.07,4.18,4.18,0,0,0,.69.5c.18.11.27.18.27.2" transform="translate(8.21 0)"/><path class="cls-15" d="M29.84,122.78a1.58,1.58,0,0,1,.21.25,3.3,3.3,0,0,1,.43.78,1.54,1.54,0,0,1-.09,1.34,1.05,1.05,0,0,1-.68.5,1.5,1.5,0,0,1-.86-.14,7,7,0,0,0-.75-.31,1.35,1.35,0,0,0-.69,0,1.33,1.33,0,0,0-.86.79,1.49,1.49,0,0,0-.07.81c0,.2.09.3.07.31s-.09-.08-.16-.28a1.39,1.39,0,0,1,0-.9,1.48,1.48,0,0,1,1-1,1.53,1.53,0,0,1,.82,0,4.79,4.79,0,0,1,.79.31,1.27,1.27,0,0,0,.72.13.81.81,0,0,0,.52-.38,1.39,1.39,0,0,0,.13-1.16A4.31,4.31,0,0,0,30,123a1.23,1.23,0,0,1-.13-.29" transform="translate(8.21 0)"/><path class="cls-15" d="M50.82,119a1.2,1.2,0,0,1,.21.24,4,4,0,0,1,.43.78,1.54,1.54,0,0,1-.1,1.34,1,1,0,0,1-.67.48,1.38,1.38,0,0,1-.87-.14,5.21,5.21,0,0,0-.74-.3,1.34,1.34,0,0,0-.69,0,1.29,1.29,0,0,0-.86.78,1.44,1.44,0,0,0-.07.82c0,.2.09.3.07.31s-.09-.08-.16-.28a1.42,1.42,0,0,1,0-.91,1.5,1.5,0,0,1,1.77-1,5.24,5.24,0,0,1,.78.3,1.25,1.25,0,0,0,.73.14.81.81,0,0,0,.52-.38,1.39,1.39,0,0,0,.12-1.16,4.28,4.28,0,0,0-.34-.79.85.85,0,0,1-.13-.3" transform="translate(8.21 0)"/><path class="cls-7" d="M37.88,141.1a1.82,1.82,0,0,1,0-.33c0-.24,0-.56.08-1,.08-.85.2-2,.34-3.47.31-3,.74-7,1.21-11.43a12.55,12.55,0,0,0,0-3.24A5.69,5.69,0,0,0,38.36,119a7.51,7.51,0,0,0-4.26-2.61,12,12,0,0,0-3.44-.23,6.32,6.32,0,0,0-.94.08,1.82,1.82,0,0,1-.33,0,1.16,1.16,0,0,1,.32-.08c.22,0,.53-.09.94-.12a11.35,11.35,0,0,1,3.49.15,7.68,7.68,0,0,1,4.41,2.64,5.91,5.91,0,0,1,1.2,2.83,13,13,0,0,1,0,3.3c-.48,4.47-1,8.5-1.29,11.43l-.41,3.46c-.06.38-.1.69-.13,1a1.65,1.65,0,0,1-.06.32" transform="translate(8.21 0)"/><path class="cls-7" d="M38.72,140.08c0,.07-4.26.58-9.54,1.14s-9.55,1-9.56.88,4.26-.57,9.53-1.13,9.56-1,9.57-.89" transform="translate(8.21 0)"/><path class="cls-7" d="M65.12,140.3a3.31,3.31,0,0,1-.05-.55c0-.4,0-.89-.06-1.48-.05-1.25-.18-3-.31-4.87s-.23-3.63-.25-4.89V127a2.47,2.47,0,0,1,0-.54,2,2,0,0,1,0,.54c0,.4,0,.9.06,1.48.06,1.25.18,3,.32,4.87s.23,3.63.24,4.89v1.48a2,2,0,0,1,0,.55" transform="translate(8.21 0)"/><polygon class="cls-7" points="93.43 111.39 102.68 108.8 103.23 110.47 93.89 113.36 93.43 111.39"/><path class="cls-9" d="M91.14,111A1.15,1.15,0,1,1,90,109.86,1.14,1.14,0,0,1,91.14,111" transform="translate(8.21 0)"/><path class="cls-7" d="M53.66,85.64s-.3-.2-.59-.52-.49-.66-.41-.7.3.2.6.53.48.65.4.69" transform="translate(8.21 0)"/><path class="cls-7" d="M45.24,86.81c-.05,0-.3-.2-.6-.53s-.48-.65-.41-.69.31.2.6.53.48.65.41.69" transform="translate(8.21 0)"/></g></g></g></svg>