<?xml version="1.0" encoding="UTF-8"?><svg id="Layer_2" xmlns="http://www.w3.org/2000/svg" viewBox="0 0 255.51 73"><defs><style>.cls-1{fill:#fff;}.cls-2{fill:#2ea3a1;}</style></defs><g id="Layer_1-2"><g><g><path class="cls-1" d="M9.76,67.57h.46c.17,0,.3-.02,.4-.06,.1-.04,.19-.11,.28-.21l2.98-3.47c.1-.12,.19-.2,.29-.24,.1-.05,.22-.07,.37-.07h1.19l-3.47,4c-.09,.11-.17,.2-.26,.27-.08,.07-.17,.13-.26,.18,.24,.08,.45,.25,.63,.5l3.61,4.43h-1.21c-.09,0-.16,0-.23-.02-.06-.01-.12-.03-.16-.06s-.09-.05-.12-.09c-.04-.03-.07-.08-.1-.12l-3.09-3.66c-.04-.06-.09-.1-.13-.14s-.09-.07-.15-.09c-.06-.02-.12-.04-.2-.05-.07-.01-.16-.02-.26-.02h-.57v4.25h-1.39v-9.38h1.39v4.06Z"/><path class="cls-1" d="M20.13,67.18c.14-.15,.29-.29,.45-.42,.16-.13,.32-.23,.5-.32,.18-.09,.37-.16,.57-.21s.42-.08,.65-.08c.37,0,.69,.06,.96,.18s.51,.29,.7,.51c.19,.22,.33,.48,.42,.79,.1,.31,.14,.65,.14,1.03v4.23h-1.28v-4.23c0-.47-.11-.84-.33-1.11-.22-.26-.55-.4-1-.4-.33,0-.63,.08-.92,.23s-.55,.36-.79,.63v4.87h-1.27v-6.64h.76c.18,0,.29,.09,.33,.25l.1,.67Z"/><path class="cls-1" d="M31.16,66.16c.49,0,.93,.08,1.32,.24,.39,.16,.73,.39,1.01,.69,.28,.3,.49,.66,.64,1.08,.15,.42,.22,.89,.22,1.41s-.07,.99-.22,1.42c-.15,.42-.36,.78-.64,1.08-.28,.3-.61,.52-1.01,.68-.39,.16-.84,.24-1.32,.24s-.94-.08-1.33-.24-.73-.39-1.01-.68c-.28-.3-.49-.66-.64-1.08-.15-.42-.23-.89-.23-1.42s.08-.99,.23-1.41c.15-.42,.36-.78,.64-1.08,.28-.3,.61-.53,1.01-.69,.39-.16,.84-.24,1.33-.24Zm0,5.84c.63,0,1.09-.21,1.4-.63,.31-.42,.46-1.02,.46-1.78s-.15-1.36-.46-1.79c-.31-.42-.78-.64-1.4-.64s-1.11,.21-1.42,.64c-.31,.42-.47,1.02-.47,1.79s.16,1.36,.47,1.78c.31,.42,.78,.63,1.42,.63Z"/><path class="cls-1" d="M46.98,66.26l-2.14,6.64h-1.02c-.12,0-.2-.08-.25-.24l-1.4-4.32c-.03-.11-.07-.22-.09-.32-.03-.11-.05-.21-.07-.32-.04,.23-.09,.45-.16,.66l-1.42,4.31c-.04,.16-.14,.24-.28,.24h-.97l-2.14-6.64h1.01c.1,0,.18,.02,.25,.07,.07,.05,.11,.11,.13,.18l1.2,4.08c.04,.17,.07,.33,.1,.48s.06,.31,.09,.47c.04-.16,.08-.31,.13-.47s.09-.32,.14-.48l1.33-4.1c.02-.07,.06-.13,.12-.18,.06-.05,.13-.07,.22-.07h.56c.1,0,.18,.02,.24,.07,.06,.05,.11,.11,.13,.18l1.29,4.1c.05,.17,.09,.33,.14,.49,.04,.16,.08,.32,.12,.48,.03-.16,.06-.31,.09-.47s.07-.32,.12-.49l1.21-4.08c.02-.07,.07-.14,.13-.18s.14-.07,.23-.07h.96Z"/><path class="cls-1" d="M56.55,67.17c.27-.3,.59-.55,.93-.74,.35-.19,.74-.28,1.19-.28,.39,0,.74,.08,1.05,.23s.58,.37,.79,.65c.22,.28,.39,.62,.5,1.02s.18,.85,.18,1.36c0,.54-.07,1.02-.2,1.46-.13,.44-.32,.82-.57,1.13-.25,.31-.55,.56-.9,.73-.35,.17-.75,.26-1.19,.26-.21,0-.41-.02-.59-.06-.18-.04-.34-.1-.49-.18s-.29-.17-.41-.29c-.13-.11-.25-.24-.36-.39l-.06,.56c-.03,.18-.14,.27-.33,.27h-.82v-9.64h1.27v3.92Zm0,4.09c.21,.27,.44,.47,.68,.57,.24,.11,.51,.16,.8,.16,.59,0,1.05-.21,1.37-.63,.32-.42,.48-1.06,.48-1.91,0-.79-.14-1.37-.42-1.73-.28-.37-.68-.55-1.2-.55-.37,0-.68,.08-.95,.25s-.52,.4-.75,.71v3.14Z"/><path class="cls-1" d="M70.16,71.95c-.16,.18-.34,.34-.54,.47-.2,.13-.42,.24-.65,.32s-.47,.14-.72,.18c-.25,.04-.49,.06-.73,.06-.46,0-.88-.08-1.27-.23s-.73-.38-1.01-.68-.51-.67-.67-1.11c-.16-.44-.24-.95-.24-1.53,0-.46,.07-.89,.22-1.29s.35-.75,.62-1.04c.27-.3,.6-.53,.98-.7,.39-.17,.82-.25,1.31-.25,.4,0,.78,.07,1.12,.2s.64,.33,.89,.58c.25,.25,.44,.56,.58,.93,.14,.37,.21,.79,.21,1.27,0,.2-.02,.33-.07,.4s-.12,.1-.24,.1h-4.35c.01,.4,.07,.74,.17,1.04s.24,.54,.41,.73c.18,.2,.39,.34,.63,.44,.24,.1,.52,.14,.82,.14,.28,0,.53-.03,.73-.1,.21-.07,.39-.14,.54-.21s.28-.15,.38-.21c.1-.07,.19-.1,.27-.1,.1,0,.19,.04,.24,.12l.37,.47Zm-1.05-3.11c0-.25-.04-.49-.11-.7-.07-.21-.18-.4-.32-.56-.14-.16-.31-.28-.51-.37s-.43-.13-.69-.13c-.54,0-.96,.15-1.26,.46s-.5,.74-.58,1.29h3.47Z"/><path class="cls-1" d="M75.74,73c-.54,0-.95-.15-1.24-.45-.29-.3-.43-.73-.43-1.29v-3.97h-.77c-.07,0-.14-.02-.19-.07s-.08-.11-.08-.21v-.52l1.08-.15,.29-1.98c.02-.07,.05-.13,.1-.17,.05-.04,.11-.06,.19-.06h.65v2.23h1.88v.93h-1.88v3.89c0,.26,.06,.46,.19,.58,.13,.13,.29,.19,.49,.19,.12,0,.22-.02,.3-.05,.08-.03,.16-.06,.22-.1,.06-.04,.11-.07,.16-.1,.04-.03,.08-.05,.12-.05,.04,0,.08,0,.1,.03,.02,.02,.05,.05,.08,.09l.38,.61c-.21,.19-.46,.34-.74,.44-.29,.1-.59,.16-.89,.16Z"/><path class="cls-1" d="M82.56,73c-.54,0-.95-.15-1.24-.45s-.43-.73-.43-1.29v-3.97h-.77c-.07,0-.14-.02-.19-.07-.05-.05-.08-.11-.08-.21v-.52l1.08-.15,.29-1.98c.02-.07,.05-.13,.1-.17,.05-.04,.11-.06,.19-.06h.65v2.23h1.88v.93h-1.88v3.89c0,.26,.06,.46,.19,.58,.13,.13,.29,.19,.49,.19,.12,0,.22-.02,.3-.05,.08-.03,.16-.06,.22-.1,.06-.04,.11-.07,.16-.1,.04-.03,.08-.05,.12-.05,.04,0,.08,0,.1,.03,.02,.02,.05,.05,.08,.09l.38,.61c-.21,.19-.46,.34-.74,.44-.29,.1-.59,.16-.89,.16Z"/><path class="cls-1" d="M92.71,71.95c-.16,.18-.34,.34-.54,.47s-.42,.24-.65,.32-.47,.14-.72,.18c-.25,.04-.49,.06-.73,.06-.46,0-.88-.08-1.27-.23-.39-.15-.73-.38-1.01-.68-.29-.3-.51-.67-.67-1.11-.16-.44-.24-.95-.24-1.53,0-.46,.07-.89,.22-1.29,.14-.4,.35-.75,.62-1.04s.6-.53,.98-.7c.39-.17,.82-.25,1.31-.25,.4,0,.78,.07,1.12,.2s.64,.33,.88,.58c.25,.25,.44,.56,.58,.93,.14,.37,.21,.79,.21,1.27,0,.2-.02,.33-.07,.4-.04,.07-.12,.1-.24,.1h-4.35c.01,.4,.07,.74,.17,1.04,.1,.29,.24,.54,.41,.73,.18,.2,.39,.34,.63,.44,.24,.1,.52,.14,.82,.14,.28,0,.53-.03,.73-.1,.21-.07,.39-.14,.54-.21s.28-.15,.38-.21c.1-.07,.19-.1,.27-.1,.1,0,.18,.04,.24,.12l.37,.47Zm-1.05-3.11c0-.25-.04-.49-.11-.7-.07-.21-.18-.4-.32-.56s-.31-.28-.51-.37-.43-.13-.69-.13c-.54,0-.96,.15-1.26,.46s-.5,.74-.58,1.29h3.47Z"/><path class="cls-1" d="M97.47,67.53c.21-.44,.47-.78,.77-1.03s.66-.37,1.08-.37c.14,0,.28,.02,.41,.05s.24,.08,.34,.15l-.09,.96c-.03,.12-.1,.18-.22,.18-.06,0-.15-.01-.27-.04-.12-.02-.25-.04-.39-.04-.2,0-.39,.03-.54,.09-.16,.06-.3,.15-.42,.26-.12,.12-.23,.26-.33,.42-.1,.17-.19,.36-.27,.57v4.15h-1.27v-6.64h.73c.14,0,.23,.03,.28,.08s.09,.14,.11,.26l.08,.93Z"/><path class="cls-1" d="M102.42,72.13c0-.12,.02-.23,.07-.33,.04-.1,.1-.2,.18-.27,.08-.08,.17-.14,.27-.19,.1-.05,.22-.07,.34-.07s.23,.02,.33,.07c.1,.05,.2,.11,.27,.19s.14,.17,.19,.27c.05,.1,.07,.22,.07,.33s-.02,.23-.07,.34c-.05,.1-.11,.2-.19,.27s-.17,.14-.27,.18c-.1,.04-.22,.07-.33,.07s-.24-.02-.34-.07c-.1-.04-.19-.1-.27-.18-.08-.08-.14-.17-.18-.27-.04-.1-.07-.22-.07-.34Z"/><path class="cls-1" d="M119.45,64.68h-2.98v8.22h-1.38v-8.22h-2.99v-1.16h7.35v1.16Z"/><path class="cls-1" d="M122.43,67.53c.21-.44,.47-.78,.77-1.03s.66-.37,1.08-.37c.14,0,.28,.02,.41,.05s.24,.08,.34,.15l-.08,.96c-.03,.12-.1,.18-.22,.18-.06,0-.15-.01-.27-.04-.12-.02-.25-.04-.39-.04-.2,0-.39,.03-.54,.09-.16,.06-.3,.15-.42,.26-.12,.12-.23,.26-.33,.42-.1,.17-.19,.36-.27,.57v4.15h-1.27v-6.64h.73c.14,0,.23,.03,.28,.08s.09,.14,.11,.26l.08,.93Z"/><path class="cls-1" d="M127.83,67.19c.37-.35,.77-.62,1.2-.79,.43-.17,.91-.26,1.43-.26,.38,0,.71,.06,1.01,.19s.54,.3,.74,.52c.2,.22,.35,.49,.45,.8,.1,.31,.15,.65,.15,1.03v4.23h-.57c-.13,0-.22-.02-.29-.06-.07-.04-.12-.12-.16-.23l-.14-.58c-.17,.16-.34,.29-.5,.41-.17,.12-.34,.22-.52,.31-.18,.09-.37,.15-.58,.19s-.43,.07-.68,.07c-.26,0-.51-.04-.73-.11-.23-.07-.43-.18-.6-.33s-.3-.33-.4-.56c-.1-.22-.15-.48-.15-.78,0-.26,.07-.51,.21-.75,.14-.24,.37-.46,.69-.65,.32-.19,.74-.35,1.25-.47,.52-.12,1.15-.19,1.9-.21v-.48c0-.5-.11-.87-.32-1.12-.21-.25-.53-.37-.94-.37-.28,0-.51,.03-.7,.1-.19,.07-.35,.15-.49,.23-.14,.09-.26,.16-.36,.23-.1,.07-.21,.1-.32,.1-.09,0-.16-.02-.23-.07-.06-.05-.11-.1-.15-.17l-.23-.41Zm3.74,2.76c-.52,.02-.96,.06-1.32,.12-.36,.06-.66,.15-.88,.25-.23,.1-.39,.23-.49,.37-.1,.14-.15,.3-.15,.47,0,.17,.03,.31,.08,.43,.05,.12,.13,.22,.22,.29,.09,.08,.2,.13,.33,.17,.13,.03,.26,.05,.41,.05,.2,0,.38-.02,.54-.06,.16-.04,.32-.09,.46-.17,.14-.07,.28-.16,.41-.26,.13-.1,.26-.22,.39-.36v-1.31Z"/><path class="cls-1" d="M142.18,63.26v9.64h-.77c-.18,0-.29-.09-.33-.25l-.11-.76c-.28,.34-.6,.6-.96,.81-.36,.2-.77,.3-1.24,.3-.38,0-.72-.07-1.03-.22-.31-.15-.57-.36-.79-.65-.22-.28-.39-.64-.5-1.06-.12-.42-.18-.91-.18-1.46,0-.49,.07-.95,.2-1.37s.32-.79,.57-1.1c.25-.31,.55-.55,.9-.73s.75-.26,1.2-.26c.4,0,.74,.07,1.02,.2,.28,.13,.53,.32,.75,.56v-3.63h1.28Zm-1.28,4.61c-.21-.27-.43-.47-.68-.57s-.51-.16-.81-.16c-.58,0-1.04,.21-1.36,.63-.32,.42-.48,1.03-.48,1.84,0,.42,.04,.78,.11,1.08s.18,.54,.31,.73,.31,.33,.51,.42,.43,.13,.68,.13c.37,0,.69-.08,.96-.25,.27-.17,.52-.4,.76-.7v-3.15Z"/><path class="cls-1" d="M151.5,71.95c-.16,.18-.34,.34-.54,.47s-.42,.24-.65,.32c-.23,.08-.47,.14-.72,.18s-.49,.06-.73,.06c-.46,0-.88-.08-1.27-.23s-.73-.38-1.01-.68c-.29-.3-.51-.67-.67-1.11-.16-.44-.24-.95-.24-1.53,0-.46,.07-.89,.22-1.29s.35-.75,.62-1.04,.6-.53,.98-.7c.39-.17,.82-.25,1.31-.25,.4,0,.78,.07,1.12,.2,.34,.13,.64,.33,.89,.58,.25,.25,.44,.56,.58,.93,.14,.37,.21,.79,.21,1.27,0,.2-.02,.33-.07,.4-.04,.07-.12,.1-.24,.1h-4.35c.01,.4,.07,.74,.17,1.04s.24,.54,.41,.73c.18,.2,.39,.34,.63,.44,.24,.1,.52,.14,.82,.14,.28,0,.53-.03,.73-.1,.21-.07,.39-.14,.54-.21s.28-.15,.38-.21c.1-.07,.19-.1,.27-.1,.1,0,.18,.04,.24,.12l.37,.47Zm-1.05-3.11c0-.25-.04-.49-.11-.7-.07-.21-.18-.4-.32-.56-.14-.16-.31-.28-.51-.37s-.43-.13-.69-.13c-.54,0-.96,.15-1.26,.46-.31,.31-.5,.74-.58,1.29h3.47Z"/><path class="cls-1" d="M161.72,67.17c.27-.3,.59-.55,.93-.74,.35-.19,.74-.28,1.19-.28,.39,0,.74,.08,1.05,.23s.58,.37,.79,.65c.22,.28,.39,.62,.5,1.02s.18,.85,.18,1.36c0,.54-.07,1.02-.2,1.46-.13,.44-.32,.82-.57,1.13-.25,.31-.55,.56-.9,.73-.35,.17-.75,.26-1.19,.26-.21,0-.41-.02-.59-.06-.18-.04-.34-.1-.49-.18s-.29-.17-.41-.29c-.13-.11-.25-.24-.36-.39l-.06,.56c-.03,.18-.14,.27-.33,.27h-.82v-9.64h1.27v3.92Zm0,4.09c.21,.27,.44,.47,.68,.57,.24,.11,.51,.16,.8,.16,.59,0,1.05-.21,1.37-.63,.32-.42,.48-1.06,.48-1.91,0-.79-.14-1.37-.42-1.73-.28-.37-.68-.55-1.2-.55-.37,0-.68,.08-.95,.25s-.52,.4-.75,.71v3.14Z"/><path class="cls-1" d="M175.32,71.95c-.16,.18-.34,.34-.54,.47-.2,.13-.42,.24-.65,.32s-.47,.14-.72,.18c-.25,.04-.49,.06-.73,.06-.46,0-.88-.08-1.27-.23s-.73-.38-1.01-.68-.51-.67-.67-1.11c-.16-.44-.24-.95-.24-1.53,0-.46,.07-.89,.22-1.29s.35-.75,.62-1.04c.27-.3,.6-.53,.98-.7,.39-.17,.82-.25,1.31-.25,.4,0,.78,.07,1.12,.2s.64,.33,.89,.58c.25,.25,.44,.56,.58,.93,.14,.37,.21,.79,.21,1.27,0,.2-.02,.33-.07,.4s-.12,.1-.24,.1h-4.35c.01,.4,.07,.74,.17,1.04s.24,.54,.41,.73c.18,.2,.39,.34,.63,.44,.24,.1,.52,.14,.82,.14,.28,0,.53-.03,.73-.1,.21-.07,.39-.14,.54-.21s.28-.15,.38-.21c.1-.07,.19-.1,.27-.1,.1,0,.19,.04,.24,.12l.37,.47Zm-1.05-3.11c0-.25-.04-.49-.11-.7-.07-.21-.18-.4-.32-.56-.14-.16-.31-.28-.51-.37s-.43-.13-.69-.13c-.54,0-.96,.15-1.26,.46s-.5,.74-.58,1.29h3.47Z"/><path class="cls-1" d="M180.91,73c-.54,0-.95-.15-1.24-.45-.29-.3-.43-.73-.43-1.29v-3.97h-.77c-.07,0-.14-.02-.19-.07s-.08-.11-.08-.21v-.52l1.08-.15,.29-1.98c.02-.07,.05-.13,.1-.17,.05-.04,.11-.06,.19-.06h.65v2.23h1.88v.93h-1.88v3.89c0,.26,.06,.46,.19,.58,.13,.13,.29,.19,.49,.19,.12,0,.22-.02,.3-.05,.08-.03,.16-.06,.22-.1,.06-.04,.11-.07,.16-.1,.04-.03,.08-.05,.12-.05,.04,0,.08,0,.1,.03,.02,.02,.05,.05,.08,.09l.38,.61c-.21,.19-.46,.34-.74,.44-.29,.1-.59,.16-.89,.16Z"/><path class="cls-1" d="M187.72,73c-.54,0-.95-.15-1.24-.45s-.43-.73-.43-1.29v-3.97h-.77c-.07,0-.14-.02-.19-.07-.05-.05-.08-.11-.08-.21v-.52l1.08-.15,.29-1.98c.02-.07,.05-.13,.1-.17,.05-.04,.11-.06,.19-.06h.65v2.23h1.88v.93h-1.88v3.89c0,.26,.06,.46,.19,.58,.13,.13,.29,.19,.49,.19,.12,0,.22-.02,.3-.05,.08-.03,.16-.06,.22-.1,.06-.04,.11-.07,.16-.1,.04-.03,.08-.05,.12-.05,.04,0,.08,0,.1,.03,.02,.02,.05,.05,.08,.09l.38,.61c-.21,.19-.46,.34-.74,.44-.29,.1-.59,.16-.89,.16Z"/><path class="cls-1" d="M197.87,71.95c-.16,.18-.34,.34-.54,.47s-.42,.24-.65,.32c-.23,.08-.47,.14-.72,.18-.25,.04-.49,.06-.73,.06-.46,0-.88-.08-1.27-.23-.39-.15-.73-.38-1.01-.68-.29-.3-.51-.67-.67-1.11-.16-.44-.24-.95-.24-1.53,0-.46,.07-.89,.22-1.29,.14-.4,.35-.75,.62-1.04s.6-.53,.98-.7c.39-.17,.82-.25,1.31-.25,.4,0,.78,.07,1.12,.2,.34,.13,.64,.33,.88,.58,.25,.25,.44,.56,.58,.93,.14,.37,.21,.79,.21,1.27,0,.2-.02,.33-.07,.4s-.12,.1-.24,.1h-4.35c.01,.4,.07,.74,.17,1.04,.1,.29,.24,.54,.41,.73,.18,.2,.39,.34,.63,.44,.24,.1,.52,.14,.82,.14,.28,0,.53-.03,.74-.1,.21-.07,.39-.14,.54-.21s.28-.15,.38-.21c.1-.07,.19-.1,.27-.1,.1,0,.18,.04,.24,.12l.37,.47Zm-1.05-3.11c0-.25-.04-.49-.11-.7-.07-.21-.18-.4-.32-.56s-.31-.28-.51-.37-.43-.13-.69-.13c-.54,0-.96,.15-1.26,.46-.31,.31-.5,.74-.58,1.29h3.47Z"/><path class="cls-1" d="M202.64,67.53c.21-.44,.47-.78,.77-1.03s.66-.37,1.08-.37c.14,0,.28,.02,.41,.05,.13,.03,.24,.08,.34,.15l-.09,.96c-.03,.12-.1,.18-.22,.18-.06,0-.15-.01-.27-.04-.12-.02-.25-.04-.39-.04-.21,0-.39,.03-.54,.09-.16,.06-.3,.15-.42,.26-.12,.12-.23,.26-.33,.42-.1,.17-.19,.36-.27,.57v4.15h-1.27v-6.64h.73c.14,0,.23,.03,.28,.08s.09,.14,.11,.26l.08,.93Z"/><path class="cls-1" d="M207.59,72.13c0-.12,.02-.23,.07-.33,.04-.1,.1-.2,.18-.27,.08-.08,.17-.14,.27-.19,.1-.05,.22-.07,.34-.07s.23,.02,.33,.07,.2,.11,.27,.19,.14,.17,.19,.27c.05,.1,.07,.22,.07,.33s-.02,.23-.07,.34c-.05,.1-.11,.2-.19,.27s-.17,.14-.27,.18-.22,.07-.33,.07-.23-.02-.34-.07c-.1-.04-.19-.1-.27-.18-.08-.08-.14-.17-.18-.27-.04-.1-.07-.22-.07-.34Z"/></g><g><path class="cls-1" d="M9.37,46.67c-2.92-1.55-5.21-3.71-6.87-6.47-1.67-2.77-2.5-5.9-2.5-9.4s.83-6.63,2.5-9.4c1.67-2.77,3.96-4.92,6.87-6.47,2.92-1.55,6.21-2.32,9.87-2.32,3.2,0,6.08,.57,8.65,1.7,2.57,1.13,4.7,2.77,6.4,4.9l-6.3,5.7c-2.27-2.73-5.02-4.1-8.25-4.1-1.9,0-3.59,.42-5.07,1.25-1.48,.83-2.63,2.01-3.45,3.52-.82,1.52-1.22,3.26-1.22,5.22s.41,3.71,1.22,5.22c.82,1.52,1.97,2.69,3.45,3.52,1.48,.83,3.17,1.25,5.07,1.25,3.23,0,5.98-1.37,8.25-4.1l6.3,5.7c-1.7,2.13-3.83,3.77-6.4,4.9-2.57,1.13-5.45,1.7-8.65,1.7-3.67,0-6.96-.77-9.87-2.32Z"/><path class="cls-1" d="M42.31,44.75c-2.88-2.83-4.32-6.85-4.32-12.04V13.31h9.9v19.09c0,5.6,2.22,8.4,6.65,8.4s6.6-2.8,6.6-8.4V13.31h9.75v19.39c0,5.2-1.44,9.21-4.32,12.04-2.88,2.83-6.92,4.25-12.12,4.25s-9.24-1.42-12.12-4.25Z"/><path class="cls-1" d="M81.61,47.95c-2.67-.7-4.83-1.63-6.5-2.8l3.25-7.3c1.57,1.03,3.38,1.87,5.45,2.5,2.07,.63,4.1,.95,6.1,.95,3.8,0,5.7-.95,5.7-2.85,0-1-.54-1.74-1.62-2.22-1.08-.48-2.82-.99-5.22-1.52-2.63-.57-4.83-1.17-6.6-1.82-1.77-.65-3.28-1.69-4.55-3.12-1.27-1.43-1.9-3.36-1.9-5.8,0-2.13,.58-4.06,1.75-5.77,1.17-1.72,2.91-3.07,5.22-4.07,2.32-1,5.16-1.5,8.52-1.5,2.3,0,4.56,.26,6.8,.77,2.23,.52,4.2,1.27,5.9,2.27l-3.05,7.35c-3.33-1.8-6.56-2.7-9.7-2.7-1.97,0-3.4,.29-4.3,.87-.9,.58-1.35,1.34-1.35,2.27s.53,1.63,1.6,2.1c1.07,.47,2.78,.95,5.15,1.45,2.67,.57,4.87,1.17,6.62,1.82,1.75,.65,3.26,1.68,4.55,3.1,1.28,1.42,1.92,3.34,1.92,5.77,0,2.1-.58,4-1.75,5.7-1.17,1.7-2.92,3.06-5.25,4.07-2.33,1.02-5.16,1.52-8.5,1.52-2.83,0-5.58-.35-8.25-1.05Z"/><path class="cls-1" d="M141.48,33.33c1.13,1.48,1.7,3.27,1.7,5.37,0,3.07-1.23,5.43-3.7,7.1-2.47,1.67-6.03,2.5-10.7,2.5h-18.89V13.31h17.89c4.46,0,7.86,.82,10.2,2.47,2.33,1.65,3.5,3.87,3.5,6.67,0,1.67-.41,3.16-1.22,4.47-.82,1.32-1.97,2.36-3.47,3.12,2,.7,3.56,1.79,4.7,3.27Zm-21.79-12.87v6.75h6.8c3.33,0,5-1.13,5-3.4s-1.67-3.35-5-3.35h-6.8Zm13.49,17.14c0-2.37-1.73-3.55-5.2-3.55h-8.3v7.1h8.3c3.46,0,5.2-1.18,5.2-3.55Z"/><path class="cls-1" d="M152.35,44.75c-2.88-2.83-4.32-6.85-4.32-12.04V13.31h9.9v19.09c0,5.6,2.22,8.4,6.65,8.4s6.6-2.8,6.6-8.4V13.31h9.75v19.39c0,5.2-1.44,9.21-4.32,12.04-2.88,2.83-6.92,4.25-12.12,4.25s-9.24-1.42-12.12-4.25Z"/><path class="cls-1" d="M217.2,40.45v7.85h-31.34v-6.2l17.64-20.94h-17.19v-7.85h30.14v6.2l-17.64,20.94h18.39Z"/></g><polygon class="cls-2" points="228.37 30.31 255.51 5.93 255.51 0 221.69 0 221.69 12.51 229.24 12.51 221.69 19.36 221.69 25.8 241.6 7.74 226.41 7.74 226.41 4.77 249.67 4.77 221.69 29.9 221.69 35.08 255.37 35.08 255.37 21.94 250.19 21.94 255.51 17.32 255.51 10.99 237.45 26.71 250.6 26.71 250.6 30.31 228.37 30.31"/></g></g></svg>