<svg xmlns="http://www.w3.org/2000/svg" width="507" height="446.303" viewBox="0 0 507 446.303"><g transform="translate(-146)"><g transform="translate(146)"><path d="M1183.854,1196.218c-4.841-1.469,5.734-14.278,5.734-14.278l3.481,6.541,3.66,5.44Z" transform="translate(-874.93 -904.77)" fill="#313131"/><path d="M1181.856,1195.124a.889.889,0,0,1-.249,0,2.474,2.474,0,0,1-1.089-.62,2.5,2.5,0,0,1-.647-1.071c-1.134-3.748,5.687-12.242,7.067-13.927a.825.825,0,0,1,.332-.246.835.835,0,0,1,.41-.059.846.846,0,0,1,.68.442l3.461,6.508,3.639,5.44a.839.839,0,0,1,.136.392.852.852,0,0,1-.065.412.833.833,0,0,1-.249.332.853.853,0,0,1-.38.175l-12.908,2.223Zm5.592-13.6c-2.906,3.7-6.571,9.322-5.951,11.361a.712.712,0,0,0,.436.49l11.361-2.039-2.929-4.359-.048-.074Zm182.337,78.661a13.412,13.412,0,0,1,9.233,3.751c.864,2.591-7.589,4.843-10.3,5.271s-2.113-11.47-2.113-11.47Z" transform="translate(-872.931 -902.839)" fill="#313131"/><path d="M1168.16,868.5a1.729,1.729,0,0,1-1.169-.463c-2.042-1.849-1.733-10.248-1.647-11.913a.866.866,0,0,1,.142-.433.878.878,0,0,1,.347-.294.859.859,0,0,1,.879.1l2.938,2.264a14.292,14.292,0,0,1,9.566,4.024.844.844,0,0,1,.2.32,2.074,2.074,0,0,1-.246,1.8c-1.6,2.632-8.99,4.3-10.735,4.576A1.678,1.678,0,0,1,1168.16,868.5Zm-1.175-10.648c-.089,4.57.427,8.636,1.19,8.954,2.719-.427,8.554-2.149,9.518-3.787a.679.679,0,0,0,.095-.223,12.6,12.6,0,0,0-8.417-3.327.841.841,0,0,1-.552-.175ZM938.5,615.344c-.217,2.074-9.682,3.658-21.876,2.373s-22.1-5.44-21.877-7.48,10.275-2.72,22.441-1.414S938.718,613.277,938.5,615.344Z" transform="translate(-672.518 -501.27)" fill="#313131"/><path d="M923.234,617.023a84.765,84.765,0,0,1-8.725-.469c-10.758-1.136-22.992-5.066-22.638-8.432.115-1.054,1.068-2.319,7.541-2.72a99.566,99.566,0,0,1,15.865.551c8.731.925,22.44,3.767,22.048,7.48C937.059,615.887,930.761,617.023,923.234,617.023Zm-29.656-8.711c.523,1.36,8.99,5.27,21.081,6.548,12.7,1.36,20.355-.5,20.939-1.6-.436-1.238-7.945-4.291-20.525-5.617C902.058,606.259,894.414,607.313,893.578,608.312Zm250.933,151c-.11-7.194-10.649-68.365-14.166-80.469-1.8-6.011-4.033-12.1-7.642-17.285a19.4,19.4,0,0,0-23.171-7.48,28.35,28.35,0,0,0-6.39,3.339,30.585,30.585,0,0,0-5.2,4.522.858.858,0,0,0-.039,1.05.861.861,0,0,0,1,.31c7.53-2.414,19.307-4.291,21.586,5.3.086.4.232,1.013.326,1.414.169.9.395,2.264.481,3.189a82.322,82.322,0,0,1,.306,11.478c-.543,14.055-12.382,59.982-12.519,60.667Z" transform="translate(-670.494 -499.263)" fill="#313131"/><path d="M1606.526,870.694a.9.9,0,0,1-.252-.042l-45.427-13.94a.856.856,0,0,1-.478-.38.864.864,0,0,1-.107-.6c0-.068.151-.6.383-1.516,7.479-29.953,11.813-50.917,12.124-59.016a81.861,81.861,0,0,0-.3-11.349c-.089-.884-.3-2.2-.475-3.135-.089-.36-.231-.979-.321-1.36a7.677,7.677,0,0,0-3.739-5.222c-4.761-2.679-12.534-.809-16.757.544a1.657,1.657,0,0,1-1.977-.626,1.678,1.678,0,0,1,.128-2.128,30.87,30.87,0,0,1,5.346-4.644,28.8,28.8,0,0,1,6.589-3.441,20.184,20.184,0,0,1,24.156,7.792c3.9,5.6,6.194,12.3,7.753,17.517,3.523,12.117,14.1,73.683,14.2,80.7a.851.851,0,0,1-.089.38.867.867,0,0,1-.249.3A.878.878,0,0,1,1606.526,870.694Zm-44.407-15.37,43.487,13.343c-.923-10.933-10.708-67.516-14.062-79.056-1.618-5.44-3.781-11.662-7.527-17.041a18.506,18.506,0,0,0-22.162-7.16,27.072,27.072,0,0,0-6.218,3.251,29.448,29.448,0,0,0-5.052,4.386h.074c5.44-1.754,13.065-3.25,18.111-.408a9.39,9.39,0,0,1,4.556,6.324c.095.415.237,1.013.332,1.407.184,1.02.409,2.387.5,3.312a83.023,83.023,0,0,1,.314,11.56c-.32,8.221-4.645,29.3-12.18,59.364C1562.221,854.9,1562.167,855.161,1562.12,855.324Z" transform="translate(-1132.509 -609.796)" fill="#313131"/><path d="M1539.341,797.764a6.222,6.222,0,1,0-6.22-6.222A6.223,6.223,0,0,0,1539.341,797.764Z" transform="translate(-1121.427 -625.857)" fill="#fecd07"/><path d="M1537.278,796.569a7.08,7.08,0,1,1,1.247-.109A7.083,7.083,0,0,1,1537.278,796.569Zm0-12.444a5.369,5.369,0,1,0,3.309,1.149A5.365,5.365,0,0,0,1537.278,784.125Z" transform="translate(-1119.38 -623.811)" fill="#313131"/><path d="M1432.718,977.044l-1.748,53.761,34.752-47.421.217-47.967-32.493-1.21Z" transform="translate(-1049.595 -730.557)" fill="#fff"/><path d="M1428.976,1029.8a1.028,1.028,0,0,1-.273-.048.828.828,0,0,1-.422-.323.856.856,0,0,1-.151-.508l1.742-53.719.727-42.838a.894.894,0,0,1,.071-.329.878.878,0,0,1,.2-.275.817.817,0,0,1,.285-.178.85.85,0,0,1,.333-.053l32.484,1.156a.843.843,0,0,1,.816.85l-.211,47.987a.854.854,0,0,1-.169.5l-34.743,47.422a.849.849,0,0,1-.3.261A.888.888,0,0,1,1428.976,1029.8Zm3.309-96.559-.679,41.976-1.659,51,32.962-44.979.217-46.873Z" transform="translate(-1047.597 -728.671)" fill="#313131"/><path d="M1496.126,957.394l-.638,16.223s-5.441-4.276-21.277-9.675Z" transform="translate(-1080.001 -746.863)" fill="#313131"/><path d="M1492.2,976.995a.84.84,0,0,1-.51-.172c-.059-.039-6.078-4.46-21.577-9.743a.846.846,0,0,1-.433-.333.836.836,0,0,1-.14-.528.843.843,0,0,1,.683-.777L1492.6,961a.864.864,0,0,1,.721.19.836.836,0,0,1,.225.306.809.809,0,0,1,.065.374l-.555,14.281a.873.873,0,0,1-.143.433.856.856,0,0,1-.341.3A.886.886,0,0,1,1492.2,976.995Zm-18.6-10.493c10.017,3.61,15.511,6.664,17.808,8.1l.457-11.722Z" transform="translate(-1076.718 -749.389)" fill="#313131"/><path d="M1423.573,827.667c-3.271,14.13-1.448,26.268,15.341,30.5,11.688,2.951,23.916-6.528,27.2-20.651s-3.6-27.784-15.341-30.5S1426.844,813.53,1423.573,827.667Z" transform="translate(-1043.448 -640.78)" fill="#fff"/><path d="M1441.227,857.453a18.9,18.9,0,0,1-4.455-.53c-14.81-3.645-20.034-13.96-15.968-31.524a29.862,29.862,0,0,1,10.733-17.129,20.179,20.179,0,0,1,31.348,7.262,29.833,29.833,0,0,1,2.11,20.1c-1.843,7.956-6.509,14.736-12.8,18.6A20.957,20.957,0,0,1,1441.227,857.453Zm3.4-52.141a19.979,19.979,0,0,0-12.082,4.311,28.108,28.108,0,0,0-10.106,16.163c-3.87,16.694.81,26.064,14.715,29.484A18.471,18.471,0,0,0,1451.3,852.8c5.909-3.631,10.3-10.023,12.038-17.537a28.124,28.124,0,0,0-1.974-18.951c-2.781-5.535-7.3-9.268-12.736-10.526a17.512,17.512,0,0,0-3.98-.476Z" transform="translate(-1041.51 -638.715)" fill="#313131"/><path d="M1434.59,809.939s2.722-9.391,8.462-14.11a20.884,20.884,0,0,1,23.658-2.536c9.589,5.086,17.769,15.83,12.24,33-2.959,9.03-11.065,15.422-11.065,15.422l3.529-6.746s-3.4-1.094-3.113-2.808c0,0,9.207-7.385,5.176-11.811-3.7-4.08-6.841,2.278-6.841,2.278a125.842,125.842,0,0,1-11.106-8.772,98.249,98.249,0,0,1-10.37-11.349Z" transform="translate(-1052.141 -629.668)" fill="#313131"/><path d="M1465.909,840.307a.815.815,0,0,1-.537-.2.837.837,0,0,1-.211-1.047l3.09-5.9c-1.211-.544-3.075-1.687-2.763-3.4a.847.847,0,0,1,.3-.51c.062-.047,5.583-4.522,5.87-8.255a2.931,2.931,0,0,0-.783-2.326,2.508,2.508,0,0,0-2.17-1.061c-1.508.2-2.882,2.339-3.282,3.142a.835.835,0,0,1-1.232.32,125.588,125.588,0,0,1-11.2-8.84,98.016,98.016,0,0,1-9.97-10.825l-9.907,6.943a.851.851,0,0,1-1.009-.023.852.852,0,0,1-.276-.97c.148-.408,3.781-9.982,8.684-14.436,6.74-6.12,16.178-7.146,24.631-2.666,12.62,6.7,17.348,19.421,12.629,34-2.959,9.173-10.985,15.592-11.323,15.857A.859.859,0,0,1,1465.909,840.307Zm1.306-10.016a4.76,4.76,0,0,0,2.511,1.611.874.874,0,0,1,.318.188.9.9,0,0,1,.214.3.866.866,0,0,1,0,.714l-1.122,2.142a32.858,32.858,0,0,0,7.078-11.5c6.4-19.815-6.12-28.974-11.818-31.993-7.8-4.141-16.493-3.21-22.687,2.421-3.066,2.788-5.692,7.936-7.105,11.091l8.159-5.712a.844.844,0,0,1,1.163.177,97.876,97.876,0,0,0,10.269,11.233,122.725,122.725,0,0,0,10.26,8.16c.68-1.122,2.149-2.944,4.081-3.216a4.119,4.119,0,0,1,3.659,1.6,4.607,4.607,0,0,1,1,1.669,4.552,4.552,0,0,1,.226,1.935C1473.05,825.034,1468.488,829.182,1467.215,830.291Z" transform="translate(-1050.164 -627.383)" fill="#313131"/><path d="M1438.072,871.064a.952.952,0,0,1-.276-.048c-3.306-1.149-3.511-1.761-3.612-2.04s-.285-.836,3.4-8.84a.842.842,0,0,1,.469-.373.852.852,0,0,1,1.074,1.053c-1.363,3-2.864,6.378-3.232,7.514a18.105,18.105,0,0,0,2.443,1.034.842.842,0,0,1,.451.37.861.861,0,0,1,.107.574.854.854,0,0,1-.837.708Zm11-4.339a.86.86,0,0,1-.837-.68,6.888,6.888,0,0,0-5.562-5.331.851.851,0,1,1,.273-1.68c5.805.938,6.948,6.63,6.963,6.691a.831.831,0,0,1,0,.332.885.885,0,0,1-.131.305.846.846,0,0,1-.546.355Zm-11.6-8.792a.831.831,0,0,1-.564-.217,4.438,4.438,0,0,0-5.126-.537.854.854,0,0,1-.644.1.852.852,0,0,1-.629-1.024.848.848,0,0,1,.38-.527,6.115,6.115,0,0,1,7.156.721.863.863,0,0,1,.258.434.835.835,0,0,1-.033.5.853.853,0,0,1-.8.544Zm29.861,14.539a.832.832,0,0,1-.285-.048l-1.264-.449a.86.86,0,0,1-.344-.225.832.832,0,0,1-.193-.36.8.8,0,0,1-.009-.411.85.85,0,0,1,.19-.364l2.042-2.373a.85.85,0,0,1,1.448.514.857.857,0,0,1-.169.6l-1.247,1.435h.083a.848.848,0,0,1,.267,1.451.844.844,0,0,1-.546.2Zm-25.011-5.393a.918.918,0,1,0-.917-.918A.917.917,0,0,0,1442.317,867.079Zm-9.18-4.3a.918.918,0,1,0-.92-.918A.917.917,0,0,0,1433.137,862.781Z" transform="translate(-1049.25 -674.765)" fill="#313131"/><path d="M1537.862,918.331l1.339,2.045a2.028,2.028,0,0,0,2.808.586l2.045-1.339a2.029,2.029,0,0,0,.585-2.807l-1.339-2.045a2.028,2.028,0,0,0-2.808-.585l-2.045,1.339A2.025,2.025,0,0,0,1537.862,918.331Z" transform="translate(-1124.528 -716.245)" fill="#fecd07"/><path d="M1482.468,924.431a3.068,3.068,0,0,1-.683-.068A3.124,3.124,0,0,1,1479.8,923l-1.027-1.571a3.151,3.151,0,0,1,.032-3.5,3.147,3.147,0,0,1,.879-.86l1.573-1.027a3.146,3.146,0,0,1,2.368-.447,3.185,3.185,0,0,1,1.131.481,3.13,3.13,0,0,1,.858.877l1.027,1.564a3.144,3.144,0,0,1,.448,2.368,3.142,3.142,0,0,1-1.359,1.991l-1.564,1.027A3.148,3.148,0,0,1,1482.468,924.431Zm-2.247-3.924,1.027,1.571a1.437,1.437,0,0,0,1.481.63,1.443,1.443,0,0,0,.525-.215l1.564-1.027a1.483,1.483,0,0,0,.406-.4,1.482,1.482,0,0,0,.229-1.086,1.466,1.466,0,0,0-.214-.525l-1.027-1.564a1.434,1.434,0,0,0-.4-.417,1.448,1.448,0,0,0-1.641-.005l-1.57,1.027a1.481,1.481,0,0,0-.407.4,1.448,1.448,0,0,0-.223,1.087,1.41,1.41,0,0,0,.214.524Zm-23.412-2.374a4.949,4.949,0,0,1-2.155-.5.847.847,0,0,1-.427-.495.852.852,0,0,1,1.193-1.029c.273.136,2.722,1.224,4.212-1.693a.8.8,0,0,1,.2-.28.851.851,0,0,1,.635-.225.863.863,0,0,1,.332.092.878.878,0,0,1,.267.216.845.845,0,0,1,.16.3.834.834,0,0,1,.027.343.853.853,0,0,1-.113.325A4.784,4.784,0,0,1,1456.81,918.133Z" transform="translate(-1065.919 -716.287)" fill="#313131"/><path d="M531.539,965.423l-8,32.292L488.9,975.044l-1.51-58.1,42.645-.972Z" transform="translate(-386.067 -717.731)" fill="#fff"/><path d="M521.522,996.568a.933.933,0,0,1-.469-.136l-34.628-22.68a.816.816,0,0,1-.279-.291.832.832,0,0,1-.109-.389l-1.51-58.1a.837.837,0,0,1,.231-.605.871.871,0,0,1,.6-.265L528,913.126a.85.85,0,0,1,.864.83l1.51,49.448a.859.859,0,0,1,0,.231l-8,32.292a.882.882,0,0,1-.188.356.868.868,0,0,1-.329.229A.8.8,0,0,1,521.522,996.568Zm-33.8-23.991,33.261,21.76,7.684-31.013-1.476-48.464-40.945.911Z" transform="translate(-384.053 -715.733)" fill="#313131"/><path d="M575.922,960.791s-6.052-4.59-21.081-3.937c-8.3.361,3.706-8.765,3.706-8.765l17.076-.387Z" transform="translate(-431.443 -740.047)" fill="#313131"/><path d="M570.1,959.566a.9.9,0,0,1-.435-.115c-.075-.048-7.95-4.556-22.509-3.931-.728.034-2.972.13-3.448-1.36-.762-2.393,5.032-6.582,8.555-8.84a.849.849,0,0,1,.442-.143l17.076-.388a.857.857,0,0,1,.871.83l.3,13.09a.849.849,0,0,1-.242.614.847.847,0,0,1-.608.256Zm-20.116-5.779c10.133,0,16.613,2.373,19.231,3.563l-.245-10.825-15.988.367c-4.175,2.72-7.725,5.882-7.65,6.8a3.559,3.559,0,0,0,1.326.177h.429Q548.576,953.786,549.983,953.786Z" transform="translate(-425.62 -738)" fill="#313131"/><path d="M513.243,787.834l5.535,17.136a20.4,20.4,0,0,1-13.145,25.69l-8.9,2.876a20.4,20.4,0,0,1-25.7-13.144L465.5,803.27a21.712,21.712,0,0,1,13.982-27.329l6.433-2.074a21.707,21.707,0,0,1,27.331,13.967Z" transform="translate(-369.933 -617.063)" fill="#fff"/><path d="M491.871,834.156a24.012,24.012,0,0,1-5.726-.68.851.851,0,1,1,.408-1.652,22.442,22.442,0,0,0,12.241-.449l6.182-2a19.529,19.529,0,0,0,12.567-24.541l-4.76-14.742A23.415,23.415,0,0,0,483.289,775l-1.544.5a23.453,23.453,0,0,0-15.09,29.491l3.849,11.92a22.439,22.439,0,0,0,9.725,12.3.851.851,0,0,1-.884,1.455,24.219,24.219,0,0,1-10.459-13.232l-3.856-11.92a25.159,25.159,0,0,1,16.171-31.66l1.55-.5a25.113,25.113,0,0,1,31.629,16.184l4.76,14.742a21.236,21.236,0,0,1-13.662,26.7l-6.182,2A24.247,24.247,0,0,1,491.871,834.156Z" transform="translate(-369.487 -616.588)" fill="#313131"/><path d="M501.375,772.068s-2.414-6.12-6.032-7.9-29.017,7.078-30.86,8.894c-1.591,1.578-2.591,4.209-2.911,9.261-.353,5.555-6.882,8.445-6.882,8.445L453.63,787.5l-7.12-21.821a1.2,1.2,0,0,1,.768-1.516l43.25-17.177a1.183,1.183,0,0,1,1.469.68Z" transform="translate(-357.277 -598.855)" fill="#313131"/><path d="M452.691,789.686a.83.83,0,0,1-.809-.585l-1.081-3.25-7.12-21.821A2.035,2.035,0,0,1,445,761.447l43.2-17.156a2.04,2.04,0,0,1,2.577,1.2l9.378,24.364a.851.851,0,0,1-1.585.619c0-.055-2.339-5.814-5.617-7.48-3.087-1.543-28.2,7.065-29.888,8.738-1.557,1.544-2.38,4.229-2.666,8.711-.374,6-7.1,9.044-7.385,9.173A.84.84,0,0,1,452.691,789.686Zm36.2-43.832a.262.262,0,0,0-.1,0L445.591,763a.424.424,0,0,0-.259.19.363.363,0,0,0,0,.265l7.834,24.16c1.68-.959,5.291-3.461,5.535-7.282.313-4.93,1.285-7.956,3.162-9.812,1.761-1.734,27.759-11.084,31.839-9.044a8.279,8.279,0,0,1,1.945,1.36l-6.46-16.8a.347.347,0,0,0-.32-.19Z" transform="translate(-355.257 -596.924)" fill="#313131"/><path d="M556.689,839.333a.844.844,0,0,1-.809-.585.857.857,0,0,1,.544-1.074l6.086-1.965a82.19,82.19,0,0,0-3.6-7.738.85.85,0,1,1,1.51-.782c4.169,8.064,3.965,8.983,3.9,9.282a.858.858,0,0,1-.571.626l-6.8,2.2A.893.893,0,0,1,556.689,839.333Zm-9.738-6.576h-.136a.849.849,0,0,1-.68-.972c.714-4.61,5.039-6.535,7.222-6.909a.85.85,0,1,1,.292,1.673c-.224.041-5.134.959-5.835,5.494a.85.85,0,0,1-.864.714Zm20.34-6.4a.837.837,0,0,1-.626-.279c-2.353-2.557-6.535-1.53-6.576-1.516a.853.853,0,1,1-.421-1.653c.217-.055,5.222-1.278,8.248,2.04a.85.85,0,0,1-.626,1.421Zm-14.1,7.507a1.095,1.095,0,1,0-1.1-1.095A1.095,1.095,0,0,0,553.194,833.866Zm11.153-3.1a1.095,1.095,0,1,0-1.095-1.095A1.1,1.1,0,0,0,564.346,830.764Z" transform="translate(-427.368 -652.105)" fill="#313131"/><path d="M473.736,892.365c2.955-1.747,3.189-6.819.523-11.328s-7.223-6.75-10.178-5-3.189,6.819-.523,11.329S470.781,894.112,473.736,892.365Z" transform="translate(-368.002 -689.232)" fill="#fff"/><path d="M469.463,891.79c-3.047,0-6.494-2.353-8.657-6.011-2.9-4.9-2.53-10.506.823-12.485,2.441-1.448,5.882-.639,8.766,2.04a.85.85,0,0,1-.212,1.424.85.85,0,0,1-.951-.187c-2.319-2.169-4.964-2.9-6.739-1.843-2.5,1.476-2.6,6.12-.224,10.159,1.992,3.4,5.27,5.535,7.813,5.127a.839.839,0,0,1,.292,1.652A5.42,5.42,0,0,1,469.463,891.79Z" transform="translate(-365.997 -687.223)" fill="#313131"/><path d="M474,891.2a.856.856,0,0,1-.782-.51.843.843,0,0,1,.442-1.115l.571-.252-2.632-2.1a.85.85,0,1,1,1.061-1.326l3.733,2.972a.843.843,0,0,1-.184,1.441l-1.87.823A.858.858,0,0,1,474,891.2Zm26.55.007a4.85,4.85,0,0,1-1.319-.184,3.83,3.83,0,0,1-2.564-2.006c-1.109-2.21.054-5.215.1-5.345a.85.85,0,0,1,.809-.537.844.844,0,0,1,.782.571,3.4,3.4,0,0,0,2.04,1.9,5.951,5.951,0,0,0,4.93-.455.843.843,0,0,1,.973.122.865.865,0,0,1,.211.959C506.443,886.458,504.383,891.2,500.547,891.2Zm-2.618-5.175a4.027,4.027,0,0,0,.258,2.231,2.189,2.189,0,0,0,1.483,1.122c1.8.49,3.21-.68,4.128-1.877a7.214,7.214,0,0,1-3.992-.313A5.758,5.758,0,0,1,497.929,886.029Z" transform="translate(-374.714 -694.641)" fill="#313131"/><path d="M929.217,456.848s.632-12.859,2.321-18.55,3.751-7.242,3.119-21.76-1.466-31.469-4.262-31.864c-2.306-.333-2.042,2.883-2.042,2.883s-1.6-11.757-5.487-11.56a3.255,3.255,0,0,0-2.985,2.972s-2.387-6.841-6.039-5.848c-2.36.639-1.938,5.977-1.938,5.977s-2.278-5.515-6.12-3.584c-3.516,1.782,2.108,30.987,2.108,30.987s-11.6-12.376-16.226-6.8c-2.557,3.094,7.9,10.3,7.6,17.469a75.919,75.919,0,0,0,1.877,20.951c1.183,5.6-1.645,15.707-1.645,15.707Z" transform="translate(-670.071 -335.919)" fill="#fff"/><path d="M927.238,455.579h-.089l-29.7-3.06a.85.85,0,0,1-.619-.367.834.834,0,0,1-.115-.68c0-.1,2.754-9.969,1.632-15.3a77,77,0,0,1-1.9-21.168c.143-3.4-2.442-6.929-4.719-10.044s-4.345-5.922-2.686-7.929a4.686,4.686,0,0,1,3.618-1.747c4.012-.123,9.187,4.08,11.941,6.6-.5-2.815-1.285-7.48-1.9-12.24-1.775-13.81-.626-16.32.734-17a4.134,4.134,0,0,1,3.4-.211,5.881,5.881,0,0,1,2.285,1.707c.224-1.625.843-3.4,2.462-3.937,3.074-1,5.3,2.441,6.379,4.658a3.8,3.8,0,0,1,2.87-1.822h.129c3.149,0,4.861,5.385,5.678,9.132a2.384,2.384,0,0,1,1.879-.435c3.072.442,4.019,10.431,4.989,32.639.51,11.771-.713,15.136-2.128,19.04-.338.945-.68,1.917-1.027,3.04-1.638,5.528-2.276,18.224-2.285,18.36a.843.843,0,0,1-.849.809Zm-28.61-4.651,27.806,2.863c.184-3.046.852-12.92,2.306-17.856.353-1.176.715-2.169,1.06-3.135,1.362-3.726,2.523-6.936,2.042-18.36-.321-7.235-.68-14.8-1.273-20.726-.938-9.282-2.039-10.241-2.285-10.336a.64.64,0,0,0-.611.136,2.783,2.783,0,0,0-.427,1.843.852.852,0,0,1-1.695.183c-.605-4.434-2.514-10.941-4.6-10.839-1.415.068-2.21,2.359-2.217,2.387a.85.85,0,0,1-1.612,0c0-.061-2.244-6.2-4.971-5.318-1.36.435-1.5,3.618-1.36,5.093a.85.85,0,0,1-1.632.4s-1.108-2.618-2.9-3.291a2.444,2.444,0,0,0-2.04.15c-1.55.945-.374,14.715,2.577,30.062a.85.85,0,0,1-1.455.741c-.075-.082-7.671-8.16-12.587-7.97a3.033,3.033,0,0,0-2.367,1.136c-.809.979.918,3.339,2.754,5.834,2.319,3.175,5.209,7.119,5.046,11.124a74.526,74.526,0,0,0,1.856,20.739C901.035,440.558,899.315,448.222,898.628,450.928Z" transform="translate(-668.09 -333.814)" fill="#313131"/><path d="M958.2,432.391a.843.843,0,0,1-.83-.68c-.891-4.6-5.365-7.623-8.963-10.05a26.515,26.515,0,0,1-3.7-2.788.85.85,0,1,1,1.2-1.2,25.462,25.462,0,0,0,3.454,2.577c3.652,2.469,8.657,5.848,9.677,11.145a.843.843,0,0,1-.68.993A.671.671,0,0,1,958.2,432.391Zm-1.918-12.62a.842.842,0,0,1-.829-.68c-.136-.619-.272-1.3-.429-2.04-1.061-5.12-2.829-13.695-6.542-25.955a.85.85,0,0,1,1.625-.5c3.733,12.342,5.522,20.957,6.583,26.111.156.734.292,1.414.421,2.04a.85.85,0,0,1-.368.882.853.853,0,0,1-.312.125Zm5.644-.666a.85.85,0,0,1-.843-.741c0-.191-2.345-18.781-4.63-27.424a.85.85,0,1,1,1.639-.435c2.319,8.752,4.659,27.458,4.677,27.648a.825.825,0,0,1-.021.33.857.857,0,0,1-.148.3.87.87,0,0,1-.25.216.852.852,0,0,1-.315.1Zm5.42.666a.85.85,0,0,1-.849-.85,187,187,0,0,0-1.591-19.454.849.849,0,0,1,1.315-.8.839.839,0,0,1,.356.515,189.092,189.092,0,0,1,1.62,19.72.849.849,0,0,1-.243.614.8.8,0,0,1-.279.19A.843.843,0,0,1,967.35,419.771Z" transform="translate(-707.456 -347.727)" fill="#313131"/><path d="M1114.283,455.4a65.484,65.484,0,0,0,3.4-17.85c.341-6.188,10.99-14.191,9.432-16.388-2.965-4.189-15.641,6.12-15.641,6.12s6.652-28.172,3.8-29.532c-1.855-.891-5.262,5.991-5.262,5.991s2.217-9.873.347-10.492c-2.5-.823-7.2,9.7-7.2,9.7s1.49-7.317,0-7.589c-2.719-.5-8,14.28-8,14.28s1.033-6.8-.974-6.684c-2.434.109-5.108,18.625-6.868,31.075s-.116,13.953.854,18.992-10.56,75.356-3.929,98.136c8.6,29.647,44.327,93.955,44.327,93.955l31.232-49.4s-30.22-40.977-37.892-67.591C1116.212,508.323,1112.8,460.16,1114.283,455.4Z" transform="translate(-804.323 -350.111)" fill="#fff"/><path d="M1126.6,643.982a.869.869,0,0,1-.718-.442c-.356-.641-35.859-64.7-44.4-94.069-4.76-16.32-.311-56.4,2.339-80.34,1.021-9.241,1.832-16.537,1.573-17.87-.193-1-.415-1.863-.626-2.72-.89-3.475-1.668-6.48-.237-16.578,3.4-24.262,5.226-31.687,7.669-31.8a1.591,1.591,0,0,1,.712.124,1.609,1.609,0,0,1,.587.427,3.734,3.734,0,0,1,.733,1.945c2.116-5.134,4.9-10.485,7.135-10.077a1.372,1.372,0,0,1,.508.211,1.406,1.406,0,0,1,.383.394,5.482,5.482,0,0,1,.454,2.924c1.784-3.155,4.081-6.242,5.966-5.61,1.475.482,1.537,3.4,1.086,6.8,1.246-1.659,2.659-2.842,3.932-2.237.828.4,2.365,1.135-.368,16.2-.843,4.665-1.843,9.3-2.449,11.975,3.1-2.3,9.094-6.3,12.691-5.821a3.189,3.189,0,0,1,2.271,1.319c1.086,1.537-.68,3.686-3.4,6.95-2.549,3.067-5.71,6.888-5.888,9.969a66.585,66.585,0,0,1-3.4,18.067c-1.359,4.338,1.8,51.958,7.63,72.194,7.5,26.125,37.423,66.923,37.735,67.306a.83.83,0,0,1,.151.478.845.845,0,0,1-.151.481l-31.232,49.4a.892.892,0,0,1-.291.285A.86.86,0,0,1,1126.6,643.982Zm-34.36-242.048c-2.042,1.9-4.87,21.759-6.081,30.286-1.359,9.764-.68,12.62.2,15.918.217.863.448,1.754.68,2.795.294,1.516-.333,7.344-1.558,18.36-2.639,23.8-7.052,63.681-2.392,79.681,7.826,26.913,38.545,83.333,43.564,92.477l30.193-47.686c-3.4-4.65-30.5-42.465-37.681-67.387-5.571-19.325-9.222-68.094-7.625-73.173a64.189,64.189,0,0,0,3.333-17.646c.2-3.645,3.565-7.7,6.272-10.968,1.4-1.693,3.52-4.25,3.318-4.889a1.522,1.522,0,0,0-1.11-.605c-3.4-.456-10.729,4.841-13.282,6.922a.844.844,0,0,1-.484.186.851.851,0,0,1-.876-1.043c2.953-12.491,5.381-26.853,4.229-28.56-.638.048-2.544,2.448-4.078,5.6a.85.85,0,0,1-1.508.034.857.857,0,0,1-.086-.6c.979-4.359,1.362-8.738.852-9.52-.917-.075-3.68,3.849-6.12,9.255a.862.862,0,0,1-.428.433.853.853,0,0,1-.608.036.85.85,0,0,1-.576-.979c.57-2.815.8-5.719.537-6.548-1.264.551-4.422,6.752-6.9,13.688a.847.847,0,0,1-1.018.569.852.852,0,0,1-.626-.983C1092.72,405.1,1092.681,402.5,1092.239,401.934Z" transform="translate(-802.355 -348.153)" fill="#313131"/><path d="M1122.415,459.94a.75.75,0,0,1-.237-.034.846.846,0,0,1-.576-1.054c1.359-4.535,6.12-7.208,9.643-9.153a23.364,23.364,0,0,0,3.161-1.952.853.853,0,0,1,.623-.19.868.868,0,0,1,.317.1.859.859,0,0,1,.413.5.833.833,0,0,1,.033.33.8.8,0,0,1-.095.318.866.866,0,0,1-.211.257,24.026,24.026,0,0,1-3.4,2.122c-3.4,1.911-7.693,4.284-8.842,8.16a.849.849,0,0,1-.831.6Zm5.443-11.73h-.125a.855.855,0,0,1-.718-.959c.87-6.038,2.555-12.8,5.621-22.637a.852.852,0,1,1,1.626.51c-3.045,9.737-4.707,16.428-5.562,22.365a.861.861,0,0,1-.843.721Zm-6.221-.571h-.145a.859.859,0,0,1-.68-.979c0-.15,2.532-15.034,5.007-22.82a.816.816,0,0,1,.149-.31.829.829,0,0,1,.261-.225.841.841,0,0,1,.327-.1.851.851,0,0,1,.644.2.871.871,0,0,1,.294.608.882.882,0,0,1-.057.34c-2.443,7.67-4.924,22.44-4.945,22.6a.84.84,0,0,1-.3.5A.849.849,0,0,1,1121.637,447.639Zm-5.265,0h-.077a.862.862,0,0,1-.318-.094.9.9,0,0,1-.258-.209.841.841,0,0,1-.157-.291.827.827,0,0,1-.033-.33c.306-3.1,1.359-11.56,2.244-16.1a.851.851,0,0,1,1.54-.318.836.836,0,0,1,.13.638c-.87,4.468-1.923,12.879-2.223,15.946a.842.842,0,0,1-.849.762Z" transform="translate(-827.773 -371.201)" fill="#313131"/><path d="M250.009,763.47s-53.158,15.456-65.242,25.719c-10.534,8.942-39.2,89.688-36.973,118.927s49.3,25.44,49.3,25.44l-3.7,18.02h145.97s-2.809-115.781,4.76-145.049,35.532-57.8,49.643-85.127S413.17,620.231,413.17,620.231s-9.032,4.4-23.02,2.869c-14.723-1.6-20.863-8-20.863-8s-8.351,63.66-18.545,79.2-38.884,49.64-58.1,59.546l-8,32.292Z" transform="translate(-147.175 -506.157)" fill="#fff"/><path d="M192.214,950.451a.589.589,0,0,1-.177,0,.837.837,0,0,1-.551-.356.821.821,0,0,1-.13-.309.836.836,0,0,1,0-.333l3.489-17a92.222,92.222,0,0,1-22.815-3.045c-16.015-4.455-24.978-13.334-25.91-25.683-2.19-28.811,25.9-107.833,36.9-117.155,12.084-10.263,63.379-25.256,65.555-25.888a.842.842,0,0,1,.68.1L282.89,782.8l7.711-31.132a.879.879,0,0,1,.162-.324.83.83,0,0,1,.28-.226c18.769-9.678,47.6-43.724,57.769-59.262,9.976-15.218,18.32-78.2,18.4-78.838a.871.871,0,0,1,.578-.68.844.844,0,0,1,.877.218c.061.061,6.12,6.188,20.347,7.738,13.547,1.482,22.442-2.72,22.558-2.788a.835.835,0,0,1,.427-.084.853.853,0,0,1,.415.145.857.857,0,0,1,.374.762c-.056.741-5.44,74.3-19.5,101.495-5.44,10.546-12.751,21-20.5,32.074-12.03,17.2-24.481,34.993-29.085,52.876-7.433,28.826-4.76,143.66-4.713,144.835a.852.852,0,0,1-.237.605.864.864,0,0,1-.593.267.89.89,0,0,1-.329-.053.841.841,0,0,1-.473-.451.843.843,0,0,1-.069-.327c0-1.155-2.72-116.229,4.76-145.277,4.692-18.183,17.219-36.1,29.337-53.428,7.711-11.022,14.961-21.439,20.4-31.883,12.817-24.827,18.394-89.18,19.21-99.448a48.269,48.269,0,0,1-22.155,2.393c-11.316-1.237-17.647-5.222-20.143-7.167-1.36,10.1-9.044,63.619-18.456,77.981-10.493,16.021-38.762,49.5-58.068,59.661l-7.916,31.918a.843.843,0,0,1-.187.356.875.875,0,0,1-.328.231.864.864,0,0,1-.4.053.827.827,0,0,1-.379-.131l-34.3-22.439c-4.76,1.407-53.274,15.866-64.563,25.44-4.917,4.173-14.519,25.3-22.822,50.229-9.412,28.241-14.451,52.725-13.478,65.5,2.135,28.1,47.6,27.152,48.051,27.137a.859.859,0,0,1,.375.074.87.87,0,0,1,.3.231.832.832,0,0,1,.184.715l-3.7,18.02a.862.862,0,0,1-.3.448A.834.834,0,0,1,192.214,950.451Z" transform="translate(-146 -504.185)" fill="#313131"/><path d="M747.713,1500.707l-60.754-1.273,27.521-92.653,58.5,10.98Z" transform="translate(-526.404 -1062.883)" fill="#079b7e"/><path d="M745.73,1499.552l-60.748-1.273a.816.816,0,0,1-.38-.095.882.882,0,0,1-.3-.249.867.867,0,0,1-.151-.356.85.85,0,0,1,.022-.386l27.521-92.656a.852.852,0,0,1,.972-.591l58.483,10.975a.854.854,0,0,1,.334.134.817.817,0,0,1,.251.258.835.835,0,0,1,.122.338.862.862,0,0,1-.027.359l-25.27,82.958a.848.848,0,0,1-.829.585Zm-59.619-2.911,58.993,1.232,24.8-81.468-56.81-10.663Z" transform="translate(-524.421 -1060.879)" fill="#313131"/><path d="M863.989,1412.355l-27.065-5.081,1.3-4.324,27.011,5.3Z" transform="translate(-631.86 -1060.189)" fill="#079b7e"/><path d="M861.91,1411.2a.714.714,0,0,1-.157,0l-27.093-5.093a.832.832,0,0,1-.328-.136.794.794,0,0,1-.243-.258.868.868,0,0,1-.088-.68l1.3-4.324a.848.848,0,0,1,.375-.486.86.86,0,0,1,.6-.107l27.011,5.3a.914.914,0,0,1,.324.143.865.865,0,0,1,.241.258.881.881,0,0,1,.112.332.855.855,0,0,1-.031.35l-1.244,4.078a.842.842,0,0,1-.782.626Zm-25.977-6.589,25.385,4.76.748-2.484-25.331-4.968Z" transform="translate(-629.781 -1058.185)" fill="#313131"/><path d="M873.884,1397.347h-.163l-16.94-3.318a.863.863,0,0,1-.564-.395.846.846,0,0,1-.117-.332.832.832,0,0,1,.028-.347l1.421-4.761a.858.858,0,0,1,.986-.593l16.905,3.481a.866.866,0,0,1,.585.383.848.848,0,0,1,.1.694l-1.421,4.588a.854.854,0,0,1-.816.6Zm-15.858-4.828,15.267,2.991.9-2.965-15.233-3.134Z" transform="translate(-645.34 -1049.384)" fill="#313131"/><path d="M623.945,1525.481s23.5-1.021,34.852-8.841c0,0-6.576,14.551-1.217,15.477s42.516-6.012,43.6.3c.979,5.737-28.813,9.681-28.813,9.681s32.785-4.909,32.785,1.178c0,6.283-32.043,7.322-32.043,7.322s28.072-2.1,28.072,3.211-29.364,5.093-29.364,5.093,21.965-.605,21.965,4.76c0,6.888-72.233,2.448-72.233,2.448Z" transform="translate(-480.405 -1140.139)" fill="#fff"/><path d="M661.951,1566.457c-18.266,0-38.68-1.2-42.482-1.433a.925.925,0,0,1-.321-.083.886.886,0,0,1-.264-.2.852.852,0,0,1-.167-.285.844.844,0,0,1-.044-.33l2.4-40.655a.846.846,0,0,1,.255-.555.835.835,0,0,1,.561-.24c.231,0,23.38-1.1,34.4-8.678a.852.852,0,0,1,1.026.048.85.85,0,0,1,.232,1c-1.292,2.855-4.312,10.88-2.877,13.551a1.365,1.365,0,0,0,1.033.742c1.626.279,6.753-.252,12.7-.87,17.987-1.864,30.785-2.822,31.588,1.864a2.715,2.715,0,0,1-.571,2.119c-1.482,2.006-5.916,3.707-10.88,5.054,6.351-.252,12.4.06,14.5,1.876a2.546,2.546,0,0,1,.952,1.953c0,1.843-1.469,4.434-13.322,6.357,3.842.353,7.106,1.053,8.487,2.338a2.459,2.459,0,0,1,.864,1.837,2.564,2.564,0,0,1-.843,1.849c-1.918,1.9-7.514,2.923-13.329,3.475,2.523.522,4.665,1.279,5.8,2.38a2.96,2.96,0,0,1,.972,2.155,1.993,1.993,0,0,1-.68,1.49C689.241,1565.715,676.252,1566.457,661.951,1566.457Zm-41.53-3.08c26.324,1.585,66.174,2.5,70.322-1.4.048-.047.163-.169.163-.252a1.239,1.239,0,0,0-.462-.932c-2.319-2.255-11.085-2.888-16.933-2.983h-3.727a.87.87,0,0,1-.592-.252.86.86,0,0,1-.251-.594.849.849,0,0,1,.83-.855c.469,0,1.9-.047,3.829,0,8.16-.137,21.652-.911,24.366-3.6a.86.86,0,0,0,.34-.641.775.775,0,0,0-.32-.591c-2.414-2.237-13.471-2.353-21.271-2.039-3.3.223-5.563.3-5.6.306a.851.851,0,1,1-.089-1.7c.741-.054,3.258-.232,6.515-.341,11.846-.89,24.767-3.012,24.767-6.209a.814.814,0,0,0-.1-.383.854.854,0,0,0-.268-.3c-3.251-2.807-20.612-1.142-29.3,0l-2.156.3a.85.85,0,0,1-.238-1.68c.367-.053,1.1-.163,2.115-.3,7.861-1.181,23.169-4.078,25.712-7.568a1,1,0,0,0,.265-.828c-.109-.632-1.3-2.083-9.976-1.968-5.943.077-13.281.837-19.721,1.511-6.318.68-11.309,1.169-13.166.852a3.046,3.046,0,0,1-2.244-1.62c-1.537-2.9.455-9.09,1.809-12.592-10.853,6.025-28.385,7.363-32.3,7.574Z" transform="translate(-478.384 -1138.175)" fill="#313131"/><path d="M470.532,1062.052l-8.895,12.581s22.55,32.639,25.161,46.8l18.606-26.915,26.63,8.221-14.206-43.1-4.651-6.016.266,8.58-8,32.292Z" transform="translate(-367.957 -814.539)" fill="#fff"/><path d="M484.764,1120.308a.564.564,0,0,1-.177,0,.831.831,0,0,1-.448-.231.841.841,0,0,1-.233-.448c-2.564-13.851-24.814-46.158-25.039-46.478a.856.856,0,0,1,0-.979l8.895-12.571a.84.84,0,0,1,.266-.247.832.832,0,0,1,.345-.107.847.847,0,0,1,.365.036.873.873,0,0,1,.315.187l33.832,31.485,7.623-30.776-.252-8.479a.841.841,0,0,1,.142-.508.846.846,0,0,1,.942-.338.843.843,0,0,1,.432.3l4.651,6.019a.783.783,0,0,1,.129.252l14.213,43.1a.839.839,0,0,1,.024.46.85.85,0,0,1-.624.632.868.868,0,0,1-.461-.018l-26-8.057-18.239,26.4a.9.9,0,0,1-.306.268A.869.869,0,0,1,484.764,1120.308Zm-24.148-47.647c2.8,4.08,20.755,30.654,24.536,44.729l17.089-24.724-33.634-31.277Zm43.76,19.3,24.243,7.521-13.6-41.4-2.958-3.82.184,5.957a.859.859,0,0,1,0,.231Z" transform="translate(-365.902 -812.561)" fill="#313131"/><path d="M314.152,1571.292c12.479.2,91.234,2.923,91.234,2.923s5.536-9.31,5.536-25.03c0-15.082-2.986-23.528-2.986-23.528l-88.969-3.677Z" transform="translate(-264.245 -1143.894)" fill="#fff"/><path d="M403.433,1572.986c-.789,0-78.884-2.722-91.213-2.906a.852.852,0,0,1-.843-.86.842.842,0,0,1,.255-.6.879.879,0,0,1,.28-.181.826.826,0,0,1,.329-.053c11.812.175,83.835,2.644,90.723,2.882,1.047-1.991,5.182-10.743,5.182-24.161,0-12.625-2.135-20.623-2.768-22.7l-88.4-3.659a.849.849,0,0,1,.075-1.692l88.969,3.677a.859.859,0,0,1,.768.564c.123.356,3.033,8.761,3.033,23.8,0,15.773-5.44,25.078-5.658,25.466a.837.837,0,0,1-.306.312A.845.845,0,0,1,403.433,1572.986Z" transform="translate(-262.294 -1141.833)" fill="#313131"/><path d="M344.558,1432.112a.809.809,0,0,1-.252-.041.859.859,0,0,1-.5-.418.853.853,0,0,1-.057-.65l11.642-37.4a.848.848,0,0,1,.158-.291.882.882,0,0,1,.258-.211.852.852,0,0,1,.318-.092.823.823,0,0,1,.33.033.8.8,0,0,1,.292.16.848.848,0,0,1,.209.255.861.861,0,0,1,.094.32.845.845,0,0,1-.034.329l-11.649,37.4a.862.862,0,0,1-.3.436A.878.878,0,0,1,344.558,1432.112Z" transform="translate(-285.03 -1053.196)" fill="#313131"/><path d="M461.768,1306.46l-8.325,2.4,10.912,37.88,8.325-2.4Z" transform="translate(-362.195 -992.335)" fill="#fecd07"/><path d="M462.535,1345.548a.86.86,0,0,1-.816-.62l-10.881-37.875a.854.854,0,0,1,.578-1.054l8.331-2.4a.886.886,0,0,1,.33-.033.848.848,0,0,1,.568.315.862.862,0,0,1,.149.3l10.881,37.875a.857.857,0,0,1-.585,1.054l-8.324,2.4A1,1,0,0,1,462.535,1345.548Zm-9.854-38.148,10.439,36.242,6.692-1.932-10.473-36.236Z" transform="translate(-360.341 -990.302)" fill="#313131"/><path d="M456.631,1276.85l-8.325,2.4,1.382,4.8,8.325-2.4Zm-3.311-5.68-5.215,1.5,1.764,6.123,5.215-1.5Z" transform="translate(-358.441 -967.519)" fill="#fff"/><path d="M448.22,1296.321a.884.884,0,0,1-.415-.107.859.859,0,0,1-.252-.217.826.826,0,0,1-.149-.294l-1.36-4.8a.83.83,0,0,1-.029-.327.845.845,0,0,1,.313-.566.8.8,0,0,1,.294-.151l8.33-2.4a.851.851,0,0,1,1.047.579l1.36,4.757a.853.853,0,0,1-.578,1.056l-8.33,2.4A.92.92,0,0,1,448.22,1296.321Zm-.333-5.066.911,3.163,6.692-1.932-.9-3.155Z" transform="translate(-356.968 -978.952)" fill="#313131"/><path d="M447.856,1277.637a.919.919,0,0,1-.415-.11.844.844,0,0,1-.252-.214.863.863,0,0,1-.149-.3l-1.768-6.119a.852.852,0,0,1,.585-1.048l5.209-1.5a.832.832,0,0,1,.331-.03.85.85,0,0,1,.316.1.822.822,0,0,1,.254.214.841.841,0,0,1,.153.293l1.761,6.12a.82.82,0,0,1-.075.679.852.852,0,0,1-.21.255.839.839,0,0,1-.293.151l-5.216,1.5A.99.99,0,0,1,447.856,1277.637Zm-.68-6.393,1.292,4.487,3.577-1.033-1.292-4.481Zm15.845,19.121a.848.848,0,0,1-.816-.611l-3.625-12.58-3.033.869a.849.849,0,0,1-.949-1.219.859.859,0,0,1,.48-.413l3.849-1.107a.846.846,0,0,1,.332-.03.874.874,0,0,1,.571.318.881.881,0,0,1,.152.3l3.862,13.4a.851.851,0,0,1-.585,1.048A.719.719,0,0,1,463.02,1290.365Z" transform="translate(-356.426 -965.509)" fill="#313131"/><path d="M430.477,1355.08h38.966v28.514l-19.483,18.712-19.483-17.142Z" transform="translate(-346.045 -1026.526)" fill="#fff"/><path d="M447.946,1401.117a.843.843,0,0,1-.565-.217L427.9,1383.758a.834.834,0,0,1-.286-.632v-30.057a.85.85,0,0,1,.85-.849h38.966a.85.85,0,0,1,.85.849v28.514a.837.837,0,0,1-.265.611l-19.483,18.712A.83.83,0,0,1,447.946,1401.117Zm-18.633-18.358,18.606,16.373,18.66-17.916V1353.92H429.313Z" transform="translate(-344.031 -1024.515)" fill="#313131"/><path d="M467.429,1246.885H428.463a.85.85,0,0,1,0-1.7h38.966a.851.851,0,0,1,.85.849.851.851,0,0,1-.85.852Zm2.3,93.1a.805.805,0,0,1-.354-.074.85.85,0,0,1-.422-1.121c.041-.095,4.162-9.337,4.821-24,.5-11.171-1.686-24.024-1.707-24.152a.845.845,0,0,1,.137-.632.836.836,0,0,1,.543-.347.858.858,0,0,1,.986.68c0,.128,2.23,13.165,1.72,24.478-.68,15.014-4.76,24.235-4.964,24.624a.851.851,0,0,1-.762.543Zm10.16-3.534a3.484,3.484,0,1,1,2.455-1.021A3.469,3.469,0,0,1,479.887,1336.446Zm0-5.244a1.775,1.775,0,1,0,.684,3.413,1.773,1.773,0,0,0,1.091-1.644,1.779,1.779,0,0,0-1.775-1.769Zm-2.625-127.756a.918.918,0,0,1-.449-.128.862.862,0,0,1-.381-.552l-1.142-5.482a.817.817,0,0,1-.007-.353.834.834,0,0,1,.142-.327l5.372-7.772a.844.844,0,0,1,.952-.327l8,2.5a.855.855,0,0,1,.585.683l1.211,7.521a.852.852,0,0,1-.639.958l-13.444,3.25A.737.737,0,0,1,477.262,1203.446Zm-.231-6.12.891,4.265,11.826-2.891-1-6.223-6.909-2.14Z" transform="translate(-344.031 -909.359)" fill="#313131"/><path d="M1318.569,1192.461V1024.308l-24.48-10.022-34.752,47.422,1.748-53.761s-13.851,4.469-24.821-4.078-22-25.718-22-25.718,2.508,8.526,0,12.921-7.678,8.063-8.753,13.919,4.025,9.518,0,15.361-7.366,7.737-8.447,14.115,1.828,15.972-10.2,18.441c0,0,10.622,3.754,13.486,22.671s.712,116.882.712,116.882Z" transform="translate(-877.936 -761.46)" fill="#fff"/><path d="M780.146,1191.586a.887.887,0,0,1-.324-.074.853.853,0,0,1-.448-.469.84.84,0,0,1-.056-.33c0-.979,2.113-98.128-.68-116.751-2.722-18.115-12.834-21.964-12.923-22a.848.848,0,0,1-.353-1.362.833.833,0,0,1,.469-.267c8.842-1.816,9.026-7.63,9.21-13.254a34.616,34.616,0,0,1,.338-4.5c.784-4.671,2.722-7.051,5.2-10.064,1.021-1.244,2.175-2.653,3.4-4.386,2.134-3.107,1.433-5.473.623-8.215a13.907,13.907,0,0,1-.76-6.8c.748-3.992,3.188-6.921,5.55-9.758a32.132,32.132,0,0,0,3.277-4.407c2.3-4.018-.054-12.17-.083-12.238a.868.868,0,0,1,.071-.573.857.857,0,0,1,.994-.44.846.846,0,0,1,.472.332c.11.17,11.07,17.177,21.8,25.508,10.48,8.158,23.91,3.962,24.041,3.914a.844.844,0,0,1,.4-.026.858.858,0,0,1,.371.16.847.847,0,0,1,.255.314.829.829,0,0,1,.083.395l-1.659,51,33.126-45.2a.842.842,0,0,1,.454-.315.86.86,0,0,1,.552.027l24.48,10.025a.809.809,0,0,1,.383.315.839.839,0,0,1,.143.472v168.1a.85.85,0,1,1-1.7,0v-167.58l-23.367-9.521L839.14,1060.53a.846.846,0,0,1-.43.306.852.852,0,0,1-1.1-.834l1.7-52.6c-3.618.89-14.959,2.849-24.48-4.508-8.01-6.223-15.92-16.818-19.776-22.346.4,2.916.51,6.706-.967,9.287a33.8,33.8,0,0,1-3.446,4.654c-2.217,2.671-4.517,5.44-5.182,8.98a12.315,12.315,0,0,0,.712,6.034c.858,2.887,1.748,5.882-.849,9.654-1.238,1.8-2.413,3.238-3.455,4.508-2.4,2.926-4.134,5.039-4.85,9.262a33.275,33.275,0,0,0-.312,4.277c-.169,5.256-.38,11.7-8.4,14.281,3.36,2.134,9.827,7.995,11.991,22.276,2.843,18.768.807,113.048.727,117.051a.86.86,0,0,1-.879.777ZM614.98,1144.2a.792.792,0,0,1-.329-.066.811.811,0,0,1-.276-.193l-25.841-26.437a.847.847,0,0,1-.18-.279.836.836,0,0,1-.058-.326l1.136-63.967a.872.872,0,0,1,.2-.523.863.863,0,0,1,.479-.294l13.444-3.25a.859.859,0,0,1,.538.045.841.841,0,0,1,.4.365l30.52,53.915a.841.841,0,0,1,.1.558l-6.052,36.237a.841.841,0,0,1-.5.638c-3.713,1.6-13.043,3.481-13.438,3.564Zm-25-27.606,25.263,25.84a104.455,104.455,0,0,0,12.241-3.19l5.862-35.474-30.051-53.1-12.18,2.953Z" transform="translate(-457.023 -759.713)" fill="#313131"/><path d="M590.172,1293.114a.794.794,0,0,1-.367-.089.85.85,0,0,1-.266-.2.848.848,0,0,1-.217-.614.851.851,0,0,1,.083-.324l19.184-39.786a.85.85,0,0,1,1.53.742l-19.184,39.786a.856.856,0,0,1-.762.484Zm6.052,25.246a.926.926,0,0,1-.367-.083.842.842,0,0,1-.4-1.128l22.686-48.158a.85.85,0,0,1,1.132-.4.848.848,0,0,1,.4,1.131l-22.686,48.152a.852.852,0,0,1-.768.49Zm11.765,12.014a.842.842,0,0,1-.36-.08.857.857,0,0,1-.408-1.137l20.4-43.4a.848.848,0,0,1,.2-.267.89.89,0,0,1,.286-.172.88.88,0,0,1,.329-.047.819.819,0,0,1,.323.08.9.9,0,0,1,.268.2.852.852,0,0,1,.171.288.846.846,0,0,1-.031.65l-20.4,43.4a.847.847,0,0,1-.775.49Zm12.968,6.719a.8.8,0,0,1-.395-.095.824.824,0,0,1-.259-.208.848.848,0,0,1-.16-.291.849.849,0,0,1,.058-.65l10.7-20.332a.853.853,0,0,1,1.51.8l-10.7,20.332a.849.849,0,0,1-.312.33A.866.866,0,0,1,620.957,1337.093Z" transform="translate(-457.744 -953.772)" fill="#313131"/><path d="M1548.05,1099.98s44.808,17.29,52.485,24.356c13.439,12.369,37.477,83.925,37.477,83.925a17,17,0,0,0-17.482-1.757c-10,4.544-8.3,7.924-15.43,8.957-8.916,1.291-15.514-6.214-21.224-1.027s-11.317,2.318-11.317,2.318Z" transform="translate(-1131.926 -847.133)" fill="#fff"/><path d="M1574.453,1216.316a9.9,9.9,0,0,1-4.23-.89.85.85,0,0,1-.264-.2.862.862,0,0,1-.163-.288.836.836,0,0,1-.042-.332.852.852,0,0,1,.917-.783.858.858,0,0,1,.32.092c.211.1,5.167,2.51,10.355-2.2,3.66-3.318,8.073-1.938,12.344-.605,3.054.952,6.209,1.938,9.317,1.427a10.477,10.477,0,0,0,6.719-3.3,27.625,27.625,0,0,1,8.494-5.6,17.753,17.753,0,0,1,16.232.463c-4.3-12.4-24.735-70.193-36.429-81.236-7.8-7.351-51.759-24.012-52.207-24.181a.838.838,0,0,1-.282-.175.86.86,0,0,1-.267-.6.874.874,0,0,1,.054-.327.9.9,0,0,1,.178-.282.913.913,0,0,1,.27-.193.872.872,0,0,1,.324-.074.835.835,0,0,1,.329.056c1.823.679,44.718,16.952,52.761,24.534,13.392,12.613,36.723,81.346,37.708,84.269a.843.843,0,0,1-.329.98.866.866,0,0,1-.525.146.841.841,0,0,1-.5-.208,16.042,16.042,0,0,0-16.585-1.623,26,26,0,0,0-8.04,5.288,12.117,12.117,0,0,1-7.6,3.728c-3.5.585-6.862-.463-10.106-1.475-4.161-1.306-7.752-2.427-10.691.237A11.776,11.776,0,0,1,1574.453,1216.316Z" transform="translate(-1129.97 -845.065)" fill="#313131"/><path d="M1625.559,1383.451a.856.856,0,0,1-.849-.831l-1.291-49.76a.859.859,0,0,1,.5-.8.879.879,0,0,1,.324-.071.852.852,0,0,1,.852.828l1.291,49.755a.871.871,0,0,1-.053.326.883.883,0,0,1-.178.282.858.858,0,0,1-.591.264Z" transform="translate(-1184.925 -1010.288)" fill="#313131"/><path d="M1394.2,1065.61s-16.042,6.119-15.751,12.177,5.44,10.732,5.17,16.24-8.073,11.307-7.482,16.815,6.12,6.419,6.381,12.349-.635,20.932,3.283,22.3,14.113-11.159,17-14.061,13.344-6.152,17.98-13.512-1.086-13.429,1.92-17.795,14.122-5.52,16.686-10.449-12.24-22.617-12.24-22.617l-34.791,56.132Z" transform="translate(-1011.012 -822.963)" fill="#fff"/><path d="M1384.377,1145.488a2.673,2.673,0,0,1-.9-.148c-3.4-1.19-3.721-9.1-3.775-18.531,0-1.8,0-3.345-.074-4.535-.136-2.769-1.538-4.327-3.021-5.977s-3.045-3.4-3.357-6.318c-.335-3.208,1.808-6.372,3.882-9.426,1.721-2.534,3.5-5.152,3.6-7.52.11-2.6-1.1-5.057-2.38-7.663s-2.639-5.345-2.787-8.5c-.315-6.535,14.4-12,16.083-12.6a.827.827,0,0,1,.406-.042.845.845,0,0,1,.647.463.861.861,0,0,1,.089.4l-1.5,54.01,33.125-53.452a.884.884,0,0,1,.291-.285.9.9,0,0,1,.388-.119.823.823,0,0,1,.377.074.832.832,0,0,1,.3.231c1.552,1.858,15.071,18.273,12.323,23.555-1.5,2.87-5.4,4.5-9.165,6.066-3.1,1.285-6.292,2.617-7.577,4.475-1.137,1.653-.8,3.638-.374,6.12.552,3.223,1.232,7.241-1.523,11.607-3.17,5.033-8.969,8.221-13.2,10.553a25.643,25.643,0,0,0-4.9,3.113c-.525.525-1.362,1.41-2.252,2.427C1393.587,1139.606,1387.948,1145.488,1384.377,1145.488Zm6.672-79.177c-4.761,1.881-13.982,6.372-13.783,10.479.128,2.8,1.392,5.357,2.609,7.832,1.32,2.68,2.721,5.44,2.558,8.479-.122,2.858-2.039,5.678-3.9,8.414s-3.87,5.689-3.6,8.28c.252,2.389,1.549,3.837,2.923,5.366,1.543,1.713,3.292,3.659,3.464,7.031.053,1.226.065,2.8.074,4.6,0,5.612.086,16.05,2.639,16.94s10.48-7.69,13.825-11.37a33.321,33.321,0,0,1,2.324-2.454,26.131,26.131,0,0,1,5.292-3.4c4.292-2.371,9.643-5.318,12.575-9.974,2.407-3.822,1.813-7.325,1.291-10.417-.457-2.665-.885-5.182.679-7.4s4.85-3.632,8.322-5.081,7.1-2.959,8.31-5.277c1.606-3.086-5.835-13.993-11.361-20.774l-34.158,55.126a.857.857,0,0,1-1.579-.475Z" transform="translate(-1008.979 -821.985)" fill="#313131"/><path d="M1117.3,1335.984c-7.405,0-11.16-9.058-11.165-26.929,0-8.289,7.479-15.035,16.716-15.035s16.713,6.74,16.722,15.029C1139.553,1320.623,1126.857,1335.984,1117.3,1335.984Zm5.55-35.794c-5.814,0-10.542,3.977-10.542,8.838,0,15.234,2.986,20.76,4.992,20.76,5.684,0,16.1-12.239,16.1-20.76-.021-4.867-4.752-8.838-10.566-8.838Zm-80.3,35.806c-6.434,0-12.507-6.672-14.819-9.52-4.671-5.784-7.479-12.287-7.479-17.385,0-8.289,7.479-15.035,16.713-15.035s16.715,6.737,16.724,15.026C1053.708,1326.932,1049.98,1336,1042.548,1336Zm-5.565-35.788c-5.814,0-10.539,3.971-10.539,8.841,0,8.158,10.7,20.753,16.1,20.753,2.007,0,4.983-5.529,4.983-20.759C1047.531,1304.178,1042.8,1300.207,1036.983,1300.207Z" transform="translate(-760.775 -983.587)" fill="#fecd07"/><path d="M1115.334,1334.822c-4.081,0-7.141-2.448-9.147-7.289-1.9-4.591-2.87-11.486-2.87-20.49,0-8.758,7.877-15.884,17.567-15.884s17.564,7.12,17.57,15.877C1138.454,1318.979,1125.276,1334.816,1115.334,1334.822Zm5.55-41.961c-8.753,0-15.867,6.363-15.867,14.183,0,8.779.926,15.456,2.722,19.842,1.739,4.2,4.223,6.235,7.574,6.235,9.011,0,21.423-15.115,21.423-26.084-.009-7.82-7.12-14.177-15.873-14.177Zm-5.55,35.789c-2.722,0-5.841-5.66-5.841-21.612a8.97,8.97,0,0,1,3.4-6.909,12.826,12.826,0,0,1,15.994-.006,9,9,0,0,1,3.4,6.915c0,4.081-2.285,9.363-6.12,14.124C1123.243,1324.779,1118.869,1328.649,1115.334,1328.649Zm5.529-29.627a10.7,10.7,0,0,0-6.889,2.407,7.328,7.328,0,0,0-2.79,5.609c0,15.192,3.033,19.911,4.143,19.911,2.392,0,6.221-2.754,9.518-6.855,3.585-4.461,5.728-9.343,5.728-13.055a7.326,7.326,0,0,0-2.79-5.609A10.723,10.723,0,0,0,1120.863,1299.021Zm-80.287,35.815c-6.8,0-13.089-6.9-15.484-9.853-4.76-5.945-7.642-12.642-7.642-17.925a15.059,15.059,0,0,1,5.182-11.254,18.865,18.865,0,0,1,24.759-.006,15.04,15.04,0,0,1,5.191,11.254c0,18.433-4.04,27.784-12.011,27.784Zm-5.553-41.937a16.752,16.752,0,0,0-11.249,4.19,13.359,13.359,0,0,0-4.618,10c0,4.908,2.722,11.212,7.268,16.857,2.238,2.775,8.094,9.221,14.161,9.221,6.841,0,10.308-8.779,10.308-26.084a13.354,13.354,0,0,0-4.624-9.989A16.75,16.75,0,0,0,1035.023,1292.9Zm5.553,35.788c-3.4,0-7.77-3.944-10.735-7.636-3.891-4.846-6.218-10.07-6.218-13.966,0-5.36,5.108-9.711,11.391-9.711a12.434,12.434,0,0,1,8,2.8,9,9,0,0,1,3.4,6.909c0,6.853-.611,12.5-1.775,16.32-1.033,3.4-2.475,5.267-4.078,5.267Zm-5.562-30.461v.8c-5.345,0-9.691,3.588-9.691,8.01,0,3.475,2.238,8.416,5.841,12.918,3.36,4.188,7.147,7,9.411,7,.335,0,1.422-.727,2.437-4.081.775-2.564,1.7-7.4,1.7-15.842a7.339,7.339,0,0,0-2.79-5.613,10.709,10.709,0,0,0-6.9-2.4Z" transform="translate(-758.806 -981.576)" fill="#313131"/><path d="M1142.867,1388.452v3.2h-47.1v-3.2a7.575,7.575,0,0,1,7.574-7.577h11.228v-46.7c-20.114-4.882-37.871-29.037-37.871-58.091a78.355,78.355,0,0,1,2.95-21.564h79.927a78.48,78.48,0,0,1,2.965,21.564c0,29.054-18.363,53.209-38.477,58.1v46.709h11.225a7.554,7.554,0,0,1,5.354,2.211,7.563,7.563,0,0,1,2.223,5.351Z" transform="translate(-800.47 -955.81)" fill="#fecd07"/><path d="M1093.735,1390.471a.846.846,0,0,1-.849-.852v-3.2a8.436,8.436,0,0,1,8.4-8.452h10.379v-45.184c-9.964-2.626-19.295-9.764-26.332-20.169a69.527,69.527,0,0,1-11.56-38.59,79.155,79.155,0,0,1,2.991-21.8.868.868,0,0,1,.306-.442.856.856,0,0,1,.51-.169H1157.5a.841.841,0,0,1,.513.166.815.815,0,0,1,.3.445,79.173,79.173,0,0,1,3,21.8c0,30.6-19.44,53.719-38.474,58.758v45.2h10.376a8.416,8.416,0,0,1,8.426,8.416v3.2a.851.851,0,0,1-.852.852Zm-15.52-137.14a77.725,77.725,0,0,0-2.719,20.712c0,27.042,16.362,52.2,37.23,57.269a.827.827,0,0,1,.487.291.849.849,0,0,1,.2.531v46.7a.866.866,0,0,1-.249.6.851.851,0,0,1-.6.249h-11.275a6.734,6.734,0,0,0-6.725,6.725v2.353h45.419v-2.359a6.713,6.713,0,0,0-6.725-6.719H1122a.85.85,0,0,1-.852-.852v-46.706a.871.871,0,0,1,.193-.534.842.842,0,0,1,.487-.288c18.594-4.523,37.833-27.2,37.824-57.277a77.75,77.75,0,0,0-2.719-20.712Z" transform="translate(-798.41 -953.763)" fill="#313131"/><path d="M1126.69,1251.317c22.043,0,39.914-1.048,39.914-2.339s-17.87-2.339-39.914-2.339-39.91,1.048-39.91,2.339S1104.65,1251.317,1126.69,1251.317Z" transform="translate(-807.559 -950.268)" fill="#fecd07"/><path d="M1124.53,1250.18c-10.628,0-20.619-.241-28.148-.683-12.492-.727-12.492-1.582-12.492-2.493s0-1.775,12.492-2.5c7.556-.448,17.594-.679,28.276-.679h.125c10.634,0,20.625.237,28.145.679,12.528.715,12.528,1.579,12.528,2.484s0,1.766-12.492,2.5c-7.556.442-17.594.679-28.27.679ZM1087.5,1247c4.951.727,17.968,1.475,37.022,1.475h.134c19.132,0,32.188-.763,37.153-1.49-4.951-.727-17.968-1.484-37.023-1.484h-.136C1105.53,1245.514,1092.468,1246.268,1087.5,1247Z" transform="translate(-805.527 -948.285)" fill="#313131"/><path d="M1356.669,1452.1c-1.416,15.379-6.331,46.585-23.124,54.4-17.238,8.057-115.163,9.906-123.933,10.259-4.565.19-15.03,2.08-24.314,3.066-6.194.682-11.86.92-14.878,0a3.066,3.066,0,0,1-2.17-1.57c-1.617-4.229.362-6.268.362-6.268s-4.449,1.359-5.972-2.38c-1.327-3.279,2.517-6.7,2.517-6.7s-4.523-.469-4.027-5.107c.4-3.719,4.392-5.582,4.392-5.582a4.626,4.626,0,0,1-1.73-.727,4.574,4.574,0,0,1-1.8-5c.57-2.858,6.357-4.081,11.919-4.659,3.748-.359,7.387-.406,9.278-.406l.217-6.8s12.682,9.72,25.441,11.506c17.849,2.49,91.654-17.142,91.654-17.142l-.041-4.671s5.6,2.855,11.311-2.332,13.4,2.332,21.224,1.032,5.44-4.413,15.427-8.954A21.636,21.636,0,0,1,1356.669,1452.1Z" transform="translate(-859.816 -1094.753)" fill="#fff"/><path d="M1173.929,1519.224a20.933,20.933,0,0,1-5.856-.635,3.785,3.785,0,0,1-2.719-2.08,8.041,8.041,0,0,1-.38-5.44,5.08,5.08,0,0,1-5.224-3.167c-1.053-2.606.549-5.17,1.721-6.571a5.42,5.42,0,0,1-2.253-1.6,5.313,5.313,0,0,1-1.039-4.081,7.862,7.862,0,0,1,3.4-5.33,5.38,5.38,0,0,1-1.8-1.647,5.638,5.638,0,0,1-.68-4.413c.564-2.8,4.7-4.541,12.671-5.33,3.155-.306,6.262-.4,8.538-.416l.19-5.935a.844.844,0,0,1,.484-.742.889.889,0,0,1,.454-.077.838.838,0,0,1,.43.166c.122.1,12.661,9.6,25.047,11.334,16.606,2.321,83.406-15.041,90.674-16.952V1462.3a.845.845,0,0,1,.81-.864.834.834,0,0,1,.421.095c.211.1,5.176,2.508,10.355-2.2,3.654-3.321,8.067-1.938,12.338-.605,3.054.949,6.209,1.938,9.323,1.427a10.524,10.524,0,0,0,6.72-3.3,27.482,27.482,0,0,1,8.494-5.6,22.472,22.472,0,0,1,8.568-2.08.866.866,0,0,1,.68.264.89.89,0,0,1,.184.315.85.85,0,0,1,.038.365c-1.576,17.21-6.746,47.246-23.574,55.078-10.325,4.817-50.209,8.236-118.553,10.168-2.808.074-4.793.136-5.74.169-2.419.1-6.568.68-11.37,1.359-4.03.573-8.607,1.226-12.884,1.68A91.91,91.91,0,0,1,1173.929,1519.224Zm-7.42-10.132a.855.855,0,0,1,.469.142.872.872,0,0,1,.312.374.86.86,0,0,1,.056.486.85.85,0,0,1-.217.437c-.062.062-1.558,1.763-.178,5.371.2.531.994.873,1.621,1.063,2.487.754,7.248.742,14.546-.041,4.25-.448,8.806-1.1,12.825-1.674,4.841-.68,9.031-1.285,11.56-1.359.947-.041,2.938-.095,5.761-.175,68.112-1.926,107.77-5.292,117.882-10,16.267-7.594,21.129-38.649,22.512-52.731a21.154,21.154,0,0,0-6.957,1.876,26.129,26.129,0,0,0-8.046,5.291,12.089,12.089,0,0,1-7.6,3.725c-3.5.584-6.862-.463-10.106-1.481-4.161-1.3-7.758-2.422-10.691.243-4.5,4.081-8.922,3.537-11.023,2.923V1467a.875.875,0,0,1-.175.522.86.86,0,0,1-.457.306c-2.837.748-65.631,17.388-88.1,17.388a28.434,28.434,0,0,1-3.891-.231c-10.581-1.475-20.93-8.158-24.527-10.711l-.163,5.161a.862.862,0,0,1-.852.825c-2.271,0-5.71.068-9.195.407-9.518.938-10.993,3.1-11.171,3.971a3.754,3.754,0,0,0,2.87,4.76.864.864,0,0,1,.463.253.84.84,0,0,1,.223.475.825.825,0,0,1-.1.516.838.838,0,0,1-.389.356s-3.571,1.719-3.909,4.9a3.583,3.583,0,0,0,3.277,4.173.863.863,0,0,1,.68.594.829.829,0,0,1,.009.481.846.846,0,0,1-.252.409s-3.4,3.066-2.291,5.74c1.2,2.992,4.761,1.929,4.93,1.882A1.007,1.007,0,0,1,1166.509,1509.092Z" transform="translate(-857.722 -1092.701)" fill="#313131"/><path d="M793.127,609.956a.85.85,0,0,1-.386-.11.879.879,0,0,1-.294-.27c-1.534-2.3-6.8-3.6-8.417-3.4a.85.85,0,1,1-.226-1.686c1.938-.252,8.046,1.116,10.059,4.128a.847.847,0,0,1-.231,1.175A.833.833,0,0,1,793.127,609.956ZM562.948,278.137a.851.851,0,0,1-.849-.85V248.85a.851.851,0,0,1,.849-.85.855.855,0,0,1,.6.249.847.847,0,0,1,.249.6v28.437a.851.851,0,0,1-.852.85Zm10.29,6.82a.839.839,0,0,1-.537-.19.856.856,0,0,1-.309-.573.887.887,0,0,1,.03-.33.847.847,0,0,1,.157-.293l13.552-16.782a.863.863,0,0,1,1.214-.146.833.833,0,0,1,.22.256.877.877,0,0,1,.107.32.919.919,0,0,1-.027.336.879.879,0,0,1-.151.3L573.9,284.61a.834.834,0,0,1-.288.25A.852.852,0,0,1,573.238,284.957Zm-20.577,3.475a.838.838,0,0,1-.383-.091.822.822,0,0,1-.3-.255L539.06,270.514a.85.85,0,1,1,1.36-1.007l12.921,17.571a.832.832,0,0,1,.172.434.842.842,0,0,1-.852.926ZM357.9,589.672l-6.991,36.72-4.339-.326Zm61.9-50.725L405.9,554.9l13.234-19.142Zm12.716-8.479.469,2.944,18.123,2.813Z" transform="translate(-287.04 -248)" fill="#313131"/><path d="M394.44,1143.539l1.136,5.481-1.136,63.964-.775-63.291-.768-3.926Zm0,69.445,22.55,26.983,3.285-.543Zm-13.45,72.277-68.738-2.08-.8,3.944Zm321.988-11.987v4.835l-79.53-.653,44.849-1.769Zm-1.291-93.621-3.639,51.7,4.98-1.291Zm-14.24-67.374s4.938,8.161,3.276,10.2c-3.894,4.977-13.837,6.731-16.686,10.453-2.38,3.119,1.3,13.15-1.5,17.088-7,9.832-13.837,9.274-18.36,14.218s-13.015,12.782-13.015,12.782,11.471-10.111,15.131-12.566,13.009-5.93,18.17-13.729c3.122-4.719-.79-13.545,1.4-16.53,2.787-3.808,14.279-4.68,16.463-10.262a9.617,9.617,0,0,0-2.107-10.7Z" transform="translate(-262.344 -855.783)" fill="#313131"/></g></g></svg>