<svg xmlns="http://www.w3.org/2000/svg" width="16" height="17.506" viewBox="0 0 16 17.506"><path d="M7.907,1.094A1.093,1.093,0,0,1,9,0H10.1A1.093,1.093,0,0,1,11.19,1.094V5.912L15.361,3.5a1.094,1.094,0,0,1,1.494.4l.547.947A1.094,1.094,0,0,1,17,6.346L12.831,8.753,17,11.16a1.094,1.094,0,0,1,.4,1.494l-.547.947a1.091,1.091,0,0,1-1.494.4L11.19,11.594v4.818A1.093,1.093,0,0,1,10.1,17.506H9a1.093,1.093,0,0,1-1.094-1.094V11.594L3.736,14a1.094,1.094,0,0,1-1.494-.4l-.547-.947a1.094,1.094,0,0,1,.4-1.494l4.171-2.41L2.095,6.346a1.094,1.094,0,0,1-.4-1.494L2.242,3.9a1.093,1.093,0,0,1,1.494-.4L7.907,5.908Z" transform="translate(-1.548)" fill="#fecd07"/></svg>