<svg xmlns="http://www.w3.org/2000/svg" width="17.778" height="16" viewBox="0 0 17.778 16"><path d="M16.682,4.379A.889.889,0,1,0,15.2,3.4l-.4.611a.889.889,0,1,0,1.483.979Zm-.321,2.672a.889.889,0,0,1,.325-1.214l.851-.491a.889.889,0,0,1,.889,1.539l-.851.491A.889.889,0,0,1,16.361,7.051Zm-3.716,7.532,3.925-.881a.889.889,0,0,0,.575-1.312L12.133,3.708A.889.889,0,0,0,10.71,3.55l-8.07,8.762a2.418,2.418,0,0,0,2.252,4.009,4,4,0,0,0,7.754-1.739Zm-1.757.394a2.222,2.222,0,0,1-4.147,1.134q-.052-.09-.094-.182Zm6.381-5.884a.889.889,0,0,1,.834-.94l.731-.044a.889.889,0,0,1,.107,1.774l-.731.044A.889.889,0,0,1,17.271,9.093Z" transform="translate(-2 -3)" fill="#fecd07" fill-rule="evenodd"/></svg>