<svg xmlns="http://www.w3.org/2000/svg" width="52" height="52" viewBox="0 0 52 52"><g transform="translate(-901)"><rect width="52" height="52" rx="14" transform="translate(901)" fill="#fecd07"/><g transform="translate(912 10)"><path d="M30,12.583H28.439a.9.9,0,1,0,0,1.8H30a.9.9,0,1,0,0-1.8Z" fill="#079b7e"/><path d="M27.087,10.666a.9.9,0,0,0,.6-.231l1.1-.993a.9.9,0,0,0-1.2-1.338l-1.1.993a.9.9,0,0,0,.6,1.569Z" fill="#079b7e"/><path d="M27.688,16.53a.9.9,0,0,0-1.2,1.339l1.1.993a.9.9,0,1,0,1.2-1.339Z" fill="#079b7e"/><path d="M22.352,9.825h-.42V6.078a1.9,1.9,0,0,0-2.814-1.665l-7.59,4.166H6A4.892,4.892,0,0,0,4.733,18.2v6.794a2.832,2.832,0,0,0,5.663,0V18.387h1.131l7.59,4.166a1.9,1.9,0,0,0,2.815-1.665V17.14h.42a3.658,3.658,0,1,0,0-7.315ZM2.9,13.482a3.108,3.108,0,0,1,3.1-3.1h4.854v6.209H6A3.108,3.108,0,0,1,2.9,13.482ZM8.6,24.993a1.032,1.032,0,0,1-2.063,0V18.387H8.6Zm11.486-4.019a.089.089,0,0,1-.1,0l-7.325-4.021V10.01l7.325-4.021.148.087Zm2.27-5.634h-.42V11.625h.42a1.858,1.858,0,1,1,0,3.715Z" fill="#101828"/></g></g></svg>