<svg xmlns="http://www.w3.org/2000/svg" width="18" height="16" viewBox="0 0 18 16"><path d="M12.5,0h-7A1.464,1.464,0,0,0,4.028,1.506c.006.166.013.331.022.494H.75A.748.748,0,0,0,0,2.75,8.374,8.374,0,0,0,2.453,9.022a10.022,10.022,0,0,0,4.316,2.369A1.589,1.589,0,0,1,8,12.816,1.186,1.186,0,0,1,6.816,14H6a1,1,0,0,0,0,2h6a1,1,0,0,0,0-2h-.816A1.186,1.186,0,0,1,10,12.816a1.582,1.582,0,0,1,1.231-1.425A10.014,10.014,0,0,0,15.55,9.022,8.385,8.385,0,0,0,18,2.75.748.748,0,0,0,17.25,2h-3.3c.009-.162.016-.325.022-.494A1.464,1.464,0,0,0,12.5,0ZM1.528,3.5H4.166A15.231,15.231,0,0,0,5.787,9.456,7.762,7.762,0,0,1,3.5,7.947,6.644,6.644,0,0,1,1.531,3.5ZM14.5,7.947a7.763,7.763,0,0,1-2.288,1.509A15.231,15.231,0,0,0,13.838,3.5h2.637a6.672,6.672,0,0,1-1.969,4.447Z" fill="#fecd07"/></svg>