<?xml version="1.0" encoding="UTF-8"?><svg id="Layer_2" xmlns="http://www.w3.org/2000/svg" viewBox="0 0 163.38 41.6"><defs><style>.cls-1{letter-spacing:-.03em;}.cls-2{letter-spacing:0em;}.cls-3{letter-spacing:0em;}.cls-4{letter-spacing:-.02em;}.cls-5{font-size:23.28px;}.cls-5,.cls-6{font-family:Lato-Regular, Lato;}.cls-7{letter-spacing:-.01em;}.cls-8{letter-spacing:0em;}.cls-9{letter-spacing:0em;}.cls-6{font-size:10.31px;}.cls-10{letter-spacing:0em;}.cls-11{fill-rule:evenodd;}</style></defs><g id="Layer_1-2"><g><path class="cls-11" d="M25.76,12.53L4.26,.58C3.39,.02,2.55-.11,1.81,.09L20.34,17.67l5.43-5.15Zm7.95,4.41l-5.73-3.19-5.91,5.58,5.99,5.66,5.58-3.06c2.75-1.53,1.73-4.05,.08-4.99h0ZM1.76,38.52c.76,.26,1.63,.08,2.5-.43l21.58-11.82-5.56-5.27L1.76,38.52ZM.15,1.82c-.13,.31-.15,.66-.15,1.07V35.74c0,.38,.03,.74,.15,1.04L18.58,19.33,.15,1.82Z"/><text class="cls-6" transform="translate(41.82 14.64)"><tspan x="0" y="0">GE</tspan><tspan class="cls-1" x="13.49" y="0">T</tspan><tspan class="cls-3" x="19.26" y="0" xml:space="preserve"> I</tspan><tspan class="cls-1" x="24.79" y="0">T</tspan><tspan x="30.57" y="0" xml:space="preserve"> ON</tspan></text><text class="cls-5" transform="translate(41.82 35.35)"><tspan class="cls-9" x="0" y="0">G</tspan><tspan x="16.87" y="0">o</tspan><tspan class="cls-10" x="30.07" y="0">o</tspan><tspan x="43.21" y="0">gle </tspan><tspan class="cls-8" x="79.06" y="0">P</tspan><tspan class="cls-2" x="92.97" y="0">l</tspan><tspan class="cls-7" x="98.46" y="0">a</tspan><tspan class="cls-4" x="109.75" y="0">y</tspan></text></g></g></svg>