<?xml version="1.0" encoding="UTF-8"?><svg id="Layer_2" xmlns="http://www.w3.org/2000/svg" viewBox="0 0 142.27 41.49"><defs><style>.cls-1{font-size:23.28px;}.cls-1,.cls-2{font-family:Lato-Regular, Lato;}.cls-3{letter-spacing:0em;}.cls-4{letter-spacing:0em;}.cls-2{font-size:10.31px;}.cls-5{letter-spacing:0em;}.cls-6{letter-spacing:0em;}.cls-7{letter-spacing:-.02em;}.cls-8{letter-spacing:-.02em;}.cls-9{fill-rule:evenodd;}</style></defs><g id="Layer_1-2"><g><text class="cls-2" transform="translate(40.62 14.53)"><tspan class="cls-4" x="0" y="0">Do</tspan><tspan x="13.54" y="0">wnload on the</tspan></text><text class="cls-1" transform="translate(40.62 35.24)"><tspan class="cls-6" x="0" y="0">A</tspan><tspan x="15.71" y="0">pp </tspan><tspan class="cls-8" x="47.77" y="0">S</tspan><tspan class="cls-5" x="59.88" y="0">t</tspan><tspan class="cls-3" x="68.16" y="0">o</tspan><tspan class="cls-7" x="81.36" y="0">r</tspan><tspan x="89.36" y="0">e</tspan></text><g><path class="cls-9" d="M9.79,8.99c1.33-.01,2.52,.33,3.69,.75,.72,.24,1.43,.52,2.16,.7,1.33,.33,2.61,.21,3.88-.28,.9-.35,1.81-.71,2.76-.92,2.85-.65,5.4,0,7.69,1.75,.64,.47,1.2,1.02,1.71,1.63,.2,.23,.19,.28-.07,.46-2.38,1.45-3.77,3.56-4.01,6.34-.23,2.59,.56,4.86,2.36,6.75,.79,.82,1.71,1.44,2.75,1.88,.3,.11,.31,.16,.18,.44-1.16,2.69-2.71,5.17-4.63,7.39-.66,.75-1.41,1.43-2.3,1.92-1.4,.78-2.83,.79-4.28,.17-.6-.25-1.17-.56-1.79-.77-2.01-.63-3.98-.55-5.92,.25-.51,.21-1.01,.44-1.53,.63-1.87,.7-3.56,.27-5.1-.95-.94-.74-1.71-1.63-2.41-2.59-1.63-2.2-2.9-4.58-3.77-7.17-.62-1.85-1.02-3.75-1.12-5.7-.12-2.15,.05-4.26,.9-6.25,1.36-3.11,3.65-5.22,6.93-6.18,.64-.19,1.3-.27,1.92-.24Z"/><path class="cls-9" d="M23.84,.87c-.01,1.84-.58,3.38-1.52,4.79-1.07,1.59-2.52,2.7-4.34,3.29-.56,.18-1.13,.28-1.72,.28-.23,0-.32-.09-.34-.32-.15-1.34,.15-2.59,.71-3.78,1.12-2.37,2.96-3.9,5.39-4.79,.49-.17,.99-.26,1.51-.34,.22-.04,.26,.1,.28,.26,.02,.23,.05,.48,.03,.6Z"/></g></g></g></svg>