<svg xmlns="http://www.w3.org/2000/svg" xmlns:xlink="http://www.w3.org/1999/xlink" width="50" height="50" viewBox="0 0 50 50"><defs><clipPath id="a"><rect width="50" height="50" transform="translate(1003 604)" fill="#fff"/></clipPath></defs><g transform="translate(-1003 -604)" clip-path="url(#a)"><g transform="translate(1004.044 605.29)"><path d="M1.7,5.417V29.742a.774.774,0,0,0,.774.774H20.461L11.717,45.037a1.536,1.536,0,0,0,2.629,1.59l8.968-14.9v14.1a1.539,1.539,0,0,0,3.078,0V31.882L34.961,46.6a1.535,1.535,0,1,0,2.65-1.549L29.143,30.506H45.5a.774.774,0,0,0,.774-.774V4.5H1.7Zm1.977.948H44.388V28.774H3.677Z" transform="translate(0.032 0.086)" fill="#808285"/><path d="M44.351,6.33H3.64V28.739H44.351ZM4.781,7.349H32.336v2.13H4.781ZM21.922,27.3H5.556V10.946H21.922Zm13.961,0H22.869V26.008H35.882Zm6.44-2.507H22.869V23.5H42.333V24.8Zm0-2.507H22.869V20.994H42.333v1.294Zm.02-2.507H22.89V18.487H42.353v1.294Zm0-2.507H22.89V15.98H42.353v1.294Zm0-2.507H22.89V13.473H42.353v1.294Zm0-2.507H22.89V10.967H42.353v1.294Zm.744-2.751H32.958V7.38H43.087Z" transform="translate(0.069 0.121)" fill="#fff"/><rect width="16.376" height="16.356" transform="translate(5.625 11.067)" fill="#ccc"/><rect width="27.555" height="2.13" transform="translate(4.851 7.47)" fill="#30a4a1"/><rect width="10.129" height="2.13" transform="translate(33.027 7.47)" fill="#30a4a1"/><rect width="48.038" height="0.907" transform="translate(0 2.385)" fill="#ccc"/><path d="M48.038,2.385V.459A.471.471,0,0,0,47.548,0H.489A.477.477,0,0,0,0,.459V2.385Z" fill="#808285"/><rect width="19.464" height="1.294" transform="translate(22.959 11.067)" fill="#30a4a1"/><rect width="19.464" height="1.294" transform="translate(22.959 13.584)" fill="#30a4a1"/><rect width="19.464" height="1.294" transform="translate(22.959 16.091)" fill="#30a4a1"/><rect width="19.464" height="1.294" transform="translate(22.959 18.608)" fill="#30a4a1"/><rect width="19.464" height="1.294" transform="translate(22.939 21.115)" fill="#30a4a1"/><rect width="19.464" height="1.294" transform="translate(22.939 23.621)" fill="#30a4a1"/><rect width="13.013" height="1.294" transform="translate(22.939 26.138)" fill="#30a4a1"/></g></g></svg>