<svg xmlns="http://www.w3.org/2000/svg" xmlns:xlink="http://www.w3.org/1999/xlink" width="50" height="50" viewBox="0 0 50 50"><defs><clipPath id="a"><rect width="50" height="50" transform="translate(997 582)" fill="#fff"/></clipPath></defs><g transform="translate(-997 -582)" clip-path="url(#a)"><g transform="translate(997.99 587.99)"><g transform="translate(0.01 0.01)"><path d="M44.9,31.74a5.071,5.071,0,0,0-4.93,3.919,4.339,4.339,0,1,0-1.237,8.5h11.5a3.4,3.4,0,0,0-.025-6.8,1.575,1.575,0,0,0-.284.017c.017-.184.033-.376.033-.568A5.057,5.057,0,0,0,44.9,31.748Z" transform="translate(-5.662 -5.225)" fill="#30a4a1"/><path d="M8.2,40.662H29.291a5.768,5.768,0,0,1,3.8-10.111h.276a6.5,6.5,0,0,1,12.342,2.006,3.844,3.844,0,0,1,.618.209A10.528,10.528,0,0,0,33.143,20.038,12.284,12.284,0,0,0,8.968,24.174c-.234-.017-.46-.033-.7-.033a8.256,8.256,0,0,0-.058,16.512Z" transform="translate(-0.01 -1.737)" fill="#808285"/><path d="M34.585,6.217,34.443,6.2a.489.489,0,0,0-.493.493V8.5a.489.489,0,0,0,.318.451,10.753,10.753,0,0,1,6.317,6.058.479.479,0,0,0,.443.3h1.838a.484.484,0,0,0,.4-.209.5.5,0,0,0,.067-.443,13.464,13.464,0,0,0-8.758-8.44Z" transform="translate(-5.588 -1.027)" fill="#ccc"/><path d="M46.412,13.681h1.78a.5.5,0,0,0,.485-.61A17.961,17.961,0,0,0,35.282.01h-.109a.477.477,0,0,0-.493.485v1.78a.475.475,0,0,0,.368.468,15.158,15.158,0,0,1,10.9,10.588.484.484,0,0,0,.468.351Z" transform="translate(-5.708 -0.01)" fill="#808285"/></g></g></g></svg>