<?xml version="1.0" encoding="UTF-8"?><svg id="Layer_2" xmlns="http://www.w3.org/2000/svg" viewBox="0 0 51.83 51.83"><defs><style>.cls-1{fill:#808285;fill-rule:evenodd;}.cls-2{fill:none;stroke:#808285;stroke-miterlimit:10;}</style></defs><g id="Layer_1-2"><g><path class="cls-2" d="M25.91,51.33C11.9,51.33,.5,39.93,.5,25.91S11.9,.5,25.91,.5s25.41,11.4,25.41,25.41-11.4,25.41-25.41,25.41Z"/><path class="cls-1" d="M21.93,26.03v14.73c0,.21,.17,.38,.38,.38h5.47c.21,0,.38-.17,.38-.38v-14.97h3.97c.2,0,.37-.15,.38-.35l.38-4.51c.02-.22-.16-.42-.38-.42h-4.35v-3.2c0-.75,.61-1.36,1.36-1.36h3.06c.21,0,.38-.17,.38-.38v-4.51c0-.21-.17-.38-.38-.38h-5.16c-3.03,0-5.49,2.46-5.49,5.49v4.35h-2.73c-.21,0-.38,.17-.38,.38v4.51c0,.21,.17,.38,.38,.38h2.73v.24Z"/></g></g></svg>