<?xml version="1.0" encoding="UTF-8"?><svg id="Layer_2" xmlns="http://www.w3.org/2000/svg" viewBox="0 0 335.67 95.9"><defs><style>.cls-1{fill:#60489d;}.cls-2{fill:#2ea3a1;}.cls-3{fill:#808285;}</style></defs><g id="Layer_1-2"><g><g><path class="cls-3" d="M12.83,88.77h.6c.22,0,.39-.03,.53-.08,.13-.05,.26-.15,.36-.28l3.92-4.56c.13-.15,.25-.26,.39-.32,.13-.06,.29-.09,.49-.09h1.56l-4.56,5.25c-.11,.15-.23,.27-.34,.36-.11,.09-.23,.17-.35,.23,.31,.11,.59,.33,.82,.66l4.74,5.82h-1.59c-.11,0-.21,0-.3-.03-.08-.02-.15-.04-.21-.07s-.11-.07-.16-.12c-.05-.05-.09-.1-.13-.16l-4.06-4.81c-.06-.07-.11-.14-.17-.19s-.12-.09-.2-.12c-.07-.03-.16-.05-.26-.07-.1-.01-.21-.02-.34-.02h-.75v5.59h-1.83v-12.32h1.83v5.33Z"/><path class="cls-3" d="M26.44,88.26c.19-.2,.39-.38,.59-.55,.21-.17,.42-.31,.66-.42,.23-.12,.48-.21,.75-.27s.55-.1,.85-.1c.48,0,.9,.08,1.27,.24s.67,.38,.91,.67c.25,.29,.43,.64,.56,1.04,.13,.41,.19,.85,.19,1.35v5.55h-1.68v-5.55c0-.62-.14-1.11-.43-1.45-.29-.35-.72-.52-1.31-.52-.43,0-.83,.1-1.21,.3s-.72,.48-1.04,.83v6.39h-1.67v-8.72h1c.23,0,.38,.11,.44,.33l.13,.88Z"/><path class="cls-3" d="M40.93,86.91c.64,0,1.22,.1,1.74,.31,.52,.21,.96,.51,1.32,.9,.36,.39,.64,.86,.84,1.42,.19,.55,.29,1.17,.29,1.86s-.1,1.31-.29,1.86c-.19,.55-.47,1.03-.84,1.42-.36,.39-.8,.69-1.32,.9-.52,.21-1.1,.31-1.74,.31s-1.23-.1-1.75-.31-.96-.51-1.33-.9c-.37-.39-.65-.86-.85-1.42-.2-.55-.3-1.17-.3-1.86s.1-1.31,.3-1.86c.2-.55,.48-1.02,.85-1.42,.37-.39,.81-.69,1.33-.9,.52-.21,1.1-.31,1.75-.31Zm0,7.67c.82,0,1.44-.28,1.84-.83,.41-.55,.61-1.34,.61-2.34s-.2-1.79-.61-2.35c-.41-.56-1.02-.84-1.84-.84s-1.46,.28-1.87,.84c-.41,.56-.61,1.34-.61,2.35s.2,1.79,.61,2.34c.41,.55,1.03,.83,1.87,.83Z"/><path class="cls-3" d="M61.72,87.05l-2.81,8.72h-1.34c-.16,0-.27-.11-.33-.32l-1.84-5.68c-.05-.14-.09-.28-.12-.42-.03-.14-.07-.28-.09-.43-.05,.3-.12,.59-.21,.87l-1.86,5.66c-.06,.21-.18,.32-.37,.32h-1.27l-2.81-8.72h1.32c.13,0,.24,.03,.33,.09,.09,.06,.15,.14,.18,.24l1.57,5.35c.05,.22,.1,.43,.14,.63s.08,.41,.11,.62c.05-.21,.11-.41,.17-.62s.12-.42,.18-.63l1.74-5.39c.03-.1,.08-.18,.16-.24,.08-.06,.18-.09,.29-.09h.73c.13,0,.23,.03,.31,.09,.08,.06,.14,.14,.17,.24l1.7,5.39c.06,.22,.12,.43,.18,.64,.06,.21,.11,.42,.15,.63,.03-.21,.07-.41,.12-.62s.1-.42,.15-.65l1.6-5.35c.03-.1,.09-.18,.18-.24s.19-.09,.3-.09h1.26Z"/><path class="cls-3" d="M74.29,88.25c.36-.4,.77-.72,1.23-.97,.46-.25,.98-.37,1.56-.37,.51,0,.97,.1,1.38,.3s.76,.48,1.04,.85c.29,.37,.51,.82,.66,1.34s.23,1.12,.23,1.78c0,.7-.09,1.34-.26,1.92-.17,.58-.42,1.07-.75,1.48-.32,.41-.72,.73-1.18,.96-.46,.23-.98,.34-1.56,.34-.28,0-.54-.03-.77-.08-.23-.05-.45-.13-.65-.24s-.38-.23-.54-.38c-.17-.15-.32-.32-.47-.51l-.08,.73c-.05,.23-.19,.35-.43,.35h-1.08v-12.66h1.67v5.15Zm0,5.37c.27,.36,.57,.61,.89,.76,.32,.14,.67,.21,1.05,.21,.78,0,1.38-.28,1.8-.83,.42-.55,.63-1.39,.63-2.51,0-1.04-.19-1.8-.56-2.28-.37-.48-.9-.72-1.58-.72-.48,0-.9,.11-1.25,.33-.35,.22-.68,.53-.98,.93v4.13Z"/><path class="cls-3" d="M92.17,94.52c-.21,.24-.44,.45-.71,.62-.27,.17-.55,.32-.86,.42s-.62,.19-.94,.24c-.32,.05-.64,.08-.96,.08-.6,0-1.16-.1-1.67-.3s-.96-.5-1.33-.89-.67-.88-.88-1.46c-.21-.58-.31-1.25-.31-2,0-.61,.09-1.17,.28-1.69s.46-.98,.81-1.37c.35-.39,.78-.7,1.29-.92,.51-.22,1.08-.33,1.72-.33,.53,0,1.02,.09,1.47,.26s.84,.43,1.16,.76c.33,.33,.58,.74,.77,1.23,.19,.49,.28,1.04,.28,1.66,0,.26-.03,.43-.09,.52s-.16,.13-.32,.13h-5.71c.02,.52,.09,.97,.22,1.36s.31,.71,.54,.97c.23,.26,.51,.45,.83,.58,.32,.13,.68,.19,1.07,.19,.37,0,.69-.04,.97-.13,.27-.09,.51-.18,.7-.28s.36-.19,.5-.28c.13-.09,.25-.13,.36-.13,.14,0,.24,.05,.32,.15l.48,.62Zm-1.38-4.08c0-.33-.05-.64-.14-.92-.09-.28-.23-.52-.42-.73-.18-.21-.41-.37-.67-.48s-.57-.17-.91-.17c-.7,0-1.26,.2-1.66,.61s-.66,.97-.77,1.69h4.56Z"/><path class="cls-3" d="M99.5,95.9c-.7,0-1.25-.2-1.63-.59-.38-.39-.57-.96-.57-1.69v-5.22h-1.01c-.1,0-.18-.03-.24-.09s-.1-.15-.1-.27v-.68l1.42-.2,.38-2.6c.02-.1,.07-.17,.13-.23,.07-.05,.15-.08,.25-.08h.85v2.93h2.47v1.22h-2.47v5.11c0,.34,.08,.6,.25,.77,.17,.17,.38,.25,.65,.25,.15,0,.29-.02,.4-.06,.11-.04,.21-.08,.29-.13,.08-.05,.15-.09,.21-.13,.06-.04,.11-.06,.15-.06,.06,0,.1,.01,.13,.04,.03,.03,.06,.07,.1,.12l.5,.81c-.27,.25-.6,.45-.98,.58-.38,.14-.77,.21-1.18,.21Z"/><path class="cls-3" d="M108.46,95.9c-.7,0-1.25-.2-1.63-.59s-.57-.96-.57-1.69v-5.22h-1.01c-.1,0-.18-.03-.24-.09-.07-.06-.1-.15-.1-.27v-.68l1.42-.2,.38-2.6c.02-.1,.07-.17,.13-.23,.07-.05,.15-.08,.25-.08h.85v2.93h2.47v1.22h-2.47v5.11c0,.34,.08,.6,.25,.77,.17,.17,.38,.25,.65,.25,.15,0,.29-.02,.4-.06,.11-.04,.21-.08,.29-.13,.08-.05,.15-.09,.21-.13,.06-.04,.11-.06,.15-.06,.06,0,.1,.01,.13,.04,.03,.03,.06,.07,.1,.12l.5,.81c-.27,.25-.6,.45-.98,.58-.38,.14-.77,.21-1.18,.21Z"/><path class="cls-3" d="M121.79,94.52c-.21,.24-.44,.45-.71,.62s-.55,.32-.86,.42-.62,.19-.94,.24c-.32,.05-.64,.08-.96,.08-.6,0-1.16-.1-1.67-.3-.51-.2-.96-.5-1.33-.89-.37-.39-.67-.88-.88-1.46-.21-.58-.31-1.25-.31-2,0-.61,.09-1.17,.28-1.69,.19-.52,.46-.98,.81-1.37s.78-.7,1.29-.92c.51-.22,1.08-.33,1.72-.33,.53,0,1.02,.09,1.47,.26s.84,.43,1.16,.76c.33,.33,.58,.74,.77,1.23,.19,.49,.28,1.04,.28,1.66,0,.26-.03,.43-.09,.52-.06,.09-.16,.13-.32,.13h-5.71c.02,.52,.09,.97,.22,1.36,.13,.39,.31,.71,.54,.97,.23,.26,.51,.45,.83,.58,.32,.13,.68,.19,1.07,.19,.37,0,.69-.04,.97-.13,.27-.09,.51-.18,.7-.28s.36-.19,.5-.28c.13-.09,.25-.13,.36-.13,.14,0,.24,.05,.32,.15l.48,.62Zm-1.38-4.08c0-.33-.05-.64-.14-.92-.09-.28-.23-.52-.42-.73s-.41-.37-.67-.48-.57-.17-.91-.17c-.7,0-1.26,.2-1.66,.61s-.66,.97-.77,1.69h4.57Z"/><path class="cls-3" d="M128.05,88.72c.28-.57,.62-1.02,1.01-1.35,.39-.33,.87-.49,1.42-.49,.19,0,.37,.02,.54,.06s.32,.11,.44,.19l-.11,1.26c-.04,.15-.13,.23-.28,.23-.08,0-.2-.02-.36-.05-.16-.03-.33-.05-.51-.05-.27,0-.51,.04-.71,.12-.21,.08-.39,.19-.55,.34-.16,.15-.31,.34-.43,.56-.13,.22-.24,.47-.35,.75v5.46h-1.67v-8.72h.96c.18,0,.31,.03,.37,.1s.11,.18,.14,.35l.1,1.23Z"/><path class="cls-3" d="M134.55,94.76c0-.15,.03-.3,.09-.44,.06-.14,.14-.26,.24-.36,.1-.1,.22-.18,.36-.24,.14-.06,.29-.09,.45-.09s.3,.03,.44,.09c.14,.06,.26,.14,.36,.24s.18,.22,.24,.36c.06,.14,.09,.28,.09,.44s-.03,.31-.09,.45c-.06,.14-.14,.26-.24,.36s-.22,.18-.36,.24c-.14,.06-.28,.09-.44,.09s-.31-.03-.45-.09c-.14-.06-.26-.14-.36-.24-.1-.1-.18-.22-.24-.36-.06-.14-.09-.29-.09-.45Z"/><path class="cls-3" d="M156.93,84.97h-3.91v10.79h-1.82v-10.79h-3.93v-1.53h9.66v1.53Z"/><path class="cls-3" d="M160.84,88.72c.28-.57,.62-1.02,1.01-1.35,.39-.33,.87-.49,1.42-.49,.19,0,.37,.02,.54,.06s.32,.11,.44,.19l-.11,1.26c-.04,.15-.13,.23-.28,.23-.08,0-.2-.02-.36-.05-.16-.03-.33-.05-.52-.05-.27,0-.51,.04-.71,.12-.21,.08-.39,.19-.55,.34-.16,.15-.31,.34-.43,.56-.13,.22-.24,.47-.35,.75v5.46h-1.67v-8.72h.96c.18,0,.31,.03,.37,.1s.11,.18,.14,.35l.1,1.23Z"/><path class="cls-3" d="M167.94,88.27c.49-.46,1.01-.81,1.58-1.04,.57-.23,1.19-.34,1.87-.34,.5,0,.94,.08,1.32,.24s.71,.39,.97,.68c.26,.29,.46,.64,.6,1.05,.13,.41,.2,.86,.2,1.35v5.56h-.75c-.17,0-.29-.03-.38-.08-.09-.05-.15-.16-.21-.3l-.18-.76c-.22,.21-.44,.39-.66,.54-.22,.16-.45,.29-.68,.4-.24,.11-.49,.2-.76,.25s-.57,.09-.89,.09c-.34,0-.67-.05-.97-.14-.3-.09-.56-.24-.79-.43s-.4-.44-.53-.73c-.13-.29-.19-.63-.19-1.02,0-.34,.09-.67,.28-.99,.19-.32,.49-.6,.91-.85,.42-.25,.97-.46,1.65-.62,.68-.16,1.51-.25,2.5-.27v-.63c0-.66-.14-1.15-.42-1.48-.28-.33-.69-.49-1.24-.49-.37,0-.67,.05-.92,.14-.25,.09-.46,.19-.64,.3-.18,.11-.34,.21-.47,.3-.13,.09-.27,.14-.42,.14-.11,0-.21-.03-.3-.09-.08-.06-.15-.14-.2-.22l-.3-.54Zm4.91,3.63c-.68,.02-1.26,.08-1.73,.16-.47,.08-.86,.19-1.16,.33-.3,.14-.51,.3-.64,.48-.13,.19-.2,.39-.2,.62,0,.22,.04,.4,.11,.56,.07,.16,.17,.29,.29,.39,.12,.1,.27,.17,.43,.22,.17,.05,.35,.07,.54,.07,.26,0,.49-.03,.71-.08,.21-.05,.42-.12,.6-.22,.19-.09,.37-.21,.54-.35,.17-.14,.34-.29,.51-.47v-1.72Z"/><path class="cls-3" d="M186.78,83.1v12.66h-1.01c-.23,0-.38-.11-.44-.33l-.15-1c-.37,.44-.79,.79-1.27,1.06-.47,.27-1.02,.4-1.63,.4-.5,0-.95-.1-1.35-.29-.4-.19-.75-.48-1.03-.85-.29-.37-.51-.84-.66-1.39-.15-.55-.23-1.19-.23-1.91,0-.65,.09-1.25,.26-1.8s.42-1.04,.75-1.44c.33-.41,.72-.72,1.18-.96s.99-.35,1.57-.35c.53,0,.97,.09,1.34,.26,.37,.17,.7,.41,.99,.73v-4.77h1.68Zm-1.68,6.06c-.27-.36-.57-.61-.89-.76s-.67-.21-1.07-.21c-.77,0-1.36,.28-1.78,.83-.42,.55-.63,1.36-.63,2.42,0,.55,.05,1.03,.14,1.42s.23,.71,.41,.96,.4,.43,.67,.55,.56,.18,.89,.18c.49,0,.91-.11,1.26-.33,.35-.22,.69-.52,.99-.92v-4.14Z"/><path class="cls-3" d="M199.03,94.52c-.21,.24-.44,.45-.71,.62s-.55,.32-.86,.42c-.3,.11-.62,.19-.94,.24s-.64,.08-.96,.08c-.6,0-1.16-.1-1.67-.3s-.96-.5-1.33-.89c-.37-.39-.67-.88-.88-1.46-.21-.58-.31-1.25-.31-2,0-.61,.09-1.17,.28-1.69s.46-.98,.81-1.37,.78-.7,1.29-.92c.51-.22,1.08-.33,1.72-.33,.53,0,1.02,.09,1.47,.26,.45,.17,.84,.43,1.16,.76,.33,.33,.58,.74,.77,1.23,.19,.49,.28,1.04,.28,1.66,0,.26-.03,.43-.09,.52-.06,.09-.16,.13-.32,.13h-5.71c.02,.52,.09,.97,.22,1.36s.31,.71,.54,.97c.23,.26,.51,.45,.83,.58,.32,.13,.68,.19,1.07,.19,.37,0,.69-.04,.97-.13,.27-.09,.51-.18,.7-.28s.36-.19,.5-.28c.13-.09,.25-.13,.36-.13,.14,0,.24,.05,.32,.15l.48,.62Zm-1.38-4.08c0-.33-.05-.64-.14-.92-.09-.28-.23-.52-.42-.73-.18-.21-.41-.37-.67-.48s-.57-.17-.91-.17c-.7,0-1.26,.2-1.66,.61-.4,.41-.66,.97-.77,1.69h4.56Z"/><path class="cls-3" d="M212.45,88.25c.36-.4,.77-.72,1.23-.97,.46-.25,.98-.37,1.56-.37,.51,0,.97,.1,1.38,.3s.76,.48,1.04,.85c.29,.37,.51,.82,.66,1.34s.23,1.12,.23,1.78c0,.7-.09,1.34-.26,1.92-.17,.58-.42,1.07-.75,1.48-.32,.41-.72,.73-1.18,.96-.46,.23-.98,.34-1.56,.34-.28,0-.54-.03-.77-.08-.23-.05-.45-.13-.65-.24s-.38-.23-.54-.38c-.17-.15-.32-.32-.47-.51l-.08,.73c-.05,.23-.19,.35-.43,.35h-1.08v-12.66h1.67v5.15Zm0,5.37c.27,.36,.57,.61,.89,.76,.32,.14,.67,.21,1.05,.21,.78,0,1.38-.28,1.8-.83,.42-.55,.63-1.39,.63-2.51,0-1.04-.19-1.8-.56-2.28-.37-.48-.9-.72-1.58-.72-.48,0-.9,.11-1.25,.33-.35,.22-.68,.53-.98,.93v4.13Z"/><path class="cls-3" d="M230.33,94.52c-.21,.24-.44,.45-.71,.62-.27,.17-.55,.32-.86,.42s-.62,.19-.94,.24c-.32,.05-.64,.08-.96,.08-.6,0-1.16-.1-1.67-.3-.51-.2-.96-.5-1.33-.89s-.67-.88-.88-1.46c-.21-.58-.31-1.25-.31-2,0-.61,.09-1.17,.28-1.69s.46-.98,.81-1.37c.35-.39,.78-.7,1.29-.92,.51-.22,1.08-.33,1.72-.33,.53,0,1.02,.09,1.47,.26s.84,.43,1.16,.76c.33,.33,.58,.74,.77,1.23,.19,.49,.28,1.04,.28,1.66,0,.26-.03,.43-.09,.52s-.16,.13-.32,.13h-5.71c.02,.52,.09,.97,.22,1.36s.31,.71,.54,.97c.23,.26,.51,.45,.83,.58,.32,.13,.68,.19,1.07,.19,.37,0,.69-.04,.97-.13,.27-.09,.51-.18,.7-.28s.36-.19,.5-.28c.13-.09,.25-.13,.36-.13,.14,0,.24,.05,.32,.15l.48,.62Zm-1.38-4.08c0-.33-.05-.64-.14-.92-.09-.28-.23-.52-.42-.73-.18-.21-.41-.37-.67-.48s-.57-.17-.91-.17c-.7,0-1.26,.2-1.66,.61s-.66,.97-.77,1.69h4.56Z"/><path class="cls-3" d="M237.66,95.9c-.7,0-1.25-.2-1.63-.59-.38-.39-.57-.96-.57-1.69v-5.22h-1.01c-.1,0-.18-.03-.24-.09s-.1-.15-.1-.27v-.68l1.42-.2,.38-2.6c.02-.1,.07-.17,.13-.23,.07-.05,.15-.08,.25-.08h.85v2.93h2.47v1.22h-2.47v5.11c0,.34,.08,.6,.25,.77,.17,.17,.38,.25,.65,.25,.15,0,.29-.02,.4-.06,.11-.04,.21-.08,.29-.13,.08-.05,.15-.09,.21-.13,.06-.04,.11-.06,.15-.06,.06,0,.1,.01,.13,.04,.03,.03,.06,.07,.1,.12l.5,.81c-.27,.25-.6,.45-.98,.58-.38,.14-.77,.21-1.18,.21Z"/><path class="cls-3" d="M246.62,95.9c-.7,0-1.25-.2-1.63-.59s-.57-.96-.57-1.69v-5.22h-1.01c-.1,0-.18-.03-.24-.09-.07-.06-.1-.15-.1-.27v-.68l1.42-.2,.38-2.6c.02-.1,.07-.17,.13-.23,.07-.05,.15-.08,.25-.08h.85v2.93h2.47v1.22h-2.47v5.11c0,.34,.08,.6,.25,.77,.17,.17,.38,.25,.65,.25,.15,0,.29-.02,.4-.06,.11-.04,.21-.08,.29-.13,.08-.05,.15-.09,.21-.13,.06-.04,.11-.06,.15-.06,.06,0,.1,.01,.13,.04,.03,.03,.06,.07,.1,.12l.5,.81c-.27,.25-.6,.45-.98,.58-.38,.14-.77,.21-1.18,.21Z"/><path class="cls-3" d="M259.95,94.52c-.21,.24-.44,.45-.71,.62s-.55,.32-.86,.42c-.3,.11-.62,.19-.94,.24-.32,.05-.64,.08-.96,.08-.6,0-1.16-.1-1.67-.3-.51-.2-.96-.5-1.33-.89-.37-.39-.67-.88-.88-1.46-.21-.58-.31-1.25-.31-2,0-.61,.09-1.17,.28-1.69,.19-.52,.46-.98,.81-1.37s.78-.7,1.29-.92c.51-.22,1.08-.33,1.72-.33,.53,0,1.02,.09,1.47,.26,.45,.17,.84,.43,1.16,.76,.33,.33,.58,.74,.77,1.23,.19,.49,.28,1.04,.28,1.66,0,.26-.03,.43-.09,.52s-.16,.13-.32,.13h-5.71c.02,.52,.09,.97,.22,1.36,.13,.39,.31,.71,.54,.97,.23,.26,.51,.45,.83,.58,.32,.13,.68,.19,1.07,.19,.37,0,.69-.04,.97-.13,.27-.09,.51-.18,.7-.28s.36-.19,.5-.28c.13-.09,.25-.13,.36-.13,.14,0,.24,.05,.32,.15l.48,.62Zm-1.38-4.08c0-.33-.05-.64-.14-.92-.09-.28-.23-.52-.42-.73s-.41-.37-.67-.48-.57-.17-.91-.17c-.7,0-1.26,.2-1.66,.61-.4,.41-.66,.97-.77,1.69h4.57Z"/><path class="cls-3" d="M266.21,88.72c.28-.57,.62-1.02,1.01-1.35,.39-.33,.87-.49,1.42-.49,.19,0,.37,.02,.54,.06,.17,.04,.32,.11,.44,.19l-.11,1.26c-.04,.15-.13,.23-.28,.23-.08,0-.2-.02-.36-.05-.16-.03-.33-.05-.51-.05-.27,0-.51,.04-.71,.12-.21,.08-.39,.19-.55,.34-.16,.15-.31,.34-.43,.56-.13,.22-.24,.47-.35,.75v5.46h-1.67v-8.72h.96c.18,0,.31,.03,.37,.1s.11,.18,.14,.35l.1,1.23Z"/><path class="cls-3" d="M272.71,94.76c0-.15,.03-.3,.09-.44,.06-.14,.14-.26,.24-.36,.1-.1,.22-.18,.36-.24,.14-.06,.29-.09,.45-.09s.3,.03,.44,.09,.26,.14,.36,.24,.18,.22,.24,.36c.06,.14,.09,.28,.09,.44s-.03,.31-.09,.45c-.06,.14-.14,.26-.24,.36s-.22,.18-.36,.24-.28,.09-.44,.09-.31-.03-.45-.09c-.14-.06-.26-.14-.36-.24-.1-.1-.18-.22-.24-.36-.06-.14-.09-.29-.09-.45Z"/></g><g><path class="cls-1" d="M12.31,61.32c-3.83-2.04-6.84-4.87-9.03-8.5-2.19-3.63-3.28-7.75-3.28-12.34s1.09-8.71,3.28-12.34c2.19-3.63,5.2-6.47,9.03-8.5,3.83-2.04,8.15-3.05,12.97-3.05,4.2,0,7.99,.74,11.36,2.23,3.37,1.49,6.17,3.63,8.4,6.43l-8.27,7.48c-2.98-3.59-6.59-5.38-10.83-5.38-2.49,0-4.72,.55-6.66,1.64-1.95,1.09-3.46,2.64-4.53,4.63-1.07,1.99-1.61,4.28-1.61,6.86s.54,4.87,1.61,6.86c1.07,1.99,2.58,3.54,4.53,4.63,1.95,1.09,4.17,1.64,6.66,1.64,4.25,0,7.86-1.79,10.83-5.38l8.27,7.48c-2.23,2.8-5.03,4.95-8.4,6.43-3.37,1.49-7.16,2.23-11.36,2.23-4.82,0-9.14-1.02-12.97-3.05Z"/><path class="cls-1" d="M55.58,58.79c-3.79-3.72-5.68-8.99-5.68-15.82V17.49h13v25.08c0,7.35,2.91,11.03,8.73,11.03s8.67-3.68,8.67-11.03V17.49h12.8v25.47c0,6.83-1.89,12.1-5.68,15.82-3.79,3.72-9.09,5.58-15.92,5.58s-12.14-1.86-15.92-5.58Z"/><path class="cls-1" d="M107.22,62.99c-3.5-.92-6.35-2.14-8.54-3.68l4.27-9.59c2.06,1.36,4.44,2.45,7.16,3.28,2.71,.83,5.38,1.25,8.01,1.25,4.99,0,7.48-1.25,7.48-3.74,0-1.31-.71-2.29-2.13-2.92-1.42-.63-3.71-1.3-6.86-2-3.46-.74-6.35-1.54-8.67-2.4-2.32-.85-4.31-2.22-5.97-4.1-1.66-1.88-2.49-4.42-2.49-7.62,0-2.8,.77-5.33,2.3-7.58,1.53-2.25,3.82-4.04,6.86-5.35,3.04-1.31,6.77-1.97,11.19-1.97,3.02,0,6,.34,8.93,1.02,2.93,.68,5.52,1.67,7.75,2.99l-4.01,9.65c-4.38-2.36-8.62-3.55-12.74-3.55-2.58,0-4.46,.38-5.65,1.15-1.18,.77-1.77,1.76-1.77,2.99s.7,2.15,2.1,2.76c1.4,.61,3.65,1.25,6.76,1.9,3.5,.74,6.4,1.54,8.7,2.4,2.3,.85,4.29,2.21,5.97,4.07,1.68,1.86,2.53,4.39,2.53,7.58,0,2.76-.77,5.25-2.3,7.48-1.53,2.23-3.83,4.02-6.89,5.35-3.06,1.33-6.79,2-11.16,2-3.72,0-7.33-.46-10.83-1.38Z"/><path class="cls-1" d="M185.87,43.79c1.49,1.95,2.23,4.3,2.23,7.06,0,4.03-1.62,7.14-4.86,9.32-3.24,2.19-7.92,3.28-14.05,3.28h-24.82V17.49h23.5c5.87,0,10.33,1.08,13.39,3.25,3.06,2.17,4.6,5.09,4.6,8.77,0,2.19-.54,4.15-1.61,5.88-1.07,1.73-2.59,3.1-4.56,4.1,2.63,.92,4.68,2.35,6.17,4.3Zm-28.63-16.91v8.86h8.93c4.38,0,6.57-1.49,6.57-4.46s-2.19-4.4-6.57-4.4h-8.93Zm17.73,22.52c0-3.11-2.28-4.66-6.83-4.66h-10.9v9.32h10.9c4.55,0,6.83-1.55,6.83-4.66Z"/><path class="cls-1" d="M200.15,58.79c-3.79-3.72-5.68-8.99-5.68-15.82V17.49h13v25.08c0,7.35,2.91,11.03,8.73,11.03s8.67-3.68,8.67-11.03V17.49h12.8v25.47c0,6.83-1.89,12.1-5.68,15.82-3.79,3.72-9.09,5.58-15.92,5.58s-12.14-1.86-15.92-5.58Z"/><path class="cls-1" d="M285.34,53.14v10.31h-41.17v-8.14l23.18-27.51h-22.59v-10.31h39.59v8.14l-23.18,27.51h24.16Z"/></g><polygon class="cls-2" points="300.02 39.82 335.67 7.79 335.67 0 291.25 0 291.25 16.43 301.17 16.43 291.25 25.43 291.25 33.89 317.39 10.16 297.44 10.16 297.44 6.27 327.99 6.27 291.25 39.28 291.25 46.09 335.49 46.09 335.49 28.82 328.69 28.82 335.67 22.75 335.67 14.44 311.94 35.09 329.23 35.09 329.23 39.82 300.02 39.82"/></g></g></svg>