<svg xmlns="http://www.w3.org/2000/svg" xmlns:xlink="http://www.w3.org/1999/xlink" width="50" height="50" viewBox="0 0 50 50"><defs><clipPath id="a"><rect width="50" height="50" transform="translate(1081 591)" fill="#fff"/></clipPath></defs><g transform="translate(-1081 -591)" clip-path="url(#a)"><g transform="translate(1082 594)"><path d="M15.637,38.32a27.185,27.185,0,0,0-5.127,2.947,22.493,22.493,0,0,0,12.26,6.459,28.819,28.819,0,0,1-7.134-9.405Z" transform="translate(-0.922 -3.363)" fill="#808285"/><path d="M4,28.856A22.132,22.132,0,0,0,8.8,38.946a28.626,28.626,0,0,1,5.592-3.238,29.436,29.436,0,0,1-2.1-9.487H7.056A3.379,3.379,0,0,1,4,28.856Z" transform="translate(-0.351 -2.301)" fill="#808285"/><path d="M26.1,26.21H14.95a27.609,27.609,0,0,0,1.98,8.858,29.8,29.8,0,0,1,9.177-1.834V26.21Z" transform="translate(-1.312 -2.3)" fill="#808285"/><path d="M26.353,47.694V35.78a28.108,28.108,0,0,0-8.493,1.688,27.661,27.661,0,0,0,8.493,10.226Z" transform="translate(-1.568 -3.14)" fill="#808285"/><path d="M15.206,8.538a3.284,3.284,0,0,1,.848.119A29.111,29.111,0,0,1,22.7.2,22.369,22.369,0,0,0,9.66,7.5a28.3,28.3,0,0,0,3.083,2.107,3.366,3.366,0,0,1,2.463-1.067Z" transform="translate(-0.848 -0.018)" fill="#808285"/><path d="M15.757,16.625a27.854,27.854,0,0,0-.867,6.924h11.2V16.443a29.631,29.631,0,0,1-7.6-1.323A3.393,3.393,0,0,1,15.757,16.625Z" transform="translate(-1.307 -1.327)" fill="#808285"/><path d="M11.28,12.759a3.284,3.284,0,0,1,.119-.848A29.546,29.546,0,0,1,8.06,9.63,22.133,22.133,0,0,0,3.69,20.622h.027a3.374,3.374,0,0,1,3.238,2.436H12.2a29.642,29.642,0,0,1,.912-7.307,3.387,3.387,0,0,1-1.843-3Z" transform="translate(-0.324 -0.845)" fill="#808285"/><path d="M38.459,40.184a2.7,2.7,0,0,1-.283-.027A29.079,29.079,0,0,1,31.9,47.838a22.371,22.371,0,0,0,12.863-6.805,26.989,26.989,0,0,0-3.649-2.153A3.39,3.39,0,0,1,38.459,40.184Z" transform="translate(-2.8 -3.412)" fill="#808285"/><path d="M42.7,35.668a3.471,3.471,0,0,1-.055.538,28.652,28.652,0,0,1,4.087,2.417A22.244,22.244,0,0,0,51.638,26.19H42.725a29.826,29.826,0,0,1-1.2,6.924A3.362,3.362,0,0,1,42.7,35.659Z" transform="translate(-3.645 -2.299)" fill="#808285"/><path d="M51.662,23.082A22.223,22.223,0,0,0,47.392,10.01a29.02,29.02,0,0,1-6.212,3.622,29.827,29.827,0,0,1,1.551,9.451h8.922Z" transform="translate(-3.614 -0.879)" fill="#808285"/><path d="M19.358,11.914a2.355,2.355,0,0,1-.027.265,27.556,27.556,0,0,0,7.061,1.232V0A27.67,27.67,0,0,0,18.3,9.46a3.388,3.388,0,0,1,1.058,2.454Z" transform="translate(-1.606)" fill="#808285"/><path d="M29.03,13.456a27.574,27.574,0,0,0,8.931-1.642A27.67,27.67,0,0,0,29.03.21Z" transform="translate(-2.548 -0.018)" fill="#808285"/><path d="M31.9.14a29.12,29.12,0,0,1,7.891,11.038,27.97,27.97,0,0,0,5.747-3.366A22.347,22.347,0,0,0,31.9.14Z" transform="translate(-2.8 -0.012)" fill="#808285"/><path d="M29.029,23.5H39.976a27.813,27.813,0,0,0-1.441-8.83,29.169,29.169,0,0,1-9.515,1.751V23.5Z" transform="translate(-2.547 -1.288)" fill="#808285"/><path d="M34.814,36.507v-.055a27.858,27.858,0,0,0-5.784-.7V47.49A27.857,27.857,0,0,0,36.282,39.3,3.389,3.389,0,0,1,34.814,36.507Z" transform="translate(-2.548 -3.138)" fill="#808285"/><path d="M38.206,32.276a3.256,3.256,0,0,1,.675.073,27.7,27.7,0,0,0,1.04-6.139H29.02v7.015a29.712,29.712,0,0,1,6.24.766,3.368,3.368,0,0,1,2.928-1.715Z" transform="translate(-2.547 -2.3)" fill="#808285"/><path d="M12.01,12.734a3.37,3.37,0,0,0,1.843,3,3.323,3.323,0,0,0,1.56.392.31.31,0,0,0,.091-.009,3.333,3.333,0,0,0,3.275-3.111c0-.091.027-.173.027-.265a3.386,3.386,0,0,0-2.545-3.275,3.284,3.284,0,0,0-.848-.119A3.4,3.4,0,0,0,12.129,11.9a3.229,3.229,0,0,0-.119.848Z" transform="translate(-1.054 -0.821)" fill="#30a4a1"/><path d="M3.394,21.689H3.366a3.394,3.394,0,0,0,.027,6.787,2.427,2.427,0,0,0,.255-.027A3.379,3.379,0,0,0,6.7,25.812a3.17,3.17,0,0,0-.073-1.7A3.391,3.391,0,0,0,3.394,21.68Z" transform="translate(0 -1.903)" fill="#bcbec0"/><path d="M35.37,36.254a3.363,3.363,0,0,0,3.111,3.366c.1,0,.192.027.283.027A3.416,3.416,0,0,0,42.1,36.792a3.471,3.471,0,0,0,.055-.538,3.431,3.431,0,0,0-2.709-3.321,3.326,3.326,0,0,0-.675-.073,3.368,3.368,0,0,0-2.928,1.715,3.324,3.324,0,0,0-.456,1.633v.055Z" transform="translate(-3.104 -2.884)" fill="#30a4a1"/></g></g></svg>