<?xml version="1.0" encoding="UTF-8"?><svg id="Layer_2" xmlns="http://www.w3.org/2000/svg" viewBox="0 0 51.83 51.83"><defs><style>.cls-1{fill:#808285;}.cls-2{fill:none;stroke:#808285;stroke-miterlimit:10;}</style></defs><g id="Layer_1-2"><g><path class="cls-2" d="M25.91,51.33C11.9,51.33,.5,39.93,.5,25.91S11.9,.5,25.91,.5s25.41,11.4,25.41,25.41-11.4,25.41-25.41,25.41Z"/><g><path class="cls-1" d="M30.68,25.13h-12.17v3.49h8.22c-.97,4.24-3.96,6.85-7.98,6.85-5.27,0-9.55-4.27-9.55-9.55s4.27-9.55,9.55-9.55c2.51,0,4.79,.97,6.49,2.55l2.69-2.32c-2.36-2.33-5.6-3.77-9.18-3.77-7.23,0-13.08,5.86-13.08,13.08s5.86,13.08,13.08,13.08,11.95-5.29,11.95-12.52l-.02-1.35Z"/><polygon class="cls-1" points="48.17 25.27 43.14 25.27 43.14 20.25 39.94 20.25 39.94 25.27 34.92 25.27 34.92 28.48 39.94 28.48 39.94 33.5 43.14 33.5 43.14 28.48 48.17 28.48 48.17 25.27"/></g></g></g></svg>