<?xml version="1.0" encoding="UTF-8"?>
<svg id="Layer_2" data-name="Layer 2" xmlns="http://www.w3.org/2000/svg" viewBox="0 0 96.68 62.87">
  <defs>
    <style>
      .cls-1 {
        fill: #2ea3a1;
      }
    </style>
  </defs>
  <g id="Layer_1-2" data-name="Layer 1">
    <path class="cls-1" d="M63.1,27.96h22.22c-1.5-1.54-2.74-2.79-3.97-4.06-1.78-1.84-1.96-3.8-.48-5.2,1.4-1.33,3.34-1.16,5.05,.54,3.15,3.11,6.29,6.24,9.4,9.4,1.81,1.84,1.82,3.5,0,5.36-3.15,3.22-6.33,6.42-9.55,9.58-1.75,1.72-3.61,1.78-5.02,.29-1.31-1.39-1.2-3.23,.39-4.88,1.27-1.31,2.62-2.54,4.33-4.19h-22.09c-.11,1.87-.17,3.75-.36,5.61-1.28,13.02-12.29,22.43-25.67,21.97-12.48-.43-22.8-10.99-23.12-23.71-.07-2.75-.06-5.5-.02-8.25,.15-8.79,6.57-15.95,15.24-17.04,8.47-1.07,16.49,4.34,18.84,12.68,.17,.59,.34,1.17,.54,1.86h7.49c-.95-10.24-9.08-18.97-19.7-21.27-10.48-2.27-21.57,2.81-26.86,12.32-2.12,3.81-3.2,7.9-3.2,12.27,0,8.94,0,17.88,0,26.82,0,.69,.08,1.39-.06,2.06-.36,1.81-1.48,2.84-3.36,2.76-1.77-.08-3.02-1.11-3.01-2.85,.07-11.3-.59-22.68,.6-33.87C2.29,11.49,15.87,.29,30.52,0c15.55-.3,28.91,10.09,31.97,24.87,.2,.97,.39,1.94,.61,3.09Zm-13.14,6.74c-1.05,3.54-1.53,6.93-3.04,9.77-1.67,3.13-4.96,4.37-8.59,4.26-5.3-.15-9.55-4.22-9.94-9.52-.19-2.62,.48-4.99,2.08-7.08,2.85-3.74,6.92-4.35,11.28-4.11-1.22-5.09-5.96-8.28-11.32-7.82-5.1,.44-9.43,4.85-9.66,9.99-.12,2.67-.07,5.35-.03,8.02,.11,5.97,2.61,10.76,7.38,14.31,6.05,4.49,14.38,4.59,20.62,.36,5.97-4.05,9.1-11.59,7.48-18.18h-6.27Zm-7.57,.07c-1.6,0-3.14-.22-4.58,.05-1.97,.37-2.9,1.84-2.83,3.84,.07,1.91,1.62,3.46,3.53,3.51,2,.06,3.46-.88,3.83-2.85,.27-1.44,.05-2.97,.05-4.56Z"/>
  </g>
</svg>