<?xml version="1.0" encoding="UTF-8"?>
<svg id="Layer_2" data-name="Layer 2" xmlns="http://www.w3.org/2000/svg" viewBox="0 0 78.33 78.39">
  <defs>
    <style>
      .cls-1 {
        fill: #2ea3a1;
      }
    </style>
  </defs>
  <g id="Layer_1-2" data-name="Layer 1">
    <g>
      <path class="cls-1" d="M53.99,47.77c.54,.5,1.18,1.08,1.8,1.66,2.5-1.54,2.57-1.53,4.62,.52,5.21,5.21,10.45,10.41,15.63,15.65,2.25,2.27,2.87,5,1.75,8-1.07,2.86-3.23,4.44-6.25,4.76-2.18,.23-4.16-.37-5.72-1.92-5.6-5.54-11.15-11.13-16.73-16.69-1.39-1.38-.89-2.57,.5-3.74-.77-.75-1.38-1.35-2.08-2.03-4.11,2.87-8.53,4.68-13.4,5.49C17.8,62.2,1.45,49.49,.11,32.96-1.19,16.82,8.95,3.37,24.8,.49c8.06-1.46,15.5,.4,22.24,5.06,1.09,.76,1.9,1.68,1.02,2.97-.95,1.41-2.1,.85-3.26,.07C29.54-1.71,9.45,5.5,4.62,22.99c-3.56,12.89,3.25,26.45,15.7,31.28,12.47,4.84,26.61-.55,32.72-12.46,.26-.5,.37-1.21,.78-1.48,.7-.46,1.66-1.02,2.35-.85,1.12,.26,1.45,1.4,.93,2.46-.94,1.91-2,3.76-3.11,5.84Zm3.75,15.07c3.59,3.65,7.19,7.43,10.93,11.05,1.36,1.32,3.44,1.02,4.79-.32,1.41-1.4,1.65-3.49,.24-4.94-3.59-3.7-7.31-7.27-10.91-10.82-1.69,1.68-3.37,3.36-5.05,5.03Zm-3.06-2.95c1.77-1.7,3.48-3.35,5.17-4.97-.58-.69-1.13-1.35-1.49-1.78-1.92,1.78-3.65,3.39-5.53,5.14,.65,.57,1.26,1.1,1.85,1.61Z"/>
      <path class="cls-1" d="M29.29,7.45c4.51,.08,8.31,1.07,11.82,3.11,1.22,.71,2.68,1.49,1.71,3.19-.98,1.71-2.31,.79-3.57,.1-6.94-3.82-13.86-3.67-20.29,.93-6.43,4.61-8.97,11.17-7.36,18.91,1.59,7.66,6.47,12.62,14.12,14.35,7.49,1.69,13.77-.74,18.71-6.62,.4-.48,.65-1.22,1.15-1.46,.69-.34,1.87-.7,2.28-.37,.54,.44,.69,1.54,.71,2.36,.01,.46-.54,.96-.88,1.41-6.1,8.1-16.86,11.09-26.23,7.31-9.2-3.71-15.13-13.42-13.97-22.86,1.31-10.7,8.94-18.65,19.27-20.08,1-.14,2-.22,2.54-.28Z"/>
      <path class="cls-1" d="M56.23,3.72c-.64,0-1.59,.22-2.34-.07-.69-.26-1.58-1.06-1.61-1.66-.03-.61,.84-1.78,1.38-1.82,2.69-.2,5.41-.2,8.11-.02,.57,.04,1.47,1.11,1.52,1.76,.18,2.44,.1,4.91,.07,7.37-.01,1.19-.72,2.08-1.85,1.85-.71-.14-1.47-1.02-1.81-1.76-.3-.66-.06-1.58-.06-2.81-.79,.73-1.29,1.16-1.75,1.62-5.44,5.43-10.87,10.87-16.31,16.31-2.22,2.22-2.65,2.22-4.88,.02-.4-.39-.81-.76-1.35-1.27-2.89,2.89-5.73,5.73-8.57,8.58-.45,.45-.84,1.13-1.37,1.26-.8,.19-2.02,.31-2.45-.13-.43-.45-.49-1.97-.07-2.42,3.64-3.84,7.38-7.59,11.22-11.23,.47-.45,1.91-.32,2.63,.06,.84,.43,1.39,1.42,1.88,1.97,5.95-5.96,11.75-11.77,17.6-17.63Z"/>
      <path class="cls-1" d="M63.37,25.13c0,3.28-.01,6.55,0,9.83,0,1.29-.37,2.32-1.83,2.35-1.44,.02-1.93-.99-1.94-2.28,0-6.55,0-13.11,0-19.66,0-1.29,.52-2.29,1.96-2.25,1.47,.04,1.81,1.08,1.8,2.37-.02,3.21,0,6.43,0,9.64Z"/>
      <path class="cls-1" d="M52.19,26.92c0-2.58,0-5.15,0-7.73,0-1.26,.35-2.32,1.84-2.34,1.48-.02,1.88,1,1.88,2.28,0,5.28,0,10.55,0,15.83,0,1.27-.37,2.32-1.83,2.34-1.46,.02-1.89-1-1.89-2.28,0-2.7,0-5.4,0-8.1Z"/>
      <path class="cls-1" d="M48.49,29.88c0,1.76,.03,3.51-.01,5.27-.03,1.29-.6,2.25-2.03,2.16-1.33-.08-1.72-1.03-1.72-2.24,.02-3.45,.02-6.9,0-10.35,0-1.32,.45-2.26,1.9-2.25,1.34,0,1.83,.95,1.85,2.15,.03,1.76,0,3.51,0,5.27Z"/>
      <path class="cls-1" d="M40.99,32.77c0,.94,.24,1.97-.07,2.79-.27,.72-1.17,1.65-1.79,1.65-.62,0-1.7-.98-1.78-1.63-.24-1.91-.24-3.89,0-5.8,.08-.66,1.16-1.65,1.78-1.66,.62,0,1.54,.94,1.8,1.66,.31,.89,.08,1.98,.07,2.98Z"/>
      <path class="cls-1" d="M33.5,34.31c.06,1.58-.01,3.01-1.88,2.99-1.68-.02-1.86-1.35-1.88-2.7-.01-1.43,.18-2.85,1.95-2.83,1.63,.01,1.95,1.31,1.81,2.54Z"/>
      <path class="cls-1" d="M20.95,33.35c.45,.76,1.31,1.56,1.24,2.27-.06,.62-1.09,1.52-1.79,1.64-1.14,.18-1.95-.75-1.69-1.9,.16-.74,.94-1.36,1.44-2.03,.27,0,.54,.01,.81,.02Z"/>
    </g>
  </g>
</svg>