<?xml version="1.0" encoding="UTF-8"?>
<svg id="Layer_2" data-name="Layer 2" xmlns="http://www.w3.org/2000/svg" viewBox="0 0 78.72 67.39">
  <defs>
    <style>
      .cls-1 {
        fill: #2ea3a1;
      }
    </style>
  </defs>
  <g id="Layer_1-2" data-name="Layer 1">
    <g>
      <path class="cls-1" d="M39.36,15.9c2.66,.62,5.41,.98,7.96,1.9,6.15,2.21,11.15,6.15,15.28,11.18,2.4,2.92,2.65,6.2,.4,8.98-5.71,7.08-12.69,12.36-22.07,13.12-3.08,.25-6.4-.37-9.36-1.34-6.27-2.06-11.3-6.13-15.47-11.2-2.39-2.91-2.64-6.21-.4-8.98,5.71-7.08,12.71-12.16,22.06-13.23,.51-.06,1.02-.09,1.53-.13,.02-.1,.05-.19,.07-.29Zm-.06,30.88c.51-.02,1.03,0,1.53-.08,7.79-1.11,13.62-5.45,18.49-11.32,1.11-1.33,.62-2.6-.39-3.79-3.35-3.96-7.32-7.12-12.1-9.18-3.22-1.39-6.56-2.09-10.09-1.42-7.21,1.37-12.64,5.53-17.25,10.97-1.09,1.28-1,2.7,.19,3.78,2.87,2.61,5.7,5.3,8.83,7.56,3.14,2.26,6.85,3.39,10.79,3.48Z"/>
      <path class="cls-1" d="M41.63,5.57c0,1.09,.02,2.17,0,3.26-.03,1.32-.61,2.27-2.03,2.28-1.33,.01-1.93-.89-1.96-2.13-.04-2.3-.05-4.6,0-6.9,.03-1.24,.65-2.11,1.99-2.09,1.32,.02,1.92,.89,1.98,2.13,.05,1.15,.01,2.3,.01,3.45Z"/>
      <path class="cls-1" d="M41.61,61.96c0,1.21,.24,2.5-.09,3.61-.23,.77-1.24,1.8-1.92,1.81-.65,0-1.8-1.1-1.87-1.81-.24-2.4-.24-4.86,0-7.26,.07-.7,1.24-1.81,1.88-1.8,.68,.02,1.68,1.05,1.91,1.83,.33,1.12,.08,2.4,.08,3.61Z"/>
      <path class="cls-1" d="M15.1,62.68c-1.71-.05-2.71-1.85-1.67-3.04,1.76-2.01,3.69-3.89,5.72-5.63,.42-.36,1.8-.11,2.33,.34,.43,.36,.63,1.77,.29,2.16-1.8,2.06-3.78,3.96-5.74,5.87-.24,.23-.71,.23-.93,.3Z"/>
      <path class="cls-1" d="M20.26,14.14c-.76-.46-1.36-.7-1.8-1.11-1.57-1.5-3.09-3.05-4.62-4.59-.94-.94-1.21-2.02-.2-3.02,.92-.92,2-.76,2.9,.1,1.65,1.59,3.33,3.18,4.83,4.91,.45,.51,.65,1.55,.47,2.22-.15,.57-.99,.96-1.59,1.49Z"/>
      <path class="cls-1" d="M58.14,53.39c.72,.42,1.28,.63,1.66,1,1.61,1.55,3.18,3.14,4.76,4.72,.94,.95,1.19,2.03,.15,3.02-.94,.9-2.01,.71-2.9-.16-1.65-1.6-3.32-3.19-4.83-4.91-.44-.51-.61-1.55-.43-2.21,.16-.57,1-.95,1.59-1.46Z"/>
      <path class="cls-1" d="M63.58,4.74c.39,.27,1.18,.55,1.4,1.06,.26,.6,.3,1.67-.07,2.08-1.74,1.95-3.58,3.83-5.55,5.53-.45,.39-1.79,.25-2.35-.15-.46-.33-.77-1.77-.47-2.12,1.89-2.14,3.97-4.11,6.01-6.12,.16-.15,.48-.14,1.03-.28Z"/>
      <path class="cls-1" d="M5.45,35.71c-1.21,0-2.49,.24-3.61-.08C1.06,35.41,0,34.41,0,33.76c0-.65,1.1-1.8,1.8-1.87,2.4-.23,4.84-.12,7.27-.08,1.2,.02,1.91,.71,1.92,1.93,0,1.22-.7,1.89-1.9,1.95-1.21,.05-2.42,.01-3.64,.01Z"/>
      <path class="cls-1" d="M73.21,35.7c-1.21,0-2.43,.05-3.64-.01-1.21-.07-2.05-.84-1.78-1.98,.17-.73,1.08-1.75,1.73-1.81,2.47-.21,4.98-.23,7.45,0,.68,.06,1.77,1.27,1.74,1.92-.03,.66-1.11,1.6-1.89,1.81-1.13,.31-2.4,.08-3.62,.08h0Z"/>
      <path class="cls-1" d="M39.42,41.91c-4.56,.03-8.17-3.49-8.22-8.03-.05-4.57,3.46-8.2,7.99-8.27,4.65-.07,8.31,3.5,8.32,8.13,0,4.56-3.53,8.14-8.08,8.17Zm0-12.66c-2.43-.05-4.56,2.04-4.57,4.48-.01,2.37,1.95,4.42,4.34,4.52,2.42,.11,4.59-1.93,4.67-4.39,.08-2.42-1.99-4.58-4.44-4.62Z"/>
    </g>
  </g>
</svg>