<?xml version="1.0" encoding="UTF-8"?><svg id="Layer_2" xmlns="http://www.w3.org/2000/svg" viewBox="0 0 51.74 51.74"><defs><style>.cls-1{fill:#808285;}.cls-2{fill:none;stroke:#808285;stroke-miterlimit:10;}</style></defs><g id="Layer_1-2"><g><g><path class="cls-2" d="M25.87,51.24C11.88,51.24,.5,39.86,.5,25.87S11.88,.5,25.87,.5s25.37,11.38,25.37,25.37-11.38,25.37-25.37,25.37Z"/><path class="cls-1" d="M40.22,27.8v9.47c0,.23-.19,.42-.42,.42h-4.89c-.23,0-.42-.19-.42-.42v-8.81c0-2.32-.83-3.9-2.91-3.9-1.59,0-2.53,1.07-2.94,2.1-.15,.37-.19,.88-.19,1.4v9.22c0,.23-.19,.42-.42,.42h-4.89c-.23,0-.42-.19-.42-.42,.01-2.35,.06-13.73,.01-16.41,0-.24,.19-.43,.42-.43h4.88c.23,0,.42,.19,.42,.42v2.02s-.03,.04-.04,.06h.04v-.06c.76-1.17,2.12-2.85,5.17-2.85,3.78,0,6.61,2.47,6.61,7.77h0Zm-26,9.9h4.89c.23,0,.42-.19,.42-.42V20.87c0-.23-.19-.42-.42-.42h-4.89c-.23,0-.42,.19-.42,.42v16.41c0,.23,.19,.42,.42,.42Z"/></g><circle class="cls-1" cx="16.49" cy="15.17" r="3.07"/></g></g></svg>