<?xml version="1.0" encoding="UTF-8"?>
<svg id="Layer_2" data-name="Layer 2" xmlns="http://www.w3.org/2000/svg" viewBox="0 0 31.81 41.55">
  <defs>
    <style>
      .cls-1 {
        fill: #2ea3a1;
      }
    </style>
  </defs>
  <g id="Layer_1-2" data-name="Layer 1">
    <path class="cls-1" d="M31.81,15.66c-.09,4.7-1.57,8.64-3.77,12.35-3.02,5.1-7.01,9.37-11.51,13.2-.35,.3-.63,.52-1.11,.11-5.86-5.03-10.99-10.63-13.89-17.93-1.93-4.87-2.23-9.77,.18-14.6C4.8,2.6,11.71-.93,18.43,.21c7.03,1.2,12.31,6.66,13.21,13.67,.09,.7,.13,1.4,.17,1.78ZM15.87,7.99c-4.39,.01-7.9,3.56-7.87,7.96,.03,4.39,3.6,7.93,7.96,7.9,4.37-.03,7.9-3.61,7.87-7.99-.03-4.41-3.54-7.89-7.96-7.87Z"/>
  </g>
</svg>