<?xml version="1.0" encoding="UTF-8"?>
<svg id="Layer_2" data-name="Layer 2" xmlns="http://www.w3.org/2000/svg" viewBox="0 0 38.25 22.93">
  <defs>
    <style>
      .cls-1 {
        fill: #2ea3a1;
      }
    </style>
  </defs>
  <g id="Layer_1-2" data-name="Layer 1">
    <path class="cls-1" d="M19.06,22.93c-5.77,0-11.53,0-17.3,0-1.61,0-1.76-.16-1.76-1.78C0,14.69,0,8.23,0,1.78,0,.16,.15,0,1.77,0c11.57,0,23.15,0,34.72,0,1.61,0,1.76,.16,1.76,1.78,0,6.45,0,12.91,0,19.36,0,1.62-.15,1.77-1.77,1.78-5.81,0-11.62,0-17.43,0Zm17.16-3.09V2.87c-.51,.33-.87,.56-1.22,.8-4.83,3.3-9.68,6.58-14.47,9.94-1.07,.75-1.81,.69-2.85-.03C12.9,10.22,8.05,6.95,3.22,3.64c-.36-.25-.74-.47-1.2-.76V19.86c3.28-2.25,6.44-4.33,9.49-6.55,1.17-.85,1.95-.74,2.81,.41-3.43,2.36-6.86,4.71-10.5,7.22h30.62c-3.66-2.51-7.08-4.86-10.63-7.3,.65-.44,1.16-.79,1.67-1.13,3.6,2.46,7.1,4.85,10.74,7.34ZM4.11,1.95c5.05,3.46,9.79,6.73,14.58,9.94,.27,.18,.96-.02,1.31-.25,4.35-2.94,8.67-5.92,12.99-8.9,.3-.2,.57-.43,1.04-.79H4.11Z"/>
  </g>
</svg>