<?xml version="1.0" encoding="UTF-8"?>
<svg id="Layer_2" data-name="Layer 2" xmlns="http://www.w3.org/2000/svg" viewBox="0 0 38.78 38.78">
  <defs>
    <style>
      .cls-1 {
        fill: #2ea3a1;
      }
    </style>
  </defs>
  <g id="Layer_1-2" data-name="Layer 1">
    <path class="cls-1" d="M0,9.58C.18,7.46,.52,5.43,1.78,3.79c.91-1.18,2.07-2.31,3.36-3.01,2.44-1.33,3.48-1,4.97,1.33,1.3,2.02,2.42,4.16,3.64,6.23,.56,.95,.37,1.74-.39,2.43-.87,.79-1.78,1.55-2.67,2.33-1.76,1.53-1.9,2.1-.71,4.15,2.05,3.53,4.86,6.41,7.93,9.02,1.31,1.11,2.76,2.09,4.24,2.95,1.45,.84,1.95,.67,3.07-.57,.92-1.03,1.78-2.11,2.7-3.14,.64-.72,1.34-.94,2.28-.38,2.32,1.39,4.72,2.64,7.05,4.03,1.45,.87,1.92,2.07,1.22,3.62-.52,1.15-1.3,2.29-2.24,3.12-3.34,2.96-7.2,3.56-11.42,2.22-5.04-1.61-9.29-4.52-13.12-8.1C7.08,25.71,3.24,20.83,1.19,14.76c-.56-1.67-.8-3.45-1.19-5.17Z"/>
  </g>
</svg>