<?xml version="1.0" encoding="UTF-8"?>
<svg id="Layer_2" data-name="Layer 2" xmlns="http://www.w3.org/2000/svg" xmlns:xlink="http://www.w3.org/1999/xlink" viewBox="0 0 263.38 242.56">
  <defs>
    <style>
      .cls-1 {
        fill: url(#linear-gradient-2);
      }

      .cls-2 {
        fill: #2ea3a1;
      }

      .cls-3 {
        fill: #e3e2e0;
      }

      .cls-4 {
        fill: #60489c;
      }

      .cls-5 {
        fill: url(#linear-gradient);
      }
    </style>
    <linearGradient id="linear-gradient" x1="-73.7" y1="74.62" x2="231.12" y2="74.62" gradientUnits="userSpaceOnUse">
      <stop offset=".28" stop-color="#0c1e30"/>
      <stop offset="1" stop-color="#000f1f"/>
    </linearGradient>
    <linearGradient id="linear-gradient-2" x1="0" y1="53.27" x2="106.51" y2="53.27" xlink:href="#linear-gradient"/>
  </defs>
  <g id="Layer_1-2" data-name="Layer 1">
    <g>
      <g>
        <polygon class="cls-3" points="231.12 42.54 210.16 21.58 180.61 51.13 231.12 42.54"/>
        <polygon class="cls-4" points="242.51 0 199.98 42.53 135.82 106.72 0 242.56 0 0 242.51 0"/>
        <polygon class="cls-5" points="231.12 42.53 166.95 106.72 0 106.72 0 42.53 231.12 42.53"/>
        <polygon class="cls-1" points="106.51 .01 0 106.53 0 .01 106.51 .01"/>
        <g>
          <path class="cls-2" d="M30.57,64.22c1.26-.21,2.91-.39,5.01-.39,2.58,0,4.47,.6,5.67,1.68,1.11,.96,1.77,2.43,1.77,4.23s-.54,3.27-1.56,4.32c-1.38,1.47-3.63,2.22-6.18,2.22-.78,0-1.5-.03-2.1-.18v8.1h-2.61v-19.98Zm2.61,9.75c.57,.15,1.29,.21,2.16,.21,3.15,0,5.07-1.53,5.07-4.32s-1.89-3.96-4.77-3.96c-1.14,0-2.01,.09-2.46,.21v7.86Z"/>
          <path class="cls-2" d="M45.96,74.2c0-1.71-.03-3.18-.12-4.53h2.31l.09,2.85h.12c.66-1.95,2.25-3.18,4.02-3.18,.3,0,.51,.03,.75,.09v2.49c-.27-.06-.54-.09-.9-.09-1.86,0-3.18,1.41-3.54,3.39-.06,.36-.12,.78-.12,1.23v7.74h-2.61v-9.99Z"/>
          <path class="cls-2" d="M68.61,76.82c0,5.37-3.72,7.71-7.23,7.71-3.93,0-6.96-2.88-6.96-7.47,0-4.86,3.18-7.71,7.2-7.71s6.99,3.03,6.99,7.47Zm-11.52,.15c0,3.18,1.83,5.58,4.41,5.58s4.41-2.37,4.41-5.64c0-2.46-1.23-5.58-4.35-5.58s-4.47,2.88-4.47,5.64Z"/>
          <path class="cls-2" d="M71.94,73.61c0-1.5-.03-2.73-.12-3.93h2.34l.15,2.4h.06c.72-1.38,2.4-2.73,4.8-2.73,2.01,0,5.13,1.2,5.13,6.18v8.67h-2.64v-8.37c0-2.34-.87-4.29-3.36-4.29-1.74,0-3.09,1.23-3.54,2.7-.12,.33-.18,.78-.18,1.23v8.73h-2.64v-10.59Z"/>
          <path class="cls-2" d="M91.65,65.51v4.17h3.78v2.01h-3.78v7.83c0,1.8,.51,2.82,1.98,2.82,.69,0,1.2-.09,1.53-.18l.12,1.98c-.51,.21-1.32,.36-2.34,.36-1.23,0-2.22-.39-2.85-1.11-.75-.78-1.02-2.07-1.02-3.78v-7.92h-2.25v-2.01h2.25v-3.48l2.58-.69Z"/>
          <path class="cls-2" d="M111.36,76.82c0,5.37-3.72,7.71-7.23,7.71-3.93,0-6.96-2.88-6.96-7.47,0-4.86,3.18-7.71,7.2-7.71s6.99,3.03,6.99,7.47Zm-11.52,.15c0,3.18,1.83,5.58,4.41,5.58s4.41-2.37,4.41-5.64c0-2.46-1.23-5.58-4.35-5.58s-4.47,2.88-4.47,5.64Z"/>
        </g>
      </g>
      <g>
        <path d="M144.24,210v-13.86h1.54c.16,0,.3,.04,.42,.11,.12,.08,.19,.19,.22,.35l.2,.97c.42-.48,.91-.87,1.45-1.17,.55-.3,1.19-.45,1.92-.45,.57,0,1.09,.12,1.56,.36,.47,.24,.88,.58,1.22,1.03,.34,.45,.61,1.01,.79,1.67,.19,.66,.28,1.42,.28,2.28,0,.78-.11,1.5-.32,2.17-.21,.67-.51,1.24-.9,1.73s-.86,.87-1.42,1.15c-.55,.28-1.17,.41-1.86,.41-.59,0-1.09-.09-1.5-.27-.41-.18-.78-.43-1.11-.75v4.28h-2.52Zm4.89-12.07c-.52,0-.97,.11-1.34,.33-.37,.22-.71,.53-1.03,.93v4.68c.29,.35,.6,.6,.93,.74,.34,.14,.7,.21,1.08,.21s.72-.07,1.03-.21c.31-.14,.57-.36,.78-.65,.21-.29,.38-.66,.49-1.1,.12-.44,.17-.97,.17-1.57s-.05-1.13-.15-1.55c-.1-.42-.24-.77-.42-1.03-.18-.26-.41-.46-.67-.58-.26-.12-.56-.18-.89-.18Z"/>
        <path d="M160.07,195.97c.66,0,1.26,.11,1.82,.32,.55,.21,1.03,.52,1.43,.92,.4,.4,.71,.9,.94,1.49,.22,.59,.34,1.26,.34,2.01,0,.19,0,.35-.03,.47-.02,.13-.05,.22-.09,.3s-.1,.12-.18,.15c-.08,.03-.17,.05-.29,.05h-6.46c.08,1.07,.36,1.86,.87,2.36,.5,.5,1.17,.75,2,.75,.41,0,.76-.05,1.05-.14,.29-.1,.55-.2,.77-.32,.22-.12,.41-.22,.58-.32,.17-.09,.33-.14,.48-.14,.1,0,.19,.02,.26,.06,.08,.04,.14,.1,.19,.17l.73,.92c-.28,.33-.59,.6-.94,.82-.35,.22-.71,.4-1.08,.53-.38,.13-.76,.23-1.15,.28-.39,.05-.77,.08-1.14,.08-.73,0-1.4-.12-2.03-.36-.62-.24-1.17-.6-1.63-1.07-.46-.47-.82-1.06-1.09-1.75-.27-.7-.4-1.5-.4-2.42,0-.71,.12-1.38,.35-2.01,.23-.63,.56-1.17,.99-1.64,.43-.47,.96-.83,1.58-1.11s1.32-.41,2.1-.41Zm.05,1.8c-.73,0-1.31,.21-1.72,.62s-.68,1-.79,1.76h4.73c0-.33-.04-.63-.13-.92-.09-.29-.22-.54-.41-.76-.18-.22-.41-.39-.69-.51s-.6-.19-.98-.19Z"/>
        <path d="M166.64,206.59v-10.45h1.48c.26,0,.44,.05,.54,.14,.1,.09,.17,.26,.2,.49l.15,1.26c.37-.65,.81-1.15,1.31-1.53,.5-.37,1.07-.56,1.69-.56,.52,0,.94,.12,1.28,.36l-.33,1.88c-.02,.12-.06,.21-.13,.26-.07,.05-.16,.08-.27,.08-.1,0-.24-.02-.42-.07-.18-.05-.41-.07-.7-.07-.52,0-.97,.14-1.34,.43-.37,.29-.69,.71-.95,1.27v6.51h-2.52Z"/>
        <path d="M178.89,206.59v-10.45h1.54c.33,0,.54,.15,.64,.46l.16,.77c.18-.2,.38-.39,.58-.56s.41-.32,.64-.44c.23-.12,.47-.22,.73-.29,.26-.07,.55-.11,.86-.11,.66,0,1.2,.18,1.62,.53,.42,.36,.74,.83,.95,1.42,.16-.35,.37-.64,.61-.89,.24-.25,.51-.45,.8-.61,.29-.16,.6-.27,.93-.35,.33-.08,.66-.11,.99-.11,.58,0,1.09,.09,1.54,.26,.45,.18,.82,.43,1.13,.77,.31,.34,.54,.75,.7,1.24,.16,.49,.24,1.05,.24,1.68v6.65h-2.52v-6.65c0-.67-.15-1.17-.44-1.5-.29-.34-.72-.5-1.28-.5-.26,0-.5,.04-.72,.13s-.41,.22-.58,.38c-.17,.17-.3,.38-.39,.63-.1,.25-.14,.54-.14,.87v6.65h-2.53v-6.65c0-.7-.14-1.21-.42-1.53-.28-.32-.7-.48-1.25-.48-.36,0-.7,.09-1.01,.27-.32,.18-.61,.43-.88,.74v7.65h-2.52Z"/>
        <path d="M200.51,195.97c.78,0,1.49,.13,2.12,.38,.63,.25,1.18,.61,1.62,1.07s.79,1.03,1.04,1.69c.24,.67,.37,1.41,.37,2.23s-.12,1.58-.37,2.24c-.24,.67-.59,1.23-1.04,1.7-.45,.47-.99,.83-1.62,1.08-.64,.25-1.34,.38-2.12,.38s-1.49-.13-2.13-.38c-.64-.25-1.18-.61-1.63-1.08-.45-.47-.8-1.04-1.05-1.7-.25-.67-.37-1.41-.37-2.24s.12-1.56,.37-2.23c.25-.67,.6-1.23,1.05-1.69,.45-.46,1-.82,1.63-1.07,.64-.25,1.35-.38,2.13-.38Zm0,8.83c.87,0,1.51-.29,1.93-.88,.42-.58,.63-1.44,.63-2.57s-.21-1.99-.63-2.58c-.42-.59-1.06-.89-1.93-.89s-1.53,.3-1.96,.89c-.42,.59-.63,1.45-.63,2.57s.21,1.97,.63,2.56c.42,.59,1.07,.88,1.96,.88Z"/>
        <path d="M207.63,206.59v-10.45h1.54c.33,0,.54,.15,.64,.46l.17,.83c.21-.22,.43-.41,.67-.59s.48-.33,.74-.46c.26-.13,.54-.23,.84-.3,.3-.07,.62-.1,.98-.1,.57,0,1.08,.1,1.52,.29s.81,.46,1.11,.81c.29,.35,.52,.77,.67,1.25,.15,.49,.23,1.02,.23,1.6v6.65h-2.52v-6.65c0-.64-.15-1.13-.44-1.48-.29-.35-.74-.52-1.33-.52-.43,0-.84,.1-1.22,.3-.38,.2-.74,.46-1.08,.8v7.56h-2.52Z"/>
        <path d="M222.64,206.75c-.9,0-1.6-.26-2.09-.77-.49-.51-.73-1.22-.73-2.12v-5.84h-1.06c-.14,0-.25-.04-.35-.13-.1-.09-.15-.22-.15-.4v-1l1.68-.28,.53-2.85c.03-.14,.09-.24,.19-.32,.1-.08,.22-.11,.37-.11h1.3v3.29h2.75v1.79h-2.75v5.66c0,.33,.08,.58,.24,.76s.38,.28,.65,.28c.16,0,.29-.02,.39-.06,.11-.04,.2-.08,.28-.12,.08-.04,.15-.08,.21-.12,.06-.04,.12-.06,.18-.06,.08,0,.14,.02,.18,.06,.05,.04,.1,.09,.15,.17l.75,1.22c-.37,.31-.79,.54-1.26,.69-.48,.16-.97,.23-1.48,.23Z"/>
        <path d="M227.09,206.59v-15.13h2.52v5.82c.41-.39,.86-.7,1.34-.94,.49-.24,1.06-.36,1.72-.36,.57,0,1.08,.1,1.52,.29s.81,.46,1.11,.81c.29,.35,.52,.77,.67,1.25,.15,.49,.23,1.02,.23,1.6v6.65h-2.52v-6.65c0-.64-.15-1.13-.44-1.48-.29-.35-.74-.52-1.33-.52-.43,0-.84,.1-1.22,.3-.38,.2-.74,.46-1.08,.8v7.56h-2.52Z"/>
      </g>
      <g>
        <path d="M133.23,158.38c1.4,.45,2.79,.93,4.17,1.43s2.61,1.15,3.69,1.93c1.08,.79,1.96,1.76,2.63,2.92,.67,1.16,1,2.63,1,4.4s-.28,3.29-.84,4.79c-.56,1.5-1.38,2.81-2.47,3.94-1.08,1.13-2.41,2.04-3.97,2.73-1.57,.69-3.35,1.08-5.36,1.18l-.32,6.23c-.02,.25-.1,.47-.25,.65-.15,.18-.36,.27-.63,.27h-1.06l.35-7.15c-2.52-.12-4.71-.66-6.57-1.62s-3.5-2.24-4.92-3.81l.8-1.15c.24-.3,.51-.44,.83-.44,.18,0,.39,.11,.65,.33s.57,.49,.95,.81,.82,.68,1.33,1.06c.51,.38,1.11,.75,1.79,1.09,.68,.34,1.45,.65,2.32,.9,.87,.26,1.85,.41,2.95,.47l.97-18.82c-1.34-.41-2.65-.87-3.93-1.37-1.28-.5-2.42-1.15-3.41-1.95-1-.8-1.8-1.78-2.41-2.95-.61-1.17-.92-2.64-.92-4.42,0-1.38,.26-2.7,.78-3.97,.52-1.27,1.28-2.4,2.28-3.4s2.22-1.8,3.68-2.41c1.46-.61,3.13-.95,5.02-1l.24-4.93c0-.28,.08-.5,.24-.68,.16-.18,.36-.27,.62-.27h1.06l-.3,5.94c1.99,.14,3.73,.58,5.23,1.31,1.5,.74,2.87,1.73,4.11,2.97l-.65,1c-.2,.34-.46,.5-.8,.5-.24,0-.55-.16-.93-.49-.38-.33-.89-.69-1.51-1.09-.62-.4-1.38-.79-2.29-1.15-.91-.36-2-.6-3.28-.69l-.86,16.9Zm-1.03-16.9c-1.5,.08-2.8,.35-3.91,.81-1.11,.46-2.04,1.06-2.79,1.8-.75,.74-1.31,1.58-1.68,2.53s-.56,1.94-.56,2.98c0,1.22,.22,2.26,.65,3.13,.43,.87,1.02,1.61,1.77,2.23,.75,.62,1.61,1.15,2.58,1.6,.97,.44,2.01,.85,3.12,1.23l.83-16.31Zm0,37.87c1.58-.1,2.97-.42,4.2-.96,1.22-.54,2.25-1.25,3.1-2.13,.85-.88,1.49-1.89,1.92-3.04,.43-1.15,.65-2.39,.65-3.71s-.25-2.4-.74-3.31c-.49-.91-1.15-1.67-1.98-2.3s-1.78-1.16-2.85-1.58c-1.07-.42-2.2-.82-3.38-1.2l-.92,18.23Z"/>
        <path d="M181.05,160.36c0,3.66-.39,6.83-1.18,9.51-.79,2.68-1.86,4.89-3.22,6.65-1.36,1.75-2.95,3.06-4.77,3.91-1.82,.86-3.77,1.29-5.83,1.29s-4.01-.43-5.82-1.29c-1.81-.86-3.4-2.16-4.76-3.91-1.36-1.75-2.43-3.97-3.21-6.65-.78-2.68-1.17-5.85-1.17-9.51s.39-6.83,1.17-9.51c.78-2.68,1.85-4.89,3.21-6.65,1.36-1.75,2.94-3.06,4.76-3.91,1.81-.86,3.75-1.29,5.82-1.29s4.01,.43,5.83,1.29c1.82,.86,3.41,2.16,4.77,3.91,1.36,1.75,2.43,3.97,3.22,6.65,.79,2.68,1.18,5.85,1.18,9.51Zm-2.95,0c0-3.39-.32-6.28-.97-8.69-.65-2.4-1.52-4.37-2.61-5.89s-2.37-2.64-3.84-3.35c-1.47-.71-3.01-1.06-4.62-1.06s-3.15,.35-4.61,1.06-2.74,1.83-3.84,3.35c-1.1,1.53-1.98,3.49-2.63,5.89-.65,2.4-.97,5.3-.97,8.69s.33,6.31,.97,8.7c.65,2.39,1.53,4.35,2.63,5.88,1.1,1.53,2.38,2.64,3.84,3.34s2.99,1.05,4.61,1.05,3.16-.35,4.62-1.05c1.47-.7,2.75-1.81,3.84-3.34,1.09-1.53,1.96-3.49,2.61-5.88,.65-2.39,.97-5.29,.97-8.7Z"/>
        <path d="M187.38,179c0-.37,.07-.73,.21-1.06,.14-.33,.33-.62,.58-.87s.53-.44,.86-.59c.33-.15,.68-.22,1.08-.22,.37,0,.73,.07,1.06,.22,.33,.15,.62,.34,.87,.59,.25,.25,.44,.54,.59,.87,.15,.33,.22,.69,.22,1.06,0,.39-.07,.75-.22,1.08-.15,.33-.35,.61-.59,.86-.25,.25-.54,.44-.87,.58s-.69,.21-1.06,.21c-.77,0-1.41-.26-1.93-.78-.52-.52-.78-1.17-.78-1.93Z"/>
        <path d="M229.12,160.36c0,3.66-.39,6.83-1.18,9.51-.79,2.68-1.86,4.89-3.22,6.65-1.36,1.75-2.95,3.06-4.77,3.91-1.82,.86-3.77,1.29-5.83,1.29s-4.01-.43-5.82-1.29c-1.81-.86-3.4-2.16-4.76-3.91-1.36-1.75-2.43-3.97-3.21-6.65-.78-2.68-1.17-5.85-1.17-9.51s.39-6.83,1.17-9.51c.78-2.68,1.85-4.89,3.21-6.65,1.36-1.75,2.94-3.06,4.76-3.91,1.81-.86,3.75-1.29,5.82-1.29s4.01,.43,5.83,1.29c1.82,.86,3.41,2.16,4.77,3.91,1.36,1.75,2.43,3.97,3.22,6.65,.79,2.68,1.18,5.85,1.18,9.51Zm-2.95,0c0-3.39-.32-6.28-.97-8.69-.65-2.4-1.52-4.37-2.61-5.89s-2.37-2.64-3.84-3.35c-1.47-.71-3.01-1.06-4.62-1.06s-3.15,.35-4.61,1.06-2.74,1.83-3.84,3.35c-1.1,1.53-1.98,3.49-2.63,5.89-.65,2.4-.97,5.3-.97,8.69s.33,6.31,.97,8.7c.65,2.39,1.53,4.35,2.63,5.88,1.1,1.53,2.38,2.64,3.84,3.34s2.99,1.05,4.61,1.05,3.16-.35,4.62-1.05c1.47-.7,2.75-1.81,3.84-3.34,1.09-1.53,1.96-3.49,2.61-5.88,.65-2.39,.97-5.29,.97-8.7Z"/>
        <path d="M263.38,160.36c0,3.66-.39,6.83-1.18,9.51-.79,2.68-1.86,4.89-3.22,6.65-1.36,1.75-2.95,3.06-4.77,3.91s-3.77,1.29-5.83,1.29-4.01-.43-5.82-1.29c-1.81-.86-3.4-2.16-4.76-3.91-1.36-1.75-2.43-3.97-3.21-6.65-.78-2.68-1.17-5.85-1.17-9.51s.39-6.83,1.17-9.51c.78-2.68,1.85-4.89,3.21-6.65,1.36-1.75,2.94-3.06,4.76-3.91,1.81-.86,3.75-1.29,5.82-1.29s4.01,.43,5.83,1.29c1.82,.86,3.41,2.16,4.77,3.91,1.36,1.75,2.43,3.97,3.22,6.65,.79,2.68,1.18,5.85,1.18,9.51Zm-2.95,0c0-3.39-.33-6.28-.97-8.69-.65-2.4-1.52-4.37-2.61-5.89-1.09-1.53-2.37-2.64-3.84-3.35-1.47-.71-3.01-1.06-4.62-1.06s-3.15,.35-4.61,1.06c-1.46,.71-2.74,1.83-3.84,3.35-1.1,1.53-1.98,3.49-2.63,5.89-.65,2.4-.97,5.3-.97,8.69s.32,6.31,.97,8.7c.65,2.39,1.53,4.35,2.63,5.88,1.1,1.53,2.38,2.64,3.84,3.34,1.46,.7,2.99,1.05,4.61,1.05s3.16-.35,4.62-1.05c1.47-.7,2.75-1.81,3.84-3.34,1.09-1.53,1.96-3.49,2.61-5.88,.65-2.39,.97-5.29,.97-8.7Z"/>
      </g>
    </g>
  </g>
</svg>