<svg xmlns="http://www.w3.org/2000/svg" xmlns:xlink="http://www.w3.org/1999/xlink" width="50" height="50" viewBox="0 0 50 50"><defs><clipPath id="a"><rect width="50" height="50" transform="translate(1093 547)" fill="#fff"/></clipPath></defs><g transform="translate(-1093 -547)" clip-path="url(#a)"><g transform="translate(1093.996 550.726)"><g transform="translate(0.004 0.009)"><path d="M49.939,10.958l-3-3.128a.5.5,0,0,1,.259-.75,3.084,3.084,0,0,0,1.259-.74,3.042,3.042,0,0,0,.111-4.35,3.039,3.039,0,0,0-4.35-.083,3.138,3.138,0,0,0-.8,1.222.5.5,0,0,1-.759.231L39.685.232l-.13-.093a.5.5,0,0,0-.685.009L35.4,3.48a.458.458,0,0,1-.491-.333A3.148,3.148,0,0,0,32.327.972a1.245,1.245,0,0,0-.453,0c-2.943.518-3.7,3.582-2.119,5.238a2.9,2.9,0,0,0,1.175.75.471.471,0,0,1,.3.537l-3.489,3.35a.5.5,0,0,0-.028.7l3.156,3.285.056.046.019.019a.5.5,0,0,0,.833-.25,3.041,3.041,0,0,1,3.6-2.351,3.323,3.323,0,0,1,1.536.87,3.392,3.392,0,0,1,.805,1.573,2.975,2.975,0,0,1,.019.861,3.358,3.358,0,0,1-2.527,2.628.5.5,0,0,0-.287.824l.019.019.037.056,3.147,3.295a.489.489,0,0,0,.7,0l3.5-3.341a.474.474,0,0,1,.528.324,2.93,2.93,0,0,0,.694,1.2,3.162,3.162,0,0,0,5.331-1.879,1.248,1.248,0,0,0,.019-.453A3.128,3.128,0,0,0,46.839,15.6a.471.471,0,0,1-.315-.509L50,11.782a.493.493,0,0,0,.037-.685l-.093-.13Z" transform="translate(-2.059 -0.009)" fill="#30a4a1"/><path d="M27.815,27.18l-4.331-.019-.157.028a.479.479,0,0,0-.416.287.7.7,0,0,1,.046.241v4.961l-.278-.056a.461.461,0,0,1-.4,0l-.083-.037a2.567,2.567,0,0,0-.453.037h-.083a2.3,2.3,0,0,0-.472-.065,2.781,2.781,0,0,0-2.721,2.471,2.4,2.4,0,0,0-.028.37,3.355,3.355,0,0,0,.426,1.573,3.438,3.438,0,0,0,.2.352.954.954,0,0,0,.25.259,3.238,3.238,0,0,0,1.851.639,3.9,3.9,0,0,0,.463-.037h.083c.13.019.222.037.315.046a2.516,2.516,0,0,0,.231-.1.438.438,0,0,1,.463.037l.213-.046v5.035a.6.6,0,0,1-.037.185.49.49,0,0,0,.435.287h4.655a.507.507,0,0,0,.4-.787,3.362,3.362,0,0,1,.167-3.646,3.073,3.073,0,0,1,.629-.574,3.4,3.4,0,0,1,1.694-.509,3.325,3.325,0,0,1,1.694.518,3.141,3.141,0,0,1,.629.583,3.358,3.358,0,0,1,.148,3.646.5.5,0,0,0,.389.777h.1l4.553.028a.5.5,0,0,0,.49-.5l.019-4.84a.465.465,0,0,1,.592-.157,2.891,2.891,0,0,0,1.351.333c2.3,0,3.989-2.656,2.332-5.146a1.167,1.167,0,0,0-.315-.324,3.14,3.14,0,0,0-3.359-.37.468.468,0,0,1-.583-.13l.019-4.8a.491.491,0,0,0-.463-.5l-.157-.028H33.988a.5.5,0,0,1-.361-.713,3.293,3.293,0,0,0,.342-1.416,3.068,3.068,0,1,0-6.136-.019,3.159,3.159,0,0,0,.333,1.416.492.492,0,0,1-.361.7Z" transform="translate(-1.378 -1.645)" fill="#808285"/><path d="M.676,15.449A3.161,3.161,0,0,0,2.99,20.6a3,3,0,0,0,1.351-.324.462.462,0,0,1,.592.157v4.84a.539.539,0,0,0,.028.176.669.669,0,0,1,.4-.139h0a.894.894,0,0,1,.167-.028h4.3a.245.245,0,0,0,.194-.231l-.028-.1h0v-.037a3.174,3.174,0,0,1-.361-1.472h0v-.019h0a3.484,3.484,0,0,1,.148-.953,3.248,3.248,0,0,1,3.091-2.388h.148a3.24,3.24,0,0,1,3.091,2.388,3.417,3.417,0,0,1,.148.944h0a3.344,3.344,0,0,1-.352,1.5v.028h-.019l-.028.111a.258.258,0,0,0,.194.241h4.3a.917.917,0,0,1,.167.019h0a.622.622,0,0,1,.4.148l.028-.139.019-4.84a.465.465,0,0,1,.592-.157,2.891,2.891,0,0,0,1.351.333c2.3,0,3.989-2.656,2.332-5.146a1.167,1.167,0,0,0-.315-.324,3.14,3.14,0,0,0-3.359-.37.468.468,0,0,1-.583-.13l.019-4.8a.491.491,0,0,0-.463-.5l-.157-.028H16.057a.5.5,0,0,1-.361-.713,3.165,3.165,0,0,0,.342-1.416A3.068,3.068,0,1,0,9.9,7.222a3.159,3.159,0,0,0,.333,1.416.492.492,0,0,1-.361.7l-4.34-.019-.157.028a.5.5,0,0,0-.472.5v4.8a.468.468,0,0,1-.583.12,3.153,3.153,0,0,0-3.359.352,1.308,1.308,0,0,0-.315.324Z" transform="translate(-0.004 -0.317)" fill="#808285"/><path d="M5.187,37.784l.046.065v4.914a.257.257,0,0,0,.25.259h4.535L10.092,43h.046a.207.207,0,0,0,.157-.065.292.292,0,0,0,.065-.176l-.046-.148a3.423,3.423,0,0,1-.5-1.777,3.96,3.96,0,0,1,.657-2.129h0v-.028a3.447,3.447,0,0,1,.694-.629h.009A3.618,3.618,0,0,1,13,37.5h0a3.6,3.6,0,0,1,1.823.546h.009a3.463,3.463,0,0,1,.685.639h.009v.028a3.9,3.9,0,0,1,.666,2.129,3.423,3.423,0,0,1-.5,1.777l-.046.148a.292.292,0,0,0,.065.176.191.191,0,0,0,.157.065h.12l4.544.019a.249.249,0,0,0,.241-.259V38.321c-.093.009-.2.019-.315.019h0a2.781,2.781,0,0,1-.463-.065,2.81,2.81,0,0,1-.481.037,3.715,3.715,0,0,1-2.064-.676l-.074-.046A1.381,1.381,0,0,1,17,37.2a4.506,4.506,0,0,1-.555-1.175,2.392,2.392,0,0,1-.083-.37,3.266,3.266,0,0,1-.074-.666,3.374,3.374,0,0,1,1.12-2.517,3.148,3.148,0,0,1,2.119-.814h0a2.935,2.935,0,0,1,.528.065,4.373,4.373,0,0,1,.491-.037,2.092,2.092,0,0,1,.241.009V27.317a.237.237,0,0,0-.2-.25h-.056l-.037-.019-.074-.019H16.033a.746.746,0,0,1-.611-.666V26.3a.524.524,0,0,1,.065-.305h0v-.028H15.5a2.943,2.943,0,0,0,.305-1.3h0a3.054,3.054,0,0,0-.13-.814,2.749,2.749,0,0,0-2.619-2.027h-.139a2.643,2.643,0,0,0-1.564.518A2.8,2.8,0,0,0,10.3,23.856a3.99,3.99,0,0,0-.1.453,2.136,2.136,0,0,0-.028.342h0a2.874,2.874,0,0,0,.305,1.3h0v.037h0a.74.74,0,0,1,.074.305v.056a.766.766,0,0,1-.62.676H5.52l-.037.028H5.446a.248.248,0,0,0-.231.259v4.9l-.046.074a.716.716,0,0,1-.555.268.739.739,0,0,1-.333-.083,2.635,2.635,0,0,0-1.231-.305,3.2,3.2,0,0,0-1.869.648.835.835,0,0,0-.25.259A3.441,3.441,0,0,0,.3,35,2.8,2.8,0,0,0,3.039,37.84h0a2.635,2.635,0,0,0,1.231-.305.667.667,0,0,1,.315-.083.736.736,0,0,1,.592.315Z" transform="translate(-0.026 -1.634)" fill="#bcbec0"/></g></g></g></svg>