<?xml version="1.0" encoding="UTF-8"?><svg id="Layer_2" xmlns="http://www.w3.org/2000/svg" xmlns:xlink="http://www.w3.org/1999/xlink" viewBox="0 0 68.33 68.33"><defs><style>.cls-1{fill:#fff;}.cls-2{fill:#60489d;}.cls-3{fill:url(#linear-gradient);}</style><linearGradient id="linear-gradient" x1="7.11" y1="-18.17" x2="27.94" y2="24.3" gradientTransform="matrix(1, 0, 0, 1, 0, 0)" gradientUnits="userSpaceOnUse"><stop offset="0" stop-color="#fff"/><stop offset="1" stop-color="#fff" stop-opacity="0"/></linearGradient></defs><g id="Layer_1-2"><g><g><rect class="cls-2" x="1" y="1" width="66.33" height="66.33" rx="8.42" ry="8.42"/><path class="cls-3" d="M57.14,1H9.42C4.77,1,1,4.77,1,9.42V52.23C7.27,24.19,25.45,6.25,57.14,1Z"/><path class="cls-1" d="M58.91,1c4.65,0,8.42,3.77,8.42,8.42V58.91c0,4.65-3.77,8.42-8.42,8.42H9.42c-4.65,0-8.42-3.77-8.42-8.42V9.42C1,4.77,4.77,1,9.42,1H58.91m0-1H9.42C4.23,0,0,4.23,0,9.42V58.91c0,5.2,4.23,9.42,9.42,9.42H58.91c5.2,0,9.42-4.23,9.42-9.42V9.42c0-5.2-4.23-9.42-9.42-9.42h0Z"/></g><path class="cls-1" d="M41.71,45.32c-10.62,7.01-21.34,1.96-25.54-4.46-4.57-6.99-3.56-16.87,2.2-22.47,6.46-6.29,16.71-6.85,23.66-1.36,6.81,5.38,9.32,15.63,3.39,24.44,2.51,2.5,5.04,5.02,7.57,7.55,.45,.45,.93,.88,1.32,1.38,1.05,1.3,.93,2.87-.24,3.96-1.04,.96-2.56,.97-3.72-.13-2.17-2.06-4.29-4.17-6.39-6.31-.82-.83-1.54-1.77-2.25-2.6Zm-22.91-14.29c.06,6.74,5.58,12.24,12.21,12.15,6.67-.09,12.21-5.67,12.15-12.26-.06-6.73-5.53-12.14-12.25-12.11-6.75,.03-12.17,5.5-12.12,12.22Z"/></g></g></svg>