<svg xmlns="http://www.w3.org/2000/svg" xmlns:xlink="http://www.w3.org/1999/xlink" width="50" height="50" viewBox="0 0 50 50"><defs><clipPath id="a"><rect width="50" height="50" transform="translate(1154 400)" fill="#fff"/></clipPath></defs><g transform="translate(-1154 -400)" clip-path="url(#a)"><g transform="translate(1164 401)"><path d="M2.875,48.05H27.67a2.874,2.874,0,0,0,2.875-2.875V2.875A2.874,2.874,0,0,0,27.67,0H2.875A2.874,2.874,0,0,0,0,2.875V45.166a2.874,2.874,0,0,0,2.875,2.875Zm12.393-2.8a1.766,1.766,0,1,1,1.766-1.766A1.765,1.765,0,0,1,15.268,45.25ZM4.515,3.968H26.03V39.7H4.515Z" fill="#808285"/><path d="M26.885,4.72H5.37V40.453H26.885ZM7.4,6.965H24.842V19.812H7.4ZM24.842,20.947v1.6H20.68v-1.6h4.162Zm-17.446,0h4.162v1.6H7.4Zm8.038,10.535H7.4V23.923h8.038Zm.546-8.929H11.819v-1.6h4.162Zm.261-1.6h4.17v1.6h-4.17Zm.277,8.778h4.338v1.085H16.519Zm8.332,5.65H16.519V34.3h8.332Zm0-1.867H16.519V32.432h8.332Zm0-4.565H16.519V27.866h8.332Zm0-1.867H16.519V26h8.332v1.085Zm0-1.867H16.519V24.133h8.332Z" transform="translate(-0.855 -0.752)" fill="#fff"/><path d="M17.826,49.63A1.766,1.766,0,1,0,19.591,51.4,1.765,1.765,0,0,0,17.826,49.63Z" transform="translate(-2.557 -7.903)" fill="#c8c8c8"/><rect width="17.446" height="12.847" transform="translate(6.541 6.213)" fill="#30a4a1"/><rect width="4.162" height="1.597" transform="translate(6.541 20.195)" fill="#bcbec0"/><rect width="8.038" height="7.559" transform="translate(6.541 23.163)" fill="#bcbec0"/><rect width="4.162" height="1.597" transform="translate(10.972 20.195)" fill="#bcbec0"/><rect width="4.17" height="1.597" transform="translate(15.394 20.195)" fill="#bcbec0"/><rect width="8.332" height="1.085" transform="translate(15.672 23.357)" fill="#30a4a1"/><rect width="8.332" height="1.085" transform="translate(15.672 25.231)" fill="#30a4a1"/><rect width="8.332" height="1.085" transform="translate(15.672 27.098)" fill="#30a4a1"/><rect width="4.338" height="1.085" transform="translate(15.672 28.965)" fill="#30a4a1"/><rect width="8.332" height="1.085" transform="translate(15.672 31.663)" fill="#30a4a1"/><rect width="8.332" height="1.085" transform="translate(15.672 33.53)" fill="#30a4a1"/><rect width="4.162" height="1.597" transform="translate(19.825 20.195)" fill="#bcbec0"/></g></g></svg>