<?xml version="1.0" encoding="UTF-8"?><svg id="Layer_2" xmlns="http://www.w3.org/2000/svg" viewBox="0 0 51.83 51.83"><defs><style>.cls-1{fill:#fff;fill-rule:evenodd;}.cls-2{fill:#808285;}.cls-3{fill:none;stroke:#808285;stroke-miterlimit:10;}</style></defs><g id="Layer_1-2"><g><path class="cls-3" d="M25.91,51.33C11.9,51.33,.5,39.93,.5,25.91S11.9,.5,25.91,.5s25.41,11.4,25.41,25.41-11.4,25.41-25.41,25.41Z"/><g><path class="cls-2" d="M40.52,16.64c-.94,.43-1.98,.68-2.99,.85,.48-.08,1.19-.95,1.48-1.31,.43-.54,.79-1.15,1-1.81,.03-.05,.05-.12,0-.16-.06-.03-.11-.01-.16,.01-1.13,.61-2.31,1.05-3.55,1.36-.1,.03-.18,0-.25-.06-.1-.12-.2-.23-.31-.32-.52-.45-1.09-.8-1.72-1.06-.83-.34-1.74-.48-2.64-.43-.87,.06-1.73,.3-2.51,.71-.78,.41-1.47,.97-2.02,1.65-.57,.7-.99,1.54-1.21,2.42-.21,.85-.19,1.69-.06,2.55,.02,.14,0,.16-.12,.14-4.88-.73-8.93-2.47-12.21-6.22-.14-.16-.22-.16-.34,.01-1.44,2.15-.74,5.62,1.06,7.32,.24,.23,.49,.45,.75,.66-.1,.02-1.29-.11-2.36-.66-.14-.09-.21-.04-.23,.12-.01,.23,0,.45,.04,.7,.28,2.18,1.79,4.2,3.86,4.99,.25,.1,.52,.19,.78,.24-.47,.1-.96,.18-2.31,.07-.17-.03-.23,.05-.17,.21,1.02,2.77,3.21,3.6,4.86,4.07,.22,.04,.44,.04,.66,.09-.01,.02-.03,.02-.04,.04-.55,.83-2.44,1.45-3.32,1.76-1.6,.56-3.34,.81-5.04,.64-.27-.04-.33-.04-.4,0-.07,.05,0,.11,.08,.18,.34,.23,.69,.43,1.05,.62,1.07,.57,2.2,1.02,3.37,1.35,6.05,1.67,12.87,.44,17.41-4.07,3.57-3.55,4.82-8.43,4.82-13.33,0-.19,.23-.3,.36-.4,.93-.7,1.67-1.53,2.36-2.46,.16-.21,.15-.4,.15-.47v-.03c0-.08,0-.05-.11,0Z"/><path class="cls-1" d="M19.81,38.01s-.49,0,0,0c0,0-.08,0,0,0Z"/><path class="cls-1" d="M20.8,38.04s.52,0,0,0c0-.03,.06,0,0,0Z"/><path class="cls-1" d="M31.28,13.75s-.08,.03-.12,0h.12Z"/></g></g></g></svg>