<?xml version="1.0" encoding="UTF-8"?><svg id="Layer_2" xmlns="http://www.w3.org/2000/svg" viewBox="0 0 782.88 440.37"><defs><style>.cls-1,.cls-2{fill:#fff;}.cls-3{fill:#ff1017;}.cls-4{fill:#212121;}.cls-2{opacity:.2;}.cls-5{fill:#b3b3b3;}</style></defs><g id="Layer_1-2"><g><rect class="cls-4" width="782.88" height="440.37"/><g><circle class="cls-2" cx="391.44" cy="203.59" r="58.85" transform="translate(-29.31 336.42) rotate(-45)"/><path class="cls-1" d="M422.46,203.59l-48.93-32.15c.06,48.46,0,24.68,0,64.29l48.93-32.15Z"/></g><g><rect class="cls-1" y="381.7" width="782.88" height="58.67"/><path d="M34.61,407.73l5.41,3.56-5.42,3.56c0-.95,0-1.55,0-2.06,0-1.12,0-1.89,0-5.05m-2.38-4.4c.02,12,0,6.11,0,15.92l12.11-7.96-12.11-7.96h0Z"/><g><path d="M134.51,407.73l5.41,3.56-5.42,3.56c0-.95,0-1.55,0-2.06,0-1.12,0-1.89,0-5.05m-2.38-4.4c.02,12,0,6.11,0,15.92l12.11-7.96-12.11-7.96h0Z"/><rect x="144.03" y="403.33" width="2.27" height="15.92"/></g><g><path d="M93.62,407.73c0,.94,0,1.54,0,2.06,0,1.13,0,1.89,0,5.06l-5.42-3.56,5.42-3.56m2.37-4.4l-12.11,7.96,12.11,7.96c-.02-12,0-6.11,0-15.92h0Z"/><rect x="81.82" y="403.33" width="2.27" height="15.92" transform="translate(165.91 822.58) rotate(180)"/></g><g><path d="M678.16,408v1.79c0,1.09,0,1.84,0,4.78l-1.85-1.35-2.67-1.93,2.67-1.94,1.86-1.35m2.38-4.67l-5.63,4.11v-.02h-4.05v7.75h4.05v-.02l5.63,4.11c-.01-12,0-6.11,0-15.92h0Z"/><g><path d="M685.48,419.06c-.37,0-.72-.22-.87-.58-.2-.48,.02-1.04,.51-1.24,.77-.32,1.46-.79,2.05-1.38,.59-.59,1.06-1.28,1.38-2.05,.34-.79,.51-1.64,.51-2.51s-.17-1.72-.51-2.51c-.33-.77-.79-1.46-1.38-2.05-.59-.59-1.28-1.06-2.05-1.38-.48-.2-.71-.76-.5-1.24,.2-.48,.76-.71,1.24-.5,1,.42,1.89,1.02,2.65,1.79,.76,.76,1.37,1.66,1.79,2.65,.44,1.03,.66,2.12,.66,3.25s-.22,2.22-.66,3.25c-.42,1-1.03,1.89-1.79,2.65s-1.66,1.37-2.65,1.79c-.12,.05-.25,.07-.37,.07Z"/><path d="M683.7,415.24c-.35,0-.68-.2-.82-.54-.19-.45,.02-.97,.47-1.17,.29-.12,.55-.3,.77-.52,.22-.22,.4-.49,.52-.78,.13-.3,.19-.62,.19-.95s-.06-.65-.19-.95c-.12-.29-.3-.55-.52-.77-.23-.23-.49-.4-.78-.52-.45-.19-.66-.71-.47-1.17,.19-.46,.72-.67,1.17-.47,.5,.21,.95,.52,1.34,.9,.39,.38,.69,.84,.9,1.34,.22,.52,.33,1.07,.33,1.64s-.11,1.12-.33,1.64c-.21,.5-.52,.95-.9,1.34-.39,.39-.84,.69-1.34,.9-.11,.05-.23,.07-.35,.07Z"/></g></g><path d="M741,409.66c.84-.17,1.65-.27,2.55-.35v3.95c-.9-.08-1.71-.18-2.55-.35l-1.24,3.01c.71,.48,1.36,.98,2.05,1.56l-2.79,2.79c-.58-.69-1.08-1.33-1.56-2.05l-3.01,1.24c.17,.84,.27,1.65,.35,2.55h-3.95c.08-.9,.18-1.71,.35-2.55l-3.01-1.24c-.48,.71-.98,1.36-1.56,2.05l-2.79-2.79c.69-.58,1.33-1.08,2.05-1.56l-1.24-3.01c-.84,.17-1.65,.27-2.55,.35v-3.95c.9,.08,1.71,.18,2.55,.35l1.24-3.01c-.71-.48-1.36-.98-2.05-1.56l2.79-2.79c.58,.69,1.08,1.33,1.56,2.05l3.01-1.24c-.17-.84-.27-1.65-.35-2.55h3.95c-.08,.9-.18,1.71-.35,2.55l3.01,1.24c.48-.71,.98-1.36,1.56-2.05l2.79,2.79c-.69,.58-1.33,1.08-2.05,1.56l1.24,3.01Zm-8.18-3.14c-2.63,0-4.77,2.13-4.77,4.77s2.13,4.77,4.77,4.77,4.77-2.13,4.77-4.77-2.13-4.77-4.77-4.77Z"/><rect class="cls-5" x="167.06" y="410.89" width="469.29" height="1.61"/><rect class="cls-3" x="167.06" y="410.89" width="151.93" height="1.61"/><path class="cls-3" d="M323.35,411.68c0,1.77-1.44,3.21-3.21,3.21s-3.21-1.44-3.21-3.21,1.44-3.21,3.21-3.21,3.21,1.44,3.21,3.21Z"/></g></g></g></svg>