<svg id="Layer_1" data-name="Layer 1" xmlns="http://www.w3.org/2000/svg" viewBox="0 0 124 124"><defs><style>.cls-1{fill:#101828;}.cls-2{fill:#079b7e;}</style></defs><path class="cls-1" d="M116.14,117.52H7.86A6.08,6.08,0,0,1,2,111.27V36.43a3.64,3.64,0,0,1,3.52-3.75h113A3.64,3.64,0,0,1,122,36.43v74.84A6.08,6.08,0,0,1,116.14,117.52ZM9,110H115V40.18H9Z"/><path class="cls-2" d="M78.65,102.2H45.35c-5.81,0-10.55-5-10.55-11.25V58.74c0-6.2,4.74-11.25,10.55-11.25h33.3c5.81,0,10.55,5,10.55,11.25V91C89.2,97.16,84.46,102.2,78.65,102.2ZM45.35,55a3.64,3.64,0,0,0-3.51,3.75V91a3.64,3.64,0,0,0,3.51,3.75h33.3A3.64,3.64,0,0,0,82.16,91V58.74A3.64,3.64,0,0,0,78.65,55Z"/><path class="cls-2" d="M62,87.66a3.64,3.64,0,0,1-3.52-3.75V68.41a3.53,3.53,0,1,1,7,0v15.5A3.64,3.64,0,0,1,62,87.66Z"/><path class="cls-2" d="M69.39,79.91H54.61a3.76,3.76,0,0,1,0-7.5H69.39a3.76,3.76,0,0,1,0,7.5Z"/><path class="cls-1" d="M118.48,40.05H5.52A3.64,3.64,0,0,1,2,36.3v-18A6.07,6.07,0,0,1,7.86,12H116.14A6.07,6.07,0,0,1,122,18.28v18A3.64,3.64,0,0,1,118.48,40.05ZM9,32.55H115v-13H9Z"/><path class="cls-1" d="M25.12,25.07a3.64,3.64,0,0,1-3.52-3.75V10.23a3.52,3.52,0,1,1,7,0V21.32A3.64,3.64,0,0,1,25.12,25.07Z"/><path class="cls-1" d="M42.67,25.07a3.64,3.64,0,0,1-3.51-3.75V10.23a3.52,3.52,0,1,1,7,0V21.32A3.64,3.64,0,0,1,42.67,25.07Z"/><path class="cls-1" d="M81.33,25.07a3.64,3.64,0,0,1-3.52-3.75V10.23a3.52,3.52,0,1,1,7,0V21.32A3.64,3.64,0,0,1,81.33,25.07Z"/><path class="cls-1" d="M98.88,25.07a3.64,3.64,0,0,1-3.51-3.75V10.23a3.52,3.52,0,1,1,7,0V21.32A3.64,3.64,0,0,1,98.88,25.07Z"/></svg>