<?xml version="1.0" encoding="UTF-8"?><svg id="a" xmlns="http://www.w3.org/2000/svg" viewBox="0 0 306 225"><defs><style>.c{fill:#fecd07;}.c,.d{stroke:#313131;stroke-linejoin:round;stroke-width:.7px;}.d{fill:#079b7e;}.e{fill:#fff;}.f{fill:#313131;}</style></defs><g id="b"><rect class="e" x="207.7" y="53.5" width="88.3" height="160.9" rx="10" ry="10" transform="translate(503.8 267.9) rotate(180)"/><path class="f" d="M217.7,214.7c-5.7,0-10.3-4.6-10.3-10.3V63.4c0-5.7,4.6-10.3,10.3-10.3h68.4c5.7,0,10.3,4.6,10.3,10.3v141c0,5.7-4.6,10.3-10.3,10.3h-68.4ZM217.7,53.8c-5.3,0-9.6,4.3-9.6,9.6v141c0,5.3,4.3,9.6,9.6,9.6h68.4c5.3,0,9.6-4.3,9.6-9.6V63.4c0-5.3-4.3-9.6-9.6-9.6h-68.4Z"/><path class="f" d="M286.1,214.6h-68.4c-5.6,0-10.2-4.6-10.2-10.2V63.4c0-5.6,4.6-10.2,10.2-10.2h68.4c5.6,0,10.2,4.6,10.2,10.2v141c0,5.6-4.6,10.2-10.2,10.2ZM217.7,53.7c-5.4,0-9.7,4.4-9.7,9.7v141c0,5.4,4.4,9.7,9.7,9.7h68.4c5.4,0,9.7-4.4,9.7-9.7V63.4c0-5.4-4.4-9.7-9.7-9.7h-68.4Z"/><rect class="e" x="212" y="58.1" width="79.7" height="151.1" rx="7.5" ry="7.5" transform="translate(503.8 267.4) rotate(180)"/><path class="f" d="M219.6,209.6c-4.3,0-7.9-3.5-7.9-7.9V65.7c0-4.3,3.5-7.9,7.9-7.9h64.6c4.3,0,7.9,3.5,7.9,7.9v136.1c0,4.3-3.5,7.9-7.9,7.9h-64.6ZM219.6,58.5c-4,0-7.2,3.2-7.2,7.2v136.1c0,4,3.2,7.2,7.2,7.2h64.6c4,0,7.2-3.2,7.2-7.2V65.7c0-4-3.2-7.2-7.2-7.2h-64.6Z"/><path class="f" d="M284.2,209.5h-64.6c-4.3,0-7.8-3.5-7.8-7.8V65.7c0-4.3,3.5-7.8,7.8-7.8h64.6c4.3,0,7.8,3.5,7.8,7.8v136.1c0,4.3-3.5,7.8-7.8,7.8ZM219.6,58.4c-4,0-7.3,3.3-7.3,7.3v136.1c0,4,3.3,7.3,7.3,7.3h64.6c4,0,7.3-3.3,7.3-7.3V65.7c0-4-3.3-7.3-7.3-7.3h-64.6Z"/><path class="f" d="M242.6,63c-.2,0-.3-.1-.3-.3s.1-.3.3-.3h17.6c.2,0,.3.1.3.3s-.1.3-.3.3h-17.6Z"/><path class="f" d="M260.2,62.9h-17.6c-.1,0-.2-.1-.2-.2s.1-.2.2-.2h17.6c.1,0,.2.1.2.2s-.1.2-.2.2Z"/><polygon class="e" points="233.3 103.4 225.4 103.4 225.4 105.8 226.7 105.8 226.7 133.6 232 133.6 232 105.8 233.3 105.8 233.3 103.4"/><path class="f" d="M226.7,133.9c-.2,0-.3-.1-.3-.3v-27.5h-1c-.2,0-.3-.1-.3-.3v-2.3c0-.2.1-.3.3-.3h8c.2,0,.3.1.3.3v2.3c0,.2-.1.3-.3.3h-1v27.5c0,.2-.1.3-.3.3h-5.3ZM231.7,133.3v-27.5c0-.2.1-.3.3-.3h1v-1.7h-7.3v1.7h1c.2,0,.3.1.3.3v27.5h4.6Z"/><path class="f" d="M232,133.8h-5.3c-.1,0-.2-.1-.2-.2v-27.6h-1.1c-.1,0-.2-.1-.2-.2v-2.3c0-.1.1-.2.2-.2h8c.1,0,.2.1.2.2v2.3c0,.1-.1.2-.2.2h-1.1v27.6c0,.1-.1.2-.2.2ZM226.9,133.3h4.8v-27.6c0-.1.1-.2.2-.2h1.1v-1.8h-7.5v1.8h1.1c.1,0,.2.1.2.2v27.6Z"/><polygon class="e" points="235.7 138 235.7 134.6 233.8 134.6 233.8 132.7 224.8 132.7 224.8 134.6 223 134.6 223 138 235.7 138"/><path class="f" d="M235.7,138.3c-.2,0-.3-.1-.3-.3v-3.1h-1.6c-.2,0-.3-.1-.3-.3v-1.5h-8.3v1.5c0,.2-.1.3-.3.3h-1.6v3.1c0,.2-.1.3-.3.3s-.3-.1-.3-.3v-3.5c0-.2.1-.3.3-.3h1.6v-1.5c0-.2.1-.3.3-.3h9c.2,0,.3.1.3.3v1.5h1.6c.2,0,.3.1.3.3v3.5c0,.2-.1.3-.3.3Z"/><path class="f" d="M235.7,138.3c-.1,0-.2-.1-.2-.2v-3.2h-1.6c-.1,0-.2-.1-.2-.2v-1.6h-8.5v1.6c0,.1-.1.2-.2.2h-1.6v3.2c0,.1-.1.2-.2.2s-.2-.1-.2-.2v-3.5c0-.1.1-.2.2-.2h1.6v-1.6c0-.1.1-.2.2-.2h9c.1,0,.2.1.2.2v1.6h1.6c.1,0,.2.1.2.2v3.5c0,.1-.1.2-.2.2Z"/><polygon class="e" points="255.4 103.4 247.4 103.4 247.4 105.8 248.7 105.8 248.7 133.6 254 133.6 254 105.8 255.4 105.8 255.4 103.4"/><path class="f" d="M248.7,133.9c-.2,0-.3-.1-.3-.3v-27.5h-1c-.2,0-.3-.1-.3-.3v-2.3c0-.2.1-.3.3-.3h8c.2,0,.3.1.3.3v2.3c0,.2-.1.3-.3.3h-1v27.5c0,.2-.1.3-.3.3h-5.3ZM253.7,133.3v-27.5c0-.2.1-.3.3-.3h1v-1.7h-7.3v1.7h1c.2,0,.3.1.3.3v27.5h4.6Z"/><path class="f" d="M254,133.8h-5.3c-.1,0-.2-.1-.2-.2v-27.6h-1.1c-.1,0-.2-.1-.2-.2v-2.3c0-.1.1-.2.2-.2h8c.1,0,.2.1.2.2v2.3c0,.1-.1.2-.2.2h-1.1v27.6c0,.1-.1.2-.2.2ZM249,133.3h4.8v-27.6c0-.1.1-.2.2-.2h1.1v-1.8h-7.5v1.8h1.1c.1,0,.2.1.2.2v27.6Z"/><polygon class="e" points="257.7 138 257.7 134.6 255.9 134.6 255.9 132.7 246.9 132.7 246.9 134.6 245 134.6 245 138 257.7 138"/><path class="f" d="M257.7,138.3c-.2,0-.3-.1-.3-.3v-3.1h-1.6c-.2,0-.3-.1-.3-.3v-1.5h-8.3v1.5c0,.2-.1.3-.3.3h-1.6v3.1c0,.2-.1.3-.3.3s-.3-.1-.3-.3v-3.5c0-.2.1-.3.3-.3h1.6v-1.5c0-.2.1-.3.3-.3h9c.2,0,.3.1.3.3v1.5h1.6c.2,0,.3.1.3.3v3.5c0,.2-.1.3-.3.3Z"/><path class="f" d="M257.7,138.3c-.1,0-.2-.1-.2-.2v-3.2h-1.6c-.1,0-.2-.1-.2-.2v-1.6h-8.5v1.6c0,.1-.1.2-.2.2h-1.6v3.2c0,.1-.1.2-.2.2s-.2-.1-.2-.2v-3.5c0-.1.1-.2.2-.2h1.6v-1.6c0-.1.1-.2.2-.2h9c.1,0,.2.1.2.2v1.6h1.6c.1,0,.2.1.2.2v3.5c0,.1-.1.2-.2.2Z"/><polygon class="e" points="277.4 103.4 269.4 103.4 269.4 105.8 270.8 105.8 270.8 133.3 276.1 133.3 276.1 105.8 277.4 105.8 277.4 103.4"/><path class="f" d="M270.8,133.6c-.2,0-.3-.1-.3-.3v-27.2h-1c-.2,0-.3-.1-.3-.3v-2.3c0-.2.1-.3.3-.3h8c.2,0,.3.1.3.3v2.3c0,.2-.1.3-.3.3h-1v27.2c0,.2-.1.3-.3.3h-5.3ZM275.7,133v-27.2c0-.2.1-.3.3-.3h1v-1.7h-7.3v1.7h1c.2,0,.3.1.3.3v27.2h4.6Z"/><path class="f" d="M276.1,133.6h-5.3c-.1,0-.2-.1-.2-.2v-27.3h-1.1c-.1,0-.2-.1-.2-.2v-2.3c0-.1.1-.2.2-.2h8c.1,0,.2.1.2.2v2.3c0,.1-.1.2-.2.2h-1.1v27.3c0,.1-.1.2-.2.2ZM271,133.1h4.8v-27.3c0-.1.1-.2.2-.2h1.1v-1.8h-7.5v1.8h1.1c.1,0,.2.1.2.2v27.3Z"/><polygon class="e" points="279.8 138 279.8 134.6 277.9 134.6 277.9 132.7 268.9 132.7 268.9 134.6 267 134.6 267 138 279.8 138"/><path class="f" d="M279.8,138.3c-.2,0-.3-.1-.3-.3v-3.1h-1.6c-.2,0-.3-.1-.3-.3v-1.5h-8.3v1.5c0,.2-.1.3-.3.3h-1.6v3.1c0,.2-.1.3-.3.3s-.3-.1-.3-.3v-3.5c0-.2.1-.3.3-.3h1.6v-1.5c0-.2.1-.3.3-.3h9c.2,0,.3.1.3.3v1.5h1.6c.2,0,.3.1.3.3v3.5c0,.2-.1.3-.3.3Z"/><path class="f" d="M279.8,138.3c-.1,0-.2-.1-.2-.2v-3.2h-1.6c-.1,0-.2-.1-.2-.2v-1.6h-8.5v1.6c0,.1-.1.2-.2.2h-1.6v3.2c0,.1-.1.2-.2.2s-.2-.1-.2-.2v-3.5c0-.1.1-.2.2-.2h1.6v-1.6c0-.1.1-.2.2-.2h9c.1,0,.2.1.2.2v1.6h1.6c.1,0,.2.1.2.2v3.5c0,.1-.1.2-.2.2Z"/><path class="f" d="M220.1,101.3c-.2,0-.3-.1-.3-.3s.1-.3.3-.3h62.6c.2,0,.3.1.3.3s-.1.3-.3.3h-62.6Z"/><path class="f" d="M282.7,101.2h-62.6c-.1,0-.2-.1-.2-.2s.1-.2.2-.2h62.6c.1,0,.2.1.2.2s-.1.2-.2.2Z"/><rect class="e" x="220.1" y="138" width="62.6" height="3.3"/><path class="f" d="M282.7,141.6c-.2,0-.3-.1-.3-.3v-2.9h-62v2.9c0,.2-.1.3-.3.3s-.3-.1-.3-.3v-3.3c0-.2.1-.3.3-.3h62.6c.2,0,.3.1.3.3v3.3c0,.2-.1.3-.3.3Z"/><path class="f" d="M282.7,141.5c-.1,0-.2-.1-.2-.2v-3h-62.2v3c0,.1-.1.2-.2.2s-.2-.1-.2-.2v-3.3c0-.1.1-.2.2-.2h62.6c.1,0,.2.1.2.2v3.3c0,.1-.1.2-.2.2Z"/><polygon class="e" points="273.9 141.3 286.1 141.3 286.1 144.6 216.7 144.6 216.7 141.3 230.4 141.3 273.9 141.3"/><path class="f" d="M216.7,144.9c-.2,0-.3-.1-.3-.3v-3.3c0-.2.1-.3.3-.3h13.7c.2,0,.3.1.3.3s-.1.3-.3.3h-13.4v2.6h68.8v-2.6h-11.9c-.2,0-.3-.1-.3-.3s.1-.3.3-.3h12.2c.2,0,.3.1.3.3v3.3c0,.2-.1.3-.3.3h-69.4Z"/><path class="f" d="M286.1,144.8h-69.4c-.1,0-.2-.1-.2-.2v-3.3c0-.1.1-.2.2-.2h13.7c.1,0,.2.1.2.2s-.1.2-.2.2h-13.5v2.8h68.9v-2.8h-12c-.1,0-.2-.1-.2-.2s.1-.2.2-.2h12.2c.1,0,.2.1.2.2v3.3c0,.1-.1.2-.2.2Z"/><polygon class="e" points="251.4 86.8 220.1 97.8 282.7 97.8 251.4 86.8"/><path class="f" d="M220.1,98.1c-.2,0-.3-.1-.3-.3,0-.2,0-.3.2-.4l31.3-11h0s0,0,.1,0l31.3,11c.2,0,.2.2.2.4,0,.2-.2.3-.3.3h-62.6ZM280.8,97.4l-29.4-10.3-29.4,10.3h58.8Z"/><path class="f" d="M282.7,98h-62.6c-.1,0-.2,0-.2-.2s0-.2.2-.3l31.3-11c0,0,.1,0,.2,0l31.3,11c.1,0,.2.2.2.3,0,.1-.1.2-.2.2ZM221.5,97.5h59.8l-29.9-10.5-29.9,10.5Z"/><circle class="d" cx="251.4" cy="188.8" r="13.7" transform="translate(-12.8 18.3) rotate(-4.1)"/><path class="e" d="M250.7,197.3v-2.1c-1.2,0-2.5-.4-3.2-.9l.5-1.4c.7.5,1.8.9,3,.9s2.5-.9,2.5-2-.8-1.9-2.3-2.5c-2.1-.8-3.4-1.8-3.4-3.6s1.2-3,3.1-3.3v-2.1h1.3v2c1.2,0,2.1.4,2.7.7l-.5,1.4c-.4-.2-1.3-.7-2.6-.7s-2.2,1-2.2,1.8.8,1.6,2.6,2.4c2.1.9,3.2,2,3.2,3.8s-1.1,3.2-3.3,3.5v2.2h-1.3Z"/><path class="f" d="M237.6,177c0,0-.2,0-.2,0-.1-.1-.1-.3,0-.5l13.7-13.7c0,0,.1,0,.2,0s.2,0,.2,0l13.7,13.7c.1.1.1.3,0,.5,0,0-.1,0-.2,0s-.2,0-.2,0l-13.5-13.5-13.5,13.5c0,0-.1,0-.2,0Z"/><path class="f" d="M237.6,176.9c0,0-.1,0-.2,0,0,0,0-.2,0-.3l13.7-13.7c0,0,.2,0,.3,0l13.7,13.7c0,0,0,.2,0,.3,0,0-.2,0-.3,0l-13.6-13.6-13.6,13.6s-.1,0-.2,0Z"/><rect class="d" x="101.6" y="16.4" width="97.5" height="63.1" rx="8.5" ry="8.5"/><path class="e" d="M189.6,36.6h-11.7c-2,0-3.6,1.8-3.6,3.9v6.2c0,2.2,1.6,3.9,3.6,3.9h11.7c2,0,3.6-1.8,3.6-3.9v-6.2c0-2.2-1.6-3.9-3.6-3.9Z"/><rect class="e" x="107.5" y="57.3" width="19" height="6.2"/><rect class="e" x="129.7" y="57.3" width="19" height="6.2"/><rect class="e" x="152" y="57.3" width="19" height="6.2"/><rect class="e" x="174.2" y="57.3" width="19" height="6.2"/><path class="f" d="M107.5,71.1c-.2,0-.3-.1-.3-.3s.1-.3.3-.3h41.2c.2,0,.3.1.3.3s-.1.3-.3.3h-41.2Z"/><path class="f" d="M148.7,71h-41.2c-.1,0-.2-.1-.2-.2s.1-.2.2-.2h41.2c.1,0,.2.1.2.2s-.1.2-.2.2Z"/><circle class="c" cx="197.6" cy="18" r="9.9"/><path class="e" d="M197,22.1c0,0-.2,0-.2,0l-3.4-3.2c-.1-.1-.2-.4,0-.5.1-.1.4-.2.5,0l3.1,2.9,5-6.5c.1-.2.3-.2.5,0,.2.1.2.3,0,.5l-5.3,6.8c0,0-.2.1-.3.1,0,0,0,0,0,0Z"/><polygon class="e" points="139.9 117.2 9.2 117.2 20.3 151.3 150.9 151.3 139.9 117.2"/><path class="f" d="M20.3,151.6c-.2,0-.3,0-.3-.2l-11.1-34.1c0-.1,0-.2,0-.3,0,0,.2-.1.3-.1h130.7c.2,0,.3,0,.3.2l11.1,34.1c0,.1,0,.2,0,.3,0,0-.2.1-.3.1H20.3ZM20.5,151h129.9c0,0-10.9-33.5-10.9-33.5H9.7c0,0,10.9,33.5,10.9,33.5Z"/><path class="f" d="M150.9,151.5H20.3c-.1,0-.2,0-.3-.2l-11.1-34.1c0,0,0-.2,0-.2s.1-.1.2-.1h130.7c.1,0,.2,0,.3.2l11.1,34.1c0,0,0,.2,0,.2,0,0-.1.1-.2.1ZM20.5,151h130.1l-10.9-33.5H9.6l10.9,33.5Z"/><path class="f" d="M69.9,190.9c-.1,0-.3,0-.3-.2l-11-26.3h-27c0,0-11.3,26.3-11.3,26.3,0,.1-.2.2-.3.2s0,0-.1,0c-.2,0-.3-.3-.2-.5l11.5-26.5c0-.1.2-.2.3-.2h27.4c.1,0,.3,0,.3.2l11.1,26.5c0,0,0,.2,0,.3s-.1.2-.2.2c0,0,0,0-.1,0Z"/><path class="f" d="M69.9,190.8c-.1,0-.2,0-.2-.2l-11-26.3h-27.1l-11.4,26.3c0,.1-.2.2-.4.1-.1,0-.2-.2-.1-.4l11.5-26.5c0,0,.1-.2.2-.2h27.4c.1,0,.2,0,.2.2l11.1,26.5c0,.1,0,.3-.1.4,0,0,0,0-.1,0Z"/><path class="e" d="M20.3,151.3h130.7s35.2-1.2,38.5,12.8H58.8l-38.5-12.8Z"/><path class="f" d="M58.8,164.4h0s-38.6-12.8-38.6-12.8c-.2,0-.3-.2-.2-.4,0-.2.2-.3.4-.3h130.7s.7,0,1.9,0c3.2,0,9.6.2,16.2,1.2,12.4,2,19.4,6,20.8,11.9,0,.1,0,.2,0,.3s-.2.1-.3.1H58.8ZM58.9,163.7h130.1c-3.3-11.2-28.6-12.1-36.3-12.1s-1.7,0-1.8,0H22.5l36.4,12.1Z"/><path class="f" d="M189.5,164.3H58.8s0,0,0,0l-38.5-12.8c-.1,0-.2-.2-.2-.3,0-.1.1-.2.3-.2h130.7c0,0,8.9-.3,18.1,1.2,12.4,1.9,19.3,5.9,20.8,11.8,0,0,0,.2,0,.2,0,0-.1.1-.2.1ZM58.9,163.8h130.3c-3.7-13.2-37.8-12.3-38.2-12.2H21.9s36.9,12.2,36.9,12.2Z"/><path class="f" d="M176.4,190.9c-.1,0-.3,0-.3-.2l-11-26.3h-27c0,0-11.3,26.3-11.3,26.3,0,.1-.2.2-.3.2s0,0-.1,0c-.2,0-.3-.3-.2-.5l11.5-26.5c0-.1.2-.2.3-.2h27.4c.1,0,.3,0,.3.2l11.1,26.5c0,.2,0,.4-.2.5,0,0,0,0-.1,0Z"/><path class="f" d="M176.4,190.8c-.1,0-.2,0-.2-.2l-11-26.3h-27.1l-11.4,26.3c0,.1-.2.2-.4.1-.1,0-.2-.2-.1-.4l11.5-26.5c0,0,.1-.2.2-.2h27.4c.1,0,.2,0,.2.2l11.1,26.5c0,.1,0,.3-.1.4,0,0,0,0-.1,0Z"/><path class="e" d="M20.3,151.3s35.2-1.2,38.5,12.8h-27.4l-11.1-12.8Z"/><path class="f" d="M31.3,164.4l-11.8-13.5h.7s.7,0,1.9,0c3.2,0,9.6.2,16.2,1.2,12.4,2,19.4,6,20.8,11.9v.4c.1,0-27.9,0-27.9,0ZM31.6,163.7h26.8c-3.3-11.2-28.6-12.1-36.3-12.1s-.7,0-1,0l10.6,12.1Z"/><path class="f" d="M59.2,164.3h-27.9l-11.6-13.3h.6c0,0,8.9-.3,18.1,1.1,12.4,1.9,19.3,5.9,20.8,11.8v.3ZM31.5,163.8h26.9c-3.5-12.3-33.1-12.3-37.6-12.3l10.7,12.3Z"/><path class="f" d="M31.4,164.4c-.2,0-.4-.2-.4-.4s.2-.4.4-.4h27.5c.2,0,.4.2.4.4s-.2.4-.4.4h-27.5Z"/><path class="f" d="M58.8,164.3h-27.5c-.1,0-.3-.1-.3-.3s.1-.3.3-.3h27.5c.1,0,.3.1.3.3s-.1.3-.3.3Z"/><path class="f" d="M56.7,160.4c-.2,0-.4-.2-.4-.4s.2-.4.4-.4h130.7c.2,0,.4.2.4.4s-.2.4-.4.4H56.7Z"/><path class="f" d="M187.4,160.3H56.7c-.1,0-.3-.1-.3-.3s.1-.3.3-.3h130.7c.1,0,.3.1.3.3s-.1.3-.3.3Z"/><path class="f" d="M50.1,155.9c-.2,0-.4-.2-.4-.4s.2-.4.4-.4h130.7c.2,0,.4.2.4.4s-.2.4-.4.4H50.1Z"/><path class="f" d="M180.8,155.8H50.1c-.1,0-.3-.1-.3-.3s.1-.3.3-.3h130.7c.1,0,.3.1.3.3s-.1.3-.3.3Z"/><path class="f" d="M17.9,144.4c-.2,0-.4-.2-.4-.4s.2-.4.4-.4h130.7c.2,0,.4.2.4.4s-.2.4-.4.4H17.9Z"/><path class="f" d="M148.6,144.4H17.9c-.1,0-.3-.1-.3-.3s.1-.3.3-.3h130.7c.1,0,.3.1.3.3s-.1.3-.3.3Z"/><path class="f" d="M14.7,134.6c-.2,0-.4-.2-.4-.4s.2-.4.4-.4h130.4c.2,0,.4.2.4.4s-.2.4-.4.4H14.7Z"/><path class="f" d="M145.1,134.5H14.7c-.1,0-.3-.1-.3-.3s.1-.3.3-.3h130.4c.1,0,.3.1.3.3s-.1.3-.3.3Z"/><path class="f" d="M12.2,126.7c-.2,0-.4-.2-.4-.4s.2-.4.4-.4h130.7c.2,0,.4.2.4.4s-.2.4-.4.4H12.2Z"/><path class="f" d="M142.8,126.6H12.2c-.1,0-.3-.1-.3-.3s.1-.3.3-.3h130.7c.1,0,.3.1.3.3s-.1.3-.3.3Z"/><path class="e" d="M126.7,120.6l-30.4,4.2h-22.5c-3.8,13.5,40.4,18.7,40.4,18.7l-17.9,22.4c-1.7,2.1-2,5.1-.6,7.5,3.7,6.6,11.7,17.1,15.8,22.4,1,1.3,3.1.9,3.5-.8l2.1-9.1,25-42.2c6.6-11.1-2.6-24.9-15.4-23.1Z"/><path class="f" d="M113.1,196.9c-.7,0-1.4-.3-1.8-.9-4.3-5.6-12.1-15.9-15.8-22.4-1.4-2.5-1.2-5.6.6-7.9l17.5-21.9c-5.8-.7-33-4.6-39.1-13.7-1.2-1.7-1.5-3.6-.9-5.4,0-.2.2-.3.3-.3h22.5c0,.1,30.3-4.1,30.3-4.1.7-.1,1.5-.2,2.2-.2,5.3,0,10.2,2.6,13.1,7.1,3.4,5.1,3.6,11.5.4,16.8l-24.9,42.1-2.1,9.1c-.2.9-.9,1.5-1.8,1.7-.2,0-.3,0-.5,0ZM74.1,125c-.4,1.6,0,3.1.9,4.6,6.4,9.6,38.9,13.5,39.2,13.5.1,0,.2,0,.3.2,0,.1,0,.3,0,.4l-17.9,22.4c-1.6,2.1-1.9,4.8-.6,7.1,3.7,6.5,11.5,16.8,15.7,22.3.3.4.8.6,1.3.6s.2,0,.4,0c.6-.1,1.1-.6,1.2-1.2l2.1-9.1h0c0,0,25-42.2,25-42.2,3-5,2.8-11.2-.4-16-2.8-4.2-7.5-6.7-12.5-6.7s-1.4,0-2.1.1l-30.4,4.2h-22.3Z"/><path class="f" d="M113.1,196.8c-.7,0-1.3-.3-1.8-.9-4.3-5.6-12.1-15.9-15.8-22.4-1.4-2.5-1.2-5.6.6-7.8l17.5-22c-4.3-.5-33-4.4-39.2-13.7-1.1-1.7-1.5-3.5-.9-5.4,0-.1.1-.2.3-.2h22.5c0,.1,30.4-4.1,30.4-4.1,6-.8,11.9,1.8,15.2,6.9,3.4,5.1,3.5,11.5.4,16.7l-24.9,42.1-2.1,9.1c-.2.8-.8,1.5-1.7,1.7-.2,0-.3,0-.5,0ZM74.1,124.9c-.4,1.6,0,3.2.9,4.7,6.4,9.6,38.9,13.5,39.3,13.5,0,0,.2,0,.2.2,0,0,0,.2,0,.3l-17.9,22.4c-1.7,2.1-1.9,4.9-.6,7.2,3.7,6.5,11.5,16.8,15.7,22.4.4.5,1,.8,1.7.6.6-.1,1.1-.6,1.3-1.3l2.1-9.1s0,0,0,0l25-42.2c3-5.1,2.8-11.2-.4-16.1-3.3-4.9-8.9-7.4-14.7-6.6v-.3s0,.3,0,.3l-30.4,4.2s0,0,0,0h-22.3Z"/><path class="f" d="M115.2,185.6c-.1,0-.2,0-.3-.1-6.1-6.8-10.9-14.6-14.3-23.1,0-.2,0-.4.2-.5,0,0,0,0,.1,0,.1,0,.3,0,.3.2,3.4,8.4,8.2,16.2,14.2,22.9,0,0,0,.2,0,.3,0,0,0,.2-.1.2,0,0-.1,0-.2,0Z"/><path class="f" d="M115.2,185.6c0,0-.1,0-.2,0-6.1-6.8-10.9-14.6-14.3-23.1,0-.1,0-.3.2-.4.1,0,.3,0,.4.2,3.4,8.4,8.2,16.2,14.2,23,0,.1,0,.3,0,.4,0,0-.1,0-.2,0Z"/><path class="f" d="M105.9,160.9c-.2,0-.4-.2-.4-.4,0-.2.2-.4.4-.4h8.3c.2,0,.4.2.4.4,0,.2-.2.4-.4.4h-8.3Z"/><path class="f" d="M114.2,160.8h-8.3c-.1,0-.3-.2-.3-.3,0-.1.1-.3.3-.3h8.3c.1,0,.3.2.3.3,0,.1-.1.3-.3.3Z"/><path class="e" d="M82.9,134.6l23.7-.6c12.4-.3,23.9,6.9,28.9,18.3,8.3,18.7,20.5,44.6,29.7,55.8,1.1,1.3,0,3.3-1.7,3l-25.8-3.4c-4.2-.5-7.8-3-9.9-6.7l-23.1-40.6s-26.2-2.5-26.9-2.6c0,0-24.4-1.6-17.2-30.2l20.7-5.7,7.3,1.3-5.6,11.3Z"/><path class="f" d="M163.7,211.6c-.1,0-.2,0-.3,0l-25.8-3.4c-4.3-.6-8.1-3.1-10.2-6.9,0,0-23-40.5-23-40.5-.4,0-26-2.5-26.7-2.5,0,0-9.8-.8-15.2-8.2-4-5.4-4.8-13-2.4-22.4,0-.1.1-.2.3-.3l20.7-5.7h.1c0,0,0,0,0,0l7.3,1.3c.2,0,.3.2.3.4,0,.2-.2.3-.3.3l-7.3-1.3-20.5,5.7c-2.2,9.1-1.4,16.4,2.4,21.6,5.3,7.2,14.5,7.9,14.6,7.9.6,0,20.6,2,26.7,2.6h.2c.1,0,.2.1.3.2l23.1,40.6c2,3.5,5.6,6,9.6,6.5l25.8,3.4c0,0,.1,0,.2,0,.8,0,1.2-.6,1.3-.8.2-.4.3-1.1-.1-1.7-9-11-21.1-36.5-29.7-55.9-4.9-11-15.8-18.1-27.8-18.1s-.5,0-.8,0c0,0-23.7.6-23.7.6-.2,0-.4-.1-.4-.3,0-.2.2-.4.3-.4l23.7-.6c.3,0,.5,0,.8,0,12.3,0,23.4,7.3,28.4,18.5,8.6,19.4,20.7,44.8,29.6,55.7.6.7.7,1.7.2,2.5-.4.7-1.1,1.1-1.9,1.1Z"/><path class="f" d="M163.7,211.5c0,0-.2,0-.3,0l-25.8-3.4c-4.2-.6-8-3.1-10.1-6.8l-23-40.5c-2.1-.2-26.1-2.5-26.8-2.6,0,0-9.7-.7-15.1-8.2-3.9-5.4-4.7-12.9-2.4-22.4,0,0,0-.2.2-.2l20.7-5.7s0,0,.1,0l7.3,1.3c.1,0,.2.2.2.3,0,.1-.2.2-.3.2l-7.2-1.3-20.5,5.7c-2.3,9.2-1.5,16.5,2.3,21.8,5.3,7.2,14.6,7.9,14.7,7.9.7,0,25.8,2.5,26.9,2.6,0,0,.2,0,.2.1l23.1,40.6c2,3.6,5.6,6,9.7,6.5l25.8,3.4c.8.1,1.4-.3,1.6-.8.3-.5.4-1.2-.2-1.8-9-11-21.1-36.5-29.7-55.9-5-11.3-16.3-18.4-28.6-18.1l-23.7.6c-.2,0-.3-.1-.3-.3,0-.1.1-.3.3-.3l23.7-.6c12.6-.3,24,6.9,29.1,18.5,8.6,19.4,20.7,44.8,29.6,55.8.6.7.6,1.6.2,2.4-.4.7-1.1,1.1-1.9,1.1Z"/><path class="f" d="M156.5,202.5c-5,0-15.6-.7-30.4-5.2,0,0-.2,0-.2-.2s0-.2,0-.3c0-.2.2-.3.3-.3h.1c14.7,4.5,25.2,5.2,30.1,5.2s2.3,0,2.3,0h0c.2,0,.4.1.4.3,0,0,0,.2,0,.3,0,0-.1.1-.2.1,0,0-.8,0-2.4,0Z"/><path class="f" d="M156.5,202.4c-4.5,0-15.3-.6-30.3-5.2-.1,0-.2-.2-.2-.3,0-.1.2-.2.3-.2,20.1,6.2,32.4,5.2,32.5,5.1.1,0,.3,0,.3.2,0,.1,0,.3-.2.3,0,0-.9,0-2.4,0Z"/><polygon class="e" points="73.1 84.8 76.5 75.2 82.6 73.4 84 76.6 81.6 85.8 73.1 84.8"/><path class="f" d="M73,85.2c-.1,0-.2,0-.3-.2,0,0,0-.2,0-.3l3.5-9.6c0-.1.1-.2.2-.2l6.1-1.7s0,0,0,0c.2,0,.3,0,.4.2l1.4,3.1c0,0,0,.2,0,.2l-2.3,9.2c0,.2-.2.3-.3.3l-8.6-1ZM81.4,85.4l2.2-8.8-1.2-2.7-5.6,1.6-3.2,9,7.8.9Z"/><path class="f" d="M81.6,86.1s0,0,0,0l-8.6-1c0,0-.2,0-.2-.1,0,0,0-.2,0-.2l3.5-9.6c0,0,0-.1.2-.2l6.1-1.7c.1,0,.3,0,.3.2l1.4,3.1c0,0,0,.1,0,.2l-2.3,9.2c0,.1-.1.2-.3.2ZM73.4,84.6l8,.9,2.3-8.9-1.2-2.8-5.7,1.6-3.3,9.2Z"/><path class="f" d="M81.6,75.7c-1.3,0-2.7-.3-4-.9-1.7-.8-2.9-1.8-3.5-3.1-.6-1.2-.7-2.8-.2-4.4.9-3.3,3.7-6.2,7.3-7.5,1.8-.7,3.7-1,5.8-1s3.2.2,4.9.6h.1s0,.1,0,.1c-.5.9-1.1,1.8-1.7,2.6,0,0,.2,0,.3,0,1.3,0,2.5,1,2.7,2.3.2,1.1-.4,2.3-1.6,3.6-.6.7-1.4,1.3-2.1,1.8-.3.2-.7.5-1,.7,0,0-.2,0-.3.2-.2.1-.5.2-.6.4,0,.1,0,.3-.1.5,0,.1,0,.3,0,.4,0,.3-.2.7-.4,1-.7,1.2-1.8,2.2-3.2,2.6-.6.2-1.3.3-2,.3h0Z"/><path class="f" d="M91.5,67.9c.9-1,1.8-2.2,1.6-3.6-.2-1.4-1.7-2.5-3.1-2.2.7-.8,1.4-1.8,1.9-2.7-3.5-.8-7.3-.8-10.6.4-3.4,1.3-6.3,4-7.2,7.5-.4,1.4-.4,3,.2,4.4.7,1.4,2,2.4,3.5,3.1,1.9.9,4,1.2,6,.6,1.3-.4,2.5-1.3,3.2-2.5.2-.3.3-.6.4-1,0-.2,0-.7.2-.9.2-.2.7-.4.9-.6.4-.2.7-.4,1-.7.8-.5,1.5-1.1,2.1-1.8Z"/><path class="e" d="M77.3,72.2c-.1-.6-.9-1-1.5-.8-.6.2-1.1.7-1.3,1.4-.3.8-.1,1.8.4,2.5.6.7,1.6,1,2.4.7,1.1,1.7,2.7,3.4,4.6,3.9,1.1.3,2.3.3,3.3-.2.7-.4,1.2-1,1.6-1.7.4-.7.6-1.5.7-2.2.5-2.2.6-4.5.4-6.8,0-.4,0-.7-.2-1.1-.2-.5-.7-.8-1.2-1-1-.5-2.2-.9-3.4-.8-1.2,0-2.3.6-3.1,1.4-.8.8-1,2-1.3,3.1,0,.4-1.4,1.6-1.4,1.6Z"/><path class="f" d="M83.4,80.4c-.5,0-1,0-1.6-.2-2.2-.6-3.9-2.7-4.7-3.9-.2,0-.4,0-.5,0-.7,0-1.5-.3-2-.9-.6-.7-.8-1.9-.5-2.8.3-.8.8-1.4,1.5-1.6.1,0,.3,0,.4,0,.3,0,.6,0,.9.2.2.1.3.2.4.4.6-.6.9-1,.9-1.1v-.2c.3-1.1.6-2.2,1.4-3,.8-.9,2.1-1.5,3.4-1.5.1,0,.2,0,.4,0,1.1,0,2.2.3,3.2.8.5.2,1,.6,1.3,1.1.2.4.3.8.3,1.2.2,2.3,0,4.6-.4,6.9-.2.7-.4,1.5-.8,2.3-.4.8-1,1.5-1.7,1.8-.6.3-1.2.5-2,.5ZM77.2,75.6c.1,0,.2,0,.3.2,1.3,2,2.9,3.4,4.4,3.8.5.1,1,.2,1.4.2s1.2-.1,1.6-.4c.7-.4,1.2-1.1,1.4-1.5.4-.7.6-1.5.7-2.1.5-2.2.6-4.4.4-6.6,0-.3,0-.7-.2-.9-.2-.4-.6-.7-1-.8-1-.5-2-.8-2.9-.8s-.2,0-.3,0c-1.1,0-2.2.5-2.9,1.3-.7.7-.9,1.7-1.2,2.7v.2c-.2.4-1,1.3-1.6,1.8,0,0-.2,0-.2,0h-.1c-.1,0-.2-.2-.2-.3,0-.2-.2-.3-.3-.4-.2,0-.3-.1-.5-.1s-.2,0-.2,0c-.5.1-.9.7-1,1.1-.2.7-.1,1.6.4,2.2.3.4.9.7,1.4.7s.4,0,.6-.1c0,0,0,0,.1,0Z"/><path class="f" d="M83.4,80.3c-.6,0-1.1,0-1.6-.2-2.2-.6-3.8-2.6-4.7-3.9-.9.2-1.9,0-2.5-.8-.6-.7-.8-1.8-.5-2.7.3-.8.8-1.4,1.5-1.5.4-.1.9,0,1.2.2.2.1.3.3.5.4.5-.5,1-1,1-1.2v-.2c.3-1.1.6-2.2,1.4-3,.8-.9,2-1.4,3.3-1.5,1.1,0,2.4.2,3.5.8.4.2,1,.6,1.3,1.1.2.4.2.8.3,1.2.2,2.3,0,4.6-.4,6.8-.2.7-.4,1.5-.8,2.3-.4.8-1,1.4-1.7,1.8-.6.3-1.3.5-1.9.5ZM77.2,75.6c0,0,.2,0,.2.1,1.3,2,2.9,3.4,4.5,3.8.8.2,2.1.4,3.1-.2.7-.4,1.2-1.1,1.5-1.6.4-.7.6-1.5.7-2.2.5-2.2.6-4.4.4-6.7,0-.3,0-.7-.2-1-.2-.4-.7-.7-1-.9-1.1-.6-2.2-.8-3.3-.8-1.2,0-2.2.6-3,1.3-.7.7-.9,1.8-1.2,2.7v.2c-.2.4-1.1,1.3-1.5,1.7,0,0-.2,0-.3,0,0,0-.2-.1-.2-.2,0-.2-.2-.4-.4-.5-.2-.1-.6-.2-.8-.1-.6.2-.9.7-1.1,1.2-.3.8-.1,1.7.4,2.2.5.6,1.4.8,2.1.6,0,0,0,0,.1,0Z"/><path class="f" d="M76.5,74.7c-.2,0-.4-.2-.3-.4,0-.4-.2-.9-.6-1.1-.2-.1-.2-.3-.1-.5,0-.1.2-.2.3-.2s.1,0,.2,0c.6.4.9,1,.9,1.7,0,.2-.2.3-.4.3h0Z"/><path class="f" d="M76.5,74.6s0,0,0,0c-.1,0-.3-.1-.3-.3,0-.5-.2-.9-.6-1.2-.1,0-.2-.2,0-.4,0-.1.2-.2.4,0,.6.3.9,1,.9,1.6,0,.1-.1.3-.3.3Z"/><path class="c" d="M112.8,102.8v-4.7c-3.7-3.7-7.3-7.1-10.5-10-3.4-3.2-7.3-5.7-11.9-5.2-8.3,1-19.6,3-27.9,4.5-7.1,1.4-12.5,7.3-13,14.6-.7,9.5.9,18.2,2.1,24.6,2.7,14,18.5,2.7,18.5,2.7l26.5-4.4.7-13.3,7.2,6.7c3.4,3.2,8.4,2.9,12.2,0,.8-.6,1.6-1.4,2.4-2.3-4.4-6.6-6.2-13.3-6.2-13.3Z"/><path class="e" d="M126.4,96.5l-9.1,6.3c-1.5-1.6-3-3.2-4.5-4.6v4.7s-4.9,13.1,6.2,13.3c4.9-5.7,7.5-15.5,7.3-19.6Z"/><path class="f" d="M119.1,116.5c0,0-.2,0-.2,0-.1-.1-.2-.4,0-.5,5.1-5.9,7.4-15.6,7.2-19.4,0-.2.1-.4.3-.4h0c.2,0,.4.2.4.3.2,4.5-2.6,14.3-7.4,19.9,0,0-.2.1-.3.1Z"/><path class="f" d="M119.1,116.4c0,0-.1,0-.2,0-.1,0-.1-.3,0-.4,5.1-5.9,7.4-15.6,7.3-19.4,0-.1.1-.3.3-.3.2,0,.3.1.3.3.2,4.5-2.6,14.2-7.4,19.8,0,0-.1,0-.2,0Z"/><path class="f" d="M59.4,120c0,0-.2,0-.2,0-.1-.1-.2-.4,0-.5,2.6-2.7,5.6-5.2,8.6-7.5.7-.5,1.3-1,1.9-1.5,0,0,.1,0,.2,0s.2,0,.3.1c.1.2,0,.4,0,.5-.6.5-1.2,1-1.9,1.5-3,2.4-6,4.8-8.6,7.5,0,0-.2.1-.3.1Z"/><path class="f" d="M59.4,119.9c0,0-.1,0-.2,0-.1-.1-.1-.3,0-.4,2.6-2.7,5.6-5.2,8.6-7.5.6-.5,1.3-1,1.9-1.5.1,0,.3,0,.4,0,0,.1,0,.3,0,.4-.6.5-1.3,1-1.9,1.5-2.9,2.3-6,4.7-8.5,7.4,0,0-.1,0-.2,0Z"/><path class="f" d="M64.5,114.8c-.2,0-.3-.1-.4-.3l-.5-9.8c0,0,0-.2,0-.3,0,0,.2-.1.2-.1h0c.2,0,.4.1.4.3l.5,9.8c0,0,0,.2,0,.3,0,0-.2.1-.2.1h0Z"/><path class="f" d="M64.5,114.7c-.1,0-.3-.1-.3-.3l-.5-9.8c0-.1.1-.3.3-.3.1,0,.3.1.3.3l.5,9.8c0,.1-.1.3-.3.3,0,0,0,0,0,0Z"/><path class="f" d="M97.3,112c0,0-.2,0-.3-.1s-.1-.2,0-.3c0-2.2.3-5.7.5-9.1h0c.1-1.8.2-3.4.3-4.7,0-.2.2-.3.4-.3.1,0,.2,0,.3.1s0,.2,0,.3c0,1.4-.2,3-.3,4.7-.2,3.4-.5,7-.5,9.1,0,.2-.2.3-.4.3h0Z"/><path class="f" d="M97.3,111.9s0,0,0,0c-.1,0-.3-.1-.3-.3,0-2.2.3-5.7.5-9.1.1-1.7.2-3.3.3-4.7,0-.1.1-.3.3-.3.1,0,.3.1.3.3,0,1.4-.2,3-.3,4.7-.2,3.4-.5,6.9-.5,9.1,0,.1-.1.3-.3.3Z"/><path class="f" d="M70.4,129.4c-.1,0-.2,0-.3-.1-.1-.1-.1-.4,0-.5,4.6-4,7.5-8.4,7.5-8.5,0-.1.2-.2.3-.2s.1,0,.2,0c.2.1.2.3.1.5-.1.2-3.1,4.7-7.7,8.6,0,0-.1,0-.2,0Z"/><path class="f" d="M70.4,129.3c0,0-.2,0-.2,0,0-.1,0-.3,0-.4,4.6-4,7.5-8.5,7.6-8.5,0-.1.2-.2.4,0,.1,0,.2.2,0,.4,0,0-3,4.6-7.7,8.6,0,0-.1,0-.2,0Z"/><path class="f" d="M121,112.6c-2.7,0-5.3-1.8-6.3-4.3,0,0,0-.2,0-.3s.1-.2.2-.2c0,0,0,0,.1,0,.1,0,.3,0,.3.2.9,2.2,3.3,3.8,5.7,3.8.2,0,.4.2.4.4,0,.2-.2.4-.4.4h0Z"/><path class="f" d="M121,112.5h0c-2.7,0-5.2-1.8-6.3-4.2,0-.1,0-.3.1-.4.1,0,.3,0,.4.1.9,2.3,3.3,3.9,5.8,3.9.1,0,.3.1.3.3,0,.1-.1.3-.3.3Z"/><path class="f" d="M118.1,114.9c-.5,0-.9-.3-1-.8,0-.3,0-.5.1-.7.1-.2.4-.4.6-.4,0,0,.1,0,.2,0,.5,0,.9.3,1,.8,0,.3,0,.5-.1.7-.1.2-.4.4-.6.4,0,0-.1,0-.2,0ZM118.1,113.6c0,0-.1,0-.2.1,0,0,0,.1,0,.2,0,.1.1.2.3.2.1,0,.2,0,.2-.1,0,0,0-.1,0-.2,0-.1-.1-.2-.3-.2h0c0,0,0,0,0,0Z"/><path class="f" d="M118.1,114.8c-.4,0-.8-.3-.9-.7,0-.2,0-.5.1-.7.1-.2.3-.3.6-.4.5,0,.9.2,1,.7,0,.2,0,.5-.1.7-.1.2-.3.3-.6.4,0,0-.1,0-.2,0ZM117.8,114c0,.2.2.3.4.3,0,0,.2,0,.2-.1,0,0,0-.2,0-.3,0-.2-.2-.3-.4-.3,0,0-.2,0-.2.1,0,0,0,.2,0,.3Z"/><polygon class="f" points="84 120 81.5 91.8 78.8 89 81.6 85.4 84.8 88.1 84.3 91.6 91 119.8 88.5 126.9 84 120"/><polygon class="f" points="84.7 88.1 84.2 91.6 90.9 119.8 88.4 126.7 84.1 120 81.6 91.8 78.9 89 81.6 85.5 84.7 88.1"/><polygon class="e" points="72.9 81.4 81.2 83.5 82.7 81.9 86 84.8 84.8 89.8 81.6 85.8 80.6 91.2 70.6 86.2 72.9 81.4"/><path class="f" d="M70.6,86.6c0,0-.1,0-.2,0,0,0-.2-.1-.2-.2,0,0,0-.2,0-.3l2.2-4.8c0-.1.2-.2.3-.2l8.3,2.1,1.3-1.5c0,0,.2-.1.3-.1s.2,0,.2,0l2,1.7c0,0,.1.1.1.2,0,0,0,.2,0,.3,0,0-.2.1-.3.1s-.2,0-.2,0l-1.7-1.5-1.2,1.4c0,0-.2.1-.3.1l-8.2-2-2.1,4.5c0,.1-.2.2-.3.2Z"/><path class="f" d="M70.6,86.5s0,0-.1,0c-.1,0-.2-.2-.1-.4l2.2-4.8c0-.1.2-.2.3-.1l8.2,2.1,1.4-1.5c0-.1.3-.1.4,0l2,1.7c.1,0,.1.3,0,.4,0,.1-.3.1-.4,0l-1.8-1.5-1.3,1.4c0,0-.2.1-.3,0l-8.1-2-2.1,4.6c0,0-.1.2-.2.2Z"/><path class="e" d="M102.7,108.3h-13.3c-.8,0-1.3-.5-1.1-1.2l1.5-6.5c.2-.7.9-1.3,1.7-1.3h13.6c.8,0,1.3.6,1.1,1.3l-1.8,6.5c-.2.7-1,1.2-1.7,1.2Z"/><polygon class="f" points="88.3 106.6 88.7 104.9 105.1 104.9 104.6 106.6 88.3 106.6"/><polygon class="f" points="88.8 105 105 105 104.6 106.5 88.4 106.5 88.8 105"/><path class="e" d="M70.3,110.5s4.7,7.1,7.7,10c0,0,7.8-7,10.4-12.2,0,0,2.9,3.5,3.7,2,0,0,1.8.9,2.4-1,0,0,1.3-.6,1.4-2.2s-1-2.9-1-2.9c0,0,2.7,2.4,3.4,1.7.8-.7-1.7-3.8-3.5-4.9-1.8-1.1-4.7-3.2-10.4-.6-5.2,2.4-14.2,10.1-14.2,10.1Z"/><path class="f" d="M92.3,110.4c-.2,0-.3-.1-.3-.3-.5-2.1-1.5-4.1-3-5.7-.1-.1-.1-.4,0-.5,0,0,.2,0,.2,0s.2,0,.3.1c1.6,1.7,2.7,3.8,3.2,6,0,0,0,.2,0,.3,0,0-.1.1-.2.2h0Z"/><path class="f" d="M92.3,110.4c-.1,0-.2,0-.3-.2-.5-2.1-1.5-4.1-3-5.7-.1-.1,0-.3,0-.4.1-.1.3,0,.4,0,1.6,1.7,2.6,3.7,3.1,6,0,.1,0,.3-.2.3,0,0,0,0,0,0Z"/><path class="f" d="M94.6,109.3c-.2,0-.3-.1-.4-.3-.2-2.3-1.4-4.6-3.1-6.2-.1-.1-.2-.4,0-.5,0,0,.2-.1.3-.1s.2,0,.2,0c1.8,1.7,3,4.1,3.3,6.6,0,.2-.1.4-.3.4h0Z"/><path class="f" d="M94.6,109.3c-.1,0-.3-.1-.3-.2-.2-2.3-1.4-4.6-3.1-6.2-.1-.1-.1-.3,0-.4.1-.1.3-.1.4,0,1.8,1.7,3,4.1,3.3,6.6,0,.1,0,.3-.2.3,0,0,0,0,0,0Z"/><path class="f" d="M94.8,104.6c-.1,0-.3,0-.3-.2-.4-.9-1.1-1.8-1.9-2.4,0,0-.1-.1-.1-.2,0,0,0-.2,0-.3,0,0,.2-.1.3-.1s.2,0,.2,0c.9.7,1.7,1.6,2.1,2.7,0,.2,0,.4-.2.5,0,0,0,0-.1,0Z"/><path class="f" d="M94.8,104.5c-.1,0-.2,0-.2-.2-.4-1-1.1-1.8-1.9-2.4-.1,0-.1-.3,0-.4,0-.1.3-.1.4,0,.9.7,1.6,1.6,2.1,2.7,0,.1,0,.3-.1.4,0,0,0,0-.1,0Z"/><path class="f" d="M88.2,108.4c0,0-.2,0-.3-.1l-1.4-1.5c-.1-.1-.1-.4,0-.5,0,0,.2-.1.2-.1s.2,0,.3.1l1.4,1.5c.1.1.1.4,0,.5,0,0-.2.1-.2.1Z"/><path class="f" d="M88.2,108.3c0,0-.1,0-.2,0l-1.4-1.5c-.1-.1-.1-.3,0-.4.1-.1.3-.1.4,0l1.4,1.5c.1.1.1.3,0,.4,0,0-.1,0-.2,0Z"/><path class="f" d="M81.9,116.3c0,0-.2,0-.3-.1-2.7-2.8-4.9-6-6.6-9.5,0,0,0-.2,0-.3,0,0,0-.2.2-.2,0,0,.1,0,.2,0,.1,0,.3,0,.3.2,1.7,3.4,3.9,6.5,6.5,9.3.1.1.1.4,0,.5,0,0-.2,0-.2,0Z"/><path class="f" d="M81.9,116.2c0,0-.1,0-.2,0-2.7-2.8-4.9-6-6.6-9.4,0-.1,0-.3.1-.4.1,0,.3,0,.4.1,1.7,3.4,3.9,6.6,6.5,9.3.1.1,0,.3,0,.4,0,0-.1,0-.2,0Z"/><path class="f" d="M79.2,118.2c-.4,0-.7-.2-.9-.5-.3-.5-.2-1.2.3-1.5.2-.1.4-.2.6-.2.4,0,.8.2.9.5.3.5.1,1.2-.3,1.5-.2.1-.4.2-.6.2ZM79.2,116.7c0,0-.1,0-.2,0-.2.1-.2.4-.1.5,0,0,.2.2.3.2s.1,0,.2,0c.2-.1.2-.4.1-.5,0-.1-.2-.2-.3-.2Z"/><path class="f" d="M79.2,118.1c-.3,0-.7-.2-.9-.4-.3-.4-.2-1.1.3-1.4,0,0,0,0,0,0,0,0,0,0,0,0,.5-.3,1.1-.1,1.4.3.3.5.1,1.1-.3,1.4-.2.1-.3.1-.5.1ZM79,116.7s0,0,0,0c-.2.1-.3.4-.1.6.1.2.4.3.6.1.2-.1.3-.4.1-.6-.1-.2-.4-.3-.6-.2,0,0,0,0,0,0Z"/><path class="f" d="M98.3,105.1c-.1,0-.2,0-.3-.2-.5-.9-.9-1.4-1-1.5-1.7-2.4-5.5-3.7-5.6-3.8-.2,0-.3-.3-.2-.5,0-.1.2-.2.3-.2h.1c.2,0,4,1.4,5.9,4h0s.4.5,1,1.6c0,.2,0,.4-.1.5,0,0-.1,0-.2,0Z"/><path class="f" d="M98.3,105c0,0-.2,0-.2-.1-.6-1-1-1.5-1-1.5-1.8-2.4-5.6-3.8-5.6-3.8-.1,0-.2-.2-.2-.3,0-.1.2-.2.3-.2.2,0,4,1.4,5.9,4,0,0,.4.5,1,1.6,0,.1,0,.3,0,.4,0,0,0,0-.1,0Z"/><path class="f" d="M106.4,109.9c-.4,0-.7-.2-.9-.5-.2-.3-.2-.7,0-1.1l8.6-16.9c.2-.3.4-.5.8-.6l14.2-2.8c0,0,.1,0,.2,0,.4,0,.7.2.9.5.2.3.2.7,0,1.1l-9.1,17c-.2.3-.4.5-.8.6l-13.8,2.7c0,0-.1,0-.2,0h0Z"/><path class="f" d="M129,88.2l-14.2,2.8c-.3,0-.6.3-.7.5l-8.6,16.9c-.4.8.3,1.6,1.1,1.4l13.8-2.7c.3,0,.6-.2.7-.5l9.1-17c.4-.8-.2-1.6-1.1-1.5Z"/><path class="e" d="M123.1,91.3c-.2-.1-.5-.2-.6,0-.2.1-.1.4-.1.6.3,2,.6,4,.8,6-.3-1.8-1.1-3.5-2.5-4.6-.3-.3-.9-.5-1.2-.1-.2.2-.1.5,0,.8.5,2.2,1.9,4.3,1.5,6.6-.4-1.3-1-2.5-1.7-3.7-.3-.5-.6-.9-1.1-1.2-.5-.2-1.2-.1-1.4.4-.3.5,0,1.1.4,1.6.9,1.5,1.4,3.1,1.7,4.8-.5-1.3-1-2.6-2.1-3.3-.3-.2-.7-.4-1.1-.3-.4,0-.8.3-.9.7-.1.4.1.8.3,1.2.8,1.5,1.1,3.2,1,4.9-.1,1.3-1.2,3.1.5,3.8.6.2,1.2.1,1.8,0,1.7-.6,2.9-1.9,4.1-3.3,1.1-1.4,2.2-2.9,2.9-4.6.7-1.7,1.3-3.6,1-5.4-.3-1.8-1.6-3.5-3.1-4.5Z"/></g></svg>