<svg id="Layer_1" data-name="Layer 1" xmlns="http://www.w3.org/2000/svg" viewBox="0 0 124 124"><defs><style>.cls-1{fill:#101828;}.cls-2{fill:#079b7e;stroke:#079b7e;stroke-miterlimit:10;}</style></defs><path class="cls-1" d="M62,122a3.54,3.54,0,0,1-2.83-1.42L25.39,75.34a45.34,45.34,0,0,1-9.11-27.4,45.72,45.72,0,1,1,91.44,0A45.34,45.34,0,0,1,98.6,75.35L64.83,120.6A3.54,3.54,0,0,1,62,122Zm0-113A38.82,38.82,0,0,0,23.35,47.94a38.37,38.37,0,0,0,7.71,23.17L62,112.57,92.94,71.11a38.37,38.37,0,0,0,7.71-23.17A38.82,38.82,0,0,0,62,9.05Z"/><g id="path3071"><path class="cls-2" d="M40.91,72.57A3.55,3.55,0,0,1,37.37,69V26.84a3.54,3.54,0,0,1,3.54-3.53H83.09a3.54,3.54,0,0,1,3.54,3.53V69a3.55,3.55,0,0,1-3.54,3.54Zm38.65-7.08V30.38H44.44V65.49Z"/></g><g id="g3073"><g id="path3075"><path class="cls-2" d="M55,44.44a3.54,3.54,0,0,1-3.54-3.53V26.84a3.54,3.54,0,0,1,7.08,0V37.37h7V26.84a3.54,3.54,0,0,1,7.08,0V40.91A3.54,3.54,0,0,1,69,44.44Z"/></g></g><g id="g3077"><g id="path3079"><path class="cls-1" d="M40.91,122a3.54,3.54,0,1,1,0-7.07H83.09a3.54,3.54,0,1,1,0,7.07Z"/></g></g></svg>