<svg id="Layer_1" data-name="Layer 1" xmlns="http://www.w3.org/2000/svg" viewBox="0 0 124 124"><defs><style>.cls-1{fill:#101828;}.cls-2{fill:#079b7e;}</style></defs><g id="g2995"><g id="g3001"><g id="path3003"><path class="cls-1" d="M88.29,122a3.53,3.53,0,0,1-3.43-2.69c-.16-.65-3.75-16,6.58-36.89a94.4,94.4,0,0,1,7-11.6c3.62-5.22,7-10.8,7-16.21,0-19-16.17-35.91-36.15-37.69a3.54,3.54,0,0,1,.31-7.06h.32A47.84,47.84,0,0,1,99.71,24.12a43.39,43.39,0,0,1,12.75,30.52c0,7.36-4,14.08-8.26,20.24a87.57,87.57,0,0,0-6.42,10.69,61.1,61.1,0,0,0-6.49,23.12,34.92,34.92,0,0,0,.44,9A3.52,3.52,0,0,1,88.29,122Z"/></g></g><g id="g3005"><g id="path3007"><path class="cls-1" d="M50.79,122a3.53,3.53,0,0,1-3.49-3L46,110.93l-6.89.86a10.54,10.54,0,0,1-1.38.09,11.07,11.07,0,0,1-9.55-5.52c-2.77-4.77-6.17-11.87-7-18.87a19.44,19.44,0,0,1-6.95-4.3,8.22,8.22,0,0,1-2.68-5.87,8.07,8.07,0,0,1,2.39-6l8.64-8.64A44.43,44.43,0,0,1,28.3,30.83a43.93,43.93,0,0,1,25.26-19.4,3.63,3.63,0,0,1,1-.14,3.54,3.54,0,0,1,1,6.94c-18.36,5.31-29.77,24.31-26,43.24l.35,1.71a3.52,3.52,0,0,1-1,3.19l-10,10a1.06,1.06,0,0,0-.32.8A1.08,1.08,0,0,0,19,78c2.1,1.91,4.13,3,5.55,3a3.55,3.55,0,0,1,3.54,3.54c0,6.62,3.88,14.32,6.2,18.32a4,4,0,0,0,3.44,2l.5,0,10.26-1.28a3.25,3.25,0,0,1,.44,0,3.53,3.53,0,0,1,3.49,3l1.87,11.48A3.53,3.53,0,0,1,51.36,122,3.66,3.66,0,0,1,50.79,122Z"/></g></g><g id="g3009"><g id="path3011"><path class="cls-2" d="M69.54,48.79A3.54,3.54,0,0,1,66,45.25V9.05H58.08v36.2a3.54,3.54,0,1,1-7.07,0V5.51A3.53,3.53,0,0,1,54.54,2h15a3.54,3.54,0,0,1,3.54,3.53V45.25A3.55,3.55,0,0,1,69.54,48.79Z"/></g></g><g id="g3013"><g id="path3015"><path class="cls-2" d="M62,76.79A18.54,18.54,0,1,1,80.58,58.25,18.56,18.56,0,0,1,62,76.79Zm0-30A11.46,11.46,0,1,0,73.51,58.25,11.47,11.47,0,0,0,62,46.79Z"/></g></g><g id="g3017"><g id="path3019"><path class="cls-2" d="M41.42,93.66a3.54,3.54,0,0,1-.94-7,28,28,0,0,0,9.16-5.07c5.88-4.88,8.87-11.49,8.87-19.64a3.54,3.54,0,1,1,7.07,0c0,13-6.31,20.9-11.61,25.23a34.79,34.79,0,0,1-11.62,6.31A3.71,3.71,0,0,1,41.42,93.66Z"/></g></g></g></svg>