<svg id="Layer_1" data-name="Layer 1" xmlns="http://www.w3.org/2000/svg" viewBox="0 0 124 124"><defs><style>.cls-1{fill:#101828;}.cls-2{fill:#079b7e;}</style></defs><path class="cls-1" d="M111.45,5.75H12.55A10.56,10.56,0,0,0,2,16.3V86.61A10.56,10.56,0,0,0,12.55,97.16H23.33v17.57a3.52,3.52,0,0,0,6,2.49L49.39,97.16h62.06A10.56,10.56,0,0,0,122,86.61V16.3A10.56,10.56,0,0,0,111.45,5.75ZM115,86.61a3.52,3.52,0,0,1-3.52,3.51H47.94a3.55,3.55,0,0,0-2.49,1l-15.09,15.1V93.64a3.52,3.52,0,0,0-3.52-3.52H12.55A3.52,3.52,0,0,1,9,86.61V16.3a3.53,3.53,0,0,1,3.52-3.52h98.9A3.53,3.53,0,0,1,115,16.3Z"/><path class="cls-2" d="M90,43.23a3.52,3.52,0,0,0-2.86-2.41L71.92,38.67,65.14,25.26a3.52,3.52,0,0,0-6.28,0L52.08,38.67,36.9,40.82a3.51,3.51,0,0,0-1.93,6L45.91,57.26,43.33,71.94a3.51,3.51,0,0,0,5.07,3.73l13.6-7,13.6,7a3.51,3.51,0,0,0,5.07-3.73L78.09,57.26,89,46.85A3.52,3.52,0,0,0,90,43.23ZM71.88,53.47a3.52,3.52,0,0,0-1,3.15l1.68,9.57-8.91-4.58a3.6,3.6,0,0,0-3.22,0l-8.91,4.58,1.68-9.57a3.52,3.52,0,0,0-1-3.15l-7-6.71,9.81-1.39a3.5,3.5,0,0,0,2.64-1.9L62,34.64l4.47,8.83a3.5,3.5,0,0,0,2.64,1.9l9.81,1.39Z"/></svg>