<svg id="Layer_1" data-name="Layer 1" xmlns="http://www.w3.org/2000/svg" viewBox="0 0 124 124"><defs><style>.cls-1{fill:#079b7e;}.cls-2{fill:#101828;}</style></defs><path class="cls-1" d="M57.57,66.55H106.9A3.52,3.52,0,0,0,110.41,63V20.09a3.51,3.51,0,0,0-3.51-3.52H90.74l1.44-1.44a3.51,3.51,0,0,0-5-5l-1.46,1.46V10.34a3.52,3.52,0,1,0-7,0V11.6l-1.44-1.44a3.52,3.52,0,1,0-5,5l1.45,1.44H57.57a3.52,3.52,0,0,0-3.52,3.52V63a3.53,3.53,0,0,0,3.52,3.52Zm45.81-7H85.75V23.6h17.63ZM61.09,23.6H78.72V59.51H61.09Z"/><path class="cls-2" d="M121.18,84.58A10.15,10.15,0,0,0,115.25,79a11,11,0,0,0-8.14.26l-24,10.32a10.61,10.61,0,0,0-.57-1.76,10.16,10.16,0,0,0-5.94-5.55L48.59,72.06a26.08,26.08,0,0,0-19.29.64L4.2,82.8a3.52,3.52,0,0,0,2.63,6.52L32,79.2l.07,0a19.33,19.33,0,0,1,14.14-.5L74.25,88.9a3.2,3.2,0,0,1,1.88,1.74,3.52,3.52,0,0,1-.35,3.2A3.61,3.61,0,0,1,71,95.64L50.13,88a3.52,3.52,0,0,0-2.41,6.61l20.88,7.61a11.42,11.42,0,0,0,3.94.7,10.45,10.45,0,0,0,9-5l28.35-12.22a4,4,0,0,1,3-.11,3.15,3.15,0,0,1,1.87,1.72A3.61,3.61,0,0,1,112.57,92l-39.5,17a13.47,13.47,0,0,1-9.88.39L28.71,97.09a3.51,3.51,0,0,0-2.53.07l-22,9.12a3.52,3.52,0,0,0,2.69,6.5l20.76-8.61L60.83,116a20.13,20.13,0,0,0,6.77,1.17,21,21,0,0,0,8.26-1.72l39.5-17a10.64,10.64,0,0,0,5.82-13.85Z"/></svg>