<svg id="Layer_1" data-name="Layer 1" xmlns="http://www.w3.org/2000/svg" viewBox="0 0 124 124"><defs><style>.cls-1{fill:#101828;}.cls-2{fill:#079b7e;}</style></defs><path class="cls-1" d="M6.19,121.88a3.51,3.51,0,0,1-3.51-3.5V85.08a3.51,3.51,0,0,1,3.51-3.5h33a.67.67,0,0,0,.68-.68V64.09a3.51,3.51,0,0,1,3.51-3.5h33a.67.67,0,0,0,.68-.68V43.1a3.51,3.51,0,0,1,3.51-3.5h37.2a3.51,3.51,0,0,1,3.51,3.5v75.28a3.51,3.51,0,0,1-3.51,3.5Zm78.6-75.27a.67.67,0,0,0-.68.68v66.9a.68.68,0,0,0,.68.69h28.84a.68.68,0,0,0,.68-.69V47.29a.67.67,0,0,0-.68-.68Zm-37.21,21a.67.67,0,0,0-.68.68v45.91a.68.68,0,0,0,.68.69H76.42a.68.68,0,0,0,.68-.69V68.28a.67.67,0,0,0-.68-.68Zm-37.21,21a.68.68,0,0,0-.68.68v24.92a.69.69,0,0,0,.68.69H39.21a.68.68,0,0,0,.68-.69V89.27a.67.67,0,0,0-.68-.68Z"/><path class="cls-2" d="M24.79,53a3.5,3.5,0,0,1-1.72-6.55L84.3,11.89a.68.68,0,0,0,.26-.93l-2-3.62a3.5,3.5,0,0,1,3-5.22l.51,0L99.69,4a3.46,3.46,0,0,1,2.56,1.76,3.43,3.43,0,0,1,.17,3.1L97,21.53a3.46,3.46,0,0,1-3.23,2.12h0a3.47,3.47,0,0,1-3-1.78l-2-3.62a.66.66,0,0,0-.41-.32.57.57,0,0,0-.18,0,.67.67,0,0,0-.34.09L26.51,52.53A3.45,3.45,0,0,1,24.79,53Z"/></svg>