<svg id="Layer_1" data-name="Layer 1" xmlns="http://www.w3.org/2000/svg" viewBox="0 0 124 124"><defs><style>.cls-1{fill:#101828;}.cls-2{fill:#079b7e;}</style></defs><g id="g859"><g id="path861"><path class="cls-1" d="M62,23.06A10.52,10.52,0,1,1,72.52,12.55,10.52,10.52,0,0,1,62,23.06ZM62,9a3.55,3.55,0,1,0,3.54,3.55A3.54,3.54,0,0,0,62,9Z"/></g></g><g id="g863"><g id="path865"><path class="cls-2" d="M62,122a14,14,0,0,1-13.23-18.71,3.48,3.48,0,1,1,6.57,2.32,7.06,7.06,0,1,0,13.72,2.36,7.26,7.26,0,0,0-.4-2.36,3.5,3.5,0,0,1,2.12-4.45,3.59,3.59,0,0,1,1.17-.19,3.48,3.48,0,0,1,3.28,2.32A14,14,0,0,1,62,122Z"/></g></g><g id="g867"><g id="path869"><path class="cls-1" d="M19.81,107.91a3.48,3.48,0,0,1-3.48-3.49c0-13.51,4.13-18.75,7.78-23.37,3.23-4.09,6.28-8,6.28-19V47.7a31.61,31.61,0,0,1,63.22,0V62c0,11.09,3,15,6.28,19,3.65,4.62,7.78,9.86,7.78,23.37a3.48,3.48,0,0,1-3.48,3.49Zm80.78-7C100,92.46,97.3,89,94.42,85.37c-3.65-4.62-7.78-9.86-7.78-23.37V47.7a24.64,24.64,0,0,0-49.28,0V62c0,13.52-4.13,18.75-7.78,23.37C26.71,89,24,92.46,23.41,100.94Z"/></g></g><g id="g871"><g id="path873"><path class="cls-2" d="M19.81,51.19a3.48,3.48,0,0,1-3.48-3.49A45.85,45.85,0,0,1,39.16,8.16a3.44,3.44,0,0,1,1.74-.47,3.48,3.48,0,0,1,1.75,6.5A38.9,38.9,0,0,0,23.3,47.7,3.49,3.49,0,0,1,19.81,51.19Z"/></g></g><g id="g875"><g id="path877"><path class="cls-2" d="M104.19,51.19a3.49,3.49,0,0,1-3.49-3.49A38.9,38.9,0,0,0,81.34,14.19a3.47,3.47,0,0,1-1.26-4.76,3.51,3.51,0,0,1,3-1.74,3.44,3.44,0,0,1,1.74.47A45.85,45.85,0,0,1,107.67,47.7,3.48,3.48,0,0,1,104.19,51.19Z"/></g></g></svg>