<svg id="Layer_1" data-name="Layer 1" xmlns="http://www.w3.org/2000/svg" viewBox="0 0 124 124"><defs><style>.cls-1{fill:#101828;stroke:#101828;}.cls-1,.cls-2{stroke-miterlimit:10;}.cls-2{fill:#079b7e;stroke:#079b7e;}</style></defs><path class="cls-1" d="M82.45,6.82a10.58,10.58,0,0,0-10.14,7.6L18.82,25.64A3.52,3.52,0,0,0,16,29.09v4H5.52A3.51,3.51,0,0,0,2,36.62V68.83a3.52,3.52,0,0,0,3.52,3.52H16v4.93a3.51,3.51,0,0,0,2.79,3.44l5.53,1.16v25.28a10,10,0,0,0,7.73,9.75,10.12,10.12,0,0,0,2.31.27,10,10,0,0,0,10-10v-4.58h.7A17.19,17.19,0,0,0,61.7,89.71l10.61,2.23A10.55,10.55,0,0,0,93,89V17.38A10.57,10.57,0,0,0,82.45,6.82ZM16,65.32H9V40.13h7Zm21.32,41.84a3,3,0,1,1-6,0V83.36l6,1.25v22.55Zm7.73-11.61h-.7V86.08L54.8,88.27A10.14,10.14,0,0,1,45.08,95.55ZM71.89,84.67,23.06,74.43V31.94L71.89,21.7ZM86,89a3.53,3.53,0,0,1-7,0V17.38a3.53,3.53,0,1,1,7,0Z"/><path class="cls-2" d="M106.6,22.6a3.47,3.47,0,0,0,2.24-.81L115.9,16a3.52,3.52,0,0,0-4.47-5.43l-7.07,5.84a3.52,3.52,0,0,0,2.24,6.23Z"/><path class="cls-2" d="M115.9,89.49l-7.06-5.84a3.52,3.52,0,0,0-4.48,5.42l7.07,5.84a3.48,3.48,0,0,0,2.23.81,3.52,3.52,0,0,0,2.24-6.23Z"/><path class="cls-2" d="M118.48,49.39H103.57a3.52,3.52,0,1,0,0,7h14.91a3.52,3.52,0,1,0,0-7Z"/></svg>