<svg id="Layer_1" data-name="Layer 1" xmlns="http://www.w3.org/2000/svg" viewBox="0 0 124 124"><defs><style>.cls-1{fill:#079b7e;}.cls-2{fill:#101828;}</style></defs><path class="cls-1" d="M69.46,36.09a3,3,0,1,1,0-5.93H86.2a3,3,0,1,1,0,5.93Z"/><path class="cls-1" d="M37.16,48.84a3,3,0,1,1,0-5.93h49a3,3,0,1,1,0,5.93Z"/><path class="cls-1" d="M37.16,61.39a3,3,0,1,1,0-5.93h49a3,3,0,1,1,0,5.93Z"/><g id="g736"><g id="path738"><path class="cls-2" d="M45.93,23.17a3.6,3.6,0,0,1-3.58-3.83,3.54,3.54,0,0,1,1.22-2.46L59.64,2.82a3.57,3.57,0,0,1,4.72,0L80.43,16.88a3.59,3.59,0,0,1-2.36,6.29,3.59,3.59,0,0,1-2.36-.89L62,10.28l-13.71,12A3.59,3.59,0,0,1,45.93,23.17Z"/></g></g><g id="g740"><g id="path742"><path class="cls-2" d="M5.52,122.07a3.59,3.59,0,0,1-3.59-3.59V55.2a3.6,3.6,0,0,1,1.22-2.7l21.1-18.45a3.53,3.53,0,0,1,2.36-.89A3.59,3.59,0,0,1,29,39.45L9.1,56.83V114.9H114.9V56.83L95,39.45a3.59,3.59,0,0,1,2.36-6.29,3.53,3.53,0,0,1,2.36.89l21.1,18.45a3.63,3.63,0,0,1,1.22,2.7v63.28a3.59,3.59,0,0,1-3.59,3.59Z"/></g></g><g id="g764"><g id="path766"><path class="cls-1" d="M97.39,70.66a3.59,3.59,0,0,1-3.59-3.59V23.17H30.2v43.9a3.59,3.59,0,0,1-7.18,0V19.58A3.59,3.59,0,0,1,26.61,16H97.39A3.59,3.59,0,0,1,101,19.58V67.07A3.59,3.59,0,0,1,97.39,70.66Z"/></g></g><g id="g748"><g id="path750"><path class="cls-2" d="M7.62,120.33A2.64,2.64,0,0,1,5,115.73L116.36,53.37a2.64,2.64,0,1,1,2.58,4.6"/><path class="cls-2" d="M6.33,121.62a3.59,3.59,0,0,1-3.13-1.84,3.59,3.59,0,0,1,1.38-4.88L115.9,52.54a3.57,3.57,0,0,1,1.75-.46,3.59,3.59,0,0,1,1.75,6.72L8.08,121.16A3.57,3.57,0,0,1,6.33,121.62Z"/></g></g><g id="g744"><g id="path746"><path class="cls-2" d="M116.83,121.15a3.6,3.6,0,0,1-1.75-.46L4.78,58.9A3.59,3.59,0,0,1,3.4,54a3.57,3.57,0,0,1,4.88-1.38l110.31,61.79a3.59,3.59,0,0,1-1.76,6.72Z"/></g></g></svg>