<svg id="Layer_1" data-name="Layer 1" xmlns="http://www.w3.org/2000/svg" viewBox="0 0 124 124"><defs><style>.cls-1{fill:#101828;}.cls-2{fill:#079b7e;stroke:#079b7e;stroke-miterlimit:10;}</style></defs><path class="cls-1" d="M97.3,90.16a3.52,3.52,0,0,1-2.53-1L72.5,66.85a3.59,3.59,0,0,1,5.07-5.07L99.83,84.05a3.58,3.58,0,0,1-2.53,6.11Z"/><path class="cls-2" d="M62,32.2a3.52,3.52,0,0,1-2.53-1.05l-9.22-9.22a3.57,3.57,0,0,1,0-5.06,3.57,3.57,0,0,1,5.06,0l5.91,5.91a1.11,1.11,0,0,0,1.56,0L77.91,7.65a3.57,3.57,0,0,1,5.06,0,3.57,3.57,0,0,1,0,5.06L64.53,31.15A3.52,3.52,0,0,1,62,32.2Z"/><path class="cls-1" d="M62,119.4a18.12,18.12,0,0,1-12.82-5.27L5.16,73.2A3.62,3.62,0,0,1,4,70.58V42.06A3.59,3.59,0,0,1,7.6,38.48H45.14a21.86,21.86,0,0,1,15.57,6.45l.51.51a1.11,1.11,0,0,0,1.56,0l.51-.51a21.88,21.88,0,0,1,15.57-6.45H116.4A3.59,3.59,0,0,1,120,42.06V70.58a3.57,3.57,0,0,1-1.15,2.62l-44,40.9A18.11,18.11,0,0,1,62,119.4ZM12.29,45.64a1.1,1.1,0,0,0-1.1,1.1v21.8a1.08,1.08,0,0,0,.35.8L54.19,109a11,11,0,0,0,15.62,0l42.65-39.66a1.08,1.08,0,0,0,.35-.8V46.74a1.1,1.1,0,0,0-1.1-1.1H78.86A14.8,14.8,0,0,0,68.35,50L50.84,67.51a1.09,1.09,0,0,0,.31,1.77,14.87,14.87,0,0,0,16.81-3L76.32,58A3.58,3.58,0,1,1,81.39,63L73,71.39a22,22,0,0,1-31.14,0,3.59,3.59,0,0,1,0-5.07L56.16,52.06a1.11,1.11,0,0,0,0-1.56L55.65,50a14.8,14.8,0,0,0-10.51-4.35Z"/></svg>