<svg id="Layer_1" data-name="Layer 1" xmlns="http://www.w3.org/2000/svg" viewBox="0 0 124 124"><defs><style>.cls-1{fill:#101828;}.cls-2{fill:#079b7e;}</style></defs><g id="g565"><g id="g571"><g id="path573"><path class="cls-1" d="M12.61,114.74A10.61,10.61,0,0,1,2,104.14V19.86A10.61,10.61,0,0,1,12.61,9.26h98.78A10.61,10.61,0,0,1,122,19.86v84.28a10.61,10.61,0,0,1-10.61,10.6Zm0-98.32a3.45,3.45,0,0,0-3.44,3.44v84.28a3.45,3.45,0,0,0,3.44,3.44h98.78a3.45,3.45,0,0,0,3.44-3.44V19.86a3.45,3.45,0,0,0-3.44-3.44Z"/></g></g><g id="g575"><g id="path577"><path class="cls-1" d="M48,51.54a3.43,3.43,0,0,1-1.37-.28A3.56,3.56,0,0,1,44.37,48V12.84a3.59,3.59,0,0,1,7.17,0V41a23.47,23.47,0,0,1,20.92,0V12.84a3.59,3.59,0,0,1,7.17,0V48a3.56,3.56,0,0,1-2.21,3.31,3.56,3.56,0,0,1-3.91-.77,16.3,16.3,0,0,0-23,0A3.6,3.6,0,0,1,48,51.54Z"/></g></g><g id="g579"><g id="path581"><path class="cls-2" d="M33.91,100.7a3.59,3.59,0,0,1,0-7.17H83.07a10.46,10.46,0,1,0,0-20.92H27.35a3.59,3.59,0,0,1,0-7.17H83.07a17.63,17.63,0,1,1,0,35.26Z"/></g></g><g id="g583"><g id="path585"><path class="cls-2" d="M26.89,72.61a3.59,3.59,0,0,1-2.54-6.12l7-7a3.59,3.59,0,0,1,5.07,0,3.57,3.57,0,0,1,0,5.06l-7,7A3.6,3.6,0,0,1,26.89,72.61Z"/></g></g><g id="g587"><g id="path589"><path class="cls-2" d="M33.91,79.63a3.56,3.56,0,0,1-2.54-1l-7-7a3.59,3.59,0,0,1,0-5.07,3.59,3.59,0,0,1,5.07,0l7,7a3.59,3.59,0,0,1-2.53,6.12Z"/></g></g></g></svg>