<svg id="Layer_1" data-name="Layer 1" xmlns="http://www.w3.org/2000/svg" viewBox="0 0 124 124"><defs><style>.cls-1{fill:#101828;}.cls-2{fill:#079b7e;}</style></defs><path class="cls-1" d="M15.29,122a13.31,13.31,0,0,1-13-16A61,61,0,0,1,42.93,60.51a1.21,1.21,0,0,0,.82-1,1.24,1.24,0,0,0-.47-1.18,31.3,31.3,0,1,1,37.46,0,1.25,1.25,0,0,0-.47,1.18,1.24,1.24,0,0,0,.82,1c.79.26,1.57.53,2.35.82a3.55,3.55,0,0,1,2.08,4.58A3.55,3.55,0,0,1,80.94,68a53.72,53.72,0,0,0-17.68-3.4L62,64.6l-1.17,0A54.31,54.31,0,0,0,9.25,107.4a6.26,6.26,0,0,0,1.26,5.21,6.07,6.07,0,0,0,4.78,2.27H32.22a3.56,3.56,0,0,1,0,7.12ZM62,57.45h1.1a24.14,24.14,0,1,0-2.28,0Z"/><path class="cls-2" d="M92.73,122A11.68,11.68,0,0,1,82,114.72a39.69,39.69,0,0,1-1.89-6,3.56,3.56,0,0,1,2.64-4.29,3.31,3.31,0,0,1,.83-.1A3.55,3.55,0,0,1,87,107.09,32.27,32.27,0,0,0,88.53,112a4.63,4.63,0,0,0,4.21,2.87h15.1a4.48,4.48,0,0,0,4.13-2.69,33,33,0,0,0,2.91-12.9A32.12,32.12,0,0,0,112,86.6,4.48,4.48,0,0,0,107.79,84H92.87a4.35,4.35,0,0,0-4.2,2.74,41.24,41.24,0,0,0-1.62,5.07A3.55,3.55,0,0,1,83.6,94.5H50.71a1.19,1.19,0,0,0-.87.37l-3.56,3.66a1.22,1.22,0,0,0,0,1.71L50,104a1.19,1.19,0,0,0,.87.37H64.39a3.56,3.56,0,0,1,0,7.12H48.85a3.56,3.56,0,0,1-2.54-1.07l-8.37-8.51a3.59,3.59,0,0,1,0-5l8.22-8.46a3.56,3.56,0,0,1,2.55-1.08H80a1.23,1.23,0,0,0,1.16-.84c.31-.94.62-1.74.86-2.38a11.44,11.44,0,0,1,10.82-7.3h15a11.65,11.65,0,0,1,10.64,6.83A39.06,39.06,0,0,1,122,99.27,40.32,40.32,0,0,1,118.5,115a11.6,11.6,0,0,1-10.64,7Z"/><circle class="cls-2" cx="103.85" cy="99.31" r="4.78"/><circle class="cls-2" cx="103.85" cy="99.31" r="3.56"/></svg>