<svg id="Layer_1" data-name="Layer 1" xmlns="http://www.w3.org/2000/svg" viewBox="0 0 124 124"><defs><style>.cls-1{fill:#101828;stroke:#101828;}.cls-1,.cls-2{stroke-miterlimit:10;}.cls-2{fill:#079b7e;stroke:#079b7e;}</style></defs><path class="cls-1" d="M77.86,122H28.26a11.13,11.13,0,0,1-11.12-11.12V78.76a3.52,3.52,0,1,1,7,0v32.12A4.09,4.09,0,0,0,28.26,115H76.4L99.83,91.54V78.76a3.52,3.52,0,1,1,7,0V93a3.5,3.5,0,0,1-1,2.48L80.34,121A3.5,3.5,0,0,1,77.86,122Z"/><path class="cls-1" d="M103.34,27.2a3.52,3.52,0,0,1-3.51-3.52V13.12A4.09,4.09,0,0,0,95.75,9H28.26a4.09,4.09,0,0,0-4.09,4.09V23.68a3.52,3.52,0,1,1-7,0V13.12A11.13,11.13,0,0,1,28.26,2H95.75a11.13,11.13,0,0,1,11.11,11.12V23.68A3.53,3.53,0,0,1,103.34,27.2Z"/><path class="cls-1" d="M77.86,122a3.52,3.52,0,0,1-3.52-3.52V93a3.53,3.53,0,0,1,3.52-3.52h25.48a3.52,3.52,0,0,1,2.49,6L80.34,121A3.51,3.51,0,0,1,77.86,122Zm3.51-25.49V110L94.86,96.51Z"/><path class="cls-1" d="M77.86,122a3.52,3.52,0,0,1-2.49-6l25.49-25.49a3.51,3.51,0,0,1,5,5L80.34,121A3.47,3.47,0,0,1,77.86,122Z"/><path class="cls-2" d="M49.6,68.21a3.57,3.57,0,0,1-1.35-.27l-7.41-3.07-7.41,3.07a3.51,3.51,0,0,1-4.85-3.52l.63-8L24,50.32a3.51,3.51,0,0,1,1.85-5.7l7.8-1.87,4.2-6.84a3.51,3.51,0,0,1,6,0L48,42.75l7.8,1.87a3.51,3.51,0,0,1,1.86,5.7l-5.22,6.1.64,8a3.52,3.52,0,0,1-3.51,3.79ZM40.84,57.55a3.5,3.5,0,0,1,1.35.27l3.46,1.43-.3-3.73A3.56,3.56,0,0,1,46.18,53l2.43-2.84L45,49.25a3.5,3.5,0,0,1-2.17-1.59l-2-3.19-2,3.19a3.52,3.52,0,0,1-2.18,1.59l-3.64.87L35.5,53a3.52,3.52,0,0,1,.84,2.56L36,59.25l3.46-1.43A3.49,3.49,0,0,1,40.84,57.55Z"/><path class="cls-2" d="M91.91,68.21a3.49,3.49,0,0,1-1.34-.27l-7.41-3.07-7.41,3.07a3.52,3.52,0,0,1-4.86-3.52l.64-8-5.22-6.1a3.51,3.51,0,0,1,1.86-5.7L76,42.75l4.19-6.84a3.51,3.51,0,0,1,6,0l4.2,6.84,7.8,1.87a3.51,3.51,0,0,1,1.85,5.7l-5.21,6.1.63,8a3.52,3.52,0,0,1-3.51,3.79ZM83.16,57.55a3.49,3.49,0,0,1,1.34.27L88,59.25l-.29-3.73A3.47,3.47,0,0,1,88.5,53l2.43-2.84-3.64-.87a3.52,3.52,0,0,1-2.18-1.59l-2-3.19-2,3.19A3.5,3.5,0,0,1,79,49.25l-3.64.87L77.82,53a3.56,3.56,0,0,1,.83,2.56l-.29,3.73,3.45-1.43A3.5,3.5,0,0,1,83.16,57.55Z"/><path class="cls-1" d="M115.1,82.27H8.9a3.66,3.66,0,0,1-3.78-3.51V23.68A3.66,3.66,0,0,1,8.9,20.17H115.1a3.65,3.65,0,0,1,3.77,3.51V78.76A3.65,3.65,0,0,1,115.1,82.27Zm-102.42-7h98.64v-48H12.68Z"/></svg>