<svg id="Layer_1" data-name="Layer 1" xmlns="http://www.w3.org/2000/svg" viewBox="0 0 124 124"><defs><style>.cls-1{fill:#101828;stroke:#101828;}.cls-1,.cls-2{stroke-miterlimit:10;}.cls-2{fill:#079b7e;stroke:#079b7e;}</style></defs><path class="cls-1" d="M120.45,97.25,71.23,15.62a10.77,10.77,0,0,0-18.46,0L3.55,97.25a10.78,10.78,0,0,0,9.23,16.35h98.44a10.78,10.78,0,0,0,9.23-16.35Zm-6.64,7a3,3,0,0,1-2.59,1.5H12.78a3,3,0,0,1-2.54-4.5L59.46,19.65a3,3,0,0,1,5.08,0l49.22,81.63A3,3,0,0,1,113.81,104.28Z"/><path class="cls-2" d="M62,42.55c-3,0-5.3,1.59-5.3,4.42,0,8.63,1,21,1,29.65,0,2.24,2,3.18,4.28,3.18,1.74,0,4.2-.94,4.2-3.18,0-8.63,1-21,1-29.65C67.26,44.14,64.86,42.55,62,42.55Z"/><path class="cls-2" d="M62,84.81A5.58,5.58,0,0,0,62,96a5.58,5.58,0,0,0,0-11.16Z"/></svg>