<svg xmlns="http://www.w3.org/2000/svg" width="52" height="52" viewBox="0 0 52 52"><g transform="translate(-901)"><rect width="52" height="52" rx="14" transform="translate(901)" fill="#fecd07"/><g transform="translate(1476.195 -2096.903)"><path d="M24.5,1.1H7.5A5.406,5.406,0,0,0,2.1,6.5V21.31a5.406,5.406,0,0,0,5.4,5.4H11.61l2.931,3.51a1.9,1.9,0,0,0,2.916,0l2.932-3.51H24.5a5.406,5.406,0,0,0,5.4-5.4V6.5a5.405,5.405,0,0,0-5.4-5.4ZM28.1,21.31a3.6,3.6,0,0,1-3.6,3.6H19.969a.9.9,0,0,0-.69.323l-3.2,3.833h-.154l-3.2-3.833a.9.9,0,0,0-.691-.323H7.5a3.6,3.6,0,0,1-3.6-3.6V6.5A3.6,3.6,0,0,1,7.5,2.9H24.5a3.6,3.6,0,0,1,3.6,3.6Z" transform="translate(-565.097 2107.902)" fill="#101828"/><path d="M20.8,11.12h-.842l.134-.4a2.649,2.649,0,0,0-2.511-3.491,2,2,0,0,0-1.616.822L13.734,11.12H11.409A2.452,2.452,0,0,0,8.96,13.569v4.256a2.452,2.452,0,0,0,2.449,2.449h8.148A2.334,2.334,0,0,0,21.8,18.566l1.244-4.495h0A2.331,2.331,0,0,0,20.8,11.12ZM10.759,17.825V13.569a.65.65,0,0,1,.649-.649h1.884v5.554H11.408a.65.65,0,0,1-.649-.649Zm10.553-4.233-1.244,4.5a.531.531,0,0,1-.511.388H15.093V12.313l2.328-3.2a.2.2,0,0,1,.161-.082.848.848,0,0,1,.8,1.119l-.531,1.583a.9.9,0,0,0,.853,1.187H20.8a.53.53,0,0,1,.511.67Z" transform="translate(-565.097 2107.902)" fill="#079b7e"/></g></g></svg>