<svg xmlns="http://www.w3.org/2000/svg" width="52" height="52" viewBox="0 0 52 52"><g transform="translate(-901)"><rect width="52" height="52" rx="14" transform="translate(901)" fill="#fecd07"/><g transform="translate(1515.1 -2097.659)"><path d="M16.1,17.692a.9.9,0,1,0,0-1.8h-7.7a.9.9,0,1,0,0,1.8Z" transform="translate(-604.1 2107.661)" fill="#079b7e"/><path d="M30,26.856H28.728V5.634a2.3,2.3,0,0,0-2.3-2.3H13.642a2.3,2.3,0,0,0-2.3,2.3v4.6H5.568a2.3,2.3,0,0,0-2.3,2.3V26.857H2a.9.9,0,1,0,0,1.8H30a.9.9,0,0,0,0-1.8ZM13.146,5.634a.5.5,0,0,1,.495-.495h12.79a.5.5,0,0,1,.5.495V26.857h-5.7V12.528a2.3,2.3,0,0,0-2.3-2.3H13.146ZM5.073,12.528a.5.5,0,0,1,.495-.495H18.93a.5.5,0,0,1,.494.495V26.856H15.738V22.924a2.071,2.071,0,0,0-2.068-2.068H10.823a2.071,2.071,0,0,0-2.069,2.068v3.932H5.073Zm8.865,14.328H10.555V22.924a.268.268,0,0,1,.269-.268h2.847a.269.269,0,0,1,.268.268v3.932Z" transform="translate(-604.1 2107.661)" fill="#101828"/></g></g></svg>