<svg xmlns="http://www.w3.org/2000/svg" width="15.428" height="16" viewBox="0 0 15.428 16"><path d="M19,9.714H17.571V6.857A2.862,2.862,0,0,0,14.714,4H7.857A2.862,2.862,0,0,0,5,6.857V17.143A2.862,2.862,0,0,0,7.857,20H18.429a2,2,0,0,0,2-2V11.143A1.429,1.429,0,0,0,19,9.714ZM11.571,16H8.143a.571.571,0,1,1,0-1.143h3.429a.571.571,0,1,1,0,1.143Zm2.857-3.429H8.143a.571.571,0,1,1,0-1.143h6.286a.571.571,0,0,1,0,1.143Zm0-3.429H8.143A.571.571,0,1,1,8.143,8h6.286a.571.571,0,0,1,0,1.143ZM19.286,18a.857.857,0,1,1-1.714,0V10.857H19a.287.287,0,0,1,.286.286Z" transform="translate(-5 -4)" fill="#fecd07"/></svg>