<svg xmlns="http://www.w3.org/2000/svg" width="18.3" height="11.795" viewBox="0 0 18.3 11.795"><g transform="translate(0 -90.998)"><g transform="translate(0 90.998)"><g transform="translate(0 0)"><path d="M18.2,96.584C18.037,96.355,14.143,91,9.187,91S.264,96.355.1,96.584a.535.535,0,0,0,0,.624c.163.228,4.129,5.586,9.086,5.586s8.85-5.357,9.014-5.586A.534.534,0,0,0,18.2,96.584Zm-9.014,4.065a3.754,3.754,0,1,1,0-7.506,3.753,3.753,0,1,1,0,7.506Z" transform="translate(0 -90.998)" fill="#fecd07"/></g></g><g transform="translate(7.507 95.287)"><g transform="translate(0 0)"><path d="M211.686,211a1.61,1.61,0,1,0,0,3.217,1.608,1.608,0,1,0,0-3.217Z" transform="translate(-210.006 -210.999)" fill="#fecd07"/></g></g></g></svg>