<svg id="logo" xmlns="http://www.w3.org/2000/svg" width="175" height="33.6" viewBox="0 0 175 33.6">
  <path id="Path_1" data-name="Path 1" d="M23.274,21.033c4.779-.364,6.933-2.017,8.514-5.027v-.033l3.837-6.647V9.293C38.149,4.365,40.639,0,46.293,0H59.082a.826.826,0,0,1,.841.827V9.69a.826.826,0,0,1-.841.827H50.13c-3.029,0-4.24,1.124-5.452,3.6-2.389,4.762-4.341,8.532-7.74,12.4-2.793,3.208-6.865,4.729-13.563,5.027a.855.855,0,0,1-.875-.827v-8.9A.835.835,0,0,1,23.274,21" transform="translate(-14.928)" fill="#fecd07" fill-rule="evenodd"/>
  <path id="Path_2" data-name="Path 2" d="M13.63,0H.841A.826.826,0,0,0,0,.827V9.69a.826.826,0,0,0,.841.827H9.793c3.029,0,6.832-.4,6.361,3.142C19.115,8.135,24.971,0,13.63,0" transform="translate(0)" fill="#fecd07" fill-rule="evenodd"/>
  <path id="Path_3" data-name="Path 3" d="M287.258,27.664h-4.476V2.1h4.476ZM271.474,17.048a5.579,5.579,0,0,0,2.457-.463,1.441,1.441,0,0,0,.909-1.323,1.46,1.46,0,0,0-.875-1.323,5.207,5.207,0,0,0-2.356-.463,6.4,6.4,0,0,0-3.1.761,4.349,4.349,0,0,0-1.649,1.984,12.978,12.978,0,0,0,2.255.628,15.36,15.36,0,0,0,2.389.231Zm-.067,4.233a11.409,11.409,0,0,1-2.524-.3,12.259,12.259,0,0,1-2.356-.794,4.149,4.149,0,0,0,1.615,2.513,6.81,6.81,0,0,0,4.038.959c1.851,0,.841,0,1.38-.066.5-.033,1.043-.066,1.582-.132a10.953,10.953,0,0,0,1.548-.2c.5-.1.909-.2,1.279-.3V27.1a14.118,14.118,0,0,1-1.481.331c-.538.1-1.077.2-1.615.265s-1.077.132-1.582.165-.976.066-1.447.066a11.872,11.872,0,0,1-4.375-.728,9.321,9.321,0,0,1-3.13-1.984,7.719,7.719,0,0,1-1.851-2.943,10.676,10.676,0,0,1-.606-3.6A10.284,10.284,0,0,1,262.522,15a9.1,9.1,0,0,1,1.851-2.976A8.5,8.5,0,0,1,267.335,10a10.328,10.328,0,0,1,4.038-.728,9.193,9.193,0,0,1,3.163.43,7.485,7.485,0,0,1,2.524,1.257,5.9,5.9,0,0,1,1.649,1.885,5.361,5.361,0,0,1,.572,2.447,5.6,5.6,0,0,1-.572,2.48,5.133,5.133,0,0,1-1.615,1.885,7.911,7.911,0,0,1-2.49,1.224,10.822,10.822,0,0,1-3.2.43Zm-12.856,6.383h-4.476V8.251c.034.066.1.1.135.165a3.046,3.046,0,0,0,4.173,0c.067-.066.1-.132.135-.165V27.7ZM246.3,18.536a7.957,7.957,0,0,0-.269-2.05,4.2,4.2,0,0,0-.909-1.654,4.262,4.262,0,0,0-1.582-1.124,6.133,6.133,0,0,0-2.356-.4,5.088,5.088,0,0,0-3.635,1.257,5.246,5.246,0,0,0-1.312,3.969,5.3,5.3,0,0,0,1.313,3.969,5.088,5.088,0,0,0,3.635,1.257,4.46,4.46,0,0,0,2.356-.4,3.92,3.92,0,0,0,1.582-1.124,4.671,4.671,0,0,0,.909-1.654A6.724,6.724,0,0,0,246.3,18.536Zm-4.577,9.326a7.807,7.807,0,0,1-3.163-.6,6.734,6.734,0,0,1-2.288-1.654v9.392H231.8V18.569a10.729,10.729,0,0,1,.606-3.638,8.07,8.07,0,0,1,1.817-2.943A8.9,8.9,0,0,1,237.181,10a10.328,10.328,0,0,1,4.038-.728,10.968,10.968,0,0,1,4.139.761,8.555,8.555,0,0,1,4.813,4.994,10.246,10.246,0,0,1,.606,3.506,10.442,10.442,0,0,1-.673,3.671,8.709,8.709,0,0,1-1.885,2.943,9.173,9.173,0,0,1-2.861,1.984A8.8,8.8,0,0,1,241.724,27.862Zm-21.37-13.2c.976.231,1.918.5,2.861.761a9.652,9.652,0,0,1,2.524,1.091,5.471,5.471,0,0,1,1.817,1.786,5.181,5.181,0,0,1,.673,2.844,6.186,6.186,0,0,1-.774,3.109,6.123,6.123,0,0,1-2.12,2.117,9.216,9.216,0,0,1-3.163,1.191,20.851,20.851,0,0,1-3.9.364,9.577,9.577,0,0,1-1.75-.066c-.639-.033-1.279-.1-1.918-.165s-1.279-.165-1.885-.265-1.178-.2-1.716-.331V22.968a8.538,8.538,0,0,0,1.548.3c.606.1,1.245.165,1.918.231s1.38.1,2.053.132c.707.033,1.346.066,1.986.066a12.715,12.715,0,0,0,4.173-.5,1.8,1.8,0,0,0,1.313-1.786c0-.86-.034-.463-.135-.694a2.045,2.045,0,0,0-.707-.761A6.983,6.983,0,0,0,221.5,19.2a29.914,29.914,0,0,0-2.962-.827c-.606-.132-1.312-.331-2.154-.562a9.682,9.682,0,0,1-2.423-1.025,6.786,6.786,0,0,1-1.986-1.918,5.526,5.526,0,0,1-.808-3.142,5.463,5.463,0,0,1,.707-2.943,5.732,5.732,0,0,1,1.952-2.05,9.524,9.524,0,0,1,2.962-1.191,16.483,16.483,0,0,1,3.7-.4,7.585,7.585,0,0,1,1.582.066c.606.033,1.212.1,1.817.132.606.066,1.212.132,1.784.231s1.111.231,1.615.364V10.07a8.7,8.7,0,0,0-1.346-.265c-.572-.1-1.144-.165-1.817-.231-.639-.066-1.312-.132-1.986-.165s-1.312-.066-1.918-.066a8.322,8.322,0,0,0-3.8.6,1.863,1.863,0,0,0-1.01,1.687c0,.728.1.761.269,1.025a2.36,2.36,0,0,0,.841.761,7.375,7.375,0,0,0,1.514.628c.639.2,1.413.43,2.322.661Zm-12.99,13h-4.476V2.1h4.476ZM191.58,17.048a5.579,5.579,0,0,0,2.457-.463,1.441,1.441,0,0,0,.909-1.323,1.46,1.46,0,0,0-.875-1.323,5.206,5.206,0,0,0-2.356-.463,6.4,6.4,0,0,0-3.1.761,4.349,4.349,0,0,0-1.649,1.984,12.979,12.979,0,0,0,2.255.628,15.36,15.36,0,0,0,2.389.231Zm-.034,4.233a11.409,11.409,0,0,1-2.524-.3,12.26,12.26,0,0,1-2.356-.794,4.149,4.149,0,0,0,1.615,2.513,6.809,6.809,0,0,0,4.038.959c1.851,0,.841,0,1.38-.066.5-.033,1.043-.066,1.582-.132a10.954,10.954,0,0,0,1.548-.2c.5-.1.909-.2,1.279-.3V27.1a14.12,14.12,0,0,1-1.481.331c-.538.1-1.077.2-1.615.265s-1.077.132-1.582.165-.976.066-1.447.066a11.872,11.872,0,0,1-4.375-.728,9.321,9.321,0,0,1-3.13-1.984,7.72,7.72,0,0,1-1.851-2.943,10.676,10.676,0,0,1-.606-3.6A10.284,10.284,0,0,1,182.662,15a9.1,9.1,0,0,1,1.851-2.976A8.5,8.5,0,0,1,187.474,10a10.328,10.328,0,0,1,4.038-.728,9.193,9.193,0,0,1,3.163.43,7.486,7.486,0,0,1,2.524,1.257,5.9,5.9,0,0,1,1.649,1.885,5.36,5.36,0,0,1,.572,2.447,5.6,5.6,0,0,1-.572,2.48,5.133,5.133,0,0,1-1.615,1.885,7.911,7.911,0,0,1-2.49,1.224,10.822,10.822,0,0,1-3.2.43Zm-12.923,2.48a4.062,4.062,0,0,0,.942-.066,5.8,5.8,0,0,0,.74-.132v4.1c-.337.033-.572.1-.808.132a6.491,6.491,0,0,1-1.01.066,9.6,9.6,0,0,1-3.87-.728,9.1,9.1,0,0,1-2.928-1.984,8.628,8.628,0,0,1-1.851-2.943,9.98,9.98,0,0,1-.639-3.638V2.1h4.476v7.937h5.755v4.1h-5.755v4.431a5.777,5.777,0,0,0,1.212,3.77,4.647,4.647,0,0,0,3.769,1.455Z" transform="translate(-112.258 -1.406)" fill="#fff"/>
  <path id="Path_4" data-name="Path 4" d="M419.6,3.778a2.831,2.831,0,0,1,.774-1.984A2.763,2.763,0,0,1,422.461,1a2.667,2.667,0,0,1,2.087.827,2.778,2.778,0,0,1,.74,1.951,2.8,2.8,0,0,1-.74,1.984,3.046,3.046,0,0,1-4.173,0,2.89,2.89,0,0,1-.774-1.984" transform="translate(-278.388 -0.669)" fill="#fecd07"/>
</svg>
