<?xml version="1.0" encoding="UTF-8"?>
<svg id="Layer_2" data-name="Layer 2" xmlns="http://www.w3.org/2000/svg" viewBox="0 0 472.47 96.51">
  <defs>
    <style>
      .cls-1, .cls-2 {
        fill: #fc0;
      }

      .cls-2 {
        fill-rule: evenodd;
      }

      .cls-3 {
        fill: #fff;
      }
    </style>
  </defs>
  <g id="Layer_2-2" data-name="Layer 2">
    <g id="Layer_1-2" data-name="Layer 1-2">
      <g>
        <path class="cls-2" d="M70.34,96.51h16.92c1.25,0,2.28-1.02,2.28-2.28v-20.89c0-1.25-1.02-2.28-2.28-2.28h-9.35c-4.4,0-8.01-3.6-8.01-8.01v-28.51c0-4.4,3.6-8.01,8.01-8.01h28.98c1.25,0,2.28-1.02,2.28-2.28V3.37c0-1.25-1.02-2.28-2.28-2.28h-36.55c-14.23,0-25.88,11.64-25.88,25.88v43.66c0,14.23,11.64,25.88,25.88,25.88"/>
        <path class="cls-2" d="M2.28,1.09h34.71c1.25,0,2.28,1.02,2.28,2.28v20.89c0,1.25-1.02,2.28-2.28,2.28H2.28c-1.25,0-2.28-1.02-2.28-2.28V3.37C0,2.12,1.02,1.09,2.28,1.09"/>
        <path class="cls-2" d="M26.45,20.52h12.81v9.12c0,.46-.26.86-.68,1.04-.42.19-.89.11-1.23-.2l-10.91-9.96h0Z"/>
        <path class="cls-3" d="M472.47,75.26h-12.72V1.05h12.72v74.21ZM427.42,44.41c2.97,0,5.3-.44,7-1.32s2.54-2.17,2.54-3.87-.83-2.99-2.49-3.87c-1.66-.88-3.9-1.33-6.73-1.33-3.75,0-6.7.72-8.85,2.17-2.16,1.45-3.73,3.37-4.72,5.78,1.91.78,4.05,1.38,6.41,1.8,2.37.42,4.65.64,6.84.64ZM427.31,56.7c-2.33,0-4.72-.28-7.16-.85s-4.68-1.34-6.73-2.33c.64,3.04,2.17,5.48,4.61,7.31,2.44,1.84,6.27,2.76,11.5,2.76,1.13,0,2.44-.05,3.92-.16s3-.23,4.56-.37c1.55-.14,3.04-.34,4.45-.58,1.41-.25,2.62-.55,3.6-.9v11.98c-1.27.35-2.67.67-4.19.95s-3.06.53-4.61.74-3.06.37-4.51.48-2.81.16-4.08.16c-4.73,0-8.89-.71-12.46-2.12-3.57-1.41-6.54-3.34-8.9-5.78-2.37-2.44-4.13-5.3-5.3-8.59-1.17-3.29-1.75-6.77-1.75-10.44s.6-7.37,1.8-10.65c1.2-3.29,2.95-6.17,5.25-8.64,2.3-2.47,5.12-4.42,8.48-5.83,3.36-1.41,7.19-2.12,11.5-2.12,3.25,0,6.25.42,9.01,1.27s5.14,2.05,7.16,3.6c2.01,1.55,3.57,3.39,4.66,5.51,1.1,2.12,1.64,4.49,1.64,7.1s-.55,5-1.64,7.16c-1.1,2.16-2.63,3.99-4.61,5.51-1.98,1.52-4.35,2.7-7.1,3.55-2.76.85-5.8,1.27-9.12,1.27h.02ZM390.64,75.26h-12.72V18.91c.12.15.24.29.37.43,1.45,1.59,3.45,2.38,5.99,2.38s4.52-.8,5.94-2.38c.15-.17.29-.34.42-.52v56.43h0ZM355.65,48.75c0-2.12-.26-4.1-.79-5.94s-1.38-3.45-2.54-4.82c-1.17-1.38-2.67-2.46-4.51-3.23-1.84-.78-4.06-1.17-6.68-1.17-4.38,0-7.83,1.22-10.34,3.66s-3.76,6.27-3.76,11.5,1.25,9.06,3.76,11.5,5.95,3.66,10.34,3.66c2.62,0,4.84-.39,6.68-1.17s3.34-1.85,4.51-3.23,2.01-2.99,2.54-4.82c.53-1.84.79-3.82.79-5.94ZM342.61,75.79c-3.46,0-6.47-.58-9.01-1.75s-4.73-2.77-6.57-4.82v27.24h-12.72v-47.7c0-3.75.58-7.26,1.75-10.55s2.9-6.15,5.19-8.59c2.3-2.44,5.11-4.36,8.43-5.78,3.32-1.41,7.17-2.12,11.55-2.12s8.37.74,11.77,2.23c3.39,1.48,6.24,3.46,8.53,5.94,2.3,2.47,4.01,5.34,5.14,8.59s1.7,6.64,1.7,10.18c0,3.82-.64,7.37-1.91,10.65-1.27,3.29-3.06,6.15-5.35,8.59-2.3,2.44-5.02,4.36-8.16,5.78-3.14,1.41-6.59,2.12-10.34,2.12h0ZM281.66,37.52c2.76.71,5.48,1.45,8.16,2.23,2.69.78,5.09,1.82,7.21,3.13s3.83,3.02,5.14,5.14c1.31,2.12,1.96,4.88,1.96,8.27s-.74,6.54-2.23,9.01c-1.48,2.47-3.5,4.51-6.04,6.1s-5.55,2.74-9.01,3.45c-3.46.71-7.17,1.06-11.13,1.06-1.55,0-3.23-.05-5.04-.16-1.8-.11-3.62-.27-5.46-.48-1.84-.21-3.64-.46-5.41-.74s-3.39-.6-4.88-.95v-11.98c1.2.35,2.67.65,4.4.9,1.73.25,3.57.46,5.51.64s3.9.32,5.88.42c1.98.11,3.85.16,5.62.16,5.44,0,9.4-.49,11.87-1.48,2.47-.99,3.71-2.72,3.71-5.19,0-.64-.14-1.31-.42-2.01-.28-.71-.95-1.43-2.01-2.17s-2.63-1.48-4.72-2.23c-2.08-.74-4.89-1.54-8.43-2.38-1.7-.42-3.75-.95-6.15-1.59s-4.7-1.64-6.89-3.02-4.06-3.23-5.62-5.57c-1.55-2.33-2.33-5.37-2.33-9.12,0-3.32.67-6.18,2.01-8.59,1.34-2.4,3.2-4.38,5.57-5.94,2.37-1.55,5.18-2.7,8.43-3.45,3.25-.74,6.78-1.11,10.6-1.11,1.34,0,2.86.05,4.56.16s3.41.25,5.14.42c1.73.18,3.43.41,5.09.69s3.2.64,4.61,1.06v11.98c-.99-.28-2.28-.55-3.87-.8s-3.3-.48-5.14-.69c-1.84-.21-3.73-.37-5.67-.48-1.94-.11-3.76-.16-5.46-.16-5.3,0-8.9.57-10.81,1.7-1.91,1.13-2.86,2.76-2.86,4.88,0,1.2.25,2.21.74,3.02s1.29,1.54,2.39,2.17c1.1.64,2.54,1.24,4.35,1.8,1.8.57,4.01,1.2,6.63,1.91h0ZM244.66,75.26h-12.72V1.05h12.72v74.21ZM199.61,44.41c2.97,0,5.3-.44,7-1.32s2.54-2.17,2.54-3.87-.83-2.99-2.49-3.87c-1.66-.88-3.9-1.33-6.73-1.33-3.75,0-6.7.72-8.85,2.17-2.16,1.45-3.73,3.37-4.72,5.78,1.91.78,4.05,1.38,6.41,1.8,2.37.42,4.65.64,6.84.64h0ZM199.5,56.7c-2.33,0-4.72-.28-7.16-.85s-4.68-1.34-6.73-2.33c.64,3.04,2.17,5.48,4.61,7.31,2.44,1.84,6.27,2.76,11.5,2.76,1.13,0,2.44-.05,3.92-.16s3-.23,4.56-.37c1.55-.14,3.04-.34,4.45-.58,1.41-.25,2.62-.55,3.6-.9v11.98c-1.27.35-2.67.67-4.19.95s-3.06.53-4.61.74-3.06.37-4.51.48-2.81.16-4.08.16c-4.73,0-8.89-.71-12.46-2.12s-6.54-3.34-8.9-5.78c-2.37-2.44-4.13-5.3-5.3-8.59s-1.75-6.77-1.75-10.44.6-7.37,1.8-10.65c1.2-3.29,2.95-6.17,5.25-8.64,2.3-2.47,5.12-4.42,8.48-5.83s7.19-2.12,11.5-2.12c3.25,0,6.25.42,9.01,1.27s5.14,2.05,7.16,3.6c2.01,1.55,3.57,3.39,4.66,5.51,1.09,2.12,1.64,4.49,1.64,7.1s-.55,5-1.64,7.16c-1.1,2.16-2.63,3.99-4.61,5.51-1.98,1.52-4.35,2.7-7.1,3.55-2.76.85-5.79,1.27-9.12,1.27h.02ZM162.61,63.91c1.06,0,1.94-.05,2.65-.16.71-.11,1.41-.23,2.12-.37v11.87c-.92.14-1.68.26-2.28.37s-1.57.16-2.92.16c-4.1,0-7.77-.71-11.02-2.12s-6.02-3.34-8.32-5.78c-2.3-2.44-4.06-5.3-5.3-8.59s-1.85-6.8-1.85-10.55V1.02h12.72v23.03h16.43v11.87h-16.43v12.83c0,4.45,1.15,8.09,3.45,10.92,2.3,2.83,5.88,4.24,10.76,4.24h0Z"/>
        <path class="cls-1" d="M376.11,8.05c0-2.26.72-4.17,2.17-5.72,1.45-1.55,3.45-2.33,5.99-2.33s4.52.8,5.94,2.39c1.41,1.59,2.12,3.48,2.12,5.67s-.71,4.19-2.12,5.78-3.39,2.38-5.94,2.38-4.54-.8-5.99-2.38c-1.45-1.59-2.17-3.52-2.17-5.78"/>
      </g>
    </g>
  </g>
</svg>