<svg xmlns="http://www.w3.org/2000/svg" xmlns:xlink="http://www.w3.org/1999/xlink" width="507.144" height="462.673" viewBox="0 0 507.144 462.673"><defs><clipPath id="a"><rect width="507.145" height="462.673" fill="none"/></clipPath><clipPath id="c"><rect width="43.405" height="94.959" fill="none"/></clipPath></defs><g clip-path="url(#a)"><g clip-path="url(#a)"><path d="M197.6,332.271c-10.12-9.407-17.13-25.778-17.13-25.778a14.757,14.757,0,0,1-4.6-5.394c-2.432-4.475-4.425-9.353-2.188-11.3,2.9-2.515,4.965-1.206,4.965-1.206s-1.815-4.341,1.558-6.961,5.808-.39,5.808-.39a5.371,5.371,0,0,1,1.906-6.232c3.893-2.954,6.446-.819,6.446-.819a6.329,6.329,0,0,1,2.065-4.263c2.091-1.622,3.714-2.82,8.4,2.866s7.15,14.519,13.409,13.843c4.221-.452,13.066-17.567,19.468-9.9,1.237,1.481-4.757,8.059-7.367,14.613-3.565,8.929.139,12.735,1.558,24.283,2,16.365,61.376,72.929,61.376,72.929l26.312-45.786,37.525,18.392-30.984,76.685-51.136,2.122s-20.449-25.547-39.066-51.85-31.767-49.768-38.324-55.855" transform="translate(-22.269 -34.632)" fill="#fff"/><path d="M274.845,440.841h.047l51.131-2.112a.988.988,0,0,0,.865-.618L357.864,361.4a.975.975,0,0,0,.009-.712.96.96,0,0,0-.476-.523L319.871,341.76a.982.982,0,0,0-.712-.055.965.965,0,0,0-.557.445l-25.7,44.75c-7.428-7.162-58.4-56.721-60.19-71.489a80.535,80.535,0,0,0-1.8-9.447c-1.253-5.205-2.091-8.65.2-14.363a52.51,52.51,0,0,1,4.611-8.345c2.334-3.688,3.746-5.917,2.591-7.256a6.065,6.065,0,0,0-4.523-2.34c-3.84-.052-7.546,3.977-10.8,7.522-1.844,2.017-3.932,4.293-5.013,4.409-3.746.4-6.043-3.367-8.682-7.721A48.792,48.792,0,0,0,205.4,272.1c-4.932-5.992-7.15-5.027-9.744-3.016a6.558,6.558,0,0,0-2.212,3.571c-1.331-.445-3.558-.591-6.3,1.5a6.319,6.319,0,0,0-2.613,5.323,5.953,5.953,0,0,0-2.7.049,6.029,6.029,0,0,0-2.4,1.235,6.554,6.554,0,0,0-2.334,6.414,6.335,6.335,0,0,0-4.253,1.784c-2.942,2.557-.28,8.362,1.97,12.472a16.357,16.357,0,0,0,4.672,5.57c.981,2.239,7.7,16.953,17.286,25.853,3.591,3.327,9.471,12.407,16.906,23.91,5.841,9.024,13.1,20.261,21.29,31.82,18.423,26.028,38.936,51.638,39.106,51.895a.986.986,0,0,0,.779.368Zm50.467-4.046L275.3,438.868c-2.624-3.3-21.569-27.177-38.725-51.437-8.159-11.533-15.418-22.747-21.241-31.757-7.789-12.062-13.448-20.784-17.218-24.283-9.867-9.146-16.867-25.288-16.936-25.453a.973.973,0,0,0-.389-.442,14.066,14.066,0,0,1-4.253-5.027c-3.721-6.843-3.364-9.267-2.406-10.132,2.265-1.966,3.77-1.147,3.833-1.108a1,1,0,0,0,.588.124.956.956,0,0,0,.549-.24.94.94,0,0,0,.308-.507.975.975,0,0,0-.042-.591c-.062-.146-1.471-3.685,1.276-5.8s4.571-.445,4.594-.429a.994.994,0,0,0,.591.231.975.975,0,0,0,.936-1.345,4.4,4.4,0,0,1,1.6-5.066c3.162-2.408,5.163-.9,5.24-.835a.95.95,0,0,0,.481.192.975.975,0,0,0,1.074-.864c0-.011,0-.024,0-.036a5.441,5.441,0,0,1,1.7-3.539c1.889-1.465,2.935-2.274,7.046,2.719a46.956,46.956,0,0,1,3.714,5.534c2.734,4.52,5.569,9.2,10.559,8.66,1.815-.2,3.77-2.34,6.231-5.036,2.834-3.117,6.377-6.928,9.345-6.889a4.1,4.1,0,0,1,3.019,1.622c0,.734-1.555,3.194-2.708,5.01a55.563,55.563,0,0,0-4.766,8.676c-2.507,6.281-1.558,10.129-.289,15.54a74.676,74.676,0,0,1,1.776,9.218c2.026,16.55,59.232,71.2,61.665,73.523a.987.987,0,0,0,1.219.1.957.957,0,0,0,.3-.321l25.853-45.034,35.882,17.6Z" transform="translate(-22.119 -34.498)" fill="#313131"/><path d="M184.643,309.6a2.588,2.588,0,0,0,1.558-.458c2.045-1.449.776-6.125-1.208-10.84,2.539,2.9,5.334,5.524,7.413,5.908a2.639,2.639,0,0,0,1.058.013,2.534,2.534,0,0,0,.974-.412c2.165-1.557,1.27-5.781-.536-10.262,3.753,4.471,7.864,8.082,10.432,6.555,1.442-.858,2.455-3.243-2.545-14.207l-.045-.1c2.913,3.571,6.065,6.749,8.221,7.061a2.343,2.343,0,0,0,1.017-.049,2.367,2.367,0,0,0,.9-.481c2.584-2.246-.233-10.366-1.159-12.8a.945.945,0,0,0-.2-.321.961.961,0,0,0-.312-.221.972.972,0,0,0-.37-.087.962.962,0,0,0-.374.065.982.982,0,0,0-.325.2,1.061,1.061,0,0,0-.22.312.937.937,0,0,0-.087.37,1,1,0,0,0,.064.374c1.672,4.4,2.757,9.725,1.7,10.645a.4.4,0,0,1-.174.075.432.432,0,0,1-.192-.01c-2.951-.422-10.319-10.32-14.264-16.453a.974.974,0,0,0-1.67,1c0,.055,3.118,5.55,5.718,11.237,4.851,10.649,3.34,11.691,3.325,11.691-2.188,1.294-9.89-7.708-15.722-16.92a.975.975,0,0,0-1.655,1.03c5.124,8.339,9.39,18.236,7.345,19.686a.649.649,0,0,1-.273.094.677.677,0,0,1-.289-.026c-2.9-.536-9.233-8.572-12.543-13.456a.972.972,0,0,0-1.721.312.993.993,0,0,0,.071.708c4.8,8.536,7.808,16.761,6.488,17.729-.562.4-2.416-.413-3.725-1.388a.973.973,0,0,0-1.165,1.559c.509.379,2.618,1.874,4.489,1.874m9.289,5.466a.843.843,0,0,0,.282-.049c10.453-3.117,16.079-12.7,16.312-13.1a.951.951,0,0,0,.146-.368,1,1,0,0,0-.01-.393,1.022,1.022,0,0,0-.166-.357.987.987,0,0,0-.3-.261,1.013,1.013,0,0,0-.374-.124,1,1,0,0,0-.393.032,1.043,1.043,0,0,0-.348.189.955.955,0,0,0-.244.308c-.055.094-5.5,9.306-15.192,12.211a.971.971,0,0,0-.692,1.076,1,1,0,0,0,.331.6.983.983,0,0,0,.642.233Z" transform="translate(-23.01 -35.332)" fill="#313131"/><path d="M217.616,322.662a.911.911,0,0,0,.445-.107,1.042,1.042,0,0,0,.3-.234.973.973,0,0,0,.226-.712.908.908,0,0,0-.107-.364c-5.341-10.366,1.24-22.236,1.307-22.35a.982.982,0,0,0,.12-.364,1,1,0,0,0-.026-.381.97.97,0,0,0-.174-.341,1,1,0,0,0-.286-.25,1.033,1.033,0,0,0-.363-.12.932.932,0,0,0-.38.029.961.961,0,0,0-.341.169,1.061,1.061,0,0,0-.25.289c-.3.523-7.169,12.9-1.338,24.206a.973.973,0,0,0,.357.387.961.961,0,0,0,.51.145" transform="translate(-27.647 -38.351)" fill="#313131"/><rect width="128.43" height="9.407" transform="translate(239.294 394.811) rotate(-4.794)" fill="#079b7e"/><path d="M275.331,461.863h.078l127.958-10.74a.972.972,0,0,0,.888-1.05v0l-.779-9.352a.963.963,0,0,0-.1-.364.941.941,0,0,0-.234-.3,1.009,1.009,0,0,0-.717-.227L274.461,450.587a.974.974,0,0,0-.887,1.045l.78,9.352a.968.968,0,0,0,.974.89Zm126.925-12.6L276.215,459.835l-.624-7.425,126.054-10.577Z" transform="translate(-35.275 -56.713)" fill="#313131"/><path d="M154.739,360.632,281.587,350l36.163,94.336L190.9,454.977Z" transform="translate(-19.952 -45.129)" fill="#079b7e"/><g transform="translate(254.363 304.865)" opacity="0.15" style="isolation:isolate"><g clip-path="url(#c)"><path d="M292.016,350.6l7.242-.61,36.163,94.336-7.421.624Z" transform="translate(-292.016 -349.994)" fill="#fff"/></g></g><path d="M190.755,455.809h.078l126.858-10.65a.975.975,0,0,0,.825-1.319L282.353,349.5a.987.987,0,0,0-.989-.624L154.507,359.522a.975.975,0,0,0-.825,1.316l36.164,94.385a.944.944,0,0,0,.363.436.992.992,0,0,0,.546.15m125.479-12.468L191.4,453.814l-35.435-92.451L280.8,350.881Z" transform="translate(-19.808 -44.984)" fill="#313131"/><path d="M327.855,445.788h.078l7.428-.624a.975.975,0,0,0,.825-1.319L300.023,349.5a.987.987,0,0,0-.989-.624l-7.25.61a.939.939,0,0,0-.423.14.971.971,0,0,0-.4,1.176l36.016,94.356a.974.974,0,0,0,.88.624Zm6.05-2.456-5.4.452-35.26-92.468,5.226-.436Z" transform="translate(-37.509 -44.985)" fill="#313131"/><path d="M228.048,413.5c-3.955-7.12-2.76-15.338,2.669-18.357s13.033.3,16.986,7.419,2.757,15.338-2.669,18.357-13.031-.3-16.986-7.419" transform="translate(-29.104 -50.807)" fill="#fff"/><path d="M240.482,422.889a9.876,9.876,0,0,0,4.874-1.247,10.975,10.975,0,0,0,5.341-8.354,18.216,18.216,0,0,0-2.328-11.324c-4.211-7.578-12.456-11.075-18.312-7.8s-7.26,12.108-3.049,19.679a18.164,18.164,0,0,0,8.4,7.927,12.5,12.5,0,0,0,5.071,1.116m6.231-19.974a16.264,16.264,0,0,1,2.069,10.132,8.512,8.512,0,0,1-12.543,6.977,16.276,16.276,0,0,1-7.484-7.094c-3.682-6.632-2.656-14.269,2.3-17.027s11.967.357,15.65,7.013Z" transform="translate(-28.957 -50.666)" fill="#313131"/><path d="M524.184,423.482c-4.672,19.01-16.851,91.838-53.122,89.827s-124.126-37.035-144.247-39.745-68.363-6.135-68.564-16.608l4.578-.383,50.5-4.231s-14.257-7.854-9.7-12.195c1.955-1.866,29.268,7.34,44.386,9.414s97.484,8.082,97.484,8.082l9.6-46.761,35.337-10.327Z" transform="translate(-33.299 -51.648)" fill="#fff"/><path d="M472.385,483.963c32.456,0,45.429-58.5,51.02-83.7.61-2.719,1.132-5.072,1.557-6.912a.984.984,0,0,0-.037-.582.965.965,0,0,0-.361-.455l-33.787-22.92a.976.976,0,0,0-.4-.156,1,1,0,0,0-.427.032L454.605,379.6a.962.962,0,0,0-.441.276.973.973,0,0,0-.237.462l-9.422,45.913c-8.8-.646-82.5-6.07-96.558-8.014-7.009-.965-16.75-3.49-25.331-5.725-13.907-3.617-18.518-4.676-19.833-3.432a3.611,3.611,0,0,0-1.168,3.175c.429,3.327,5.287,6.968,8.456,9.008l-52.057,4.37a.979.979,0,0,0-.9.991c.174,8.929,26.009,12.579,57.211,16.1,4.53.514,8.815,1,12.2,1.449,7.665,1.03,25.642,6.928,46.464,13.755,33.632,11.013,75.463,24.752,97.874,26,.51.023,1.023.039,1.522.039m50.546-90.4c-.413,1.742-.888,3.9-1.425,6.291-5.451,24.738-18.229,82.174-49.128,82.174h-1.409c-22.154-1.232-63.853-14.908-97.336-25.9-20.905-6.86-38.974-12.78-46.815-13.84-3.4-.462-7.7-.946-12.241-1.459-19.9-2.246-52.688-5.947-55.289-13.3l53.965-4.566a.993.993,0,0,0,.882-1.093.961.961,0,0,0-.5-.749c-2.664-1.472-9.669-5.979-10.076-9.134a1.653,1.653,0,0,1,.514-1.442c1.487-.468,10.294,1.829,18.074,3.844,8.628,2.242,18.408,4.791,25.549,5.774,14.943,2.057,96.714,8.027,97.539,8.082a.984.984,0,0,0,.661-.2.968.968,0,0,0,.367-.585l9.476-46.172,34.341-10.038Zm-12.979-186a15.174,15.174,0,1,1,15.161-15.187v.013a15.168,15.168,0,0,1-15.162,15.174h0Zm-45.344-16.537a12.953,12.953,0,1,1,12.941-12.964v.011a12.948,12.948,0,0,1-12.942,12.953h0Z" transform="translate(-33.153 -21.29)" fill="#313131"/><path d="M538.588,208.545a16.155,16.155,0,1,0-7.9-2.091,16.154,16.154,0,0,0,7.9,2.091m.039-30.355a14.2,14.2,0,1,1-7.372,2.053,14.2,14.2,0,0,1,7.372-2.053M493.245,192a13.926,13.926,0,1,0-4.171-27.214,13.77,13.77,0,0,0-8.161,6.85A13.931,13.931,0,0,0,493.24,192Zm0-25.921a12.005,12.005,0,1,1-6.214,1.742,12.007,12.007,0,0,1,6.214-1.742Z" transform="translate(-61.807 -21.165)" fill="#313131"/><path d="M456.434,282.356,404.5,397.018,495.68,293.836l15.473-50.689-37.774-12.329Z" transform="translate(-52.157 -29.762)" fill="#fff"/><path d="M404.346,397.832a.968.968,0,0,0,.4-.087.991.991,0,0,0,.33-.247l91.177-103.159a1,1,0,0,0,.2-.368l15.465-50.68a.982.982,0,0,0-.631-1.219l-37.774-12.329a.981.981,0,0,0-1.23.623l-16.933,51.492L403.438,396.464a.978.978,0,0,0,.358,1.219.949.949,0,0,0,.55.148M494.675,293.18l-86.757,98.194,49.258-108.758a.157.157,0,0,1,.039-.1L473.852,231.9,509.8,243.634Z" transform="translate(-52.009 -29.617)" fill="#313131"/><path d="M520.04,252.589l-6.23,18.869s-6.479-2.837-23.3-14.52Z" transform="translate(-63.248 -32.569)" fill="#313131"/><path d="M513.753,272.614a.977.977,0,0,0,.4-.087.966.966,0,0,0,.523-.585l5.451-16.637a.981.981,0,0,0-.635-1.233,1,1,0,0,0-.362-.044l-28.757,2.119a.975.975,0,0,0-.483,1.777c16.7,11.6,23.189,14.487,23.462,14.605a.909.909,0,0,0,.4.086m4.08-16.568-4.672,14.2c-2.22-1.138-8.394-4.51-19.9-12.383Z" transform="translate(-63.113 -32.755)" fill="#313131"/><path d="M475.861,211.911c-4.965,17.028-3.582,31.953,16.609,38.3,14.055,4.411,29.629-6.313,34.6-23.38s-2.476-34.174-16.617-38.3-29.631,6.359-34.59,23.379" transform="translate(-61.047 -24.194)" fill="#fff"/><path d="M498.746,252.043a25.76,25.76,0,0,0,12.241-3.211c7.935-4.279,14.079-12.22,16.874-21.822,5.108-17.508-2.639-35.233-17.279-39.512s-30.688,6.492-35.82,24c-6.167,21.135-.523,34.058,17.256,39.512a22.741,22.741,0,0,0,6.728,1.029m5.264-63.5a21.313,21.313,0,0,1,6.027.857c13.6,3.975,20.76,20.621,15.955,37.1-2.647,9.071-8.456,16.592-15.924,20.621a22.566,22.566,0,0,1-17.451,2.065c-16.773-5.151-21.85-16.935-15.963-37.107,4.1-14.1,15.613-23.566,27.351-23.566Z" transform="translate(-60.906 -24.056)" fill="#313131"/><path d="M478.292,206.143s4.088-12.906,12.771-19.6a25.1,25.1,0,0,1,29.045-1.473c11.346,6.881,20.581,20.567,12.63,41.141-4.151,10.825-14.538,18.118-14.538,18.118l4.773-7.988s-4.111-1.558-3.613-3.647c0,0,11.743-8.378,7.133-14.067-4.236-5.214-8.5,2.338-8.5,2.338a152.225,152.225,0,0,1-12.942-11.48,120.017,120.017,0,0,1-11.867-14.566Z" transform="translate(-61.672 -23.357)" fill="#313131"/><path d="M518.056,245.143a.991.991,0,0,0,.561-.174c.436-.3,10.653-7.578,14.889-18.554,6.744-17.465,1.869-33.286-13.043-42.326a26.15,26.15,0,0,0-30.139,1.558c-8.869,6.858-12.934,19.538-13.106,20.083a.974.974,0,0,0,1.518,1.068l14.079-10.661A119.948,119.948,0,0,0,504.208,210a156.35,156.35,0,0,0,13.035,11.565.963.963,0,0,0,.779.179.982.982,0,0,0,.654-.468c.545-.966,2.383-3.5,4.268-3.647a3.113,3.113,0,0,1,2.632,1.473,3.677,3.677,0,0,1,.779,2.946c-.623,4.559-7.685,9.656-7.787,9.711a.935.935,0,0,0-.382.569c-.5,2.073,1.742,3.577,3.161,4.31l-4.212,7.056a.966.966,0,0,0,.834,1.473Zm-11.68-63.2a25.238,25.238,0,0,1,13.113,3.819c6.736,4.094,21.422,16.156,12.233,39.956-2.29,5.931-6.541,10.81-9.8,13.926l1.767-2.962a.974.974,0,0,0-.132-1.177.963.963,0,0,0-.348-.233c-1.207-.468-2.8-1.457-3.006-2.229,1.6-1.219,7.514-5.985,8.161-10.747a5.6,5.6,0,0,0-1.231-4.442c-1.285-1.558-2.733-2.338-4.306-2.182-2.336.2-4.252,2.377-5.178,3.678a149.849,149.849,0,0,1-12.021-10.731,119.573,119.573,0,0,1-11.759-14.441.973.973,0,0,0-1.352-.257l-.042.03L480.3,203.175c1.76-4.181,5.451-11.565,11.252-16.007a24.126,24.126,0,0,1,14.795-5.226Z" transform="translate(-61.528 -23.216)" fill="#313131"/><path d="M487.338,227.018a.974.974,0,0,0,.257-1.916,21.857,21.857,0,0,1-3.115-1.075c.327-1.38,1.854-5.681,3.31-9.5a.974.974,0,0,0-1.579-1.091c-.016.016-.031.032-.045.05a.986.986,0,0,0-.19.348c-3.833,10.022-3.59,10.583-3.419,10.988s.436,1.052,4.53,2.158a.983.983,0,0,0,.252.037m13.042-6.228a.918.918,0,0,0,.249,0,.982.982,0,0,0,.7-1.192c0-.063-1.884-6.874-9-7.521a.974.974,0,1,0-.174,1.941,8.491,8.491,0,0,1,7.289,6.079.973.973,0,0,0,.942.7Zm-14.888-9.749a.975.975,0,0,0,.623-1.723,7,7,0,0,0-8.5-.3.974.974,0,0,0,1.132,1.582,5.107,5.107,0,0,1,6.129.219.992.992,0,0,0,.62.219Zm37.027,18.329a.974.974,0,0,0,.358-1.878l1.682-1.558a.973.973,0,1,0-1.315-1.434l-2.858,2.634a.973.973,0,0,0,.327,1.629l1.472.537a.986.986,0,0,0,.335.07Zm-30.347-7.513a1.122,1.122,0,1,1,1.122-1.125,1.122,1.122,0,0,1-1.122,1.125h0Zm-11.555-4.465a1.122,1.122,0,1,1,1.121-1.123h0a1.122,1.122,0,0,1-1.12,1.122Zm10.924,17.3c3.38,0,5.451-2.938,6.175-4.777a.974.974,0,0,0-1.814-.7c-.078.211-1.846,4.575-5.809,3.289a.974.974,0,1,0-.6,1.847,6.423,6.423,0,0,0,2.048.343" transform="translate(-61.537 -26.785)" fill="#313131"/><path d="M524.772,244.669a4.146,4.146,0,1,1,4.143-4.15v0a4.145,4.145,0,0,1-4.143,4.145" transform="translate(-67.13 -30.479)" fill="#fecd07"/><path d="M524.57,245.341h.435a5.662,5.662,0,1,0-.435,0m0-8.3a3.419,3.419,0,1,1-.261.016Z" transform="translate(-66.937 -30.175)" fill="#313131"/><path d="M323.074,350.491c11.68-3.484,14.865,11.86,19.716,14.808,6.938,4.2,11.681.523,18.766,2.674a16.42,16.42,0,0,1,9.812,8.042l-20.161,49.877,57.623-4.832.779,9.352-52.818,4.435c1.066.162,2.212.334,3.457.507,7.833,1.114,93.552,7.614,93.552,7.614l8.231-40.09c15.006-.162,19.226,12.985,28.68,15.884s18.236-2.651,31.677-2.518,24.264,21.317,24.264,21.317,5.341-103.475-7.07-116.317S486.053,298.1,486.053,298.1s-23.221,18.058-34.746,13.021-5.388-21.609-5.388-21.609-45.164-4.03-56.627-1.5-66.219,62.486-66.219,62.486" transform="translate(-41.658 -37.029)" fill="#fff"/><path d="M453.671,443.865a.985.985,0,0,0,.958-.78l8.067-39.309c8.231.179,12.958,4.6,17.528,8.885,3.161,2.954,6.144,5.749,10.069,6.951,5.568,1.716,10.77.646,16.8-.591a68.87,68.87,0,0,1,15.161-1.882c12.692.124,23.3,20.579,23.407,20.79a.958.958,0,0,0,.447.436.98.98,0,0,0,1.4-.832c.218-4.24,5.217-104.04-7.343-117.041s-52.3-22.991-54-23.38a1.007,1.007,0,0,0-.436-.01.962.962,0,0,0-.4.182c-.226.179-22.886,17.645-33.756,12.9-10.551-4.6-4.922-20.261-4.86-20.378a.974.974,0,0,0-.408-1.166.925.925,0,0,0-.417-.143c-1.854-.166-45.46-4.007-56.931-1.481-11.61,2.548-64.491,60.277-66.734,62.729a.972.972,0,0,0,.4,1.521.984.984,0,0,0,.6.039c7.258-2.167,10.9,3.678,14.172,8.829,1.62,2.587,3.022,4.816,4.758,5.875,4.236,2.564,7.787,2.34,11.167,2.184a21.336,21.336,0,0,1,7.787.585,15.7,15.7,0,0,1,9.017,7.169l-19.989,49.5a.978.978,0,0,0,.123.942.95.95,0,0,0,.382.312.985.985,0,0,0,.484.087l56.658-4.754.623,7.428-51.815,4.355a.966.966,0,0,0-.62.3.977.977,0,0,0,.562,1.631q1.588.248,3.457.507c7.787,1.108,90.118,7.35,93.622,7.614Zm8.5-42.046h-.28a.953.953,0,0,0-.943.784l-8.059,39.254c-7.787-.6-66.6-5.072-86.583-6.912l43.233-3.633a.972.972,0,0,0,.888-1.05v0l-.779-9.352a1.006,1.006,0,0,0-.342-.663,1.033,1.033,0,0,0-.709-.224L352.534,424.7l19.631-48.476a.965.965,0,0,0,0-.777,17.308,17.308,0,0,0-10.42-8.576,22.982,22.982,0,0,0-8.5-.67c-3.4.188-6.331.348-10.045-1.9-1.348-.784-2.694-2.97-4.127-5.245-2.858-4.553-6.635-10.577-13.433-10.191,19.467-21.119,55.249-58.147,63.774-60.009,10.123-2.236,47.859.784,55.124,1.42-1.176,4.043-4.049,17.144,6.292,21.632a12.6,12.6,0,0,0,5.07.969c11.541,0,27.525-11.691,30.283-13.82,4.509,1.17,41.224,10.983,52.612,22.766,10.738,11.1,7.732,94.3,6.954,112.222-3.6-5.969-12.576-18.766-23.438-18.867a70.853,70.853,0,0,0-15.574,1.927c-5.763,1.183-10.746,2.2-15.831.637-3.5-1.066-6.323-3.718-9.345-6.516-4.729-4.4-10.071-9.4-19.392-9.4" transform="translate(-41.52 -36.898)" fill="#313131"/><path d="M245.646,132.7s-9.582,31.794-41.761,34.431-53.69-27.525-53.69-27.525-18.371,38.421-58.83,29.66-39.2-39.122-39.2-39.122-38.839,9.788-39.479-24.16c-.652-34.517,36.28-25.593,36.28-25.593S45.31,66.367,58.731,58.725,84.3,64.438,84.3,64.438,67.033,18.909,110.927,7.321c45.943-12.127,62.106,24.3,62.106,24.3S179.082-7.554,227.5,2.9c39.665,8.573,35.18,43.441,35.18,43.441s76.694-12.048,64.531,62.175c-8.162,49.764-81.561,24.188-81.561,24.188" transform="translate(-1.635 -0.145)" fill="#fff"/><path d="M102.859,171.382A50.268,50.268,0,0,0,136.451,158.3,66.02,66.02,0,0,0,150.2,141.26c4.329,5.455,23.122,26.853,49.594,26.853,1.325,0,2.665-.047,4.02-.164,29.293-2.392,40.346-28.788,42.291-34.165,6.471,2.111,43.334,13.249,65.765-.1,8.8-5.26,14.25-13.732,16.15-25.165,3.571-21.822-.117-38.406-10.975-49.347C299.715,41.7,270.086,44.254,263.615,45.06a43.053,43.053,0,0,0-2.881-17.738C257.144,18.176,248.477,6.28,227.561,1.8c-16.429-3.546-29.855-1.847-39.884,5.066S173.832,23.91,172.53,28.687A51.2,51.2,0,0,0,159.666,14.02c-9.1-7.061-25.011-14.137-49.128-7.793-12.708,3.354-21.617,9.85-26.485,19.3-6.86,13.358-3.833,28.832-1.932,35.626-4.494-3.577-13.929-9.173-24.024-3.429C46.8,64.155,47.072,75.043,47.6,78.994c-4.487-.826-18.316-2.579-27.575,4.855-5.809,4.676-8.659,12.072-8.471,22,.174,9.353,3.223,16.366,9.072,20.855,10.3,7.879,25.958,5.416,30.423,4.5a36.287,36.287,0,0,0,4.5,15.525c4.415,8.1,14.15,18.7,35.452,23.344a55.98,55.98,0,0,0,11.853,1.312m47.19-32.9h-.087a.994.994,0,0,0-.461.174,1,1,0,0,0-.318.378,63.486,63.486,0,0,1-14.017,17.857c-12.552,11.043-27.255,14.808-43.683,11.277-16.25-3.523-28.033-11.231-34.108-22.282a33.644,33.644,0,0,1-4.328-15.853.987.987,0,0,0-.087-.436.976.976,0,0,0-.269-.348.992.992,0,0,0-.851-.2c-.186.047-18.858,4.617-29.971-3.9-5.341-4.094-8.137-10.6-8.3-19.343C13.387,96.536,16,89.655,21.306,85.384c10.191-8.2,27.163-4.232,27.336-4.193a.963.963,0,0,0,1.169-.7.985.985,0,0,0,.006-.5c-.143-.545-3.3-13.4,9.306-20.574s23.881,5,24.358,5.525a.97.97,0,0,0,.581.3.982.982,0,0,0,1.052-1.3c-.078-.2-7.786-20.979.78-37.525,4.594-8.939,13.091-15.1,25.231-18.3,23.357-6.164,38.675.639,47.436,7.427a48.042,48.042,0,0,1,13.533,16.319.973.973,0,0,0,1.854-.241c0-.148,2.4-14.547,14.935-23.17C198.463,1.878,211.363.273,227.233,3.7c16.115,3.476,26.8,11.69,31.769,24.338a40.546,40.546,0,0,1,2.655,18.026.968.968,0,0,0,.288.78.943.943,0,0,0,.833.261c.343-.055,34.566-5.167,52.952,13.4,10.4,10.474,13.907,26.5,10.434,47.656-1.775,10.833-6.9,18.844-15.223,23.8-23.361,13.9-64.633-.234-65.045-.375a.974.974,0,0,0-1.085.293,1,1,0,0,0-.184.348c-.093.312-9.787,31.173-40.921,33.738s-52.6-26.829-52.81-27.121a1.009,1.009,0,0,0-.376-.294.987.987,0,0,0-.47-.072Z" transform="translate(-1.489 0)" fill="#313131"/><path d="M380.549,326.6a.976.976,0,0,0,.973-.936c2.212-47.19-4.2-90.27-19.054-128.052A240.188,240.188,0,0,0,311.075,117.6c-37.829-38.92-77.4-52.722-77.8-52.854a.95.95,0,0,0-.387-.074.99.99,0,0,0-.387.087,1.007,1.007,0,0,0-.318.232.94.94,0,0,0-.2.34,1.015,1.015,0,0,0-.049.392.921.921,0,0,0,.111.38.951.951,0,0,0,.25.3.976.976,0,0,0,.348.179c.389.132,39.6,13.825,77.089,52.438,34.605,35.631,74.809,100.386,69.834,206.528a.969.969,0,0,0,.253.7.937.937,0,0,0,.306.225.963.963,0,0,0,.368.087Z" transform="translate(-29.906 -8.339)" fill="#313131"/><path d="M347.7,328.584h.087a.958.958,0,0,0,.661-.341.974.974,0,0,0,.227-.708c-3.894-44.837-14.219-85.112-30.735-119.691-13.24-27.689-30.423-51.817-51.107-71.7-35.235-33.9-68.9-43.876-69.233-43.978a1,1,0,0,0-.389-.049.968.968,0,0,0-.374.108,1,1,0,0,0-.3.247,1.059,1.059,0,0,0-.182.348.985.985,0,0,0-.03.39.936.936,0,0,0,.126.371.96.96,0,0,0,.261.291.983.983,0,0,0,.354.165c.328.1,33.608,9.983,68.524,43.588,32.208,31.018,72.42,89.171,81.165,190.078a.964.964,0,0,0,.306.624.953.953,0,0,0,.643.255" transform="translate(-25.313 -11.878)" fill="#313131"/><path d="M313.166,327.17a1.391,1.391,0,0,0,.241,0,.982.982,0,0,0,.7-1.186c-9.391-37.314-23.533-71.044-42.049-100.253a272.971,272.971,0,0,0-52.336-61.084c-33.942-29.225-63.291-38.577-63.587-38.663a.974.974,0,0,0-.575,1.854c.289.094,29.326,9.353,62.977,38.359,31.056,26.755,72.514,76.289,93.663,160.263a.975.975,0,0,0,.966.708Z" transform="translate(-19.979 -16.242)" fill="#313131"/><path d="M352.163,175.426l19.39,40.783,23.478-11.176-7.857-16.522,2.6-8.658-8.667-18.213Z" transform="translate(-45.409 -20.842)" fill="#fecd07"/><path d="M371.408,217.04a1,1,0,0,0,.421-.093l23.478-11.176a.983.983,0,0,0,.459-1.3l-7.694-16.179,2.484-8.3a.99.99,0,0,0-.047-.7l-8.667-18.213a.945.945,0,0,0-.553-.5.972.972,0,0,0-.74.039L351.6,174.4a.967.967,0,0,0-.5.553,1,1,0,0,0,.039.784l19.389,40.752a.982.982,0,0,0,.88.553Zm22.177-12.609-21.717,10.342-18.548-39.029,27.18-12.949,8.083,17-2.491,8.3a1.012,1.012,0,0,0,.054.7Z" transform="translate(-45.264 -20.698)" fill="#313131"/><path d="M289.71,178.742a21.549,21.549,0,1,1,21.531-21.567v.019a21.542,21.542,0,0,1-21.531,21.548" transform="translate(-34.575 -17.49)" fill="#fff"/><path d="M289.548,179.573a22.491,22.491,0,1,0-12.087-3.531,22.492,22.492,0,0,0,12.087,3.531m.039-43.086a20.54,20.54,0,1,1-8.7,1.916,20.541,20.541,0,0,1,8.7-1.916" transform="translate(-34.437 -17.354)" fill="#313131"/><path d="M288.388,170.575l13.763-16.42-18.292-1.38Z" transform="translate(-36.601 -19.699)" fill="#079b7e"/><path d="M288.243,171.407a.959.959,0,0,0,.74-.348l13.768-16.42a.969.969,0,0,0,.155-1,.994.994,0,0,0-.826-.6l-18.3-1.372a.965.965,0,0,0-1.012,1.208l4.529,17.792a.95.95,0,0,0,.724.709.678.678,0,0,0,.221.029m11.8-16.584-11.324,13.514-3.73-14.643Z" transform="translate(-36.457 -19.556)" fill="#313131"/><rect width="26.207" height="38.534" transform="translate(258.264 247.861) rotate(-21.305)" fill="#fecd07"/><path d="M310.334,319.908a1.01,1.01,0,0,0,.348-.062l24.412-9.537a1.026,1.026,0,0,0,.321-.2,1.011,1.011,0,0,0,.218-.312.979.979,0,0,0,.015-.747l-14.016-35.9a.97.97,0,0,0-1.258-.551l-.035.014-24.411,9.537a.985.985,0,0,0-.553,1.264l14.016,35.9a.945.945,0,0,0,.9.614Zm23.151-11.062L310.9,317.668,297.61,283.587l22.582-8.829Z" transform="translate(-38.078 -35.14)" fill="#313131"/><path d="M331.034,300.758a.981.981,0,0,0,.475-1.829l-21.149-11.753,7.592-22.991a.98.98,0,0,0,.07-.39.97.97,0,0,0-.087-.383.959.959,0,0,0-.578-.514.95.95,0,0,0-.392-.045,1.019,1.019,0,0,0-.377.114,1,1,0,0,0-.3.257.963.963,0,0,0-.174.355l-7.849,23.748a.99.99,0,0,0,.451,1.16l21.851,12.15a1.042,1.042,0,0,0,.47.123M376.4,207.652a.915.915,0,0,0,.443-.109.975.975,0,0,0,.421-1.307l-3.691-7.17a.976.976,0,0,0-1.737.888l3.7,7.178a.965.965,0,0,0,.864.523Zm-4.121,1.948a1.01,1.01,0,0,0,.444-.109.973.973,0,0,0,.424-1.31l0-.007L369.451,201a.974.974,0,1,0-1.788.771.929.929,0,0,0,.06.118l3.691,7.162a.97.97,0,0,0,.864.545Zm-65.8,229.472a.974.974,0,0,0,.113-1.944l-.044,0c-1.285-.094-3.049-.179-5.085-.283-9.072-.458-30.306-1.517-32.55-5.306a.862.862,0,0,1-.133-.465.848.848,0,0,1,.133-.462.964.964,0,0,0,.045-.744,1,1,0,0,0-.2-.328.953.953,0,0,0-.669-.325.921.921,0,0,0-.376.052.977.977,0,0,0-.328.192,1.059,1.059,0,0,0-.231.3,2.813,2.813,0,0,0-.328,1.394,2.775,2.775,0,0,0,.4,1.375c2.562,4.325,18.261,5.456,34.131,6.232,2.024.1,3.777.188,5.038.273Zm14.142-8.914a.938.938,0,0,0,.517-.152.977.977,0,0,0,.4-1.147.932.932,0,0,0-.2-.328.987.987,0,0,0-.3-.227l-6.159-2.9a.96.96,0,0,0-.746-.033.976.976,0,0,0-.079,1.8l6.151,2.9a.94.94,0,0,0,.419.09ZM454.784,433.5a.976.976,0,0,0,.117-1.943l-8.177-.965a.99.99,0,0,0-.392.013,1.021,1.021,0,0,0-.354.169.966.966,0,0,0-.261.293,1,1,0,0,0-.123.374.981.981,0,0,0,.523.982,1.014,1.014,0,0,0,.377.1l8.153.975Zm.056-41.027a.962.962,0,0,0,.61-.221.985.985,0,0,0,.337-.559l5.638-27.137a.976.976,0,0,0-.736-1.226,1.02,1.02,0,0,0-.4,0,.977.977,0,0,0-.767.828L453.87,391.3a.981.981,0,0,0,0,.383,1.008,1.008,0,0,0,.148.357.965.965,0,0,0,.274.27,1.067,1.067,0,0,0,.357.143.923.923,0,0,0,.189.027Zm-90.67-26.916a.965.965,0,0,0,.888-.575l11.253-25.721a.979.979,0,0,0,.017-.747,1,1,0,0,0-.516-.539,1.034,1.034,0,0,0-.369-.081.973.973,0,0,0-.373.065,1.009,1.009,0,0,0-.319.2.955.955,0,0,0-.216.312L363.275,364.2a.984.984,0,0,0,.506,1.287,1.017,1.017,0,0,0,.387.077Z" transform="translate(-34.406 -25.601)" fill="#313131"/><path d="M474.491,385.146l-21.6,66.658,7.732.569Zm-85.057-25.454L375.6,381.677l2.577,3.685Z" transform="translate(-48.431 -46.38)" fill="#313131"/><rect width="131.374" height="105.935" transform="translate(0.799 193.154)" fill="#fff"/><path d="M132.172,328.343H.784A.784.784,0,0,1,0,327.559V221.625a.784.784,0,0,1,.784-.784H132.172a.784.784,0,0,1,.784.784V327.564a.784.784,0,0,1-.784.784ZM1.578,326.783h129.8V222.405H1.578Z" transform="translate(0 -28.476)" fill="#101828"/><path d="M132.172,237.1H.784A.784.784,0,0,1,0,236.317V221.625a.784.784,0,0,1,.784-.784H132.172a.784.784,0,0,1,.784.784v14.7a.784.784,0,0,1-.784.784ZM1.578,235.539h129.8V222.4H1.578Z" transform="translate(0 -28.476)" fill="#101828"/><path d="M137.839,233.539a.793.793,0,0,1-.314-.068.778.778,0,0,1-.211-1.286l6.864-6.272a.784.784,0,1,1,1.055,1.148l-6.864,6.272a.786.786,0,0,1-.53.206" transform="translate(-17.673 -29.096)" fill="#101828"/><path d="M144.671,233.539a.786.786,0,0,1-.53-.206l-6.864-6.272a.784.784,0,1,1,1.055-1.148l6.864,6.272a.784.784,0,0,1-.523,1.354Z" transform="translate(-17.66 -29.096)" fill="#101828"/><rect width="43.095" height="18.152" transform="translate(79.756 272.071)" fill="#fecd07"/><path d="M134.54,331.16H91.446a.783.783,0,0,1-.784-.784V312.223a.784.784,0,0,1,.784-.784H134.54a.784.784,0,0,1,.784.784v18.153A.783.783,0,0,1,134.54,331.16Zm-42.32-1.56h41.535V313.007H92.219Z" transform="translate(-11.69 -40.158)" fill="#101828"/><path d="M113.76,328.176a.792.792,0,0,1-.562-.237l-5.017-5.2a.777.777,0,0,1,1.117-1.079l4.424,4.568,7.414-9.136a.784.784,0,0,1,1.211.986l-7.968,9.816a.812.812,0,0,1-.574.287Z" transform="translate(-13.923 -40.856)" fill="#101828"/><path d="M116.992,254.547H12.389a.784.784,0,0,1,0-1.56h104.6a.784.784,0,0,1,0,1.56Z" transform="translate(-1.506 -32.621)" fill="#101828"/><path d="M102.075,265.162H12.365a.784.784,0,1,1,0-1.56h89.708a.784.784,0,0,1,0,1.56Z" transform="translate(-1.483 -33.989)" fill="#101828"/><path d="M84.915,275.784H12.365a.784.784,0,1,1,0-1.56H84.914a.784.784,0,0,1,0,1.56Z" transform="translate(-1.483 -35.359)" fill="#101828"/><path d="M35.4,297.021H12.388a.784.784,0,0,1,0-1.56H35.4a.784.784,0,0,1,0,1.56Z" transform="translate(-1.506 -38.097)" fill="#101828"/><path d="M60.349,286.4H12.365a.784.784,0,1,1-.156-1.56.774.774,0,0,1,.156,0H60.348a.784.784,0,0,1,0,1.56Z" transform="translate(-1.483 -36.728)" fill="#101828"/></g></g></svg>