<svg xmlns="http://www.w3.org/2000/svg" width="349.262" height="354.72" viewBox="0 0 349.262 354.72"><g transform="translate(-7347 1019.883)"><path d="M1073.608,466.8c2.663-3.315,3.064-7.416.892-9.161s-6.089-.473-8.754,2.842-3.064,7.416-.892,9.161S1070.942,470.112,1073.608,466.8Z" transform="translate(6474.82 -1441.048)" fill="#fff"/><path d="M1065.342,469.171a4.33,4.33,0,0,1-2.772-.917,5.012,5.012,0,0,1-1.612-4.569,11.426,11.426,0,0,1,7.271-9.043,4.976,4.976,0,0,1,4.806.59c2.451,1.966,2.11,6.493-.79,10.082A9.462,9.462,0,0,1,1065.342,469.171Zm4.9-13.555a5.361,5.361,0,0,0-1.58.274,10.1,10.1,0,0,0-6.366,7.905,3.727,3.727,0,0,0,1.121,3.41c1.888,1.518,5.4.285,7.826-2.735s2.879-6.719,1-8.237A3.1,3.1,0,0,0,1070.242,455.617Z" transform="translate(6476.692 -1439.159)" fill="#313131"/><path d="M861.489,481.017l30.749,22.772-81.279-4.09L825.4,474.92l20.632-46.951,31.835,13.6Z" transform="translate(6661.468 -1419.695)" fill="#fff"/><path d="M890.412,502.621h-.031l-81.275-4.069a.659.659,0,0,1-.527-.991L823,472.793l20.622-46.9a.653.653,0,0,1,.859-.337l31.835,13.6a.666.666,0,0,1,.355.859l-16.19,39,30.308,22.424a.653.653,0,0,1,.237.331.661.661,0,0,1,0,.409.659.659,0,0,1-.634.451Zm-80.168-5.349,78.029,3.916-28.986-21.475a.658.658,0,0,1-.216-.78L875.2,440.082,844.568,427l-20.374,46.376-.032.069Z" transform="translate(6663.294 -1417.869)" fill="#313131"/><path d="M984.624,507.828s-2.955-6.9-14.286-11.468c-6.25-2.524,8.431-10.171,8.431-10.171l12.75,5.444Z" transform="translate(6544.798 -1462.733)" fill="#313131"/><path d="M982.763,506.649a.666.666,0,0,1-.362-.11.675.675,0,0,1-.243-.291c-.031-.069-3.025-6.725-13.924-11.114-1.581-.632-1.929-1.581-1.96-2.235-.169-3.478,8.6-8.216,10.35-9.133a.664.664,0,0,1,.282-.063.654.654,0,0,1,.282.063l12.755,5.444a.663.663,0,0,1,.209.147.653.653,0,0,1,.138.217.627.627,0,0,1,0,.5l-6.919,16.195a.669.669,0,0,1-.608.4Zm-5.8-21.57c-3.788,2.008-9.485,5.76-9.369,7.758,0,.416.4.78,1.133,1.054,8.69,3.5,12.552,8.327,13.966,10.577l6.123-14.345Z" transform="translate(6546.659 -1460.895)" fill="#313131"/><path d="M980.042,381.464l-4.595,9.4a18.649,18.649,0,0,1-24.954,8.537l-3.078-1.507a18.651,18.651,0,0,1-8.559-24.949l4.6-9.381a19.694,19.694,0,0,1,26.351-9.022l1.184.58a19.692,19.692,0,0,1,9.049,26.345Z" transform="translate(6568.326 -1363.931)" fill="#fff"/><path d="M956.971,399.893a19.5,19.5,0,0,1-8.59-2l-2.572-1.26a19.538,19.538,0,0,1-7.947-7.136.659.659,0,1,1,1.112-.7,18.261,18.261,0,0,0,7.415,6.651l2.572,1.26a18.286,18.286,0,0,0,24.447-8.337l4.46-9.16a19.065,19.065,0,0,0-8.723-25.481l-1.184-.58a19.062,19.062,0,0,0-25.482,8.722l-4.458,9.107a18.3,18.3,0,0,0-1.265,12.685.659.659,0,0,1-.067.5.66.66,0,0,1-.4.306.669.669,0,0,1-.806-.474,19.573,19.573,0,0,1,1.36-13.6l4.474-9.128a20.383,20.383,0,0,1,27.241-9.328l1.187.58a20.388,20.388,0,0,1,9.326,27.246l-4.472,9.133a19.619,19.619,0,0,1-17.624,10.988Z" transform="translate(6569.895 -1361.97)" fill="#313131"/><path d="M995.022,359.292s1.708-5.4.154-9.265c-1.46-3.647-20.148-10.983-22.25-10.962-1.82,0-3.886,1-6.921,3.763-3.336,3.046-8.78,1.054-8.78,1.054l1.228-2.508,8.627-18.287a.965.965,0,0,1,.934-.548.978.978,0,0,1,.369.1L1002.5,339.6a.964.964,0,0,1,.459,1.244Z" transform="translate(6553.346 -1341.759)" fill="#313131"/><path d="M993.155,358.075a.58.58,0,0,1-.227-.042.66.66,0,0,1-.4-.817c0-.053,1.68-5.36.177-8.8s-19.434-10.588-21.627-10.588c-1.786,0-3.789,1.128-6.488,3.594-3.589,3.273-9.212,1.27-9.449,1.181a.675.675,0,0,1-.39-.9l1.233-2.509,8.632-18.266a1.619,1.619,0,0,1,.938-.838,1.581,1.581,0,0,1,1.254.079l34.118,16.964a1.628,1.628,0,0,1,.769,2.108l-7.936,18.445a.662.662,0,0,1-.248.283A.651.651,0,0,1,993.155,358.075Zm-22.091-21.544c2.245,0,20.97,7.057,22.85,11.357a10.658,10.658,0,0,1,.738,4.39l5.834-13.565a.307.307,0,0,0,.005-.225.311.311,0,0,0-.146-.17l-34.119-16.964a.294.294,0,0,0-.237,0,.3.3,0,0,0-.1.061.3.3,0,0,0-.071.1l-8.632,18.266-.891,1.818c1.507.385,5.075.991,7.4-1.128,2.95-2.7,5.222-3.91,7.378-3.936Z" transform="translate(6555.213 -1339.883)" fill="#313131"/><path d="M1037.611,433.112a.693.693,0,0,1-.232-.042l-5.44-2.013a.675.675,0,0,1-.232-.129.653.653,0,0,1-.162-.21.628.628,0,0,1-.065-.257.651.651,0,0,1,.18-.487.658.658,0,0,1,.738-.15l4.9,1.813a65.655,65.655,0,0,0,1.58-6.782.659.659,0,0,1,1.171-.221.665.665,0,0,1,.12.469c-1.393,7.225-1.972,7.7-2.162,7.857A.647.647,0,0,1,1037.611,433.112Zm-8.337-11.1a.65.65,0,0,1-.368-.115.653.653,0,0,1-.271-.687.653.653,0,0,1,.19-.336c3.448-3.215,8-.8,8.042-.775a.665.665,0,0,1,.389.658.639.639,0,0,1-.078.258.658.658,0,0,1-.417.324.658.658,0,0,1-.269.012.668.668,0,0,1-.253-.1c-.151-.079-3.771-1.976-6.512.585A.674.674,0,0,1,1029.274,422.014Zm16.174,6.134a.658.658,0,0,1-.66-.611c-.211-2.814-3.414-4.285-3.445-4.3a.655.655,0,0,1-.336-.364.66.66,0,0,1,.863-.843c.162.074,3.951,1.8,4.214,5.4a.608.608,0,0,1-.031.256.663.663,0,0,1-.331.383.648.648,0,0,1-.248.068Zm-12.638-2.219a.885.885,0,1,0-.887-.885A.885.885,0,0,0,1032.81,425.929Zm8.668,3.62a.885.885,0,1,0-.884-.885A.886.886,0,0,0,1041.479,429.549Z" transform="translate(6500.57 -1413.218)" fill="#313131"/><path d="M948.366,398.41c.987-4.136-.41-8.013-3.119-8.66s-5.706,2.182-6.692,6.319.409,8.013,3.119,8.66S947.378,402.546,948.366,398.41Z" transform="translate(6567.382 -1391.375)" fill="#fff"/><path d="M938.73,403.06a.67.67,0,0,1-.379-.116c-2.176-1.518-3.083-5.149-2.208-8.822a10.687,10.687,0,0,1,2.888-5.27,5.014,5.014,0,0,1,4.6-1.528c2.229.527,3.773,2.935,3.931,6.124a.66.66,0,0,1-1.318.063c-.126-2.588-1.275-4.511-2.919-4.906a3.734,3.734,0,0,0-3.383,1.207,9.339,9.339,0,0,0-2.514,4.622c-.743,3.109-.032,6.24,1.681,7.436a.659.659,0,0,1-.374,1.2Z" transform="translate(6569.174 -1389.568)" fill="#313131"/><path d="M953.893,406.859a.654.654,0,0,1-.364-.111l-1.186-.785a.66.66,0,1,1,.711-1.112l-.316-2.409a.659.659,0,0,1,.3-.7.659.659,0,0,1,.765.06.659.659,0,0,1,.234.476l.527,3.842a.659.659,0,0,1-.3.648A.71.71,0,0,1,953.893,406.859Zm35.194,15.864a.661.661,0,0,1-.415-.151.65.65,0,0,1-.227-.379.665.665,0,0,1,.063-.437.654.654,0,0,1,.326-.3l2.107-.891a.679.679,0,0,1,.253-.055.664.664,0,0,1,.256.047.652.652,0,0,1,.216.14.7.7,0,0,1,.149.213.691.691,0,0,1,.008.507.7.7,0,0,1-.141.218.649.649,0,0,1-.214.147l-2.133.886A.609.609,0,0,1,989.086,422.722Zm-18.156.753a4.281,4.281,0,0,1-1.533-.263,3.475,3.475,0,0,1-2.008-2.034c-1.317-3.22.811-6.039,2.107-7.083a.67.67,0,0,1,.4-.157.659.659,0,0,1,.409.118.668.668,0,0,1,.256.344.65.65,0,0,1-.01.427,6.73,6.73,0,0,0,.887,4.659,3.862,3.862,0,0,0,2.524,1.987.659.659,0,0,1,.175,1.239A8.086,8.086,0,0,1,970.93,423.475Zm-1.8-6.988a4.387,4.387,0,0,0-.527,4.19,2.149,2.149,0,0,0,.485.789,2.174,2.174,0,0,0,.775.512,3.9,3.9,0,0,0,2.107.063,5.986,5.986,0,0,1-1.687-1.887,9.28,9.28,0,0,1-1.153-3.694Z" transform="translate(6557.18 -1400.235)" fill="#313131"/><path d="M607,614.07s-1.054,5.428-10.619,7.067c-13.887,2.382-25.465-13.175-25.465-13.175s-42.392-.227-58.956,8.432-45.27,81.391-45.27,81.391H715.636s-59.519-67.926-69.458-72.727C635.5,619.882,607,614.07,607,614.07Z" transform="translate(6915.956 -1552.748)" fill="#fff"/><path d="M713.81,696.592H464.864a.653.653,0,0,1-.527-.29.637.637,0,0,1-.069-.611c1.159-2.967,28.975-73.059,45.554-81.728s57.528-8.506,59.267-8.49a.65.65,0,0,1,.527.258c.106.137,10.15,13.065,22.519,13.065a17.473,17.473,0,0,0,2.334-.153c8.822-1.2,10.013-6.324,10.065-6.546a.669.669,0,0,1,.1-.24.67.67,0,0,1,.42-.286.659.659,0,0,1,.258,0c1.166.237,28.7,5.887,39.332,11.025,9.944,4.806,67.236,70.092,69.669,72.89a.654.654,0,0,1,.1.7.66.66,0,0,1-.6.386Zm-247.976-1.317H712.358c-7.717-8.764-59.274-67.119-68.3-71.478-9.639-4.659-34.317-9.939-38.432-10.8-.613,1.634-2.947,5.866-10.984,6.951-13.338,1.8-24.216-11.067-25.876-13.175-3.921,0-42.851.263-58.329,8.337C495.273,623.043,469.207,686.9,465.834,695.275Z" transform="translate(6917.782 -1550.907)" fill="#313131"/><path d="M1389.334,922.134c-5.166.7-16.776-3.452-19.71-.711s6.819,10.914,14.57,12.353S1389.334,922.134,1389.334,922.134Z" transform="translate(6248.89 -1783.764)" fill="#fff"/><path d="M1383.385,932.662a7.079,7.079,0,0,1-1.254-.121c-6.225-1.154-14.335-6.814-15.5-10.809a2.456,2.456,0,0,1,.6-2.672c1.972-1.839,6.708-1.054,11.72-.232,3.116.527,6.324,1.054,8.353.769a.663.663,0,0,1,.475.117.65.65,0,0,1,.263.411c.063.332,1.58,8.169-1.481,11.278a4.277,4.277,0,0,1-3.171,1.26Zm-12.074-13.412a4.727,4.727,0,0,0-3.161.775c-.211.2-.464.527-.237,1.339.947,3.252,8.277,8.732,14.481,9.881a3.414,3.414,0,0,0,3.247-.769c2.149-2.177,1.507-7.694,1.228-9.486a40.276,40.276,0,0,1-8.116-.843,51.269,51.269,0,0,0-7.443-.891Z" transform="translate(6250.833 -1781.886)" fill="#313131"/><path d="M664.556,952.355H348.523a15.937,15.937,0,0,0-15.937,15.938V1125.57a15.937,15.937,0,0,0,15.937,15.937H664.556a15.937,15.937,0,0,0,15.937-15.937V968.293A15.937,15.937,0,0,0,664.556,952.355Z" transform="translate(7015.088 -1807.329)" fill="#fff"/><path d="M662.924,1140.242H346.311A16.336,16.336,0,0,1,330,1123.907V966.09a16.337,16.337,0,0,1,16.311-16.338H662.924a16.338,16.338,0,0,1,16.338,16.338v157.843a16.334,16.334,0,0,1-16.338,16.31ZM346.311,951.09a15.009,15.009,0,0,0-14.993,15v157.843a15.01,15.01,0,0,0,14.993,14.993H662.924a15.012,15.012,0,0,0,15-14.993V966.09a15.018,15.018,0,0,0-15-15Z" transform="translate(7017 -1805.405)" fill="#313131"/><path d="M877.1,1249.158a43.224,43.224,0,1,0-43.225-43.225A43.225,43.225,0,0,0,877.1,1249.158Z" transform="translate(6644.528 -1962.827)" fill="#fecd07"/><path d="M875.219,1247.946a43.931,43.931,0,1,1,31.014-12.87A43.888,43.888,0,0,1,875.219,1247.946Zm0-86.429a17.631,17.631,0,1,0,0-.016Z" transform="translate(6646.41 -1960.955)" fill="#313131"/><path d="M914.692,1156.206c-1.66,0-2.962-2.11-2.962-4.786s1.3-4.785,2.962-4.785,2.967,2.107,2.967,4.785S916.358,1156.206,914.692,1156.206Zm0-8.254c-.775,0-1.644,1.481-1.644,3.468s.87,3.466,1.644,3.466,1.65-1.486,1.65-3.466S915.472,1147.953,914.692,1147.953Zm32.77,8.254c-1.659,0-2.96-2.11-2.96-4.786s1.3-4.785,2.96-4.785,2.968,2.107,2.968,4.785S949.129,1156.206,947.462,1156.206Zm0-8.254c-.774,0-1.643,1.481-1.643,3.468s.868,3.466,1.643,3.466,1.651-1.486,1.651-3.466S948.242,1147.953,947.462,1147.953ZM931.141,1187.1A24.769,24.769,0,0,1,907,1168.127a.665.665,0,0,1-.011-.258.644.644,0,0,1,.088-.24.652.652,0,0,1,.174-.19.644.644,0,0,1,.233-.107.656.656,0,0,1,.257-.013.718.718,0,0,1,.241.089.681.681,0,0,1,.189.175.65.65,0,0,1,.108.235,23.525,23.525,0,0,0,45.723,0,.686.686,0,0,1,.107-.235.669.669,0,0,1,.188-.175.647.647,0,0,1,.24-.086.605.605,0,0,1,.256.011.649.649,0,0,1,.41.3.666.666,0,0,1,.081.5,24.766,24.766,0,0,1-24.142,18.972Zm121.378-30.736a26.235,26.235,0,1,1,18.516-7.685A26.178,26.178,0,0,1,1052.519,1156.363Zm0-51.083a24.912,24.912,0,1,0,17.585,7.3A24.9,24.9,0,0,0,1052.519,1105.28Z" transform="translate(6590.488 -1919.396)" fill="#313131"/><path d="M456.243,1156.365a26.228,26.228,0,1,1,18.527-7.678A26.218,26.218,0,0,1,456.243,1156.365Zm0-51.083a24.91,24.91,0,1,0,17.587,7.294A24.9,24.9,0,0,0,456.243,1105.282Z" transform="translate(6943.041 -1919.398)" fill="#313131"/><path d="M620.989,1383.175H550.053V1408h70.935Zm-134.06-53.565h-47.5V1348.8h47.5Zm243.717,0h-47.5V1348.8h47.5Z" transform="translate(6936.108 -2086.202)" fill="#079b7e"/><path d="M619.12,1406.789H548.185a.659.659,0,0,1-.659-.657V1381.3a.659.659,0,0,1,.659-.657H619.12a.659.659,0,0,1,.657.657v24.829a.659.659,0,0,1-.657.657Zm-70.276-1.317H618.46v-23.51H548.844Zm-63.784-57.886h-47.5a.659.659,0,0,1-.659-.66V1327.74a.659.659,0,0,1,.659-.66h47.5a.659.659,0,0,1,.659.66v19.186a.659.659,0,0,1-.659.66Zm-46.84-1.317H484.4v-17.882H438.22Zm290.563,1.317h-47.5a.659.659,0,0,1-.657-.66V1327.74a.659.659,0,0,1,.657-.66h47.5a.659.659,0,0,1,.66.66v19.186a.659.659,0,0,1-.66.66Zm-46.845-1.317h46.188v-17.882H681.938Z" transform="translate(6937.977 -2084.332)" fill="#313131"/><path d="M490.152,1355.137h-10.2a.659.659,0,0,1-.659-.66.658.658,0,0,1,.659-.657h10.208a.659.659,0,0,1,.659.657.659.659,0,0,1-.659.66Zm-17.017,0h-21.57a.659.659,0,0,1-.659-.66.658.658,0,0,1,.659-.657h21.57a.658.658,0,0,1,.659.657.659.659,0,0,1-.659.66Zm17.017,5.236H463.306a.659.659,0,0,1-.659-.657.659.659,0,0,1,.659-.66h26.845a.659.659,0,0,1,.659.66.659.659,0,0,1-.659.657Zm-31.678,0h-6.909a.659.659,0,0,1-.659-.657.659.659,0,0,1,.659-.66h6.909a.659.659,0,0,1,.659.66.659.659,0,0,1-.659.657Zm276.2,0H724.484a.659.659,0,0,1-.657-.657.659.659,0,0,1,.657-.66h10.21a.659.659,0,0,1,.657.66.659.659,0,0,1-.657.657Zm-17.045,0H696.089a.659.659,0,0,1-.657-.657.659.659,0,0,1,.657-.66h21.543a.658.658,0,0,1,.467,1.124A.653.653,0,0,1,717.633,1360.373Zm17.045-5.236H707.8a.659.659,0,0,1-.657-.66.658.658,0,0,1,.657-.657h26.879a.658.658,0,0,1,.657.657.659.659,0,0,1-.657.66Zm-31.678,0h-6.911a.659.659,0,0,1-.657-.66.658.658,0,0,1,.657-.657H703a.659.659,0,0,1,.657.657.659.659,0,0,1-.657.66Zm-81.618,62.724H606.9a.658.658,0,0,1-.467-1.124.653.653,0,0,1,.467-.193h14.487a.659.659,0,0,1,.657.657.659.659,0,0,1-.657.66Zm-24.154,0H566.621a.658.658,0,0,1-.659-.66.659.659,0,0,1,.659-.657h30.607a.659.659,0,0,1,.66.657.658.658,0,0,1-.66.66Zm24.154-7.437h-5.8a.659.659,0,0,1-.66-.657.659.659,0,0,1,.66-.66h5.8a.654.654,0,0,1,.657.66.654.654,0,0,1-.657.657Zm-10.176,0H583.274a.659.659,0,0,1-.659-.657.659.659,0,0,1,.659-.66h27.932a.659.659,0,0,1,.657.66.659.659,0,0,1-.657.657Zm-34.778,0h-9.807a.659.659,0,0,1-.659-.657.659.659,0,0,1,.659-.66h9.807a.659.659,0,0,1,.659.66.659.659,0,0,1-.659.657Z" transform="translate(6927.625 -2104.098)" fill="#313131"/><path d="M1547.837,914.332c-3.067-2.108-7.782,2.635-10.539,6.8-1.836,2.782-9.208,12.016-5.988,14.661,2.457,2.024,11.12-8.3,13.344-11.415S1550.8,916.4,1547.837,914.332Z" transform="translate(6129.567 -1778.839)" fill="#fff"/><path d="M1530.892,938.008a2.145,2.145,0,0,1-1.411-.5c-3.163-2.634,1.466-9.333,4.214-13.343.313-.453.587-.849.8-1.17,2.149-3.257,5.521-6.941,8.557-7.536a3.691,3.691,0,0,1,2.9.527,2.977,2.977,0,0,1,1.307,2c.423,2.43-1.9,5.628-3.758,8.195l-.563.78c-.3.427-7.505,10.451-11.678,10.993A2.83,2.83,0,0,1,1530.892,938.008Zm13.019-21.312a3.419,3.419,0,0,0-.592.058c-2.634.527-5.795,4.079-7.709,6.972-.216.327-.5.727-.811,1.191-2.008,2.909-6.715,9.729-4.475,11.594a.9.9,0,0,0,.774.179c2.668-.348,8.027-6.6,10.783-10.456l.569-.785c1.622-2.24,3.852-5.312,3.526-7.2a1.68,1.68,0,0,0-.258-.65,1.65,1.65,0,0,0-.5-.488A2.24,2.24,0,0,0,1543.911,916.7Z" transform="translate(6131.112 -1779.986)" fill="#313131"/><path d="M1430.746,903.239c-3.508-2.53-9.122,2.872-12.427,7.642-2.211,3.188-8.384,12.443-6.045,14.756,3.3,3.241,11.842-7.194,14.521-10.767S1434.162,905.706,1430.746,903.239Z" transform="translate(6217.352 -1770.545)" fill="#fff"/><path d="M1411.5,924.978a2.728,2.728,0,0,1-1.966-.78c-2.968-2.909,2.428-10.567,5.328-14.677l.636-.906c2.574-3.689,6.572-7.905,10.087-8.5a4.174,4.174,0,0,1,3.268.7,3.371,3.371,0,0,1,1.434,2.292c.417,2.793-2.35,6.429-4.569,9.354-.237.306-.464.606-.675.891-.863,1.149-8.559,11.257-13.269,11.594A2.486,2.486,0,0,1,1411.5,924.978Zm14.946-23.615a3.88,3.88,0,0,0-.639.053c-3.114.527-6.919,4.617-9.227,7.953l-.639.912c-2.107,2.967-7.651,10.851-5.484,12.975a1.453,1.453,0,0,0,.561.34,1.47,1.47,0,0,0,.655.061c3.364-.258,9.524-7.378,12.312-11.067.217-.29.448-.59.686-.9,1.959-2.582,4.647-6.118,4.311-8.358a2.07,2.07,0,0,0-.3-.8,2.024,2.024,0,0,0-.6-.613A2.681,2.681,0,0,0,1426.442,901.363Z" transform="translate(6219.634 -1768.654)" fill="#313131"/><path d="M1506.5,905.173c-3.44-2.635-9.169,2.635-12.585,7.32-2.277,3.125-11.5,13.033-7.745,16.669,3.935,3.81,13.35-9.012,16.1-12.506S1509.836,907.713,1506.5,905.173Z" transform="translate(6163 -1771.931)" fill="#fff"/><path d="M1486.384,928.583a2.959,2.959,0,0,1-2.076-.8c-3.346-3.083,3.13-11.594,6.614-16.158.417-.527.775-1.017,1.054-1.386,2.634-3.636,6.747-7.71,10.267-8.227a4.149,4.149,0,0,1,3.244.775,3.365,3.365,0,0,1,1.377,2.319c.342,2.8-2.5,6.356-4.791,9.217-.237.306-.475.6-.691.875l-.443.559c-2.913,3.726-9.743,12.449-14.229,12.811Zm16.6-25.3a4.073,4.073,0,0,0-.529.042c-3.119.458-7.013,4.437-9.4,7.7-.274.374-.636.854-1.054,1.412-2.53,3.315-9.232,12.121-6.773,14.387a1.729,1.729,0,0,0,1.387.443c3.92-.316,10.739-9.033,13.313-12.311l.436-.564.7-.88c2.018-2.524,4.785-5.987,4.506-8.232a2.042,2.042,0,0,0-.861-1.434,2.735,2.735,0,0,0-1.727-.58Z" transform="translate(6164.407 -1770.066)" fill="#313131"/><path d="M1465.694,897.966c-3.69-2.809-9.876,2.872-13.545,7.905-2.451,3.378-11.305,15.1-8.306,18,3.374,3.262,14.366-9.76,17.329-13.539S1469.308,900.691,1465.694,897.966Z" transform="translate(6194.083 -1766.573)" fill="#fff"/><path d="M1443.249,923.249a2.742,2.742,0,0,1-1.982-.78c-3.411-3.346,3.51-12.564,7.229-17.512.4-.527.738-.986,1-1.349,2.845-3.926,7.237-8.316,11.016-8.885a4.469,4.469,0,0,1,3.466.817,3.573,3.573,0,0,1,.991,1.077,3.537,3.537,0,0,1,.475,1.384c.381,2.994-2.67,6.851-5.122,9.918l-.738.943c-4.1,5.27-11.657,14.092-16.09,14.382Zm18.075-27.272a3.665,3.665,0,0,0-.615.053c-3.38.527-7.573,4.812-10.142,8.353-.269.369-.615.833-1.022,1.37-2.717,3.62-9.938,13.238-7.378,15.773a1.482,1.482,0,0,0,1.213.4c2.819-.184,8.481-5.37,15.136-13.876.237-.306.5-.622.754-.949,2.175-2.74,5.158-6.492,4.848-8.959a2.281,2.281,0,0,0-.954-1.581,3.005,3.005,0,0,0-1.854-.585Z" transform="translate(6196.214 -1764.675)" fill="#313131"/><path d="M772.038,1013.1c3.726,2.292,15.346,8.358,25.628,15.431,12.648,8.692,22.876,18.542,25.359,22.662,5.151,8.548,11.7,18.323,8.663,20.169-3.9,2.371-13.485-10.942-16.979-14.909a39.076,39.076,0,0,0-4.585-4.326s2.94,7.156-5.318,7.615c0,0-.142,6.324-7.489,5.57,0,0-1.418,8.084-11.668,1.87-10.1-6.123-7.188-10.1-7.188-10.1s-14.108-7.714-25.823-12.648v-24.563Z" transform="translate(6704.579 -1852.233)" fill="#fff"/><path d="M828.923,1070.459c-3.547,0-8.958-6.256-14.286-12.778-.891-1.1-1.66-2.045-2.182-2.637a38.393,38.393,0,0,0-2.983-2.944,5.8,5.8,0,0,1-.722,3.81c-.938,1.487-2.635,2.355-5.107,2.592a6.8,6.8,0,0,1-2.108,4.078,7.277,7.277,0,0,1-5.47,1.581,5.913,5.913,0,0,1-3.078,3.69c-2.361,1.054-5.534.417-9.433-1.945-4.648-2.819-7.273-5.591-7.8-8.236a4.137,4.137,0,0,1,.095-2.141c-2.7-1.461-14.956-8-25.212-12.343a.658.658,0,0,1-.294-.24.666.666,0,0,1-.111-.365v-24.537a.668.668,0,0,1,.443-.623l19.383-6.754a.635.635,0,0,1,.559.057c1.054.639,2.677,1.58,4.743,2.736,5.365,3.03,13.476,7.61,20.9,12.716,12.474,8.585,22.977,18.55,25.554,22.86.676,1.134,1.382,2.29,2.084,3.442,4.157,6.819,8.077,13.261,7.378,16.226a2.19,2.19,0,0,1-.355.806,2.164,2.164,0,0,1-.641.6A2.571,2.571,0,0,1,828.923,1070.459Zm-20.552-20.826a.671.671,0,0,1,.411.141,44.974,44.974,0,0,1,4.664,4.407c.527.6,1.323,1.554,2.224,2.665,3.356,4.118,11.214,13.762,13.923,12.121a.9.9,0,0,0,.263-.253.925.925,0,0,0,.138-.336c.595-2.441-3.547-9.234-7.2-15.23-.707-1.16-1.411-2.318-2.107-3.453-2.5-4.217-12.838-13.965-25.165-22.451-7.378-5.075-15.462-9.634-20.806-12.648-1.918-1.085-3.473-1.959-4.527-2.6l-18.656,6.52v23.635c11.526,4.913,25.333,12.447,25.475,12.523a.686.686,0,0,1,.209.185.644.644,0,0,1,.119.527.664.664,0,0,1-.112.253,2.484,2.484,0,0,0-.179,1.844c.337,1.549,1.855,4.074,7.178,7.3,3.447,2.107,6.277,2.741,8.19,1.875a4.84,4.84,0,0,0,2.488-3.3.661.661,0,0,1,.717-.527,6.368,6.368,0,0,0,5.022-1.2,5.67,5.67,0,0,0,1.739-3.729.652.652,0,0,1,.622-.639c2.3-.125,3.857-.806,4.627-2.024,1.217-1.92.127-4.658.116-4.686a.643.643,0,0,1-.026-.423.655.655,0,0,1,.243-.352.625.625,0,0,1,.4-.146Z" transform="translate(6706.358 -1850.405)" fill="#313131"/><path d="M845.089,761.452a.66.66,0,0,1-.448-.172c-1.17-1.087-5.8-3.891-7.668-3.8a.553.553,0,0,0-.39.115.655.655,0,0,1-.928.057.662.662,0,0,1-.058-.931,1.777,1.777,0,0,1,.6-.417,1.861,1.861,0,0,1,.714-.143h.121c2.545,0,7.378,3.132,8.485,4.16a.658.658,0,0,1-.448,1.137Zm9.86,4.592a1,1,0,0,1-.127,0,.668.668,0,0,1-.24-.1.633.633,0,0,1-.185-.18.64.64,0,0,1-.1-.237.655.655,0,0,1,0-.258c.485-2.561-1.549-5.98-5.449-9.143a.657.657,0,0,1-.068-.9.666.666,0,0,1,.424-.24.674.674,0,0,1,.472.117c4.285,3.474,6.5,7.378,5.913,10.413a.649.649,0,0,1-.227.373A.657.657,0,0,1,854.949,766.044Zm7.489-5.573h-.105a.649.649,0,0,1-.421-.269.658.658,0,0,1-.106-.49c.237-1.437-2.8-5.174-5.8-7.957a.67.67,0,0,1-.15-.209.665.665,0,0,1-.017-.506.687.687,0,0,1,.136-.219.634.634,0,0,1,.209-.149.642.642,0,0,1,.251-.06.652.652,0,0,1,.254.042.707.707,0,0,1,.219.136c1.112,1.054,6.64,6.366,6.182,9.138a.657.657,0,0,1-.654.542Zm5.312-7.615a.643.643,0,0,1-.4-.136.66.66,0,0,1-.237-.344c-.416-1.492-3.441-4.5-4.569-5.534a.658.658,0,0,1,.891-.968c.442.4,4.353,4.024,4.949,6.144a.656.656,0,0,1,.019.255.664.664,0,0,1-.08.245.651.651,0,0,1-.4.31A.6.6,0,0,1,867.75,752.856ZM862,629.343c-19.652,0-31.215-20.769-31.341-21a.659.659,0,1,1,1.159-.627c.126.237,13.28,23.81,35.1,19.857,13.311-2.408,14.883-12.205,14.946-12.622a.672.672,0,0,1,.076-.255.684.684,0,0,1,.172-.2.656.656,0,0,1,.5-.135.653.653,0,0,1,.25.091.67.67,0,0,1,.193.182.649.649,0,0,1,.107.244.656.656,0,0,1,0,.266c0,.111-1.729,11.141-16.01,13.728A28.873,28.873,0,0,1,862,629.343ZM918.965,698a.673.673,0,0,1-.433-.158L902.58,684.114,898.3,697.289a.645.645,0,0,1-.12.24.631.631,0,0,1-.2.173.649.649,0,0,1-.255.078.666.666,0,0,1-.266-.03.648.648,0,0,1-.23-.133.675.675,0,0,1-.162-.214.689.689,0,0,1-.06-.26.652.652,0,0,1,.047-.263l4.59-14.124a.667.667,0,0,1,.169-.273.651.651,0,0,1,.276-.16.661.661,0,0,1,.323-.008.648.648,0,0,1,.284.146l16.7,14.377a.655.655,0,0,1,.068.928.634.634,0,0,1-.222.171A.627.627,0,0,1,918.965,698Z" transform="translate(6646.964 -1552.311)" fill="#313131"/><path d="M1103.586,871.311a.558.558,0,0,1-.206-.037.633.633,0,0,1-.224-.125.623.623,0,0,1-.159-.2.68.68,0,0,1-.07-.247.7.7,0,0,1,.031-.255l2.85-8.764a.659.659,0,0,1,1.184-.069.655.655,0,0,1,.065.475l-2.829,8.764a.671.671,0,0,1-.641.458Z" transform="translate(6445.643 -1740.003)" fill="#313131"/><path d="M464.968,924.3c-11.889,28.088,79.1,54.808,79.1,54.808s-2.108-3.862,8.459-21.223c8.248-13.517,16.126-15.008,16.126-15.008L505.8,915.559Z" transform="translate(6918.021 -1780.129)" fill="#fff"/><path d="M542.1,977.812a.523.523,0,0,1-.179,0,314.989,314.989,0,0,1-34.73-11.688c-24.142-9.819-38.956-19.984-44.037-30.212a16.419,16.419,0,0,1-.627-14.151.661.661,0,0,1,1.212.527,15.152,15.152,0,0,0,.6,13.054c10.993,22.134,68.606,38.665,76.943,40.947-.095-2.217.907-7.847,8.722-20.657,6.118-10.014,12.032-13.555,14.856-14.758l-61.3-26.655a.659.659,0,0,1,.273-1.27.667.667,0,0,1,.255.063L566.936,940.3a.652.652,0,0,1,.311.274.662.662,0,0,1,.085.407.651.651,0,0,1-.174.375.644.644,0,0,1-.364.2c-.074,0-7.726,1.656-15.684,14.7-10.013,16.437-8.432,20.555-8.432,20.592a.618.618,0,0,1-.063.7.629.629,0,0,1-.225.19A.639.639,0,0,1,542.1,977.812Z" transform="translate(6920 -1778.2)" fill="#313131"/><path d="M794.556,1023.617l-2.783-1.58s2.841-1.408,3.689-1.651S795.942,1022.282,794.556,1023.617Zm-19.02,30.418-4.148-1.951s-.749,3.917-.358,4.475C771.916,1057.825,775.537,1054.035,775.537,1054.035Z" transform="translate(6691.067 -1857.605)" fill="#313131"/><path d="M731.841,889.777a.634.634,0,0,1-.322-.089l-2.788-1.583a.638.638,0,0,1-.246-.248.658.658,0,0,1,.278-.91,40.174,40.174,0,0,1,3.784-1.693.959.959,0,0,1,.638.016.948.948,0,0,1,.484.417c.5.853-.169,2.757-1.37,3.909A.653.653,0,0,1,731.841,889.777Zm-1.37-2.2,1.244.707a3.977,3.977,0,0,0,.785-1.622c-.532.216-1.333.584-2.029.921Zm-21.644,35.4h-.1a1.257,1.257,0,0,1-.959-.527c-.137-.2-.553-.788.248-4.976a.645.645,0,0,1,.119-.274.633.633,0,0,1,.229-.19.652.652,0,0,1,.58,0l4.148,1.951a.646.646,0,0,1,.243.19.668.668,0,0,1-.043.858C712.611,920.7,710.324,922.98,708.827,922.98Zm.058-1.3c.4.031,1.623-.834,2.809-1.951l-2.519-1.181a14.59,14.59,0,0,0-.306,3.132Zm-10.5-1.846a.659.659,0,0,1-.659-.657c0-.407.1-10.014,8.959-24.016,7.462-11.743,15.1-14.429,15.394-14.562a.658.658,0,0,1,.838.412.659.659,0,0,1-.411.837c-.111.036-7.536,2.736-14.693,14.017-8.648,13.629-8.769,23.189-8.769,23.312a.659.659,0,0,1-.659.657Zm-11.647-53.391a.632.632,0,0,1-.358-.105.664.664,0,0,1-.2-.912l17.391-26.709a.659.659,0,0,1,1.107.717l-17.391,26.709a.657.657,0,0,1-.553.3Z" transform="translate(6753.781 -1723.107)" fill="#313131"/><path d="M705.592,843.25l-13.26,27.731-3.736-1.623Zm91.716,14.077,1.426-4.385,14.914,18.392ZM767,930.47s10.852,16.865,15.009,17.439c3.69.527,3.659-3.643,3.659-3.643s-1.46,3.163-5.229.939S767,930.47,767,930.47Z" transform="translate(6751.92 -1726.677)" fill="#313131"/><path d="M1398.324,807.55a12.8,12.8,0,1,0-12.794-12.8A12.8,12.8,0,0,0,1398.324,807.55Z" transform="translate(6236.737 -1681.37)" fill="#fff"/><path d="M1396.453,806.343a13.471,13.471,0,1,1,9.508-3.945A13.451,13.451,0,0,1,1396.453,806.343Zm0-25.586a5.022,5.022,0,1,0,0-.016Z" transform="translate(6238.607 -1679.503)" fill="#313131"/><path d="M1408.147,816.213c.378,0,.683-.547.683-1.222s-.305-1.223-.683-1.223-.686.547-.686,1.223S1407.769,816.213,1408.147,816.213Zm9.7,0c.378,0,.686-.547.686-1.222s-.308-1.223-.686-1.223-.683.547-.683,1.223S1417.465,816.213,1417.844,816.213Zm-4.832,9.8a7.781,7.781,0,0,1-7.594-5.976.659.659,0,0,1,.983-.718.664.664,0,0,1,.3.407,6.5,6.5,0,0,0,12.648,0,.658.658,0,0,1,1.2-.188.655.655,0,0,1,.078.5,7.79,7.79,0,0,1-7.615,5.976Z" transform="translate(6222.05 -1704.884)" fill="#313131"/><path d="M1355.949,703.4a18.719,18.719,0,1,0-18.719-18.719A18.72,18.72,0,0,0,1355.949,703.4Z" transform="translate(6272.441 -1595.623)" fill="#21a2ff"/><path d="M1354.1,702.191a19.4,19.4,0,1,1,13.694-5.682A19.382,19.382,0,0,1,1354.1,702.191Zm0-37.417a7.482,7.482,0,1,0,0-.021Z" transform="translate(6274.296 -1593.756)" fill="#313131"/><path d="M1371.194,588.693c.553,0,1-.8,1-1.787s-.449-1.787-1-1.787-1,.8-1,1.787S1370.641,588.693,1371.194,588.693Zm14.192,0c.556,0,1-.8,1-1.787s-.446-1.787-1-1.787-1,.8-1,1.787S1384.833,588.693,1385.386,588.693Zm-7.065,14.045a11.066,11.066,0,0,1-10.815-8.511.659.659,0,1,1,1.281-.311,9.812,9.812,0,0,0,19.071,0,.676.676,0,0,1,.3-.407.676.676,0,0,1,.242-.088.648.648,0,0,1,.256.011.655.655,0,0,1,.235.108.683.683,0,0,1,.174.189.66.66,0,0,1,.086.242.613.613,0,0,1-.01.257,11.094,11.094,0,0,1-10.818,8.511Zm21.663-17.238a22.656,22.656,0,1,0-22.654-22.656A22.657,22.657,0,0,0,1399.985,585.5Z" transform="translate(6250.073 -1502.649)" fill="#fff"/><path d="M1426.016,584.291a23.339,23.339,0,1,1,16.479-6.836A23.32,23.32,0,0,1,1426.016,584.291Zm0-45.322a9.11,9.11,0,1,1,0,.016Z" transform="translate(6224.043 -1500.782)" fill="#313131"/><path d="M1446.7,600.829c.668,0,1.207-.967,1.207-2.161s-.54-2.161-1.207-2.161-1.208.967-1.208,2.161S1446.039,600.829,1446.7,600.829Zm17.175,0c.667,0,1.208-.967,1.208-2.161s-.54-2.161-1.208-2.161-1.207.967-1.207,2.161S1463.212,600.829,1463.879,600.829Zm-8.559,16.854a13.294,13.294,0,0,1-12.958-10.192.663.663,0,0,1,.49-.8.653.653,0,0,1,.256-.01.644.644,0,0,1,.24.088.621.621,0,0,1,.188.174.6.6,0,0,1,.107.233,12.017,12.017,0,0,0,23.359,0,.644.644,0,0,1,.3-.407.658.658,0,0,1,.905.22.667.667,0,0,1,.078.5,13.294,13.294,0,0,1-12.961,10.192Z" transform="translate(6194.739 -1544.282)" fill="#313131"/><path d="M1314.323,426.535a30.545,30.545,0,1,0-30.543-30.545A30.545,30.545,0,0,0,1314.323,426.535Z" transform="translate(6311.952 -1373.477)" fill="#fecd07"/><path d="M1312.492,425.306a31.236,31.236,0,1,1,22.055-9.147A31.211,31.211,0,0,1,1312.492,425.306Zm0-61.085a29.917,29.917,0,1,0,21.124,8.763A29.892,29.892,0,0,0,1312.492,364.221Z" transform="translate(6313.793 -1371.594)" fill="#313131"/><path d="M1340.382,447.179c.9,0,1.63-1.3,1.63-2.914s-.73-2.914-1.63-2.914-1.627,1.3-1.627,2.914S1339.482,447.179,1340.382,447.179Zm23.158,0c.9,0,1.627-1.3,1.627-2.914s-.728-2.914-1.627-2.914-1.63,1.3-1.63,2.914S1362.64,447.179,1363.54,447.179Zm-11.524,22.513a17.68,17.68,0,0,1-17.246-13.565.71.71,0,0,1-.01-.257.665.665,0,0,1,.089-.241.642.642,0,0,1,.175-.189.655.655,0,0,1,.49-.119.638.638,0,0,1,.24.088.648.648,0,0,1,.3.407,16.429,16.429,0,0,0,31.933,0,.643.643,0,0,1,.107-.233.669.669,0,0,1,.43-.262.656.656,0,0,1,.49.119.642.642,0,0,1,.175.189.672.672,0,0,1,.089.241.66.66,0,0,1-.01.257,17.684,17.684,0,0,1-17.248,13.565Z" transform="translate(6274.272 -1429.587)" fill="#313131"/><path d="M1446.7,600.829c.668,0,1.207-.967,1.207-2.161s-.54-2.161-1.207-2.161-1.208.967-1.208,2.161S1446.039,600.829,1446.7,600.829Zm17.175,0c.667,0,1.208-.967,1.208-2.161s-.54-2.161-1.208-2.161-1.207.967-1.207,2.161S1463.212,600.829,1463.879,600.829Zm-8.559,16.854a13.294,13.294,0,0,1-12.958-10.192.663.663,0,0,1,.49-.8.653.653,0,0,1,.256-.01.644.644,0,0,1,.24.088.621.621,0,0,1,.188.174.6.6,0,0,1,.107.233,12.017,12.017,0,0,0,23.359,0,.644.644,0,0,1,.3-.407.658.658,0,0,1,.905.22.667.667,0,0,1,.078.5,13.294,13.294,0,0,1-12.961,10.192Z" transform="translate(6187.934 -1394.576)" fill="#313131"/><path d="M1446.7,600.829c.668,0,1.207-.967,1.207-2.161s-.54-2.161-1.207-2.161-1.208.967-1.208,2.161S1446.039,600.829,1446.7,600.829Zm17.175,0c.667,0,1.208-.967,1.208-2.161s-.54-2.161-1.208-2.161-1.207.967-1.207,2.161S1463.212,600.829,1463.879,600.829Zm-8.559,16.854a13.294,13.294,0,0,1-12.958-10.192.663.663,0,0,1,.49-.8.653.653,0,0,1,.256-.01.644.644,0,0,1,.24.088.621.621,0,0,1,.188.174.6.6,0,0,1,.107.233,12.017,12.017,0,0,0,23.359,0,.644.644,0,0,1,.3-.407.658.658,0,0,1,.905.22.667.667,0,0,1,.078.5,13.294,13.294,0,0,1-12.961,10.192Z" transform="translate(5944.094 -1394.576)" fill="#313131"/></g></svg>