<svg xmlns="http://www.w3.org/2000/svg" width="52" height="52" viewBox="0 0 52 52"><g transform="translate(-901)"><rect width="52" height="52" rx="14" transform="translate(901)" fill="#fecd07"/><g transform="translate(1554.09 -2097.894)"><path d="M22.125,15.1H20.56a4.618,4.618,0,0,0-.7-1.688l1.107-1.107a.9.9,0,1,0-1.273-1.272l-1.106,1.106a4.626,4.626,0,0,0-1.688-.7V9.875a.9.9,0,1,0-1.8,0v1.566a4.633,4.633,0,0,0-1.688.7l-1.106-1.106a.9.9,0,0,0-1.273,1.272l1.107,1.107a4.618,4.618,0,0,0-.7,1.688H9.875a.9.9,0,0,0,0,1.8H11.44a4.618,4.618,0,0,0,.7,1.688l-1.107,1.107a.9.9,0,0,0,1.274,1.272l1.106-1.106a4.626,4.626,0,0,0,1.688.7v1.566a.9.9,0,0,0,1.8,0V20.559a4.633,4.633,0,0,0,1.688-.7l1.106,1.106a.9.9,0,0,0,1.274-1.272l-1.107-1.107a4.618,4.618,0,0,0,.7-1.688h1.565a.9.9,0,0,0,0-1.8ZM16,18.851A2.851,2.851,0,1,1,18.851,16,2.854,2.854,0,0,1,16,18.851Z" transform="translate(-643.089 2107.893)" fill="#079b7e"/><path d="M28.311,6.946,17.3,1.414a2.917,2.917,0,0,0-2.6,0L3.689,6.946a2.883,2.883,0,0,0-1.6,2.6c.017,3.7.9,16.16,11.637,20.875a5.665,5.665,0,0,0,4.546,0C29.006,25.7,29.892,13.25,29.909,9.544a2.878,2.878,0,0,0-1.6-2.6ZM17.549,28.771a3.857,3.857,0,0,1-3.1,0C4.71,24.493,3.905,12.967,3.891,9.537A1.089,1.089,0,0,1,4.5,8.554L15.5,3.022a1.112,1.112,0,0,1,.989,0L27.5,8.554a1.087,1.087,0,0,1,.607.982c-.014,3.431-.819,14.957-10.56,19.235Z" transform="translate(-643.089 2107.893)" fill="#101828"/></g></g></svg>