<svg xmlns="http://www.w3.org/2000/svg" xmlns:xlink="http://www.w3.org/1999/xlink" width="190" height="189.999" viewBox="0 0 190 189.999"><defs><clipPath id="a"><path d="M948.245,2639.648c-.048,0-.1,0-.145.007a.75.75,0,0,0-.081,0q-2.169.114-4.33.327-4.646.456-9.223,1.367-3.693.735-7.314,1.759-.867.246-1.73.507-4.465,1.356-8.776,3.14-2.058.852-4.069,1.8-2.207,1.036-4.359,2.188-.762.405-1.514.826-3.319,1.852-6.483,3.967c-.234.156-.465.312-.7.47q-3.51,2.39-6.793,5.083-3.082,2.531-5.942,5.31-.486.471-.965.951-.507.507-1,1.019-1.652,1.7-3.216,3.483-1.039,1.185-2.041,2.405-2.711,3.306-5.114,6.837-.222.324-.439.652-1.824,2.73-3.453,5.573-.688,1.2-1.341,2.424-2.2,4.114-3.986,8.428-1.35,3.255-2.452,6.6-.357,1.081-.688,2.173-1.356,4.466-2.265,9.044-.369,1.849-.664,3.716-.406,2.585-.673,5.19c-.01.105-.021.21-.031.316q-.457,4.642-.458,9.31h0q0,4.668.458,9.312.306,3.115.817,6.2.25,1.515.551,3.02.909,4.578,2.265,9.043t3.14,8.779q1.731,4.174,3.85,8.169c.044.087.09.173.136.258q2.2,4.117,4.794,8,.542.81,1.1,1.608,2.113,3.025,4.455,5.881,1.257,1.533,2.577,3.009,1.786,2,3.684,3.9,1.613,1.611,3.3,3.143,1.764,1.6,3.609,3.118.885.724,1.787,1.431,2.773,2.164,5.7,4.123,2.007,1.339,4.078,2.576,1.93,1.154,3.918,2.216,4.116,2.2,8.429,3.986,3.9,1.616,7.924,2.878.426.135.853.262c.245.075.491.148.736.22q4.107,1.21,8.307,2.047,4.578.911,9.223,1.367t9.311.458h.295q4.52-.015,9.017-.458,3.746-.368,7.448-1.032.887-.159,1.773-.335,4.579-.913,9.043-2.267t8.779-3.14q4.311-1.786,8.427-3.986,2.7-1.441,5.3-3.053,1.363-.848,2.7-1.739,2.91-1.946,5.667-4.1.92-.719,1.822-1.458,1.677-1.377,3.288-2.828,1.854-1.668,3.618-3.433.9-.9,1.774-1.821,2.332-2.465,4.488-5.086,2.961-3.609,5.554-7.489,2.052-3.073,3.86-6.3.474-.844.932-1.7.708-1.323,1.372-2.665,1.4-2.835,2.614-5.762l.111-.27q1.549-3.771,2.768-7.659c.089-.283.177-.565.262-.85.074-.243.147-.489.22-.732q1.209-4.109,2.045-8.311.216-1.078.4-2.162.615-3.51.964-7.059.434-4.416.457-8.85c0-.153,0-.307,0-.461q0-4.524-.431-9.03c-.008-.094-.018-.188-.027-.282q-.457-4.645-1.368-9.222-.834-4.193-2.04-8.29c-.074-.25-.148-.5-.225-.754-.066-.217-.133-.435-.2-.652q-1.284-4.128-2.94-8.125-1.422-3.435-3.106-6.741-.432-.849-.88-1.688c-.171-.319-.344-.64-.518-.957q-1.984-3.61-4.274-7.039-2.594-3.88-5.554-7.489-2.928-3.564-6.185-6.832l-.077-.075-.007-.009q-3.3-3.293-6.9-6.252-2.853-2.342-5.876-4.451-.8-.56-1.613-1.1-3.88-2.594-8-4.793-.739-.4-1.487-.779-1.1-.562-2.215-1.1-2.332-1.117-4.725-2.11-4.312-1.785-8.779-3.14-1.246-.381-2.5-.723-2.541-.694-5.118-1.25c-.472-.1-.947-.2-1.421-.293q-2.289-.453-4.594-.8t-4.627-.571q-2.154-.213-4.311-.326c-.046,0-.091,0-.138-.007l-.086-.005q-2.387-.12-4.778-.119t-4.754.119" fill="none"/></clipPath><clipPath id="b"><path d="M994.258,2726.478l-6.266,10.123s2.893,10.074,3.567,11.615-.868,21.738-.868,21.738l24.2-.82-.82-26.991a16.281,16.281,0,0,0-5.591-11.76l-6.073-5.253Z" fill="none"/></clipPath><linearGradient id="c" x1="-70.358" y1="156.789" x2="-70.321" y2="156.789" gradientUnits="objectBoundingBox"><stop offset="0" stop-color="#e48d7e"/><stop offset="0.12" stop-color="#e3867e"/><stop offset="0.69" stop-color="#e0627f"/><stop offset="1" stop-color="#de557f"/></linearGradient><clipPath id="e"><path d="M910.681,2728.406c-9.784.242-16.243,3.182-20.387,7.76l3.518,14.172,1.253,23.858,27.666-2.554-2.361-33.981c-.145-.434.722-9.3-9.3-9.3Z" fill="none"/></clipPath><linearGradient id="f" x1="-54.788" y1="151.462" x2="-54.757" y2="151.462" gradientUnits="objectBoundingBox"><stop offset="0" stop-color="#6cc0cd"/><stop offset="0.05" stop-color="#6cc0cd"/><stop offset="1" stop-color="#add79f"/></linearGradient><clipPath id="g"><path d="M878.388,2771.688c1.3,16.1,20.437.821,22.557-.963a29.263,29.263,0,0,0,4.242-4.868l-1.3-7.472-13.014,6.027,4.772-9.351-4.772-19.811c-.032,0-13.782,20.36-12.483,36.438" fill="none"/></clipPath><linearGradient id="h" x1="-63.409" y1="133.601" x2="-63.373" y2="133.601" xlink:href="#f"/><clipPath id="i"><path d="M931.31,2716.212c-6.169,5.832-18.508,12.1-18.508,12.1l6.748,14.653s11.279-10.7,15.809-15.714c6.892-7.615,18.123-26.026,18.123-26.026l-5.061-4.145c.048,0-10.941,13.3-17.111,19.134" fill="none"/></clipPath><linearGradient id="j" x1="-44.669" y1="153.777" x2="-44.645" y2="153.777" xlink:href="#f"/><clipPath id="k"><path d="M956.808,2699.68s10.844,17.736,17.5,25.064c4.338,4.819,15.231,15.134,15.231,15.134l6.507-14.122s-11.906-6.026-17.834-11.664-17.5-20-17.5-20Z" fill="none"/></clipPath><linearGradient id="l" x1="-47.432" y1="154.145" x2="-47.406" y2="154.145" xlink:href="#c"/><clipPath id="n"><rect width="1.59" height="1.06" transform="translate(998.018 2719.731)" fill="none"/></clipPath><clipPath id="p"><path d="M982.016,2767.5v57.492q3.723-1.194,7.339-2.692,4.311-1.786,8.427-3.986,2.25-1.2,4.429-2.521V2767.5Z" fill="none"/></clipPath><clipPath id="r"><path d="M1005.1,2803.067v10.9c.226-.148.451-.3.676-.447q2.91-1.946,5.667-4.1.92-.719,1.822-1.458,1.677-1.377,3.288-2.828,1.131-1.017,2.226-2.069Z" fill="none"/></clipPath><clipPath id="t"><path d="M1003.223,2738.239s9.158,15.135,8,23.859c-.867,6.651-5.832,25.449-5.832,25.449l7.567,2.747s6.363-19.762,6.7-31.088-9.447-27.136-9.447-27.136Z" fill="none"/></clipPath><linearGradient id="u" x1="-113.742" y1="120.606" x2="-113.683" y2="120.606" xlink:href="#c"/></defs><g transform="translate(-858 -2639.529)"><g clip-path="url(#a)"><path d="M953,2639.528q2.332,0,4.661.115t4.651.343q2.32.228,4.627.57t4.595.8q2.286.456,4.549,1.022t4.494,1.244q2.232.677,4.428,1.462t4.35,1.678q2.154.892,4.263,1.89t4.165,2.1q2.056,1.1,4.057,2.3t3.939,2.494q1.94,1.3,3.812,2.685t3.676,2.869q1.8,1.479,3.531,3.046t3.377,3.215q1.65,1.648,3.215,3.377t3.046,3.531q1.479,1.8,2.869,3.675t2.685,3.813q1.295,1.939,2.494,3.939t2.3,4.057q1.1,2.056,2.1,4.165t1.89,4.263q.892,2.156,1.678,4.35t1.462,4.428q.678,2.232,1.244,4.494t1.022,4.549q.454,2.288.8,4.6t.57,4.627q.229,2.322.343,4.651t.115,4.661q0,2.332-.115,4.661t-.343,4.651q-.228,2.32-.57,4.627t-.8,4.595q-.456,2.286-1.022,4.549t-1.244,4.494q-.677,2.232-1.462,4.428t-1.678,4.35q-.893,2.154-1.89,4.263t-2.1,4.165q-1.1,2.056-2.3,4.057t-2.494,3.939q-1.3,1.94-2.685,3.812t-2.869,3.676q-1.479,1.8-3.046,3.531t-3.215,3.377q-1.648,1.649-3.377,3.215t-3.531,3.046q-1.8,1.479-3.676,2.869t-3.812,2.685q-1.939,1.295-3.939,2.494t-4.057,2.3q-2.058,1.1-4.165,2.1t-4.263,1.89q-2.154.892-4.35,1.678t-4.428,1.462q-2.232.678-4.494,1.244t-4.549,1.022q-2.288.455-4.595.8t-4.627.57q-2.322.229-4.651.343t-4.661.115q-2.332,0-4.661-.115t-4.651-.343q-2.32-.228-4.627-.57t-4.595-.8q-2.286-.456-4.549-1.022t-4.494-1.244q-2.232-.676-4.428-1.462t-4.35-1.678q-2.154-.893-4.263-1.89t-4.165-2.1q-2.056-1.1-4.057-2.3t-3.939-2.494q-1.94-1.3-3.812-2.685t-3.676-2.869q-1.8-1.479-3.531-3.046t-3.377-3.215q-1.65-1.648-3.215-3.377t-3.046-3.531q-1.479-1.8-2.869-3.676t-2.685-3.812q-1.295-1.939-2.494-3.939t-2.3-4.057q-1.1-2.057-2.1-4.165t-1.89-4.263q-.893-2.156-1.678-4.351t-1.462-4.427q-.678-2.232-1.244-4.494t-1.022-4.549q-.455-2.287-.8-4.595t-.571-4.627q-.228-2.322-.343-4.651t-.114-4.661q0-2.333.114-4.661t.343-4.651q.23-2.321.571-4.627t.8-4.6q.456-2.286,1.022-4.549t1.244-4.494q.676-2.232,1.462-4.428t1.678-4.35q.892-2.154,1.89-4.263t2.1-4.165q1.1-2.057,2.3-4.057t2.494-3.939q1.3-1.939,2.685-3.813t2.869-3.675q1.479-1.8,3.046-3.531t3.215-3.377q1.648-1.649,3.377-3.215t3.531-3.046q1.8-1.479,3.676-2.869t3.812-2.685q1.939-1.295,3.939-2.494t4.057-2.3q2.058-1.1,4.165-2.1t4.263-1.89q2.154-.892,4.35-1.678t4.428-1.462q2.232-.678,4.494-1.244t4.549-1.022q2.288-.454,4.595-.8t4.627-.57q2.322-.23,4.651-.343t4.661-.115" fill="#417dbf"/><path d="M1016.767,2817.189c2.555-4.482,3.856-10.845,4.916-16.146s-.819-11.568-5.639-14.026c-2.795-1.4-6.073-1.35-9.158-.868a36.42,36.42,0,0,0-21.448,11.905c1.108-4.531,1.735-10.363-2.266-12.821-3.663-2.265-8.386.338-11.616,3.181a65.88,65.88,0,0,0-15.905,20.822,34.521,34.521,0,0,0-58.032,11.086s40.246,20.484,76.829,14.17c34.559-5.88,42.319-17.3,42.319-17.3" fill="#8ac440"/><path d="M957.1,2699.053s-2.7-2.747-3.085-3.133c-2.121-2.362,0-1.012.964-.771.868.241-1.59-5.688-.771-5.447s1.687,3.085,1.687,3.085-1.06-4-.193-3.181a10.614,10.614,0,0,1,1.687,3.085s-.916-4.145-.193-3.278a8.831,8.831,0,0,1,1.254,2.41s-.434-3.615.192-2.6,4.965,9.11,4.965,9.11Z" fill="#e4b1b0"/><path d="M953,2700.885s2.7-2.747,3.085-3.133c2.12-2.362,0-1.012-.964-.771-.868.241,1.59-5.688.771-5.447s-1.687,3.085-1.687,3.085,1.06-4,.193-3.181a10.616,10.616,0,0,0-1.687,3.085s.916-4.145.193-3.278a8.829,8.829,0,0,0-1.254,2.41s.434-3.615-.192-2.6-4.965,9.11-4.965,9.11Z" fill="#f9c8c7"/><path d="M1006.115,2714.043a3.583,3.583,0,0,1,4.675,1.976,2.582,2.582,0,0,1,.241,1.012,10.38,10.38,0,0,1-.289,2.458,4.718,4.718,0,0,0,.048,2.459,1.832,1.832,0,0,0,1.976,1.205,3.134,3.134,0,0,1,.964-.241.908.908,0,0,1,.723,1.012,1.625,1.625,0,0,1-.819,1.06,4.448,4.448,0,0,1-1.3.386,7.019,7.019,0,0,1,1.205,1.735.87.87,0,0,1,.1.771.752.752,0,0,1-.868.434,2.772,2.772,0,0,1-.915-.482c.482.289.337,1.108-.1,1.446a2.406,2.406,0,0,1-1.639.289,6.115,6.115,0,0,1-3.47-.868,5.867,5.867,0,0,1-1.783-2.892,20.293,20.293,0,0,1-.916-7.229" fill="#231d51"/></g><g clip-path="url(#b)"><rect width="26.896" height="44.824" transform="translate(987.992 2725.13)" fill="url(#c)"/></g><g clip-path="url(#a)"><path d="M964.905,2671.58l1.2,21.641H978.5l1.88,7.375,2.121-7.375h18.074c.916,0,0-28.2,0-28.2Z" fill="#fff"/></g><g clip-path="url(#e)"><rect width="32.437" height="45.837" transform="translate(890.294 2728.359)" fill="url(#f)"/></g><g clip-path="url(#g)"><rect width="28.098" height="52.537" transform="translate(877.089 2735.25)" fill="url(#h)"/></g><g clip-path="url(#i)"><rect width="40.68" height="45.885" transform="translate(912.802 2697.078)" fill="url(#j)"/></g><g clip-path="url(#k)"><rect width="39.234" height="45.788" transform="translate(956.808 2694.09)" fill="url(#l)"/></g><g clip-path="url(#a)"><path d="M899.5,2724.213c-2.844,1.012-1.832-2.217-1.928-3.615a11.56,11.56,0,0,0-.578-4.1c-.482-1.012-1.3-1.88-1.3-2.988a9.172,9.172,0,0,1,.723-2.41c.289-1.109,0-2.314.193-3.47a4.443,4.443,0,0,1,4.82-3.567c1.108.145,2.169.723,3.277.53,1.205-.144,2.121-1.157,3.182-1.783a5.227,5.227,0,0,1,4.916-.241,4.339,4.339,0,0,1,2.362,4.193,3.794,3.794,0,0,1-3.374,3.326,10.614,10.614,0,0,1-2.94-.579,3.526,3.526,0,0,0-2.892.241c-1.061.723-1.495,2.362-2.748,2.459a3.961,3.961,0,0,1-1.879-.627c-.627-.289-1.446-.338-1.784.241-.289.482-.048,1.06,0,1.59a2.18,2.18,0,0,1-1.012,2.41c-.386,2.748.482,5.4,1.3,8.05" fill="#552e3b"/><path d="M898.68,2708.066l-.337,8.147s-2.507-.049-2.507,2.265a2.225,2.225,0,0,0,2.7,2.409s-.578,5.5,6.989,5.977c8.821.531,6.941-13.3,6.6-19.761Z" fill="#f9c8c7"/><path d="M1005.44,2708.452l.289,6.121s2.458-.048,2.458,2.217a2.212,2.212,0,0,1-2.7,2.362s.579,5.446-6.94,5.88c-7.616.434-7.182-9.784-6.748-16.676a2.825,2.825,0,0,1,3.036-2.651h.048l8.532.626a2.269,2.269,0,0,1,2.024,2.121" fill="#f9c8c7"/><path d="M908.561,2720.5l-.434,9.929a3.872,3.872,0,0,1-4.048,3.663,4.273,4.273,0,0,1-1.543-.385l-.1-.049a3.844,3.844,0,0,1-2.121-3.566c.1-3.471.145-9.5.145-9.5Z" fill="#f9c8c7"/><path d="M906.681,2719.538a.483.483,0,0,0,.241.193.541.541,0,0,0,.723-.145.666.666,0,0,0,.241-.482,2.757,2.757,0,0,0,.048-.626c-.048-.482-.048-.964-.1-1.543-.1-1.06-.145-2.072-.145-2.8,0-.338-.048-.627-.048-.868v-.289a.614.614,0,0,1,.048.289,7.035,7.035,0,0,0,.1.819c.048.723.144,1.687.192,2.8.049.53.049,1.06.1,1.542a2.982,2.982,0,0,1-.048.675,1.15,1.15,0,0,1-.29.53.616.616,0,0,1-.482.193,1.132,1.132,0,0,1-.385-.1c-.193-.1-.241-.193-.193-.193" fill="#df8d8c"/><path d="M907.5,2721.466a1.015,1.015,0,0,1-.53.193,1.969,1.969,0,0,1-2.217-1.3,1.123,1.123,0,0,1-.1-.53,3.86,3.86,0,0,0,.193.53,1.914,1.914,0,0,0,2.073,1.205c.385-.048.578-.144.578-.1" fill="#df8d8c"/><path d="M905.042,2719.682c0,.048-.241,0-.482.145s-.337.385-.386.385,0-.1,0-.192a.654.654,0,0,1,.29-.338,1.412,1.412,0,0,1,.433-.1.593.593,0,0,1,.145.1" fill="#df8d8c"/><path d="M908.657,2726.189a1.016,1.016,0,0,1-.289.193,6.913,6.913,0,0,1-.868.385,6.7,6.7,0,0,1-6.025-.867,4.517,4.517,0,0,1-.723-.627c-.1-.1-.192-.144-.241-.241a9.8,9.8,0,0,0,1.061.772,7.078,7.078,0,0,0,5.976.819,5.775,5.775,0,0,0,1.109-.434" fill="#df8d8c"/><path d="M897.378,2719.634a.7.7,0,0,0,.289-.434.988.988,0,0,0,0-.53.524.524,0,0,0-.482-.338.263.263,0,0,0-.241.338v.1l-.144.049a4.835,4.835,0,0,1-.145-1.2,5.047,5.047,0,0,1,.289,1.156l.1.386-.193-.337a.463.463,0,0,1,.193-.579c.048,0,.1-.048.144-.048a.72.72,0,0,1,.434.1,1.309,1.309,0,0,1,.241.289.718.718,0,0,1,0,.627.871.871,0,0,1-.241.338c-.145.1-.193.1-.241.1" fill="#df8d8c"/><path d="M904.223,2715.441c-.1,0-.145-.337-.145-.723s.049-.723.145-.723.145.337.145.723-.049.723-.145.723" fill="#452c76"/><path d="M910.489,2715.152c-.1,0-.145-.289-.145-.626s.049-.627.145-.627.145.289.145.627-.049.626-.145.626" fill="#452c76"/><path d="M898.439,2716.212a2.135,2.135,0,0,0-.145,1.542c.193.482.964.723,1.254.29a1.289,1.289,0,0,0,.144-.579c0-1.4,0-2.8.048-4.241a5.462,5.462,0,0,0,4.29-3.953,3.715,3.715,0,0,0,3.615.145,2.789,2.789,0,0,1,1.446-.53c.627.1.964.723,1.494,1.108a1.9,1.9,0,0,0,2.651-.626c.048-.049.048-.1.1-.145a2.4,2.4,0,0,0-1.108-2.844,6.718,6.718,0,0,0-4.145-.433l-7.76.915a2.4,2.4,0,0,0-1.4.434,2.319,2.319,0,0,0-.723,1.35,18,18,0,0,0-.771,6.025,1.8,1.8,0,0,0,.675,1.638" fill="#552e3b"/><path d="M905.09,2712.5c.048.193-.386.482-.964.578s-1.109.049-1.109-.144.386-.482.964-.579,1.061-.048,1.109.145" fill="#552e3b"/><path d="M911.26,2712.4c0,.193-.386.337-.868.289s-.819-.241-.819-.434.386-.337.868-.289.819.241.819.434" fill="#552e3b"/><path d="M903.451,2758.434s3.037-3.326,3.663-3.228c.675.095.53-.1.771,1.107.193.964,6.363-1.4,6.073-.53s-3.518,1.639-3.518,1.639,4.482-.916,3.518,0a11.758,11.758,0,0,1-3.518,1.687s4.675-.771,3.663,0a10.965,10.965,0,0,1-2.747,1.254s4-.29,2.892.385-10.363,4.917-10.363,4.917Z" fill="#f9c8c7"/><path d="M995.608,2719.2l.434,9.93a3.872,3.872,0,0,0,4.049,3.662,4.229,4.229,0,0,0,1.542-.385l.1-.048a3.845,3.845,0,0,0,2.121-3.567c-.1-3.47-.145-9.495-.145-9.495Z" fill="#f9c8c7"/><path d="M997.632,2718.622c-.048.1-.145.145-.193.193a.581.581,0,0,1-.675-.145.925.925,0,0,1-.241-.482,2.756,2.756,0,0,1-.048-.626c.048-.482.048-.964.1-1.446.048-1.061.1-1.976.144-2.651,0-.338.048-.627.048-.82v-.289a.615.615,0,0,0-.048.289,7.243,7.243,0,0,1-.1.82c-.048.675-.145,1.638-.193,2.651-.048.53-.048,1.012-.1,1.494a3.193,3.193,0,0,0,.048.675,1,1,0,0,0,.289.482.868.868,0,0,0,.434.192.7.7,0,0,0,.337-.1.3.3,0,0,0,.193-.241" fill="#df8d8c"/><path d="M996.861,2720.5a.86.86,0,0,0,.482.193,1.874,1.874,0,0,0,2.121-1.253.959.959,0,0,0,.1-.531s-.048.193-.144.483a1.911,1.911,0,0,1-2.025,1.156c-.337,0-.53-.1-.53-.048" fill="#df8d8c"/><path d="M999.223,2718.815c0,.048.241,0,.482.145s.337.385.386.337,0-.048,0-.193a.645.645,0,0,0-.675-.385c-.1,0-.193.048-.193.1" fill="#df8d8c"/><path d="M995.752,2724.888c.1.048.193.145.289.193a5.844,5.844,0,0,0,.82.337,6.293,6.293,0,0,0,2.988.289,6.44,6.44,0,0,0,2.795-1.108l.723-.579c.1-.1.145-.144.241-.241a5.126,5.126,0,0,1-1.012.723,6.777,6.777,0,0,1-5.687.82c-.723-.241-1.157-.482-1.157-.434" fill="#df8d8c"/><path d="M1006.6,2718.718a.736.736,0,0,1-.289-.386.986.986,0,0,1,0-.529.427.427,0,0,1,.482-.289.263.263,0,0,1,.241.337v.049l.144.047a.584.584,0,1,0-.144-.047l-.1.385.193-.338a.419.419,0,0,0-.193-.578c-.048,0-.1-.048-.144-.048a.522.522,0,0,0-.386.1c-.1.1-.193.193-.193.29a.714.714,0,0,0,0,.625.876.876,0,0,0,.241.339.383.383,0,0,0,.145.047" fill="#df8d8c"/><path d="M999.994,2714.718c.1,0,.145-.289.145-.723s-.049-.723-.145-.723-.145.289-.145.723.1.723.145.723" fill="#452c76"/><path d="M993.969,2714.381c.1,0,.145-.241.145-.578s-.049-.579-.145-.579-.145.241-.145.579.1.578.145.578" fill="#452c76"/><path d="M1005.537,2715.441a2.625,2.625,0,0,1,.145,1.494c-.193.482-.916.675-1.205.241a.827.827,0,0,1-.1-.578c0-1.35,0-2.7-.048-4.1a5.392,5.392,0,0,1-4.145-3.808,3.558,3.558,0,0,1-3.47.1,2.15,2.15,0,0,0-1.4-.483c-.579.1-.964.675-1.446,1.061a1.871,1.871,0,0,1-2.555-.578c-.048-.049-.048-.1-.1-.145a2.307,2.307,0,0,1,1.06-2.747,5.963,5.963,0,0,1,4-.386l7.471.868a2.252,2.252,0,0,1,1.349.433,2.534,2.534,0,0,1,.723,1.253,17.987,17.987,0,0,1,.771,5.784,1.858,1.858,0,0,1-.626,1.591" fill="#231d51"/><path d="M1000.91,2711.44c-.048.048-.193.048-.386.048s-.337,0-.385-.048.144-.192.385-.192.434.1.386.192" fill="#231d51"/><path d="M994.017,2711.3c0,.048-.145.1-.193.145a.219.219,0,0,1-.241,0c-.048-.049,0-.193.193-.241s.289.048.241.1" fill="#231d51"/></g><g clip-path="url(#n)"><path d="M999.56,2719.731c.145.048,0,.578-.53.867s-1.061.193-1.012.049.385-.29.771-.531.626-.433.771-.385" fill="#d1648e"/></g><g clip-path="url(#a)"><path d="M991.848,2750.289c-.048,0-.964-3.519-2.073-7.856s-1.976-7.857-1.927-7.857.964,3.519,2.072,7.857,1.976,7.856,1.928,7.856" fill="#473b61"/><path d="M1004.091,2726.575a2.6,2.6,0,0,1,.241.53,5.974,5.974,0,0,1,.193,1.591,4.384,4.384,0,0,1-.771,2.217,4.529,4.529,0,0,1-5.254,1.542,4.6,4.6,0,0,1-1.88-1.446,4.092,4.092,0,0,1-.723-1.446,2.426,2.426,0,0,1-.1-.578,4.865,4.865,0,0,0,.867,1.976,4.343,4.343,0,0,0,1.832,1.4,4.439,4.439,0,0,0,5.157-1.494,4.364,4.364,0,0,0,.771-2.169,6.308,6.308,0,0,0-.337-2.121" fill="#473b61"/><path d="M981.823,2672.592l2.362,4.82,5.012-1.157-4,4.193,1.88,4.724-4.435-2.892-3.325,2.506.771-4.338-3.471-2.361,4.435-.675Z" fill="#ecc281"/><path d="M1015.707,2863.99l12-.771-21.256-75.335-6.073,23.714,14.459,52.392" fill="#6d1b48"/><path d="M1012.767,2767.688c-9.543,35.571-22.991,97.458-22.991,97.458l-13.255-.915c4.29-17.4,14.894-86.276,16.243-95.433Z" fill="#861f55"/></g><g clip-path="url(#p)"><path d="M988.33,2829.672c.1,0,.1.242.048.53s-.144.483-.241.483-.1-.241-.048-.53a.683.683,0,0,1,.241-.483" fill="#4a4282"/><path d="M988.763,2827.7c.1,0,.1.241.048.53s-.144.482-.241.482-.1-.241-.048-.53.145-.482.241-.482" fill="#4a4282"/><path d="M989.149,2825.768c.1,0,.1.241.048.53s-.144.482-.241.482-.1-.241,0-.53a4.163,4.163,0,0,1,.193-.482" fill="#4a4282"/><path d="M989.583,2823.792c.048,0,.1.241,0,.53s-.145.482-.241.482-.1-.241-.048-.53.193-.482.289-.482" fill="#4a4282"/><path d="M989.969,2821.816c.1,0,.1.241.047.53s-.144.482-.241.482-.1-.241-.048-.53a.679.679,0,0,1,.242-.482" fill="#4a4282"/><path d="M990.4,2819.84c.048,0,.1.241,0,.53s-.145.482-.241.482-.1-.241,0-.53.145-.482.241-.482" fill="#4a4282"/><path d="M990.788,2817.912c.1,0,.1.241.048.53s-.144.482-.241.482-.1-.241,0-.53.145-.482.193-.482" fill="#4a4282"/><path d="M991.222,2815.936c.1,0,.1.241,0,.53s-.145.482-.241.482-.1-.241,0-.53.145-.482.241-.482" fill="#4a4282"/><path d="M991.607,2813.959c.048,0,.1.242.048.53s-.144.483-.241.483-.1-.241-.048-.53a.687.687,0,0,1,.241-.483" fill="#4a4282"/><path d="M992.041,2812.031c.048,0,.1.242,0,.53s-.145.483-.241.483-.1-.241,0-.53.193-.483.241-.483" fill="#4a4282"/><path d="M992.475,2810.055c.1,0,.1.242.048.53s-.144.483-.241.483-.1-.241-.048-.53.145-.483.241-.483" fill="#4a4282"/><path d="M992.909,2808.079c.1,0,.1.241,0,.53s-.145.482-.241.482-.1-.241,0-.53.145-.482.241-.482" fill="#4a4282"/><path d="M993.294,2806.1c.1,0,.1.241.048.53s-.144.482-.241.482-.1-.241-.048-.53a.683.683,0,0,1,.241-.482" fill="#4a4282"/><path d="M993.728,2804.175c.048,0,.1.241,0,.53s-.145.482-.241.482-.1-.241,0-.53.193-.482.241-.482" fill="#4a4282"/><path d="M994.162,2802.2c.048,0,.1.241,0,.53s-.145.482-.241.482-.1-.241,0-.53.193-.482.241-.482" fill="#4a4282"/><path d="M994.6,2800.271c.1,0,.1.241,0,.53s-.145.482-.241.482-.1-.241,0-.53.193-.53.241-.482" fill="#4a4282"/><path d="M995.029,2798.295c.1,0,.1.241,0,.53s-.145.482-.241.482-.1-.241,0-.53.193-.482.241-.482" fill="#4a4282"/><path d="M995.463,2796.319c.048,0,.1.241,0,.53s-.145.482-.241.482-.1-.241,0-.53.193-.482.241-.482" fill="#4a4282"/><path d="M995.9,2794.391c.1,0,.1.241,0,.53s-.145.482-.241.482-.1-.241,0-.53.193-.482.241-.482" fill="#4a4282"/><path d="M996.331,2792.415c.048,0,.1.241,0,.53s-.145.482-.241.482-.1-.241,0-.53.193-.482.241-.482" fill="#4a4282"/><path d="M996.765,2790.438c.1,0,.1.242,0,.53s-.145.483-.241.483-.1-.241,0-.53.193-.483.241-.483" fill="#4a4282"/><path d="M997.247,2788.51c.1,0,.1.242,0,.53s-.145.483-.241.483-.1-.241,0-.53.145-.483.241-.483" fill="#4a4282"/><path d="M997.68,2786.534c.1,0,.1.241,0,.53s-.145.482-.241.482-.1-.241,0-.53.193-.482.241-.482" fill="#4a4282"/><path d="M998.114,2784.606c.1,0,.1.241,0,.53s-.145.482-.241.482-.1-.241,0-.53.193-.482.241-.482" fill="#4a4282"/><path d="M998.6,2782.63c.1,0,.1.241,0,.53s-.193.482-.241.482-.1-.241,0-.53.145-.482.241-.482" fill="#4a4282"/><path d="M999.03,2780.7c.1,0,.1.241,0,.53s-.145.482-.241.482-.1-.241,0-.53.193-.482.241-.482" fill="#4a4282"/><path d="M999.464,2778.726c.048,0,.1.241,0,.53s-.145.482-.241.482-.1-.241,0-.53.193-.482.241-.482" fill="#4a4282"/><path d="M999.946,2776.8c.1,0,.1.241,0,.53s-.193.482-.241.482-.1-.241,0-.53.145-.482.241-.482" fill="#4a4282"/><path d="M1000.38,2774.822c.095,0,.095.241,0,.53s-.194.482-.242.482-.1-.241,0-.53.193-.482.242-.482" fill="#4a4282"/><path d="M1000.862,2772.894c.095,0,.095.241,0,.53s-.194.482-.242.482-.1-.241,0-.53.146-.482.242-.482" fill="#4a4282"/><path d="M1001.344,2770.918c.1,0,.1.241,0,.53s-.194.482-.242.482-.1-.241,0-.53.145-.482.242-.482" fill="#4a4282"/><path d="M1001.777,2768.99c.1,0,.1.241,0,.53s-.193.482-.241.482-.1-.241,0-.53.193-.482.241-.482" fill="#4a4282"/><path d="M1002.115,2767.5c.1,0,.1.145.1.289s-.144.241-.192.193a.4.4,0,0,1-.1-.289.2.2,0,0,1,.193-.193" fill="#4a4282"/></g><g clip-path="url(#a)"><path d="M1008.14,2790.487a.357.357,0,0,1-.049.241c-.047.193-.1.434-.193.723-.192.675-.434,1.59-.77,2.651-.628,2.265-1.495,5.4-2.362,8.82l-2.266,8.869c-.289,1.108-.529,2.024-.723,2.651-.1.289-.144.53-.193.723,0,.1-.048.145-.095.241a.369.369,0,0,1,.047-.241c.048-.193.1-.434.144-.723.146-.675.386-1.591.627-2.7.578-2.266,1.3-5.4,2.217-8.869s1.736-6.6,2.458-8.82c.338-1.109.627-2.025.82-2.651.1-.29.193-.531.242-.723,0-.048.047-.1.1-.193" fill="#4a4282"/></g><g clip-path="url(#r)"><path d="M1005.44,2804.03c-.1,0-.193-.144-.289-.433s-.1-.482-.048-.53.192.145.289.434.144.482.048.529" fill="#4a4282"/><path d="M1006.115,2805.958c-.048,0-.193-.192-.289-.433a.7.7,0,0,1-.048-.53c.048-.048.192.144.289.434s.1.482.048.529" fill="#4a4282"/><path d="M1006.742,2807.886c-.048,0-.193-.192-.289-.433a.7.7,0,0,1-.048-.53c.048-.049.192.192.289.434s.144.482.048.529" fill="#4a4282"/><path d="M1007.417,2809.766c-.049,0-.194-.193-.289-.434a.7.7,0,0,1-.049-.53c.049-.048.192.193.289.434s.1.53.049.53" fill="#4a4282"/><path d="M1008.043,2811.694c-.048,0-.193-.193-.289-.434a.7.7,0,0,1-.048-.53c.048-.048.192.193.289.434a.715.715,0,0,1,.048.53" fill="#4a4282"/><path d="M1008.67,2813.622c-.048,0-.193-.145-.289-.434s-.1-.482-.048-.53.192.193.289.434.144.482.048.53" fill="#4a4282"/><path d="M1009.344,2815.5c-.048,0-.193-.193-.289-.434a.7.7,0,0,1-.048-.53c.048-.048.192.145.289.434s.1.482.048.53" fill="#4a4282"/><path d="M1009.971,2817.43c-.048,0-.193-.193-.289-.434a.7.7,0,0,1-.048-.53c.048-.048.192.145.289.434s.144.482.048.53" fill="#4a4282"/><path d="M1010.646,2819.358c-.048,0-.193-.193-.289-.434a.7.7,0,0,1-.048-.53c.048-.048.192.193.289.434a.715.715,0,0,1,.048.53" fill="#4a4282"/><path d="M1011.273,2821.286c-.049,0-.194-.193-.289-.434a.7.7,0,0,1-.049-.53c.049-.048.193.193.289.434a.721.721,0,0,1,.049.53" fill="#4a4282"/><path d="M1011.9,2823.165c-.048,0-.193-.192-.289-.433a.7.7,0,0,1-.048-.53c.048-.048.192.193.289.434s.144.482.048.529" fill="#4a4282"/><path d="M1012.574,2825.093c-.048,0-.193-.145-.289-.434s-.1-.482-.048-.53.192.193.289.434a.714.714,0,0,1,.048.53" fill="#4a4282"/><path d="M1013.2,2826.973c-.048,0-.193-.193-.289-.434a.7.7,0,0,1-.048-.53c.048-.048.192.145.289.434s.144.53.048.53" fill="#4a4282"/><path d="M1013.875,2828.9c-.1,0-.193-.193-.289-.434a.7.7,0,0,1-.048-.53c.048-.048.192.145.289.434s.1.482.048.53" fill="#4a4282"/></g><g clip-path="url(#a)"><path d="M896.848,2773.135c.289,1.687,3.181,56.971,6.651,92.927H917.14s-6.748-82.9-5.158-83.046c1.832-.145,17.4,83.046,17.4,83.046H942.4l-19.81-95.337Z" fill="#231d51"/><path d="M909.862,2862.544a.849.849,0,0,0-.048-.241c-.048-.145-.048-.386-.1-.675-.048-.578-.144-1.446-.289-2.554-.241-2.217-.578-5.495-.964-9.5-.771-8-1.735-19.086-2.554-31.377s-1.35-23.376-1.639-31.426c-.145-4-.241-7.278-.289-9.543,0-1.109-.048-1.976-.048-2.6v-.675a3.951,3.951,0,0,0,.048.675c0,.627.048,1.494.1,2.6.1,2.265.241,5.5.386,9.543.337,8.05.916,19.135,1.687,31.426s1.735,23.328,2.458,31.377c.385,4,.675,7.23.867,9.5.1,1.108.193,1.976.241,2.554,0,.289.049.53.049.675a.312.312,0,0,1,.1.241" fill="#4a4282"/><path d="M934.588,2863.074a.849.849,0,0,0-.048-.241,5.065,5.065,0,0,1-.145-.675c-.144-.626-.289-1.494-.53-2.6-.434-2.266-1.109-5.543-1.832-9.592-1.542-8.1-3.47-19.328-5.735-31.715s-4.434-23.569-6.17-31.618c-.867-4.049-1.59-7.278-2.12-9.544l-.579-2.6a5.093,5.093,0,0,0-.144-.675.834.834,0,0,1-.049-.241l.049.241a5.093,5.093,0,0,1,.144.675c.145.626.386,1.445.627,2.554.578,2.265,1.3,5.495,2.169,9.544,1.783,8.049,4,19.231,6.266,31.618s4.193,23.617,5.687,31.715c.723,4.049,1.35,7.326,1.783,9.591.193,1.109.386,2.025.482,2.6a5.306,5.306,0,0,0,.145.675.511.511,0,0,1,0,.289" fill="#4a4282"/><path d="M901.186,2774.051a2.607,2.607,0,0,1,.289,1.205,5.084,5.084,0,0,1-2.795,4.916,2.479,2.479,0,0,1-1.157.338c0-.049.434-.145,1.108-.531a5.193,5.193,0,0,0,2.7-4.723c-.049-.723-.193-1.205-.145-1.205" fill="#4a4282"/><path d="M913.573,2781.811s0,.145-.241.385a1.234,1.234,0,0,1-1.157.29.936.936,0,0,1-.675-.53,2.93,2.93,0,0,1-.289-.916c-.1-.627-.193-1.35-.337-2.073-.241-1.446-.386-2.795-.53-3.759a8.716,8.716,0,0,1-.145-1.543,14.489,14.489,0,0,1,.338,1.543c.144.964.385,2.265.626,3.711.1.723.193,1.4.289,2.073a2.319,2.319,0,0,0,.241.819.81.81,0,0,0,.53.434,1.106,1.106,0,0,0,1.013-.193c.241-.1.289-.241.337-.241" fill="#4a4282"/><path d="M924.418,2779.16a2.4,2.4,0,0,1-1.157-.145,5.876,5.876,0,0,1-1.157-.482,5.741,5.741,0,0,1-2.169-2.12,5.942,5.942,0,0,1-.481-1.157,3.052,3.052,0,0,1-.145-1.109c.048,0,.1.434.289,1.061a5.813,5.813,0,0,0,3.663,3.615c.723.241,1.157.289,1.157.337" fill="#4a4282"/><path d="M1006.983,2787.161s-2.362,2.506-2.651,2.892c-1.831,2.169,0,.916.868.675.771-.241-1.253,5.109-.579,4.868s1.4-2.8,1.4-2.8-.819,3.615-.1,2.844a10.2,10.2,0,0,0,1.4-2.8s-.723,3.712-.1,2.94a7.532,7.532,0,0,0,1.06-2.169s-.289,3.23.241,2.314,4.194-8.29,4.194-8.29Z" fill="#f9c8c7"/></g><g clip-path="url(#t)"><rect width="16.773" height="58.224" transform="translate(1003.223 2732.07)" fill="url(#u)"/></g></g></svg>