<svg xmlns="http://www.w3.org/2000/svg" xmlns:xlink="http://www.w3.org/1999/xlink" viewBox="0 0 190 202.05"><defs><style>.cls-1{fill:none;}.cls-2{clip-path:url(#clip-path);}.cls-3{fill:#dfebf7;}.cls-4{clip-path:url(#clip-path-2);}.cls-5{clip-path:url(#clip-path-3);}.cls-6{fill:#417dbf;}.cls-7{fill:#0e2245;}.cls-8{fill:#552e3b;}.cls-9{fill:#b7abd3;}.cls-10{fill:#dcd1e7;}.cls-11{clip-path:url(#clip-path-4);}.cls-12{fill:#633e97;}.cls-13{fill:#f9c8c7;}.cls-14{fill:#452c76;}.cls-15{clip-path:url(#clip-path-6);}.cls-16{fill:#fac28b;}.cls-17{fill:#db9d6b;}.cls-18{fill:#b18460;}.cls-19{clip-path:url(#clip-path-8);}.cls-20{fill:#f9fbfd;}.cls-21{fill:#9e6aac;}.cls-22{fill:#c6ccdc;}.cls-23{fill:#df8d8c;}.cls-24{fill:#635252;}.cls-25{fill:#9589bb;}.cls-26{fill:#d7d0e7;}.cls-27{clip-path:url(#clip-path-11);}</style><clipPath id="clip-path" transform="translate(0 0)"><rect class="cls-1" x="75.71" y="0.48" width="10.41" height="10.41"/></clipPath><clipPath id="clip-path-2" transform="translate(0 0)"><rect class="cls-1" x="88.48" width="10.41" height="10.41"/></clipPath><clipPath id="clip-path-3" transform="translate(0 0)"><path class="cls-1" d="M95,3.19h-.3c-3,0-6,.16-9,.45q-3.93.39-7.81,1.1L76.47,5c-1.43.28-2.85.6-4.26,1h0q-2.42.6-4.78,1.32Q63,8.64,58.64,10.43t-8.42,4q-4.12,2.21-8,4.8c-.55.36-1.09.73-1.63,1.11-1.54,1.08-3.06,2.21-4.54,3.38l-1.32,1.06c-.49.4-1,.81-1.45,1.22q-2.82,2.41-5.46,5-2.88,2.88-5.5,6c-.26.3-.51.6-.76.91q-3,3.6-5.55,7.49c-.49.73-1,1.47-1.44,2.21-1,1.65-2,3.33-3,5l-.4.75c-1.47,2.75-2.8,5.55-4,8.43s-2.17,5.62-3.05,8.5l-.09.28c-.9,3-1.66,6-2.26,9A92.73,92.73,0,0,0,.46,88.88C.16,91.94,0,95,0,98.09v.1q0,4.53.43,9l0,.29c.28,2.91.71,5.8,1.26,8.67,0,.18.07.37.11.55s.09.49.15.74c.34,1.66.73,3.3,1.16,4.94.29,1.13.61,2.25.95,3.36.23.76.47,1.51.71,2.25.62,1.85,1.29,3.69,2,5.5l.42,1q.58,1.39,1.2,2.76,1.29,2.88,2.79,5.67c.36.68.74,1.36,1.12,2q1.73,3,3.67,5.95l.16.25q2.53,3.75,5.39,7.24t6.26,6.91c.54.54,1.08,1.07,1.63,1.59q2.57,2.43,5.28,4.67c2.41,2,4.9,3.83,7.49,5.55s5.25,3.33,8,4.8l.26.13q4,2.13,8.16,3.85,4.32,1.78,8.78,3.14,4.14,1.26,8.37,2.13l.68.14c3,.61,6.12,1.06,9.22,1.37s6.2.45,9.31.45h.34q4.5,0,9-.45c3.1-.31,6.17-.76,9.22-1.37l.56-.11q4.29-.88,8.49-2.16c3-.9,5.9-1.95,8.77-3.14q3.78-1.56,7.4-3.44l1-.54q4.13-2.21,8-4.8c.59-.39,1.18-.79,1.76-1.2s1.39-1,2.08-1.5c1.24-.92,2.45-1.87,3.65-2.85l.37-.31.15-.12q2.43-2,4.72-4.2l1.66-1.63.16-.15,0-.06.2-.19h0l0-.06c1.9-1.92,3.7-3.92,5.43-6l.37-.45c.75-.91,1.48-1.84,2.2-2.79q1.74-2.29,3.35-4.7c.39-.59.78-1.18,1.16-1.78q1.93-3,3.63-6.21,2.21-4.12,4-8.43c1.08-2.6,2-5.24,2.88-7.93.09-.28.17-.56.26-.85l.3-1q.79-2.73,1.42-5.49c.19-.85.38-1.7.54-2.55a92.73,92.73,0,0,0,1.37-9.22c.31-3.1.46-6.2.46-9.32s-.15-6.21-.46-9.31a92.73,92.73,0,0,0-1.37-9.22c-.12-.64-.26-1.28-.4-1.92q-.79-3.6-1.86-7.12-1.35-4.47-3.14-8.78c-.75-1.8-1.54-3.57-2.4-5.32-.51-1-1-2.08-1.59-3.11-.28-.53-.57-1-.86-1.58q-1.47-2.61-3.09-5.13L174,45.42c-1.07-1.6-2.18-3.17-3.35-4.7-.71-.94-1.45-1.87-2.2-2.79A93.24,93.24,0,0,0,162.17,31l-.93-.92q-2.88-2.8-6-5.34c-1.45-1.19-2.94-2.34-4.45-3.44-1-.72-2-1.43-3-2.11q-3.89-2.59-8-4.8t-8.43-4c-2.87-1.19-5.8-2.24-8.77-3.14-1.49-.46-3-.87-4.49-1.25h0c-1.5-.38-3-.72-4.54-1l-1.78-.34q-3.69-.66-7.44-1c-3.1-.3-6.2-.46-9.31-.46Z"/></clipPath><clipPath id="clip-path-4" transform="translate(0 0)"><rect class="cls-1" x="25.69" y="92.11" width="56.83" height="68.91"/></clipPath><clipPath id="clip-path-6" transform="translate(0 0)"><path class="cls-1" d="M46.84,180.08c1.11.66,2.24,1.29,3.38,1.9l.26.13c.69.38,1.4.74,2.1,1.09h1.91v-3.12Z"/></clipPath><clipPath id="clip-path-8" transform="translate(0 0)"><rect class="cls-1" x="34.84" y="145.75" width="15.75" height="22.14"/></clipPath><clipPath id="clip-path-11" transform="translate(0 0)"><rect class="cls-1" x="143.91" y="151.51" width="9.17" height="9.17"/></clipPath></defs><g id="Layer_2" data-name="Layer 2"><g id="Layer_1-2" data-name="Layer 1"><g class="cls-2"><path class="cls-3" d="M81.39.5a5.21,5.21,0,1,1-5.67,4.71A5.21,5.21,0,0,1,81.39.5" transform="translate(0 0)"/></g><g class="cls-4"><path class="cls-3" d="M94.15,0A5.21,5.21,0,1,1,88.5,4.73,5.2,5.2,0,0,1,94.15,0" transform="translate(0 0)"/></g><g class="cls-5"><path class="cls-6" d="M95,3.19c1.55,0,3.11,0,4.66.12s3.1.19,4.65.34,3.09.34,4.63.57,3.07.5,4.59.8,3,.64,4.55,1,3,.79,4.5,1.25,3,.93,4.42,1.46,2.92,1.08,4.35,1.68,2.86,1.22,4.27,1.89,2.79,1.36,4.16,2.09,2.73,1.5,4.06,2.3,2.65,1.63,3.94,2.49,2.56,1.76,3.81,2.69,2.48,1.88,3.68,2.87,2.38,2,3.53,3,2.28,2.12,3.37,3.22,2.18,2.22,3.22,3.38,2.06,2.33,3.05,3.53,1.94,2.42,2.86,3.67,1.83,2.52,2.69,3.82,1.69,2.6,2.49,3.93,1.57,2.69,2.3,4.06,1.43,2.76,2.1,4.17,1.29,2.82,1.89,4.26,1.15,2.89,1.68,4.35,1,2.94,1.46,4.43.86,3,1.24,4.49.72,3,1,4.55.57,3.06.8,4.6.42,3.08.57,4.62.27,3.1.35,4.65.11,3.11.11,4.66,0,3.11-.11,4.67-.2,3.1-.35,4.65-.34,3.09-.57,4.62-.49,3.07-.8,4.6-.64,3-1,4.55-.79,3-1.24,4.49-.94,3-1.46,4.43-1.09,2.91-1.68,4.35-1.23,2.86-1.89,4.26-1.37,2.8-2.1,4.17-1.5,2.72-2.3,4.05-1.63,2.65-2.49,3.94-1.76,2.57-2.69,3.82-1.88,2.47-2.86,3.67-2,2.38-3.05,3.53-2.12,2.28-3.22,3.38-2.22,2.17-3.37,3.21-2.33,2.06-3.53,3-2.43,1.94-3.68,2.87-2.52,1.82-3.81,2.68-2.61,1.7-3.94,2.5-2.69,1.56-4.06,2.3-2.76,1.43-4.16,2.09-2.83,1.3-4.27,1.89-2.88,1.16-4.35,1.68-2.94,1-4.42,1.46-3,.87-4.5,1.25-3,.72-4.55,1-3,.57-4.59.8-3.08.41-4.63.57-3.1.26-4.65.34-3.11.11-4.66.11-3.11,0-4.66-.11-3.1-.19-4.65-.34-3.09-.35-4.63-.57-3.07-.5-4.59-.8-3-.64-4.55-1-3-.79-4.5-1.25-3-.94-4.43-1.46-2.91-1.08-4.35-1.68-2.85-1.22-4.26-1.89-2.79-1.36-4.16-2.09-2.73-1.5-4.06-2.3-2.65-1.63-3.94-2.5-2.56-1.75-3.81-2.68-2.48-1.88-3.68-2.87-2.38-2-3.53-3-2.28-2.11-3.38-3.21-2.17-2.23-3.21-3.38-2.06-2.33-3.05-3.53-1.94-2.43-2.87-3.67S16.87,152.27,16,151s-1.69-2.6-2.49-3.94S12,144.35,11.22,143s-1.43-2.76-2.1-4.17S7.83,136,7.23,134.55s-1.15-2.89-1.68-4.35-1-2.94-1.46-4.43-.87-3-1.24-4.49-.72-3-1-4.55-.56-3.06-.79-4.6-.42-3.08-.57-4.62-.27-3.1-.35-4.65S0,99.75,0,98.19s0-3.1.11-4.66.19-3.1.35-4.65S.8,85.79,1,84.26s.49-3.07.79-4.6.65-3,1-4.55.79-3,1.24-4.49.94-3,1.46-4.43,1.09-2.91,1.68-4.35S8.46,59,9.12,57.58s1.36-2.8,2.1-4.17,1.5-2.72,2.3-4.06,1.63-2.64,2.49-3.93,1.76-2.57,2.68-3.82,1.89-2.47,2.87-3.67,2-2.38,3.05-3.53,2.11-2.28,3.21-3.38,2.23-2.17,3.38-3.22,2.33-2.06,3.53-3,2.43-1.94,3.68-2.87,2.52-1.82,3.81-2.69,2.61-1.69,3.94-2.49,2.69-1.57,4.06-2.3S53,13,54.38,12.32s2.83-1.3,4.26-1.89S61.53,9.27,63,8.75s2.94-1,4.43-1.46,3-.87,4.5-1.25,3-.72,4.55-1,3-.57,4.59-.8,3.08-.42,4.63-.57,3.1-.26,4.65-.34,3.1-.12,4.66-.12" transform="translate(0 0)"/><rect class="cls-7" x="14.68" y="170.82" width="154.05" height="31.23"/><path class="cls-8" d="M71.87,83.3c-5.3,1.93-3.46-4.13-3.64-6.74s0-5.27-1.11-7.63c-.85-1.88-2.46-3.54-2.46-5.6,0-1.57,1-3,1.33-4.48.55-2.09,0-4.34.39-6.45a8.36,8.36,0,0,1,9-6.69c2.06.27,4,1.32,6.09,1,2.25-.32,4-2.15,5.92-3.3A9.65,9.65,0,0,1,96.54,43a8.13,8.13,0,0,1,4.4,7.83A7,7,0,0,1,94.68,57c-1.86.11-3.65-.6-5.45-1.06s-3.85-.63-5.39.42c-1.92,1.32-2.77,4.36-5.1,4.58-1.23.11-2.34-.67-3.47-1.17s-2.72-.59-3.37.49c-.53.87-.09,2,0,3,.21,1.86-.22,3.71-1.93,4.54-.68,5.12.87,10,2.41,15" transform="translate(0 0)"/><polygon class="cls-9" points="28.03 172.46 13.67 92.11 59.87 92.11 76.97 170.93 28.03 172.46"/><polygon class="cls-10" points="31.58 172.34 16.44 92.11 62.64 92.11 79.74 170.93 31.58 172.34"/></g><g class="cls-11"><path class="cls-9" d="M63.14,92.11s-16,7-20.44,14.61c-3.86,6.53-22.35,45-15.5,50.36s52.38,3.67,52.38,3.67l3-12.23L46.8,142.4l21.9-19.28Z" transform="translate(0 0)"/></g><g class="cls-5"><path class="cls-12" d="M103.14,111.61c-.25-.79-2-17.79-19.94-17.35-16.8.39-26.15,1.36-32,14.45l6.24,24.66,1.29,38.22L107.18,170Z" transform="translate(0 0)"/><path class="cls-12" d="M58.44,99.23a32.32,32.32,0,0,0-11.33,11.2c-3.86,6.53-22.35,45-15.5,50.36S84,164.46,84,164.46l3-12.24L51.2,146.1l6.24-12.73Z" transform="translate(0 0)"/><path class="cls-12" d="M94.29,97.1s17.11,11.47,35,41.34L122,156.11l-18.81-23.89Z" transform="translate(0 0)"/><polygon class="cls-9" points="76 173.74 115.22 173.74 117.16 170.39 76 171.57 76 173.74"/><path class="cls-13" d="M86.11,156.61h16.07s9.83,8.76,8.13,9.18-7.71-5.5-7.71-5.5l4.58,10.19s-7-1-9.31-2.89-4.41-3.41-4.41-3.41l-9.15.85Z" transform="translate(0 0)"/><path class="cls-14" d="M58.18,99.56a2,2,0,0,1,.43-.07,3,3,0,0,1,.52,0,3.35,3.35,0,0,1,.71,0,7.17,7.17,0,0,1,4,2,9.46,9.46,0,0,1,1.9,2.5,10.21,10.21,0,0,1,1,3.45,20.18,20.18,0,0,1-1,8.15,66.6,66.6,0,0,1-5.79,13.74c-.93,1.67-1.76,3-2.35,3.86-.29.45-.53.78-.7,1a2,2,0,0,1-.26.34c.07-.13.14-.26.22-.38l.65-1c.56-.9,1.36-2.23,2.27-3.9a69.45,69.45,0,0,0,5.72-13.71,20.47,20.47,0,0,0,1-8,9.45,9.45,0,0,0-2.82-5.84,7.3,7.3,0,0,0-3.93-2,11.19,11.19,0,0,0-1.64-.06" transform="translate(0 0)"/><path class="cls-14" d="M100.78,109.64a1.28,1.28,0,0,1,.07.34c.05.25.1.58.16,1l.58,3.61c.48,3.07,1.15,7.26,1.88,11.89s1.31,8.88,1.65,11.94c.17,1.54.28,2.78.34,3.64,0,.41,0,.74.05,1a1.93,1.93,0,0,1,0,.34,1.86,1.86,0,0,1-.06-.34c0-.26-.06-.58-.1-1-.09-.86-.23-2.1-.43-3.63-.39-3.05-1-7.27-1.73-11.92s-1.37-8.86-1.8-11.91c-.22-1.53-.38-2.77-.48-3.62,0-.41-.08-.73-.11-1a2,2,0,0,1,0-.35" transform="translate(0 0)"/></g><g class="cls-15"><path class="cls-9" d="M54.49,181.64c0,.86-4,1.56-9,1.56s-9-.7-9-1.56,4-1.56,9-1.56,9,.7,9,1.56" transform="translate(0 0)"/></g><g class="cls-5"><path class="cls-16" d="M32.47,170.09C32.3,168,34,168.65,34,168.65l.92,6s-2.17-.63-2.49-4.55m16.29-4.89s-7.71-2.93-14.94,0v1.67s-2.61-.21-2.61,2.3.84,5.85,4.18,7.23l1.45,4.6s6.27,1.56,9.51,0c0,0,.74-2.41,1.36-4.91.45-1.81,1-10.87,1-10.87" transform="translate(0 0)"/><path class="cls-17" d="M47.72,165.34s-6.78-1.63-12.76,0c0,0,6.14,5.14,12.76,0" transform="translate(0 0)"/><path class="cls-18" d="M48.4,172.27a2.19,2.19,0,0,1-.48.25c-.47.18-.94.34-1.42.48a19.09,19.09,0,0,1-4.91.8,19.7,19.7,0,0,1-5-.48,14,14,0,0,1-1.44-.41,1.62,1.62,0,0,1-.51-.21s.76.19,2,.43a22.23,22.23,0,0,0,9.77-.32c1.22-.33,2-.61,2-.56" transform="translate(0 0)"/><path class="cls-18" d="M48.06,170.82a2.87,2.87,0,0,1-.48.28,13.88,13.88,0,0,1-1.38.58,16.35,16.35,0,0,1-4.84.93,15.94,15.94,0,0,1-4.91-.55,11.19,11.19,0,0,1-1.45-.48,2.65,2.65,0,0,1-.48-.23s.75.23,2,.51a18.24,18.24,0,0,0,9.64-.38c1.19-.38,1.89-.72,1.92-.67" transform="translate(0 0)"/></g><g class="cls-19"><path class="cls-20" d="M35.21,165.39a1.77,1.77,0,0,1,.37-2.36,8.85,8.85,0,0,1,2.33-1.25,2.82,2.82,0,0,0,1.74-1.86c.3-1.67-1.9-3.15-1.34-4.75s2.89-1.39,3.79-2.7-.36-3.49.26-5.13a2.75,2.75,0,0,1,2.94-1.56,4.37,4.37,0,0,1,2.89,2,11.65,11.65,0,0,1,1.42,3.3c.48,1.5.87,3.2.1,4.57-.39.69-1.09,1.4-.79,2.14.18.44.67.67,1,1,.85.83.75,2.23.36,3.37a8.62,8.62,0,0,1-15.45,1.69" transform="translate(0 0)"/></g><g class="cls-5"><path class="cls-21" d="M97.17,112.43a7.54,7.54,0,0,1-1,1.74,7.45,7.45,0,0,1-1.28,1.57,15,15,0,0,1,2.33-3.31" transform="translate(0 0)"/><path class="cls-20" d="M71.89,94.82s9.88,25.6,16.77,34.25c0,0,2.89-25.25,0-34.36,0,0-13.22-1.58-16.77.11" transform="translate(0 0)"/><path class="cls-13" d="M70.25,53.21l-.66,15.18s-4.67,0-4.66,4.23C64.93,78,70,77.1,70,77.1s-1,10.27,13,11.12c16.48,1,13-24.77,12.34-36.86Z" transform="translate(0 0)"/><path class="cls-13" d="M88.66,76.37l-.82,18.52A7.17,7.17,0,0,1,77.46,101l-.17-.09a7.16,7.16,0,0,1-4-6.64c.19-6.51.26-17.72.26-17.72Z" transform="translate(0 0)"/><path class="cls-14" d="M88.66,129.08a2.13,2.13,0,0,1-.33-.28c-.21-.18-.52-.48-.91-.84-.79-.75-1.89-1.85-3.24-3.23s-2.94-3-4.78-4.82a38.05,38.05,0,0,1-2.82-2.86,8.45,8.45,0,0,1-1.93-3.86,5.11,5.11,0,0,1,.49-3.43l.21.17a2,2,0,0,1-1.93.31,2.86,2.86,0,0,1-1.5-1.1,6.57,6.57,0,0,1-.83-3.32c-.11-2.15-.22-4.06-.3-5.67s-.14-2.85-.18-3.76a7.34,7.34,0,0,0,0-1,2,2,0,0,1,0-.35,2,2,0,0,1,.05.35c0,.25,0,.59.08,1,.07.91.15,2.19.26,3.76s.23,3.52.37,5.66a6.35,6.35,0,0,0,.8,3.19,2.59,2.59,0,0,0,1.37,1,1.7,1.7,0,0,0,1.64-.26l.61-.53-.4.7a4.88,4.88,0,0,0-.45,3.25,8.13,8.13,0,0,0,1.87,3.74,37.52,37.52,0,0,0,2.79,2.85c1.83,1.78,3.41,3.45,4.74,4.84s2.41,2.52,3.18,3.29c.36.38.65.67.87.89a2.21,2.21,0,0,1,.29.32" transform="translate(0 0)"/><path class="cls-14" d="M88.66,94.72l.22.16c.13.12.33.3.57.54a14.34,14.34,0,0,1,1.87,2.24,17.59,17.59,0,0,1,1,1.78,8.52,8.52,0,0,1,.86,2.23,6.6,6.6,0,0,1,.08,2.69A4.91,4.91,0,0,1,92,107v-.18a4.21,4.21,0,0,1,1,2,8,8,0,0,1,.09,2.29c-.12,1.29-.38,2.5-.59,3.68s-.45,2.31-.67,3.37c-.49,2.15-.92,4.08-1.33,5.7s-.77,2.89-1,3.8l-.31,1A2.06,2.06,0,0,1,89,129a1.61,1.61,0,0,1,.07-.37c.07-.26.15-.61.26-1,.22-.9.56-2.2,1-3.82s.83-3.55,1.26-5.7c.23-1.08.45-2.21.66-3.38a32.51,32.51,0,0,0,.58-3.64,8.25,8.25,0,0,0-.07-2.22,4.06,4.06,0,0,0-.89-1.87l-.08-.09.08-.09a4.75,4.75,0,0,0,1.24-2.5,6.64,6.64,0,0,0-.06-2.59,9.09,9.09,0,0,0-.81-2.2,18.16,18.16,0,0,0-1-1.76,14.62,14.62,0,0,0-1.79-2.28c-.22-.23-.39-.42-.54-.56s-.19-.2-.18-.2" transform="translate(0 0)"/><path class="cls-14" d="M90.31,156.61c-.08,0-.56-6.13-1.08-13.71s-.88-13.71-.8-13.71.56,6.12,1.08,13.7.87,13.71.8,13.72" transform="translate(0 0)"/><path class="cls-14" d="M92.77,136.52a.66.66,0,0,1,.37,0,1.48,1.48,0,0,1,.92.48,1.51,1.51,0,0,1-1.27,2.49,1.66,1.66,0,0,1-1.42-1.19,1.61,1.61,0,0,1,.26-1.51,1.26,1.26,0,0,1,.91-.49.61.61,0,0,1,.37.08s-.14,0-.36,0a1.19,1.19,0,0,0-.76.49,1.49,1.49,0,0,0,1,2.3,1.29,1.29,0,0,0,1.1-2.09,1.42,1.42,0,0,0-.78-.48c-.22-.06-.35,0-.35-.07" transform="translate(0 0)"/><path class="cls-14" d="M93.65,147.41a.66.66,0,0,1,.37,0,1.41,1.41,0,0,1,.91.48,1.48,1.48,0,0,1,.28,1.49,1.52,1.52,0,0,1-1.55,1,1.71,1.71,0,0,1-1.18-2.69,1.28,1.28,0,0,1,.91-.49c.26,0,.38.07.37.08s-.13,0-.36,0a1.18,1.18,0,0,0-.76.48,1.46,1.46,0,0,0-.15,1.3,1.41,1.41,0,0,0,1.19,1,1.27,1.27,0,0,0,1.29-.8,1.34,1.34,0,0,0-.19-1.28,1.42,1.42,0,0,0-.78-.48c-.22-.06-.35-.05-.35-.07" transform="translate(0 0)"/><path class="cls-14" d="M92.54,137.4a.21.21,0,0,1,0,.19.21.21,0,0,1-.19.08c-.07,0-.12-.13,0-.23s.2-.11.24,0" transform="translate(0 0)"/><path class="cls-14" d="M93.32,138a.13.13,0,0,1,0,.19.13.13,0,0,1-.19.05.11.11,0,0,1-.06-.09.11.11,0,0,1,0-.11.14.14,0,0,1,.19,0" transform="translate(0 0)"/><path class="cls-14" d="M93.32,148.22a.2.2,0,0,1,0,.25.19.19,0,0,1-.23.06.18.18,0,0,1,0-.24.18.18,0,0,1,.23-.07" transform="translate(0 0)"/><path class="cls-14" d="M94.19,149.07c0,.06,0,.17-.07.25a.2.2,0,0,1-.26.05c0-.06,0-.17.07-.25s.21-.11.26-.05" transform="translate(0 0)"/><path class="cls-14" d="M86.62,152.83c.07,0-.49,3.18-1.24,7.07s-1.44,7-1.51,7,.49-3.19,1.24-7.08,1.44-7,1.51-7" transform="translate(0 0)"/><path class="cls-14" d="M80.67,152c.07,0-.53,3.13-1.34,6.94s-1.54,6.9-1.62,6.88.52-3.12,1.34-6.94S80.59,152,80.67,152" transform="translate(0 0)"/><path class="cls-14" d="M87.08,152.92c0,.07-6.46-1.11-14.41-2.64s-14.37-2.83-14.35-2.89,6.47,1.1,14.41,2.64,14.36,2.83,14.35,2.89" transform="translate(0 0)"/><path class="cls-14" d="M83.87,166.69c0,.08-5.62-.31-12.53-.86s-12.52-1.06-12.52-1.13,5.62.3,12.52.85,12.53,1.06,12.53,1.14" transform="translate(0 0)"/><path class="cls-14" d="M91.18,170.56a10.39,10.39,0,0,1-.55-3,9.89,9.89,0,0,1,.09-3.07c.08,0,0,1.38.19,3.05s.36,3,.27,3" transform="translate(0 0)"/><path class="cls-14" d="M101.11,121.33a26.67,26.67,0,0,1-3.78.43,25.38,25.38,0,0,1-3.8.16,26.52,26.52,0,0,1,3.78-.44,26.78,26.78,0,0,1,3.8-.15" transform="translate(0 0)"/><path class="cls-14" d="M124.94,149.68c-.06,0-4.94-5.84-10.89-13.16s-10.73-13.3-10.66-13.34,4.93,5.86,10.89,13.16S125,149.64,125,149.68" transform="translate(0 0)"/><path class="cls-14" d="M62.23,148c-.08,0-.48-4.49-.87-10s-.66-10.07-.58-10.08.48,4.5.86,10,.67,10.07.59,10.07" transform="translate(0 0)"/><path class="cls-14" d="M64.54,171.44a10.4,10.4,0,0,1-.86-6.26c.08,0,0,1.44.23,3.15s.74,3.07.65,3.1" transform="translate(0 0)"/><path class="cls-21" d="M98.66,119.31c-.06,0-.48-.35-.93-.89a3.34,3.34,0,0,1-.72-1.07c.06,0,.49.35.93.89s.78,1,.72,1.07" transform="translate(0 0)"/><path class="cls-21" d="M72.88,128.67a4.49,4.49,0,0,1-.76,1.37,4.45,4.45,0,0,1-1,1.2,4.79,4.79,0,0,1,.76-1.36,4.49,4.49,0,0,1,1-1.21" transform="translate(0 0)"/><path class="cls-21" d="M66.13,134.13a12.29,12.29,0,0,1-2.69-2.55,12.29,12.29,0,0,1,2.69,2.55" transform="translate(0 0)"/><path class="cls-21" d="M67.46,127a2.81,2.81,0,0,1-.82-1.45,2.78,2.78,0,0,1-.13-1.64c.08,0,.14.72.4,1.56a13.56,13.56,0,0,1,.55,1.52" transform="translate(0 0)"/><path class="cls-21" d="M71.05,121a2.91,2.91,0,0,1-1.4-.7c-.7-.53-1.13-1.1-1.07-1.15a8.66,8.66,0,0,1,1.24.92,8.63,8.63,0,0,1,1.23.93" transform="translate(0 0)"/><path class="cls-21" d="M81.39,127.27a3.58,3.58,0,0,1-.6,1.28A3.76,3.76,0,0,1,80,129.7a6.89,6.89,0,0,1,1.43-2.43" transform="translate(0 0)"/><path class="cls-21" d="M77.33,125.18a6.78,6.78,0,0,1-.2-3.6,9.86,9.86,0,0,1,.14,1.8,9,9,0,0,1,.06,1.8" transform="translate(0 0)"/><path class="cls-21" d="M77.31,137.35a5.54,5.54,0,0,1-.49-3.72c.08,0,.06.85.2,1.87a17.63,17.63,0,0,1,.29,1.85" transform="translate(0 0)"/><path class="cls-21" d="M73.31,140.43a3.92,3.92,0,0,1-1.26-1.27,3.8,3.8,0,0,1-.79-1.61c.67,1,1.36,1.93,2,2.89" transform="translate(0 0)"/><path class="cls-21" d="M67.67,142.19c0,.06-.4.48-1,.89a3.27,3.27,0,0,1-1.16.66c-.05-.06.4-.48,1-.89a3.18,3.18,0,0,1,1.16-.66" transform="translate(0 0)"/><path class="cls-21" d="M64.23,139.23c0,.06-.44-.19-.76-.65s-.4-.92-.33-.94.27.36.57.78.57.74.52.81" transform="translate(0 0)"/><path class="cls-21" d="M73.08,146.6a4,4,0,0,1-.27,1.44,3.69,3.69,0,0,1-.54,1.35,7.55,7.55,0,0,1,.81-2.78" transform="translate(0 0)"/><path class="cls-21" d="M78.57,148.14a2.92,2.92,0,0,1-1-1.27,2.89,2.89,0,0,1-.44-1.59c.25.47.48,1,.69,1.45a12.91,12.91,0,0,1,.76,1.42" transform="translate(0 0)"/><path class="cls-21" d="M85.46,148.26a10.15,10.15,0,0,1-2.78-1.85,10.33,10.33,0,0,1,2.76,1.85" transform="translate(0 0)"/><path class="cls-21" d="M86.22,140.26c0,.06-.48.57-1.14,1.14a4.87,4.87,0,0,1-1.33.92c0-.06.48-.57,1.14-1.14a4.87,4.87,0,0,1,1.33-.92" transform="translate(0 0)"/><path class="cls-21" d="M80.31,140.21c.06,0-.07.34-.31.65s-.48.53-.52.48.07-.33.3-.65.48-.52.53-.48" transform="translate(0 0)"/><path class="cls-21" d="M84.75,135.69a10.68,10.68,0,0,1-1.35-1.17c-.74-.65-1.39-1.1-1.34-1.18a5.91,5.91,0,0,1,2.69,2.35" transform="translate(0 0)"/><path class="cls-21" d="M71.21,116.69c-.06,0,.48-.81,1-1.84s.73-1.92.81-1.92a4.37,4.37,0,0,1-.55,2,4.42,4.42,0,0,1-1.23,1.72" transform="translate(0 0)"/><path class="cls-21" d="M68.59,113.76a5.07,5.07,0,0,1-.36-1.88,5.22,5.22,0,0,1,.1-1.93,8.89,8.89,0,0,1,.18,1.93,9.65,9.65,0,0,1,.08,1.92" transform="translate(0 0)"/><path class="cls-21" d="M68.69,102.64a1.84,1.84,0,0,1-1.24-.48c-.61-.45-.89-1-.82-1s.42.41,1,.83,1.1.64,1.07.71" transform="translate(0 0)"/><path class="cls-21" d="M66.73,97.2c0,.07-.37.33-.91.59s-1,.4-1,.33.38-.33.92-.59,1-.4,1-.33" transform="translate(0 0)"/><path class="cls-21" d="M73.51,105.63a2.85,2.85,0,0,1,0-1.3,3.27,3.27,0,0,1,.29-1.27,3.16,3.16,0,0,1,0,1.3,3.1,3.1,0,0,1-.29,1.27" transform="translate(0 0)"/><path class="cls-21" d="M78,113.56c0,.06-.36-.1-.7-.35s-.58-.52-.53-.58.36.1.7.35.58.52.53.58" transform="translate(0 0)"/><path class="cls-21" d="M91.73,110.67a4.06,4.06,0,0,1-.2,1.47,3.88,3.88,0,0,1-.48,1.4,7.59,7.59,0,0,1,.67-2.89" transform="translate(0 0)"/><path class="cls-21" d="M92.06,103.68c0,.06-.46-.12-.79-.55s-.42-.88-.35-.89.26.33.57.72.61.65.57.72" transform="translate(0 0)"/><path class="cls-21" d="M95.86,105.32a2.83,2.83,0,0,1-.55,1.16c-.37.6-.72,1-.79,1a2.91,2.91,0,0,1,.56-1.16c.36-.59.72-1,.78-1" transform="translate(0 0)"/><path class="cls-21" d="M98.82,108.82a9,9,0,0,1,.19-3.19,9.24,9.24,0,0,1-.19,3.19" transform="translate(0 0)"/><path class="cls-21" d="M96.56,101.12a5.47,5.47,0,0,1-1.24-1.3,5.58,5.58,0,0,1-1-1.48,6.18,6.18,0,0,1,1.24,1.31,5.77,5.77,0,0,1,1,1.47" transform="translate(0 0)"/><path class="cls-21" d="M59.38,112.42a7,7,0,0,1,.18-1.93,6.15,6.15,0,0,1,.45-1.88,7,7,0,0,1-.18,1.93,6.71,6.71,0,0,1-.45,1.88" transform="translate(0 0)"/><path class="cls-21" d="M56.45,105.94a7.22,7.22,0,0,1-1.45.39,6.43,6.43,0,0,1-1.44.34,2.92,2.92,0,0,1,1.38-.61,2.8,2.8,0,0,1,1.49-.12" transform="translate(0 0)"/><path class="cls-21" d="M60.55,103.37s-.51-.32-1-.83-.88-1-.83-1,.51.31,1,.82.88,1,.82,1" transform="translate(0 0)"/><path class="cls-21" d="M64,111a3,3,0,0,1-.35-1.58,3.08,3.08,0,0,1,.25-1.61,10.69,10.69,0,0,1,0,1.6A10.58,10.58,0,0,1,64,111" transform="translate(0 0)"/><path class="cls-21" d="M59.72,121.48A4.13,4.13,0,0,1,60.2,120a3.9,3.9,0,0,1,.73-1.34,4.37,4.37,0,0,1-.49,1.45,4,4,0,0,1-.72,1.33" transform="translate(0 0)"/><path class="cls-21" d="M55.92,117a2,2,0,0,1,.49-1.24c.4-.62.91-1,1-.91a8.74,8.74,0,0,1-.73,1.07c-.39.59-.64,1.11-.71,1.08" transform="translate(0 0)"/><path class="cls-21" d="M50.89,115.83a11.54,11.54,0,0,1,1.45-3.29,11.49,11.49,0,0,1-1.44,3.29" transform="translate(0 0)"/><path class="cls-21" d="M47.66,114.58a4.86,4.86,0,0,1,.08-1.66,4.81,4.81,0,0,1,.35-1.63A5.15,5.15,0,0,1,48,113a5.07,5.07,0,0,1-.36,1.63" transform="translate(0 0)"/><path class="cls-21" d="M45.4,123.14A7.52,7.52,0,0,1,44,120.68c.07,0,.45.48.85,1.16a3.86,3.86,0,0,1,.6,1.3" transform="translate(0 0)"/><path class="cls-21" d="M49.33,120.46a8.15,8.15,0,0,1-.84-2.89,4.11,4.11,0,0,1,.56,1.39,4.22,4.22,0,0,1,.28,1.48" transform="translate(0 0)"/><path class="cls-21" d="M54.49,123.56c-1.06.65-2.13,1.3-3.21,1.92a6.67,6.67,0,0,1,3.21-1.92" transform="translate(0 0)"/><path class="cls-21" d="M55.72,131.48a10.91,10.91,0,0,1,.82-1.55,11.48,11.48,0,0,1,.82-1.55,3.7,3.7,0,0,1-.57,1.68,3.84,3.84,0,0,1-1.07,1.42" transform="translate(0 0)"/><path class="cls-21" d="M52,132.6a12.84,12.84,0,0,1,.21-3.81A13.51,13.51,0,0,1,52,132.6" transform="translate(0 0)"/><path class="cls-21" d="M48.41,130.53a3.67,3.67,0,0,1-1.8-1.14,3.87,3.87,0,0,1-1.11-1.82c.08,0,.49.81,1.32,1.62s1.63,1.27,1.59,1.34" transform="translate(0 0)"/><path class="cls-21" d="M42.15,129.83a5.17,5.17,0,0,1,.17-1.62,4.73,4.73,0,0,1,.45-1.57,5,5,0,0,1-.17,1.62,4.79,4.79,0,0,1-.45,1.57" transform="translate(0 0)"/><path class="cls-21" d="M52.22,137c0,.07-.44.43-1,.94s-.92,1-1,.91.24-.59.79-1.11a2.47,2.47,0,0,1,1.16-.74" transform="translate(0 0)"/><path class="cls-21" d="M44.91,139.6a11.74,11.74,0,0,1,0-3.6,12.07,12.07,0,0,1,0,3.6" transform="translate(0 0)"/><path class="cls-21" d="M41.51,141.68a4.19,4.19,0,0,1-1.7-.43,4.28,4.28,0,0,1-1.51-.89,9.37,9.37,0,0,1,1.62.63,8,8,0,0,1,1.59.69" transform="translate(0 0)"/><path class="cls-21" d="M39.58,136.31a9.32,9.32,0,0,1-.43-3.19,4.48,4.48,0,0,1,.35,1.57,4.64,4.64,0,0,1,.08,1.62" transform="translate(0 0)"/><path class="cls-21" d="M45.73,145.15a4.19,4.19,0,0,1-1.42.4,3.93,3.93,0,0,1-1.45.12,7.59,7.59,0,0,1,2.9-.52" transform="translate(0 0)"/><path class="cls-21" d="M36.17,147.53a4.48,4.48,0,0,1-.3-1.53,4.54,4.54,0,0,1,0-1.56,8.71,8.71,0,0,1,.31,3.09" transform="translate(0 0)"/><path class="cls-21" d="M33,153.09a5.06,5.06,0,0,1-.49-1.56,5,5,0,0,1-.21-1.63,10,10,0,0,1,.7,3.19" transform="translate(0 0)"/><path class="cls-21" d="M35.64,155.86a4.09,4.09,0,0,1-1.22.8,3.87,3.87,0,0,1-1.35.54,3.73,3.73,0,0,1,1.21-.79,3.86,3.86,0,0,1,1.36-.55" transform="translate(0 0)"/><path class="cls-21" d="M39,154.66a5.66,5.66,0,0,1-1.69-3.22,13.73,13.73,0,0,1,.83,1.62,13.66,13.66,0,0,1,.86,1.6" transform="translate(0 0)"/><path class="cls-21" d="M43.55,152.69a2.92,2.92,0,0,1-.62-1.13,3,3,0,0,1-.36-1.22,2.81,2.81,0,0,1,.62,1.12,3,3,0,0,1,.36,1.23" transform="translate(0 0)"/><path class="cls-21" d="M41.3,157.52A12.6,12.6,0,0,1,38.52,160a6.35,6.35,0,0,1,1.3-1.34,6.46,6.46,0,0,1,1.48-1.13" transform="translate(0 0)"/><path class="cls-21" d="M47.82,159.65a8.36,8.36,0,0,1-2.53-3.56c.83,1.19,1.68,2.38,2.53,3.56" transform="translate(0 0)"/><path class="cls-21" d="M46.14,162.15a3.93,3.93,0,0,1-1.44.24,3.73,3.73,0,0,1-1.45,0,4,4,0,0,1,1.45-.24,4.1,4.1,0,0,1,1.44,0" transform="translate(0 0)"/><path class="cls-21" d="M50.36,151.85A20.18,20.18,0,0,1,49,147.33a9.29,9.29,0,0,1,.82,2.22,10.27,10.27,0,0,1,.55,2.3" transform="translate(0 0)"/><path class="cls-21" d="M56.85,149.42a12.19,12.19,0,0,1-3.6.51,5.75,5.75,0,0,1,1.78-.4,6.54,6.54,0,0,1,1.82-.11" transform="translate(0 0)"/><path class="cls-21" d="M53.45,156.18a6.37,6.37,0,0,1-1.13.51,6.07,6.07,0,0,1-1.13.52c0-.06.36-.49,1-.77a1.9,1.9,0,0,1,1.25-.26" transform="translate(0 0)"/><path class="cls-21" d="M56.23,162.15a6.84,6.84,0,0,1-1.45-1.29,6.81,6.81,0,0,1-1.22-1.46A6.51,6.51,0,0,1,55,160.68a6.82,6.82,0,0,1,1.25,1.48" transform="translate(0 0)"/><path class="cls-21" d="M59.42,157.21a39.43,39.43,0,0,1,.31-3.3,3.94,3.94,0,0,1,.09,1.67,3.84,3.84,0,0,1-.4,1.63" transform="translate(0 0)"/><path class="cls-21" d="M63.68,160.84a6.42,6.42,0,0,1-1.7.89,6.51,6.51,0,0,1-1.81.64,6.42,6.42,0,0,1,1.7-.89,6.4,6.4,0,0,1,1.81-.64" transform="translate(0 0)"/><path class="cls-21" d="M66.13,153.39A7.81,7.81,0,0,1,65,151.6a8.23,8.23,0,0,1-.91-1.92,8.34,8.34,0,0,1,1.15,1.78,8.52,8.52,0,0,1,.91,1.93" transform="translate(0 0)"/><path class="cls-21" d="M67.86,156.4a12.35,12.35,0,0,1-1.72.15,11,11,0,0,1-1.72.19,5.1,5.1,0,0,1,3.44-.34" transform="translate(0 0)"/><path class="cls-21" d="M73.94,154.73a17.05,17.05,0,0,1-1.2-1.57,18.6,18.6,0,0,1-1.28-1.51A4.17,4.17,0,0,1,73,153a4.54,4.54,0,0,1,1,1.74" transform="translate(0 0)"/><path class="cls-21" d="M72.51,159.83a3.87,3.87,0,0,1-1.29.63,3.78,3.78,0,0,1-1.39.37,7.2,7.2,0,0,1,2.68-1" transform="translate(0 0)"/><path class="cls-21" d="M82.19,162.66a4.45,4.45,0,0,1-.36-1.52,4.55,4.55,0,0,1-.08-1.56,9,9,0,0,1,.44,3.08" transform="translate(0 0)"/><path class="cls-21" d="M83.52,156.59a6.19,6.19,0,0,1,.12-1.82A5.75,5.75,0,0,1,84,153a7,7,0,0,1-.12,1.82,6.39,6.39,0,0,1-.4,1.78" transform="translate(0 0)"/><path class="cls-21" d="M77,158.14A25.41,25.41,0,0,1,75,163.08,26.42,26.42,0,0,1,77,158.14" transform="translate(0 0)"/><path class="cls-21" d="M59.72,139.81a12.23,12.23,0,0,1-.52-3.71,6.8,6.8,0,0,1,.4,1.84,6.5,6.5,0,0,1,.12,1.87" transform="translate(0 0)"/><path class="cls-21" d="M60.24,146.09c-.07,0-.34-.41-.42-1a1.55,1.55,0,0,1,.12-1.12c.08,0,.07.48.16,1.08a4.38,4.38,0,0,1,.14,1.08" transform="translate(0 0)"/><path class="cls-21" d="M61.48,170a3.33,3.33,0,0,1-.44-1.26,3.28,3.28,0,0,1-.18-1.32,6.23,6.23,0,0,1,.62,2.58" transform="translate(0 0)"/><path class="cls-21" d="M68.79,168.83a6.18,6.18,0,0,1-1.79-.44,6.22,6.22,0,0,1-1.71-.7,6.24,6.24,0,0,1,1.8.44,5.87,5.87,0,0,1,1.7.7" transform="translate(0 0)"/><path class="cls-21" d="M75.07,167.59c.05,0-.4.48-1,1a3.7,3.7,0,0,1-1.18.77c0-.07.4-.49,1-1a3.38,3.38,0,0,1,1.17-.76" transform="translate(0 0)"/><path class="cls-21" d="M81.25,169l-3-1a3,3,0,0,1,1.58.24,3.17,3.17,0,0,1,1.41.78" transform="translate(0 0)"/><path class="cls-21" d="M88.45,166.47c.06.06-.26.48-.59,1a5.77,5.77,0,0,1-.64,1,1.91,1.91,0,0,1,.4-1.11c.36-.56.78-.9.83-.85" transform="translate(0 0)"/><path class="cls-21" d="M88.63,152a5.65,5.65,0,0,1-.4-1.68,5.22,5.22,0,0,1-.11-1.72,10.89,10.89,0,0,1,.51,3.4" transform="translate(0 0)"/><path class="cls-21" d="M94.63,155.15a8.31,8.31,0,0,1-2.47-1.76,4.28,4.28,0,0,1,1.32.77,4.2,4.2,0,0,1,1.15,1" transform="translate(0 0)"/><path class="cls-21" d="M101,145.79a8.46,8.46,0,0,1,.56-2.1,8,8,0,0,1,.82-2,17.15,17.15,0,0,1-1.38,4.11" transform="translate(0 0)"/><path class="cls-21" d="M97.29,145.17a4.38,4.38,0,0,1-1.29-.85,4.7,4.7,0,0,1-1.12-1.07,4.3,4.3,0,0,1,1.3.85c.66.53,1.16,1,1.11,1.07" transform="translate(0 0)"/><path class="cls-21" d="M99.17,137.86a8.06,8.06,0,0,1-1.23,2.68,3.88,3.88,0,0,1,.48-1.4,4,4,0,0,1,.74-1.28" transform="translate(0 0)"/><path class="cls-21" d="M92.06,144.54a2.87,2.87,0,0,1-.79-1.24,2.93,2.93,0,0,1-.35-1.45,23.77,23.77,0,0,1,1.14,2.68" transform="translate(0 0)"/><path class="cls-21" d="M97.61,130.85a2.39,2.39,0,0,1-.82,1.2,2.54,2.54,0,0,1-1.24.76,10.22,10.22,0,0,1,1-1,10,10,0,0,1,1-1" transform="translate(0 0)"/><path class="cls-21" d="M91.63,131.78c-.07.05-.46-.43-.89-1.05a3.58,3.58,0,0,1-.66-1.21c.07-.05.49.42.89,1a3.48,3.48,0,0,1,.66,1.21" transform="translate(0 0)"/><path class="cls-21" d="M97.41,126.33a3.51,3.51,0,0,1-1.26-.61,3.59,3.59,0,0,1-1.11-.83,3.39,3.39,0,0,1,1.26.59c.65.4,1.15.78,1.11.85" transform="translate(0 0)"/><path class="cls-21" d="M101.36,131.37a7.89,7.89,0,0,1,0-2.17,8.17,8.17,0,0,1,.26-2.15,16.55,16.55,0,0,1-.25,4.33" transform="translate(0 0)"/><path class="cls-21" d="M98.29,153.8a12.85,12.85,0,0,1,1.36-3.6,13.29,13.29,0,0,1-1.36,3.6" transform="translate(0 0)"/><path class="cls-21" d="M103.79,154.43a5.63,5.63,0,0,1,.29-1.78,6.09,6.09,0,0,1,.56-1.72,5.73,5.73,0,0,1-.29,1.79,6.13,6.13,0,0,1-.56,1.71" transform="translate(0 0)"/><path class="cls-21" d="M95.48,168.83a3.2,3.2,0,0,1-1-2.77c.08,0,.14.66.41,1.41s.6,1.32.54,1.36" transform="translate(0 0)"/><path class="cls-21" d="M111.79,125.4a4.2,4.2,0,0,1-.21-1.86,4,4,0,0,1,.35-1.85,14.46,14.46,0,0,1-.07,1.86,12.67,12.67,0,0,1-.07,1.85" transform="translate(0 0)"/><path class="cls-21" d="M108.52,121.7a6.89,6.89,0,0,1-2.67-.72,6.89,6.89,0,0,1,2.67.72" transform="translate(0 0)"/><path class="cls-21" d="M109.12,116.75a13.84,13.84,0,0,1,.07-3.91,6.77,6.77,0,0,1,.11,2,7.13,7.13,0,0,1-.18,2" transform="translate(0 0)"/><path class="cls-21" d="M106.35,114.28a4,4,0,0,1-1.54,0,4.21,4.21,0,0,1-1.53-.26,4.48,4.48,0,0,1,1.55,0,4.12,4.12,0,0,1,1.52.26" transform="translate(0 0)"/><path class="cls-21" d="M104.09,109a4,4,0,0,1-.24-1.38,3.48,3.48,0,0,1,0-1.4,3.62,3.62,0,0,1,.24,1.38,3.47,3.47,0,0,1,0,1.4" transform="translate(0 0)"/><path class="cls-21" d="M108.23,133.93a5,5,0,0,1-1.09-1.2,4.92,4.92,0,0,1-.86-1.38,9.29,9.29,0,0,1,2,2.58" transform="translate(0 0)"/><path class="cls-21" d="M110.78,137.75a4.83,4.83,0,0,1,0-1.61,4.79,4.79,0,0,1,.27-1.59,9.07,9.07,0,0,1-.27,3.2" transform="translate(0 0)"/><path class="cls-21" d="M115.11,140.23a6.05,6.05,0,0,1-2.57.31,6.23,6.23,0,0,1,2.57-.31" transform="translate(0 0)"/><path class="cls-21" d="M117.17,143.3a3.18,3.18,0,0,1-.28,1.29,3.29,3.29,0,0,1-.54,1.19,6.06,6.06,0,0,1,.82-2.48" transform="translate(0 0)"/><path class="cls-21" d="M120.47,148c.06,0-.2.48-.32,1.06s0,1.07-.11,1.1a1.39,1.39,0,0,1-.16-1.16c.13-.66.54-1.06.59-1" transform="translate(0 0)"/><path class="cls-21" d="M121.7,140.33a13.75,13.75,0,0,1-1.7.14,13.79,13.79,0,0,1-1.7.17,5.05,5.05,0,0,1,3.38-.31" transform="translate(0 0)"/><path class="cls-21" d="M125.32,139a12,12,0,0,1-.2,1.69,10.75,10.75,0,0,1-.16,1.7,5.09,5.09,0,0,1,.36-3.37" transform="translate(0 0)"/><path class="cls-21" d="M116.63,132.89a7.53,7.53,0,0,1,.06-2.12,8.29,8.29,0,0,1,.33-2.1,7.53,7.53,0,0,1-.06,2.12,8.29,8.29,0,0,1-.33,2.1" transform="translate(0 0)"/><path class="cls-21" d="M114.59,129.06a7.59,7.59,0,0,1-2.78-.54,7.17,7.17,0,0,1,2.78.54" transform="translate(0 0)"/><path class="cls-21" d="M116.36,123.34a5.2,5.2,0,0,1-.24-3.6,15.39,15.39,0,0,1,.08,1.8c.06,1,.23,1.78.16,1.8" transform="translate(0 0)"/><path class="cls-21" d="M113.88,117.69c0,.07-.39.09-.84,0s-.82-.17-.81-.25.39-.09.84,0,.82.16.81.24" transform="translate(0 0)"/><path class="cls-21" d="M121.29,128.07a1.93,1.93,0,0,1-1.23-.36,2.13,2.13,0,0,1-.93-.87,8.85,8.85,0,0,1,1.07.62c.6.34,1.11.53,1.09.61" transform="translate(0 0)"/><path class="cls-21" d="M124,133.85a8,8,0,0,1-2.66,1.38,8,8,0,0,1,2.66-1.38" transform="translate(0 0)"/><polygon class="cls-20" points="72.59 94.57 72.99 90.02 82.06 97.1 84.32 100.76 88.38 91.3 89.37 92.61 89.37 98.34 84.99 103.68 76.72 102.95 72.59 94.57"/><path class="cls-22" d="M81.68,97.66a5,5,0,0,1,0,.55c0,.41-.07.92-.11,1.54-.11,1.36-.27,3.2-.44,5.3l0,.32-.21-.25-2-2.43c-1.86-2.26-3.53-4.31-4.72-5.81L72.75,95.1a5.14,5.14,0,0,1-.48-.67,6.5,6.5,0,0,1,.57.6l1.47,1.73c1.24,1.44,2.93,3.49,4.78,5.75l2,2.44-.24.08.55-5.3c.07-.62.13-1.13.18-1.54a2.05,2.05,0,0,1,.1-.54" transform="translate(0 0)"/><path class="cls-22" d="M89.25,98.1a3.48,3.48,0,0,1,0,.91c-.06.58-.16,1.38-.28,2.33l-.08.58-.18-.56c-.15-.49-.31-1-.48-1.62a26.74,26.74,0,0,1-.65-3.44,5.82,5.82,0,0,1-.09-1.44,9.6,9.6,0,0,1,.32,1.41c.16.87.39,2.08.72,3.39.15.57.3,1.12.45,1.61h-.26c.14-.94.27-1.74.37-2.3a4.53,4.53,0,0,1,.21-.9" transform="translate(0 0)"/><path class="cls-22" d="M88.66,129.08a1.28,1.28,0,0,1-.07-.28l-.14-.83c-.13-.77-.29-1.8-.49-3.06-.39-2.62-.92-6.17-1.5-10.12s-1.11-7.48-1.5-10.12c-.19-1.26-.35-2.3-.48-3.06,0-.34-.09-.61-.12-.83a1.53,1.53,0,0,1,0-.3,1,1,0,0,1,.08.29c0,.22.1.48.17.82.14.72.33,1.76.56,3,.44,2.58,1,6.14,1.58,10.09s1.07,7.53,1.42,10.12c.16,1.27.3,2.31.4,3.07q.06.51.09.84a.71.71,0,0,1,0,.29" transform="translate(0 0)"/><path class="cls-22" d="M80.4,101.94c0,.07-.05.22-.15.4s-.18.36-.26.35-.12-.24,0-.48.36-.33.4-.27" transform="translate(0 0)"/><path class="cls-22" d="M88.74,98.91c-.08,0-.14-.21-.13-.48s.08-.48.15-.46.14.21.13.48-.08.49-.15.49" transform="translate(0 0)"/><path class="cls-22" d="M87.51,95.17a9.92,9.92,0,0,1-1.26,2.89,9.61,9.61,0,0,1-1.93,2.51c-.06-.06.8-1.17,1.67-2.65s1.42-2.79,1.5-2.75" transform="translate(0 0)"/><path class="cls-22" d="M84.51,100.91a11.86,11.86,0,0,1-2.89-3,9.42,9.42,0,0,1,1.51,1.45,8.87,8.87,0,0,1,1.37,1.57" transform="translate(0 0)"/><path class="cls-22" d="M86.88,109.21c-.06.05-.22-.13-.25-.35s0-.36,0-.4.21.14.24.35,0,.35,0,.4" transform="translate(0 0)"/><path class="cls-22" d="M87.71,114.62c-.08,0-.14-.16-.16-.36s0-.38.1-.39.15.15.18.36,0,.39-.12.39" transform="translate(0 0)"/><path class="cls-23" d="M85.18,74.58a1.49,1.49,0,0,0,.41.38,1.14,1.14,0,0,0,1.35-.23,1.81,1.81,0,0,0,.48-.89,4,4,0,0,0,.09-1.2c-.06-.88-.12-1.83-.19-2.84-.13-2-.23-3.85-.29-5.17,0-.66,0-1.2-.06-1.58a2.71,2.71,0,0,1,0-.57,2.71,2.71,0,0,1,.09.57c0,.37.09.9.15,1.57.11,1.32.24,3.14.37,5.17.06,1,.11,2,.17,2.84a4.6,4.6,0,0,1-.12,1.28,2,2,0,0,1-.58,1,1.33,1.33,0,0,1-.86.36,1.1,1.1,0,0,1-.68-.19c-.34-.22-.37-.48-.36-.48" transform="translate(0 0)"/><path class="cls-23" d="M86.69,78.14a1.82,1.82,0,0,1-1,.38,3.67,3.67,0,0,1-2.49-.43,3.74,3.74,0,0,1-1.61-2,1.94,1.94,0,0,1-.14-1s.08.39.33,1a3.75,3.75,0,0,0,3.88,2.27c.63-.07,1-.23,1-.19" transform="translate(0 0)"/><path class="cls-23" d="M82.09,74.87c0,.07-.48,0-.93.25s-.63.69-.7.67,0-.14,0-.33a1.27,1.27,0,0,1,1.32-.74c.2,0,.3.11.29.15" transform="translate(0 0)"/><path class="cls-23" d="M88.94,87a2.46,2.46,0,0,1-.56.34,11.23,11.23,0,0,1-1.64.7,12.68,12.68,0,0,1-11.3-1.59,11.62,11.62,0,0,1-1.39-1.13,2.88,2.88,0,0,1-.44-.48s.69.63,1.93,1.45a13.2,13.2,0,0,0,11.12,1.56c1.45-.43,2.24-.9,2.26-.85" transform="translate(0 0)"/><path class="cls-23" d="M67.84,74.72a1.82,1.82,0,0,0,.57-.78,1.55,1.55,0,0,0,0-1,.9.9,0,0,0-.91-.6.56.56,0,0,0-.41.27.53.53,0,0,0,0,.49l-.25.09a11.61,11.61,0,0,1-.27-2.2,11.44,11.44,0,0,1,.52,2.17l.14.71-.38-.62a.83.83,0,0,1,0-.75.81.81,0,0,1,.62-.42,1.06,1.06,0,0,1,.77.19,1.37,1.37,0,0,1,.42.59,1.58,1.58,0,0,1,0,1.17,1.38,1.38,0,0,1-.48.61c-.16.11-.27.12-.27.11" transform="translate(0 0)"/><path class="cls-14" d="M80.61,66.93c-.15,0-.29-.61-.29-1.36s.11-1.37.27-1.37.28.6.29,1.36-.12,1.37-.27,1.37" transform="translate(0 0)"/><path class="cls-14" d="M92.27,66.36c-.15,0-.29-.51-.3-1.14s.1-1.15.25-1.15.29.5.31,1.14-.1,1.15-.26,1.15" transform="translate(0 0)"/><path class="cls-8" d="M69.83,68.41a4.13,4.13,0,0,0-.24,2.86c.39.9,1.81,1.34,2.34.51a2.11,2.11,0,0,0,.22-1.11l.06-7.88a10.33,10.33,0,0,0,8-7.41A7,7,0,0,0,87,55.6a4.79,4.79,0,0,1,2.68-1c1.15.16,1.82,1.35,2.77,2a3.58,3.58,0,0,0,5.11-1.4c.84-1.93-.3-4.26-2.09-5.34-2.25-1.37-5.09-1.1-7.71-.79L73.29,50.84a5.11,5.11,0,0,0-2.64.82,4.85,4.85,0,0,0-1.36,2.47,35.36,35.36,0,0,0-1.47,11.2c0,1.16.23,2.51,1.24,3.08" transform="translate(0 0)"/><path class="cls-8" d="M82.2,61.48c.08.38-.75.86-1.84,1.07s-2,.07-2.1-.31.75-.86,1.84-1.06,2-.08,2.1.3" transform="translate(0 0)"/><path class="cls-8" d="M93.68,61.32c0,.38-.75.64-1.61.58s-1.53-.43-1.5-.81.75-.65,1.61-.58,1.53.42,1.5.81" transform="translate(0 0)"/></g><g class="cls-5"><path class="cls-24" d="M88.35,65.72a5.63,5.63,0,0,1-2.45,0,5.34,5.34,0,0,1,2.45,0" transform="translate(0 0)"/><path class="cls-23" d="M106.49,170.51a8.8,8.8,0,0,1-1.11-1.33c-.65-.86-1.51-2.07-2.41-3.45s-1.64-2.66-2.15-3.6a9.89,9.89,0,0,1-.76-1.57A10.5,10.5,0,0,1,101,162c.56.92,1.33,2.18,2.21,3.55s1.72,2.6,2.32,3.48a12.51,12.51,0,0,1,1,1.44" transform="translate(0 0)"/><path class="cls-23" d="M105.6,170.45a1.09,1.09,0,0,1-.4,0,4.1,4.1,0,0,1-1-.41,9.73,9.73,0,0,1-2.7-2.41c-.9-1.1-1.7-2.1-2.28-2.84a8,8,0,0,1-.87-1.22,8.28,8.28,0,0,1,1,1.1c.61.7,1.44,1.68,2.33,2.78a7.67,7.67,0,0,0,3.94,3.06" transform="translate(0 0)"/><polygon class="cls-9" points="115.22 173.74 129.26 138.44 176.34 139.3 163.1 172.76 115.22 173.74"/><polygon class="cls-25" points="131.44 138.48 117.05 173.74 163.1 172.76 176.34 139.3 131.44 138.48"/><path class="cls-26" d="M146.56,154.13c1.26-1.25,3.1-1.44,4.11-.42a3,3,0,0,1-.43,4.1c-1.24,1.26-3.09,1.45-4.1.43s-.83-2.85.42-4.11" transform="translate(0 0)"/></g><g class="cls-27"><path class="cls-26" d="M145.6,153.2c2-2,4.85-2.26,6.44-.67s1.3,4.48-.67,6.45-4.85,2.27-6.45.67-1.29-4.48.68-6.45" transform="translate(0 0)"/></g></g></g></svg>