<svg xmlns="http://www.w3.org/2000/svg" xmlns:xlink="http://www.w3.org/1999/xlink" viewBox="0 0 209.21 190"><defs><style>.cls-1{fill:none;}.cls-2{clip-path:url(#clip-path);}.cls-3{fill:#417dbf;}.cls-4{fill:#9589bb;}.cls-5{fill:#ece5f1;}.cls-6{fill:#fff;}.cls-7{clip-path:url(#clip-path-3);}.cls-8{fill:url(#linear-gradient);}.cls-9{clip-path:url(#clip-path-5);}.cls-10{fill:url(#linear-gradient-2);}.cls-11{fill:#7c729f;}.cls-12{fill:#473b61;}.cls-13{fill:#dcd1e7;}</style><clipPath id="clip-path" transform="translate(19.21)"><path class="cls-1" d="M94.71,0h0q-4.48,0-8.94.45h-.08c-3,.29-6,.73-8.91,1.3l-.31.06c-1.61.33-3.21.69-4.79,1.09s-2.85.75-4.26,1.18Q63,5.44,58.65,7.23a92.7,92.7,0,0,0-8.43,4q-4.12,2.2-8,4.79c-.83.56-1.66,1.13-2.48,1.71-1.19.86-2.37,1.74-3.52,2.65l-1.49,1.19-1.44,1.21q-2.84,2.43-5.47,5.05L26.57,29.1q-2.2,2.29-4.26,4.73l-.75.9q-3,3.62-5.55,7.49c-1.08,1.61-2.1,3.26-3.08,4.93h0a.05.05,0,0,1,0,0c-.08.13-.16.27-.23.41-.5.86-1,1.73-1.45,2.61a92.7,92.7,0,0,0-4,8.43c-1,2.42-1.91,4.88-2.71,7.38l-.43,1.39q-1.35,4.47-2.27,9c-.32,1.63-.6,3.26-.84,4.9C.78,82.8.6,84.25.46,85.69.16,88.75,0,91.82,0,94.89V95c0,3,.14,6,.43,9l0,.28c.28,2.92.71,5.82,1.26,8.7,0,.17.07.35.1.52q.92,4.57,2.27,9c.9,3,2,5.9,3.14,8.77.39.93.79,1.86,1.2,2.77q1.29,2.88,2.79,5.66c.69,1.29,1.4,2.56,2.15,3.81q1.26,2.13,2.64,4.19l.16.24q2.52,3.75,5.39,7.25t6.26,6.91c1.4,1.39,2.83,2.74,4.31,4,.85.75,1.72,1.49,2.6,2.22q3.62,3,7.49,5.55t8,4.79a92.7,92.7,0,0,0,8.43,4q4.31,1.78,8.77,3.14t9,2.27c2.94.58,5.9,1,8.89,1.33l.33,0c3.09.31,6.2.46,9.31.46s6.21-.15,9.31-.46l.3,0c3-.3,6-.75,8.92-1.33s6.07-1.37,9-2.27,5.9-1.95,8.77-3.14a92.7,92.7,0,0,0,8.43-4q4.13-2.21,8-4.79c1.25-.84,2.49-1.71,3.7-2.6s2.55-1.94,3.79-2.95l.37-.32.15-.12c.18-.14.35-.29.52-.44,2-1.71,4-3.51,5.87-5.38q3.28-3.3,6.26-6.91t5.55-7.49c.53-.79,1-1.58,1.54-2.38q1.72-2.76,3.25-5.62c1-1.79,1.86-3.6,2.69-5.45.45-1,.88-2,1.3-3,.33-.81.66-1.62,1-2.44.45-1.17.87-2.35,1.28-3.54.31-.93.6-1.86.89-2.79.9-3,1.66-6,2.26-9q.53-2.62.9-5.28c.19-1.31.34-2.62.47-3.94.31-3.09.46-6.2.46-9.31q0-3.5-.26-7h0c0-.09,0-.18,0-.28h0c0-.09,0-.18,0-.27v0a2.11,2.11,0,0,1,0-.25v0a1.94,1.94,0,0,0,0-.24v0c0-.08,0-.16,0-.24v0a1.94,1.94,0,0,0,0-.24v0l0-.25v0l0-.29,0-.29c-.08-.85-.18-1.69-.29-2.54-.28-2.14-.62-4.27-1.05-6.39-.24-1.22-.5-2.43-.79-3.63-.25-1-.52-2.07-.8-3.1-.21-.77-.44-1.55-.67-2.32s-.46-1.47-.7-2.2c-.73-2.22-1.55-4.41-2.44-6.57s-1.88-4.32-2.94-6.41c-.34-.68-.69-1.35-1.05-2-.58-1.08-1.17-2.15-1.79-3.2s-1.35-2.26-2.06-3.37L174,42.22q-2.6-3.88-5.55-7.49-.81-1-1.65-1.95c-.6-.69-1.21-1.38-1.84-2.06-.9-1-1.83-1.95-2.77-2.9q-3.31-3.29-6.91-6.26-2.45-2-5-3.83c-.82-.59-1.65-1.16-2.49-1.72q-2.21-1.47-4.47-2.81c-1.16-.69-2.34-1.35-3.53-2a92.7,92.7,0,0,0-8.43-4C128.48,6,125.55,5,122.58,4.09s-6-1.66-9-2.27S107.41.76,104.31.46h-.08Q99.78,0,95.29,0h-.58"/></clipPath><clipPath id="clip-path-3" transform="translate(19.21)"><polygon class="cls-1" points="103.22 102.75 103.67 108.79 120.59 107.53 120.44 101.19 103.22 102.75"/></clipPath><linearGradient id="linear-gradient" x1="-1846.38" y1="13188.49" x2="-1845.38" y2="13188.49" gradientTransform="translate(1792.67 -6440.97) scale(0.5)" gradientUnits="userSpaceOnUse"><stop offset="0" stop-color="#6cc0cd"/><stop offset="0.05" stop-color="#6cc0cd"/><stop offset="1" stop-color="#add79f"/></linearGradient><clipPath id="clip-path-5" transform="translate(19.21)"><path class="cls-1" d="M78.52,89.32v0c-4.44-.15-5.19-4.73-5.19-4.73l-6.84,6.58,2.13,5.58,2.57-2.06.31,14.8h.25l16.57-.61L87.08,93.6l4.13,1.77,1.52-6.19v0L82.75,84s0,5.5-4.23,5.35"/></clipPath><linearGradient id="linear-gradient-2" x1="4363.66" y1="10137.38" x2="4364.66" y2="10137.38" gradientTransform="translate(-941.62 -4934.85) scale(0.5)" gradientUnits="userSpaceOnUse"><stop offset="0" stop-color="#e48d7e"/><stop offset="0.12" stop-color="#e3867e"/><stop offset="0.69" stop-color="#e0627f"/><stop offset="1" stop-color="#de557f"/></linearGradient></defs><g id="Layer_2" data-name="Layer 2"><g id="Layer_1-2" data-name="Layer 1"><g class="cls-2"><path class="cls-3" d="M95,0c1.55,0,3.11,0,4.66.12s3.1.19,4.65.34,3.09.34,4.63.57,3.07.49,4.59.8,3,.64,4.55,1,3,.79,4.5,1.24,3,.94,4.42,1.46,2.92,1.09,4.35,1.68,2.86,1.23,4.27,1.89,2.79,1.37,4.16,2.1,2.73,1.5,4.06,2.3,2.65,1.63,3.94,2.49,2.56,1.76,3.81,2.69,2.48,1.88,3.68,2.86,2.38,2,3.53,3.05,2.28,2.12,3.37,3.22,2.18,2.22,3.22,3.37,2.06,2.33,3.05,3.53,1.94,2.43,2.86,3.68,1.83,2.52,2.69,3.81,1.69,2.61,2.49,3.94,1.57,2.69,2.3,4.06,1.43,2.76,2.1,4.16,1.29,2.83,1.89,4.27,1.15,2.88,1.68,4.35,1,2.94,1.46,4.42.86,3,1.24,4.5.72,3,1,4.55.57,3,.8,4.59.42,3.08.57,4.63.27,3.1.34,4.65S190,93.45,190,95s0,3.11-.12,4.66-.19,3.1-.34,4.65-.34,3.09-.57,4.63-.49,3.07-.8,4.59-.64,3-1,4.55-.79,3-1.24,4.5-.94,3-1.46,4.43-1.09,2.91-1.68,4.35-1.23,2.85-1.89,4.26-1.37,2.79-2.1,4.16-1.5,2.73-2.3,4.06-1.63,2.65-2.49,3.94-1.76,2.56-2.69,3.81-1.88,2.48-2.86,3.68-2,2.38-3.05,3.53-2.12,2.28-3.22,3.38-2.22,2.17-3.37,3.21-2.33,2.06-3.53,3.05-2.43,1.94-3.68,2.87-2.52,1.82-3.81,2.68-2.61,1.7-3.94,2.49-2.69,1.57-4.06,2.3-2.76,1.43-4.16,2.1-2.83,1.29-4.27,1.89-2.88,1.15-4.35,1.68-2.94,1-4.42,1.46-3,.87-4.5,1.24-3,.72-4.55,1-3,.56-4.59.79-3.08.42-4.63.57-3.1.27-4.65.35S96.55,190,95,190s-3.11,0-4.66-.11-3.1-.19-4.65-.35-3.09-.34-4.63-.57-3.07-.49-4.59-.79-3-.65-4.55-1-3-.79-4.5-1.24-3-.94-4.43-1.46-2.91-1.09-4.35-1.68-2.85-1.23-4.26-1.89-2.79-1.36-4.16-2.1-2.73-1.5-4.06-2.3-2.65-1.63-3.94-2.49-2.56-1.76-3.81-2.68-2.48-1.89-3.68-2.87-2.38-2-3.53-3.05-2.28-2.12-3.38-3.21-2.17-2.23-3.21-3.38-2.06-2.33-3.05-3.53-1.94-2.43-2.87-3.68-1.82-2.52-2.68-3.81-1.7-2.61-2.49-3.94-1.57-2.69-2.3-4.06-1.43-2.76-2.1-4.16-1.29-2.83-1.89-4.26S6.08,128.47,5.55,127s-1-2.93-1.46-4.42-.87-3-1.24-4.5-.72-3-1-4.55-.56-3-.79-4.59-.42-3.08-.57-4.63-.27-3.1-.35-4.65S0,96.56,0,95s0-3.11.11-4.66.19-3.1.35-4.65S.8,82.6,1,81.06s.49-3.07.79-4.59.65-3,1-4.55.79-3,1.24-4.5S5,64.46,5.55,63s1.09-2.92,1.68-4.35,1.23-2.86,1.89-4.27,1.36-2.79,2.1-4.16,1.5-2.73,2.3-4.06,1.63-2.65,2.49-3.94,1.76-2.56,2.68-3.81,1.89-2.47,2.87-3.68,2-2.38,3.05-3.53,2.11-2.28,3.21-3.37,2.23-2.18,3.38-3.22,2.33-2.06,3.53-3.05,2.43-1.94,3.68-2.86,2.52-1.83,3.81-2.69,2.61-1.69,3.94-2.49,2.69-1.57,4.06-2.3S53,9.79,54.38,9.12s2.83-1.29,4.26-1.89S61.53,6.08,63,5.55s2.94-1,4.43-1.46,3-.86,4.5-1.24,3-.72,4.55-1,3-.57,4.59-.8S84.14.61,85.69.46s3.1-.27,4.65-.34S93.44,0,95,0" transform="translate(19.21)"/><path class="cls-4" d="M49,71.39l1.8,81.16L162.47,149l1.44-93.77a6.59,6.59,0,0,0-7.54-6.62L55.76,63.33A8,8,0,0,0,49,71.39" transform="translate(19.21)"/><path class="cls-5" d="M53.93,69l2.38,78.48,99.46-3.89s.65-88.67,1.29-88.67S53.94,69,53.94,69" transform="translate(19.21)"/></g><g class="cls-2"><path class="cls-5" d="M35.14,58.18c-.06-1.34.56-3.92,3.38-4.07a3,3,0,0,1,2.32.8,4.82,4.82,0,0,1,1.1,3.27l-.74,0a4.21,4.21,0,0,0-.88-2.72,2.22,2.22,0,0,0-1.77-.58c-2.79.15-2.68,3.16-2.68,3.29Z" transform="translate(19.21)"/><polygon class="cls-6" points="122.22 80.59 122.22 86.77 165.89 83.4 165.89 77.13 122.22 80.59"/><polygon class="cls-6" points="122.22 89.66 122.22 95.36 156.16 93.09 156.16 87.57 122.22 89.66"/></g><g class="cls-7"><rect class="cls-8" x="102.44" y="98.39" width="18.94" height="13.19" transform="translate(-10.43 45.74) rotate(-20.46)"/></g><g class="cls-2"><path class="cls-4" d="M58.31,71.87a.88.88,0,1,1-.88-.88.87.87,0,0,1,.88.88" transform="translate(19.21)"/><path class="cls-4" d="M61.27,71.41a.88.88,0,0,1-.54.82.9.9,0,0,1-1-.19.88.88,0,0,1-.19-1,.88.88,0,0,1,1.7.33" transform="translate(19.21)"/><path class="cls-4" d="M64.34,71a.88.88,0,0,1-1.5.63.88.88,0,1,1,1.5-.63" transform="translate(19.21)"/></g><g class="cls-9"><rect class="cls-10" x="85.69" y="83.97" width="26.24" height="25.5"/></g><g class="cls-2"><polygon class="cls-11" points="0 158.96 0 162.07 84.27 160.51 181.67 149.01 0 158.96"/><polygon class="cls-4" points="181.67 149.01 79.92 157.57 0 158.96 69.97 152.53 181.67 149.01"/><polygon class="cls-4" points="90.84 119.67 90.84 138.06 109.16 136.82 108.55 118.47 90.84 119.67"/><polygon class="cls-4" points="113.26 118.9 113.26 137.3 131.59 136.06 130.97 117.7 113.26 118.9"/><polygon class="cls-4" points="135.81 117.98 135.81 136.37 154.14 135.13 153.53 116.78 135.81 117.98"/><polygon class="cls-5" points="40.66 64.91 38.46 83.74 46.47 82.94 55.48 84.75 53.28 64.91 40.66 64.91"/><polygon class="cls-5" points="50.95 63.61 51.46 58.26 64.08 58.26 66.29 78.1 56.1 76.06 54.66 63.87 50.95 63.61"/><path class="cls-5" d="M24.36,65.32c-.06-1.34.56-3.92,3.38-4.07a3,3,0,0,1,2.32.8,4.82,4.82,0,0,1,1.1,3.27l-.74,0a4.21,4.21,0,0,0-.88-2.72A2.24,2.24,0,0,0,27.78,62c-2.81.15-2.69,3.16-2.68,3.29Z" transform="translate(19.21)"/><path class="cls-12" d="M18.47,84.06c-.07,0-.09-.24,0-.52s.14-.48.2-.48.1.24.05.51-.14.48-.21.48" transform="translate(19.21)"/><path class="cls-12" d="M18.17,86c-.07,0-.09-.24-.06-.51s.13-.49.2-.49.1.25.06.52-.13.48-.2.48" transform="translate(19.21)"/><path class="cls-12" d="M17.94,88c-.07,0-.11-.24-.08-.51S18,87,18.05,87s.1.23.07.5S18,88,17.94,88" transform="translate(19.21)"/><path class="cls-12" d="M17.77,90c-.07,0-.11-.23-.09-.5s.09-.48.16-.48.12.23.1.48-.1.48-.17.48" transform="translate(19.21)"/><path class="cls-12" d="M17.68,91.94c-.07,0-.12-.22-.11-.48s.08-.48.14-.48.13.23.12.48-.08.48-.15.48" transform="translate(19.21)"/><path class="cls-12" d="M17.68,93.93c-.07,0-.13-.22-.13-.48s.05-.48.12-.48.13.22.14.48-.06.48-.13.48" transform="translate(19.21)"/><path class="cls-12" d="M17.78,95.91c-.08,0-.15-.21-.16-.48s0-.48.09-.48.15.21.16.48,0,.48-.09.48" transform="translate(19.21)"/><path class="cls-12" d="M18,97.89c-.07,0-.15-.2-.19-.48s0-.48.07-.51.16.21.19.49,0,.48-.07.5" transform="translate(19.21)"/><path class="cls-12" d="M18.29,99.82c-.07,0-.16-.19-.21-.48s0-.49,0-.51.17.19.21.48,0,.48,0,.51" transform="translate(19.21)"/><path class="cls-12" d="M18.74,101.78c-.08,0-.18-.19-.25-.46s-.06-.48,0-.51.18.19.25.45.06.49,0,.52" transform="translate(19.21)"/><path class="cls-12" d="M19.31,103.67c-.07,0-.19-.16-.28-.43s-.1-.48,0-.51.18.17.27.43.1.49,0,.51" transform="translate(19.21)"/><path class="cls-12" d="M20,105.52c-.07,0-.2-.15-.31-.4s-.13-.49-.06-.52.2.16.3.42.13.48.07.5" transform="translate(19.21)"/><path class="cls-12" d="M20.87,107.32c-.07,0-.22-.14-.34-.39s-.17-.48-.1-.48.21.14.33.39.17.48.11.48" transform="translate(19.21)"/><path class="cls-12" d="M21.85,109c-.06,0-.22-.12-.36-.36s-.21-.46-.15-.48.23.12.37.36.2.45.14.48" transform="translate(19.21)"/><path class="cls-12" d="M23,110.67c-.06,0-.23-.1-.39-.33s-.25-.43-.19-.48.23.11.39.33.24.43.19.48" transform="translate(19.21)"/><path class="cls-12" d="M24.25,112.2c-.05,0-.25-.08-.43-.29s-.28-.42-.22-.48.24.08.42.29.28.41.23.48" transform="translate(19.21)"/><path class="cls-12" d="M25.65,113.6c0,.05-.25-.06-.45-.25s-.32-.38-.27-.44.25.06.45.25.32.38.27.44" transform="translate(19.21)"/><path class="cls-12" d="M27.19,114.84c0,.06-.26,0-.48-.2s-.36-.34-.32-.4.26,0,.49.2.35.35.31.4" transform="translate(19.21)"/><path class="cls-12" d="M28.86,115.91c0,.07-.26,0-.49-.14s-.4-.3-.36-.37.26,0,.48.15.4.31.37.36" transform="translate(19.21)"/><path class="cls-12" d="M30.64,116.77c0,.07-.25,0-.5-.08s-.44-.25-.41-.32.26,0,.51.08.43.25.4.32" transform="translate(19.21)"/><path class="cls-12" d="M32.53,117.37c0,.07-.24.07-.51,0s-.49-.18-.45-.25.26-.07.52,0,.46.19.44.25" transform="translate(19.21)"/><path class="cls-12" d="M34.49,117.65c0,.07-.23.11-.48.08s-.49-.12-.49-.19.24-.1.51-.07.48.11.48.18" transform="translate(19.21)"/><path class="cls-12" d="M36.47,117.6c0,.07-.21.14-.48.17s-.48,0-.48-.09.21-.15.48-.17.48,0,.48.09" transform="translate(19.21)"/><path class="cls-12" d="M38.39,117.1c0,.07-.17.19-.44.27s-.48.1-.51,0,.18-.19.44-.27.48-.09.51,0" transform="translate(19.21)"/><path class="cls-12" d="M40.1,116.12s-.1.23-.33.38-.46.23-.49.17.12-.24.35-.38.43-.23.48-.17" transform="translate(19.21)"/><path class="cls-12" d="M41.51,114.72c.06,0,0,.25-.23.48s-.37.34-.42.29,0-.26.23-.49.37-.32.42-.28" transform="translate(19.21)"/><path class="cls-12" d="M42.5,113c.07,0,0,.25-.11.48s-.27.42-.33.39,0-.26.11-.49.26-.41.33-.38" transform="translate(19.21)"/><path class="cls-12" d="M43,111.09c.07,0,.09.24,0,.51s-.14.48-.21.48-.09-.24,0-.51.14-.48.21-.48" transform="translate(19.21)"/><path class="cls-12" d="M42.83,109.12c.07,0,.19.19.24.49s0,.5-.07.51-.15-.21-.19-.48-.05-.49,0-.51" transform="translate(19.21)"/><path class="cls-12" d="M41.94,107.37c.06-.05.24.09.4.33s.2.48.13.48-.21-.14-.35-.36-.23-.43-.18-.48" transform="translate(19.21)"/><path class="cls-12" d="M40.45,106.08c0-.06.25,0,.48.17s.36.35.31.41-.24,0-.48-.21-.37-.3-.34-.37" transform="translate(19.21)"/><path class="cls-12" d="M38.62,105.37c0-.07.24-.06.51,0s.48.2.44.27-.26,0-.51,0-.46-.2-.44-.27" transform="translate(19.21)"/><path class="cls-12" d="M36.63,105.22c0-.07.22-.13.48-.12s.48.06.48.13-.23.13-.48.12-.48-.06-.48-.13" transform="translate(19.21)"/><path class="cls-12" d="M34.68,105.6c0-.07.18-.18.45-.25s.48-.07.51,0-.18.18-.44.25-.48.07-.52,0" transform="translate(19.21)"/><path class="cls-12" d="M32.92,106.49s.12-.22.36-.37.48-.21.48-.15-.12.23-.35.37-.45.21-.48.15" transform="translate(19.21)"/><path class="cls-12" d="M31.53,107.89c-.06,0,0-.25.22-.48s.37-.34.42-.3-.05.26-.22.49-.37.33-.42.29" transform="translate(19.21)"/><path class="cls-12" d="M30.56,109.62c-.07,0,0-.25.09-.51s.27-.42.34-.39,0,.26-.11.49-.26.41-.32.39" transform="translate(19.21)"/><path class="cls-12" d="M30,111.52c-.06,0-.07-.24,0-.51s.17-.48.24-.48.07.25,0,.51-.17.48-.24.46" transform="translate(19.21)"/><path class="cls-12" d="M29.88,113.49c-.07,0-.13-.22-.12-.48s.07-.48.14-.48.12.23.12.48-.07.48-.14.48" transform="translate(19.21)"/><path class="cls-12" d="M30.11,115.46c-.07,0-.16-.19-.2-.48a.71.71,0,0,1,0-.51s.16.2.21.48,0,.48-.05.51" transform="translate(19.21)"/><path class="cls-12" d="M30.7,117.35c-.07,0-.2-.15-.29-.41s-.11-.49-.05-.51.2.16.29.41.12.49.05.51" transform="translate(19.21)"/><path class="cls-12" d="M31.62,119.09c-.06,0-.22-.12-.36-.36s-.2-.48-.13-.48.22.13.36.37.19.45.13.48" transform="translate(19.21)"/><path class="cls-12" d="M32.81,120.7c-.06,0-.24-.09-.41-.3s-.27-.43-.21-.49.24.1.41.31.26.42.21.48" transform="translate(19.21)"/><path class="cls-12" d="M34.2,122.12c-.05,0-.25-.06-.45-.25s-.32-.39-.27-.44.25.06.45.25.31.38.27.44" transform="translate(19.21)"/><path class="cls-12" d="M35.73,123.36c0,.06-.25,0-.48-.2s-.37-.34-.32-.4.26,0,.48.19.36.35.32.41" transform="translate(19.21)"/><path class="cls-12" d="M37.4,124.45c0,.06-.26,0-.48-.16s-.39-.31-.35-.37.26,0,.48.16.38.31.35.37" transform="translate(19.21)"/><path class="cls-12" d="M39.14,125.39c0,.07-.25,0-.48-.11s-.41-.28-.38-.34.26,0,.48.11.42.28.38.34" transform="translate(19.21)"/><path class="cls-12" d="M41,126.21c0,.06-.25,0-.5-.08s-.44-.25-.41-.31.26,0,.48.07.44.25.41.32" transform="translate(19.21)"/><path class="cls-12" d="M42.81,126.91c0,.07-.25,0-.51,0s-.45-.22-.42-.29.25,0,.51.05.45.22.42.29" transform="translate(19.21)"/><path class="cls-12" d="M44.71,127.49c0,.07-.25.06-.52,0s-.48-.19-.43-.26.25-.06.51,0,.45.19.44.26" transform="translate(19.21)"/><path class="cls-12" d="M46.64,127.94c0,.06-.24.07-.51,0s-.49-.16-.49-.23.25-.08.52,0,.48.16.45.23" transform="translate(19.21)"/><path class="cls-12" d="M48.6,128.25c0,.07-.24.1-.51.06s-.48-.13-.48-.2.24-.1.51-.06.48.13.48.2" transform="translate(19.21)"/><path class="cls-12" d="M50.57,128.43c0,.07-.22.11-.48.09s-.48-.09-.48-.16.23-.11.48-.1.48.1.48.17" transform="translate(19.21)"/><path class="cls-12" d="M52.56,128.46c0,.07-.22.13-.48.13s-.48-.06-.48-.13.22-.13.48-.13.48.06.48.13" transform="translate(19.21)"/><path class="cls-12" d="M54.52,128.33c0,.07-.21.15-.48.17s-.48,0-.48-.09.21-.14.48-.16.48,0,.48.08" transform="translate(19.21)"/><path class="cls-12" d="M56.5,128c0,.08-.2.17-.49.22s-.48,0-.51,0,.2-.17.49-.21.48,0,.51,0" transform="translate(19.21)"/><path class="cls-12" d="M58.43,127.6c0,.06-.18.17-.45.24s-.48.07-.51,0,.18-.18.45-.25.48-.07.51,0" transform="translate(19.21)"/><path class="cls-12" d="M60.3,127c0,.07-.16.2-.42.29s-.48.11-.51,0,.17-.19.42-.28.48-.11.51,0" transform="translate(19.21)"/><path class="cls-12" d="M62.13,126.18c0,.07-.14.21-.39.33s-.49.15-.51.09.15-.21.4-.33.48-.15.48-.09" transform="translate(19.21)"/><path class="cls-12" d="M63.87,125.23c0,.07-.12.23-.36.36s-.48.2-.48.14.13-.23.36-.36.48-.19.48-.14" transform="translate(19.21)"/><path class="cls-12" d="M65.52,124.14s-.1.23-.33.39-.44.23-.48.17.11-.23.33-.39.44-.23.48-.17" transform="translate(19.21)"/><path class="cls-12" d="M67.05,122.88c0,.06-.09.24-.29.42s-.42.28-.49.23.09-.25.3-.43.41-.27.48-.22" transform="translate(19.21)"/><path class="cls-12" d="M68.5,121.5s-.06.25-.26.45-.38.32-.43.27.06-.25.25-.45.38-.31.44-.27" transform="translate(19.21)"/><path class="cls-12" d="M69.73,120c.06,0,0,.25-.2.48s-.35.36-.41.32,0-.26.2-.48.36-.36.41-.31" transform="translate(19.21)"/><path class="cls-12" d="M70.83,118.31c.06,0,0,.25-.16.48s-.31.4-.37.35,0-.25.15-.48.32-.39.38-.35" transform="translate(19.21)"/><path class="cls-12" d="M48.5,57.89c0,.07-.11.24-.34.39s-.44.23-.48.17.11-.23.34-.38.44-.23.48-.18" transform="translate(19.21)"/><path class="cls-12" d="M50.18,56.88c0,.07-.13.22-.36.36s-.46.19-.48.13.12-.22.36-.36.48-.19.48-.13" transform="translate(19.21)"/><path class="cls-12" d="M52,56c0,.06-.15.21-.39.33s-.49.16-.49.09.15-.21.39-.32.49-.17.51-.1" transform="translate(19.21)"/><path class="cls-12" d="M53.82,55.25c0,.07-.17.21-.42.3s-.48.13-.48.06.16-.2.41-.3.48-.12.51-.06" transform="translate(19.21)"/><path class="cls-12" d="M55.7,54.64c0,.07-.18.19-.44.27s-.48.09-.51,0,.18-.19.44-.27.48-.09.51,0" transform="translate(19.21)"/><path class="cls-12" d="M57.63,54.16c0,.08-.19.18-.48.24s-.48.05-.51,0,.18-.17.45-.24a.76.76,0,0,1,.52,0" transform="translate(19.21)"/><path class="cls-12" d="M59.58,53.83c0,.07-.2.16-.48.2s-.48,0-.51-.05.2-.16.48-.21.48,0,.48.06" transform="translate(19.21)"/><path class="cls-12" d="M61.56,53.62c0,.08-.22.15-.49.17s-.48,0-.5-.08.21-.15.48-.17.48,0,.51.08" transform="translate(19.21)"/><path class="cls-12" d="M63.54,53.56c0,.07-.22.13-.48.14s-.48-.06-.48-.13.22-.13.48-.13.48.05.48.12" transform="translate(19.21)"/><path class="cls-12" d="M65.53,53.64c0,.07-.23.12-.51.11s-.48-.09-.48-.16.23-.12.48-.1.48.08.48.15" transform="translate(19.21)"/><path class="cls-12" d="M67.5,53.86c0,.07-.24.1-.51.07s-.48-.13-.48-.19.23-.1.5-.07.48.12.48.19" transform="translate(19.21)"/><path class="cls-12" d="M69.46,54.22c0,.07-.25.08-.51,0s-.48-.15-.46-.23.24-.08.51,0,.48.15.48.22" transform="translate(19.21)"/><path class="cls-12" d="M71.39,54.73c0,.07-.25.06-.51,0s-.49-.19-.45-.26.25-.06.51,0,.49.19.45.25" transform="translate(19.21)"/><path class="cls-12" d="M73.24,55.38c0,.07-.26,0-.51-.05s-.45-.23-.43-.29.26,0,.51,0,.45.23.43.3" transform="translate(19.21)"/><path class="cls-12" d="M75.05,56.17c0,.07-.26,0-.5-.09s-.43-.26-.4-.32.26,0,.49.09.42.26.39.32" transform="translate(19.21)"/><path class="cls-12" d="M76.8,57.1c0,.07-.26,0-.48-.12s-.4-.29-.37-.36.26,0,.48.13.41.3.37.35" transform="translate(19.21)"/><path class="cls-12" d="M78.48,58.17c0,.06-.26,0-.49-.16s-.37-.33-.33-.39.25,0,.48.17.38.32.34.38" transform="translate(19.21)"/><path class="cls-12" d="M80.06,59.34s-.25,0-.48-.2-.36-.35-.31-.41.25,0,.48.2.35.35.31.41" transform="translate(19.21)"/><path class="cls-12" d="M81.56,60.65c0,.05-.25,0-.48-.23S80.75,60,80.8,60s.25,0,.46.23.33.38.28.43" transform="translate(19.21)"/><path class="cls-12" d="M83,62.05c0,.05-.24-.07-.44-.27s-.29-.39-.25-.44.25.07.44.26.31.41.25.45" transform="translate(19.21)"/><path class="cls-12" d="M84.27,63.55s-.24-.09-.42-.3-.27-.41-.22-.48.24.09.42.3.28.41.22.48" transform="translate(19.21)"/><path class="cls-12" d="M85.46,65.12s-.23-.1-.39-.33-.25-.43-.19-.48.24.11.4.33.24.43.18.48" transform="translate(19.21)"/><path class="cls-12" d="M86.54,66.8c-.06,0-.23-.12-.37-.35S86,66,86,66s.22.11.37.35.22.45.15.48" transform="translate(19.21)"/><path class="cls-12" d="M87.5,68.54c-.06,0-.22-.14-.35-.38s-.17-.48-.12-.48.23.14.35.38.18.48.12.48" transform="translate(19.21)"/><path class="cls-12" d="M88.33,70.34c-.06,0-.21-.15-.32-.4s-.14-.48-.08-.5.21.14.32.4.15.48.08.5" transform="translate(19.21)"/><path class="cls-12" d="M89,72.2c-.07,0-.19-.17-.28-.43s-.12-.48,0-.51.19.17.29.43.11.48,0,.51" transform="translate(19.21)"/><path class="cls-12" d="M89.59,74.1c-.07,0-.18-.18-.26-.44s-.07-.48,0-.52.19.18.26.44.08.49,0,.52" transform="translate(19.21)"/><path class="cls-12" d="M90,76c-.07,0-.17-.2-.22-.48s0-.49,0-.52.17.2.23.49,0,.48,0,.51" transform="translate(19.21)"/><path class="cls-12" d="M90.18,77.3a.19.19,0,0,1-.1,0,.18.18,0,0,1,0-.09.12.12,0,0,1,0-.14.14.14,0,0,1,.14,0,.14.14,0,0,1,.07.12.12.12,0,0,1,0,.1.15.15,0,0,1-.09.06" transform="translate(19.21)"/><path class="cls-13" d="M25.45,70.39c0,.14-.32,6.6-.32,6.6h5.3l-.75-6.6Z" transform="translate(19.21)"/><path class="cls-13" d="M37.4,64c0,.14.68,6.6.68,6.6h4.26L41.61,64Z" transform="translate(19.21)"/></g></g></g></svg>