<?xml version="1.0" encoding="UTF-8"?><svg id="Layer_2" xmlns="http://www.w3.org/2000/svg" viewBox="0 0 95.33 95.67"><defs><style>.cls-1{fill:#171617;}</style></defs><g id="Layer_1-2"><g><path class="cls-1" d="M27.47,82.85v-1.81l33.93-.26,29.97-18.56c2-1.24,2.72-3.85,1.65-5.94-.57-1.11-1.54-1.92-2.74-2.28-1.19-.36-2.45-.22-3.54,.39l-15.64,8.8-.89-1.58,15.64-8.8c1.52-.85,3.28-1.05,4.95-.55,1.67,.5,3.03,1.63,3.83,3.18,1.5,2.93,.49,6.58-2.31,8.31l-30.4,18.83-34.46,.26Z"/><path class="cls-1" d="M56.4,68.71h-16.84v-1.81h16.84c2.26,0,4.11-1.84,4.11-4.11s-1.84-4.11-4.11-4.11h-12.59l-.27-.27c-.31-.3-7.73-7.42-21.09-1.11l-.78-1.64c13.24-6.26,21.25-.21,22.86,1.2h11.86c3.27,0,5.92,2.66,5.92,5.92s-2.66,5.92-5.92,5.92"/><path class="cls-1" d="M21.48,95.67L0,58.46l11.59-6.69,21.48,37.2-11.59,6.69ZM2.48,59.13l19.67,34.06,8.45-4.88L10.93,54.25l-8.45,4.88Z"/><path class="cls-1" d="M69.94,51.52h-10.7l-.32-1.92c-.21-1.24-.42-2.47-.62-3.71-1.17-.35-2.34-.83-3.5-1.42-1.08,.77-2.15,1.54-3.23,2.3l-1.6,1.13-7.51-7.53,1.23-1.77c.72-1.02,1.45-2.04,2.18-3.06-.62-1.18-1.09-2.29-1.43-3.39-.39-.07-.79-.14-1.18-.2l-4.62-.78v-10.53l.62-.21c.06-.02,.16-.06,.3-.08l.57-.08c1.44-.21,2.88-.43,4.32-.63,.34-1.16,.81-2.3,1.42-3.48-.74-1.01-1.48-2.02-2.21-3.03l-.58-.8c-.05-.07-.1-.15-.16-.23l-.48-.72,7.61-7.48,1.79,1.24c.99,.7,1.98,1.39,2.96,2.09,1.18-.62,2.29-1.09,3.38-1.42,.08-.46,.16-.91,.23-1.37l.77-4.44h10.57l.18,.68c.04,.14,.06,.22,.08,.31l.17,.99c.21,1.24,.43,2.49,.63,3.73,1.13,.35,2.26,.83,3.39,1.41,.29-.2,.58-.41,.88-.61l3.98-2.74,7.51,7.63-1.39,1.94c-.68,.93-1.36,1.87-2.04,2.8,.58,1.07,1.06,2.21,1.41,3.39,.82,.13,1.64,.27,2.46,.41l.14,.02c.58,.1,1.16,.2,1.73,.3l1.47,.26v10.57l-.69,.17c-.11,.03-.19,.05-.26,.06l-.77,.12c-1.33,.2-2.65,.4-3.98,.6-.33,1.08-.79,2.19-1.41,3.38,.36,.49,.71,.99,1.06,1.48l2.34,3.3-7.51,7.53-1.19-.81-3.64-2.58c-1.1,.57-2.24,1.04-3.39,1.42-.03,.18-.06,.35-.09,.53l-.88,5.2Zm-9.17-1.81h7.63l.62-3.67c.05-.31,.1-.62,.17-.93,.1-.43,.45-.83,.87-.96,1.25-.39,2.49-.91,3.68-1.54,.46-.25,.93-.21,1.39,.12l3.77,2.68,5.37-5.38-1.46-2.06c-.4-.57-.8-1.13-1.21-1.69-.23-.31-.43-.82-.1-1.44,.69-1.29,1.18-2.46,1.5-3.6,.08-.3,.33-.82,1.06-.92,1.43-.21,2.87-.43,4.3-.64l.18-.03v-7.58c-.57-.1-1.13-.2-1.7-.3l-.14-.02c-.92-.16-1.84-.32-2.76-.46-.68-.11-.95-.56-1.05-.92-.35-1.27-.85-2.49-1.5-3.61-.19-.33-.33-.85,.09-1.43,.74-1.01,1.48-2.03,2.22-3.05l.5-.68-5.37-5.46-2.73,1.88c-.37,.25-.73,.5-1.09,.76-.43,.31-.93,.34-1.41,.09-1.22-.65-2.41-1.15-3.62-1.5-.65-.19-.86-.67-.92-1.03-.22-1.35-.45-2.7-.68-4.04l-.08-.47h-7.6l-.5,2.92c-.1,.58-.19,1.16-.3,1.73-.08,.44-.45,.85-.87,.97-1.15,.32-2.33,.82-3.6,1.5-.5,.27-1.02,.24-1.48-.09-1.05-.75-2.1-1.49-3.16-2.23l-.54-.38-5.45,5.36,.33,.45c.79,1.09,1.58,2.17,2.37,3.25,.42,.58,.3,1.1,.12,1.43-.68,1.27-1.17,2.48-1.51,3.72-.14,.53-.51,.84-1.1,.93-1.52,.22-3.03,.44-4.55,.67v7.58l3.1,.53c.52,.09,1.04,.17,1.56,.27,.44,.08,.84,.45,.96,.87,.33,1.16,.83,2.35,1.52,3.63,.26,.49,.23,.98-.09,1.43-.78,1.09-1.56,2.19-2.34,3.28l-.36,.51,5.36,5.37,.35-.25c1.14-.81,2.29-1.62,3.42-2.44,.47-.34,.97-.37,1.48-.09,1.21,.64,2.43,1.14,3.65,1.48,.54,.15,.87,.52,.96,1.08,.22,1.33,.44,2.66,.67,3.99l.07,.41Zm23.96-17.98h0ZM58.12,6.13h0m6.38,30.18h-.02c-5.76-.01-10.44-4.7-10.44-10.46,0-5.77,4.7-10.46,10.46-10.46h0c2.79,0,5.41,1.09,7.39,3.07,1.98,1.98,3.07,4.61,3.07,7.39,0,2.81-1.09,5.44-3.07,7.41-1.97,1.96-4.6,3.04-7.4,3.04m-8.65-10.46c0,4.76,3.87,8.64,8.63,8.65h.02c2.32,0,4.49-.89,6.12-2.51,1.63-1.63,2.53-3.8,2.53-6.13,0-2.3-.9-4.47-2.54-6.11-1.64-1.64-3.81-2.54-6.11-2.54h0c-4.77,0-8.64,3.88-8.65,8.64"/></g></g></svg>