<svg xmlns="http://www.w3.org/2000/svg" xmlns:xlink="http://www.w3.org/1999/xlink" viewBox="0 0 190 192.85"><defs><style>.cls-1,.cls-17,.cls-18,.cls-20,.cls-31,.cls-6{fill:none;}.cls-2{clip-path:url(#clip-path);}.cls-3{fill:#417dbf;}.cls-4{clip-path:url(#clip-path-2);}.cls-5{fill:#80b377;}.cls-6{stroke:#2f5f2e;stroke-width:0.53px;}.cls-17,.cls-18,.cls-20,.cls-31,.cls-6{stroke-miterlimit:10;}.cls-7{clip-path:url(#clip-path-3);}.cls-8{clip-path:url(#clip-path-4);}.cls-9{fill:url(#linear-gradient);}.cls-10{clip-path:url(#clip-path-5);}.cls-11{fill:url(#linear-gradient-2);}.cls-12{clip-path:url(#clip-path-6);}.cls-13{fill:url(#linear-gradient-3);}.cls-14{clip-path:url(#clip-path-7);}.cls-15{fill:url(#linear-gradient-4);}.cls-16{fill:#fff;}.cls-17,.cls-20{stroke:#4566af;}.cls-17{stroke-width:0.42px;}.cls-18,.cls-31{stroke:#fff;}.cls-18{stroke-width:0.4px;}.cls-19{fill:#234085;}.cls-20{stroke-width:0.58px;}.cls-21{clip-path:url(#clip-path-9);}.cls-22{fill:url(#linear-gradient-5);}.cls-23{fill:#4566af;}.cls-24{clip-path:url(#clip-path-11);}.cls-25{fill:url(#linear-gradient-6);}.cls-26{clip-path:url(#clip-path-13);}.cls-27{fill:url(#linear-gradient-7);}.cls-28{clip-path:url(#clip-path-15);}.cls-29{fill:url(#linear-gradient-8);}.cls-30{fill:#f59990;}.cls-31{stroke-width:0.28px;}.cls-32{clip-path:url(#clip-path-17);}.cls-33{fill:url(#linear-gradient-9);}.cls-34{fill:#f06022;}.cls-35{fill:#f9c445;}.cls-36{clip-path:url(#clip-path-19);}.cls-37{fill:url(#linear-gradient-10);}.cls-38{clip-path:url(#clip-path-20);}</style><clipPath id="clip-path" transform="translate(0 0)"><path class="cls-1" d="M90.22.12H90c-1.43.08-2.87.19-4.3.33-3.1.3-6.17.76-9.22,1.36-2.21.44-4.41,1-6.58,1.56-.82.22-1.65.46-2.47.71Q63,5.44,58.64,7.23c-1,.42-2,.86-3,1.32q-2.73,1.25-5.39,2.67a92.4,92.4,0,0,0-8,4.79l-1.63,1.11c-1.54,1.08-3.06,2.21-4.54,3.38l-1.32,1.06c-.49.41-1,.82-1.47,1.24q-2.05,1.75-4,3.63c-.48.46-1,.92-1.43,1.39q-3.3,3.3-6.26,6.91T16,42.22c-1.5,2.25-2.91,4.56-4.21,6.93l-.58,1.07c-.86,1.61-1.68,3.24-2.44,4.9-.54,1.16-1.06,2.34-1.55,3.53-.15.35-.29.71-.44,1.07q-1.51,3.8-2.7,7.7c-.9,3-1.66,6-2.26,9A92.3,92.3,0,0,0,.46,85.69l0,.28Q0,90.47,0,95v.34q0,4.5.46,9c.28,2.88.69,5.73,1.24,8.57,0,.22.08.43.13.65s.09.48.14.72c.58,2.81,1.29,5.58,2.12,8.33.9,3,2,5.9,3.14,8.77.65,1.57,1.34,3.13,2.08,4.66.61,1.27,1.24,2.53,1.91,3.77.36.69.74,1.37,1.12,2q1.65,2.93,3.51,5.71l.16.25q2.59,3.87,5.55,7.49c1.41,1.71,2.88,3.38,4.4,5,.61.65,1.24,1.28,1.86,1.91s1.49,1.46,2.25,2.17c1.51,1.42,3.06,2.78,4.66,4.1.89.73,1.79,1.44,2.71,2.14q2.34,1.77,4.78,3.41,2.07,1.38,4.22,2.66,1.86,1.11,3.78,2.13c1.24.67,2.5,1.3,3.77,1.91q2.3,1.11,4.65,2.08,4.32,1.78,8.78,3.14,4.14,1.25,8.37,2.13l.68.13a92.3,92.3,0,0,0,9.22,1.37q4.5.45,9,.46H95q4.66,0,9.31-.46a92.3,92.3,0,0,0,9.22-1.37l.56-.11c2.86-.59,5.69-1.3,8.49-2.15,3-.9,5.9-1.95,8.77-3.14,1.27-.53,2.52-1.07,3.76-1.65q2.35-1.11,4.67-2.34,2.15-1.14,4.21-2.39c1.28-.77,2.55-1.57,3.79-2.4q3.27-2.19,6.35-4.64h0l1.13-.91c1.36-1.13,2.7-2.28,4-3.48q1.48-1.36,2.91-2.79,3.3-3.3,6.26-6.9c1-1.21,1.94-2.43,2.86-3.68s1.82-2.52,2.69-3.81c.36-.54.71-1.08,1.06-1.63q2-3.12,3.73-6.37c.77-1.44,1.51-2.91,2.2-4.39.63-1.33,1.22-2.67,1.79-4,1.19-2.87,2.24-5.8,3.14-8.77.66-2.19,1.25-4.4,1.75-6.63.18-.81.35-1.61.51-2.42a92.3,92.3,0,0,0,1.37-9.22c.31-3.09.46-6.2.46-9.31s-.15-6.22-.46-9.31a92.3,92.3,0,0,0-1.37-9.22c-.12-.64-.26-1.28-.4-1.92-.53-2.4-1.15-4.77-1.86-7.13-.9-3-1.95-5.9-3.14-8.78q-.9-2.16-1.9-4.28c-.66-1.39-1.36-2.78-2.09-4.14-.2-.39-.41-.76-.62-1.14q-1.29-2.36-2.73-4.63c-.47-.75-1-1.49-1.44-2.23-1.25-1.87-2.57-3.69-3.94-5.47-.53-.68-1.07-1.35-1.61-2-2-2.4-4.06-4.71-6.27-6.91-.55-.55-1.1-1.09-1.66-1.62q-2.53-2.41-5.24-4.64-3.3-2.7-6.83-5.1l-.66-.45a92.4,92.4,0,0,0-8-4.79Q137.5,10,135.14,8.9c-.83-.39-1.67-.77-2.52-1.13-.42-.19-.84-.36-1.27-.54C128.48,6,125.55,5,122.58,4.09l-1.84-.54c-2.38-.67-4.78-1.24-7.21-1.73-2.67-.53-5.35-.94-8.06-1.24-.38,0-.77-.08-1.16-.12C102.87.31,101.43.21,100,.13h-.22C98.17,0,96.59,0,95,0s-3.19,0-4.78.12"/></clipPath><clipPath id="clip-path-2" transform="translate(0 0)"><path class="cls-1" d="M128.32,120.07V184c1-.38,2-.78,3-1.19,1.27-.53,2.52-1.07,3.76-1.65q2.35-1.11,4.67-2.34,2.15-1.14,4.21-2.39c1.28-.77,2.55-1.57,3.79-2.4q3.27-2.19,6.35-4.64h0l1.13-.91c1.36-1.13,2.7-2.28,4-3.48q1.46-1.34,2.85-2.73V120.07Z"/></clipPath><clipPath id="clip-path-3" transform="translate(0 0)"><path class="cls-1" d="M33.23,119.44v47.73c.49.43,1,.85,1.5,1.27.89.73,1.79,1.44,2.71,2.14q2.34,1.77,4.78,3.41,2.07,1.38,4.22,2.66,1.86,1.11,3.78,2.13c1.24.67,2.5,1.3,3.77,1.91q2.3,1.11,4.65,2.08,3.38,1.39,6.82,2.52V119.44Z"/></clipPath><clipPath id="clip-path-4" transform="translate(0 0)"><path class="cls-1" d="M138.49,63.16a2.74,2.74,0,0,0,2.58,2.74h.32a2.74,2.74,0,1,0-2.9-2.74"/></clipPath><linearGradient id="linear-gradient" x1="5027.52" y1="10032.77" x2="5028.52" y2="10032.77" gradientTransform="translate(-1366.28 -5157.75) scale(0.52)" gradientUnits="userSpaceOnUse"><stop offset="0"/><stop offset="0.13"/><stop offset="1" stop-color="#fff"/></linearGradient><clipPath id="clip-path-5" transform="translate(0 0)"><path class="cls-1" d="M132.59,58.46A2,2,0,0,0,133.77,61a1.89,1.89,0,0,0,.7.13,2,2,0,0,0,1.88-1.31,5.2,5.2,0,0,1,9.75,0,2,2,0,0,0,3.76-1.39,9.21,9.21,0,0,0-17.27,0"/></clipPath><linearGradient id="linear-gradient-2" x1="5024.93" y1="10029.28" x2="5025.93" y2="10029.28" gradientTransform="translate(-1365.54 -5163.38) scale(0.52)" xlink:href="#linear-gradient"/><clipPath id="clip-path-6" transform="translate(0 0)"><path class="cls-1" d="M140.43,45.64a16,16,0,0,0-12.81,7.54A2,2,0,0,0,131,55.3a12,12,0,0,1,20.39,0,2,2,0,0,0,1.71,1v0a2,2,0,0,0,1.7-3.06A16,16,0,0,0,142,45.64Z"/></clipPath><linearGradient id="linear-gradient-3" x1="5024.93" y1="10029.26" x2="5025.93" y2="10029.26" gradientTransform="translate(-1365.54 -5169.22) scale(0.52)" xlink:href="#linear-gradient"/><clipPath id="clip-path-7" transform="translate(0 0)"><path class="cls-1" d="M140.69,38.92a22.72,22.72,0,0,0-17.93,9.46A2,2,0,0,0,126,50.72a18.74,18.74,0,0,1,30.42,0,2,2,0,0,0,3.63-1v-.29a1.94,1.94,0,0,0-.38-1,22.72,22.72,0,0,0-17.93-9.46Z"/></clipPath><linearGradient id="linear-gradient-4" x1="5027.52" y1="10032.69" x2="5028.52" y2="10032.69" gradientTransform="translate(-1366.27 -5175.54) scale(0.52)" xlink:href="#linear-gradient"/><clipPath id="clip-path-9" transform="translate(0 0)"><path class="cls-1" d="M82.21,127.92l-7.89,31.79h.07c16.66-2.18,26.82-16.26,26.82-16.26s10.16,14.08,26.82,16.26h.08l-7.89-31.78Z"/></clipPath><linearGradient id="linear-gradient-5" x1="5027.52" y1="10032.78" x2="5028.52" y2="10032.78" gradientTransform="translate(-1359.06 -5077.1) scale(0.52)" xlink:href="#linear-gradient"/><clipPath id="clip-path-11" transform="translate(0 0)"><path class="cls-1" d="M125.16,69.77h0l-3.3,15.9,7.79,13.18,7.75-12.73c-4.13-7.92-8.57-14.75-12.24-16.35h0Z"/></clipPath><linearGradient id="linear-gradient-6" x1="-6769.59" y1="13638.73" x2="-6768.59" y2="13638.73" gradientTransform="translate(4403.32 -7013.92) scale(0.52)" xlink:href="#linear-gradient"/><clipPath id="clip-path-13" transform="translate(0 0)"><path class="cls-1" d="M68.9,81.49,75.83,98.3l4.65-12.62-3.3-15.9c-2.75,1.19-5.6,5.78-8.28,11.71"/></clipPath><linearGradient id="linear-gradient-7" x1="-6708.07" y1="13470.58" x2="-6707.07" y2="13470.58" gradientTransform="translate(4424.65 -6991.63) scale(0.53)" xlink:href="#linear-gradient"/><clipPath id="clip-path-15" transform="translate(0 0)"><polygon class="cls-1" points="95.45 56.82 95.63 68.57 106.59 68.29 106.41 56.66 95.45 56.82"/></clipPath><linearGradient id="linear-gradient-8" x1="-6478.99" y1="-4406.4" x2="-6477.99" y2="-4406.4" gradientTransform="translate(88798.99 60391.08) scale(13.69)" gradientUnits="userSpaceOnUse"><stop offset="0" stop-color="#f59990"/><stop offset="0.19" stop-color="#f59990"/><stop offset="1" stop-color="#f17c6f"/></linearGradient><clipPath id="clip-path-17" transform="translate(0 0)"><path class="cls-1" d="M53.14,78h0C44.45,86.59,30.79,91.67,26,93.28a2.24,2.24,0,0,0-1.56,2.06v.17a.71.71,0,0,0,0,.14l2.92,26.57a32.36,32.36,0,0,0,11.05,20.87l12.53,10.84a6,6,0,0,0,3.79,1.43h.17a6,6,0,0,0,3.78-1.43l12.53-10.84a32.36,32.36,0,0,0,11-20.87l2.89-26.31V95a2.22,2.22,0,0,0-1.53-1.72C78.78,91.67,65.12,86.59,56.48,78a2.39,2.39,0,0,0-3.34,0"/></clipPath><linearGradient id="linear-gradient-9" x1="5024.93" y1="10029.04" x2="5025.93" y2="10029.04" gradientTransform="translate(-1359.23 -5103.83) scale(0.52)" xlink:href="#linear-gradient"/><clipPath id="clip-path-19" transform="translate(0 0)"><path class="cls-1" d="M52.15,80.25v68.08h0A1.36,1.36,0,0,0,53,148l12.53-10.85a27.72,27.72,0,0,0,9.51-17.92l2.69-24.73c-6-2.14-17.3-6.83-25.59-14.27Z"/></clipPath><linearGradient id="linear-gradient-10" x1="4925.03" y1="9893.75" x2="4926.03" y2="9893.75" gradientTransform="translate(-1389.29 -5082.58) scale(0.53)" xlink:href="#linear-gradient"/><clipPath id="clip-path-20" transform="translate(0 0)"><rect class="cls-1" x="46.05" y="102.81" width="12.21" height="22.16"/></clipPath></defs><g id="Layer_2" data-name="Layer 2"><g id="Layer_1-2" data-name="Layer 1"><g class="cls-2"><path class="cls-3" d="M95,0c1.55,0,3.11,0,4.66.11s3.1.19,4.65.35,3.09.34,4.63.57,3.07.49,4.59.79,3,.65,4.55,1,3,.79,4.5,1.24,3,.94,4.42,1.46,2.92,1.09,4.35,1.68,2.86,1.23,4.27,1.89,2.79,1.36,4.16,2.1,2.73,1.5,4.06,2.3,2.65,1.63,3.94,2.49,2.56,1.76,3.81,2.68,2.48,1.89,3.68,2.87,2.38,2,3.53,3.05,2.28,2.12,3.37,3.21,2.18,2.23,3.22,3.38,2.06,2.33,3.05,3.53,1.94,2.43,2.86,3.68,1.83,2.52,2.69,3.81,1.69,2.61,2.49,3.94,1.57,2.69,2.3,4.06,1.43,2.76,2.1,4.16,1.29,2.83,1.89,4.26,1.15,2.89,1.68,4.35,1,2.94,1.46,4.43.86,3,1.24,4.5.72,3,1,4.55.57,3,.8,4.59.42,3.08.57,4.63.27,3.1.35,4.65.11,3.1.11,4.66,0,3.11-.11,4.66-.2,3.1-.35,4.65-.34,3.09-.57,4.63-.49,3.07-.8,4.59-.64,3-1,4.55-.79,3-1.24,4.5-.94,3-1.46,4.42-1.09,2.92-1.68,4.35-1.23,2.86-1.89,4.27-1.37,2.79-2.1,4.16-1.5,2.73-2.3,4.06-1.63,2.65-2.49,3.94-1.76,2.56-2.69,3.81-1.88,2.47-2.86,3.68-2,2.38-3.05,3.53-2.12,2.28-3.22,3.37-2.22,2.18-3.37,3.22-2.33,2.06-3.53,3.05-2.43,1.94-3.68,2.86-2.52,1.83-3.81,2.69-2.61,1.69-3.94,2.49-2.69,1.57-4.06,2.3-2.76,1.43-4.16,2.1-2.83,1.29-4.27,1.89-2.88,1.15-4.35,1.68-2.94,1-4.42,1.46-3,.86-4.5,1.24-3,.72-4.55,1-3,.57-4.59.8-3.08.42-4.63.57-3.1.27-4.65.34S96.55,190,95,190s-3.11,0-4.66-.12-3.1-.19-4.65-.34-3.09-.34-4.63-.57-3.07-.49-4.59-.8-3-.64-4.55-1-3-.79-4.5-1.24-3-.94-4.43-1.46-2.91-1.09-4.35-1.68-2.85-1.23-4.26-1.89-2.79-1.37-4.16-2.1-2.73-1.5-4.06-2.3-2.65-1.63-3.94-2.49-2.56-1.76-3.81-2.69-2.48-1.88-3.68-2.86-2.38-2-3.53-3.05-2.28-2.12-3.38-3.22-2.17-2.22-3.21-3.37-2.06-2.33-3.05-3.53-1.94-2.43-2.87-3.68-1.82-2.52-2.68-3.81-1.69-2.61-2.49-3.94-1.57-2.69-2.3-4.06-1.43-2.76-2.1-4.16-1.29-2.83-1.89-4.27S6.08,128.47,5.55,127s-1-2.94-1.46-4.42-.87-3-1.24-4.5-.72-3-1-4.55-.56-3-.79-4.59-.42-3.08-.57-4.63-.27-3.1-.35-4.65S0,96.55,0,95s0-3.11.11-4.66.19-3.1.35-4.65S.8,82.6,1,81.06s.49-3.07.79-4.59.65-3,1-4.55.79-3,1.24-4.5S5,64.46,5.55,63s1.09-2.91,1.68-4.35,1.23-2.85,1.89-4.26,1.36-2.79,2.1-4.16,1.5-2.73,2.3-4.06,1.63-2.65,2.49-3.94,1.76-2.56,2.68-3.81,1.89-2.48,2.87-3.68,2-2.38,3.05-3.53,2.11-2.28,3.21-3.38,2.23-2.17,3.38-3.21,2.33-2.06,3.53-3.05,2.43-1.94,3.68-2.87,2.52-1.82,3.81-2.68,2.61-1.7,3.94-2.49,2.69-1.57,4.06-2.3S53,9.79,54.38,9.12s2.83-1.29,4.26-1.89S61.53,6.08,63,5.55s2.94-1,4.43-1.46,3-.87,4.5-1.24,3-.72,4.55-1,3-.56,4.59-.79S84.14.61,85.69.46s3.1-.27,4.65-.35S93.44,0,95,0" transform="translate(0 0)"/></g><g class="cls-4"><path class="cls-5" d="M152.39,164.48c-2-3.18-5.36,0-5.36,0s15.74-19.9,15.07-24-6,.63-6,.63,7.23-21.21,2.89-21-11.25,18.8-11.25,18.8-.69-5.46-4.68-4.61c-5.44,1.17-5.69,26.42-5.69,26.42s-1.68-4.11-5.64-1.9c-3.47,1.93-3.42,24.3-3.35,29.91a71.43,71.43,0,0,0,19.93-8.87c2.21-4,4.87-14.17,4.12-15.36" transform="translate(0 0)"/><line class="cls-6" x1="155.9" y1="127.86" x2="134.63" y2="184.81"/></g><g class="cls-7"><path class="cls-5" d="M42.06,164.06c2.13-3.1,5.36.2,5.36.2s-15-20.47-14.16-24.58,6,.86,6,.86-6.42-21.45-2.09-21.1,10.54,19.22,10.54,19.22.9-5.43,4.85-4.43c5.39,1.37,4.7,26.61,4.7,26.61s1.83-4,5.71-1.68c3.37,2.06,2.44,25.23,2.16,30.84-8.26-2.33-13.91-3.23-20.54-6.6-2.06-4.07-3.31-18.18-2.52-19.33" transform="translate(0 0)"/><line class="cls-6" x1="39.93" y1="127.33" x2="59.07" y2="185.04"/></g><g class="cls-8"><rect class="cls-9" x="138.49" y="60.42" width="5.48" height="5.48"/></g><g class="cls-10"><rect class="cls-11" x="132.21" y="52.46" width="18.03" height="8.96"/></g><g class="cls-12"><rect class="cls-13" x="127.04" y="45.64" width="28.2" height="10.89"/></g><g class="cls-14"><rect class="cls-15" x="122.17" y="38.92" width="37.9" height="12.82"/></g><g class="cls-2"><path class="cls-16" d="M143.22,61.57a2.75,2.75,0,1,1-2.74-2.74,2.74,2.74,0,0,1,2.74,2.74" transform="translate(0 0)"/><path class="cls-16" d="M133.72,59.57a2.06,2.06,0,0,1-.7-.12,2,2,0,0,1-1.18-2.58,9.21,9.21,0,0,1,17.27,0,2,2,0,0,1-3.77,1.39,5.19,5.19,0,0,0-9.74,0,2,2,0,0,1-1.88,1.32" transform="translate(0 0)"/><path class="cls-16" d="M152.38,54.67a2,2,0,0,1-1.71-1,12,12,0,0,0-20.39,0,2,2,0,0,1-3.41-2.12,16,16,0,0,1,27.21,0,2,2,0,0,1-1.7,3.07" transform="translate(0 0)"/><path class="cls-16" d="M157.31,50a2,2,0,0,1-1.63-.83,18.72,18.72,0,0,0-30.41,0A2,2,0,0,1,122,46.79a22.75,22.75,0,0,1,36.93,0A2,2,0,0,1,157.31,50" transform="translate(0 0)"/><path class="cls-5" d="M26.45,162.23C28.32,159,31.8,162,31.8,162s-16.56-19.23-16.06-23.37,6,.38,6,.38S13.67,118.13,18,118.13s12,18.31,12,18.31.48-5.48,4.48-4.82c5.48.94,6.8,26.16,6.8,26.16s1.49-4.18,5.55-2.13c3.55,1.78,4.44,25,4.6,30.57a99.52,99.52,0,0,1-20.94-10.75c-2.38-3.88-4.82-12-4.1-13.28" transform="translate(0 0)"/><line class="cls-6" x1="21.41" y1="125.78" x2="45.06" y2="181.79"/><line class="cls-17" x1="75.82" y1="24.14" x2="75.82" y2="26.82"/><line class="cls-17" x1="75.82" y1="29.42" x2="75.82" y2="32.1"/><line class="cls-17" x1="79.8" y1="28.12" x2="77.12" y2="28.12"/><line class="cls-17" x1="74.52" y1="28.12" x2="71.84" y2="28.12"/><line class="cls-18" x1="157.38" y1="100.92" x2="157.38" y2="103.6"/><line class="cls-18" x1="157.38" y1="106.2" x2="157.38" y2="108.88"/><line class="cls-18" x1="161.36" y1="104.9" x2="158.68" y2="104.9"/><line class="cls-18" x1="156.07" y1="104.9" x2="153.4" y2="104.9"/><line class="cls-18" x1="52.15" y1="59.18" x2="52.15" y2="61.86"/><line class="cls-18" x1="52.15" y1="64.46" x2="52.15" y2="67.15"/><line class="cls-18" x1="56.13" y1="63.16" x2="53.45" y2="63.16"/><line class="cls-18" x1="50.85" y1="63.16" x2="48.17" y2="63.16"/><path class="cls-19" d="M120.22,127.92h-38L66.72,190.35a144.71,144.71,0,0,0,21.77,2.5l12.72-35.73,12.38,34.76a94,94,0,0,0,21.2-5.26Z" transform="translate(0 0)"/><line class="cls-20" x1="81.83" y1="143.82" x2="69.82" y2="190.92"/><line class="cls-20" x1="120.45" y1="143.82" x2="131.53" y2="187.26"/></g><g class="cls-21"><rect class="cls-22" x="74.32" y="127.92" width="53.78" height="31.79"/></g><g class="cls-2"><path class="cls-23" d="M125.17,69.77l-3.3,15.9,15,25.32-18.66,15.59,4.27,7.38,22-14.59a8.64,8.64,0,0,0,3.24-10.44C142.94,97,132.5,73,125.17,69.77" transform="translate(0 0)"/></g><g class="cls-24"><rect class="cls-25" x="114.48" y="68.11" width="30.33" height="32.4" transform="translate(-24.23 99.78) rotate(-38.78)"/></g><g class="cls-2"><path class="cls-23" d="M77.17,69.77C67.39,74,56.35,120.85,56.35,120.85l13.55-6.43L80.47,85.7Z" transform="translate(0 0)"/></g><g class="cls-26"><rect class="cls-27" x="61.26" y="69.28" width="26.85" height="29.52" transform="translate(-36.12 64.98) rotate(-38.61)"/></g><g class="cls-2"><path class="cls-19" d="M123.29,123l2-53.17s-13.7-3-24-3-24,3-24,3l2,53.18-5,30c16.77-.84,27.12-15.19,27.12-15.19s10.33,14.35,27.1,15.19Z" transform="translate(0 0)"/><path class="cls-19" d="M123.29,123l2-53.17s-13.7-3-24-3-24,3-24,3l2,53.18-5,30c16.77-.84,27.12-15.19,27.12-15.19s10.33,14.35,27.1,15.19Z" transform="translate(0 0)"/><path d="M91.43,51.07l-1.25-4.64s-3.1-2-3.85-4c-2-5.3,6.13-12.09,14.51-10.64,8.13,1.41,8.47,5.11,8.47,5.11a5,5,0,0,1,3.92,5.17C113,46.39,110,51.67,110,51.67Z" transform="translate(0 0)"/></g><g class="cls-28"><rect class="cls-29" x="94.14" y="56.04" width="13.76" height="13.14" transform="translate(20.95 150.45) rotate(-79.44)"/></g><g class="cls-2"><path class="cls-30" d="M111.56,48.54a2.88,2.88,0,0,0-2.3.8c0-.9,0-1.83,0-2.84,0,0-9-.17-11.26-6a11.88,11.88,0,0,1-5.53,6.27c0,1.06,0,2,.08,3a2.94,2.94,0,0,0-2.49-.88c-1.93.29.21,7.67,3.32,5.68,1.38,4.44,4.21,7.58,7.71,7.53s6.21-3.27,7.46-7.71c3.09,1.6,4.91-5.61,3-5.84" transform="translate(0 0)"/><path class="cls-23" d="M101.21,103.36l7-36.18a55.83,55.83,0,0,0-14,0Z" transform="translate(0 0)"/><polyline class="cls-31" points="109.64 68.78 116.26 74.27 110.09 83.45 115.74 89.25 101.22 110.42 86.69 89.25 92.33 83.45 86.17 74.27 92.79 68.78"/><line class="cls-31" x1="101.22" y1="110.43" x2="101.22" y2="133.96"/><path class="cls-16" d="M106.57,115.53a1.64,1.64,0,1,1-1.64-1.64,1.65,1.65,0,0,1,1.64,1.64" transform="translate(0 0)"/><path class="cls-16" d="M106.57,125a1.64,1.64,0,1,1-1.64-1.64,1.65,1.65,0,0,1,1.64,1.64" transform="translate(0 0)"/><path class="cls-30" d="M118.53,121.85h5.34a2.2,2.2,0,0,1,2.18,2l.85,7.77a2.15,2.15,0,0,1-.53,1.68,2.18,2.18,0,0,1-1.62.73h-3.13A2.73,2.73,0,0,1,119,132l-2-8a1.64,1.64,0,0,1,.3-1.4,1.62,1.62,0,0,1,1.28-.63" transform="translate(0 0)"/></g><g class="cls-32"><rect class="cls-33" x="24.41" y="77.36" width="60.72" height="78"/></g><g class="cls-2"><path class="cls-34" d="M50.48,75.57c-8.65,8.55-22.3,13.64-27.12,15.24a2.24,2.24,0,0,0-1.56,2.36l2.92,26.58a32.36,32.36,0,0,0,11.05,20.87L48.3,151.46a5.93,5.93,0,0,0,7.73,0l12.53-10.84a32.35,32.35,0,0,0,11-20.87L82.5,93.17a2.26,2.26,0,0,0-1.56-2.36c-4.82-1.6-18.48-6.69-27.12-15.24a2.38,2.38,0,0,0-3.34,0" transform="translate(0 0)"/><path class="cls-35" d="M52.15,148.33a1.38,1.38,0,0,1-.89-.31L38.73,137.17a27.71,27.71,0,0,1-9.5-17.92l-2.7-24.73c6-2.15,17.35-6.84,25.62-14.29,8.29,7.45,19.59,12.14,25.61,14.29l-2.71,24.71a27.72,27.72,0,0,1-9.51,17.92L53,148a1.4,1.4,0,0,1-.88.32" transform="translate(0 0)"/></g><g class="cls-36"><rect class="cls-37" x="52.15" y="80.25" width="25.61" height="68.08"/></g><g class="cls-38"><path d="M58.25,108.91a6.11,6.11,0,1,0-10.09,4.62,1.47,1.47,0,0,1,.49,1.5l-2.17,8.29a1.28,1.28,0,0,0,.23,1.13,1.3,1.3,0,0,0,1,.52H56.6a1.25,1.25,0,0,0,1-.5,1.27,1.27,0,0,0,.23-1.1L55.65,115a1.47,1.47,0,0,1,.48-1.49,6,6,0,0,0,2.13-4.63" transform="translate(0 0)"/></g><g class="cls-2"><path d="M55.85,108.91a4.93,4.93,0,1,0-7.67,4.63,1.47,1.47,0,0,1,.48,1.49l-2.18,8.34a1.27,1.27,0,0,0,1.23,1.6h6.93a1,1,0,0,0,.74-.38,1,1,0,0,0,.17-.8l-2.29-8.73a1.54,1.54,0,0,1,.49-1.54,6.1,6.1,0,0,0,2.11-4.61" transform="translate(0 0)"/><path class="cls-5" d="M164.54,159.93c-2-3.18-5.35,0-5.35,0s15.73-19.9,15.06-24-6,.63-6,.63,7.23-21.2,2.89-21-11.24,18.79-11.24,18.79-.7-5.46-4.69-4.61c-5.43,1.18-5.69,26.42-5.69,26.42s-1.67-4.1-5.64-1.89c-3.47,1.93-3.42,24.3-3.35,29.91a67.9,67.9,0,0,0,21.06-15.51c2.22-4,3.74-7.54,3-8.72" transform="translate(0 0)"/><line class="cls-6" x1="168.05" y1="123.31" x2="146.78" y2="180.26"/></g></g></g></svg>