<?xml version="1.0" encoding="UTF-8"?><svg id="Layer_2" xmlns="http://www.w3.org/2000/svg" viewBox="0 0 31.32 31.32"><defs><style>.cls-1{fill:#fff;}.cls-2{fill:#0e2245;}</style></defs><g id="Layer_1-2"><g><circle class="cls-2" cx="15.66" cy="15.66" r="15.66"/><g><path class="cls-1" d="M25.62,24.44H5.09c.07-.05,.12-.1,.17-.14,1.91-1.51,3.83-3.02,5.74-4.52,.6-.47,1.2-.94,1.79-1.41,.07-.05,.11-.04,.17,0,.38,.27,.76,.55,1.16,.79,.87,.53,1.74,.49,2.59-.06,.36-.23,.71-.49,1.06-.73,.06-.04,.1-.04,.16,0,.89,.71,1.79,1.42,2.69,2.12,.59,.46,1.18,.92,1.76,1.38,1.07,.84,2.14,1.69,3.21,2.53,0,0,.01,.02,.03,.04Z"/><path class="cls-1" d="M26.55,24.06l-7.96-6.27c.17-.12,.34-.24,.5-.36,1.55-1.12,3.11-2.23,4.65-3.36,.73-.53,1.44-1.09,2.09-1.72,.2-.2,.39-.41,.58-.62,.01-.02,.02-.04,.04-.05h.04c.02,.05,.06,.11,.06,.16,0,4.04,0,8.09,0,12.13v.09Z"/><path class="cls-1" d="M4.42,11.9c.32,.3,.63,.61,.97,.89,.53,.44,1.06,.89,1.62,1.3,1.67,1.22,3.35,2.42,5.03,3.63,.03,.02,.05,.04,.09,.07l-7.71,6.07V11.9Z"/><path class="cls-1" d="M25.77,11.14c-.7,.82-1.55,1.44-2.39,2.11V6.85H7.59v6.6c-.9-.69-1.79-1.35-2.55-2.18,.19-.15,.36-.28,.54-.42,.41-.32,.82-.64,1.23-.95,.05-.04,.06-.09,.06-.15,0-1.19,0-2.37,0-3.56,0-.03,0-.06,0-.1,.05,0,.09,0,.12,0,.65,0,1.3,0,1.95,0,.89,0,1.78,0,2.68,0,.05,0,.11-.02,.15-.05,.79-.61,1.58-1.22,2.36-1.84,.46-.36,.97-.53,1.56-.48,.39,.03,.74,.17,1.05,.4,.82,.63,1.63,1.27,2.45,1.9,.05,.04,.13,.07,.19,.07,.81,0,1.62,0,2.43,0,.72,0,1.44,0,2.15,0h.14s0,.09,0,.14c0,1.17,0,2.34,0,3.5,0,.08,.02,.13,.08,.17,.5,.39,1,.78,1.5,1.17,.03,.02,.06,.04,.1,.08Z"/><path class="cls-1" d="M16.58,13.35c-.58,.52-1.24,.59-1.95,.32-.55-.21-.8-.66-.85-1.22-.03-.3,0-.59,.11-.88,.21-.51,.62-.77,1.14-.86,.46-.08,.89,0,1.28,.28,.09-.23,.35-.32,.57-.2,.09,.05,.11,.14,.11,.22,0,.43,0,.86,0,1.29,0,.16,0,.31,.03,.46,.06,.29,.28,.45,.61,.44,.29,0,.52-.17,.55-.47,.04-.32,.05-.64,.03-.96-.01-.24-.07-.49-.15-.72-.2-.56-.65-.87-1.21-1.03-.53-.15-1.06-.16-1.61-.14-.4,.02-.79,.06-1.16,.2-.74,.27-1.14,.81-1.24,1.58-.07,.49-.07,.97,.06,1.45,.19,.75,.71,1.18,1.43,1.37,1.11,.28,2.19,.19,3.22-.32,.12-.06,.24-.1,.36-.14,.15-.04,.28,.02,.33,.14,.06,.11,.03,.25-.11,.33-.21,.13-.44,.24-.67,.33-.8,.29-1.62,.38-2.47,.33-.48-.03-.95-.12-1.39-.31-.83-.37-1.31-1.01-1.45-1.9-.08-.54-.08-1.08,.06-1.62,.23-.89,.82-1.44,1.67-1.73,.61-.21,1.25-.27,1.9-.24,.65,.03,1.29,.11,1.88,.41,.65,.33,1.04,.86,1.16,1.59,.08,.47,.06,.95,.02,1.42-.05,.52-.43,.88-.94,.96-.39,.05-.76,.01-1.1-.2-.08-.05-.15-.12-.22-.17Zm-2.19-1.1h.01s0,.08,0,.12c.02,.46,.25,.79,.68,.89,.18,.04,.39,.03,.58,0,.33-.05,.53-.26,.61-.58,.07-.27,.07-.55,0-.83-.07-.32-.28-.52-.61-.57-.16-.02-.32-.03-.48-.02-.39,.02-.66,.25-.75,.62-.03,.12-.04,.24-.06,.36Z"/></g></g></g></svg>