<?xml version="1.0" encoding="UTF-8"?><svg id="Layer_2" xmlns="http://www.w3.org/2000/svg" viewBox="0 0 123.69 79.48"><defs><style>.cls-1{fill:#171617;}</style></defs><g id="Layer_1-2"><g><path class="cls-1" d="M59.62,51.01c-3.76,0-7.55-1.18-11.34-4.37l-.32-.27V8.51l1.49,1.25c8.47,7.13,16.88,3.21,25.78-.93,9.02-4.2,18.35-8.54,27.71-.68l.32,.27V46.28l-1.49-1.25c-8.47-7.12-16.88-3.21-25.78,.93-5.37,2.5-10.84,5.05-16.37,5.05m-9.85-5.49c8.36,6.76,16.67,2.89,25.45-1.2,8.54-3.98,17.36-8.08,26.22-1.83V9.28c-8.36-6.76-16.67-2.89-25.45,1.2-8.54,3.98-17.36,8.08-26.22,1.83V45.51Z"/><path class="cls-1" d="M70.81,17.43l-.7-1.67c1.7-.71,3.43-1.51,5.11-2.3,7.52-3.5,15.29-7.12,23.13-3.6l-.74,1.66c-7.08-3.18-14.14,.11-21.62,3.59-1.69,.79-3.44,1.6-5.18,2.33"/><path class="cls-1" d="M59.66,43.54c-3.76,0-7.58-1.17-11.38-4.36l1.17-1.39c8.47,7.12,17.01,3.15,25.26-.69l.77,1.64c-4.97,2.31-10.32,4.8-15.81,4.8"/><path class="cls-1" d="M101.27,37.17c-4.01-3.17-8.26-4.17-13.4-3.15l-.35-1.78c5.62-1.12,10.49,.03,14.88,3.51l-1.12,1.42Z"/><path class="cls-1" d="M49.77,73.56h-9.53V5.66h9.53V73.56Zm-7.71-1.81h5.9V7.47h-5.9V71.75Z"/><path class="cls-1" d="M50.92,7.47h-11.83c-2.06,0-3.74-1.68-3.74-3.74s1.68-3.74,3.74-3.74h11.83c2.06,0,3.74,1.68,3.74,3.74s-1.68,3.74-3.74,3.74M39.09,1.81c-1.06,0-1.92,.86-1.92,1.92s.86,1.92,1.92,1.92h11.83c1.06,0,1.92-.86,1.92-1.92s-.86-1.92-1.92-1.92h-11.83Z"/><rect class="cls-1" x="27.77" y="71.75" width="51.95" height="1.81"/><rect class="cls-1" x="83.32" y="75.86" width="40.37" height="1.81"/><rect class="cls-1" y="77.66" width="40.37" height="1.81"/><path class="cls-1" d="M33.05,31.39c-2.84,0-5.15-2.31-5.15-5.15s2.31-5.15,5.15-5.15,5.15,2.31,5.15,5.15-2.31,5.15-5.15,5.15m0-8.49c-1.84,0-3.34,1.5-3.34,3.34s1.5,3.34,3.34,3.34,3.34-1.5,3.34-3.34-1.5-3.34-3.34-3.34"/><path class="cls-1" d="M92.96,66.36c-3.69,0-6.69-3-6.69-6.69s3-6.69,6.69-6.69,6.69,3,6.69,6.69-3,6.69-6.69,6.69m0-11.57c-2.69,0-4.88,2.19-4.88,4.88s2.19,4.88,4.88,4.88,4.88-2.19,4.88-4.88-2.19-4.88-4.88-4.88"/><path class="cls-1" d="M73.8,58.77c0,.85-.69,1.54-1.54,1.54s-1.54-.69-1.54-1.54,.69-1.54,1.54-1.54,1.54,.69,1.54,1.54"/><path class="cls-1" d="M109.29,52.08c0,.85-.69,1.54-1.54,1.54s-1.54-.69-1.54-1.54,.69-1.54,1.54-1.54,1.54,.69,1.54,1.54"/><path class="cls-1" d="M102.86,2.19c0,.85-.69,1.54-1.54,1.54s-1.54-.69-1.54-1.54,.69-1.54,1.54-1.54,1.54,.69,1.54,1.54"/><path class="cls-1" d="M64.03,4.76c0,.85-.69,1.54-1.54,1.54s-1.54-.69-1.54-1.54,.69-1.54,1.54-1.54,1.54,.69,1.54,1.54"/><path class="cls-1" d="M32.4,41.8c0,.85-.69,1.54-1.54,1.54s-1.54-.69-1.54-1.54,.69-1.54,1.54-1.54,1.54,.69,1.54,1.54"/><path class="cls-1" d="M38.06,64.94c0,.85-.69,1.54-1.54,1.54s-1.54-.69-1.54-1.54,.69-1.54,1.54-1.54,1.54,.69,1.54,1.54"/></g></g></svg>