<?xml version="1.0" encoding="UTF-8"?><svg id="Layer_2" xmlns="http://www.w3.org/2000/svg" viewBox="0 0 31.32 31.32"><defs><style>.cls-1{fill:#fff;}.cls-2{fill:#0e2245;}</style></defs><g id="Layer_1-2"><g><circle class="cls-2" cx="15.66" cy="15.66" r="15.66"/><g><path class="cls-1" d="M28.48,15.76c-.33,.4-.66,.81-1,1.21-.31,.37-.58,.39-.94,.08-3.59-2.99-7.18-5.98-10.77-8.98-.03-.03-.06-.05-.12-.1-.41,.34-.83,.69-1.24,1.03-3.21,2.68-6.42,5.35-9.63,8.03-.38,.32-.64,.3-.96-.08-.25-.3-.5-.6-.76-.9-.34-.4-.32-.65,.09-.99,2.34-1.95,4.68-3.9,7.02-5.85,1.37-1.14,2.75-2.28,4.11-3.43,.68-.57,1.42-.71,2.23-.34,.2,.09,.38,.24,.55,.38,1.16,.96,2.31,1.93,3.46,2.89,.05,.04,.1,.08,.2,.15,0-.12,.02-.2,.02-.29,0-.86,0-1.72,0-2.58,0-.55,.16-.71,.72-.71,.9,0,1.8,0,2.7,0,.49,0,.66,.17,.66,.67,0,2.03,0,4.06,0,6.08,0,.17,.04,.29,.18,.4,1.03,.85,2.06,1.7,3.08,2.56,.14,.12,.27,.27,.4,.4v.35Z"/><path class="cls-1" d="M13.63,19.57v6.1h-.29c-1.89,0-3.79,0-5.68,0-.75,0-1.16-.41-1.16-1.16,0-2.45,0-4.89,0-7.34,0-.19,.06-.3,.2-.42,2.92-2.4,5.84-4.8,8.75-7.21,.17-.14,.27-.14,.43,0,2.91,2.41,5.83,4.81,8.75,7.21,.14,.12,.2,.23,.2,.42,0,2.47,0,4.94,0,7.41,0,.63-.43,1.08-1.06,1.08-1.97,0-3.94,0-5.91,0-.04,0-.08,0-.16-.01v-6.09h-4.06Z"/></g></g></g></svg>