<?xml version="1.0" encoding="UTF-8"?><svg id="Layer_2" xmlns="http://www.w3.org/2000/svg" viewBox="0 0 2080.99 833.09"><defs><style>.cls-1{fill:#ecebec;}</style></defs><g id="Layer_1-2"><g><path class="cls-1" d="M534.51,448.45c3.48,1.4,6.9,2.77,10.33,4.15,11.9,4.78,23.82,9.5,35.69,14.34,17.87,7.29,25.08,24.28,17.92,42.14-38.87,96.85-77.73,193.72-116.65,290.55-9.43,23.47-31.82,36.56-56.06,32.83-4.01-.62-8.02-1.8-11.8-3.31-127.09-50.96-254.16-101.96-381.21-153.03-27.01-10.86-39.65-40.48-28.9-67.25,45.7-113.87,91.42-227.73,137.1-341.61,1.49-3.71,3.2-7.38,7.39-8.13,2.71-.49,5.94-.2,8.5,.82,67.27,26.87,134.49,53.87,201.71,80.86,58.78,23.6,117.55,47.2,176.32,70.8,8.8,3.53,10.77,8.11,7.28,16.84-2.48,6.19-4.95,12.38-7.41,18.57-.09,.22-.07,.49-.19,1.43m-150.94,346.36c-.12-1.09-.13-1.57-.23-2.03-2.48-11.41-.81-22.3,3.52-33.07,43.77-108.83,87.44-217.69,131.15-326.54,.66-1.63,1.31-3.27,2.01-5.02-121.16-48.64-241.92-97.12-362.92-145.7-.88,2.19-1.64,4.08-2.4,5.97-43.65,108.73-87.15,217.53-131.13,326.14-6.83,16.85,.26,36.07,18.41,43.31,112.54,44.85,224.9,90.11,337.33,135.24,1.26,.51,2.52,1.01,4.26,1.71m21.84-13.36c-1.21,16.69,10.06,29.91,25.84,31.02,13.94,.98,25.9-6.81,31.42-20.56,38.83-96.71,77.66-193.42,116.48-290.13,.33-.83,.7-1.66,.97-2.51,1.61-4.99-.74-10.37-5.47-12.56-4.49-2.08-10.1-.46-12.83,3.86-1.02,1.61-1.74,3.42-2.46,5.2-38.4,95.64-76.79,191.28-115.18,286.92-3.7,9.22-8.12,11.07-17.43,7.33-7.01-2.81-14.01-5.63-21.34-8.57m121.31-313.81c-39.25,97.77-78.43,195.35-117.55,292.79,6.42,2.58,12.54,5.03,18.86,7.57,.69-1.71,1.26-3.13,1.83-4.55,36.21-90.19,72.44-180.37,108.62-270.57,2.39-5.97,4.38-12.09,10.32-15.69,.13-.08,.07-.47,.09-.66-7.36-2.96-14.71-5.9-22.17-8.9"/><path class="cls-1" d="M114.92,479.39c11.75-29.27,23.5-58.53,35.25-87.8,3.61-8.99,8.12-10.9,17.16-7.27,36.52,14.66,73.05,29.32,109.57,43.99,8.54,3.43,10.59,8.15,7.19,16.61-23.68,59.01-47.37,118.02-71.06,177.03-3.4,8.47-8.13,10.47-16.66,7.04-36.76-14.75-73.52-29.51-110.28-44.27-8.04-3.23-10.17-8.1-6.97-16.1,11.93-29.75,23.88-59.49,35.82-89.23h-.01m81.81,127.32c21.77-54.24,43.38-108.05,65.02-161.95-31.86-12.79-63.5-25.5-95.18-38.21-21.73,54.13-43.34,107.95-65.02,161.96,31.78,12.76,63.36,25.44,95.18,38.21"/><path class="cls-1" d="M318.21,405.97c-46.28-18.58-92.57-37.16-138.84-55.75-6.96-2.79-9.69-9.32-6.38-15.06,2.51-4.34,7.35-6.24,12.23-4.76,.98,.3,1.92,.73,2.87,1.11,91.85,36.88,183.7,73.75,275.54,110.65,1.65,.66,3.33,1.41,4.75,2.45,4.01,2.96,5.16,8.4,2.88,12.73-2.32,4.42-7.31,6.58-12.04,5.18-.98-.29-1.92-.72-2.87-1.11-46.04-18.48-92.09-36.97-138.13-55.46"/><path class="cls-1" d="M213.28,667.29c46.16,18.53,92.31,37.08,138.48,55.57,4.25,1.7,7.33,4.24,7.94,8.97,.95,7.34-5.86,13.09-13.13,11.13-1.11-.3-2.16-.8-3.23-1.23-91.36-36.68-182.73-73.36-274.09-110.04-1.07-.43-2.15-.84-3.21-1.3-5.87-2.54-8.48-8.4-6.17-13.81,2.27-5.3,8.04-7.6,13.85-5.29,18.11,7.2,36.18,14.49,54.26,21.75,28.43,11.41,56.86,22.83,85.3,34.24"/><path class="cls-1" d="M356.68,529.97c-20.93-8.4-41.86-16.8-62.78-25.2-4.37-1.75-6.85-4.96-6.88-9.68-.03-4.34,1.93-8.11,6.12-9.27,2.95-.82,6.71-.71,9.55,.4,22.21,8.64,44.29,17.63,66.4,26.51,19.38,7.78,38.77,15.54,58.14,23.35,7.5,3.03,9.92,10.51,5.41,16.41-2.92,3.82-7.63,4.89-12.82,2.82-21.05-8.43-42.1-16.89-63.14-25.34"/><path class="cls-1" d="M319.46,623.59c-20.81-8.36-41.62-16.7-62.42-25.07-5.39-2.17-8.14-6.29-7.52-11.14,.92-7.24,7.73-10.95,15.01-8.05,16.9,6.73,33.77,13.54,50.66,20.32,24.85,9.98,49.71,19.93,74.54,29.94,7.39,2.98,9.8,10.14,5.55,16.1-2.9,4.07-7.69,5.24-13.04,3.1-20.93-8.38-41.86-16.8-62.78-25.2"/><path class="cls-1" d="M345.93,557.8c20.45,8.21,40.9,16.41,61.33,24.65,1.88,.76,3.84,1.59,5.38,2.85,3.68,3.01,4.45,8.4,2.1,12.57-2.47,4.39-7.37,6.46-12.16,4.65-8.15-3.07-16.2-6.41-24.28-9.66-34-13.65-68-27.29-101.99-40.98-1.64-.66-3.35-1.42-4.69-2.54-3.67-3.08-4.44-8.33-2.08-12.58,2.38-4.28,7.09-6.22,11.79-4.8,1.35,.41,2.65,.96,3.96,1.49,20.21,8.11,40.42,16.23,60.63,24.34"/><path class="cls-1" d="M300.51,670.15c-20.92-8.4-41.85-16.77-62.76-25.22-6.02-2.43-8.55-8.13-6.26-13.65,1.97-4.75,6.95-7.24,11.94-5.95,.86,.22,1.72,.52,2.55,.85,41.61,16.7,83.21,33.41,124.83,50.09,4.57,1.83,7.6,4.77,7.72,9.91,.17,7.58-7.15,12.38-14.53,9.44-21.18-8.44-42.33-16.97-63.49-25.47"/><path class="cls-1" d="M383.47,464.34c21.04,8.45,42.1,16.86,63.12,25.37,6.61,2.68,8.95,9.39,5.49,15.03-2.41,3.93-6.8,5.74-11.24,4.55-1.48-.4-2.91-1-4.33-1.57-40.54-16.27-81.09-32.54-121.62-48.85-2-.8-4.09-1.67-5.74-3.01-3.68-3-4.42-8.39-2.08-12.59,2.36-4.23,7.16-6.2,11.82-4.78,1.35,.41,2.64,.98,3.95,1.5,20.21,8.11,40.42,16.23,60.64,24.34h0Z"/><path class="cls-1" d="M1736.92,466.65l-149.48-301.65,326.43,26.1-176.95,275.55Zm-117.98-280.31l120.08,242.32,142.15-221.35-262.23-20.96Z"/><path class="cls-1" d="M2080.99,287.06l-75.71,37.52L1863.04,37.52,1938.74,0l142.25,287.06Zm-67.23,12.38l42.09-20.86-125.6-253.44-42.09,20.86,125.6,253.44Z"/></g></g></svg>