<?xml version="1.0" encoding="UTF-8"?><svg id="Layer_2" xmlns="http://www.w3.org/2000/svg" viewBox="0 0 31.32 31.32"><defs><style>.cls-1{fill:#fff;}.cls-2{fill:#0e2245;}</style></defs><g id="Layer_1-2"><g><circle class="cls-2" cx="15.66" cy="15.66" r="15.66"/><g><path class="cls-1" d="M14.76,7.54l5.6,9c-1.02,.3-2.06,.51-3.02,.91-.97,.41-1.85,1-2.87,1.58,.27,.14,.4,.22,.54,.28,2.32,1.14,4.65,2.27,6.97,3.42,1.19,.59,1.76,1.8,1.45,3.05-.4,1.65-2.14,2.4-3.61,1.54-1.91-1.12-3.8-2.27-5.7-3.4-1.11-.66-2.21-1.32-3.31-1.99-.21-.13-.36-.12-.57,.02-1.7,1.15-3.69,.72-4.78-1-.39-.61-.77-1.23-1.15-1.84-1.03-1.68-.55-3.65,1.15-4.66,1.65-.98,3.29-1.97,4.96-2.91,1.74-.98,3.24-2.19,4.33-3.99Z"/><path class="cls-1" d="M27.55,17.74c-1.04-.06-2.03-.12-3.01-.18-.67-.04-1.34-.08-2.01-.15-.17-.02-.38-.13-.47-.26-2.36-3.77-4.72-7.55-7.06-11.34-.07-.12-.08-.33-.03-.47,.44-1.12,.91-2.23,1.35-3.36,.09-.23,.21-.3,.46-.33,.58-.07,.9,.16,1.2,.66,3.1,5.02,6.22,10.03,9.34,15.04,.07,.11,.13,.23,.22,.39Z"/><path class="cls-1" d="M20.38,5.3c2.98,.1,5.41,4.01,4.2,6.74l-4.2-6.74Z"/></g></g></g></svg>