<?xml version="1.0" encoding="UTF-8"?><svg id="Layer_2" xmlns="http://www.w3.org/2000/svg" viewBox="0 0 74.85 78.91"><defs><style>.cls-1{fill:#171617;}</style></defs><g id="Layer_1-2"><g><path class="cls-1" d="M37.42,78.91C16.79,78.91,0,62.13,0,41.49S15.79,4.88,35.95,4.1c.52-.02,.92,.37,.94,.87,.02,.5-.37,.92-.87,.94C16.84,6.65,1.81,22.28,1.81,41.49s15.97,35.61,35.61,35.61,35.61-15.97,35.61-35.61c0-.5,.41-.91,.91-.91s.91,.41,.91,.91c0,20.64-16.79,37.42-37.42,37.42"/><polygon class="cls-1" points="32.01 10.8 31.04 9.9 35.48 5.12 30.39 1.03 31.22 0 37.42 4.98 32.01 10.8"/><path class="cls-1" d="M46.99,7.15c-.08,0-.16-.01-.24-.03-.7-.19-1.43-.36-2.15-.51-.49-.1-.81-.58-.71-1.07,.1-.49,.58-.81,1.07-.71,.76,.16,1.52,.34,2.26,.54,.48,.13,.77,.63,.64,1.11-.11,.4-.48,.67-.87,.67"/><path class="cls-1" d="M71.63,29.58c-.37,0-.71-.23-.85-.59-.49-1.31-1.06-2.6-1.71-3.85-.23-.45-.06-.99,.39-1.22,.44-.23,.99-.06,1.22,.39,.68,1.31,1.29,2.67,1.8,4.05,.18,.47-.06,.99-.53,1.17-.11,.04-.21,.06-.32,.06m-3.96-7.66c-.29,0-.58-.14-.75-.4-.79-1.16-1.65-2.28-2.57-3.34-.33-.38-.29-.95,.09-1.28,.38-.33,.95-.29,1.28,.09,.96,1.11,1.87,2.29,2.7,3.51,.28,.41,.17,.98-.24,1.26-.16,.11-.33,.16-.51,.16m-5.65-6.52c-.22,0-.44-.08-.61-.24-1.04-.95-2.14-1.84-3.28-2.65-.41-.29-.5-.86-.21-1.27,.29-.41,.86-.5,1.27-.21,1.19,.85,2.35,1.79,3.44,2.78,.37,.34,.4,.91,.06,1.28-.18,.2-.43,.3-.67,.3m-7.02-5.02c-.15,0-.3-.04-.44-.11-1.23-.68-2.51-1.28-3.81-1.81-.46-.19-.69-.72-.5-1.18,.19-.47,.72-.69,1.18-.5,1.36,.55,2.71,1.19,4,1.9,.44,.24,.6,.79,.36,1.23-.17,.3-.47,.47-.8,.47"/><path class="cls-1" d="M73.37,35.93c-.43,0-.81-.31-.89-.75-.13-.73-.28-1.46-.46-2.16-.12-.49,.18-.98,.67-1.1,.48-.12,.98,.18,1.1,.67,.18,.74,.34,1.51,.48,2.28,.09,.49-.24,.96-.73,1.05-.05,0-.11,.01-.16,.01"/><path class="cls-1" d="M50.62,34.34H24.13c-.5,0-.91-.41-.91-.91s.41-.91,.91-.91h26.49c.5,0,.91,.41,.91,.91s-.41,.91-.91,.91"/><polygon class="cls-1" points="30.15 40.85 31.38 39.52 24.83 33.43 31.38 27.34 30.15 26.01 22.17 33.43 30.15 40.85"/><path class="cls-1" d="M51.06,51.83H24.57c-.5,0-.91-.41-.91-.91s.41-.91,.91-.91h26.49c.5,0,.91,.41,.91,.91s-.41,.91-.91,.91"/><polygon class="cls-1" points="45.04 43.5 43.81 44.83 50.36 50.92 43.81 57.01 45.04 58.34 53.02 50.92 45.04 43.5"/></g></g></svg>