<?xml version="1.0" encoding="UTF-8"?><svg id="Layer_2" xmlns="http://www.w3.org/2000/svg" viewBox="0 0 100.82 82.01"><defs><style>.cls-1{fill:#171617;}</style></defs><g id="Layer_1-2"><g><path class="cls-1" d="M49.65,63.28H0v-7.08c0-11.56,9.4-20.97,20.97-20.97h7.71c11.56,0,20.97,9.41,20.97,20.97v7.08ZM1.81,61.46H47.83v-5.26c0-10.56-8.59-19.15-19.15-19.15h-7.71c-10.56,0-19.15,8.59-19.15,19.15v5.26Z"/><path class="cls-1" d="M24.82,34.47c-9.5,0-17.24-7.73-17.24-17.24S15.32,0,24.82,0s17.24,7.73,17.24,17.24-7.73,17.24-17.24,17.24M24.82,1.81c-8.5,0-15.42,6.92-15.42,15.42s6.92,15.42,15.42,15.42,15.42-6.92,15.42-15.42S33.33,1.81,24.82,1.81"/><path class="cls-1" d="M100.82,63.28H51.17v-7.08c0-11.56,9.4-20.97,20.97-20.97h7.71c11.56,0,20.97,9.41,20.97,20.97v7.08Zm-47.83-1.81h46.02v-5.26c0-10.56-8.59-19.15-19.15-19.15h-7.71c-10.56,0-19.15,8.59-19.15,19.15v5.26Z"/><path class="cls-1" d="M76,34.47c-9.5,0-17.24-7.73-17.24-17.24S66.49,0,76,0s17.24,7.73,17.24,17.24-7.73,17.24-17.24,17.24m0-32.66c-8.5,0-15.42,6.92-15.42,15.42s6.92,15.42,15.42,15.42,15.42-6.92,15.42-15.42-6.92-15.42-15.42-15.42"/><rect class="cls-1" x="46.49" y="71.49" width="29.64" height="1.81"/><polygon class="cls-1" points="75.12 75.83 81.08 72.4 75.12 68.96 75.12 75.83"/><rect class="cls-1" x="43.45" y="71.49" width="1.8" height="1.81"/><rect class="cls-1" x="40.4" y="71.49" width="1.8" height="1.81"/><rect class="cls-1" x="37.36" y="71.49" width="1.8" height="1.81"/><rect class="cls-1" x="21.73" y="77.66" width="29.64" height="1.81"/><polygon class="cls-1" points="22.74 75.13 16.79 78.57 22.74 82.01 22.74 75.13"/><rect class="cls-1" x="52.62" y="77.66" width="1.8" height="1.81"/><rect class="cls-1" x="55.66" y="77.66" width="1.8" height="1.81"/><rect class="cls-1" x="58.7" y="77.66" width="1.8" height="1.81"/></g></g></svg>