<?xml version="1.0" encoding="UTF-8"?><svg id="Layer_2" xmlns="http://www.w3.org/2000/svg" xmlns:xlink="http://www.w3.org/1999/xlink" viewBox="0 0 32.76 31.81"><defs><style>.cls-1{fill:#fff;}.cls-2{clip-path:url(#clippath);}.cls-3{fill:#0e2245;}</style><clipPath id="clippath"><circle class="cls-3" cx="16.38" cy="15.66" r="15.66"/></clipPath></defs><g id="Layer_1-2"><g><g><circle class="cls-3" cx="16.38" cy="15.66" r="15.66"/><g class="cls-2"><g><path class="cls-1" d="M16.37,31.8c-2.81,0-5.62,0-8.44,0-.46,0-.56-.09-.53-.55,.05-.69,.11-9.08,.21-9.76,.11-.73,.52-1.22,1.25-1.42,1.39-.38,2.64-1.05,3.74-1.98,.41-.35,.45-.33,.9,0,1.85,1.34,3.9,1.33,5.75-.02,.42-.3,.46-.32,.88,.02,.8,.64,1.63,1.23,2.6,1.59,.45,.16,.9,.3,1.36,.45,.49,.16,.81,.49,.95,.99,.26,.86,.28,9.46,.29,10.35,0,.11-.16,.23-.28,.32-.05,.04-.16,.01-.24,.01-2.82,0-5.64,0-8.46,0Z"/><path class="cls-1" d="M20.75,11.58c-.05,1.87-.46,3.44-1.57,4.77-.64,.77-1.44,1.3-2.44,1.49-.55,.1-1.06-.03-1.55-.26-1.35-.64-2.22-1.72-2.72-3.11-.69-1.93-.7-3.86,.23-5.72,1.41-2.8,4.76-2.73,6.34-1.35,.91,.8,1.38,1.84,1.59,3.01,.08,.44,.1,.89,.13,1.17Z"/><path class="cls-1" d="M8.16,8.11c1.15,0,2.11,.42,2.84,1.32,.08,.1,.13,.29,.1,.41-.38,1.84-.22,3.63,.48,5.38,.05,.12,.05,.29,0,.4-.38,.92-.96,1.69-1.81,2.24-1.2,.78-2.22,.76-3.39-.08-.91-.65-1.47-1.55-1.82-2.6-.51-1.53-.55-3.07,.03-4.59,.61-1.61,1.88-2.49,3.57-2.49Z"/><path class="cls-1" d="M28.57,13.04c-.02,1.28-.36,2.62-1.24,3.79-.25,.33-.56,.64-.89,.9-1.24,.95-2.38,.95-3.64,.03-.77-.56-1.3-1.31-1.67-2.18-.04-.09-.03-.22,.01-.31,.73-1.77,.89-3.58,.49-5.45-.02-.11,.03-.27,.1-.37,1.43-1.87,4.85-1.89,6.16,.59,.47,.89,.66,1.84,.67,3Z"/><path class="cls-1" d="M7.48,19.5c-.78,.67-.99,1.53-1.08,2.44-.07,.7-.1,9.11-.15,9.86-.06,0-.15,0-.24,0-1.85,0-3.69,0-5.54,0-.41,0-.5-.07-.46-.48,.06-.69,.12-9.1,.23-9.78,.09-.55,.44-.92,.99-1.07,1.31-.34,2.48-.95,3.51-1.83,.36-.3,.42-.28,.79-.01,.58,.42,1.21,.72,1.96,.87Z"/><path class="cls-1" d="M26.51,31.8c-.05-.71-.08-9.09-.14-9.77-.09-.95-.3-1.85-1.09-2.54,.8-.16,1.49-.5,2.1-.98,.15-.12,.3-.12,.45-.01,.15,.11,.3,.21,.44,.33,.83,.67,1.74,1.19,2.78,1.48,.18,.05,.35,.11,.53,.16,.49,.15,.84,.47,.92,.97,.12,.78,.19,9.27,.25,10.05,.02,.24-.17,.3-.37,.3-.61,0-1.21,0-1.82,0-1.26,0-2.52,0-3.78,0h-.27Z"/></g></g></g><path class="cls-3" d="M16.38,1c8.08,0,14.66,6.58,14.66,14.66s-6.58,14.66-14.66,14.66S1.72,23.74,1.72,15.66,8.3,1,16.38,1m0-1C7.73,0,.72,7.01,.72,15.66s7.01,15.66,15.66,15.66,15.66-7.01,15.66-15.66S25.03,0,16.38,0h0Z"/></g></g></svg>