<svg xmlns="http://www.w3.org/2000/svg" xmlns:xlink="http://www.w3.org/1999/xlink" width="583" height="396.749" viewBox="0 0 583 396.749"><defs><clipPath id="a"><rect width="583" height="396.749" fill="none"/></clipPath></defs><g clip-path="url(#a)"><path d="M582.123,334.759H.878a.877.877,0,0,1-.62-1.5A.884.884,0,0,1,.878,333H582.123a.879.879,0,0,1,.619.259.877.877,0,0,1-.619,1.5" transform="translate(0 61.98)" fill="#313131"/><path d="M164.9,53.152a41.426,41.426,0,0,1,41.367,41.481l-.052,36.72-82.848-.115.052-36.72A41.422,41.422,0,0,1,164.9,53.152" transform="translate(22.962 9.893)" fill="#313131"/><path d="M206.353,132.407l-82.847-.119a.879.879,0,0,1-.878-.878l.049-36.727a42.366,42.366,0,0,1,42.295-42.252h.063A42.364,42.364,0,0,1,207.286,94.81l-.05,36.719a.912.912,0,0,1-.065.338.878.878,0,0,1-.479.476.871.871,0,0,1-.339.064m-82-1.874,81.12.12.05-35.842a40.6,40.6,0,0,0-40.5-40.624h-.056a40.61,40.61,0,0,0-40.561,40.5Z" transform="translate(22.824 9.759)" fill="#313131"/><path d="M138.9,104.694c3.609-1.5,4.966-6.5,3.029-11.163S135.5,86.3,131.89,87.8s-4.966,6.5-3.031,11.163,6.434,7.234,10.044,5.736" transform="translate(23.82 16.261)" fill="#fff"/><path d="M136.889,106.13c-3.952,0-7.933-3.462-9.224-8.257a10.2,10.2,0,0,1,.939-8.088,6.572,6.572,0,0,1,4.417-3.047c4.318-.779,8.98,2.879,10.4,8.151a10.2,10.2,0,0,1-.935,8.088,6.533,6.533,0,0,1-5.616,3.153Zm-7.526-8.713c1.186,4.416,4.95,7.5,8.391,6.881A4.8,4.8,0,0,0,141,102.044a8.482,8.482,0,0,0,.7-6.7c-1.186-4.416-4.957-7.5-8.426-6.881a4.784,4.784,0,0,0-3.244,2.254,8.429,8.429,0,0,0-.7,6.7Z" transform="translate(23.679 16.125)" fill="#313131"/><path d="M134.079,95.424a.862.862,0,0,1-.45-.127l-3.061-1.811a.877.877,0,0,1,.892-1.509l3.061,1.811a.877.877,0,0,1-.442,1.636" transform="translate(24.228 17.1)" fill="#313131"/><path d="M190,99.055c1.951-4.66.608-9.662-3-11.171s-8.111,1.045-10.061,5.706-.608,9.662,3,11.171,8.108-1.046,10.061-5.706" transform="translate(32.767 16.277)" fill="#fff"/><path d="M182.245,106.194a6.573,6.573,0,0,1-5.6-3.166,10.22,10.22,0,0,1-.912-8.1c1.439-5.266,6.114-8.91,10.426-8.117a6.607,6.607,0,0,1,4.409,3.054,10.22,10.22,0,0,1,.912,8.1c-1.3,4.788-5.279,8.228-9.232,8.228m2.689-17.721c-3.174,0-6.41,2.914-7.506,6.936a8.423,8.423,0,0,0,.7,6.7,4.782,4.782,0,0,0,3.244,2.268c3.433.632,7.21-2.443,8.425-6.852a8.488,8.488,0,0,0-.7-6.7,4.772,4.772,0,0,0-3.244-2.268,4.875,4.875,0,0,0-.919-.084" transform="translate(32.624 16.138)" fill="#313131"/><path d="M188.8,179.678l-24.974,26.434-27.7-26.35-.113-83.585,52.678-.091Z" transform="translate(25.314 17.884)" fill="#fff"/><path d="M163.961,207.126a.868.868,0,0,1-.6-.244l-27.705-26.35a.887.887,0,0,1-.2-.291.876.876,0,0,1-.071-.348l-.111-83.549a.875.875,0,0,1,.877-.878l52.658-.084a.874.874,0,0,1,.618.253.84.84,0,0,1,.192.282.857.857,0,0,1,.068.336l.113,83.591a.865.865,0,0,1-.24.6l-24.952,26.4a.839.839,0,0,1-.28.205.808.808,0,0,1-.338.075Zm-26.828-27.59,26.792,25.487,24.131-25.55-.112-82.356L137.02,97.2Z" transform="translate(25.176 17.753)" fill="#313131"/><path d="M184.395,102.281l-.036,28.245s-5.912-8.235-22.207-7.309c-8.629.5,3.671-23.941,3.671-23.941Z" transform="translate(29.609 18.478)" fill="#313131"/><path d="M184.492,131.536a.886.886,0,0,1-.7-.365c-.056-.077-5.883-7.828-21.434-6.944a3.364,3.364,0,0,1-3.237-1.46c-3.237-4.915,5.1-21.842,6.066-23.752a.881.881,0,0,1,.926-.471l18.571,3a.877.877,0,0,1,.737.871l-.034,28.245a.881.881,0,0,1-.611.836.907.907,0,0,1-.281.042m-19.659-9.127c10.447,0,16.232,3.777,18.781,6.059l.036-25.275-17.194-2.809c-3.427,6.951-7.85,18.43-5.884,21.429a1.649,1.649,0,0,0,1.664.7,25.48,25.48,0,0,1,2.6-.113Z" transform="translate(29.478 18.339)" fill="#313131"/><path d="M191.836,101.521a29.067,29.067,0,0,1-29.017,29.116h-.1A29.067,29.067,0,0,1,133.7,101.612V90.084a29.033,29.033,0,0,1,29-29.117h.084a29.079,29.079,0,0,1,28.786,25.346,30.28,30.28,0,0,1,.238,3.679Z" transform="translate(24.885 11.347)" fill="#fff"/><path d="M162.957,131.651h-.091A29.747,29.747,0,0,1,145.411,126a.874.874,0,0,1-.1-1.149.877.877,0,0,1,1.124-.255,27.976,27.976,0,0,0,16.428,5.322h.1a28.216,28.216,0,0,0,28.167-28.258V90.129a28.228,28.228,0,0,0-.428-4.824.88.88,0,0,1,1.734-.3,30.318,30.318,0,0,1,.45,5.126v11.529a29.986,29.986,0,0,1-29.931,29.992m-22.011-10.033a.924.924,0,0,1-.365-.079.9.9,0,0,1-.3-.223,29.917,29.917,0,0,1-7.316-19.567V90.219a29.72,29.72,0,0,1,.457-5.3.888.888,0,0,1,.363-.569.9.9,0,0,1,.657-.145.875.875,0,0,1,.321.126.891.891,0,0,1,.248.237.929.929,0,0,1,.139.315.9.9,0,0,1,.006.343,27.536,27.536,0,0,0-.435,4.992v11.528a28.184,28.184,0,0,0,6.888,18.417.874.874,0,0,1-.085,1.235.856.856,0,0,1-.575.218m18.929-59.482a.881.881,0,0,1-.633-.23.88.88,0,0,1-.053-1.24.876.876,0,0,1,.61-.286c.491-.042.982-.084,1.473-.111h.1c.534,0,1-.036,1.474-.036h.084c.52,0,1.032,0,1.544.042a.88.88,0,0,1-.1,1.757c-.477,0-.962-.042-1.446-.042h-1.6l-1.369.113Z" transform="translate(24.748 11.211)" fill="#313131"/><path d="M190.131,96.767a.884.884,0,0,1-.854-.645.884.884,0,0,1,.406-.992l3.068-1.8a.872.872,0,0,1,.324-.113.856.856,0,0,1,.343.02.869.869,0,0,1,.537.4.884.884,0,0,1,.113.325.9.9,0,0,1-.019.343.931.931,0,0,1-.149.308.892.892,0,0,1-.256.229l-3.07,1.8a.929.929,0,0,1-.442.12m-27.4,7.154c-2.392,0-2.766-.414-2.948-.618s-.7-.807,0-13.971a.872.872,0,0,1,.066-.351.922.922,0,0,1,.2-.294.876.876,0,0,1,.3-.19.894.894,0,0,1,.352-.053.87.87,0,0,1,.626.316.869.869,0,0,1,.168.314.886.886,0,0,1,.028.357c-.289,5.272-.478,11.121-.337,12.638a21.9,21.9,0,0,0,3.742,0,.842.842,0,0,1,.339.039.88.88,0,0,1,.3.167.906.906,0,0,1,.211.27.887.887,0,0,1,.09.33.927.927,0,0,1-.042.342.916.916,0,0,1-.171.3.871.871,0,0,1-.272.21.839.839,0,0,1-.332.09c-.941.078-1.7.106-2.331.106m2.191,5.273a11.147,11.147,0,0,1-3.229-.527.869.869,0,0,1-.365-.123.886.886,0,0,1-.276-.267.877.877,0,0,1-.135-.361.877.877,0,0,1,.919-1,.868.868,0,0,1,.369.107q5.268,1.569,6.853-2.352a.883.883,0,0,1,.186-.286.863.863,0,0,1,.281-.193.881.881,0,0,1,1.151.461.87.87,0,0,1,.011.67,5.883,5.883,0,0,1-5.765,3.869M175.24,91.754a.869.869,0,0,1-.568-.208.885.885,0,0,1-.3-.529,5.11,5.11,0,0,0-5.946-4.108.878.878,0,0,1-.644-.195.851.851,0,0,1-.217-.265.834.834,0,0,1-.1-.327.877.877,0,0,1,.033-.342.914.914,0,0,1,.159-.3.87.87,0,0,1,.266-.217.885.885,0,0,1,.327-.1c5.406-.548,7.506,3.405,7.85,5.575a.876.876,0,0,1-.7,1Zm-29.347.113a.76.76,0,0,1-.281-.05.876.876,0,0,1-.508-.439.888.888,0,0,1-.049-.67,7.1,7.1,0,0,1,7.267-4.914.878.878,0,0,1-.153,1.748,5.365,5.365,0,0,0-5.448,3.742.886.886,0,0,1-.323.423.869.869,0,0,1-.506.159" transform="translate(26.99 15.841)" fill="#313131"/><path d="M191.824,90.391a38.346,38.346,0,0,1-17.187-2.311c-7.436-3.026-12.083-9.934-12.083-9.934A21.281,21.281,0,0,1,148.6,88.679a70.645,70.645,0,0,1-14.9,1.84c.6-18.444,5.827-31.7,29.073-31.7,18.247-.036,29.074,11.8,29.06,31.573" transform="translate(24.883 10.947)" fill="#313131"/><path d="M148.562,105.161a11.6,11.6,0,1,1,8.183-3.4,11.592,11.592,0,0,1-8.183,3.4m0-21.414a9.829,9.829,0,1,0,6.951,2.879,9.835,9.835,0,0,0-6.951-2.879m26.771,20.515a11.6,11.6,0,1,1,8.188-3.4,11.585,11.585,0,0,1-8.188,3.4m0-21.414a4.07,4.07,0,1,1,0,.021Z" transform="translate(25.493 15.093)" fill="#313131"/><path d="M164.892,94.687a1.25,1.25,0,1,0-1.25-1.25,1.25,1.25,0,0,0,1.25,1.25m-11.352.253a1.25,1.25,0,1,0-1.25-1.25,1.25,1.25,0,0,0,1.25,1.25m8.235-2.857h-5.364a.878.878,0,1,1,0-1.755h5.364a.878.878,0,0,1,0,1.755" transform="translate(28.345 16.812)" fill="#313131"/><path d="M211.373,158.481s65.661,9.731,80.973,19.9,96.146,187.986,48.184,187.986H29.727c-47.961,0,32.872-177.826,48.185-187.986s80.671-19.9,80.671-19.9,6.691,21.506,26.547,21.506,26.244-21.506,26.244-21.506" transform="translate(2.736 29.497)" fill="#fff"/><path d="M340.667,367.38H29.863c-7.253,0-12.09-3.845-14.379-11.435C8.35,332.3,28.235,277.83,37.109,255.5c14.9-37.466,33.426-73.02,40.454-77.716,15.3-10.159,78.354-19.659,81.03-20.037a.886.886,0,0,1,.6.129.9.9,0,0,1,.374.482c.063.2,6.74,20.888,25.7,20.888s25.345-20.671,25.4-20.881a.89.89,0,0,1,.976-.618c2.689.4,66,9.878,81.324,20.037,7.02,4.664,25.547,40.25,40.454,77.716,8.876,22.328,28.786,76.8,21.625,100.442-2.289,7.59-7.126,11.435-14.381,11.435M158.122,159.561c-7.155,1.095-65.478,10.279-79.6,19.659-5.912,3.926-23.709,36.508-39.787,76.909C20.1,302.943,12.241,339.136,17.148,355.41c2.107,6.852,6.22,10.19,12.7,10.19H340.667c6.481,0,10.63-3.338,12.7-10.19,4.915-16.274-2.955-52.467-21.58-99.281-16.08-40.437-33.877-72.983-39.787-76.909-14.121-9.373-72.683-18.55-79.894-19.659-1.4,3.826-8.685,21.407-26.841,21.407s-25.718-17.574-27.129-21.373Z" transform="translate(2.6 29.359)" fill="#313131"/><path d="M196.419,106.23a3.784,3.784,0,1,0-3.784-3.785,3.784,3.784,0,0,0,3.784,3.785m-64.922,0a3.784,3.784,0,1,0-3.784-3.785,3.785,3.785,0,0,0,3.784,3.785" transform="translate(23.77 18.363)" fill="#ffa620"/><path d="M196.558,107.239a4.661,4.661,0,1,1,3.289-1.365,4.658,4.658,0,0,1-3.289,1.365m0-7.562a2.914,2.914,0,1,0,2.048.856,2.911,2.911,0,0,0-2.048-.856m-64.924,7.562a4.655,4.655,0,1,1,1.784-.352,4.663,4.663,0,0,1-1.784.352m0-7.562a2.908,2.908,0,1,0,2.056.852,2.913,2.913,0,0,0-2.056-.852" transform="translate(23.633 18.224)" fill="#313131"/><path d="M241.837,340.3H104.7v9.883H241.837Zm24.539-94.9H80.158L104.7,340.3H241.837Z" transform="translate(14.919 45.676)" fill="#ffa620"/><path d="M238.116,336.31H100.989a.928.928,0,0,1-.336-.065.9.9,0,0,1-.285-.193.842.842,0,0,1-.191-.283.865.865,0,0,1-.066-.336v-9.884a.873.873,0,0,1,.878-.877H238.116a.875.875,0,0,1,.878.877v9.884a.846.846,0,0,1-.069.336.823.823,0,0,1-.19.283.925.925,0,0,1-.283.193.938.938,0,0,1-.336.065m-136.25-1.755h135.4v-8.129h-135.4Z" transform="translate(18.633 60.429)" fill="#313131"/><path d="M241.972,341.317H104.844a.878.878,0,0,1-.85-.662L79.421,245.769a.887.887,0,0,1-.006-.4.873.873,0,0,1,.167-.358.83.83,0,0,1,.31-.257.868.868,0,0,1,.393-.089H266.518a.888.888,0,0,1,.384.091.9.9,0,0,1,.307.255.871.871,0,0,1,.166.358.922.922,0,0,1-.009.4l-24.572,94.886a.881.881,0,0,1-.822.662m-136.447-1.754H241.3l24.082-93.142H81.429Z" transform="translate(14.777 45.538)" fill="#313131"/><path d="M159.011,304.289c-7.337,0-13.3-6.755-13.3-15.046s5.96-15.044,13.3-15.044,13.291,6.744,13.291,15.044-5.96,15.046-13.291,15.046m0-28.335c-6.368,0-11.542,5.959-11.542,13.289s5.174,13.292,11.542,13.292,11.535-5.963,11.535-13.292-5.174-13.289-11.535-13.289" transform="translate(27.121 51.035)" fill="#313131"/><path d="M140.595,151.893s-43.825,19.125-23.274,39.232,49.729-9.912,49.729-9.912-11.234-.555-17.194-6.874c-7.45-7.92-9.261-22.446-9.261-22.446" transform="translate(20.815 28.271)" fill="#fff"/><path d="M184.775,151.893s43.833,19.125,23.274,39.232-49.722-9.912-49.722-9.912,12.251-.211,19.125-8.9c7.148-9.036,7.323-20.424,7.323-20.424" transform="translate(29.468 28.271)" fill="#fff"/><path d="M140.595,153.663S96.77,172.788,117.321,192.9s51.064-11.065,51.064-11.065-12.568.6-18.528-5.715c-7.45-7.927-9.261-22.453-9.261-22.453" transform="translate(20.815 28.6)" fill="#313131"/><path d="M185.113,153.663s43.833,19.125,23.274,39.233S156.51,180.96,156.51,180.96s14.4,1.8,21.273-6.881c7.155-9.029,7.33-20.417,7.33-20.417" transform="translate(29.13 28.6)" fill="#313131"/><path d="M140.595,151.893s-43.825,19.125-23.274,39.232,49.729-9.912,49.729-9.912-11.234-.555-17.194-6.874c-7.45-7.92-9.261-22.446-9.261-22.446" transform="translate(20.815 28.271)" fill="#fff"/><path d="M184.775,151.893s43.833,19.125,23.274,39.232-49.722-9.912-49.722-9.912,12.251-.211,19.125-8.9c7.148-9.036,7.323-20.424,7.323-20.424" transform="translate(29.468 28.271)" fill="#fff"/><path d="M133.958,199.079a23.789,23.789,0,0,1-17.117-7.189c-4.584-4.488-6.438-9.31-5.519-14.352,2.689-14.652,27.987-25.843,29.06-26.314a.881.881,0,0,1,.788.044.893.893,0,0,1,.3.278.881.881,0,0,1,.139.381c0,.147,1.847,14.344,9.029,21.961,5.652,5.99,16.493,6.594,16.6,6.594a.88.88,0,0,1,.591,1.489c-.7.7-16.619,16.9-33.533,17.11Zm6.08-45.763c-4.83,2.289-24.763,12.42-26.988,24.573-.815,4.424.878,8.72,5.02,12.778a22.086,22.086,0,0,0,16.191,6.677c13.452-.16,26.749-11.394,30.941-15.276-3.56-.464-11.171-2-15.847-6.958-6.417-6.825-8.72-18.114-9.317-21.794" transform="translate(20.677 28.133)" fill="#313131"/><path d="M212.519,199.078h-.331c-16.913-.209-32.858-16.414-33.532-17.11a.874.874,0,0,1,.136-1.333.9.9,0,0,1,.482-.155c.113,0,11.936-.316,18.451-8.558,6.88-8.686,7.14-19.786,7.14-19.9a.868.868,0,0,1,.109-.413.876.876,0,0,1,1.12-.38c1.073.47,26.364,11.661,29.058,26.314.92,5.041-.932,9.865-5.515,14.351a23.864,23.864,0,0,1-17.118,7.182m-31.208-17c4.212,3.912,17.5,15.079,30.891,15.243a22.156,22.156,0,0,0,16.242-6.677c4.142-4.058,5.825-8.356,5.02-12.779-2.212-12.04-21.879-22.108-26.885-24.5-.274,3.321-1.544,12.189-7.442,19.659-5.47,6.838-13.973,8.6-17.826,9.05M99.305,313.02h-.189c-19.392-4.272-52.355-7.519-52.658-7.549a.86.86,0,0,1-.593-.313.877.877,0,0,1,.761-1.432c.337,0,33.4,3.286,52.889,7.581a.887.887,0,0,1,.522.346.87.87,0,0,1,.16.6.876.876,0,0,1-.865.785Zm160.942,0a.857.857,0,0,1-.584-.225.873.873,0,0,1-.128-1.161.863.863,0,0,1,.522-.345c19.49-4.3,52.558-7.554,52.892-7.584a.845.845,0,0,1,.339.03.824.824,0,0,1,.3.162.845.845,0,0,1,.216.265.9.9,0,0,1,.095.33.864.864,0,0,1-.033.343.887.887,0,0,1-.16.3.818.818,0,0,1-.263.218.9.9,0,0,1-.33.1c-.33,0-33.293,3.271-52.656,7.548Z" transform="translate(8.499 28.134)" fill="#313131"/><path d="M312.411,84.022H242.468a.881.881,0,0,1-.878-.878V13.2a.879.879,0,0,1,.878-.878h69.943a.879.879,0,0,1,.62.256.888.888,0,0,1,.257.622V83.144a.879.879,0,0,1-.878.878m-69.066-1.755h68.189V14.078H243.345Z" transform="translate(44.966 2.294)" fill="#313131"/><path d="M272.623,11.037a5.16,5.16,0,1,0-5.16-5.16,5.16,5.16,0,0,0,5.16,5.16" transform="translate(49.781 0.133)" fill="#ffa620"/><path d="M272.76,12.076a6.023,6.023,0,1,1,2.313-.459,6.027,6.027,0,0,1-2.313.459m0-10.313a.853.853,0,1,0,0-.028Z" transform="translate(49.644 0)" fill="#313131"/><path d="M271.951,18.458a.879.879,0,0,1-.878-.878V9.555a.878.878,0,1,1,1.755,0V17.58a.875.875,0,0,1-.878.878" transform="translate(50.453 1.615)" fill="#313131"/><path d="M253.792,33.3a.855.855,0,0,1-.4-.108.875.875,0,0,1-.307-.278l-3.705-5.5a.882.882,0,0,1-.144-.319.823.823,0,0,1-.006-.349.837.837,0,0,1,.127-.324.879.879,0,0,1,.565-.383.932.932,0,0,1,.349,0,.882.882,0,0,1,.319.138.872.872,0,0,1,.242.251l3.02,4.481,5.83-7.724a.869.869,0,0,1,.919-.323.844.844,0,0,1,.307.146.881.881,0,0,1,.342.58.887.887,0,0,1-.166.65l-6.572,8.7a.882.882,0,0,1-.317.267.846.846,0,0,1-.4.091" transform="translate(46.385 4.25)" fill="#313131"/><path d="M295.888,28.261H263.795a.879.879,0,0,1-.878-.878.887.887,0,0,1,.257-.62.877.877,0,0,1,.62-.257h32.093a.878.878,0,0,1,0,1.755" transform="translate(48.935 4.933)" fill="#313131"/><path d="M253.784,50.215a.888.888,0,0,1-.7-.385l-3.705-5.5a.869.869,0,0,1-.091-.636.86.86,0,0,1,.365-.528.873.873,0,0,1,1.178.187l3.02,4.48,5.83-7.724a.864.864,0,0,1,.254-.228.893.893,0,0,1,.669-.094.9.9,0,0,1,.306.149.858.858,0,0,1,.229.256.9.9,0,0,1,.114.325.881.881,0,0,1-.019.343.9.9,0,0,1-.151.308l-6.572,8.7a.89.89,0,0,1-.721.351" transform="translate(46.393 7.399)" fill="#313131"/><path d="M295.888,45.18H263.795a.874.874,0,0,1-.62-.259.875.875,0,0,1,0-1.24.874.874,0,0,1,.62-.259h32.093a.878.878,0,0,1,0,1.757" transform="translate(48.935 8.082)" fill="#313131"/><path d="M253.792,66.99a.884.884,0,0,1-.7-.387l-3.705-5.5a.886.886,0,0,1-.144-.318.9.9,0,0,1,.121-.673.843.843,0,0,1,.244-.249.861.861,0,0,1,.32-.134.868.868,0,0,1,.668.139.843.843,0,0,1,.242.251l3.02,4.479,5.83-7.723a.874.874,0,0,1,.25-.23.91.91,0,0,1,.326-.115.875.875,0,0,1,.65.17.885.885,0,0,1,.176,1.229l-6.572,8.7a.875.875,0,0,1-.721.358" transform="translate(46.385 10.521)" fill="#313131"/><path d="M295.888,61.953H263.795a.879.879,0,0,1-.878-.877.89.89,0,0,1,.257-.622.877.877,0,0,1,.62-.257h32.093a.878.878,0,0,1,0,1.755" transform="translate(48.935 11.204)" fill="#313131"/><path d="M346.4,190.034l68.763-15.968L401.069,86.344l-48.689,7.82,8.917,55.573Z" transform="translate(64.473 16.071)" fill="#fff"/><path d="M346.513,191.048a.884.884,0,0,1-.721-.372.893.893,0,0,1-.147-.391.852.852,0,0,1,.049-.414l14.822-40.08-8.891-55.349a.874.874,0,0,1,.7-1l48.7-7.82a.911.911,0,0,1,.652.154.894.894,0,0,1,.349.567l14.088,87.722a.867.867,0,0,1-.7.987l-68.763,15.976c-.045.009-.088.015-.133.023m7-96.019,8.787,54.705a.945.945,0,0,1-.041.448l-14.346,38.771,66.385-15.4L400.489,87.489Z" transform="translate(64.331 15.934)" fill="#313131"/><path d="M373.419,110.687s-14.091,1.568-17.37,12.2L352.55,100l26.192,2.4Z" transform="translate(65.618 18.612)" fill="#313131"/><path d="M356.388,123.9h-.065a.882.882,0,0,1-.531-.227.907.907,0,0,1-.275-.508l-3.672-22.893a.856.856,0,0,1,.026-.395.892.892,0,0,1,.525-.565.909.909,0,0,1,.391-.056l26.177,2.408a.883.883,0,0,1,.44.152.865.865,0,0,1,.3.356.821.821,0,0,1,.075.46.877.877,0,0,1-.17.433l-5.454,7.967a.88.88,0,0,1-.6.371c-.13,0-13.259,1.945-16.345,11.9a.877.877,0,0,1-.818.594m-2.626-22.795,3.01,18.783c4.257-7.757,14.05-9.8,16.173-10.194l4.393-6.426Z" transform="translate(65.484 18.474)" fill="#313131"/><path d="M345.6,107.64a15.575,15.575,0,0,0,16.648,14.422s15.171,2.317,23.446-7.7c5.473-6.629,14.378-2.009,13.761-10.585l-3.1-43.252A15.579,15.579,0,0,0,379.7,46.108l-22.742,2.1c-8.582.616-15.079,7.6-14.462,16.179l.58,8.206-5.454,17.355,6.779,1.043Z" transform="translate(62.84 8.574)" fill="#fff"/><path d="M361.238,123.112a16.453,16.453,0,0,1-16.382-15.276L343.708,91.86l-6.069-.9a.872.872,0,0,1-.349-.138.844.844,0,0,1-.261-.269.886.886,0,0,1-.121-.34.838.838,0,0,1,.028-.359l5.405-17.2-.574-8.037c-.642-8.94,6.071-16.453,15.276-17.117l22.725-2.1a16.467,16.467,0,0,1,17.607,15.226l2.382,33.192a.886.886,0,0,1-.229.606.878.878,0,0,1-1.517-.48l-2.377-33.191a14.7,14.7,0,0,0-15.726-13.61l-22.719,2.1c-8.246.6-14.244,7.289-13.68,15.249l.591,8.2a.852.852,0,0,1-.043.323L338.91,89.4l5.77.89a.851.851,0,0,1,.505.269.869.869,0,0,1,.229.529l1.2,16.64a14.7,14.7,0,0,0,15.719,13.611h.1c.167,0,16.74.77,22.7-7.344a.885.885,0,0,1,1.226-.181.909.909,0,0,1,.231.249.931.931,0,0,1,.117.32.914.914,0,0,1-.017.34.843.843,0,0,1-.143.308c-6.406,8.716-22.872,8.12-24.147,8.057-.4.007-.777.021-1.161.021" transform="translate(62.705 8.441)" fill="#313131"/><path d="M378.044,86.051c-3.418.637-4.44-3.6-5.111-9.41-.874-7.547-3.138-7.2-25.205-8.491-19.715-1.162-15.682-16.159,6.3-19.6,13.663-2.163,39.513-3.577,40.38-3.123,1.26.651,3.5,14.3,5.131,24.938,2.688,17.768,4.2,26.736,4.2,26.736l-13.862-5.475Z" transform="translate(62.352 8.439)" fill="#313131"/><path d="M403.836,98.084a.844.844,0,0,1-.323-.063l-13.86-5.475L378.019,87.1a3.5,3.5,0,0,1-2.619-.644c-1.924-1.4-2.682-4.851-3.23-9.571-.7-6.118-1.484-6.4-20.63-7.5l-3.793-.224c-8.155-.476-13.168-3.416-13.394-7.862-.257-5.09,6.387-11.363,19.6-13.505,12.735-2.1,39.583-3.732,40.927-3.032.7.365,1.868.974,5.6,25.582,2.646,17.551,4.2,26.6,4.2,26.715a.885.885,0,0,1-.316.833.869.869,0,0,1-.533.19m-25.67-12.77a.848.848,0,0,1,.369.084l11.81,5.538,12.367,4.9c-.548-3.269-1.942-11.754-3.977-25.2-2.912-19.3-4.2-23.426-4.707-24.259-2.8-.217-26.751,1.064-39.8,3.179C342.174,51.471,335.9,57,336.111,61.2c.173,3.41,4.684,5.789,11.752,6.2l3.8.217c18.511,1.064,21.357,1.225,22.261,9.045.4,3.5,1.031,7.252,2.528,8.359a1.852,1.852,0,0,0,1.554.294Z" transform="translate(62.23 8.301)" fill="#313131"/><path d="M355.057,77.177a.882.882,0,0,1-.557-.2.87.87,0,0,1-.3-.505c-.891-5.6-7.31-5.18-7.584-5.16a.887.887,0,0,1-.349-.026.937.937,0,0,1-.31-.164.823.823,0,0,1-.218-.273.852.852,0,0,1-.1-.334.84.84,0,0,1,.043-.348.863.863,0,0,1,.453-.512.873.873,0,0,1,.339-.085c2.863-.231,8.536.854,9.453,6.622a.88.88,0,0,1-.147.643.869.869,0,0,1-.555.358Zm-7.45,2.086a1.358,1.358,0,1,0-1.357-1.357,1.357,1.357,0,0,0,1.357,1.357" transform="translate(64.331 12.944)" fill="#313131"/><path d="M384.3,81.961c.03-5.208-2.71-9.446-6.123-9.466s-6.2,4.187-6.226,9.4,2.707,9.446,6.118,9.465,6.2-4.186,6.231-9.394" transform="translate(69.229 13.493)" fill="#fff"/><path d="M381.264,91.178a.868.868,0,0,1-.5-.155.87.87,0,0,1-.35-.939.864.864,0,0,1,.278-.446c1.765-1.5,2.87-4.389,2.883-7.539,0-4.635-2.381-8.57-5.251-8.584S373,77.4,372.97,82.034a.877.877,0,0,1-.871.875.887.887,0,0,1-.874-.881c0-5.762,3.144-10.264,7.085-10.264,3.956,0,7,4.564,7,10.347,0,3.641-1.357,7-3.5,8.857a.886.886,0,0,1-.544.21" transform="translate(69.094 13.357)" fill="#313131"/><path d="M381.846,81.766a.873.873,0,0,1-.345-.071.858.858,0,0,1-.291-.2.843.843,0,0,1-.209-.376.922.922,0,0,1,0-.429l.878-3.606a.839.839,0,0,1,.144-.31.9.9,0,0,1,.251-.231.87.87,0,0,1,.319-.117.9.9,0,0,1,.343.014.889.889,0,0,1,.31.145.942.942,0,0,1,.232.251.917.917,0,0,1,.116.32.871.871,0,0,1-.015.342l-.559,2.289.385-.07a.873.873,0,0,1,.691.1.887.887,0,0,1,.257.249.871.871,0,0,1,.138.33.83.83,0,0,1-.011.358.865.865,0,0,1-.146.325.885.885,0,0,1-.268.237.872.872,0,0,1-.343.111l-1.712.321a.637.637,0,0,1-.164.014m-32.706,13.7a7.988,7.988,0,0,1-1.927-.21.875.875,0,0,1-.6-1.085.868.868,0,0,1,.418-.525.879.879,0,0,1,.668-.077c.222.064,5.418,1.435,8.4-4.718a.878.878,0,0,1,.2-.292.909.909,0,0,1,.3-.189.878.878,0,0,1,.352-.056.9.9,0,0,1,.343.089.881.881,0,0,1,.281.217.954.954,0,0,1,.17.311.889.889,0,0,1-.076.689c-2.442,5.007-6.259,5.846-8.526,5.846" transform="translate(64.506 14.222)" fill="#313131"/><path d="M356.986,88.671a2.878,2.878,0,0,1-1.882-.637,3.574,3.574,0,0,1-1.119-2.653.778.778,0,0,1,.065-.336.807.807,0,0,1,.192-.283.836.836,0,0,1,.287-.185.859.859,0,0,1,.336-.057.879.879,0,0,1,.868.882,1.88,1.88,0,0,0,.5,1.288,1.509,1.509,0,0,0,1.266.174.875.875,0,0,1,.329,1.715,4.086,4.086,0,0,1-.841.091" transform="translate(65.885 15.731)" fill="#313131"/><path d="M371.966,140.725s-7.28,22.452,5.924,24.412,43.076-30.37,43.076-30.37,69.092,26.449,81.079,43.84,2.714,110.958,2.714,110.958l-5.43-6.419-54.845,87.509-144.078.157L313,318.2,327.5,246.8l-38.421-16.1s51.876-73.3,60.823-79.158c8.71-5.705,22.067-10.809,22.067-10.809" transform="translate(53.804 25.083)" fill="#fff"/><path d="M300.539,371.8a.876.876,0,0,1-.388-.088.867.867,0,0,1-.31-.248.911.911,0,0,1-.171-.358.926.926,0,0,1,.007-.391l12.6-52.6,14.345-70.711-37.756-15.823a.816.816,0,0,1-.317-.225.866.866,0,0,1-.209-.727.868.868,0,0,1,.147-.356c2.1-3,52.072-73.51,61.062-79.384,8.667-5.671,22.08-10.823,22.214-10.879a.854.854,0,0,1,.91.189.866.866,0,0,1,.231.9c-.043.133-4.25,13.344-.212,19.862a7.264,7.264,0,0,0,5.483,3.437,7.479,7.479,0,0,0,1.129.084c13.126,0,40.89-29.874,41.177-30.181a.881.881,0,0,1,.958-.224c2.8,1.085,69.471,26.751,81.484,44.163s3.229,107.706,2.841,111.545a.889.889,0,0,1-.189.466.937.937,0,0,1-.943.3.879.879,0,0,1-.44-.278l-4.635-5.538-54.173,86.491a.924.924,0,0,1-.32.3.881.881,0,0,1-.423.11l-144.078.157Zm-9.955-141.378,37.407,15.683a.864.864,0,0,1,.518.979L314.017,318.5l-12.363,51.547,142.481-.147,54.61-87.121a.849.849,0,0,1,.289-.28.9.9,0,0,1,.386-.121.883.883,0,0,1,.4.065.864.864,0,0,1,.326.238l4.068,4.861c1.275-13.893,7.959-92.793-2.738-108.3-11.161-16.157-73.587-40.766-80.133-43.307-3.659,3.9-28.906,30.3-42.145,30.3a8.864,8.864,0,0,1-1.3-.09,8.994,8.994,0,0,1-6.651-4.2c-3.579-5.768-1.527-15.592-.47-19.6-3.83,1.554-13.511,5.649-20.233,10.052-8.184,5.349-54.01,69.666-59.956,78.033" transform="translate(53.666 24.946)" fill="#313131"/><path d="M228.92,337.424h65.106s-2.169-26.154-35.088-23.166a34.279,34.279,0,0,0-30.018,23.166" transform="translate(42.607 58.447)" fill="#fff"/><path d="M228.92,337.424h65.106s-2.169-26.154-35.088-23.166a34.279,34.279,0,0,0-30.018,23.166" transform="translate(42.607 58.447)" fill="#fff"/><path d="M294.2,338.441H229.057a.9.9,0,0,1-.391-.1.822.822,0,0,1-.306-.257.83.83,0,0,1-.16-.365.865.865,0,0,1,.017-.4c.062-.209,6.4-21.577,30.8-23.8,11.269-1.025,20.246,1.2,26.671,6.592a27.474,27.474,0,0,1,9.368,17.362.817.817,0,0,1-.049.358.85.85,0,0,1-.183.307.958.958,0,0,1-.294.212.861.861,0,0,1-.349.075Zm-63.889-1.752h62.881a26.187,26.187,0,0,0-8.63-15.243c-6.058-5.075-14.591-7.154-25.368-6.181a33.606,33.606,0,0,0-28.883,21.424" transform="translate(42.47 58.308)" fill="#313131"/><path d="M235.845,336.6a.832.832,0,0,1-.33-.071.906.906,0,0,1-.287-.186.865.865,0,0,1-.261-.613.9.9,0,0,1,.065-.336,39.612,39.612,0,0,1,8.276-12,.851.851,0,0,1,.61-.218.874.874,0,0,1,.613,1.464,38.392,38.392,0,0,0-7.874,11.4.886.886,0,0,1-.812.554" transform="translate(43.733 60.151)" fill="#313131"/><path d="M513.8,254.535S489.5,341.613,476.209,351.63H309.288C295.4,349,281.19,338.273,271.57,335.268c-11-3.444-21.407,4.2-25.439,5.852-5.519,2.247-7.463-.923-7.463-.923a4.9,4.9,0,0,1-6.645-.917s-3.767,1.4-5.728-1.808c-3.213-5.258,15.286-27.758,38.946-32.084s49.317,16.991,59.313,17.986c1.931.2,7.356-.626,14.842-2.1,1.581-.31,3.262-.646,5.02-1.008,4.948-1.011,10.5-2.228,16.4-3.542l4.563-1.031c32.5-7.4,72.178-17.461,72.178-17.461l18.626-60.566Z" transform="translate(42.051 44.236)" fill="#fff"/><path d="M476.346,352.648H309.261c-8.465-1.6-17-6.138-24.5-10.151-4.9-2.6-9.509-5.062-13.3-6.237-8.6-2.688-16.913,1.716-21.877,4.348-1.171.623-2.179,1.154-2.975,1.477-4.537,1.854-7,.356-7.981-.616a5.644,5.644,0,0,1-6.736-1.031,5.485,5.485,0,0,1-6.2-2.352c-.8-1.3-.63-3.236.491-5.748,4.087-9.1,20.344-24.228,39.045-27.653,16.074-2.962,32.993,5.657,45.316,11.957,5.95,3.038,11.09,5.663,14.255,5.979,1.184.117,4.677-.147,14.591-2.1q2.372-.459,5.01-1.007c4.559-.934,9.922-2.1,16.39-3.543l4.564-1.031c30.2-6.872,67.069-16.172,71.675-17.334l18.475-60.1a.859.859,0,0,1,.425-.515.817.817,0,0,1,.323-.1.845.845,0,0,1,.339.033l57.6,16.844a.9.9,0,0,1,.516.417.888.888,0,0,1,.078.662c-1,3.562-24.5,87.477-37.91,97.555a.864.864,0,0,1-.524.238M309.528,350.9H476.046c12.264-9.985,34.3-86.735,36.816-95.618l-55.938-16.348-18.371,59.747a.9.9,0,0,1-.231.372.925.925,0,0,1-.385.215c-.4.1-40.065,10.151-72.2,17.461l-4.563,1.034c-6.481,1.451-11.854,2.613-16.423,3.552q-2.647.543-5.034,1.007c-8.233,1.6-13.178,2.28-15.1,2.1-3.5-.35-8.52-2.92-14.876-6.165-12.119-6.19-28.7-14.7-44.189-11.834-18.112,3.314-33.821,17.862-37.755,26.646-.841,1.869-1.057,3.376-.6,4.123,1.556,2.55,4.551,1.484,4.678,1.441a.875.875,0,0,1,.548-.022.9.9,0,0,1,.453.31,3.961,3.961,0,0,0,5.487.7.882.882,0,0,1,.665-.112.9.9,0,0,1,.548.4c.055.09,1.685,2.479,6.383.567.7-.293,1.687-.805,2.8-1.4,5.208-2.759,13.924-7.378,23.214-4.468,3.927,1.226,8.611,3.719,13.576,6.358,7.414,3.914,15.8,8.373,23.978,9.935" transform="translate(41.914 44.091)" fill="#313131"/><path d="M231.256,328.5a.877.877,0,0,1-.44-.121.918.918,0,0,1-.324-.326c-.7-1.294-.293-3.689,1.178-6.566,4.234-8.317,16.234-18.852,36.076-21.208a.881.881,0,0,1,.973.773.887.887,0,0,1-.183.645.871.871,0,0,1-.587.326c-19.154,2.261-30.678,12.33-34.726,20.253-1.4,2.717-1.474,4.433-1.2,4.9a.87.87,0,0,1-.336,1.187.825.825,0,0,1-.427.134" transform="translate(42.838 55.888)" fill="#313131"/><path d="M236.879,328.439a.873.873,0,0,1-.391-.088.892.892,0,0,1-.31-.255c-.753-1-.7-2.583.134-4.472,2.8-6.337,14.261-16.384,34.213-18.084a.876.876,0,0,1,.343.032.864.864,0,0,1,.307.164.828.828,0,0,1,.215.267.856.856,0,0,1,.1.33.928.928,0,0,1-.037.343.914.914,0,0,1-.17.3.856.856,0,0,1-.27.211.816.816,0,0,1-.332.091c-19.069,1.625-30.215,11.323-32.762,17.051-.652,1.467-.611,2.358-.343,2.707a.87.87,0,0,1-.7,1.4" transform="translate(43.86 56.868)" fill="#313131"/><path d="M348.605,339.466h-16.88c.47-2.744,1.937-14.907-4.965-29.586-.274-.58-.561-1.164-.861-1.758l-.371-.7,15.8-4.4s.38.555.973,1.582c.134.244.287.518.453.813a56.01,56.01,0,0,1,5.849,34.054" transform="translate(60.589 56.399)" fill="#21a2ff"/><path d="M348.741,340.475h-16.88a.868.868,0,0,1-.362-.078.917.917,0,0,1-.3-.225.862.862,0,0,1-.176-.326.837.837,0,0,1-.026-.371c.384-2.287,1.974-14.457-4.9-29.066-.274-.568-.554-1.142-.848-1.729l-.371-.7a.887.887,0,0,1-.085-.378.933.933,0,0,1,.313-.686.915.915,0,0,1,.339-.183l15.8-4.4a.869.869,0,0,1,.533.019.883.883,0,0,1,.42.323s.415.591,1.015,1.642l.455.818a57.072,57.072,0,0,1,5.95,34.631.862.862,0,0,1-.88.714m-15.853-1.748h15.1a55.318,55.318,0,0,0-5.845-32.779l-.457-.818c-.231-.408-.434-.738-.587-.982l-14.149,3.944c.261.516.511,1.034.757,1.547a54.456,54.456,0,0,1,5.186,29.089" transform="translate(60.452 56.264)" fill="#313131"/><rect width="26.534" height="5.636" transform="translate(380.565 362.332) rotate(-15.683)" fill="#fff"/><path d="M301.41,253.078s-31.783-85.209-31.349-92.315,14.91-23.8,12.427-27.106c-5.02-6.749-17.629,7.273-17.629,7.273s-1.5-45.114-5.81-45.961c-5.6-1.092-6.393,13.561-6.393,13.561s-1.758-22.046-6.022-21.654c-5.76.533-5.76,17.852-5.76,17.852s-2.179-11.286-6.406-11.2c-5.02.113-4.41,15.85-4.41,15.85s.049-6.161-4.047-5.6c-6.862.938,0,49.377,4.683,62.308,17.154,47.431,16.629,149.876,62.869,165.516,21.1,7.133,31.776-4.488,31.776-4.488l15.7-77.387-26.5-16.8Z" transform="translate(41.526 16.169)" fill="#fff"/><path d="M306.9,334.937a42.01,42.01,0,0,1-13.514-2.388c-32.54-11.006-42.24-64.157-50.79-111.063-3.793-20.814-7.379-40.479-12.6-54.958-3.964-10.956-10.8-54-5.995-61.964a2.806,2.806,0,0,1,2.009-1.485,3.724,3.724,0,0,1,3.059.855,3.353,3.353,0,0,1,.31.3c.228-3.7.91-8.267,2.8-10.284a3.289,3.289,0,0,1,2.382-1.127c2.766-.057,4.648,3.395,5.825,6.622.516-5.425,2.009-12.888,6.3-13.3a2.241,2.241,0,0,1,.916.114,2.265,2.265,0,0,1,.794.474c2.3,1.938,3.732,9.311,4.507,15,.646-2.688,1.69-5.425,3.376-6.735a3.665,3.665,0,0,1,3.066-.748c1.087.21,3.34.65,5.223,24.083.7,8.4,1.064,16.857,1.217,20.639,2.733-2.716,8.774-8.107,13.491-7.89a5.14,5.14,0,0,1,4.048,2.184c1.553,2.1-1.051,6.582-5.441,13.708-3.1,5.055-6.622,10.775-6.818,14-.343,5.551,21.472,65.555,30.691,90.313l12.183-18.736a.858.858,0,0,1,.548-.375.87.87,0,0,1,.656.117l26.5,16.8a.862.862,0,0,1,.384.91l-15.724,77.4a.824.824,0,0,1-.209.41c-.343.378-6.723,7.114-19.19,7.114m-80.26-230.17a2.323,2.323,0,0,0-.385,0c-.25,0-.5.251-.747.651-4.263,7.049,1.863,48.635,6.139,60.466,5.288,14.618,8.885,34.348,12.692,55.237C252.8,267.56,262.4,320.194,293.97,330.863c18.9,6.39,29.291-2.736,30.691-4.09l15.526-76.533-25.279-16.011-12.656,19.463a.89.89,0,0,1-.363.313.867.867,0,0,1-.47.078.92.92,0,0,1-.444-.179.885.885,0,0,1-.28-.389c-1.3-3.5-31.845-85.459-31.4-92.664.231-3.647,3.709-9.31,7.078-14.785,2.725-4.431,6.456-10.5,5.523-11.747a3.418,3.418,0,0,0-2.717-1.485c-5.333-.244-13.48,8.731-13.559,8.821a.885.885,0,0,1-.441.266.882.882,0,0,1-.923-.339.888.888,0,0,1-.162-.486c-.7-21.22-2.8-43.9-5.137-45.141a1.976,1.976,0,0,0-.862.031,1.95,1.95,0,0,0-.763.4c-2.583,2.016-3.543,9.584-3.689,12.336a.876.876,0,0,1-1.465.567.882.882,0,0,1-.281-.567c-.56-6.945-2.308-18.7-4.647-20.667-.238-.2-.378-.189-.421-.181-3.627.329-4.971,10.585-4.971,16.977a.875.875,0,0,1-1.735.16c-.665-3.443-2.883-10.5-5.523-10.5a1.584,1.584,0,0,0-.636.165,1.55,1.55,0,0,0-.512.409c-2.235,2.373-2.509,10.5-2.423,13.954v.454a.877.877,0,0,1-.874.875.877.877,0,0,1-.878-.875v-.476c-.062-1.064-.375-2.99-1.4-3.858a1.818,1.818,0,0,0-1.232-.384" transform="translate(41.385 16.032)" fill="#313131"/><path d="M311.736,276.364a.819.819,0,0,1-.476-.14.852.852,0,0,1-.323-.375l-11.316-25.081a.877.877,0,0,1,.444-1.155.9.9,0,0,1,.33-.078.934.934,0,0,1,.339.056.853.853,0,0,1,.287.179.885.885,0,0,1,.2.278l11.313,25.086a.885.885,0,0,1-.441,1.155.908.908,0,0,1-.356.075M251.147,128.31a.883.883,0,0,1-.867-.881c0-.7.189-16.908.525-21.627a.827.827,0,0,1,.088-.331.856.856,0,0,1,.205-.272.866.866,0,0,1,.3-.17.842.842,0,0,1,.339-.039.875.875,0,0,1,.33.089.885.885,0,0,1,.44.509.937.937,0,0,1,.043.339c-.33,4.663-.512,21.347-.518,21.514a.863.863,0,0,1-.069.336.807.807,0,0,1-.192.283.887.887,0,0,1-.285.187.866.866,0,0,1-.339.062m-11.262,1.618a.873.873,0,0,1-.874-.875V102.063a.874.874,0,1,1,1.748,0v27.009a.871.871,0,0,1-.261.606.891.891,0,0,1-.613.249m-9.437,2.806a.881.881,0,0,1-.6-.236.862.862,0,0,1-.274-.582c0-.2-1.247-20.576-1.344-25.168a.838.838,0,0,1,.058-.337.9.9,0,0,1,.183-.287.916.916,0,0,1,.281-.2.874.874,0,0,1,.671-.013.912.912,0,0,1,.287.184.929.929,0,0,1,.2.28.894.894,0,0,1,.072.333c.1,4.558,1.331,24.888,1.337,25.1a.837.837,0,0,1-.045.338.864.864,0,0,1-.17.3.893.893,0,0,1-.274.205.834.834,0,0,1-.33.085Zm19.476,18.091a.879.879,0,0,1-.293-.056.912.912,0,0,1-.294-.174.869.869,0,0,1-.2-.274.855.855,0,0,1-.082-.33.9.9,0,0,1,.052-.336c1.9-5.285,5.258-6.861,8.507-8.4a16.926,16.926,0,0,0,5.6-3.6.858.858,0,0,1,.278-.215.87.87,0,0,1,.691-.032.852.852,0,0,1,.3.187.881.881,0,0,1,.2.291.916.916,0,0,1,.069.346.848.848,0,0,1-.075.345.877.877,0,0,1-.2.288,19.013,19.013,0,0,1-6.149,3.983c-3.189,1.5-5.95,2.8-7.6,7.386a.906.906,0,0,1-.307.422.887.887,0,0,1-.492.173" transform="translate(42.479 18.834)" fill="#313131"/><path d="M480.971,271.6s-4.378-10.373-30.684-16.926c-23.31-5.806-39.416-1.751-39.416-1.751l5.2-30.512,63.3,18.113Z" transform="translate(76.473 41.397)" fill="#fff"/><path d="M482.231,275.3a.873.873,0,0,1-.783-.489c-.071-.128-5.839-11.371-31.226-18.113-22.816-6.054-38.806-1.8-38.959-1.758a.867.867,0,0,1-.437.036.9.9,0,0,1-.395-.186.863.863,0,0,1-.31-.786l4.517-37.107a.941.941,0,0,1,.095-.336.89.89,0,0,1,.222-.27.949.949,0,0,1,.31-.164.852.852,0,0,1,.35-.026.877.877,0,0,1,.593.343.832.832,0,0,1,.151.317.842.842,0,0,1,.015.349l-4.367,35.845c4.248-.91,18.769-3.23,38.624,2.045,26.294,7,32.113,18.55,32.35,19.043a.865.865,0,0,1-.14.962.92.92,0,0,1-.61.3" transform="translate(76.332 40.221)" fill="#313131"/><path d="M289.978,217.9a50.991,50.991,0,0,1,19.428,3.8c10.02,4.416,17.944,12.46,17.944,12.46l4.794-19.118-21.6-12.539Z" transform="translate(53.972 37.692)" fill="#fff"/><path d="M327.651,233.22a.9.9,0,0,1-.63-.261c-.078-.082-7.926-7.979-17.663-12.278-8.954-3.95-19.983-3.571-20.093-3.565a.858.858,0,0,1-.339-.052.869.869,0,0,1-.291-.179.877.877,0,0,1,.561-1.517c.466,0,11.537-.4,20.87,3.715a65.406,65.406,0,0,1,17.1,11.58l4.433-17.657a.9.9,0,0,1,.134-.326.935.935,0,0,1,.254-.248.919.919,0,0,1,.33-.123.858.858,0,0,1,.356.013.827.827,0,0,1,.319.157.868.868,0,0,1,.232.267.954.954,0,0,1,.1.336.841.841,0,0,1-.037.352l-4.824,19.121a.831.831,0,0,1-.225.4.875.875,0,0,1-.4.232.8.8,0,0,1-.2.036" transform="translate(53.67 39.513)" fill="#313131"/><path d="M294.192,221.286l3.366-5.18a43.54,43.54,0,0,0-4.593-.421c-2.149-.075-3.872-.062-3.872-.062s-.231,1.827,2.3,3.849a13.5,13.5,0,0,0,2.8,1.814" transform="translate(53.806 40.132)" fill="#313131"/><path d="M294.329,236.869a.834.834,0,0,1-.343-.071,14.267,14.267,0,0,1-3-1.931c-2.835-2.27-2.649-4.41-2.62-4.648a.883.883,0,0,1,.3-.557.871.871,0,0,1,.6-.205s1.765,0,3.9.062a42.577,42.577,0,0,1,4.708.434.91.91,0,0,1,.391.172.9.9,0,0,1,.263.339.841.841,0,0,1,.072.421.9.9,0,0,1-.14.4l-3.366,5.18a.862.862,0,0,1-.764.4m-4.074-5.665a5.379,5.379,0,0,0,1.821,2.289,15.476,15.476,0,0,0,1.95,1.351l2.179-3.338c-.805-.091-1.911-.189-3.137-.237-1.113-.037-2.114-.059-2.812-.065m40.519,3.64a.874.874,0,0,1-.574-.216c-14.464-12.555-33.483-13.7-33.672-13.709a.867.867,0,0,1-.607-.287.875.875,0,0,1,.065-1.239.871.871,0,0,1,.633-.222c.2,0,19.819,1.191,34.729,14.14a.9.9,0,0,1,.274.447.874.874,0,0,1-.848,1.086M506.147,275.1a.841.841,0,0,1-.389-.091.9.9,0,0,1-.31-.251c-.078-.107-7.828-9.984-26.163-15.646a94.97,94.97,0,0,0-43.813-2.682.875.875,0,0,1-.375-1.709,96.825,96.825,0,0,1,44.707,2.723c18.9,5.839,26.708,15.821,27.031,16.248a.945.945,0,0,1,.153.307.878.878,0,0,1-.088.665.917.917,0,0,1-.229.254.891.891,0,0,1-.524.183M377.689,175.407a14.22,14.22,0,0,1-12.6-7.766c-4.684-10.011,2.3-25.5,2.589-26.154a.875.875,0,0,1,1.6.7c-.069.154-6.938,15.4-2.6,24.693a12.5,12.5,0,0,0,11.087,6.756c18.393,0,50.121-36.336,50.464-36.721a.88.88,0,0,1,.268-.208.894.894,0,0,1,.329-.09.85.85,0,0,1,.337.042.949.949,0,0,1,.3.17.924.924,0,0,1,.209.268.879.879,0,0,1,.088.329.836.836,0,0,1-.043.337.856.856,0,0,1-.17.3c-1.393,1.644-32.589,37.343-51.847,37.35m61.447,98.833,2.009-6.54s-6.811.855-7.267,1.129.049,4.472,5.258,5.411m60.249,8.784,3.236,3.109,2.274,3.249s-1.094,1.555-4.052,1.575a15.785,15.785,0,0,1-3.67-.427Z" transform="translate(53.669 25.427)" fill="#313131"/><path d="M436.166,259.507h-.153c-3.9-.7-5.7-3.207-6.058-5.141-.172-.93,0-1.582.5-1.882.166-.1.617-.372,7.61-1.247a.876.876,0,0,1,.427.052.891.891,0,0,1,.349.255.869.869,0,0,1,.193.388.855.855,0,0,1-.026.431L437,258.9a.88.88,0,0,1-.833.611m-4.507-5.6a3.545,3.545,0,0,0,.617,1.506,5.587,5.587,0,0,0,3.287,2.177l1.4-4.466c-2.248.317-4.41.63-5.307.783m66.1,22.334a17.1,17.1,0,0,1-3.794-.446.832.832,0,0,1-.316-.158.855.855,0,0,1-.232-.263.911.911,0,0,1-.11-.343.772.772,0,0,1,.036-.356l2.241-7.512a.872.872,0,0,1,.229-.378.883.883,0,0,1,.384-.215.88.88,0,0,1,.829.215l3.232,3.109c0,.039.078.081.114.13l2.254,3.249a.882.882,0,0,1,.158.5.872.872,0,0,1-.158.5c-.055.078-1.4,1.925-4.761,1.948ZM495.3,274.27a15.16,15.16,0,0,0,2.548.218,4.961,4.961,0,0,0,2.913-.812l-1.778-2.57-2.1-2.051ZM327.3,220.4l-23,85.868,5.888-4.019Z" transform="translate(56.638 41.021)" fill="#313131"/><path d="M322.51,313.04a.87.87,0,0,1-.839-.639l-1.525-5.425a.849.849,0,0,1-.03-.342.794.794,0,0,1,.108-.323.867.867,0,0,1,.221-.261.89.89,0,0,1,.311-.151l25.543-7.176a.836.836,0,0,1,.358-.036.86.86,0,0,1,.343.117.892.892,0,0,1,.414.525l1.517,5.428a.862.862,0,0,1-.3.923.845.845,0,0,1-.3.153l-25.547,7.176a.967.967,0,0,1-.274.03m-.44-5.692,1.05,3.739,23.861-6.693-1.051-3.745Z" transform="translate(59.58 55.592)" fill="#313131"/><path d="M484.166,297.451c6.98-5.209,10.291-12.578,7.394-16.459s-10.9-2.806-17.883,2.4-10.291,12.578-7.394,16.46,10.9,2.805,17.883-2.4" transform="translate(86.591 51.865)" fill="#21a2ff"/><path d="M472.055,303.186c-2.808,0-5.005-.93-6.319-2.691-3.237-4.338.084-12.1,7.569-17.685a24.242,24.242,0,0,1,10.876-4.76c3.707-.492,6.635.415,8.235,2.555s1.637,5.209.106,8.621a26.32,26.32,0,0,1-18.556,13.847,15.6,15.6,0,0,1-1.911.114m-4.914-3.745c1.2,1.614,3.511,2.277,6.592,1.869a24.636,24.636,0,0,0,17.188-12.829c1.256-2.809,1.292-5.236.084-6.843s-3.511-2.277-6.587-1.869a22.507,22.507,0,0,0-10.068,4.446c-6.467,4.822-9.767,11.8-7.21,15.226" transform="translate(86.454 51.727)" fill="#313131"/><path d="M450.948,282.912c2.439-3.64-.888-10.144-7.431-14.528s-13.823-4.984-16.262-1.344.887,10.144,7.43,14.528,13.824,4.984,16.263,1.344" transform="translate(79.374 49.259)" fill="#21a2ff"/><path d="M445.559,286.28a10.186,10.186,0,0,1-1.13-.043,22.129,22.129,0,0,1-10.089-3.825c-7.022-4.727-10.42-11.649-7.674-15.748s10.433-3.625,17.489,1.1,10.419,11.638,7.673,15.748c-1.213,1.817-3.411,2.766-6.269,2.766m-17.434-18.641c-2.107,3.174,1.166,9.273,7.2,13.34a20.212,20.212,0,0,0,9.254,3.51c2.738.232,4.8-.463,5.792-1.944,2.107-3.184-1.165-9.277-7.2-13.34s-12.918-4.769-15.046-1.588Z" transform="translate(79.236 49.113)" fill="#313131"/><path d="M459.812,318.327c11.668,0,21.126-15.243,21.126-34.05s-9.458-34.051-21.126-34.051-21.126,15.243-21.126,34.051,9.458,34.05,21.126,34.05" transform="translate(81.65 46.573)" fill="#21a2ff"/><path d="M459.95,319.344c-12.132,0-22-15.672-22-34.93s9.872-34.922,22-34.922,22,15.664,22,34.922-9.871,34.93-22,34.93m0-68.1c-11.164,0-20.248,14.878-20.248,33.166s9.085,33.174,20.248,33.174S480.2,302.7,480.2,284.407s-9.077-33.159-20.248-33.159Z" transform="translate(81.512 46.436)" fill="#313131"/><path d="M452.137,283.672a.912.912,0,0,1-.338-.065.83.83,0,0,1-.286-.2l-4.255-4.3a.885.885,0,0,1,.643-1.451.889.889,0,0,1,.606.209l4.255,4.282a.9.9,0,0,1,.191.285.875.875,0,0,1-.191.958.9.9,0,0,1-.625.274m27.2.1a.877.877,0,0,1-.394-1.663l5.392-2.711a.887.887,0,0,1,.338-.11.85.85,0,0,1,.353.03.885.885,0,0,1,.313.17.849.849,0,0,1,.221.276.9.9,0,0,1,.091.343.884.884,0,0,1-.051.352.893.893,0,0,1-.187.3.826.826,0,0,1-.292.2l-5.392,2.717a.867.867,0,0,1-.393.091M452.7,260.024a.817.817,0,0,1-.339-.066.9.9,0,0,1-.286-.192l-4.212-4.3a.886.886,0,0,1-.211-.283.885.885,0,0,1-.017-.7.825.825,0,0,1,.2-.294.909.909,0,0,1,.3-.2.9.9,0,0,1,.349-.062.911.911,0,0,1,.345.084.857.857,0,0,1,.285.212l4.247,4.3a.9.9,0,0,1,.237.45.873.873,0,0,1-.375.9.854.854,0,0,1-.487.147Zm7.646-6.436a.938.938,0,0,1-.337-.072.893.893,0,0,1-.285-.192.907.907,0,0,1-.186-.291.866.866,0,0,1-.063-.339l.057-6.03a.872.872,0,0,1,.256-.62.878.878,0,0,1,1.242,0,.877.877,0,0,1,.256.62l-.056,6.037a.9.9,0,0,1-.065.343.862.862,0,0,1-.192.286.864.864,0,0,1-.628.259m-17.088,44.035a.922.922,0,0,1-.31-.056l-5.616-2.107a.876.876,0,0,1-.491-.46.878.878,0,0,1,1.109-1.184l5.616,2.107a.878.878,0,0,1-.308,1.7m-9.374-25.529a.882.882,0,0,1-.807-.534l-2.366-5.555a.855.855,0,0,1-.072-.333.886.886,0,0,1,.063-.338.823.823,0,0,1,.189-.287.874.874,0,0,1,.955-.2.885.885,0,0,1,.48.471l2.366,5.551a.9.9,0,0,1,.07.336.864.864,0,0,1-.255.623.813.813,0,0,1-.286.193.8.8,0,0,1-.337.07M430.97,287.73a.85.85,0,0,1-.578-.212.865.865,0,0,1-.3-.537.877.877,0,0,1,.623-.969l5.778-1.742a.931.931,0,0,1,.351-.052.864.864,0,0,1,.62.313.879.879,0,0,1,.2.665.882.882,0,0,1-.11.337.863.863,0,0,1-.235.263.845.845,0,0,1-.32.151l-5.779,1.748a.962.962,0,0,1-.253.036m69.922,10.533h-.1l-6-.639a.916.916,0,0,1-.345-.088.905.905,0,0,1-.455-.529.887.887,0,0,1-.034-.356.878.878,0,0,1,.11-.339.889.889,0,0,1,.559-.42.944.944,0,0,1,.356-.011l6,.633a.867.867,0,0,1,.607.287.879.879,0,0,1-.7,1.467ZM488.114,288.2a.879.879,0,0,1-.394-.1.937.937,0,0,1-.308-.261.925.925,0,0,1-.161-.372.911.911,0,0,1,.02-.4l1.748-5.78a.918.918,0,0,1,.162-.3.863.863,0,0,1,.266-.215.829.829,0,0,1,.329-.1.86.86,0,0,1,.645.2.865.865,0,0,1,.218.267.877.877,0,0,1,.1.326.9.9,0,0,1-.034.343l-1.755,5.78a.873.873,0,0,1-.835.623m7.744,1.109a.877.877,0,0,1-.457-1.627l5.147-3.152a.873.873,0,0,1,.321-.12.943.943,0,0,1,.342.012.872.872,0,0,1,.312.145.9.9,0,0,1,.232.25.886.886,0,0,1,.12.32.883.883,0,0,1-.157.656.885.885,0,0,1-.251.231l-5.145,3.154a.858.858,0,0,1-.464.13m-32.949,6.181a.9.9,0,0,1-.528-.179.879.879,0,0,1,.064-1.445l5.154-3.152a.877.877,0,0,1,.912,1.495l-5.139,3.154a.848.848,0,0,1-.463.127m-19.273,16.443a.95.95,0,0,1-.429-.114.882.882,0,0,1-.033-1.517l5.153-3.15a.875.875,0,0,1,.327-.141.946.946,0,0,1,.356,0,.931.931,0,0,1,.325.144.872.872,0,0,1,.243.259.877.877,0,0,1-.338,1.232l-5.147,3.154a.832.832,0,0,1-.457.134m23.851-3.154a.865.865,0,0,1-.429-.114.887.887,0,0,1-.321-.307.877.877,0,0,1,.037-.975.877.877,0,0,1,.25-.231L472.176,304a.959.959,0,0,1,.327-.141.891.891,0,0,1,.355,0,.842.842,0,0,1,.326.14.894.894,0,0,1,.243.261.875.875,0,0,1,.1.688.9.9,0,0,1-.435.546l-5.147,3.15a.855.855,0,0,1-.457.134m-9.731-2.175a.906.906,0,0,1-.632-.268l-4.212-4.351a.88.88,0,0,1-.214-.617.879.879,0,0,1,1.477-.6l4.213,4.348a.88.88,0,0,1,.232.45.892.892,0,0,1-.055.5.878.878,0,0,1-.325.388.864.864,0,0,1-.485.147m0-35.091a.86.86,0,0,1-.394-.095.881.881,0,0,1-.308-.263l-3.588-4.858a.883.883,0,0,1-.183-.315.883.883,0,0,1,.071-.708.89.89,0,0,1,.241-.27.912.912,0,0,1,.331-.151.934.934,0,0,1,.363-.006.953.953,0,0,1,.334.144.9.9,0,0,1,.247.268l3.588,4.86a.868.868,0,0,1,.172.446.881.881,0,0,1-.413.827.888.888,0,0,1-.461.129Z" transform="translate(80.049 45.747)" fill="#313131"/><path d="M473.347,339.081H445.29l-1.614-33.959h31.285Z" transform="translate(82.579 56.791)" fill="#ffa620"/><path d="M473.488,340.1H445.4a.876.876,0,0,1-.877-.836L442.918,305.3a.862.862,0,0,1,.051-.352.871.871,0,0,1,.189-.3.874.874,0,0,1,.631-.263h31.285a.9.9,0,0,1,.344.068.887.887,0,0,1,.288.2.9.9,0,0,1,.246.656l-1.614,33.959a.878.878,0,0,1-.261.585.889.889,0,0,1-.588.251m-27.249-1.756h26.384l1.56-32.221H444.737Z" transform="translate(82.437 56.653)" fill="#313131"/><path d="M474.446,305.122H444.593a4.331,4.331,0,0,0-4.333,4.332v.007a4.333,4.333,0,0,0,4.333,4.331h29.854a4.332,4.332,0,0,0,4.332-4.331v-.007a4.33,4.33,0,0,0-4.332-4.332" transform="translate(81.943 56.791)" fill="#ffa620"/><path d="M474.579,324.325H444.759a5.209,5.209,0,1,1,0-10.418h29.854a5.209,5.209,0,1,1,0,10.418Zm-29.819-8.679a3.454,3.454,0,1,0,0,6.908h29.854a3.454,3.454,0,0,0,0-6.908Zm25.493-55.837a.886.886,0,0,1-.77-.463.883.883,0,0,1,.033-.9l3.173-4.8a.863.863,0,0,1,.238-.265.835.835,0,0,1,.321-.147.915.915,0,0,1,.355-.009.89.89,0,0,1,.578.384.867.867,0,0,1,.119.682.839.839,0,0,1-.151.323l-3.166,4.8a.873.873,0,0,1-.315.287.924.924,0,0,1-.415.108m-1.958,16.134a.882.882,0,0,1-.873-.822.885.885,0,0,1,.213-.639l3.51-4.029a.872.872,0,0,1,.273-.209.846.846,0,0,1,.33-.088.873.873,0,0,1,.34.046.851.851,0,0,1,.3.17.906.906,0,0,1,.209.274.851.851,0,0,1,.088.329.887.887,0,0,1-.216.637l-3.511,4.032a.872.872,0,0,1-.3.224.837.837,0,0,1-.364.076m7.049-9.127a.882.882,0,0,1-.575-.212.873.873,0,0,1-.091-1.232l3.574-4.136a.879.879,0,0,1,1.54.512.883.883,0,0,1-.214.639L476,266.5a.8.8,0,0,1-.294.231.831.831,0,0,1-.365.085" transform="translate(81.811 47.129)" fill="#313131"/><path d="M443.913,312.426H474.5l-.161,2.786H444.214Z" transform="translate(82.623 58.15)" fill="#313131"/><path d="M131.809,281.939s-11.475-16.466-21.08-15.879c-10.719,6.628-24.559,10.621-39.668,10.621-34.038,0-61.607-20.246-61.607-45.233s27.6-45.24,61.607-45.24,61.608,20.26,61.608,45.24c0,9.4-3.907,18.13-10.592,25.365.013,0,8.764,6.132,9.731,25.126" transform="translate(1.76 34.658)" fill="#fff"/><path d="M131.947,282.951a.922.922,0,0,1-.394-.1.866.866,0,0,1-.306-.273c-.113-.159-11.125-15.805-20.086-15.512-11.2,6.853-25.357,10.628-39.94,10.628-34.465,0-62.511-20.681-62.511-46.108s28.046-46.114,62.511-46.114,62.5,20.686,62.5,46.114c0,9.047-3.5,17.769-10.2,25.275,2.22,2.009,8.507,9.063,9.319,25.2a.872.872,0,0,1-.588.871.783.783,0,0,1-.3.02m-20.576-17.644c7.6,0,15.886,9.306,19.476,13.849-1.61-15.963-9.038-21.437-9.1-21.491a.92.92,0,0,1-.249-.275.893.893,0,0,1-.114-.351.847.847,0,0,1,.042-.365.879.879,0,0,1,.189-.321c6.77-7.328,10.355-15.9,10.355-24.767,0-24.46-27.255-44.366-60.747-44.366s-60.782,19.906-60.782,44.357,27.255,44.358,60.76,44.358c14.345,0,28.27-3.721,39.2-10.5a.951.951,0,0,1,.407-.134Z" transform="translate(1.621 34.521)" fill="#313131"/><rect width="54.237" height="34.495" transform="translate(45.453 260.189)" fill="#21a2ff"/><path d="M92.689,254.867h-54.2a.881.881,0,0,1-.875-.874V219.5a.881.881,0,0,1,.065-.336.872.872,0,0,1,.474-.474.881.881,0,0,1,.336-.065H92.725a.881.881,0,0,1,.336.065.868.868,0,0,1,.285.19.861.861,0,0,1,.254.62v34.495a.872.872,0,0,1-.069.343.887.887,0,0,1-.2.287.91.91,0,0,1-.3.189.844.844,0,0,1-.346.056m-53.361-1.752H91.835V220.374H39.328Z" transform="translate(7.001 40.691)" fill="#313131"/><path d="M64.932,246.253,42.347,223.71V195.994h45.17V223.71Z" transform="translate(7.882 36.479)" fill="#fff"/><path d="M80.414,202.987H48.995a.878.878,0,0,1,0-1.755H80.414a.878.878,0,0,1,0,1.755" transform="translate(8.956 37.454)" fill="#313131"/><path d="M80.414,213.155H48.995a.878.878,0,0,1,0-1.757H80.414a.878.878,0,0,1,0,1.757" transform="translate(8.956 39.346)" fill="#313131"/><path d="M65.051,247.255a.881.881,0,0,1-.616-.25L41.851,224.454a.83.83,0,0,1-.192-.281.839.839,0,0,1-.066-.336V196.149a.875.875,0,0,1,.874-.875h45.17a.875.875,0,0,1,.875.875v27.716a.875.875,0,0,1-.251.617L65.668,247.033a.866.866,0,0,1-.617.222m-21.7-23.8,21.7,21.7,21.7-21.7V197H43.349Z" transform="translate(7.741 36.345)" fill="#313131"/></g></svg>