<svg xmlns="http://www.w3.org/2000/svg" xmlns:xlink="http://www.w3.org/1999/xlink" viewBox="0 0 190 192.36"><defs><style>.cls-1{fill:none;}.cls-2{clip-path:url(#clip-path);}.cls-3{fill:#417dbf;}.cls-4{fill:#e0d1e6;}.cls-5{fill:#f16f80;}.cls-6{fill:#f7ada6;}.cls-7{fill:#213265;}.cls-8{fill:#221b52;}.cls-9{fill:#6e3e97;}.cls-10{clip-path:url(#clip-path-2);}.cls-11{fill:#fff;}.cls-12{clip-path:url(#clip-path-3);}</style><clipPath id="clip-path"><path class="cls-1" d="M95,0c-3.11,0-6.22.15-9.31.46q-3.93.39-7.8,1.09l-1.42.27c-3.06.61-6.07,1.37-9,2.27q-3.48,1.05-6.86,2.38l-1.65.65-.26.11c-.66.27-1.32.55-2,.84-2.19,1-4.35,2-6.46,3.15-1,.52-2,1.07-2.92,1.63q-2.59,1.5-5.08,3.16l-.69.47c-2.35,1.59-4.61,3.29-6.8,5.08q-3.6,3-6.9,6.26c-1.63,1.63-3.19,3.31-4.7,5-.53.61-1.05,1.23-1.57,1.86q-2.34,2.87-4.46,5.89c-.37.53-.73,1.07-1.09,1.6-1.12,1.69-2.19,3.4-3.21,5.15-.54.94-1.07,1.89-1.58,2.85-.36.67-.71,1.34-1.05,2q-1.59,3.13-2.94,6.41c-1,2.42-1.91,4.88-2.7,7.38-.15.46-.3.93-.44,1.39,0,.1-.06.19-.08.28Q2.71,72,1.83,76.47c-.25,1.22-.47,2.44-.66,3.67Q.74,82.9.46,85.69C.15,88.78,0,91.89,0,95H0c0,3.11.15,6.22.46,9.31l0,.35q.29,2.75.72,5.47c.19,1.14.39,2.27.62,3.4s.48,2.32.75,3.48c.45,1.87.95,3.72,1.51,5.57.9,3,2,5.9,3.14,8.77.42,1,.85,2,1.3,3,.83,1.85,1.73,3.66,2.69,5.45a92.4,92.4,0,0,0,4.79,8l1.09,1.59q2.12,3,4.46,5.9c2,2.4,4.06,4.71,6.27,6.91q2.37,2.37,4.91,4.58c.66.57,1.32,1.13,2,1.68q2.93,2.38,6,4.55c.48.34,1,.67,1.46,1q3.89,2.59,8,4.79,2.3,1.23,4.66,2.33c1.24.58,2.5,1.13,3.77,1.66,2.59,1.08,5.24,2,7.92,2.88l.85.26.74.22q4.11,1.22,8.31,2.05c3,.6,6.12,1.06,9.22,1.36s6,.45,9,.46H95q4.53,0,9-.43l.28,0c2.92-.28,5.82-.71,8.7-1.26l.52-.1c3.06-.61,6.07-1.37,9-2.27s5.9-1.95,8.77-3.14a92.7,92.7,0,0,0,8.43-4l1.72-.94q3.21-1.8,6.28-3.85,3.89-2.6,7.49-5.55t6.9-6.26c.92-.92,1.81-1.85,2.69-2.8l1.33-1.47q1.14-1.31,2.25-2.64,2.87-3.5,5.39-7.25l.16-.24q2-3,3.81-6.2c.33-.6.66-1.19,1-1.8.69-1.29,1.36-2.6,2-3.93s1.37-3,2-4.5c1.19-2.87,2.24-5.8,3.14-8.77s1.66-6,2.26-9q.18-.86.33-1.71c.45-2.49.79-5,1-7.51l0-.28c.29-3,.43-6,.43-9v-.42q0-4.45-.46-8.89a92.3,92.3,0,0,0-1.37-9.22c-.6-3-1.36-6.07-2.26-9q-1-3.28-2.23-6.5c-.3-.76-.6-1.52-.91-2.27-.16-.39-.33-.78-.49-1.16-.52-1.21-1.06-2.4-1.63-3.58s-1.22-2.47-1.87-3.69l-.38-.72q-2-3.73-4.41-7.28-2.6-3.88-5.55-7.49l-.71-.85q-2.26-2.68-4.71-5.2l-.85-.86q-3.3-3.29-6.9-6.26c-1.06-.86-2.14-1.71-3.24-2.54q-2.09-1.56-4.25-3-3.89-2.6-8-4.79l-1.21-.64c-2.36-1.22-4.76-2.33-7.22-3.35C128.48,6,125.55,5,122.58,4.09s-6-1.66-9-2.27-5.91-1-8.9-1.33l-.32,0Q99.81,0,95.3,0H95Z"/></clipPath><clipPath id="clip-path-2"><rect class="cls-1" x="47.33" y="137.09" width="5.52" height="5.52"/></clipPath><clipPath id="clip-path-3"><rect class="cls-1" x="46.23" y="135.99" width="7.73" height="7.74"/></clipPath></defs><g id="Layer_2" data-name="Layer 2"><g id="Layer_1-2" data-name="Layer 1"><g class="cls-2"><path class="cls-3" d="M95,0c1.55,0,3.11,0,4.66.12s3.1.19,4.65.34,3.09.34,4.63.57,3.07.49,4.59.8,3,.64,4.55,1,3,.79,4.5,1.24,3,.94,4.42,1.46,2.92,1.09,4.35,1.68,2.86,1.23,4.27,1.89,2.79,1.37,4.16,2.1,2.73,1.5,4.06,2.3,2.65,1.63,3.94,2.49,2.56,1.76,3.81,2.69,2.48,1.88,3.68,2.86,2.38,2,3.53,3.05,2.28,2.12,3.37,3.22,2.18,2.22,3.22,3.37,2.06,2.33,3.05,3.53,1.94,2.43,2.86,3.68,1.83,2.52,2.69,3.81,1.69,2.61,2.49,3.94,1.57,2.69,2.3,4.06,1.43,2.76,2.1,4.16,1.29,2.83,1.89,4.27,1.15,2.88,1.68,4.35,1,2.94,1.46,4.42.86,3,1.24,4.5.72,3,1,4.55.57,3,.8,4.59.42,3.08.57,4.63.27,3.1.34,4.65S190,93.45,190,95s0,3.11-.12,4.66-.19,3.1-.34,4.65-.34,3.09-.57,4.63-.49,3.07-.8,4.59-.64,3-1,4.55-.79,3-1.24,4.5-.94,3-1.46,4.43-1.09,2.91-1.68,4.35-1.23,2.85-1.89,4.26-1.37,2.79-2.1,4.16-1.5,2.73-2.3,4.06-1.63,2.65-2.49,3.94-1.76,2.56-2.69,3.81-1.88,2.48-2.86,3.68-2,2.38-3.05,3.53-2.12,2.28-3.22,3.38-2.22,2.17-3.37,3.21-2.33,2.06-3.53,3.05-2.43,1.94-3.68,2.87-2.52,1.82-3.81,2.68-2.61,1.7-3.94,2.49-2.69,1.57-4.06,2.3-2.76,1.43-4.16,2.1-2.83,1.29-4.27,1.89-2.88,1.15-4.35,1.68-2.94,1-4.42,1.46-3,.87-4.5,1.24-3,.72-4.55,1-3,.56-4.59.79-3.08.42-4.63.57-3.1.27-4.65.35S96.55,190,95,190s-3.11,0-4.66-.11-3.1-.19-4.65-.35-3.09-.34-4.63-.57-3.07-.49-4.59-.79-3-.65-4.55-1-3-.79-4.5-1.24-3-.94-4.43-1.46-2.91-1.09-4.35-1.68-2.85-1.23-4.26-1.89-2.79-1.36-4.16-2.1-2.73-1.5-4.06-2.3-2.65-1.63-3.94-2.49-2.56-1.76-3.81-2.68-2.48-1.89-3.68-2.87-2.38-2-3.53-3.05-2.28-2.12-3.38-3.21-2.17-2.23-3.21-3.38-2.06-2.33-3.05-3.53-1.94-2.43-2.87-3.68-1.82-2.52-2.68-3.81-1.69-2.61-2.49-3.94-1.57-2.69-2.3-4.06-1.43-2.76-2.1-4.16-1.29-2.83-1.89-4.26S6.08,128.47,5.55,127s-1-2.93-1.46-4.42-.87-3-1.24-4.5-.72-3-1-4.55-.56-3-.79-4.59-.42-3.08-.57-4.63-.27-3.1-.35-4.65S0,96.56,0,95s0-3.11.11-4.66.19-3.1.35-4.65S.8,82.6,1,81.06s.49-3.07.79-4.59.65-3,1-4.55.79-3,1.24-4.5S5,64.46,5.55,63s1.09-2.92,1.68-4.35,1.23-2.86,1.89-4.27,1.36-2.79,2.1-4.16,1.5-2.73,2.3-4.06,1.63-2.65,2.49-3.94,1.76-2.56,2.68-3.81,1.89-2.47,2.87-3.68,2-2.38,3.05-3.53,2.11-2.28,3.21-3.37,2.23-2.18,3.38-3.22,2.33-2.06,3.53-3.05,2.43-1.94,3.68-2.86,2.52-1.83,3.81-2.69,2.61-1.69,3.94-2.49,2.69-1.57,4.06-2.3S53,9.79,54.38,9.12s2.83-1.29,4.26-1.89S61.53,6.08,63,5.55s2.94-1,4.43-1.46,3-.86,4.5-1.24,3-.72,4.55-1,3-.57,4.59-.8S84.14.61,85.69.46s3.1-.27,4.65-.34S93.44,0,95,0"/><rect class="cls-4" x="8.82" y="159.4" width="164.11" height="32.96"/><path class="cls-5" d="M123.57,162.63s-31,7.23-43.5-5.25l4.46-29.78c1.35-8.55.54-25,7.1-30.84a11.39,11.39,0,0,1,2.49-1.69c4.6-2.22,12.78-3.42,20.63-3.45,9.54,0,19.36,7.18,21.87,16.38l-10.33,24.16Z"/><path class="cls-6" d="M120.5,111.69s13.9,26.78,7,28.2c-22.71,4.7-35.87,8.54-35.87,8.54l-1.16,8.82c.34,1.34,45.94.18,51.35-5.95,3.81-4.33,8.88-14.32-1.91-36L136.64,108Z"/><path class="cls-6" d="M94.39,97.89,59.76,111.3,58.68,93.13l-7.41-2.87S40.52,119.42,54,124.85s28.59-4.6,28.59-4.6Z"/><path class="cls-5" d="M98.68,93.44C86.59,97.3,79.4,101.8,62.37,108.9l8.73,19.49,15.06-4.82Z"/><polyline class="cls-5" points="118.42 107.98 127.2 128.38 147.01 124.77 133.66 101.78 117.87 107.98"/><path class="cls-7" d="M108.05,121.89c4.22-.23,8.38,0,12.6,0,.37,0,.35-.52,0-.56a63.92,63.92,0,0,0-12.6.06c-.31,0-.32.51,0,.49"/><path class="cls-7" d="M127,98.22c-14.25,1.29-4.51,22.31-.85,28.67a.32.32,0,0,0,.42.1.33.33,0,0,0,.13-.42c-3.64-6.43-13.35-26,.35-28,.19,0,.15-.36,0-.35"/><path class="cls-7" d="M87.44,110.24a118.15,118.15,0,0,0-3.37,21.48c0,.3.48.38.53.07,1-7.16,2-14.31,3.2-21.46,0-.22-.3-.33-.36-.09"/><path class="cls-8" d="M120.81,71.42q.31-4.52.65-9a4.55,4.55,0,0,0,2.65-6,5.76,5.76,0,0,0-6.06-3.19c1.54-1,1.42-3.54.16-4.91a7.23,7.23,0,0,0-5.09-1.88,38.09,38.09,0,0,1-5.56-.18c-1.62-.3-3.21-1-4.82-.83s-3.2,2-2.31,3.43c-2.36-.35-4.91-.66-7,.48s-3.14,4.37-1.35,5.92a2.57,2.57,0,0,0-.81,3.48,4.18,4.18,0,0,0,3.37,1.86A12.22,12.22,0,0,0,98.58,60"/><path class="cls-6" d="M120.42,65.57l-.48,6.26s5.3.72,3.8,5.57-5.16,2.73-5.16,2.73-.9,12.43-13.64,8.49c-10.12-3.14-9.52-16.26-8.23-27.47a7.55,7.55,0,0,1,3-5.18,7.46,7.46,0,0,1,5.86-1.29l7.66,1.49a8.89,8.89,0,0,1,7.16,9.4"/><path class="cls-6" d="M120,77l-3.43,18.31a7.35,7.35,0,0,1-14.46-2.63l1.86-10.49Z"/><path class="cls-8" d="M105.86,77.22a.27.27,0,0,1,0,.12.5.5,0,0,1-.3.25c-.34.14-.9-.2-1-.79a6,6,0,0,1-.1-2c.05-.76.09-1.58.15-2.44.1-1.73.21-3.3.31-4.43,0-.57.09-1,.13-1.34a1.51,1.51,0,0,1,.08-.48,1.93,1.93,0,0,1,0,.48c0,.32,0,.77,0,1.34,0,1.14-.13,2.71-.24,4.44-.05.86-.11,1.68-.16,2.44a6.07,6.07,0,0,0,0,1.95c.11.54.56.83.84.75a.62.62,0,0,0,.36-.28"/><path class="cls-8" d="M101.75,87.33s.6.41,1.65.91a10.52,10.52,0,0,0,8.78.19c1.07-.46,1.67-.88,1.7-.85a2.06,2.06,0,0,1-.4.33,9.79,9.79,0,0,1-1.22.69,10,10,0,0,1-8.94-.19,10.31,10.31,0,0,1-1.19-.74,2.05,2.05,0,0,1-.38-.34"/><path class="cls-8" d="M104.22,79.79s.28.27.82.55a2.9,2.9,0,0,0,4-1.29c.28-.54.3-.94.35-.93a1.76,1.76,0,0,1-.18,1A2.94,2.94,0,0,1,105,80.5c-.56-.34-.77-.7-.74-.71"/><path class="cls-8" d="M120.35,78a4.62,4.62,0,0,0,.71-.24.93.93,0,0,0,.48-.55.54.54,0,0,0-.27-.71.45.45,0,0,0-.52.12l-.22-.11a8.75,8.75,0,0,1,.88-1.69,8.71,8.71,0,0,1-.65,1.79l-.22-.11a.66.66,0,0,1,.82-.24.71.71,0,0,1,.43.48.92.92,0,0,1,0,.57,1.24,1.24,0,0,1-1.42.72"/><path class="cls-8" d="M110.54,65.67a2.13,2.13,0,0,1,2.56.67,11.12,11.12,0,0,0-1.23-.53,9.83,9.83,0,0,0-1.33-.14"/><path class="cls-8" d="M99.53,63.92a2.12,2.12,0,0,1,1.49-.33,2.08,2.08,0,0,1,1.42.58c0,.07-.63-.25-1.45-.31s-1.44.13-1.47.06"/><path class="cls-8" d="M120,71.82c-3.56-3.46-4.6-9.24-5.57-14.11a12.41,12.41,0,0,1-11.61,1.51,18.8,18.8,0,0,1-4.14,3.62,1.85,1.85,0,0,1-1.45.4c-.59-.17-.86-.86-1-1.47a10.45,10.45,0,0,1,.2-5.89,7.13,7.13,0,0,1,4-4.25,10.33,10.33,0,0,1,6.29.11,34.81,34.81,0,0,1,8.88,3.66C118.23,57,120.84,59.1,122,62s1.14,8.63-1.64,10.12"/><path class="cls-8" d="M111.5,70.76c-.07,0-.1-.44-.06-1a2.07,2.07,0,0,1,.2-1c.07,0,.1.44.06,1a1.92,1.92,0,0,1-.2,1"/><path class="cls-8" d="M101.26,69.46c-.07,0-.09-.44-.05-1a2.14,2.14,0,0,1,.19-1c.08,0,.1.44.07,1s-.13,1-.21,1"/><path class="cls-6" d="M50.89,90.88s1.54-9.45,3.38-9.35,5.51,0,5.51,0,.31-9,1.33-7.55,1.34,13.51-2.6,19.31Z"/><path class="cls-6" d="M91.63,148.43s-16.48,2.89-16.16,5a15.54,15.54,0,0,0,1.48,4.3l14.68-.35Z"/><polygon class="cls-9" points="109.49 158.27 109.36 155.98 75.43 153.91 64.05 123.47 26.8 125.51 39.51 158.44 109.49 158.27"/></g><g class="cls-10"><path class="cls-11" d="M47.34,140a2.75,2.75,0,0,0,1.83,2.47A2.76,2.76,0,1,0,47.34,140"/></g><g class="cls-12"><path class="cls-11" d="M46.23,140.07a3.86,3.86,0,1,0,1-2.8,3.86,3.86,0,0,0-1,2.8"/></g><g class="cls-2"><path class="cls-4" d="M21.27,158.94,167,157.12l8.53,4.48S63.65,192.29,21.27,158.94"/></g></g></g></svg>