<?xml version="1.0" encoding="UTF-8"?><svg id="Layer_2" xmlns="http://www.w3.org/2000/svg" viewBox="0 0 31.32 31.32"><defs><style>.cls-1{fill:#fff;}.cls-2{fill:#0e2245;}</style></defs><g id="Layer_1-2"><g><circle class="cls-2" cx="15.66" cy="15.66" r="15.66"/><g><path class="cls-1" d="M5.69,20.55c1.16,.56,2.26,.34,2.99-.73,.42,.69,1.04,1.01,1.83,1.02,.79,.01,1.38-.34,1.8-.94,.34,.26,.64,.55,.98,.74,1.1,.61,2.62-.07,2.89-1.29,.08-.37,.07-.77,.08-1.16,.01-.68,0-1.35,0-2.03,.01-1.2,.04-2.39,.04-3.59,0-1.16,0-2.32,0-3.48,0-.72-.02-1.44-.04-2.16-.02-1.21,1.04-2.02,2.12-1.61,.62,.24,1,.77,1,1.51,0,.91-.02,1.83-.02,2.74,0,1.21,0,2.41,0,3.62,0,.99,0,1.98,.02,2.97,0,.59,.11,1.16,.42,1.66,.38,.6,.99,.81,1.84,.68,.91-.14,1.81-.35,2.7-.57,1.05-.25,2.18,.59,2.25,1.66,.06,1.03-.64,1.81-1.61,2.01-1.69,.35-3.37,.79-5.07,1.09-.78,.14-1.13,.49-1.34,1.22-.22,.76-.54,1.51-.95,2.18-.71,1.16-1.8,1.76-3.17,1.91-1.05,.11-1.94-.32-2.86-.66-.96-.35-1.91-.73-2.87-1.09-.8-.3-1.6-.63-2.19-1.29-1.14-1.3-1.45-2.76-.85-4.42Z"/><path class="cls-1" d="M11.57,19.84c-.42,.5-1.16,.57-1.64,.34-.65-.31-.98-.86-.97-1.58,0-.92,.02-1.85,.02-2.77,0-1.09-.01-2.18,0-3.27,0-.57,.41-1.09,.97-1.31,.59-.23,1.11-.09,1.57,.31,.4,.35,.54,.78,.53,1.32-.03,1.22-.01,2.43,0,3.65,0,.73,.03,1.46,.03,2.19,0,.46-.14,.86-.5,1.13Z"/><path class="cls-1" d="M15.26,11.64c.4,.33,.48,.78,.48,1.27-.02,1.46-.02,2.93-.02,4.39,0,.48-.02,.97,.02,1.45,.05,.73-.79,1.61-1.61,1.55-.78-.06-1.49-.68-1.48-1.62,.02-1.26,.01-2.52,0-3.78,0-.71-.03-1.41-.04-2.12,0-1.16,1.19-1.99,2.32-1.43,.13,.06,.21,.2,.32,.3Z"/><path class="cls-1" d="M5.75,19.79c-.35-.31-.46-.71-.45-1.19,.02-1.35,.01-2.7,.02-4.05,0-.46-.02-.92,.05-1.37,.09-.58,.7-1.05,1.42-1.13,.42-.05,1.08,.26,1.38,.74,.23,.38,.25,.78,.25,1.19,0,.99-.02,1.98-.03,2.98,0,.62,0,1.24,0,1.86,0,.67-.38,1.18-1.07,1.42-.41,.15-1.04,.17-1.55-.44Z"/><path class="cls-1" d="M25.02,15.36c-.26-.23-.24-.51-.11-.75,.14-.24,.37-.41,.7-.34,.68,.14,1.37,.26,2.06,.38,.45,.08,.69,.35,.64,.74-.05,.38-.38,.61-.82,.54-.71-.12-1.42-.25-2.12-.39-.12-.02-.23-.12-.35-.18Z"/><path class="cls-1" d="M25.06,12.29c.13-.05,.34-.15,.55-.23,.54-.2,1.08-.39,1.62-.59,.35-.13,.76,0,.88,.33,.14,.37-.02,.74-.36,.85-.74,.25-1.47,.54-2.22,.79-.28,.09-.53-.03-.67-.29-.15-.29-.13-.55,.19-.85Z"/><path class="cls-1" d="M23.44,7.35c.03,.28,.09,.51,.06,.72-.09,.65-.22,1.29-.33,1.93-.07,.41-.36,.67-.72,.66-.37-.01-.64-.31-.59-.68,.11-.73,.23-1.47,.37-2.2,.06-.3,.22-.56,.56-.57,.19,0,.37,.08,.64,.14Z"/><path class="cls-1" d="M24.97,11.25c-.55,.53-.84,.53-1.17,.1-.16-.2-.17-.43-.03-.62,.26-.35,.56-.67,.84-1,.21-.26,.43-.51,.63-.78,.2-.26,.64-.36,.9-.17,.3,.22,.39,.65,.17,.92-.23,.29-.47,.57-.71,.84-.23,.27-.47,.54-.62,.71Z"/></g></g></g></svg>