<svg xmlns="http://www.w3.org/2000/svg" width="44.67" height="44.669" viewBox="0 0 44.67 44.669"><g transform="translate(-1793.333 -5069.357)"><path d="M1815.668,5069.357q1.1,0,2.189.107t2.168.322q1.077.215,2.126.532t2.064.739q1.014.42,1.982.937t1.88,1.127q.912.609,1.76,1.3t1.624,1.473q.775.776,1.472,1.624t1.306,1.76q.609.912,1.127,1.88t.937,1.982q.42,1.012.738,2.063t.533,2.127q.213,1.075.321,2.168t.108,2.188q0,1.1-.108,2.19t-.321,2.168q-.214,1.076-.533,2.126t-.738,2.064q-.42,1.014-.937,1.981t-1.127,1.88q-.61.913-1.306,1.761t-1.472,1.624q-.776.776-1.624,1.472t-1.76,1.305q-.914.61-1.88,1.127t-1.982.937q-1.014.421-2.064.739t-2.126.532q-1.076.215-2.168.322t-2.189.107q-1.1,0-2.189-.107t-2.168-.322q-1.077-.213-2.127-.532t-2.063-.739q-1.014-.42-1.982-.937t-1.88-1.127q-.912-.609-1.76-1.305t-1.624-1.472q-.775-.777-1.472-1.624t-1.306-1.761q-.609-.912-1.127-1.88t-.937-1.981q-.42-1.014-.738-2.064t-.533-2.126q-.213-1.075-.321-2.168t-.108-2.19q0-1.1.108-2.188t.321-2.168q.215-1.077.533-2.127t.738-2.063q.42-1.014.937-1.982t1.127-1.88q.61-.913,1.306-1.76t1.472-1.624q.775-.777,1.624-1.473t1.76-1.3q.914-.611,1.88-1.127t1.982-.937q1.014-.42,2.063-.739t2.127-.532q1.075-.215,2.168-.322t2.189-.107" fill="#fff"/><path d="M1815.668,5077.629c-3.818,0-4.3,0-5.8.083a10.349,10.349,0,0,0-3.415.661,7.186,7.186,0,0,0-4.113,4.113,10.262,10.262,0,0,0-.662,3.412c-.069,1.5-.086,1.985-.086,5.8s0,4.3.086,5.8a10.329,10.329,0,0,0,.662,3.415,7.189,7.189,0,0,0,4.113,4.11,10.245,10.245,0,0,0,3.415.661c1.5.07,1.985.086,5.8.086s4.3-.016,5.8-.086a10.246,10.246,0,0,0,3.415-.661,7.192,7.192,0,0,0,4.113-4.11,10.329,10.329,0,0,0,.662-3.415c.069-1.5.086-1.985.086-5.8s0-4.3-.086-5.8a10.262,10.262,0,0,0-.662-3.412,7.186,7.186,0,0,0-4.113-4.113,10.349,10.349,0,0,0-3.415-.661c-1.5-.07-1.985-.083-5.8-.083m0,2.531c3.755,0,4.2.017,5.681.083a7.817,7.817,0,0,1,2.614.483,4.436,4.436,0,0,1,1.615,1.052,4.36,4.36,0,0,1,1.052,1.618,7.741,7.741,0,0,1,.483,2.611c.07,1.482.083,1.929.083,5.685s0,4.2-.083,5.681a7.739,7.739,0,0,1-.483,2.611,4.659,4.659,0,0,1-2.667,2.67,7.83,7.83,0,0,1-2.614.483c-1.482.066-1.926.083-5.681.083s-4.2-.017-5.681-.083a7.829,7.829,0,0,1-2.614-.483,4.659,4.659,0,0,1-2.667-2.67,7.712,7.712,0,0,1-.483-2.611c-.07-1.483-.083-1.929-.083-5.681s0-4.2.083-5.685a7.71,7.71,0,0,1,.483-2.611,4.36,4.36,0,0,1,1.052-1.618,4.427,4.427,0,0,1,1.615-1.052,7.816,7.816,0,0,1,2.614-.483c1.482-.066,1.925-.083,5.681-.083" fill="#020303"/><path d="M1815.668,5096.38a4.688,4.688,0,1,1,4.689-4.685,4.689,4.689,0,0,1-4.689,4.685Zm0-11.912a7.224,7.224,0,1,0,7.22,7.222,7.225,7.225,0,0,0-7.22-7.222" fill="#020303"/><path d="M1823.176,5082.5a1.688,1.688,0,0,1,.646,3.247,1.695,1.695,0,0,1-1.292,0,1.658,1.658,0,0,1-.547-.367,1.64,1.64,0,0,1-.366-.547,1.693,1.693,0,0,1,0-1.291,1.644,1.644,0,0,1,.366-.548,1.68,1.68,0,0,1,1.193-.494" fill="#020303"/></g></svg>