<?xml version="1.0" encoding="UTF-8"?><svg id="Layer_2" xmlns="http://www.w3.org/2000/svg" viewBox="0 0 1505.52 457.84"><defs><style>.cls-1{fill:#fff;}.cls-2{fill:#05d5fb;}.cls-3{fill:#f93646;}.cls-4{fill:#ffd109;}.cls-5{fill:#06ef79;}</style></defs><g id="Layer_1-2"><g><path class="cls-1" d="M58.2,0H1447.33c32.12,0,58.2,26.08,58.2,58.2V399.65c0,32.12-26.08,58.19-58.19,58.19H58.19c-32.12,0-58.19-26.08-58.19-58.19V58.2C0,26.08,26.08,0,58.2,0Z"/><g><path d="M493.4,276.56h21v47.63c-6.15,4.89-13.31,8.65-21.51,11.27-8.19,2.62-16.62,3.93-25.26,3.93-12.18,0-23.16-2.65-32.95-7.94-9.79-5.29-17.47-12.6-23.04-21.94-5.58-9.33-8.36-19.86-8.36-31.58s2.79-22.25,8.36-31.58c5.57-9.33,13.29-16.64,23.13-21.93,9.84-5.29,20.91-7.94,33.2-7.94,10.01,0,19.12,1.65,27.31,4.95,8.19,3.3,15.08,8.14,20.65,14.51l-14,13.66c-9.11-9.1-20.09-13.66-32.95-13.66-8.42,0-15.9,1.77-22.45,5.29-6.55,3.53-11.67,8.48-15.36,14.85-3.7,6.37-5.55,13.66-5.55,21.85s1.85,15.14,5.55,21.51c3.7,6.37,8.82,11.38,15.36,15.02,6.54,3.64,13.97,5.46,22.28,5.46,9.33,0,17.52-2.05,24.58-6.15v-37.21Z"/><path d="M557.58,332.9c-7.4-3.98-13.17-9.53-17.33-16.64-4.16-7.11-6.23-15.16-6.23-24.15s2.07-17.01,6.23-24.07c4.15-7.05,9.93-12.57,17.33-16.56,7.4-3.98,15.7-5.97,24.92-5.97s17.69,1.99,25.09,5.97c7.4,3.98,13.17,9.5,17.33,16.56,4.15,7.06,6.23,15.08,6.23,24.07s-2.08,17.04-6.23,24.15c-4.16,7.11-9.93,12.66-17.33,16.64-7.4,3.98-15.76,5.97-25.09,5.97s-17.53-1.99-24.92-5.97Zm44.38-20.14c5.12-5.23,7.68-12.12,7.68-20.65s-2.56-15.42-7.68-20.65c-5.12-5.23-11.61-7.85-19.46-7.85s-14.31,2.62-19.37,7.85c-5.06,5.24-7.6,12.12-7.6,20.65s2.53,15.42,7.6,20.65c5.06,5.24,11.52,7.85,19.37,7.85s14.34-2.62,19.46-7.85Z"/><path d="M667.68,332.9c-7.4-3.98-13.17-9.53-17.33-16.64-4.16-7.11-6.23-15.16-6.23-24.15s2.07-17.01,6.23-24.07c4.15-7.05,9.93-12.57,17.33-16.56,7.4-3.98,15.7-5.97,24.92-5.97s17.69,1.99,25.09,5.97c7.4,3.98,13.17,9.5,17.33,16.56,4.15,7.06,6.23,15.08,6.23,24.07s-2.08,17.04-6.23,24.15c-4.16,7.11-9.93,12.66-17.33,16.64-7.4,3.98-15.76,5.97-25.09,5.97s-17.53-1.99-24.92-5.97Zm44.38-20.14c5.12-5.23,7.68-12.12,7.68-20.65s-2.56-15.42-7.68-20.65c-5.12-5.23-11.61-7.85-19.46-7.85s-14.31,2.62-19.37,7.85c-5.06,5.24-7.6,12.12-7.6,20.65s2.53,15.42,7.6,20.65c5.06,5.24,11.52,7.85,19.37,7.85s14.34-2.62,19.46-7.85Z"/><path d="M852.2,246.52v77.33c0,32.09-16.39,48.14-49.16,48.14-8.76,0-17.07-1.11-24.92-3.33-7.85-2.22-14.34-5.44-19.46-9.64l9.56-16.05c3.98,3.3,9.02,5.95,15.11,7.94,6.09,1.99,12.26,2.99,18.52,2.99,10.01,0,17.35-2.28,22.02-6.83,4.67-4.55,7-11.49,7-20.83v-4.78c-3.64,3.98-8.08,7-13.31,9.05-5.24,2.05-10.98,3.07-17.24,3.07-8.65,0-16.47-1.85-23.47-5.55-7-3.7-12.52-8.9-16.56-15.62-4.04-6.71-6.06-14.39-6.06-23.04s2.02-16.3,6.06-22.96c4.04-6.66,9.56-11.8,16.56-15.45,7-3.64,14.82-5.46,23.47-5.46,6.6,0,12.6,1.08,18.01,3.24,5.4,2.16,9.93,5.46,13.57,9.9v-12.12h20.31Zm-28.76,61.71c5.18-4.84,7.77-11.12,7.77-18.86s-2.59-13.83-7.77-18.61c-5.18-4.78-11.81-7.17-19.89-7.17s-14.88,2.39-20.06,7.17c-5.18,4.78-7.77,10.98-7.77,18.61s2.59,14.03,7.77,18.86c5.18,4.84,11.86,7.25,20.06,7.25s14.71-2.42,19.89-7.25Z"/><path d="M880.2,211.01h21.34v126.66h-21.34v-126.66Z"/><path d="M1014.88,298.93h-71.52c1.25,6.72,4.52,12.03,9.82,15.96,5.29,3.93,11.86,5.89,19.72,5.89,10.01,0,18.26-3.3,24.75-9.9l11.44,13.14c-4.1,4.89-9.28,8.59-15.53,11.1-6.26,2.5-13.31,3.76-21.17,3.76-10.02,0-18.84-1.99-26.46-5.97-7.63-3.98-13.51-9.53-17.67-16.64-4.16-7.11-6.23-15.16-6.23-24.15s2.02-16.87,6.06-23.98c4.04-7.11,9.64-12.66,16.81-16.64,7.17-3.98,15.25-5.97,24.24-5.97s16.81,1.96,23.81,5.89c7,3.93,12.46,9.45,16.39,16.56,3.93,7.11,5.89,15.34,5.89,24.67,0,1.48-.11,3.58-.34,6.32Zm-63.07-30.3c-4.72,4.04-7.6,9.42-8.62,16.13h51.72c-.91-6.6-3.7-11.95-8.36-16.05-4.67-4.1-10.47-6.15-17.41-6.15s-12.61,2.02-17.33,6.06Z"/><path d="M1161.08,223.31c7.68,3.41,13.57,8.31,17.67,14.68,4.1,6.37,6.15,13.94,6.15,22.7s-2.05,16.19-6.15,22.62c-4.1,6.43-9.99,11.35-17.67,14.77-7.68,3.41-16.7,5.12-27.06,5.12h-26.97v34.48h-22.19v-119.49h49.16c10.35,0,19.37,1.71,27.06,5.12Zm-6.06,54.97c5.01-4.1,7.51-9.96,7.51-17.58s-2.5-13.49-7.51-17.58c-5.01-4.1-12.35-6.15-22.02-6.15h-25.95v47.45h25.95c9.67,0,17.01-2.05,22.02-6.15Z"/><path d="M1206.74,211.01h21.34v126.66h-21.34v-126.66Z"/><path d="M1321.7,255.14c7.11,6.43,10.67,16.13,10.67,29.1v53.43h-20.14v-11.1c-2.62,3.98-6.35,7.03-11.18,9.13-4.84,2.1-10.67,3.16-17.5,3.16s-12.8-1.17-17.92-3.5c-5.12-2.33-9.08-5.57-11.86-9.73-2.79-4.15-4.18-8.85-4.18-14.08,0-8.19,3.04-14.77,9.13-19.72,6.09-4.95,15.67-7.43,28.76-7.43h23.56v-1.37c0-6.37-1.91-11.27-5.72-14.68-3.81-3.41-9.47-5.12-16.98-5.12-5.12,0-10.16,.8-15.11,2.39-4.95,1.6-9.13,3.81-12.55,6.66l-8.36-15.53c4.78-3.64,10.52-6.43,17.24-8.36,6.71-1.93,13.83-2.9,21.34-2.9,13.43,0,23.7,3.22,30.81,9.64Zm-19.46,64.52c4.15-2.45,7.08-5.95,8.79-10.5v-10.58h-22.02c-12.29,0-18.44,4.04-18.44,12.12,0,3.87,1.54,6.94,4.61,9.22,3.07,2.28,7.34,3.41,12.8,3.41s10.1-1.22,14.25-3.67Z"/><path d="M1443.33,246.52l-42.67,98.49c-3.98,9.9-8.82,16.87-14.51,20.91-5.69,4.04-12.58,6.06-20.65,6.06-4.55,0-9.05-.74-13.49-2.22-4.44-1.48-8.08-3.53-10.92-6.15l8.54-15.7c2.05,1.93,4.46,3.47,7.25,4.61,2.79,1.14,5.6,1.71,8.45,1.71,3.76,0,6.86-.97,9.3-2.9,2.45-1.94,4.69-5.18,6.74-9.73l1.54-3.58-39.77-91.5h22.19l28.68,67.43,28.85-67.43h20.48Z"/></g><g><path class="cls-4" d="M362.26,223.08l-57.36-33.1-47.17,45.6,43.11,41.68,61.42-35.45c3.38-1.95,5.4-5.45,5.4-9.36s-2.02-7.41-5.4-9.37Z"/><polygon class="cls-5" points="295.17 184.35 232.04 147.92 93.71 77.03 249.95 228.06 295.17 184.35"/><polygon class="cls-3" points="96.01 391.91 232.28 316.84 291.1 282.88 249.95 243.1 96.01 391.91"/><polygon class="cls-2" points="84.48 83.14 84.33 388.16 242.18 235.58 84.48 83.14"/></g><g><path d="M441.46,151.85c-4.82,0-9.31-1.05-13.48-3.15-4.17-2.1-7.8-4.92-10.89-8.47-3.1-3.54-5.51-7.54-7.23-11.98-1.72-4.44-2.58-9.04-2.58-13.79s.86-9.65,2.58-14.09c1.72-4.44,4.11-8.38,7.18-11.82,3.06-3.44,6.68-6.14,10.84-8.11,4.16-1.96,8.69-2.94,13.58-2.94,7.09,0,12.94,1.48,17.55,4.44,4.61,2.96,8.09,6.82,10.43,11.57l-7.12,4.96c-2.13-4.27-5.06-7.43-8.78-9.5-3.72-2.07-7.81-3.1-12.29-3.1-3.72,0-7.09,.79-10.12,2.37-3.03,1.58-5.63,3.74-7.8,6.45-2.17,2.72-3.82,5.8-4.96,9.24-1.14,3.44-1.7,7.02-1.7,10.74,0,3.92,.64,7.62,1.91,11.1,1.27,3.48,3.08,6.54,5.42,9.19,2.34,2.65,5.06,4.73,8.16,6.25,3.1,1.51,6.44,2.27,10.02,2.27,4.2,0,8.19-1.07,11.98-3.2,3.79-2.13,7.37-5.4,10.74-9.81v9.6c-6.61,7.85-14.42,11.77-23.44,11.77Zm22.3-30.05h-15.8v-7.02h23.65v36.55h-7.85v-29.53Z"/><path d="M535.52,143.07v8.26h-49.77V78.02h48.84v8.26h-39.55v23.75h34.39v7.74h-34.39v25.3h40.48Z"/><path d="M601.09,86.28h-25.3v65.05h-9.29V86.28h-25.3v-8.26h59.89v8.26Z"/><path d="M634.65,151.33V78.02h9.29v73.31h-9.29Z"/><path d="M670.79,95.16v56.17h-9.29V78.02h7.85l44.82,57.31v-57.21h9.29v73.21h-8.47l-44.19-56.17Z"/><path d="M796.87,151.85c-5.16,0-9.85-1.03-14.04-3.1-4.2-2.07-7.83-4.87-10.89-8.42-3.06-3.55-5.42-7.54-7.07-11.98-1.65-4.44-2.48-9-2.48-13.68s.88-9.55,2.63-13.99c1.76-4.44,4.2-8.4,7.33-11.87,3.13-3.48,6.8-6.23,11-8.26,4.2-2.03,8.78-3.05,13.73-3.05s9.84,1.07,14.04,3.2c4.2,2.13,7.81,4.99,10.84,8.57,3.03,3.58,5.37,7.57,7.02,11.98,1.65,4.41,2.48,8.92,2.48,13.53,0,4.89-.86,9.55-2.58,13.99-1.72,4.44-4.15,8.4-7.28,11.87-3.13,3.48-6.8,6.21-11,8.21-4.2,2-8.78,2.99-13.73,2.99Zm-25.09-37.17c0,3.72,.6,7.32,1.81,10.79,1.2,3.48,2.91,6.56,5.11,9.24,2.2,2.68,4.85,4.82,7.95,6.4,3.1,1.58,6.54,2.37,10.33,2.37s7.43-.83,10.53-2.48c3.1-1.65,5.73-3.85,7.9-6.61,2.17-2.75,3.82-5.85,4.96-9.29,1.14-3.44,1.7-6.92,1.7-10.43,0-3.72-.6-7.3-1.81-10.74-1.2-3.44-2.93-6.52-5.16-9.24-2.24-2.72-4.89-4.85-7.95-6.4-3.06-1.55-6.45-2.32-10.17-2.32-3.92,0-7.43,.81-10.53,2.43-3.1,1.62-5.73,3.8-7.9,6.56-2.17,2.75-3.84,5.83-5.01,9.24-1.17,3.41-1.76,6.9-1.76,10.48Z"/><path d="M853.66,95.16v56.17h-9.29V78.02h7.85l44.81,57.31v-57.21h9.29v73.21h-8.47l-44.19-56.17Z"/></g></g></g></svg>