<?xml version="1.0" encoding="UTF-8"?><svg id="Layer_2" xmlns="http://www.w3.org/2000/svg" viewBox="0 0 44.67 44.67"><defs><style>.cls-1{fill:#fff;}</style></defs><g id="Layer_1-2"><g><path class="cls-1" d="M22.34,0c.73,0,1.46,.04,2.19,.11,.73,.07,1.45,.18,2.17,.32,.72,.14,1.43,.32,2.13,.53,.7,.21,1.39,.46,2.06,.74,.68,.28,1.34,.59,1.98,.94,.65,.35,1.27,.72,1.88,1.13,.61,.41,1.19,.84,1.76,1.3,.56,.47,1.11,.96,1.62,1.47,.52,.52,1.01,1.06,1.47,1.62,.46,.57,.9,1.15,1.31,1.76,.41,.61,.78,1.23,1.13,1.88,.34,.65,.66,1.31,.94,1.98,.28,.67,.53,1.36,.74,2.06s.39,1.41,.53,2.13c.14,.72,.25,1.44,.32,2.17,.07,.73,.11,1.46,.11,2.19s-.04,1.46-.11,2.19c-.07,.73-.18,1.45-.32,2.17-.14,.72-.32,1.43-.53,2.13-.21,.7-.46,1.39-.74,2.06-.28,.68-.59,1.34-.94,1.98-.35,.65-.72,1.27-1.13,1.88-.41,.61-.84,1.2-1.31,1.76-.46,.56-.95,1.11-1.47,1.62-.52,.52-1.06,1.01-1.62,1.47-.57,.46-1.15,.9-1.76,1.3-.61,.41-1.23,.78-1.88,1.13-.65,.35-1.31,.66-1.98,.94-.68,.28-1.36,.53-2.06,.74-.7,.21-1.41,.39-2.13,.53-.72,.14-1.44,.25-2.17,.32s-1.46,.11-2.19,.11-1.46-.04-2.19-.11-1.45-.18-2.17-.32c-.72-.14-1.43-.32-2.13-.53-.7-.21-1.39-.46-2.06-.74-.68-.28-1.34-.59-1.98-.94-.65-.34-1.27-.72-1.88-1.13-.61-.41-1.19-.84-1.76-1.3-.57-.46-1.11-.95-1.62-1.47-.52-.52-1.01-1.06-1.47-1.62-.46-.57-.9-1.15-1.31-1.76-.41-.61-.78-1.23-1.13-1.88-.34-.64-.66-1.3-.94-1.98-.28-.68-.53-1.36-.74-2.06-.21-.7-.39-1.41-.53-2.13-.14-.72-.25-1.44-.32-2.17-.07-.73-.11-1.46-.11-2.19s.04-1.46,.11-2.19c.07-.73,.18-1.45,.32-2.17,.14-.72,.32-1.43,.53-2.13s.46-1.39,.74-2.06c.28-.68,.59-1.34,.94-1.98,.35-.64,.72-1.27,1.13-1.88,.41-.61,.84-1.2,1.31-1.76,.46-.57,.95-1.11,1.47-1.62,.52-.52,1.06-1.01,1.62-1.47,.57-.46,1.15-.9,1.76-1.3,.61-.41,1.23-.78,1.88-1.13s1.31-.66,1.98-.94c.68-.28,1.36-.53,2.06-.74,.7-.21,1.41-.39,2.13-.53,.72-.14,1.44-.25,2.17-.32,.73-.07,1.46-.11,2.19-.11"/><g><path d="M8.45,36.4c.17-.63,.34-1.23,.5-1.84,.5-1.81,.99-3.62,1.49-5.44,.01-.05,0-.11-.02-.15-.82-1.45-1.37-3-1.65-4.65-.19-1.15-.25-2.31-.15-3.47,.23-2.87,1.23-5.44,3.01-7.7,2.06-2.6,4.71-4.29,7.94-5.05,1.34-.32,2.7-.43,4.08-.34,3.18,.21,5.99,1.34,8.4,3.42,2.34,2.02,3.87,4.54,4.58,7.55,.31,1.31,.42,2.64,.34,3.98-.19,3.3-1.37,6.19-3.56,8.66-2.09,2.36-4.69,3.86-7.78,4.51-1.09,.23-2.19,.32-3.31,.28-2.2-.08-4.28-.63-6.23-1.67-.08-.04-.15-.05-.23-.02-2.43,.64-4.87,1.28-7.3,1.92-.03,0-.06,.01-.11,.02Zm3.41-3.38s.04,0,.04,0c1.35-.35,2.7-.7,4.04-1.07,.27-.07,.48-.05,.72,.1,1.66,1.02,3.47,1.57,5.42,1.69,.91,.06,1.81,0,2.71-.15,2.14-.38,4.04-1.26,5.68-2.69,2.44-2.13,3.8-4.82,4.08-8.05,.09-1.09,.02-2.18-.2-3.25-.4-1.96-1.23-3.71-2.52-5.23-2.2-2.58-5-3.99-8.39-4.21-1.21-.08-2.41,.05-3.59,.35-5.54,1.42-9.28,6.63-8.85,12.35,.08,1.03,.29,2.04,.63,3.01,.34,.97,.81,1.87,1.37,2.73,.04,.06,.05,.11,.03,.18-.34,1.22-.67,2.44-1,3.66-.05,.19-.1,.39-.16,.59Z"/><path d="M18.15,15.39c.15,0,.3,0,.45,0,.15,0,.29,.06,.37,.19,.1,.14,.19,.29,.26,.44,.35,.82,.69,1.65,1.03,2.48,.03,.07,.06,.13,.09,.2,.09,.2,.08,.39-.01,.59-.2,.46-.54,.81-.87,1.17-.31,.34-.34,.46-.1,.86,.87,1.44,1.99,2.63,3.46,3.47,.46,.26,.94,.47,1.42,.69,.28,.13,.46,.07,.66-.16,.38-.47,.76-.94,1.14-1.41,.17-.21,.33-.28,.58-.19,.26,.09,.52,.2,.78,.32,.72,.35,1.44,.71,2.17,1.05,.31,.14,.43,.35,.4,.68-.03,.46-.12,.9-.29,1.32-.09,.23-.24,.42-.42,.58-.54,.5-1.15,.88-1.87,1.03-.7,.15-1.4,.14-2.09-.06-1.03-.29-2.03-.66-2.98-1.16-1.18-.62-2.21-1.44-3.15-2.38-.8-.79-1.51-1.66-2.16-2.58-.46-.65-.88-1.33-1.16-2.08-.21-.58-.34-1.17-.32-1.79,.03-.97,.35-1.83,1.01-2.56,.1-.11,.19-.22,.3-.32,.26-.25,.56-.39,.93-.38,.12,0,.24,0,.36,0v.02Z"/></g></g></g></svg>